<svg id="Layer_1" data-name="Layer 1" xmlns="http://www.w3.org/2000/svg" viewBox="0 0 2151.45 3033.16"><defs><style>.cls-1{fill:#edbc9a;}.cls-2{opacity:0.4;}.cls-3{fill:#fff;}.cls-4{opacity:0.25;}.cls-5{fill:#0f0f14;}.cls-6{fill:#ff2434;}.cls-7{fill:#3e4049;}.cls-8{opacity:0.3;}</style></defs><title>ninja3</title><path class="cls-1" d="M1450.64,2367.66s-21-11.17-41.71-16.49-22.33-38.28-60.61-51c0,0,14.89-31.9-21.8-45.73s-61.15-16-70.72-10.63-23.51,36.15-23.51,36.15-27.54-6.91-47.21,2.13-39.88,80.82-18.61,123.89,126.55,103.69,264.8,112.73C1431.27,2518.67,1471.6,2413.92,1450.64,2367.66Z" transform="translate(-905.15 -410.32)"/><g class="cls-2"><path class="cls-3" d="M1178,2298.27s33.24-4,50.12,0,4.14,8.37,4.14,8.37,37.47-.13,49.43,13.69-.4,21.41,0,19.81,10-6,10-6,30.31,4,39.08,14.36l8.77,10.36s-15.32,6-17.44,8.51-4.06,8.24-4.06,8.24,30.28-8.77,44.24-2,39.08,19.54,39.08,19.54.51-15.92-11.57-25.79-33-15.15-33-15.15-8.51-16.58-23.65-24.06a121.48,121.48,0,0,0-29.53-10l-7.57-7.79s-11.22-12.63-20.57-17-36.86-8.33-36.86-8.33-10.52-4-26.72-5.19S1178.83,2291.49,1178,2298.27Z" transform="translate(-905.15 -410.32)"/></g><g class="cls-2"><path class="cls-3" d="M1253.14,2258c1.46.4,58.09,8.37,72.85,17.55s19.94,13.16,19.94,13.16,8.9-18.35-11.7-30.71-66.87-22.33-72-21.14S1253.14,2258,1253.14,2258Z" transform="translate(-905.15 -410.32)"/></g><g class="cls-4"><path class="cls-5" d="M1164.08,2350.11s4.83,35.89,68.21,54.24,85.72,20.16,94.49,24.84,75.64,46.94,115.59,49.33l-11.1,40.15s-86.67-4.37-174.94-43S1149.31,2413.27,1164.08,2350.11Z" transform="translate(-905.15 -410.32)"/></g><path class="cls-5" d="M1431.27,2532.43q-.45,0-.9,0c-138.38-9-251.13-69.52-276.24-120.36-16.6-33.63-11-78-1.16-105.73,4.77-13.43,13.21-30.72,26.36-36.76,15.43-7.09,33.56-6.47,45.07-5,6.37-12.59,15.5-27.69,24.72-32.81,18.79-10.44,55.1-.44,82.25,9.79,15.23,5.74,25.5,14.88,30.51,27.17a45.74,45.74,0,0,1,2.75,23.37c17.93,9.14,27.48,22.38,34.78,32.52,5.46,7.56,9,12.25,12.94,13.26,22.08,5.66,43.84,17.18,44.75,17.67a13.71,13.71,0,0,1,6.07,6.47c22.69,50.06-14.72,150.36-19.06,161.63A13.76,13.76,0,0,1,1431.27,2532.43ZM1210,2291.16c-6.58,0-13.56.84-19.14,3.4-10.66,5.71-31,66.86-12,105.29,18,36.42,114.19,93.31,243.1,104.31,11-31.75,28.3-94.63,17.83-126.58-6.88-3.34-20.76-9.63-34.22-13.08-13.8-3.54-21.24-13.85-28.43-23.83-7.68-10.64-15.62-21.65-33.12-27.49a13.75,13.75,0,0,1-8.12-18.87h0s3.5-8.21.47-15.39c-2-4.83-7-8.74-14.65-11.64-38.51-14.51-56.08-13.11-59.19-11.48-3.16,2.37-11.71,16.66-17.65,29.79a13.77,13.77,0,0,1-15.89,7.68A87.28,87.28,0,0,0,1210,2291.16Z" transform="translate(-905.15 -410.32)"/><path class="cls-5" d="M1442.38,2453.74a13.74,13.74,0,0,1-12.21-7.4c-3.54-6.77-16.84-13.86-25.16-16.73a13.79,13.79,0,0,1-8.65-17.23c0-.12,2.67-10.51-5.11-26.47-6.24-12.8-29.69-20.63-37.41-22.36a13.85,13.85,0,0,1-9.29-7.21c-12.87-25.38-36.17-22.82-38.77-22.41a14,14,0,0,1-15.45-10.16c-5.45-21.14-34.79-19.05-36-19a14,14,0,0,1-7.65-1.58l-20.85-11.17a13.76,13.76,0,0,1,13-24.26l17.48,9.36c17.08-.32,44.65,5.57,56.7,29.1a66,66,0,0,1,53,32.05c12.53,3.69,39.46,13.9,50,35.55,6.76,13.87,8.37,25.71,8.3,34.05,9.81,4.71,23.76,13.23,30.28,25.7a13.78,13.78,0,0,1-12.19,20.14Z" transform="translate(-905.15 -410.32)"/><path class="cls-5" d="M1258.34,2303.83a134,134,0,0,0-27.42,20.05c-10.06,8.88-14.92,21.15-26.77,28.72a1.46,1.46,0,0,1-2.1-.66c-8.7-20.75,10.46-47.48,25.31-60.77a70.32,70.32,0,0,1,20.58-12.82c17.11-6.19,26.73,17.68,10.4,25.48Z" transform="translate(-905.15 -410.32)"/><path class="cls-5" d="M1309.81,2332.64c-7.89,4.88-18.88,11.61-26.22,17-10.31,7.08-13.81,14.18-26.15,21a1.55,1.55,0,0,1-2.19-.53c-6.94-14.43,3.39-27.19,11.37-37.92,8.72-10.21,18.63-18.41,30.88-24.13,16.11-6.81,27.33,15.87,12.31,24.61Z" transform="translate(-905.15 -410.32)"/><path class="cls-5" d="M1358.74,2363.74c-6.63,1.82-16.09,4.39-22.21,7.17-9.44,4.18-11.22,8.64-22.31,14.05a1.66,1.66,0,0,1-2.12-.51c-11.22-17.52,11.08-36.74,25.55-43.14a53.81,53.81,0,0,1,17.26-4.83c17.48-1.31,20.84,23.64,3.83,27.26Z" transform="translate(-905.15 -410.32)"/><path class="cls-5" d="M1409,2430.35a115,115,0,0,1-27.8-2.75l-.07-.08s-.15,0,.09-.06a8.35,8.35,0,0,0,3.5-1.6c-5.29,3.61-13.17,1.49-16-4-1.71-3.09-1.66-6.18-1.68-9.35,0-4.64,1.19-9.14,6.18-14.11a1.9,1.9,0,0,1,2.23-.34c7.54,4,8.86,7.92,11.66,12.9.25.35.74,1.1.59.34-2.1-5.51-10.22-7.51-15.15-4,2.34-1.6,5.42-2.12,8.16-2.68,9.83-1.94,19.42-2.89,29.28-1.79,16.63,2.35,15.59,26.47-1,27.5Z" transform="translate(-905.15 -410.32)"/><path class="cls-5" d="M1318.39,2334.46h-.7a13.76,13.76,0,0,1,.7-27.52h.06c3.7,0,13-7.46,18.93-15.16a13.76,13.76,0,0,1,21.9,16.67C1356,2312.83,1338.5,2334.46,1318.39,2334.46Z" transform="translate(-905.15 -410.32)"/><path class="cls-6" d="M2505.31,1065s64,63.49,248.43,86.74,269.63-60.55,283.6-84.82.46-112.47-27.29-120.88-115.21,55.7-197,63.46S2541.64,921,2541.64,921" transform="translate(-905.15 -410.32)"/><g class="cls-4"><path class="cls-5" d="M2750.9,1088.25c184.42,23.24,269.64-60.55,283.61-84.82a35.42,35.42,0,0,0,3.43-9.36c6.46,27.82,7,59.73-.6,72.87-14,24.27-99.18,108.06-283.6,84.82S2505.3,1065,2505.3,1065l39.76-10.06c9.92-6,13.75-18.18,13.75-18.18C2597.93,1055.41,2659.67,1076.75,2750.9,1088.25Z" transform="translate(-905.15 -410.32)"/></g><path class="cls-5" d="M2815,1169.5a503.3,503.3,0,0,1-63-4.09c-186.91-23.55-253.65-87.89-256.4-90.61a13.76,13.76,0,0,1,19.35-19.58c1,1,64.76,60.74,240.5,82.89,174.2,22,257.25-56,270-78,6-10.48,5.43-51.38-6.69-82-5.35-13.49-10.63-18.23-12.68-18.85-7.75-2.38-36.69,10.67-59.93,21.15-38,17.12-85.22,38.42-131.74,42.84-3.48.33-7.13.49-10.93.49-88.81,0-260.47-86.56-268-90.4a13.76,13.76,0,1,1,12.45-24.54c1.86.94,187,94.36,263.91,87.05,42-4,86.92-24.25,123-40.53,35.75-16.12,61.58-27.78,79.24-22.4,12.36,3.75,22.55,15.54,30.27,35.06,12.68,32,17.49,84.09,5,105.86C3033.45,1101.28,2959.39,1169.5,2815,1169.5Z" transform="translate(-905.15 -410.32)"/><path class="cls-6" d="M2572.22,975.71s35.59-105.8,152.07-172,155.3-275.06,142.38-304.16-102.62-90.54-171-72c0,0,10.66,187.34-79.69,252.22s-169,106.57-184.08,225.55C2432,905.31,2458.74,980.94,2572.22,975.71Z" transform="translate(-905.15 -410.32)"/><g class="cls-4"><path class="cls-5" d="M2531,952.55s10.42-72.46,72.14-131.48,125.2-57.65,168.23-127.17,59.38-214.13,59.38-214.13,32.05,4.08,37.25,24.53-10.49,116.22-51.7,196.63-116.75,118.18-116.75,118.18-52.75,34.58-86.62,83.53-40.75,73.07-40.75,73.07S2531.31,969.9,2531,952.55Z" transform="translate(-905.15 -410.32)"/></g><path class="cls-5" d="M2560.94,989.74c-112.36,0-140.77-76.47-142-79.84a13.74,13.74,0,0,1-.68-6.33c14.24-112,82.1-159.49,160.67-214.49,9.49-6.64,19.19-13.43,29-20.5,83.24-59.77,74.07-238.46,74-240.26a13.76,13.76,0,0,1,10.13-14.06c76.84-20.82,172.15,45.95,187.14,79.71,15.5,34.92-25.89,252.23-148.16,321.71-110.17,62.61-145.49,163.43-145.84,164.44a13.78,13.78,0,0,1-12.4,9.34C2568.78,989.65,2564.8,989.74,2560.94,989.74Zm11.28-14h0Zm-126.13-72.28c5.67,12.1,33.38,59.34,116.6,58.78,11.65-28,53.86-113.1,154.8-170.46,62.44-35.48,97.81-114.24,113.34-158,24.47-69,26.58-120.62,23.25-128.59-9.73-21.93-83.8-74.76-144.23-66.43.74,43.68-3,192.82-85.79,252.24-9.93,7.14-19.72,14-29.31,20.7C2519.45,764.34,2459.77,806.11,2446.09,903.43Z" transform="translate(-905.15 -410.32)"/><path class="cls-7" d="M1355.64,2126.5s488.07,56,894.22-70.19,497-314.81,365.33-532.33c0,0,22.89-494.4-289.92-758.19s-1069.65-263.91-1316.66,270c-101,238-44.94,633.4-44.94,633.4S782.4,2038.08,1355.64,2126.5Z" transform="translate(-905.15 -410.32)"/><g class="cls-2"><path class="cls-3" d="M2649.32,1591.91c-1.09-1.85-2.15-3.7-3.27-5.56,0,0,0-.84.08-2.31C2647.24,1586.67,2648.29,1589.29,2649.32,1591.91Z" transform="translate(-905.15 -410.32)"/></g><g class="cls-2"><path class="cls-3" d="M980.62,1944.23C936,1878.41,932.2,1808.75,939.35,1756,933.25,1810.54,937.9,1880.74,980.62,1944.23Z" transform="translate(-905.15 -410.32)"/></g><g class="cls-2"><path class="cls-3" d="M948.36,1395c-2.2,150.59,15.31,274.2,15.31,274.2s-17.35,35.39-24.32,86.84c6.17-55.15,23.33-94.3,23.33-94.3S942.44,1542.59,948.36,1395Z" transform="translate(-905.15 -410.32)"/></g><g class="cls-2"><path class="cls-3" d="M2325.27,765.79c89.42,75.41,151.38,169.67,194.31,265.83-40.39-73.94-93.51-144.47-163.45-203.45C2185.21,684,1881.73,618.62,1601.28,676a9.41,9.41,0,0,1,1,1.9c8.13,20.58-59.8,66.7-151.74,103-82.24,32.48-155.78,46.07-176.21,33.84-97,69.25-179,162.6-234.89,283.36-18.81,44.35-64.39,88.34-73.54,136.62-10.3,54.32-15.5,109-17.56,160.21,1.74-118.74,15.73-254.25,60.25-359.2C1255.62,501.88,2012.47,502,2325.27,765.79Z" transform="translate(-905.15 -410.32)"/></g><g class="cls-4"><path class="cls-5" d="M2140.93,1969.57c406.15-126.2,497-314.82,365.34-532.34,0,0,20.81-449.78-248.71-720.23a574,574,0,0,1,67.71,48.79C2638.08,1029.58,2615.19,1524,2615.19,1524c131.64,217.52,40.82,406.14-365.33,532.33s-894.22,70.19-894.22,70.19c-196.36-30.29-304.16-93.49-361.07-163.5,60.94,32.78,142.77,59.88,252.14,76.75C1246.71,2039.75,1734.78,2095.76,2140.93,1969.57Z" transform="translate(-905.15 -410.32)"/></g><path class="cls-1" d="M2140.48,1081.73c79.61,8.3,144.05,68.26,158.84,146.92,22.57,120.11,52,353.69-38.3,441.41-123.86,120.32-486.72,91.87-743.19,106.33s-429,39.45-480.9-150.53-3.11-418.95,19.35-438.19,296.69-37.92,574-61.09C1815.33,1111.11,2008.52,1068,2140.48,1081.73Z" transform="translate(-905.15 -410.32)"/><path class="cls-5" d="M1618.82,2152.33c-155,0-262.47-11.9-264.75-12.16l-.53-.08c-208-32.08-342.76-104.42-400.4-215-60.84-116.71-14-234.8-3.66-258.08-6-44.83-50.53-408,46.46-636.65,101-218.22,298.23-369.65,555.66-426.79,140.2-31.12,289.76-32.65,432.49-4.45,138.88,27.44,263.2,82.9,350.06,156.14C2498.71,894.05,2570.09,1096,2601,1240.94c30.34,142.31,28.8,256.14,28.1,279.46,57,95.8,70.6,184.67,40.42,264.22-44.44,117.13-184.27,213-415.58,284.83C2037.81,2136.61,1796.93,2152.33,1618.82,2152.33Zm-261.36-39.48c13.47,1.5,493.36,53,888.31-69.68,222.82-69.23,356.73-159.5,398-268.31,27.4-72.21,13.82-154.22-40.37-243.76a13.71,13.71,0,0,1-2-7.75c.05-1.23,5.22-124.21-27.52-277.38-30-140.52-99.12-336.07-257.53-469.66-173.71-146.49-485.77-206.47-758.84-145.86-248.85,55.24-439.37,201.23-536.46,411.07-98.12,231.34-44.36,621.78-43.81,625.7a13.74,13.74,0,0,1-1.27,8c-.59,1.19-58.44,122.48,1.67,237.43C1031.12,2014.82,1158.9,2082.18,1357.46,2112.85Z" transform="translate(-905.15 -410.32)"/><path class="cls-5" d="M1309.65,1799.83c-145.08,0-247.48-29.31-286-170.34-52.59-192.58-5.55-427.24,23.67-452.27,20.07-17.2,143.87-28.77,442.94-53,45.39-3.68,92.06-7.46,138.82-11.37,65-5.43,131.33-14.33,195.44-22.95C1943,1074,2054.93,1059,2141.91,1068h0c84.81,8.85,155.1,73.85,170.93,158.06,24.5,130.38,51.6,362.69-42.23,453.83-99.73,96.88-336.78,100.89-566,104.77-65.93,1.12-128.2,2.17-186,5.43q-26.86,1.51-52.48,3.1C1409.86,1796.65,1357.43,1799.83,1309.65,1799.83ZM1065.2,1198.19c-17.11,19.67-65.39,239.48-15,424.05,45.3,165.9,184.16,157.46,414.26,143.52q25.66-1.56,52.59-3.11c58.33-3.29,120.86-4.35,187.06-5.47,213.46-3.61,455.4-7.71,547.32-97,87.76-85.25,53.26-328.41,34.35-429-13.6-72.35-73.94-128.18-146.73-135.78-83.72-8.73-194,6.09-310.86,21.78-64.45,8.66-131.09,17.61-196.82,23.1-46.78,3.91-93.48,7.69-138.89,11.37C1302.91,1167,1088.14,1184.41,1065.2,1198.19Z" transform="translate(-905.15 -410.32)"/><path class="cls-5" d="M1746.13,1546c66.29-41.43,133.23-85,199.28-126.62l34-21c11.78-6.3,21.12-16.34,37.75-15.16a9.88,9.88,0,0,1,9.19,10.56c-3.68,17-19,22.66-29.85,31q-49.47,34-100.37,65.77c-39.9,24.51-79.08,50.42-120.44,72.55a152.25,152.25,0,0,1-21,9.19c-15.21,5.13-25.24-15.6-11.82-24.32l3.21-2Z" transform="translate(-905.15 -410.32)"/><g class="cls-4"><path class="cls-5" d="M925.34,1212.92s908.14,47.64,1610.21-129.65c0,0,35-8.08,33.68-59a90.44,90.44,0,0,1,8.78,21c24.08,85.3-27.33,97.07-27.33,97.07C1848.61,1319.67,940.47,1272,940.47,1272c-10.78-21.9-15.33-42.16-15.69-60.34C925,1212.11,925.14,1212.51,925.34,1212.92Z" transform="translate(-905.15 -410.32)"/></g><path class="cls-6" d="M934.63,1223.71s908.14,47.65,1610.21-129.65c0,0,51.41-11.76,27.33-97.06s-133.9-59.64-133.9-59.64-598.5,104-816.4,120-615.45,8.26-644,11.71S890.82,1134.67,934.63,1223.71Z" transform="translate(-905.15 -410.32)"/><g class="cls-4"><path class="cls-5" d="M919.5,1164.6s908.14,47.65,1610.21-129.65c0,0,35.06-8.07,33.68-59a90.28,90.28,0,0,1,8.78,21c24.08,85.3-27.33,97.06-27.33,97.06-702.07,177.3-1610.21,129.65-1610.21,129.65-10.77-21.9-15.33-42.16-15.69-60.33C919.14,1163.79,919.3,1164.19,919.5,1164.6Z" transform="translate(-905.15 -410.32)"/></g><path class="cls-5" d="M1214.85,1243c-169.32,0-277.82-5.4-280.94-5.56a13.79,13.79,0,0,1-11.63-7.67c-29.63-60.23-14.29-105.7-2.5-127.44,13.92-25.68,36.62-44.55,56.48-46.94,9.44-1.14,46.35-1.19,122.3-1.12,139.84.11,373.89.24,522.3-10.66C1833.36,1028,2417.64,927,2435.54,923.87c42.57-9.82,128.07-7.85,149.88,69.39,10.34,36.63,9.14,66.07-3.56,87.49s-31.81,26.24-34,26.73C2090.27,1223.05,1540.27,1243,1214.85,1243Zm-271.24-32.66c92.74,4.11,941.26,36.18,1597.86-129.64.49-.13,10.4-2.9,17.06-14.61,8.24-14.49,8.38-37.1.4-65.37-20.19-71.53-113.59-50.89-117.55-50l-.75.16c-6,1-601.67,104.29-817.75,120.16-149.43,11-384.11,10.77-524.34,10.73-61.89,0-110.78-.07-119,.92-7.93,1-24.22,11.75-35.59,32.73C935.19,1131.68,924,1165,943.61,1210.36Z" transform="translate(-905.15 -410.32)"/><path class="cls-5" d="M2044.69,1615a114.52,114.52,0,0,0,4.12-62.8l-29.68-138.36a116.11,116.11,0,0,0-4.73-16.21c-4.84-13-206.41,128.81-206.41,128.81l15.88,74a115.19,115.19,0,0,0,12.23,32.36c6.6,11.71,57.67.49,109.16-5.21C1993.11,1622.28,2041.74,1623.18,2044.69,1615Z" transform="translate(-905.15 -410.32)"/><ellipse class="cls-3" cx="1060.56" cy="1107.01" rx="40.07" ry="48.45"/><g class="cls-2"><ellipse class="cls-3" cx="1897.62" cy="1583.38" rx="19.05" ry="24.22" transform="translate(-1477.04 1075.52) rotate(-37.58)"/></g><path class="cls-5" d="M1372.43,1561.59c-14.39,1.21-25.08-1.41-38.47-3.67-33.64-7.1-66.78-15.83-100-24.43s-65.8-18.15-98.31-28.56c-10.62-4.2-22.48-4.13-30.61-17a10.54,10.54,0,0,1,4.42-15.15c13.67-6.51,23.63-.17,34.83,1.87l32.93,8.46c43.76,11.4,87.23,24.32,131,35.62,20.2,5.22,45.57,11.33,65.89,16.42,14.42,3.67,13,24.64-1.68,26.41Z" transform="translate(-905.15 -410.32)"/><path class="cls-5" d="M1179.29,1662.92l-29.69-138.36a115.61,115.61,0,0,1-2.33-16.73c-.91-13.8,241.08,32.82,241.08,32.82l15.87,74a114.53,114.53,0,0,1-2.69,58.57c-2.65,8.41-51.76,2.25-102.25,2.31C1242.25,1675.62,1183,1680.41,1179.29,1662.92Z" transform="translate(-905.15 -410.32)"/><ellipse class="cls-3" cx="1324.29" cy="1595.24" rx="35.85" ry="45.38" transform="translate(-1213.03 -93.57) rotate(-12.23)"/><g class="cls-2"><ellipse class="cls-3" cx="1244.57" cy="1633.83" rx="20.05" ry="25.37" transform="translate(-1669.95 798.37) rotate(-40.76)"/></g><path class="cls-5" d="M1141.05,1661.69c43.25-9,87.58-9.74,131.52-7.76,43.93,2.23,87.85,7.23,130.51,18.63,5,1.3,4.19,9-1,9.12-43.72,1.72-86.93.64-130.52-.41-43.6-1.35-86.92-3.25-130.21-10.41-4.91-.77-5.17-8.15-.25-9.17Z" transform="translate(-905.15 -410.32)"/><path class="cls-5" d="M1785.83,1636c42.39-16.38,87.32-24.29,132.34-28.94,45.06-4.32,90.78-5.31,135.69,1.78,5.13.79,5.09,8.58-.15,9.17-44.39,6.1-88.27,10.86-132.59,16.25-44.4,5.2-88.53,10.3-133.48,10.74-5,.12-6.53-7.18-1.81-9Z" transform="translate(-905.15 -410.32)"/><path class="cls-1" d="M1151.05,3191.83c-2.11,22.33,17.9,54.24,17.9,54.24C1360.6,3203.53,1656.5,3060,1656.5,3060c-7.37-50-46.33-170.15-46.33-170.15C1533.85,2951,1270,3028.06,1270,3028.06S1153.15,3169.5,1151.05,3191.83Z" transform="translate(-905.15 -410.32)"/><path class="cls-7" d="M2609.5,3027s40-461.54,10.53-638.07c-71.6-306.28-181.1-413.08-181.1-413.08s-154.29,98.3-449.67,135-511.77,28.05-511.77,28.05,9.48,121.9-26.85,228.78-1.58,265.86-1.58,265.86c-339.08,126.55-179,394.54-179,394.54s263.81-77.1,340.13-138.25l24.22-24.46c223.25,153.14,490.72,118.84,490.72,118.84s116.09,166.7,120,167.5,23.7-2.4,23.7-2.4,258.25-62.74,336.44-111.66Z" transform="translate(-905.15 -410.32)"/><path class="cls-1" d="M2605.29,3037.63c-78.19,48.92-336.44,111.66-336.44,111.66l11.05,10.37s-80.55,80.56-93.19,114.86,3.16,70.18,11.85,75,75.81-13.56,173-35.1,312-65.4,312-85.34C2666.1,3142.91,2605.29,3037.63,2605.29,3037.63Z" transform="translate(-905.15 -410.32)"/><g class="cls-2"><path class="cls-3" d="M1154.9,3208.32s149.55-169.09,150.35-180.26-10.41-7.5-10.41-7.5-55.79-124.1-7.14-220.61,169-136.9,169-136.9-2.71-17.48-3.48-19.31-10.83-5.7-10.83-5.7-87.14,17.81-153.07,97.57-60.62,157.92-53.71,196.21,29.25,86.14,29.25,86.14l1.28,14.87s-94.36,122.16-96.58,125.44S1146,3187.58,1154.9,3208.32Z" transform="translate(-905.15 -410.32)"/></g><g class="cls-2"><path class="cls-3" d="M2186.8,3307.59s111.84-129.18,116.63-138.75,0-25.93,0-25.93l-22.67,3.43s-110.39-157.63-124.22-165.6-31.9-5.32-31.9-5.32l113.25,173.87s6.92,4.19,13.3,4.19,15.56-2.63,19.94,2.79,4.81,7.41,4.81,7.41-63.44,59.39-80.18,87.71S2186.8,3307.59,2186.8,3307.59Z" transform="translate(-905.15 -410.32)"/></g><path class="cls-6" d="M1434.52,2511.22s127.55,130.81,445,173.88,608.8-35.23,751.05-146.82c0,0,1,67.44-.77,124.77,0,0-231.85,216.66-653,160.83s-529.91-201.23-529.91-201.23S1434.77,2549.64,1434.52,2511.22Z" transform="translate(-905.15 -410.32)"/><g class="cls-4"><path class="cls-5" d="M1154.9,3216.19s313.06-107.31,362-155.16,0-120.32,0-120.32l-38.29,10.78s-59.86-131.32,23.77-219.33c0,0,42.48,65.37,78.75,91.3s44.42,35.79,44.42,35.79l3.32,11.69-11.48,11.43-7.2,12.76s21.86,58.77,33.16,106.37S1656.5,3060,1656.5,3060s-149.6,69.73-245.64,107.18-236.77,79.46-241.91,78.93S1154.9,3216.19,1154.9,3216.19Z" transform="translate(-905.15 -410.32)"/></g><g class="cls-4"><path class="cls-5" d="M2182.05,3304.54s14.5,13.05,52.39,9.85,48.38-39.48,48.38-39.48l2.7,20s13.52,8.32,34.26,4.33,24.72-19.14,24.72-19.14,17.15,11,34.3,5.08a42,42,0,0,0,23.66-21s4.05,7.57,30.28,4.78,30.87-17.52,30.87-17.52,98.24-20.36,127.35-37.11-28.31-157.92-28.31-157.92l-83.35,30.17s19.14-12.76,38.28-110.6,2.46-239.59,2.46-239.59-205.75,116.69-478.17,94.13-461.65-114.64-461.65-114.64l-92.4-55.62L1460,2633.52l-14.36-17-3.25-23.81s169.53,119.52,474.82,172.16,496.25-29.58,526.79-129.64c0,0,62.64-20.94,104-44.55s54.12-31.86,54.12-31.86v126.46l21.28-13.12,5.9,9.76L2616.48,2910s-5.45,108.82-6.74,114.24-4.69,16.56-2.83,19.22,54.23,105.75,63.84,138.77,11.37,40.42,11.37,40.42-6.62,14.09-34.53,24.73-395.13,94.28-395.13,94.28-40.35,9.91-56.51,5.67S2182.05,3304.54,2182.05,3304.54Z" transform="translate(-905.15 -410.32)"/></g><g class="cls-4"><path class="cls-5" d="M1444.18,2390.15c.38,6.22,198.18,215.72,466.17,243.37s471.11-182.91,520-288.19S2475,2097.54,2475,2097.54s127.62,191.42,124.43,450.9l.06,8.65S2521,2627.25,2280,2677.71s-514.42,1.44-622.58-44.19S1467,2538,1467,2538l-24.61-19.53s-7.43-7.23-7.85-15.61,0-65.91,3.77-81.21S1444.18,2390.15,1444.18,2390.15Z" transform="translate(-905.15 -410.32)"/></g><path class="cls-5" d="M2203.39,3364c-5.25,0-8.59-.89-11.47-2.48-15.17-8.35-32.85-51.82-18.12-91.78,10.24-27.81,56.91-78.9,81.65-104.74-9.16.93-11.8.4-13,.15-6.9-1.39-9.28-1.86-123.94-166.41-47.42,4.54-279,18.5-482.32-115.63l-10.33,10.43c8.9,28,37.87,120.84,44.29,164.4a13.77,13.77,0,0,1-7.61,14.39c-3,1.44-299.56,144.76-490.58,187.15a13.72,13.72,0,0,1-14.64-6.12c-2.3-3.67-22.42-36.62-19.94-62.84,2.08-22.1,71.08-109.23,116.15-164.05-14.74-28.57-56.24-122.74-21.65-221.29,27.3-77.77,95-138.41,201.44-180.37-7.36-39.29-27.48-168.07,4.32-261.6,35-102.83,26.25-222.09,26.16-223.28a13.71,13.71,0,0,1,3.81-10.61,13.44,13.44,0,0,1,10.46-4.21c2.15.09,218.81,8.16,509.53-28,288.32-35.81,442.45-132,444-132.94a13.78,13.78,0,0,1,17,1.76c4.58,4.47,113.2,113.13,184.9,419.79.06.29.12.58.17.87,29.43,176.23-8.76,622.61-10.39,641.52a14.06,14.06,0,0,1-.92,3.89l-1.79,4.52c13.16,23.65,61,113.06,76.46,189.74a13.86,13.86,0,0,1,.27,2.72c0,20.72-24.26,33.82-281.48,89.75-15.16,3.3-29.13,6.34-41.26,9-27.63,6.13-52.79,12-75,17.15C2241,3358.59,2216.36,3364,2203.39,3364Zm2.7-26Zm62.76-202.5a13.82,13.82,0,0,1,9.41,3.72l11.06,10.37a13.78,13.78,0,0,1,.31,19.78c-21.81,21.81-80.51,84.09-90,109.87-9.16,24.87.24,50.08,5.21,57.24,11.66-.46,49-9.17,88.45-18.34,22.26-5.18,47.49-11.06,75.26-17.21,12.17-2.7,26.17-5.74,41.37-9.05,75.84-16.49,229.78-50,258.66-66.78-18.4-81.65-74.61-179.61-75.19-180.62a13.73,13.73,0,0,1-.88-12l3.46-8.75c2.8-33.22,38.32-464.92,10.57-632.18-59.5-254.2-145.37-369-170.23-398.21-38.93,22.23-188.76,99.2-445.34,131.07-249.2,31-444.65,29.7-499,28.55,1.33,36.52,1.3,131.85-28.34,219.05-34.65,101.94-1.5,256.94-1.16,258.5a13.75,13.75,0,0,1-8.63,15.82c-104.7,39.08-170.66,95.57-196,167.9-36.38,103.64,23.43,205.68,24,206.7a13.75,13.75,0,0,1-1.2,15.82c-54.14,65.5-112.12,141.78-115.93,156.61-.79,10,5.27,25.51,11.15,36.93,168.84-39.79,414.66-154.3,465.31-178.33-10.1-52.83-43.74-156.87-44.1-158a13.75,13.75,0,0,1,3.31-13.92l24.22-24.46a13.77,13.77,0,0,1,17.57-1.67c216.09,148.24,478.55,116.88,481.18,116.54a13.81,13.81,0,0,1,13,5.79c38.1,54.71,99.14,141.41,114.81,161.45,4.24-.43,10.43-1.26,15.44-2.07A13.6,13.6,0,0,1,2268.85,3135.53Zm-66.29,200.93" transform="translate(-905.15 -410.32)"/><path class="cls-5" d="M1634.38,2879.12a13.72,13.72,0,0,1-7.64-2.33c-135.64-90.79-188.43-232.57-190.62-238.56a13.76,13.76,0,0,1,25.86-9.43h0c.51,1.39,52.14,139.49,180.07,225.12a13.76,13.76,0,0,1-7.67,25.2Z" transform="translate(-905.15 -410.32)"/><path class="cls-5" d="M2112.39,2846.72a1044.31,1044.31,0,0,1-137.38-9.2c-422-55.95-534.54-200.5-539.12-206.63a13.57,13.57,0,0,1-2.55-6c-.51-3-12.33-74.53-12.58-113.6a13.77,13.77,0,0,1,23.61-9.71c1.56,1.58,129.25,128.11,437,169.86,328.12,44.53,608.44-40.25,740.71-144a13.76,13.76,0,0,1,22.25,10.63c0,.68,1,68.41-.78,125.39a13.76,13.76,0,0,1-4.36,9.64c-2.43,2.28-61,56.36-172.55,103.95C2386.59,2811.2,2266.29,2846.72,2112.39,2846.72Zm-652.5-230c16.41,18.57,139.33,143.21,518.74,193.5,379.68,50.32,604.66-125.66,637.57-153.57.88-32.64.93-67.91.82-91.35C2472.78,2665,2196.66,2742,1877.66,2698.74c-243-33-375.82-116-427.47-156C1453,2572.53,1458.15,2605.83,1459.89,2616.73Z" transform="translate(-905.15 -410.32)"/><path class="cls-5" d="M1270,3041.83a13.77,13.77,0,0,1-3.85-27c2.61-.76,262.06-77,335.39-135.78a13.76,13.76,0,0,1,17.21,21.48c-77.56,62.14-334,137.54-344.88,140.72A13.67,13.67,0,0,1,1270,3041.83Z" transform="translate(-905.15 -410.32)"/><path class="cls-5" d="M2268.83,3163.06a13.76,13.76,0,0,1-3.23-27.14c2.56-.62,257-62.77,332.39-110a13.76,13.76,0,1,1,14.6,23.33c-79.16,49.52-329.86,110.78-340.5,113.37A14,14,0,0,1,2268.83,3163.06Z" transform="translate(-905.15 -410.32)"/><path class="cls-5" d="M2286.56,3337.74c-8.85-15.57-13.36-32.26-14.67-50-.37-17.27,0-38.34,16.54-48.81a1.38,1.38,0,0,1,1.89.47c3.94,17,1.2,29.19,5.62,44.91,3.54,13.86,9.18,28,15.06,40.9,6.72,15.89-15.49,27.18-24.44,12.53Z" transform="translate(-905.15 -410.32)"/><path class="cls-5" d="M2345.73,3323.19a101.09,101.09,0,0,1-10.24-34.45c-.71-12.47-3.52-27.8,9.52-36.1a1.57,1.57,0,0,1,2.18.68c7.32,11.34,7.23,18.69,12,29.77,3.31,8.45,8.71,20.77,11.66,29,5.45,16.1-17,25.89-25.14,11.07Z" transform="translate(-905.15 -410.32)"/><path class="cls-5" d="M2404.27,3310.71c-9.08-16.29-21.05-59.83-1-71.64a1.57,1.57,0,0,1,2.18.7c3.88,6.78,5.66,10.95,6.76,15.86,4,14.71,11.5,29.27,17,43.39,5.85,16-16.4,26.31-24.86,11.69Z" transform="translate(-905.15 -410.32)"/><path class="cls-5" d="M2463.25,3297.17c-8.55-17.78-17.85-54.75-4.24-71.39,1.55-1.23,5.37-5.55,7-2.67,3.26,7.2,5.06,11.5,6.06,16.74,3.78,15.71,11.26,31.4,16.51,46.64,5.29,16.22-17.47,25.72-25.32,10.68Z" transform="translate(-905.15 -410.32)"/><path class="cls-5" d="M2152.56,2705.11a11.43,11.43,0,0,1-5.56-1.45c-3.82-2.12-384.55-216.54-547.19-559.82a11.47,11.47,0,0,1,20.72-9.83c159.45,336.52,533.85,547.51,537.61,549.6a11.47,11.47,0,0,1-5.58,21.5Z" transform="translate(-905.15 -410.32)"/><path class="cls-5" d="M1961.79,2705.11a11.42,11.42,0,0,1-6-1.68c-185.19-112.95-300.46-259.15-364.56-361.91-69.55-111.5-94.93-195.19-96-198.7a11.47,11.47,0,0,1,22-6.55c1,3.33,103.86,336.16,450.5,547.58a11.47,11.47,0,0,1-6,21.26Z" transform="translate(-905.15 -410.32)"/><path class="cls-1" d="M1846.54,2097.54s7.72-73.64-13.55-102.36-78.7-23.13-78.7-23.13-43.87-72.58-81.35-86.13-55,17.54-55,17.54-51.84-4-63.8,17.55,0,85.34,0,85.34-40.68,22.17-36.69,45.78c0,0-42.27,27.33-42.27,45.41s-.4,39.22,10.36,52.38,33.1,13.95,33.1,13.95,16.22,51.35,46.21,97.76C1728.65,2249.72,1846.54,2097.54,1846.54,2097.54Z" transform="translate(-905.15 -410.32)"/><path class="cls-7" d="M2201.74,1985.88c-106.35,21.27-149.95,77.63-229.71,103.15s-125.49,8.51-125.49,8.51-117.89,152.18-281.73,164.09c9.65,14.94,20.72,29.38,33.15,41.42,51,49.45,345.36,264,718.63-12L2390,2041.18S2308.08,1964.61,2201.74,1985.88Z" transform="translate(-905.15 -410.32)"/><g class="cls-2"><path class="cls-3" d="M1827.47,2119.47s56.3,24.86,138.18,3.06,132.93-78.69,222.79-105.81,180.88,8.43,180.88,8.43-76.13-63.73-174.5-35.55-166.43,84.55-228.11,103.69-116.71,2-124.29,8.77S1827.47,2119.47,1827.47,2119.47Z" transform="translate(-905.15 -410.32)"/></g><g class="cls-2"><path class="cls-3" d="M1560.74,1931.11s38-8.24,42.54-6.11,10.63,30.18,30,50.85,32.17,21.14,32.17,21.14l-39.35-77.33s17.85-17,35.38-14.34,43.59,38.55,63.26,66.73,33.41,55.3,59.77,59.82l-18.39-36.36s35.72,2.07,47.95,14.83,27.12,72.31,27.12,72.31,10.21-71.76-13-92.77-76.89-21.55-76.89-21.55-36.65-62.6-71.24-79.15-56.91,5.24-56.91,5.24l-13,8.76s-34.66-1.8-45.36,8S1560.74,1931.11,1560.74,1931.11Z" transform="translate(-905.15 -410.32)"/></g><g class="cls-4"><path class="cls-5" d="M1482.84,2091.16c1.6-1.06,35.1-8.51,50.52,0s29.24,49.77,48.92,88.43,152.28,1.43,205.61-29.94l2.24,6.19s-16,21-71,52.87-71.56,34.84-71.56,34.84,119.19,109.22,293.59,107.09,372.21-73.38,364.77-55.3-163.78,121.24-348.82,132.93-318.92-93.05-318.92-93.05-62.64-38.45-87.14-96.72-30.08-71.44-30.08-71.44l-5.39-5.18s-23.86-2.39-32.77-22.33S1482.84,2091.16,1482.84,2091.16Z" transform="translate(-905.15 -410.32)"/></g><path class="cls-5" d="M2381.85,2049.86c-34.83-29.18-79.31-49.31-124.55-53.91l-17-.8a220.22,220.22,0,0,0-50.87,7.06,342.69,342.69,0,0,0-65.9,23.86c-43.78,21-82.9,51.28-129.15,69.55-41.73,16.05-87.14,25.32-132,19.61a143.73,143.73,0,0,1-15-2.91c-1.83-.5-3.22-.84-5.7-1.72a13.59,13.59,0,0,1-9-14c1.66-26.5,5.37-82.42-17.71-99.43-10.43-7.16-24.86-9.92-38-11a145.74,145.74,0,0,0-21.3-.05,14.43,14.43,0,0,1-13.44-6.74c-18.18-27.17-63.41-98.8-101-79.09a33.13,33.13,0,0,0-10.93,10.21l-13.52,7.21c-11.19-.61-23.86,0-34.33,2.32-6.71,1.7-12.28,3.46-15.64,7.76-4.94,11.28-3.73,26.35-3.16,39.12a350.26,350.26,0,0,0,4.57,36.82,14.6,14.6,0,0,1-7.16,15.24,101.06,101.06,0,0,0-21.24,16c-4.42,4.36-8.68,10.15-8.13,15.23a14.87,14.87,0,0,1-6.46,14.05c-12.45,8.67-28.73,20.21-35.32,32.85,0,.18-.33.59-.24.57s0-.13,0-.14a3.87,3.87,0,0,0,0,.52v1.21c-.07,2.42.12,9.3.11,11.71.64,22.83,4,35.33,26,38.14,1.48.16,2.68.36,3.58.38a14.72,14.72,0,0,1,12.94,10c16.75,48.05,39.61,96.94,75.7,133.6,133,117.46,330,152.63,497.28,95.27,73.8-24,140.6-63.08,207.26-102.76a6.79,6.79,0,0,1,8,10.88,586,586,0,0,1-97.24,68.95c-70.18,38.4-147.46,65.23-227.32,74-145,15.76-297.78-29.14-407.63-126-32.92-32.62-55.18-74.31-72.83-116.58-3.87-9.41-7.38-18.6-10.71-28.67l13.21,10.05c-47.06-3.27-58.72-34.56-57.47-76.55,0-1.18,0-3.16,0-4.33.25-8.2,4-16,8.76-22.21,11.26-14.54,25.54-25.19,40.17-35.18l-6.41,14.55c-1.46-9.06,1-17.55,4.29-23.88,9.39-17.1,23.64-27.28,39.76-37l-7.26,15.29c-3.47-20.4-5.83-40.2-5.42-61,.48-11.49,1.35-24.26,8-35.37,17.23-24.3,50.13-24,76.51-23.43l-13.52,7.21c15-25,45.52-34.24,72.33-23.88,25.54,10.33,44.84,32.79,61.39,53.29a441.55,441.55,0,0,1,27.16,38.9l-13.43-6.74c35.41-2.18,81.07,3.27,97.64,39.84,13.59,32.48,12.11,66.88,9.84,101.13l-9-14.51c.39.14,1.93.59,3,.88,43.23,9.58,88.88-.05,129.75-15.41,43-16.88,82.13-46.62,127.75-68.14,34.32-16.14,71.21-27.64,109-31.86,51.43-4.44,103.44,11.41,146.24,39.24a232.26,232.26,0,0,1,30.88,23.31,11.88,11.88,0,1,1-16.23,17.36Z" transform="translate(-905.15 -410.32)"/><path class="cls-5" d="M1564.79,2275.4a13.76,13.76,0,0,1-1-27.49c155.62-11.32,270.72-157.33,271.86-158.8a13.76,13.76,0,0,1,21.75,16.86c-5,6.41-123.58,157.17-291.62,169.39C1565.46,2275.38,1565.12,2275.4,1564.79,2275.4Z" transform="translate(-905.15 -410.32)"/><path class="cls-5" d="M1505,2165.65c-2.45-11.48-1.76-23.31-.34-34.93.43-3.95,1.77-8,6.86-12.56a2.06,2.06,0,0,1,2.28-.3c6.09,3.1,8.43,6.68,9.85,10.38,4.36,10.87,8.06,22.13,8.64,33.85.25,16.62-23.37,19.54-27.29,3.56Z" transform="translate(-905.15 -410.32)"/><path class="cls-5" d="M1513.23,2039c18.6-6.29,40.75-1,54.14,13.28a19.74,19.74,0,0,1,6,18,1.64,1.64,0,0,1-1.68,1.36,39.85,39.85,0,0,1-9.37-1.63c-6.31-2-11.78-5.13-18.15-5.62-7.39-1.14-15.33-.18-22.58.85l-9.91-5.13c-8.94-4.25-7.76-18.24,1.55-21.09Z" transform="translate(-905.15 -410.32)"/><path class="cls-5" d="M1552.68,1992.66c21.55-2.42,43.92,3.58,60.18,18.2,5.45,4.85,9.43,12,8.39,20.38a1.5,1.5,0,0,1-1.91,1.26c-14.06-2.89-19.74-8.36-32.38-10.38-10.16-1.8-21.09-2.07-31.45-2.08-17.62.7-20.15-24.63-2.83-27.38Z" transform="translate(-905.15 -410.32)"/><path class="cls-5" d="M1630.17,1897.22c9,16.19,16.6,33.08,23.72,50.18,6.61,18.16,16.59,33.85,15.36,54.44a1.35,1.35,0,0,1-2,1c-17.37-11.12-24.19-28.43-35-44.46-9.64-15.82-18.82-31.9-26.6-48.72-6.93-16,15.65-27.46,24.53-12.48Z" transform="translate(-905.15 -410.32)"/><path class="cls-5" d="M1766.57,1965.84c9.28,16.26,15.76,33.9,21.47,51.71,2,6,3.11,12.33.88,20.41a1.56,1.56,0,0,1-2.05,1c-14.28-5.68-18.51-17.33-26.65-28.22-6.81-10.43-13.22-21.1-18.21-32.5-6.49-15.89,15.69-27,24.56-12.43Z" transform="translate(-905.15 -410.32)"/><path class="cls-6" d="M2223,3427.05l488.3-119.78a32.91,32.91,0,0,0,24.13-39.81l-2-8.25a32.92,32.92,0,0,0-39.82-24.13l-488.29,119.77a32.92,32.92,0,0,0-24.13,39.82l2,8.25A32.92,32.92,0,0,0,2223,3427.05Z" transform="translate(-905.15 -410.32)"/><g class="cls-8"><path class="cls-5" d="M2622.3,3254.21s3,34.65.37,36.53-414.39,107-414.39,107l7.62,31.06L2716.62,3306l-17.71-72.19Z" transform="translate(-905.15 -410.32)"/></g><path class="cls-5" d="M2209.11,3443.47a38.59,38.59,0,0,1-37.38-29.39l-5.89-24a38.56,38.56,0,0,1,28.27-46.64l504-123.64a38.62,38.62,0,0,1,46.65,28.27l5.89,24a38.61,38.61,0,0,1-28.27,46.64l-504,123.63A38.61,38.61,0,0,1,2209.11,3443.47Zm498.24-197.28a10.81,10.81,0,0,0-2.63.32l-504.06,123.64a11,11,0,0,0-8.09,13.36l5.89,24a11,11,0,0,0,13.35,8.1h0l504-123.64a11.07,11.07,0,0,0,8.1-13.36l-5.89-24A11.06,11.06,0,0,0,2707.35,3246.19Z" transform="translate(-905.15 -410.32)"/><path class="cls-6" d="M1210,3318.5l469.89-178.85a32.92,32.92,0,0,0,19.06-42.47l-3-7.94a32.9,32.9,0,0,0-42.47-19.06L1183.52,3249a32.92,32.92,0,0,0-19.06,42.47l3,7.94A32.9,32.9,0,0,0,1210,3318.5Z" transform="translate(-905.15 -410.32)"/><g class="cls-8"><path class="cls-5" d="M1585,3097.92s7.21,34,4.86,36.21-398.11,157.08-398.11,157.08l11.37,29.88L1685,3137.7l-26.44-69.48Z" transform="translate(-905.15 -410.32)"/></g><path class="cls-5" d="M1193.6,3336.77a38.63,38.63,0,0,1-36.09-24.85l-8.79-23.11a38.56,38.56,0,0,1,22.32-49.76l485.06-184.62a38.62,38.62,0,0,1,49.76,22.32l8.79,23.12a38.56,38.56,0,0,1-22.32,49.76l-485.06,184.62A38.4,38.4,0,0,1,1193.6,3336.77Zm476.2-257.34a11,11,0,0,0-3.91.73l-485.06,184.62a11,11,0,0,0-6.39,14.24l8.8,23.11a11,11,0,0,0,14.24,6.4h0l485.06-184.62a11.06,11.06,0,0,0,6.39-14.25l-8.79-23.12A11.07,11.07,0,0,0,1669.8,3079.43Z" transform="translate(-905.15 -410.32)"/><path class="cls-6" d="M1199.39,3117.17s144.14-37,259.39,27.09l45.07-18.85s-116.67-77.83-283.26-35.74C1220.59,3089.67,1187.65,3106.58,1199.39,3117.17Z" transform="translate(-905.15 -410.32)"/><path class="cls-6" d="M2653.66,3244.87s-62.7-67.66-160-74-188.94,53.16-202.94,74S2260,3175.22,2260,3174s16.76-14.36,19.94-14.36,14.36,37,14.36,37,76.52-52.64,181.56-60.62,183.77,70.83,207.66,101.55Z" transform="translate(-905.15 -410.32)"/><path class="cls-5" d="M1458.78,3153.43a9.22,9.22,0,0,1-4.45-1.15c-110.6-61.47-251.26-26.58-252.66-26.22a9.09,9.09,0,0,1-8.42-2.08,15.77,15.77,0,0,1-5.43-14c1.74-13.31,20.57-24.32,28.58-28.44a9.53,9.53,0,0,1,1.95-.73c168.58-42.57,285.69,33.74,290.59,37a9.18,9.18,0,0,1-1.55,16.1l-45.07,18.85A9,9,0,0,1,1458.78,3153.43ZM1297,3097.19c48.56,0,108,7.88,162.33,36.91l23.63-9.89c-36.62-18.53-133.72-57.21-259-25.91a83.15,83.15,0,0,0-10.17,6.44A464.18,464.18,0,0,1,1297,3097.19Z" transform="translate(-905.15 -410.32)"/><path class="cls-5" d="M2286.29,3257.14a12.78,12.78,0,0,1-3.73-.54c-20.38-6.2-31.77-81.85-31.77-82.58,0-9,23.92-23.53,29.11-23.53,5.83,0,9.28,0,19.58,32,24.67-14.7,90.65-49.19,175.64-55.65,122.89-9.25,206.48,93.34,215.6,105.07a9.18,9.18,0,0,1-5.06,14.55l-29.81,7.3a9.19,9.19,0,0,1-8.91-2.66h0c-.6-.65-61.58-65.07-153.89-71.12-91.36-6-181.48,50.25-194.72,70C2294.38,3255.86,2289.65,3257.14,2286.29,3257.14Zm-16.51-79.91c2.73,14.93,10.41,46.55,16.54,58.4,24.08-27.54,114.4-80,207.94-74,87.22,5.71,146.86,58,162.27,73l10.4-2.55c-25.08-27.93-95.28-94.26-190.42-87-101.16,7.68-176.31,58.52-177.06,59a9.17,9.17,0,0,1-14-4.91c-2.85-9.42-6.48-20.26-9.13-27.08C2274.07,3173.83,2271.62,3175.72,2269.78,3177.23Z" transform="translate(-905.15 -410.32)"/><path class="cls-6" d="M1848.25,2708.65s43.23,76.15,90.28,138.36,30.31,146.75-13.56,190.62c0,0-31.1-55.88-100.49-62.64,0,0,30.31-57.79,10.37-96.88s-62.4-94.78-62.4-94.78" transform="translate(-905.15 -410.32)"/><path class="cls-6" d="M1633.59,2771.9s9.85,55.17,36.56,85.48,90.52,46.26,90.52,46.26-47.85,49.45-59,103.68c0,0-60.73-10.37-136.84-110.86s-40.42-233.41-40.42-233.41" transform="translate(-905.15 -410.32)"/><g class="cls-4"><path class="cls-5" d="M1511.56,2737.74s10.63,29.6,64.34,49.9,71.25,16.56,69.65,13.37-7.2-13.37-7.2-13.37L1628,2772.3s-40.62-10.53-55.14-25.74-37-42.78-37-42.78l-15.28-2.2Z" transform="translate(-905.15 -410.32)"/></g><g class="cls-4"><path class="cls-5" d="M1617.9,2953.61c.32,2.5,41.42,1.6,70.43-17.54s18-52.84,18-52.84l54.39,20.41s-27.91,39.32-38.55,50-23,53.13-23,53.13-45.68-22.47-48.92-24.75S1617.9,2953.61,1617.9,2953.61Z" transform="translate(-905.15 -410.32)"/></g><g class="cls-4"><path class="cls-5" d="M1870.83,2746.56a223.73,223.73,0,0,1-31.2,36.38c-19.67,18.61-46.28,29.1-47.06,28s-13.55-23-13.55-23l7.63-9.11s33.84-16.49,45-32.22a197.62,197.62,0,0,1,21.71-25.84Z" transform="translate(-905.15 -410.32)"/></g><g class="cls-4"><path class="cls-5" d="M1844.42,2898.32s22.86,41.45,47.85,55.29,62,8.52,69.53-26.05,4.19,20.19,4.19,20.19-5.11,39.18-18.15,59-22.87,30.89-22.87,30.89-22-33.41-45.44-44.51-54.61-15.57-54.61-15.57,15.24-44.14,16.31-47.86S1844.42,2898.32,1844.42,2898.32Z" transform="translate(-905.15 -410.32)"/></g><path class="cls-5" d="M1925,3051.39a13.58,13.58,0,0,1-1.9-.13,13.76,13.76,0,0,1-10.12-6.93c-1.13-2-28.82-49.7-89.81-55.64a13.76,13.76,0,0,1-10.85-20.09c7.48-14.36,23.93-57.52,10.3-84.23-19.14-37.51-60.67-92.15-61.09-92.7a13.76,13.76,0,1,1,21.89-16.68c1.77,2.31,43.45,57.14,63.71,96.87,15.84,31,5.45,70.26-2.93,92.37,41.61,9.36,68.23,34.53,81.85,51.15,30.88-41.49,40-109.22,1.54-160.07-47.06-62.21-90.85-139.1-91.28-139.87a13.76,13.76,0,0,1,23.93-13.59c.43.75,43.35,76.11,89.3,136.86,52.26,69.08,33.51,160.34-14.81,208.65A13.73,13.73,0,0,1,1925,3051.39Z" transform="translate(-905.15 -410.32)"/><path class="cls-5" d="M1701.67,3021.09a13.37,13.37,0,0,1-2.34-.2c-2.69-.46-67-12.48-145.49-116.12-79.27-104.67-44.27-239.59-42.74-245.29a13.76,13.76,0,0,1,26.58,7.14c-.33,1.26-32.9,127.78,38.1,221.53,51.75,68.33,95.89,93.11,116.27,101.56,10.25-32.61,30.55-61.73,44.4-79.06-22.45-7.68-57.4-22.36-76.62-44.17-28.92-32.82-39.36-89.75-39.79-92.16a13.76,13.76,0,0,1,27.09-4.85c.12.66,9.59,51.85,33.35,78.81,19.59,22.23,66.94,37.86,83.53,42a13.76,13.76,0,0,1,6.55,22.92c-.44.46-45.23,47.33-55.43,96.89A13.77,13.77,0,0,1,1701.67,3021.09Z" transform="translate(-905.15 -410.32)"/><path class="cls-6" d="M1669,2765.39s-45.46,27.38-107.68-28.45-39.88-157.19,8.78-173.11S1685,2596.57,1685,2596.57s69.25-36.05,121.94-4.79,62.21,103.15,19.94,157.66S1688.89,2791.44,1669,2765.39Z" transform="translate(-905.15 -410.32)"/><g class="cls-4"><path class="cls-5" d="M1523.55,2657.35s41.71,54.47,75.21,54.47,58.7-45.91,58.7-45.91V2707s60.94,44.27,123.15,17.15,61.89-94.78,61.89-94.78,25.51,60.93-12,115.14-110.15,44-124.68,39.65-30.3-12.46-31.64-13.59-12.4-5.21-12.4-5.21-36.42,22.46-85-15.95S1523.55,2657.35,1523.55,2657.35Z" transform="translate(-905.15 -410.32)"/></g><path class="cls-5" d="M1737.51,2801.4H1737c-29.3-.1-55.69-7.64-71.07-19.79-18.78,6.33-61.65,12.38-113.81-34.43-41-36.82-47.36-89.27-39.61-126.07,7.39-35.06,27.81-62,53.3-70.36,45.47-14.87,101.25,17.43,120.52,30,20.77-9,79.32-29.52,127.67-.84,27,16,45.17,42.06,51.11,73.3,6.73,35.42-3.23,73.56-27.33,104.62C1816.28,2785.55,1779.77,2801.4,1737.51,2801.4Zm-68.57-49.78a13.77,13.77,0,0,1,10.94,5.4c5.31,6.94,26.56,16.75,57.17,16.85h.39c16.27,0,55.61-3.28,78.56-32.86,19.26-24.84,27.29-55,22-82.63a80.11,80.11,0,0,0-38.12-54.76c-45.59-27-107.93,4.83-108.56,5.15a13.77,13.77,0,0,1-14.5-1.11c-16.89-12.35-68.26-42-102.52-30.75-15.94,5.21-29.64,24.79-34.93,49.87-6.16,29.29-1.25,70.92,31.07,99.91,54,48.48,91,27.13,91.38,26.91A13.73,13.73,0,0,1,1668.94,2751.62Z" transform="translate(-905.15 -410.32)"/><path class="cls-5" d="M1668.94,2779.14a13.76,13.76,0,0,1-12.54-8.09c-1.74-3.87-42-95.67,17.24-182.26a13.76,13.76,0,0,1,22.71,15.55c-50.35,73.57-16.32,152.11-14.85,155.42a13.77,13.77,0,0,1-12.56,19.38Z" transform="translate(-905.15 -410.32)"/><g class="cls-2"><path class="cls-3" d="M1624.88,2588.86c1.75,6.14-14.84,10.46-35.17,16.27s-36.7,10.9-38.46,4.76,11.77-21.2,32.1-27S1623.12,2582.72,1624.88,2588.86Z" transform="translate(-905.15 -410.32)"/></g><g class="cls-2"><path class="cls-3" d="M1767.38,2609.71c1.75,6.14-14.84,10.45-35.17,16.26s-36.7,10.9-38.46,4.76,11.78-21.19,32.11-27S1765.62,2603.56,1767.38,2609.71Z" transform="translate(-905.15 -410.32)"/></g></svg>