<svg id="Layer_1" data-name="Layer 1" xmlns="http://www.w3.org/2000/svg" viewBox="0 0 2646.54 2987.34"><defs><style>.cls-1{fill:#ffc470;}.cls-2,.cls-6{fill:#39005e;}.cls-3{fill:#f72167;}.cls-12,.cls-4{fill:#6f6f88;}.cls-5{opacity:0.2;}.cls-12,.cls-6{fill-rule:evenodd;}.cls-7{fill:#e35656;}.cls-8{opacity:0.6;}.cls-9{fill:#fff;}.cls-10{fill:#f2c5a9;}.cls-11{fill:#a6a6a6;}.cls-13{opacity:0.35;}.cls-14{fill:#f70200;}.cls-15{opacity:0.5;}</style></defs><title>ninja4</title><polygon class="cls-1" points="228.01 1046.17 100.58 1138.04 363.25 1502.38 490.68 1410.51 228.01 1046.17 228.01 1046.17"/><path class="cls-1" d="M947.35,1502.2a27.6,27.6,0,0,0-38.53-6.25l-128.05,92.32a30.64,30.64,0,0,0-6.94,42.8c7.88,10.94,17.23,23.91,25.6,35.51a38.82,38.82,0,0,0,54.19,8.79l125.47-90.46a22.63,22.63,0,0,0,5.12-31.59l-36.86-51.12Z" transform="translate(-745.68 -542.64)"/><path class="cls-2" d="M1060.79,1991.92a14.45,14.45,0,0,1-3-.33,14,14,0,0,1-10.6-16.67l39.71-178.36-164.26-11.1a13.95,13.95,0,0,1-12.37-18.14L968,1584.6A14,14,0,0,1,994.6,1593l-52.4,165.78,162.76,11a14,14,0,0,1,12.69,17L1074.41,1981A14,14,0,0,1,1060.79,1991.92Z" transform="translate(-745.68 -542.64)"/><path class="cls-2" d="M1108.94,2067.36a22.31,22.31,0,0,1-18.14-9.27L828.13,1693.75a22.35,22.35,0,0,1,5.06-31.2l127.44-91.87a22.34,22.34,0,0,1,31.19,5.06l262.67,364.34a22.34,22.34,0,0,1-5.06,31.19L1122,2063.15A22.29,22.29,0,0,1,1108.94,2067.36ZM877.45,1685.74,1114,2013.82l91.19-65.73L968.64,1620Z" transform="translate(-745.68 -542.64)"/><path class="cls-2" d="M831,1705a61.1,61.1,0,0,1-49.7-25.37l-25.6-35.51a53,53,0,0,1,12-74l128-92.31a50,50,0,0,1,69.73,11.3l36.86,51.12A45,45,0,0,1,992.16,1603L866.69,1693.5A60.87,60.87,0,0,1,831,1705Zm94-191.93a5.22,5.22,0,0,0-3.07,1l-128.06,92.31A8.33,8.33,0,0,0,792,1618l25.61,35.52a16.47,16.47,0,0,0,23,3.72L966,1566.79l-17.29-24.48-19.5-27h0A5.26,5.26,0,0,0,925,1513.09Z" transform="translate(-745.68 -542.64)"/><path class="cls-2" d="M1181.45,1898.7c-.35,0-.69,0-1,0l-192.94-14.14a14,14,0,0,1-12.38-17.88l47.78-162.13-177.23-7.86a14,14,0,1,1,1.24-27.9l195.05,8.64a14,14,0,0,1,12.78,17.9l-47.93,162.64,175.67,12.88a14,14,0,0,1-1,27.89Z" transform="translate(-745.68 -542.64)"/><polygon class="cls-1" points="532.84 1280.94 235.6 1495.22 282.66 1560.49 579.89 1346.2 532.84 1280.94 532.84 1280.94"/><path class="cls-2" d="M1028.35,2125.47a22.32,22.32,0,0,1-18.14-9.28l-47.05-65.26a22.33,22.33,0,0,1,5.05-31.19l297.24-214.29a22.35,22.35,0,0,1,31.19,5l47,65.26a22.36,22.36,0,0,1-5,31.2L1041.4,2121.25A22.23,22.23,0,0,1,1028.35,2125.47Zm-15.87-82.55,20.91,29,261-188.16-20.91-29Z" transform="translate(-745.68 -542.64)"/><path class="cls-3" d="M1153.43,1147.09s-111.35-108.5-193.26-174.43c0,0-66,56.81-113.91,92.63,0,0,132.34,79.63,195,157.73,0,0-52.82,11.64-97.22,37-52.66,30.1-97.83,71.71-156.15,60.52,0,0-24.05,68.53,0,135.81,0,0,206.33-71.92,365.49-178.95V1147.09Z" transform="translate(-745.68 -542.64)"/><path class="cls-2" d="M787.94,1478.71a22.34,22.34,0,0,1-21-14.83c-26.42-73.88-1.13-147.63,0-150.73a22.35,22.35,0,0,1,25.29-14.55c37.32,7.17,69.86-13.53,107.53-37.51,10.71-6.81,21.79-13.87,33.32-20.46,23.15-13.23,48.15-22.89,67.79-29.34-64.36-65.28-164.91-126.17-166.06-126.85a22.34,22.34,0,0,1-1.85-37c46.73-35,112.06-91.12,112.71-91.68a22.35,22.35,0,0,1,28.59-.47c81.79,65.84,190.26,171.38,194.84,175.84a22.34,22.34,0,0,1,6.75,16v130.32a22.37,22.37,0,0,1-9.87,18.55c-159.72,107.4-362.07,178.53-370.6,181.5A22.32,22.32,0,0,1,787.94,1478.71Zm16.7-134c-3.92,18.36-8.13,49.54-1.65,82.26,55.81-21.1,205.27-81.11,328.09-161.58V1156.57c-23.55-22.7-104.16-99.68-170.61-154.8-17,14.39-46.62,39.18-75.26,61.74,43.07,28.21,126.21,86.59,173.53,145.53a22.35,22.35,0,0,1-12.62,35.81c-.48.1-50.18,11.29-90.94,34.58-10.61,6.07-21.23,12.83-31.51,19.36C887.28,1322,849.74,1345.92,804.64,1344.75Z" transform="translate(-745.68 -542.64)"/><path class="cls-4" d="M2292.35,2775.52s.45.78,1.29,2.29c5,9.11,23.74,44.47,31.56,80.28s5,71.84-32.85,82.73c0,0,7.38,17.88,18.55,47,31.84,83.18,94.46,258.15,104.86,372.28,3.91,43.52.27,78.15-15.53,95.53-71.9,78.93-380,44.91-420,0s34.47-97.21,34.47-97.21-50.78-205.69-176.53-326c0,0-48.94,25.14-174.8,0,0,0-112.45,55.92-167.64,274.07,0,0,74.52,78.6,55.19,149.16s-445.13,88.32-505.52-70.56c-10.83-28.49-15.36-63.29-15.41-101.23-.28-143,62.29-330.1,84.13-391,4.63-12.85,7.43-20.12,7.43-20.12s-57.54-38.49-39-111.89c7.83-31.06,29.28-68.43,74.53-111.78,2.06-2,4.13-3.92,6.31-5.93l34.24-191.78,2-11.28s-111.4-45.31-133.52-155.53c-12.23-61.11,41.68-229.15,216.25-321.66,121.11-64.25,300.33-92.07,555.79-22.68,143.91,39.1,305.19,149.6,437.14,284.62a1333,1333,0,0,1,96.47,109.94c80.23,102.12,139.66,210.5,161.9,308.37C2533.63,2643.12,2463.41,2763.62,2292.35,2775.52Z" transform="translate(-745.68 -542.64)"/><g class="cls-5"><path class="cls-2" d="M2292.35,2775.52s.45.78,1.29,2.29C1666,2856.75,1272.78,2703.51,1157,2649.05c2.06-2,4.13-3.92,6.31-5.93l34.24-191.78c157.26,18.88,321.33-47.93,321.33-47.93,605.67,316.62,646.4-133.59,646.4-133.59,82.73,178.51,162.35,96.5,206.42,64.93,80.23,102.12,139.66,210.5,161.9,308.37C2533.63,2643.12,2463.41,2763.62,2292.35,2775.52Z" transform="translate(-745.68 -542.64)"/></g><g class="cls-5"><path class="cls-2" d="M2400.23,3455.67c-71.9,78.93-380,44.91-420,0s34.47-97.21,34.47-97.21-50.78-205.69-176.53-326c0,0-48.94,25.14-174.8,0,0,0-112.45,55.92-167.64,274.07,0,0,74.52,78.6,55.19,149.16s-445.13,88.32-505.52-70.56c-10.83-28.49-15.36-63.29-15.41-101.23,36.7,38.77,109.6,103.8,205.8,129.89,141.28,38.26,208.32-7.21,203.51-47.93-3.68-31.2-83.42-32.78-137.64-29.15-17.7,1.18-28.08-19.31-16.85-33.05,20.9-25.58,59-58.18,125.22-76.63a1003.23,1003.23,0,0,1,35.08-96.64c19.25-45.37-5.59-97.34-53.21-110.1-79.46-21.28-191.41-60.55-277.78-127.43,4.63-12.85,7.43-20.12,7.43-20.12s-57.54-38.49-39-111.89c71.73,41.62,274.86,142,577.47,148.76,0,0,18.72,47.15,107.26,44.64s177.59-69.61,177.59-69.61,198.43,31.79,380.38-26.53c7.93,35.7,5,71.84-32.85,82.73,0,0,7.38,17.88,18.55,47-44,17-114.78,38.51-210.13,48.48-52.7,5.5-85.71,59.65-66.85,109.16,16.77,44,34.2,93.22,43,128.72,0,0,37.63,3.51,92.68,44.79,14.69,11,8,34.35-10.26,36.18-44.22,4.45-102.78,16.48-107.22,49-6,44.3,265.69,43,363.62-44C2419.67,3403.66,2416,3438.29,2400.23,3455.67Z" transform="translate(-745.68 -542.64)"/></g><path class="cls-2" d="M1353.56,3530c-143.19,0-292.55-40.82-329.09-136.93-56.22-147.84,44.91-443.16,70.63-513.55-14.42-14.19-35.19-41.1-38.27-80.31-4.15-52.85,24.71-109.09,85.8-167.26l32-179.12c-34.38-18.27-111.36-68.94-130.41-163.86-10.93-54.5,20.88-175.37,125.81-273.48,105.84-99,308.69-196.07,674-96.83,138.74,37.69,299.39,141.17,440.74,283.92,141.68,143.08,240.34,301.87,270.7,435.65a22.37,22.37,0,0,1-2.49,16.2c-2.91,5-69.05,115.52-226.13,139.77,15.26,33.77,34,88.37,18.28,127.5a66,66,0,0,1-24.22,30.3c14.61,37,46.85,121.28,73.76,210.21,67.76,223.94,45.08,283.34,22.12,308.54-41.73,45.81-135.72,55-207,54.56-96.21-.53-215.23-19.9-246.29-54.75-13.3-14.93-19.2-32.68-17-51.34,3.5-30.18,27.37-55.54,42.75-69-13.22-45.49-62-194.64-156.85-292-24,6.75-75.74,14.56-164.89-2.16-22.11,14.64-102.1,77.52-147.18,244.75,20.65,24.94,70.44,94,52.15,160.83-14.7,53.72-132.69,65.13-182.73,67.53C1377.75,3529.68,1365.67,3530,1353.56,3530ZM1560.73,1921.8c-179.45,0-292.08,62.62-360.21,126.31-94.65,88.49-120,194.79-112.51,232,19.41,96.71,119,138.81,120,139.22a22.41,22.41,0,0,1,13.53,24.61l-36.24,203.09a22.3,22.3,0,0,1-6.83,12.48c-53.26,49.27-79.94,96.12-77.16,135.5,2.68,38,31.49,58.33,32.71,59.18a22.55,22.55,0,0,1,8.28,26.53c-1.33,3.46-132.75,347.37-76.09,496.4C1094.69,3452,1228.82,3482,1335,3485c115.82,3.21,188.11-21.33,194.38-35.41,13-47.46-31.67-108.28-50-127.69A22.42,22.42,0,0,1,1474,3301c57.07-225.51,174.38-286.14,179.35-288.61a22.34,22.34,0,0,1,14.34-1.91c114.06,22.81,160.13,2.07,160.57,1.86a21.85,21.85,0,0,1,25.31,3.9c129,123.43,180.63,328.18,182.77,336.83a22.34,22.34,0,0,1-8.86,23.64c-8.78,6.23-34.47,28.43-36.65,47.65-.46,4-.18,9.46,6,16.41,13.77,15.45,105.81,39.2,213.17,39.79,85.58.33,150.47-14.47,173.69-40,8.53-9.36,31.45-56.16-31.77-265.21-35.22-116.47-79.82-225-80.26-226.07a22.34,22.34,0,0,1,14.47-30c11.71-3.37,15.49-9.44,17.47-14.36,11.28-27.95-12.8-87.37-30.63-118.26a22.35,22.35,0,0,1,17.79-33.48c134.86-9.38,201.41-89.51,218.89-114.29-65.78-263.62-404.05-602.95-677.39-677.2C1728.12,1933.47,1638.2,1921.8,1560.73,1921.8Z" transform="translate(-745.68 -542.64)"/><path class="cls-6" d="M2028.27,3377.74s16.9-15.13,53.68-20.94c17.76-2.8,39.4-3.89,65.55-.61a11.75,11.75,0,0,0,4.69-23c-36.07-10.23-65.42-11.4-88.23-9.62-42,3.29-62.92,18.76-62.92,18.76a22.35,22.35,0,0,0,27.23,35.44Z" transform="translate(-745.68 -542.64)"/><path class="cls-6" d="M1506.56,3286.05s-30.71-14.5-83.71-11.37c-30.83,1.82-69.59,9.15-114.36,29.76a11.75,11.75,0,1,0,8.61,21.87c33.9-11.21,63.45-15.27,88.28-15.77,52.09-1.06,81.17,15.47,81.17,15.47a22.35,22.35,0,1,0,20-40Z" transform="translate(-745.68 -542.64)"/><path class="cls-2" d="M1752.18,3064.22c-86.88,0-149.39-52.6-170.33-73-192.6,3.06-457.38-99.43-468.76-103.87a22.35,22.35,0,0,1,16.26-41.63c2.75,1.07,277,107.19,460.88,100.58a22.37,22.37,0,0,1,17.57,7.55c.55.61,59.51,65.65,144.38,65.65,76.15,0,117.92-22.09,177.53-68.5a22.12,22.12,0,0,1,14.15-4.71c2.53,0,254.57,4.36,341-26.53a22.35,22.35,0,0,1,15.05,42.08c-85.94,30.73-303.87,29.8-349,29.25C1888.86,3038.57,1837.51,3064.22,1752.18,3064.22Z" transform="translate(-745.68 -542.64)"/><path class="cls-3" d="M1161,2645.94s294.51,221.88,1136.43,122.3l-19.79-99.58S1535.17,2768.24,1179.43,2556l-18.47,90Z" transform="translate(-745.68 -542.64)"/><g class="cls-5"><path class="cls-2" d="M2297.38,2768.26c-841.93,99.55-1136.44-122.34-1136.44-122.34l9.22-44.81c55.41,35.09,367.36,204.13,1117.33,117.21Z" transform="translate(-745.68 -542.64)"/></g><path class="cls-4" d="M1325.57,2619.57c-.86-.31,333.22-94.63,805.33-516.45l50.7,36.25s-262.92,269.22-690.21,512.4c0,0-77.11,0-165.82-32.2Z" transform="translate(-745.68 -542.64)"/><path class="cls-2" d="M1889.75,2816.07c-216.79,0-374.94-24.27-481.52-49.91-181.3-43.61-257.56-100-260.71-102.37a22.36,22.36,0,0,1-8.45-22.34l18.46-90a22.35,22.35,0,0,1,33.34-14.69c344.91,205.78,1076.41,110.7,1083.76,109.71a22.36,22.36,0,0,1,24.89,17.79l19.78,99.58a22.34,22.34,0,0,1-19.29,26.55C2144.92,2808.77,2008.52,2816.07,1889.75,2816.07Zm-703.84-180.52c26.82,16.3,101.58,56.06,237,88.18,158,37.46,432.4,71.72,847.78,25.09l-11-55.49c-55.12,6.33-213.12,22.23-398,20.93-291.37-2.07-515.38-43.7-666.6-123.8Zm-25,10.39h0Z" transform="translate(-745.68 -542.64)"/><path class="cls-2" d="M1491.39,2674.11c-3.31,0-82.09-.38-173.44-33.54a22.34,22.34,0,0,1-14.72-21.43c.09-4.81,2-16.54,17.39-21.48,58.09-18.59,369.43-130.62,795.39-511.2a22.38,22.38,0,0,1,27.89-1.52l50.7,36.25a22.35,22.35,0,0,1,3,33.79c-2.65,2.72-270,274.27-695.15,516.21A22.26,22.26,0,0,1,1491.39,2674.11Zm-94.34-57a519.05,519.05,0,0,0,88.69,12.17c353.35-201.94,594.55-423.09,661.22-487.19l-14.54-10.39C1789.88,2435,1520.2,2567.13,1397.05,2617.09Z" transform="translate(-745.68 -542.64)"/><g class="cls-5"><path class="cls-2" d="M2275.26,2224.81c-121,46.93-292.84,59.61-476.52,26.37-249.16-45.08-448.31-161.72-516.41-288.31,121.11-64.25,300.33-92.07,555.79-22.68C1982,1979.29,2143.31,2089.79,2275.26,2224.81Z" transform="translate(-745.68 -542.64)"/></g><path class="cls-3" d="M1802.38,2721.89s60.72,152,152.1,250.08a52.68,52.68,0,0,0,61.18,10.8c17.15-8.53,37.93-21.39,56.4-39.61a50.05,50.05,0,0,0,1-70.77c-42.06-43-124.66-121.22-210.36-172.1l-60.35,21.6Z" transform="translate(-745.68 -542.64)"/><g class="cls-5"><path class="cls-2" d="M2072.08,2943.17c-18.49,18.21-39.27,31.06-56.42,39.61a52.7,52.7,0,0,1-61.17-10.78c-91.4-98.1-152.12-250.11-152.12-250.11l39.72-14.24c26.64,50.94,65.47,115.47,112.4,165.8a52.7,52.7,0,0,0,61.17,10.84,233.78,233.78,0,0,0,42.34-27c5.48,5.42,10.5,10.5,15.09,15.14A50,50,0,0,1,2072.08,2943.17Z" transform="translate(-745.68 -542.64)"/></g><path class="cls-2" d="M1992.36,3010.54a74.72,74.72,0,0,1-54-23.09c-93.4-100.25-154.2-250.9-156.74-257.26a22.33,22.33,0,0,1,13.21-29.33l60.35-21.61a22.36,22.36,0,0,1,18.94,1.83c89.21,53,172.95,132.8,214.93,175.68a72.51,72.51,0,0,1-1.42,102.42c-17.26,17-38.17,31.73-62,43.6A75.41,75.41,0,0,1,1992.36,3010.54Zm-160-275.63c20,44.55,71,149.34,138.52,221.83a30.12,30.12,0,0,0,35,6c13.38-6.66,33.12-18.27,50.57-35.47a27.79,27.79,0,0,0,.68-39.29c-31.4-32.07-112-110.64-196.82-163Z" transform="translate(-745.68 -542.64)"/><path class="cls-3" d="M1745.35,2700.29s-133.62,54.26-238.08,151.32a50.5,50.5,0,0,0-14.85,46.89c4.27,20.76,15.94,48.87,46.32,74.06a49.33,49.33,0,0,0,67-3.7c44.42-46.26,130-140.71,170.39-222.72l-30.77-45.85Z" transform="translate(-745.68 -542.64)"/><g class="cls-5"><path class="cls-2" d="M1776.11,2746.14c-40.39,82-126,176.47-170.38,222.73a49.34,49.34,0,0,1-67,3.68c-30.39-25.19-42.07-53.29-46.32-74.07a50.36,50.36,0,0,1,14.86-46.87c1.9-1.73,3.75-3.47,5.65-5.14a143,143,0,0,0,25.81,27.6,49.34,49.34,0,0,0,67-3.69c35.08-36.54,95.86-103.13,139.71-169.94Z" transform="translate(-745.68 -542.64)"/></g><path class="cls-2" d="M1570.16,3006.16a71.33,71.33,0,0,1-45.69-16.41c-36-29.83-49.19-63.64-53.94-86.75a72.37,72.37,0,0,1,21.42-67.66c106.35-98.82,239.38-153.47,245-155.75a22.35,22.35,0,0,1,27,8.25l30.78,45.85a22.35,22.35,0,0,1,1.49,22.33c-41.19,83.61-126.9,178.93-174.32,228.32A71.7,71.7,0,0,1,1570.16,3006.16Zm167.07-277.88c-38.31,17.59-135.82,66.36-214.75,139.7a27.9,27.9,0,0,0-8.17,26c3.31,16.08,12.7,39.79,38.7,61.34a27.08,27.08,0,0,0,36.64-2c43.4-45.19,120.06-130.17,160.57-205.7Z" transform="translate(-745.68 -542.64)"/><path class="cls-3" d="M1802.38,2594.09c61.75,0,111.9,44.77,111.9,99.92s-50.15,99.93-111.9,99.93-111.91-44.77-111.91-99.93,50.14-99.92,111.91-99.92Z" transform="translate(-745.68 -542.64)"/><path class="cls-3" d="M1802.38,2594.09c61.75,0,111.9,44.77,111.9,99.92s-50.15,99.93-111.9,99.93-111.91-44.77-111.91-99.93,50.14-99.92,111.91-99.92Z" transform="translate(-745.68 -542.64)"/><g class="cls-5"><path class="cls-2" d="M1914.26,2694c0,55.13-50.11,99.94-111.89,99.94s-111.9-44.81-111.9-99.94a90.6,90.6,0,0,1,11-43.13c18,33.57,56.48,56.76,100.89,56.76s82.9-23.19,100.94-56.76A90.55,90.55,0,0,1,1914.26,2694Z" transform="translate(-745.68 -542.64)"/></g><path class="cls-2" d="M1802.38,2816.29c-74,0-134.26-54.86-134.26-122.28s60.23-122.27,134.26-122.27,134.24,54.85,134.24,122.27S1876.4,2816.29,1802.38,2816.29Zm0-199.85c-49.39,0-89.56,34.8-89.56,77.57s40.17,77.58,89.56,77.58,89.55-34.8,89.55-77.58S1851.76,2616.44,1802.38,2616.44Z" transform="translate(-745.68 -542.64)"/><path class="cls-6" d="M2275.07,2653.81s6.31-85.24-31-220.16c-16.37-59.3-41.12-128.34-78.74-204.07a12.21,12.21,0,0,0-22.12,10.35c33.16,75.4,54.12,143.7,67.35,202.14,29,128.1,20,207.65,20,207.65a22.34,22.34,0,1,0,44.5,4.09Z" transform="translate(-745.68 -542.64)"/><path class="cls-4" d="M1125.39,1248.15c67.34-334.37,317.69-800.34,988.89-656.25,598.57,128.49,593.19,682.69,538.46,824.66-37.37,97-97.51,257-97.51,397.82,0,100.91-94.82,443.65-711.2,333.18-607.11-108.81-811.53-438.16-718.64-899.41Z" transform="translate(-745.68 -542.64)"/><g class="cls-5"><path class="cls-2" d="M2555.69,1786.89c-.27,7.1-.44,14.19-.44,21.23,0,100.89-94.86,443.67-711.21,333.17-607.13-108.82-811.53-438.14-718.63-899.41a1118.63,1118.63,0,0,1,57.43-193.62l-.51,2.35c-92.9,461.26,111.56,790.58,718.64,899.41C2296,2020.85,2476.87,1905.44,2555.69,1786.89Z" transform="translate(-745.68 -542.64)"/></g><path class="cls-7" d="M2672.23,1327.25c-4.14,37.2-11.23,67.93-19.5,89.32-7.26,18.83-15.36,40.06-23.74,63.07C2640.33,1426.41,2656.14,1374.17,2672.23,1327.25Z" transform="translate(-745.68 -542.64)"/><g class="cls-8"><path class="cls-9" d="M2665.13,1131.89c-53.24-192.51-198.82-399.48-535.51-471.77-62.51-13.41-121.39-21.51-176.81-24.92-2.9,19.95-46.93,38.88-102.06,43.07-58,4.47-106.31-9-107.93-30.16a10.69,10.69,0,0,1,0-2c-386.36,69.94-549.7,409.93-602.1,670.2-23.64,117.43-28,226.31-11.4,325.19-33-116.2-33.13-248.26-3.91-393.4,67.31-334.34,317.64-800.3,988.85-656.23C2491.23,672.86,2628.65,922.62,2665.13,1131.89Z" transform="translate(-745.68 -542.64)"/></g><path class="cls-10" d="M1538.23,1198.46s-126.63,312.9,57,451.07c177.4,133.52,310.57-2.63,496.58,31.56,117.81,21.65,170.22,155.83,313.09,127.84,136.16-26.68,140.53-259.38,119.19-359.84,0,0-430.44-219.46-985.83-250.63Z" transform="translate(-745.68 -542.64)"/><path class="cls-2" d="M2367.24,1835.06c-70.62,0-120.58-37.45-165.49-71.11-36.29-27.21-70.56-52.9-114-60.89-69-12.68-131.89-.18-192.67,11.92-97.24,19.35-197.77,39.36-313.3-47.59-195.08-146.82-69.69-463.89-64.25-477.31a22.31,22.31,0,0,1,22-13.93c553.69,31.07,990.38,250.82,994.73,253a22.34,22.34,0,0,1,11.7,15.26c16,75.49,19.33,228.8-40.14,318.79-24.53,37.11-57,59.86-96.6,67.62A217.81,217.81,0,0,1,2367.24,1835.06ZM2027.55,1653a375.1,375.1,0,0,1,68.27,6.12c53.77,9.88,93.91,40,132.74,69.08,52.5,39.35,97.84,73.34,172,58.81,27.76-5.44,50-21.27,67.9-48.4,46.93-71,49.21-198.9,35.77-274.32-65.84-31.6-459.63-211.48-950.73-242.52-21.27,61.91-90.76,300.13,55.12,409.92,99.56,74.93,182.12,58.5,277.71,39.47C1931.44,1662.18,1977.6,1653,2027.55,1653Z" transform="translate(-745.68 -542.64)"/><path class="cls-2" d="M2069.19,2191.78q-105,0-229.1-22.22c-313.38-56.17-532.71-173.49-651.91-348.71-102.86-151.22-131.36-345.39-84.69-577.11h0c30.28-150.4,117.3-426.44,359.77-585.4,174.64-114.5,395.26-144.2,655.71-88.29,231.85,49.77,398.35,165.51,494.88,344,103.3,191,97.12,413.55,59.74,510.53-33.55,87.05-96,249.09-96,389.78,0,70.19-34.78,181.26-132.78,263.26C2354,2153.63,2228.13,2191.77,2069.19,2191.78ZM1876.69,587.37c-148.66,0-278.86,36.19-388.93,108.34C1258.88,845.77,1176.21,1109,1147.3,1252.56c-44.21,219.5-18,402.24,77.84,543.15,112.18,164.91,321.73,275.89,622.83,329.86,253.18,45.38,449.65,16.95,568.15-82.21,92.17-77.12,116.77-180.22,116.77-229,0-149,64.4-316.09,99-405.86,25.88-67.14,47.38-279.52-57.36-473.19-90-166.49-246.45-274.68-464.94-321.58Q1986.65,587.35,1876.69,587.37Zm-751.3,660.78h0Z" transform="translate(-745.68 -542.64)"/><path class="cls-3" d="M1121.49,1277.06s774.85-78.83,1481.09,272.49l44.07-126.23s-575.78-358-1489.93-289.87c0,0-19.71,44.92-35.23,143.61Z" transform="translate(-745.68 -542.64)"/><path class="cls-2" d="M2602.58,1571.9a22.45,22.45,0,0,1-10-2.34c-361.29-179.74-741.18-243.67-996.25-265.65-276.92-23.86-470.7-4.82-472.62-4.62a22.35,22.35,0,0,1-24.34-25.71c15.79-100.38,36-147.17,36.84-149.11a22.38,22.38,0,0,1,18.81-13.31c475.76-35.42,858.66,45.9,1096.12,120.37,258,80.9,401.29,169.1,407.27,172.82a22.34,22.34,0,0,1,9.29,26.34l-44.07,126.22a22.39,22.39,0,0,1-21.09,15ZM1320.16,1247.23c76.63,0,171.66,2.85,278.95,12.06,253.89,21.8,629.61,84.54,990.68,259.1l29.69-85c-43.42-24.53-177.32-95.24-383.37-159.7-231-72.28-602.2-151.13-1063.48-119-5.51,16.1-15.18,48.27-24.3,97.82C1181.27,1250.29,1240.86,1247.23,1320.16,1247.23Z" transform="translate(-745.68 -542.64)"/><path class="cls-2" d="M2258.66,1606.48s107.65-9.3,141.57-27.76c0,0,0,142.62-81.45,142.62-80.07,0-60.12-114.86-60.12-114.86Z" transform="translate(-745.68 -542.64)"/><path class="cls-2" d="M1781.29,1403.33s59.3,88.2,124,117.22c0,0-79.2,133.66-164.31,65.9-82.77-65.9,40.3-183.12,40.3-183.12Z" transform="translate(-745.68 -542.64)"/><path class="cls-11" d="M1584.81,2435l596.79,108.12,620.12,144a17.88,17.88,0,0,1,9.11,29.53l-44.52,48.34a17.86,17.86,0,0,1-13.55,5.76l-602.92-13.42-592-235.57a40.89,40.89,0,0,1-20.94-57.28l4.54-8.49A40.9,40.9,0,0,1,1584.81,2435Z" transform="translate(-745.68 -542.64)"/><path class="cls-2" d="M2747.78,2793.05h-.89l-600.27-13.42a22.38,22.38,0,0,1-7.79-1.59l-589.38-235.57a63.31,63.31,0,0,1-32.27-88.53l4.52-8.49a62.79,62.79,0,0,1,66.87-32.43h0l594.17,108.11,1.08.22,617.39,144a40.25,40.25,0,0,1,20.46,66.38L2777.34,2780A40.09,40.09,0,0,1,2747.78,2793.05Zm-596.11-58,594.13,13.29,37.79-41.22L2174.2,2565l-593.63-108h0a18.25,18.25,0,0,0-19.42,9.47l-4.53,8.49a18.44,18.44,0,0,0-1,15.2A18.25,18.25,0,0,0,1566,2501Z" transform="translate(-745.68 -542.64)"/><path class="cls-11" d="M3234.05,2270.79a40.7,40.7,0,0,1-11.84,28.27c-102.4,103.62-333.85,337.81-430.94,436.07a141.47,141.47,0,0,1-107.09,41.9c-136.53-6.31-453.56-20.89-521.38-24a81.76,81.76,0,0,1-25.08-5.14c-76.25-28.6-490.21-183.62-609.2-228.2a35.44,35.44,0,0,1-21.17-44.36c2.91-8.65,6-18,8.77-26.48a30.74,30.74,0,0,1,39.39-19.21L2102,2623.4l499.81-501.21a97,97,0,0,1,93.35-25.36c114.47,30,381.44,100,508.2,133.24a41.3,41.3,0,0,1,29.32,29A37.52,37.52,0,0,1,3234.05,2270.79Z" transform="translate(-745.68 -542.64)"/><g class="cls-8"><path class="cls-9" d="M3234.05,2270.79a40.8,40.8,0,0,1-3.13,15.25,42.9,42.9,0,0,0-15-7.48c-126.76-33.24-393.73-103.24-508.2-133.24a97,97,0,0,0-93.35,25.36L2133.2,2653.17a41.73,41.73,0,0,1-43.57,9.89l-521.56-184.9a30.74,30.74,0,0,0-39.38,19.21c-2,6.21-4.19,12.8-6.37,19.28a35.39,35.39,0,0,1-15-41.29c2.91-8.65,6-18,8.77-26.48a30.74,30.74,0,0,1,39.39-19.21L2102,2623.4l499.81-501.21a97,97,0,0,1,93.35-25.36c114.47,30,381.44,100,508.2,133.24a41.3,41.3,0,0,1,29.32,29A37.52,37.52,0,0,1,3234.05,2270.79Z" transform="translate(-745.68 -542.64)"/></g><path class="cls-2" d="M2690.64,2799.5q-3.73,0-7.48-.17l-521.41-24a104.62,104.62,0,0,1-31.86-6.53l-609.18-228.19a57.59,57.59,0,0,1-34.56-72.37l8.79-26.43a53,53,0,0,1,68-33.22l533.15,189L2586,2106.4a119.78,119.78,0,0,1,114.87-31.19L3209,2208.46a63.66,63.66,0,0,1,29.13,106.31l-430.95,436.09A164.06,164.06,0,0,1,2690.64,2799.5ZM1545.26,2450.27a8.29,8.29,0,0,0-7.91,5.7l-8.79,26.43a13.05,13.05,0,0,0,7.82,16.4L2145.56,2727a59.69,59.69,0,0,0,18.23,3.73l521.42,24a119.25,119.25,0,0,0,90.15-35.25l430.95-436.08a19,19,0,0,0-8.68-31.67l-508.14-133.25a75,75,0,0,0-71.9,19.52h0L2117.8,2639.18a22.35,22.35,0,0,1-23.29,5.28L1548,2450.75A8.3,8.3,0,0,0,1545.26,2450.27Zm1056.51-328.09h0Z" transform="translate(-745.68 -542.64)"/><path class="cls-2" d="M2183.93,2677.21a22.47,22.47,0,0,1-8-1.49l-81.55-31.43a22.36,22.36,0,0,1-7.89-36.53c3.75-3.8,376-381.86,500-502.4,25.43-24.72,68-37.33,101.28-6.61,12.92,11.92,20,29.1,20,48.39-.07,24-11,48.8-28.64,64.86-128.94,117.62-476,455.48-479.53,458.87A22.34,22.34,0,0,1,2183.93,2677.21Zm-41.7-62.37,36.39,14c58.77-57.14,353.43-343.27,470.32-449.89,8.38-7.64,14-20.49,14.07-32,0-4.68-1-11.15-5.57-15.42-16.88-15.57-37.53,3.57-39.83,5.81C2512.28,2239.79,2226.83,2529,2142.23,2614.84Z" transform="translate(-745.68 -542.64)"/><path class="cls-2" d="M2149.85,2768.08a22.37,22.37,0,0,1-21.16-29.56l30.93-90.86a22.35,22.35,0,1,1,42.31,14.41L2171,2752.93A22.37,22.37,0,0,1,2149.85,2768.08Z" transform="translate(-745.68 -542.64)"/><path class="cls-2" d="M2818.9,2722.64c-.53,0-1.07,0-1.61-.06l-638.1-45.43a22.35,22.35,0,0,1,3.17-44.58l638.1,45.43a22.35,22.35,0,0,1-1.56,44.64Z" transform="translate(-745.68 -542.64)"/><g class="cls-5"><path class="cls-2" d="M3234.05,2270.79a40.7,40.7,0,0,1-11.84,28.27c-102.4,103.62-333.85,337.81-430.94,436.07a141.47,141.47,0,0,1-107.09,41.9c-136.53-6.31-453.56-20.89-521.38-24a81.76,81.76,0,0,1-25.08-5.14c-76.25-28.6-490.21-183.62-609.2-228.2a35.44,35.44,0,0,1-21.17-44.36c2.91-8.65,563.37,202.56,563.37,202.56l41.43,9.8a95.86,95.86,0,0,0,91.07-26.76l479.9-498s319.54,77.65,453.62,113.63C3187.52,2290.23,3217,2283.92,3234.05,2270.79Z" transform="translate(-745.68 -542.64)"/></g><ellipse class="cls-9" cx="2743.17" cy="2470.08" rx="65.19" ry="41.16" transform="translate(-1677.37 1578.59) rotate(-36.58)"/><path class="cls-10" d="M2612.49,2686.8s59.44-73.84,127.36-60.94S2786,2895.08,2563,2901.5s-231.73-230.08-157.31-275.64c81.6-50,206.79,60.94,206.79,60.94Z" transform="translate(-745.68 -542.64)"/><g class="cls-8"><path class="cls-9" d="M2767.75,2742.9c-1.11-34.58-13.46-60.62-33.91-64.47-46.84-8.9-89.62,23.46-111.67,44.41a26.11,26.11,0,0,1-33.71,2c-37.61-28.27-126-84.83-188.74-46.46-16.53,10.11-28.94,29.66-35.81,53.85-1.78-46.92,14.36-89.66,41.79-106.42,81.62-49.94,206.81,60.95,206.81,60.95s59.44-73.85,127.31-60.95C2769.82,2631.56,2782.34,2684.74,2767.75,2742.9Z" transform="translate(-745.68 -542.64)"/></g><path class="cls-2" d="M2554.67,2924c-102.49,0-178.62-51.38-204.59-138.69-21.38-71.91-2.08-150.3,44-178.48,76-46.5,176.67,19.22,216.36,49.53,24.4-23.76,75.25-63.5,133.62-52.42,36,6.82,56.19,49,51.54,107.44-7.9,99.35-83.84,208.23-231.89,212.49Q2559.13,2924,2554.67,2924Zm-100.62-288.6c-13.23,0-25.71,2.83-36.69,9.55-25,15.28-41.14,71.45-24.44,127.62,9.89,33.24,46.29,110.25,169.45,106.63,138.47-4,183.72-109.59,188.63-171.36,2.88-36.22-7.23-58.46-15.32-60-53.29-10.11-105.27,52.36-105.78,53a22.35,22.35,0,0,1-32.22,2.71C2572.48,2681.28,2507.33,2635.37,2454.05,2635.37Z" transform="translate(-745.68 -542.64)"/><path class="cls-12" d="M1905.33,2405.81c-47.1,43.07-80.62-43.12-80.62-43.12S1714.61,2471.9,1535,2379c0,0-1.51,1.4-4.52,3.74-23.63,18.66-139.49,99.16-330.88,57.32l114.85-283.34s239.88-126.54,414.74-63.07c9,3.29,17.76,7,26.14,10.94C1908.73,2178,1949.91,2364.92,1905.33,2405.81Z" transform="translate(-745.68 -542.64)"/><path class="cls-10" d="M1905.33,2405.81c-47.1,43.07-80.62-43.12-80.62-43.12S1714.61,2471.9,1535,2379c0,0-1.51,1.4-4.52,3.74-7.43-42.79-31.73-231.33,103.29-292.84,0,0,56.59,6.26,121.56,14.69C1908.73,2178,1949.91,2364.92,1905.33,2405.81Z" transform="translate(-745.68 -542.64)"/><g class="cls-8"><path class="cls-9" d="M1325.57,2151.16s207.73-94.91,384.22-48c160.86,42.72,210.09,166.21,195.73,288.31,0,0-29.67-197.52-215-242.41S1325.57,2151.16,1325.57,2151.16Z" transform="translate(-745.68 -542.64)"/></g><path class="cls-2" d="M1878.9,2440.22a52.52,52.52,0,0,1-11.88-1.38c-22.75-5.32-39.37-24.79-49.93-41.82-42.78,28.87-142,74.44-281.19,7.4a22.36,22.36,0,0,1-27.44-17.85c-7.09-40.88-34.86-248.26,116-317a22.34,22.34,0,0,1,11.72-1.88c.56.06,57.54,6.38,122,14.74a22.68,22.68,0,0,1,6.77,2c112.84,54,166,161.21,177.24,236.63,6.87,46.07-.87,82-21.79,101.21l0,0C1905.21,2436.2,1890.65,2440.22,1878.9,2440.22Zm26.43-34.41h0Zm-80.62-65.47a22.36,22.36,0,0,1,20.83,14.25c6.06,15.38,20.45,38.14,31.66,40.73,1.29.29,5.18,1.2,13-6,7.2-6.61,12.71-28.73,7.8-61.68-10.27-68.88-60.34-157.37-149.18-201.37-50.13-6.48-95.07-11.64-111.2-13.47-101.48,51.15-94.81,192.51-87.73,248.69,160.51,80.27,258.1-13.72,259.07-14.69A22.36,22.36,0,0,1,1824.71,2340.34Z" transform="translate(-745.68 -542.64)"/><g class="cls-5"><path class="cls-2" d="M1908.51,2288.48s-4.08,64.65-78.65,0c0,0-140.32,110.13-297.79,0,0,0-225,81.4-332.5,12s-75.5-197.33-75.5-197.33-190,216.49,90.13,338.59c0,0,105.34,42.16,320.82-62.72,0,0,83.8,98.63,289.69-16.29C1824.71,2362.7,1918.09,2530.29,1908.51,2288.48Z" transform="translate(-745.68 -542.64)"/></g><path class="cls-6" d="M1882.23,2387.56c-7.73,1.22-13.43-4.33-18.24-9.8-12.49-14.21-18.88-33.8-18.88-33.8a23.37,23.37,0,0,0-38.18-9.72c-41.22,38.76-83.61,54.32-121.76,57.61-73.8,6.37-131.27-31.94-131.27-31.94a23,23,0,0,0-25.69,0,385.3,385.3,0,0,1-157.19,61.7c-95.09,15-168.62-7.57-168.62-7.57a22.35,22.35,0,0,0-13.36,42.65s82.32,26.2,189,9.75A431.17,431.17,0,0,0,1541.73,2406c24.59,13.17,80.45,37.68,147.37,32.07,39.42-3.3,82.76-16.86,125.74-49.4,5.92,10.1,13.64,20.86,23.09,29.06,15.26,13.25,34.3,20.5,56.55,15.11,14-3.4,27.1-14.64,34.91-34.46,10.85-27.51,12.23-75.9-4.38-128.23-19.84-62.5-64.73-131-145.91-173.89-50.73-26.54-122.35-35.19-195.85-30.69a777.07,777.07,0,0,0-114.56,16.13,791.7,791.7,0,0,0-83.38,22.7c-35.18,11.76-63.28,24.29-80.21,34.62a10,10,0,0,0,9.37,17.71c17-7.69,44.84-15.49,78.94-23,24.68-5.41,52.51-10.32,82-14.48a1004,1004,0,0,1,109.86-9.55c64.76-1.89,127.86,3.52,172.23,27.34a251.46,251.46,0,0,1,111,116.7c18.75,40.26,24.8,80.42,21.51,109a71.13,71.13,0,0,1-4.62,19.47,34.37,34.37,0,0,1-3.18,5.35Z" transform="translate(-745.68 -542.64)"/><g class="cls-5"><path class="cls-2" d="M2773.84,2697.2c-.78,80.33-59.38,199.94-210.83,204.29-194.79,5.59-226.08-174.12-181.28-250,4.42,91.73,92.63,165,200.84,165C2672,2816.41,2747.76,2766.36,2773.84,2697.2Z" transform="translate(-745.68 -542.64)"/></g><ellipse class="cls-9" cx="1821.33" cy="1552.06" rx="29.9" ry="20.05" transform="translate(-1265.73 1503.48) rotate(-52.35)"/><g class="cls-13"><path class="cls-9" d="M1757.74,1508.72c-6,11.33-14.78,18.4-19.73,15.8s-4.15-13.89,1.79-25.21,14.78-18.39,19.73-15.79S1763.68,1497.4,1757.74,1508.72Z" transform="translate(-745.68 -542.64)"/></g><g class="cls-13"><ellipse class="cls-9" cx="2366.54" cy="1650.03" rx="23.15" ry="10.13" transform="translate(-800.44 2675.97) rotate(-67.82)"/></g><ellipse class="cls-9" cx="2293.89" cy="1664.3" rx="15.29" ry="22.79" transform="translate(-864.24 -365.58) rotate(-4.31)"/><path class="cls-2" d="M1922.29,1543.42a23.09,23.09,0,0,1-5.55-.68c-109.24-27.21-180.11-151.15-183.08-156.42a22.86,22.86,0,0,1,39.84-22.45h0c.63,1.12,64.32,112.09,154.29,134.5a22.86,22.86,0,0,1-5.5,45.05Z" transform="translate(-745.68 -542.64)"/><path class="cls-2" d="M2254.71,1629.08c-13.34,0-22-.56-23.36-.65a22.86,22.86,0,1,1,3.14-45.62c2,.13,121,7.43,175.2-38.41a22.86,22.86,0,1,1,29.53,34.9C2387.07,1623.44,2297.2,1629.08,2254.71,1629.08Z" transform="translate(-745.68 -542.64)"/><path class="cls-14" d="M2941.89,1523a229.83,229.83,0,0,1-32.61-143.83c13-126.85,126.41-219.12,253.26-206.1s219.13,126.41,206.1,253.26-126.41,219.13-253.26,206.1a230,230,0,0,1-96.29-32.31l-106.85,24Z" transform="translate(-745.68 -542.64)"/><g class="cls-15"><path class="cls-9" d="M3158,1217.29c-118.5-12.17-225.22,67.56-249.38,181.51a232.48,232.48,0,0,1,1.17-24.63c13-126.85,126.41-219.12,253.26-206.1s219.12,126.42,206.1,253.26a232.31,232.31,0,0,1-3.86,24.47C3364.86,1329.27,3276.54,1229.46,3158,1217.29Z" transform="translate(-745.68 -542.64)"/></g><path class="cls-9" d="M3141,1291a96,96,0,0,0-49.18,178.41v29.5a6.93,6.93,0,0,0,7,7h5.81a6.93,6.93,0,0,0,7-7v-20.45c2.09.62,4.19,1.2,6.33,1.72v18.73a6.93,6.93,0,0,0,7,7h5.82a6.92,6.92,0,0,0,6.95-7v-16c1.15,0,2.24.19,3.39.19s2.28-.15,3.43-.19v16a6.92,6.92,0,0,0,6.95,7h5.82a7,7,0,0,0,6.95-7v-18.73c2.1-.52,4.25-1.1,6.29-1.72v20.45a6.93,6.93,0,0,0,7,7h5.81a6.93,6.93,0,0,0,7-7v-29.5A96,96,0,0,0,3141,1291Zm-39.89,136.91a29.45,29.45,0,1,1,29.4-29.45A29.44,29.44,0,0,1,3101.14,1427.86Zm79.82,0a29.45,29.45,0,1,1,29.45-29.45A29.47,29.47,0,0,1,3181,1427.86Z" transform="translate(-745.68 -542.64)"/><g class="cls-5"><path class="cls-2" d="M2944.74,1511.94c63.24,53.49,150.36,76.92,236.88,55.38,95.94-23.88,166.64-96.94,192.07-185.61a233.54,233.54,0,0,1-.91,35.78c-13,126.85-126.41,219.12-253.26,206.1a230,230,0,0,1-96.29-32.31l-106.85,24L2946,1514.16C2945.58,1513.43,2945.17,1512.68,2944.74,1511.94Z" transform="translate(-745.68 -542.64)"/></g><path class="cls-2" d="M3139.44,1656.05a256.32,256.32,0,0,1-26.34-1.35,250.88,250.88,0,0,1-97.69-30.82l-98.28,22a22.35,22.35,0,0,1-26.33-28.1l26.94-91.83a250.8,250.8,0,0,1-30.69-149.07c14.26-138.9,138.84-240.33,277.77-226a253.25,253.25,0,0,1-25.38,505.17Zm-120.35-78.24a22.29,22.29,0,0,1,11.61,3.26,208.56,208.56,0,1,0,129.56-385.73c-114.39-11.79-217,71.76-228.75,186.15a206.59,206.59,0,0,0,29.45,129.9,22.34,22.34,0,0,1,2.37,17.94l-19,64.69,69.84-15.66A22,22,0,0,1,3019.09,1577.81Z" transform="translate(-745.68 -542.64)"/></svg>