<svg id="Layer_1" data-name="Layer 1" xmlns="http://www.w3.org/2000/svg" viewBox="0 0 3127.02 2998.57"><defs><style>.cls-1{fill:#fff;}.cls-2{fill:#edbc9a;}.cls-3{fill:#3e4049;}.cls-4{opacity:0.4;}.cls-5{opacity:0.25;}.cls-6{fill:#0f0f14;}.cls-7{fill:#ff2434;}.cls-8{opacity:0.3;}.cls-9{fill:#82829e;}</style></defs><title>ninja2</title><path class="cls-1" d="M3401.63,1892.82c66.14,41.64,126.66,105.82,149.42,181.8,1.8,8,3.22,16.23,4.44,24.32a.57.57,0,0,1-1.08.31c-4.39-9.82-7.63-20.41-12.45-30-12.8-29.22-29.82-57.11-50.85-81.15a438.89,438.89,0,0,0-96.61-83.65c-7.38-4.72-.62-16.11,7.13-11.62Z" transform="translate(-428.48 -478.77)"/><path class="cls-1" d="M3380,1954.69c60.88,38.59,97.95,107.15,111.72,176.46,3.26,16,4.25,32.3,4.26,48.52a.57.57,0,0,1-1.13.11c-5.38-20.61-9.34-41.7-15.77-62-12.51-42.72-34.6-83.27-64.62-116.13-12.24-13-26.53-26.07-41.48-35.26-7.42-4.68-.74-16.08,7-11.68Z" transform="translate(-428.48 -478.77)"/><path class="cls-1" d="M3353.62,2028.61c46.74,22.62,83.15,74,83,126.48a.58.58,0,0,1-1.09.25c-2.85-6-4.62-12.05-7-17.91-12-35.06-34-66.55-64.92-87.28a136.37,136.37,0,0,0-15.75-9.18c-7.82-3.93-2.37-15.8,5.74-12.36Z" transform="translate(-428.48 -478.77)"/><path class="cls-1" d="M2744.52,1872.19c41-76.18,126.8-121.92,212.27-120.75,27.92.34,57.83,3.4,83.07,13.69-27.38-2-55.49-5.7-82.87-4.24-54.25,1.47-107.81,20.69-149,56-20.2,17.27-38.78,38.52-51.36,61.68-4.25,7.71-16,1.64-12.06-6.36Z" transform="translate(-428.48 -478.77)"/><path class="cls-1" d="M2858.38,1925.22c48.53-48.5,132-66.85,192.61-33a.59.59,0,0,1-.66.32c-8.29-.84-16.55-3.07-24.78-4-44.19-7.9-90.81-.11-128.8,24.13a168.44,168.44,0,0,0-28.7,22.21c-6.35,6.06-15.73-3.13-9.67-9.6Z" transform="translate(-428.48 -478.77)"/><path class="cls-1" d="M2920.42,1945.12a121.56,121.56,0,0,1,45.56-20.31,30.71,30.71,0,0,1,16.95.44.64.64,0,0,1,.39.81c-4.63,3.88-9.77,5.75-14.56,7.81-14.17,6-27.72,14.2-40.56,22.44-7.35,4.58-14.62-5.92-7.78-11.19Z" transform="translate(-428.48 -478.77)"/><path class="cls-1" d="M2999.13,2252.52c-61.09-27-126.11-84.24-157.7-143.22a.58.58,0,0,1,.91-.68c6.48,6.28,12.31,13,18.33,19.42,29.08,32.77,61.41,62.84,98.26,86.63,14.41,9.38,30,18.44,45.5,25.29,8,3.63,3,15.79-5.3,12.56Z" transform="translate(-428.48 -478.77)"/><path class="cls-1" d="M2988.51,2195.78c-27.47-14.2-50.05-35.28-68.33-59.82a86.94,86.94,0,0,1-14.11-26.68.59.59,0,0,1,.38-.74c15.32,12.69,26.28,29.17,41.63,41.79a253.45,253.45,0,0,0,46.7,33.34c7.68,4.28,1.69,15.92-6.27,12.11Z" transform="translate(-428.48 -478.77)"/><path class="cls-1" d="M3496,2376.46c-58.59,3.63-117.27-1.6-174.79-12.73-34.32-7-68.55-15.76-100.12-31.27a.57.57,0,0,1,.38-1.06c34.16,7.44,67.29,16.28,101.65,21.79a888,888,0,0,0,103.06,10c23,.8,46.27.93,68.94-.32,8.78-.37,9.79,12.8.88,13.61Z" transform="translate(-428.48 -478.77)"/><path class="cls-1" d="M3346.75,2306.17c-34.06,5.6-68.89.48-101.38-10.19a103.83,103.83,0,0,1-30.24-15.16.58.58,0,0,1-.12-.82c22.1,2.55,42.81,10.94,65,12.74,21.26,2.47,43.3,3,64.4,0,8.67-1.18,10.9,11.64,2.3,13.44Z" transform="translate(-428.48 -478.77)"/><path class="cls-2" d="M838.14,2042.49C800.8,2000,651.33,1949.4,627.5,1976.21s21.59,51.38,21.59,51.38-31.27,1.49-35,28.3,84.71,37.24,84.71,37.24,19.55,19.36,6.89,43.93-60.32,8.2-88.62,17.88-14.89,45.42,38,65.53,99.79,40.22,99.79,40.22S845,2148.24,838.14,2042.49Z" transform="translate(-428.48 -478.77)"/><path class="cls-3" d="M1160,2141.66c-144-15.51-321.82-99.17-321.82-99.17,6.84,105.75-83.3,218.2-83.3,218.2,138.52,108,342.57,108,342.57,108,143,0,185.42-131.49,185.42-131.49S1303.94,2157.17,1160,2141.66Z" transform="translate(-428.48 -478.77)"/><g class="cls-4"><path class="cls-1" d="M623.77,1984.4s78.2,10.43,131.07,35,83.23,47.78,83.23,47.78l-.57,8.07s52.13,21.6,143.73,52.88,180.22,17.13,178,17.13-61.45-7.49-142.8-30.55-164.65-63-164.65-63l-22.37-17.64s-65.25-41.09-127.06-58.21S625.64,1974.35,623.77,1984.4Z" transform="translate(-428.48 -478.77)"/></g><g class="cls-5"><path class="cls-6" d="M606.75,2161.35s25.22,17.42,75.86,34.55S802,2185.58,802,2185.58l-15.11,23s50.64,45.91,190.65,66.52S1186,2145.26,1186,2145.26s73.61,5.27,94.15,60.35-63.07,126.54-98,144.84-125.9,27.74-245.69-3.09-168.91-77.2-168.91-77.2-30.17-15.88-32.43-17.29-94.65-25.83-115.09-52S599.78,2167.39,606.75,2161.35Z" transform="translate(-428.48 -478.77)"/></g><g class="cls-5"><path class="cls-6" d="M682.61,2073s-34.43-8-46.18-14.52c-22.15-12.29,1.87-24.45,1.87-24.45s9.25-9.42,19.37,1.81S682.61,2073,682.61,2073Z" transform="translate(-428.48 -478.77)"/></g><path class="cls-6" d="M1097.44,2382.38h0c-8.49,0-209-1.32-349.53-109.84-8.64-3.67-51.08-21.6-97.67-39.31-37.6-14.3-61.64-38.4-61.26-61.4.23-13.66,9.1-24.8,23.71-29.8,13.25-4.53,28.49-4.34,43.24-4.14,16.63.21,33.81.44,37.68-7.07,5.58-10.85,1.32-20.13-1.89-24.86-19.27-2.67-69.63-11.46-85.46-32a26.24,26.24,0,0,1-5.64-20c2.11-15.18,10.52-25.06,20.24-31.21-6.18-6.55-11.67-14.79-13.35-24.34-1.36-7.72-.75-19.42,9.83-31.33,7.25-8.16,19.38-11.9,36.78-12.06,51.53.14,156.12,38.17,192.27,76.17,21.59,9.89,184,82.73,315.07,96.85,60.59,6.52,101.77,25,122.4,55,19.58,28.45,12.51,56.44,12.2,57.61q-.09.36-.21.72C1295.36,2242.84,1248.57,2382.38,1097.44,2382.38Zm0-27.29h0c128.12,0,169-112.05,172.25-121.59.47-2.27,3.26-18.48-8.71-35.46-15.87-22.5-51.31-37.3-102.48-42.81-144.59-15.58-318.82-96.94-326.17-100.4a13.57,13.57,0,0,1-4.43-3.34c-25.83-29.36-122.45-68.11-172.3-69.11-14.43-.19-17.88,2.86-17.91,2.89-4,4.54-3.55,7.28-3.35,8.46,1.48,8.53,15,18.43,21.28,21.88a13.65,13.65,0,0,1-5.88,25.61c-1.94.12-19.62,1.64-22,16,4.36,7.63,39.21,18.39,72.71,22.36a13.66,13.66,0,0,1,8,3.85c9.22,9.14,23.06,33.41,9.42,59.88-11.6,22.52-38.51,22.18-62.28,21.86-12.43-.15-25.27-.33-34,2.67-5.22,1.79-5.26,3.8-5.27,4.46-.1,6.09,10.44,22.78,43.68,35.43,52.53,20,99.84,40.21,100.32,40.42a12.9,12.9,0,0,1,3,1.78c133.28,103.89,332.19,105.16,334.18,105.16Z" transform="translate(-428.48 -478.77)"/><path class="cls-6" d="M698.81,2106.77a13.63,13.63,0,0,1-12.07-7.27c-20.65-39.11-46.25-61.31-46.51-61.53a13.64,13.64,0,0,1,17.7-20.77c1.2,1,29.7,25.54,52.93,69.55a13.64,13.64,0,0,1-12.05,20Z" transform="translate(-428.48 -478.77)"/><path class="cls-6" d="M754.84,2274.33a13.65,13.65,0,0,1-10.65-22.17c.87-1.09,86.75-109.67,80.34-208.8a13.64,13.64,0,1,1,27.22-1.75c7.11,109.77-82.45,222.85-86.26,227.6A13.61,13.61,0,0,1,754.84,2274.33Z" transform="translate(-428.48 -478.77)"/><path class="cls-7" d="M2203.61,1111.6s67.12,50.15,239.86,47.69,240.32-90.61,250-114.75S2679.38,941,2652.75,936.81s-98.82,66.18-173.07,83.89-261.26-46.32-261.26-46.32" transform="translate(-428.48 -478.77)"/><g class="cls-5"><path class="cls-6" d="M2432.64,1101.2c172.74-2.46,240.33-90.6,250.05-114.74a33,33,0,0,0,1.94-9.07c9.55,24.77,14.15,54.07,8.88,67.15-9.72,24.14-77.31,112.28-250,114.75s-239.87-47.69-239.87-47.69l35.29-14.41c8.36-6.79,10.3-18.51,10.3-18.51C2287.6,1090.77,2347.19,1102.42,2432.64,1101.2Z" transform="translate(-428.48 -478.77)"/></g><path class="cls-6" d="M2431.21,1173c-166.25,0-232.95-48.39-235.77-50.5a13.64,13.64,0,0,1,16.28-21.89c1,.7,67.17,47.49,231.55,45,162.7-2.32,228.79-84.36,237.59-106.2,4-10-2-47.91-16.72-73.86-6.74-11.87-12-15.07-13.49-15.3-7.18-1.06-33,15.21-51.84,27.1-32.78,20.7-73.58,46.47-116,56.58-77.23,18.39-261.07-44-268.86-46.68a13.64,13.64,0,0,1,8.84-25.81c1.83.62,184.14,62.57,253.68,45.95,38-9.06,76.66-33.48,107.73-53.11,32.12-20.29,53.33-33.65,70.62-31,12.13,1.9,23.23,11.58,33,28.78,15.93,28.06,27.36,75,18.3,97.52-12.56,31.2-87.74,120.81-262.51,123.3C2439.46,1173,2435.3,1173,2431.21,1173Z" transform="translate(-428.48 -478.77)"/><path class="cls-7" d="M2253.63,1020.74s19.07-102,117.71-178S2478.69,569.53,2463,544.42s-106.15-70-166.65-44.16c0,0,34,171-40.71,242.44S2114,862.64,2115.44,974.09C2115.44,974.09,2149.87,1040.24,2253.63,1020.74Z" transform="translate(-428.48 -478.77)"/><g class="cls-5"><path class="cls-6" d="M2212.74,1004.76s.22-68,49.38-130.34,107.78-69.26,138.39-138.81,26.95-204.75,26.95-204.75,30-.39,37.45,17.75,5.38,108.32-22.14,187.66-92.17,123.87-92.17,123.87-44.07,38.65-68.91,88.08-28.06,72.52-28.06,72.52S2215.24,1020.69,2212.74,1004.76Z" transform="translate(-428.48 -478.77)"/></g><path class="cls-6" d="M2216.57,1038c-82.16,0-111.84-55-113.23-57.64a13.44,13.44,0,0,1-1.54-6.12c-1.4-105.29,55-157.9,120.39-218.82,7.87-7.34,15.92-14.84,24.06-22.62,68.43-65.34,37.08-228.27,36.75-229.91a13.65,13.65,0,0,1,8-15.2c68.38-29.27,165.31,20.17,183.59,49.48,11.5,18.45,11,80-1.19,140-9.33,46.08-33.92,130.27-93.75,176.35-93,71.66-112.45,168.72-112.63,169.69a13.67,13.67,0,0,1-10.89,10.88A214.2,214.2,0,0,1,2216.57,1038Zm37.06-17.29h0Zm-124.58-50.46c6.94,10.52,38.07,49.44,113.38,38.5C2249.8,980.87,2277.92,897.52,2363,832c92.25-71.06,100.67-258.89,88.42-280.37-11.65-18.67-85.56-57.14-139.65-42.29,6.42,41.14,21.65,178-46.69,243.25-8.23,7.86-16.35,15.43-24.31,22.85C2178.51,833.46,2129.15,879.48,2129.05,970.28Z" transform="translate(-428.48 -478.77)"/><path class="cls-3" d="M1282.83,2237.24s456.44-11.59,813.91-180.27,416.66-354,267.37-537.19c0,0-42.89-458-364.9-660.29S980.62,755,822.35,1278.27C760.2,1510.42,862.92,1867,862.92,1867S743.81,2230,1282.83,2237.24Z" transform="translate(-428.48 -478.77)"/><g class="cls-4"><path class="cls-1" d="M2404.31,1577.88c-1.24-1.56-2.46-3.12-3.73-4.69,0,0-.08-.78-.23-2.14C2401.71,1573.33,2403,1575.6,2404.31,1577.88Z" transform="translate(-428.48 -478.77)"/></g><g class="cls-4"><path class="cls-1" d="M914.1,2118c-49.61-54.8-62.08-118.42-62.33-167.91C853.21,2001.09,866.58,2065.1,914.1,2118Z" transform="translate(-428.48 -478.77)"/></g><g class="cls-4"><path class="cls-1" d="M813.36,1616.65C830.81,1755.53,862.92,1867,862.92,1867s-11.39,34.82-11.15,83.07c-1.45-51.55,9.28-89.8,9.28-89.8S827,1753.3,813.36,1616.65Z" transform="translate(-428.48 -478.77)"/></g><g class="cls-4"><path class="cls-1" d="M1999.21,859.49c92.05,57.83,161.26,136.57,213.21,219.52-46.73-62.83-104.75-120.87-176.75-166.11-176-110.54-463.72-131.48-714.4-42.37a8.48,8.48,0,0,1,1.19,1.61C1332.6,890,1276,941.27,1196.13,986.57c-71.5,40.53-137.42,62.55-157.8,53.94-80.32,76.28-143.72,172.8-179.52,291.17-11.58,43.25-47.84,89.63-50,135.25-2.45,51.33-.16,102.3,4.57,149.72-13.76-109.51-18.41-236,9-338.38C980.62,755,1677.19,657.18,1999.21,859.49Z" transform="translate(-428.48 -478.77)"/></g><g class="cls-5"><path class="cls-6" d="M1985.27,1991.22c357.47-168.68,416.66-354,267.37-537.19,0,0-39-416.65-322.07-630.69a534.68,534.68,0,0,1,68.64,36.15c322,202.31,364.9,660.29,364.9,660.29,149.29,183.16,90.1,368.51-267.37,537.19s-813.91,180.27-813.91,180.27c-184.63-2.47-292-46.69-353.46-103.77,60.33,22.29,139.15,36.65,242,38C1171.36,2171.49,1627.8,2159.91,1985.27,1991.22Z" transform="translate(-428.48 -478.77)"/></g><path class="cls-2" d="M1870,1174.16c74.34-2.65,141.41,44.19,165.19,114.67,36.32,107.63,93.63,318.79,21.86,411.21-98.43,126.75-436.07,147.51-670.24,194s-389.74,91.8-462.06-76.33-57.06-385.18-38.88-405.79,268.16-73.28,520.33-130.47C1574.55,1243.26,1746.78,1178.56,1870,1174.16Z" transform="translate(-428.48 -478.77)"/><path class="cls-6" d="M1282.83,2250.88h-.19c-195.9-2.63-329.48-51.89-397-146.43C814.58,2005,842,1890.31,848.71,1866.9c-11.6-41.53-99.18-369.39-39.54-592.16,64.77-214.19,226.93-379.27,456.71-465.25,125.12-46.82,262.69-67.6,397.81-60.1,131.51,7.3,253.24,42.3,342.77,98.55,169.62,106.56,261.53,283.35,308.77,412.89,46.19,126.65,59.59,231.38,62,253.52,64.92,80.94,88.93,161.15,71.4,238.47-25.82,113.82-142.26,220.3-346.1,316.49-356,168-814.79,181.45-819.39,181.56ZM1610.32,775.64c-112.12,0-228.41,19.56-334.88,59.4-221.63,82.93-377.9,241.74-440,447.18-60.34,225.45,39.61,577.5,40.63,581a13.62,13.62,0,0,1-.15,8c-.38,1.18-37.8,119.91,32.15,217.57,62.22,86.88,188.29,132.22,374.7,134.75,12.91-.38,460.86-15.06,808.19-179,195.86-92.42,307.27-192.63,331.13-297.84,15.81-69.73-7.24-143.21-68.51-218.39a13.62,13.62,0,0,1-3-7.34c-.11-1.14-11.25-114.93-61.18-251.56-45.78-125.3-134.54-296.14-297.4-398.45C1891.51,807.94,1754.37,775.64,1610.32,775.64Z" transform="translate(-428.48 -478.77)"/><path class="cls-6" d="M1112.91,1950.25c-90.73,0-159-30.2-200.69-127.15-73.44-170.72-60.32-393.29-36.58-420.21,16.49-18.69,123.1-44,401.14-106.3,41.33-9.27,83.84-18.79,126.4-28.45,59.14-13.41,119-30.18,176.88-46.4,107-30,208.14-58.31,289.46-61.21h0c79.49-3,153,48.12,178.6,123.94,39.47,117,94.52,327.6,19.7,423.94-79.46,102.32-297.27,136.71-507.91,170-60.53,9.56-117.69,18.58-170.44,29.05-16.35,3.24-32.33,6.49-47.91,9.65C1254.77,1934.68,1178.05,1950.25,1112.91,1950.25ZM896,1421.1c-13.25,20.38-29.88,225.76,41.29,391.22,62.88,146.19,189.34,120.52,398.85,78q23.43-4.75,48-9.67c53.27-10.58,110.7-19.64,171.49-29.24,195.83-30.92,417.79-66,490.63-159.75,69.49-89.49,6.36-308.48-24-398.48-21.75-64.46-84.16-107.77-151.77-105.4h0c-78.07,2.79-177.64,30.69-283.07,60.23-58.21,16.3-118.39,33.17-178.2,46.73-42.59,9.66-85.12,19.19-126.48,28.46C1110.68,1361.77,915.76,1405.45,896,1421.1Z" transform="translate(-428.48 -478.77)"/><path class="cls-6" d="M1566.75,1651.71c53.2-45.18,113.47-97.25,166.73-142.32l28.61-23.63c10.07-7.27,17.23-17.88,33.11-18.47a10,10,0,0,1,10.43,9.65c-1.18,16.38-14.26,23.31-23.11,32.39q-41.08,37.74-83.84,73.57c-33.58,27.7-66.28,56.65-101.55,82.3a141.05,141.05,0,0,1-18.3,11.19c-13.64,6.95-26.37-11.21-15.3-21.64l3.22-3Z" transform="translate(-428.48 -478.77)"/><g class="cls-5"><path class="cls-6" d="M768.63,1452.09s842-73.62,1465.17-327.61c0,0,31.22-12,23.37-58.63a84,84,0,0,1,10.8,18.2c33.19,75.39-12.6,92.87-12.6,92.87-623.21,254-1465.17,327.62-1465.17,327.62-12.75-18.76-19.57-36.82-22.25-53.5C768.19,1451.39,768.39,1451.74,768.63,1452.09Z" transform="translate(-428.48 -478.77)"/></g><path class="cls-7" d="M778.57,1460.83s842-73.63,1465.18-327.62c0,0,45.79-17.48,12.6-92.87s-130.95-37.57-130.95-37.57-537.38,173.14-735.85,216S824.19,1306,798.4,1312.9,726.74,1384.55,778.57,1460.83Z" transform="translate(-428.48 -478.77)"/><g class="cls-5"><path class="cls-6" d="M757,1408.38s842-73.62,1465.17-327.62c0,0,31.21-12,23.36-58.62a84,84,0,0,1,10.81,18.2c33.19,75.39-12.6,92.87-12.6,92.87-623.21,254-1465.18,327.62-1465.18,327.62-12.75-18.76-19.56-36.82-22.24-53.5C756.56,1407.68,756.77,1408,757,1408.38Z" transform="translate(-428.48 -478.77)"/></g><path class="cls-6" d="M778.57,1474.47a13.63,13.63,0,0,1-11.28-6c-35.28-51.92-27-96.06-18.88-117.75,9.58-25.68,28.26-46.19,46.49-51,8.58-2.28,42.55-7.08,112.44-16.86,128.72-18,344.15-48.14,479.32-77.37,193.43-41.82,717.63-210.26,734.19-215.59,38.17-14.62,117.67-23.9,148,44.94,14.36,32.6,17.06,60.07,8.05,81.65s-26.32,28.72-28.27,29.46C1630.92,1397.7,788.2,1473.68,779.76,1474.42,779.36,1474.45,779,1474.47,778.57,1474.47Zm1399.88-467.84c-24.67,0-46.37,8.19-48.13,8.87l-.74.26c-5.38,1.73-540.29,173.83-737.15,216.4-136.16,29.44-352.22,59.66-481.31,77.72-56.9,8-101.85,14.25-109.21,16.2-6.8,1.81-20.38,13.93-27.94,34.21-5.91,15.85-11.82,47.45,11.59,86.19,88.55-8.49,871.51-88.9,1453-325.9.41-.18,8.89-3.91,13.36-15.23,5.6-14.18,2.8-34.77-8.1-59.51C2230.13,1014.64,2202.84,1006.63,2178.45,1006.63Z" transform="translate(-428.48 -478.77)"/><path class="cls-6" d="M1850.82,1677.32a106.46,106.46,0,0,0-4.33-58.33l-45.22-123.51a108.3,108.3,0,0,0-6.45-14.31c-6.13-11.3-173.3,145.26-173.3,145.26l24.19,66.06a106.4,106.4,0,0,0,15.44,28.2c7.59,9.93,53.14-7,99.79-18.91C1804.3,1690.72,1849.17,1685.26,1850.82,1677.32Z" transform="translate(-428.48 -478.77)"/><ellipse class="cls-1" cx="1759.95" cy="1601.2" rx="36.49" ry="41.07" transform="translate(-865.99 210.05) rotate(-19.75)"/><g class="cls-4"><ellipse class="cls-1" cx="1701.41" cy="1667.83" rx="19.89" ry="25.16" transform="translate(-1104.55 1344.07) rotate(-48.16)"/></g><path class="cls-6" d="M1225.41,1716c-22.54,4.55-45.58.81-68.12-.92q-31.74-3.1-63.25-6.84-47.31-5.43-94.17-13.64c-10.31-2.55-21.25-.75-30.3-12.13a10.77,10.77,0,0,1,2.24-15.49c11.83-8.37,21.78-3.62,32.37-3.27,30.49,3.29,63.85,7.23,94,11.43,35.52,5,84.44,10.39,120.51,14.21l5.32.58c14.8,1.73,15.83,22.84,1.38,26.07Z" transform="translate(-428.48 -478.77)"/><path class="cls-6" d="M1060.56,1833.4l-45.22-123.5a107.63,107.63,0,0,1-4.31-15.09c-2.62-12.59,226.12-1,226.12-1l24.18,66.06a106.46,106.46,0,0,1,5.1,54.26c-1.35,8.08-47.35,8.76-93.81,15.35C1120.14,1836.94,1066.27,1849,1060.56,1833.4Z" transform="translate(-428.48 -478.77)"/><ellipse class="cls-1" cx="1189.66" cy="1745.57" rx="29.8" ry="36.71" transform="translate(-900.49 -37.49) rotate(-17.6)"/><g class="cls-4"><ellipse class="cls-1" cx="1120.26" cy="1794.59" rx="20.89" ry="25.73" transform="translate(-1404.67 1032.16) rotate(-50.32)"/></g><path class="cls-6" d="M1025.16,1836.93c38.53-14.32,79.27-20.87,120-24.71,40.76-3.6,81.86-4.56,122.61.82,5,.63,5.29,8.23.22,9.09-40,7.65-79.84,12.37-120.09,17.07-40.33,4.42-80.43,8.19-121.23,6.7-4.88-.13-6.13-7.25-1.51-9Z" transform="translate(-428.48 -478.77)"/><path class="cls-6" d="M1615.2,1729.89c55.28-30.94,117.63-47,180-56,20.9-2.75,42-4.34,63.25-3.67a4.6,4.6,0,0,1,1.12,9c-40,11.75-79.67,21.91-119.76,32.64-40.19,10.55-80.15,20.86-121.56,26.6-4.87.74-7.33-6.12-3-8.58Z" transform="translate(-428.48 -478.77)"/><path class="cls-2" d="M2033.75,3271.25s47.66,110.22,63.55,143,50.64,4,51.63,0,57.59-397.18,49.65-422-142-22.84-142-22.84C2001,3141.18,2033.75,3271.25,2033.75,3271.25Z" transform="translate(-428.48 -478.77)"/><path class="cls-3" d="M2259.87,1807.33l0,0h0Z" transform="translate(-428.48 -478.77)"/><path class="cls-2" d="M698.8,2606.14c-11.66-1.09-141.47-13.11-160.67-8.85-20.1,4.47-43.19,36.49-43.19,36.49C598.45,2732.09,852.4,2884,852.4,2884c37.7-36.51,72-86.44,84-104.67C831.23,2670.25,698.81,2606.15,698.8,2606.14Z" transform="translate(-428.48 -478.77)"/><path class="cls-3" d="M937.3,2780.21l-.86-.87h0Z" transform="translate(-428.48 -478.77)"/><path class="cls-3" d="M2459.42,1928.27c-103.29-28.24-185.92-107.35-199.53-120.92-14.65,163.5-154.19,245.35-154.19,245.35s-144.43,83.62-425.71,135.86-434.62,47.56-434.62,47.56L1216.56,2318c-134,22.84-178.73,126.6-178.73,126.6-256.92-105-339,161.51-339,161.51h0l.93.09s131.5,64,236.71,173.11c2.95-4.45,4.58-7,4.58-7,81.92-87.88,156.39-11.92,156.39-11.92C1273.16,2983.8,1633.6,3022,1633.6,3022s17.87,81.43,141,167.81,259.16,81.42,259.16,81.42-32.77-130.07,22.84-301.85c0,0-41.7-63.55-27.8-82.42,127.09-175.75,158.87-485.54,158.87-485.54,382.78-163.84,448.77-488.93,448.77-488.93C2576.54,1944.42,2515,1943.64,2459.42,1928.27Z" transform="translate(-428.48 -478.77)"/><path class="cls-3" d="M699.73,2606.23l-.93-.09s132.43,64.11,237.64,173.2h0C831.23,2670.25,699.73,2606.23,699.73,2606.23Z" transform="translate(-428.48 -478.77)"/><path class="cls-2" d="M2778.21,1708.11c-11.92-13.4-128.83,12.66-128.83,12.66s-6-4.46-4.47-14.89,73.72-67,89.36-96.81-5.21-68.51-41-70.75-126.6,98.3-126.6,98.3-6.7-.74-12.66-12.66,36.49-118.41,27.56-160.11-52.88-51.38-81.92-35-64.05,177.24-64.05,177.24-18.54-3.36-24.53-15.68,6.66-143.69-46.21-173.48-89.37,46.18-78.94,151.69,7.44,129.07,7.44,129.07c-68.51-49.9-142.23-68.51-153.4-17.13s119.44,126.53,119.87,126.77c-1.28-1.28-2-2-2-2s88.46,91.66,201.52,122.93c55.17,15.08,116.24,15.63,175.81-16.11,28.29-35,34.25-87.13,34.25-87.13s75.22-28.3,104.26-48.4S2790.12,1721.52,2778.21,1708.11Z" transform="translate(-428.48 -478.77)"/><path class="cls-3" d="M2257.9,1805.34s.69.71,2,2l0,0h0c13.61,13.57,96.24,92.68,199.53,120.92C2346.36,1897,2257.9,1805.34,2257.9,1805.34Z" transform="translate(-428.48 -478.77)"/><g class="cls-4"><path class="cls-1" d="M524.73,2613.68l199.21,12.66,1.71-6.33-8.79-6.33s58.09-127.35,148.57-156,162,6.7,162,6.7,5.36-8.75,6.42-11.19,0-10.15,0-10.15-90.41-43.57-185.44-8.57S705.8,2589.74,705.8,2589.74s-9.23,16.19-11.24,16-133.95-9.16-149.78-9.18S524.73,2613.68,524.73,2613.68Z" transform="translate(-428.48 -478.77)"/></g><g class="cls-4"><path class="cls-1" d="M2195.1,3006.14s-42.2-8.44-77.94-10.93a532.29,532.29,0,0,0-68.37,0s-55.25-44.68-51.78-102.27l19.86-2.44,7.29,5.92s11.5,36.28,20,51.9,7,21,17.66,21,92.59-2.44,115.43,9S2195.1,3006.14,2195.1,3006.14Z" transform="translate(-428.48 -478.77)"/></g><g class="cls-4"><path class="cls-1" d="M1145,2362.83s56.63-18.15,74.94-21.72c19.74-3.84,21.13-16.75,25.46-29.41s19.52-70,19.52-70l-4-7.44-15.5,1.87-27.79,79s-33.37,8.19-54.6,17.68-27,20.42-27,20.42Z" transform="translate(-428.48 -478.77)"/></g><path class="cls-2" d="M1493.57,2234.15l55.15,59s7,9.12,13.49,6.42,55.18-24,126.77-55.45S1839.57,2166,1839.57,2166l2.54-11s-132.93,34.63-216,46.91S1493.57,2219,1493.57,2219l-5.75,8.47Z" transform="translate(-428.48 -478.77)"/><path class="cls-7" d="M1132.23,2347.36s86.13,144.93,348.86,284.93,617.52,126.11,617.52,126.11-23.16,72-69.82,128.58c0,0-422,41.71-699-162.34s-284.7-293.55-284.7-293.55S1078.7,2369.66,1132.23,2347.36Z" transform="translate(-428.48 -478.77)"/><g class="cls-5"><path class="cls-6" d="M2186.26,2982.31s-43.29,347.53-63.14,350.51-98.66-143-98.66-143-108.87,10.91-214.12-49.66-109.22-141-133.06-157.87-288.94-63.55-430.93-152.92-229.08-262-229.08-262,4.9,182.58,210.33,310.67,406,144,406,144,26,97.87,155.49,177.52,247.14,73.7,247.14,73.7,55.59,139.1,69.75,152.21,42.95-11.21,42.95-11.21l45-342.64,4.64-79.36Z" transform="translate(-428.48 -478.77)"/></g><g class="cls-5"><path class="cls-6" d="M512.4,2613.82s252.37,172.88,284.15,181.81,87.37-65.53,87.37-65.53l-46.22-37.36s84.54-122.5,179.57-118.53c0,0,6.23,57.11,27.79,99.69,0,0,12.51,24,11.85,23.85s5.61,11.52,5.61,11.52-82.12-25.34-145,51.11l8.6,8.45s7.49,3.48,6,11.38S852.4,2884,852.4,2884L644.63,2751.45,494.94,2633.78Z" transform="translate(-428.48 -478.77)"/></g><g class="cls-5"><path class="cls-6" d="M1062.52,2405.16s70.63,139.26,337.24,303.09,491.54,39.93,491.54,39.93l170.5,10.56s-40.21,86.86-67,131.76c0,0-308.19,10.24-527.57-87.49s-372.77-287.89-372.77-287.89-38.74-56.2-39.73-58.17-11.91-30.19-11.91-30.19Z" transform="translate(-428.48 -478.77)"/></g><g class="cls-5"><path class="cls-6" d="M1139.44,2358.19s269.91,232.4,542.14,271.13,417.34-259.27,417-271.13,250.89-134,347.95-251.66-52.14-163.79-113.07-239c0,0-46-40.23-50.51-42.47s-33.51-23.83-35.75-25.32-53.72-38.41-57.37-41.5-30-28.87-30-28.87-10.2-16-11.69-18.25S2143,1688,2143,1688s57.35,56.59,93.84,67,164.58,133.3,271.07,136.28,120.64-79.3,127.35-84,126.6-33,151.17-64.23c0,0,7.84,8.34,1.18,17.87s-23.89,26.81-48.84,37.61-69.26,26.43-69.26,26.43,1,15.3-13.4,46.77-22.29,46.61-22.29,46.61-46.29,170.29-168.39,292.4-204.76,154.88-277.74,190.63c0,0-21.92,206.52-77.61,328.17,0,0-7.74,20.51-8.53,22.09s-10.18,9.18-10.18,9.18-227.52,6.4-443.91-61.34-372.3-198.13-411.63-236.06S1139.44,2358.19,1139.44,2358.19Z" transform="translate(-428.48 -478.77)"/></g><g class="cls-5"><path class="cls-6" d="M1607.92,2270.37c189.51-20.85,460.54-189.19,460.54-189.19l-6.66-6.66s-187.33,86.76-440.32,124.42-376.11,37.18-376.11,37.18S1418.42,2291.22,1607.92,2270.37Z" transform="translate(-428.48 -478.77)"/></g><path class="cls-6" d="M2119,3443.36c-14.5,0-26.73-8.27-34-23.17-13.46-27.78-48.76-108.86-60.21-135.26-33.65-.51-149.9-8-258-83.93-103-72.25-135-141.61-143.63-166.5-58.49-7.61-371.92-57.32-535.89-265-3.51-3.32-28.76-26-62.48-26h-1.21c-24.68.4-48.79,12.9-71.7,37.15-5.94,9.3-45.22,69.79-90,113.1a13.65,13.65,0,0,1-16.5,1.91c-10.42-6.23-256.43-153.82-359.84-252a13.64,13.64,0,0,1-1.68-17.87c4.37-6,27.34-36.51,51.3-41.83,18.89-4.22,117.37,4.22,155.18,7.68,11.7-31.28,52.3-122.55,140.19-164.32,58.65-27.87,126.15-27.82,200.79.1,16.19-28.56,66.6-100,175-121.4l26.19-74.44a13.75,13.75,0,0,1,13.28-9.11c1.52.06,155.49,4,431.72-47.34,271.24-50.38,415.71-131.05,421.21-134.17,4.77-3,127.19-81.58,144.71-228.29-33.82-20.14-128.34-81.76-116.75-135,4-18.24,14.61-31.13,30.81-37.29,28.87-11,73.58.82,122.46,31.68-.58-18.62-2.43-50.25-7.56-102.09-7.72-78.12,9.17-142.88,43-165,16.76-10.94,36.71-10.91,56.19.06,46.49,26.2,49.22,108.27,50.85,157.3.3,9.06.64,19.25,1.26,22.68a9.67,9.67,0,0,0,2.16,2.3c11.62-50.26,38.72-154.34,67.11-170.36,19.71-11.12,44.57-12.35,64.88-3.2,19.25,8.66,32.42,25.43,37.09,47.22,6,28.15-7.24,77.16-17.9,116.55-3.62,13.38-7.94,29.36-9.42,38,30.17-32,92.19-93,126.53-90.8a62.66,62.66,0,0,1,50.83,32c10.42,18.52,10.92,40.45,1.36,58.67-9.87,18.8-36.64,44.09-60.27,66.4-7.77,7.35-16.81,15.88-22.67,22,109-22.77,120.93-9.3,125-4.73,9.85,11.09,18.72,31.25,16.31,51.3-1.82,15.28-9.85,28.24-23.21,37.49-24.85,17.2-79.65,39.27-99.75,47.09-2.92,16.54-11.66,54.16-33.87,83.2-3.78,16.6-23.16,91.95-81.36,184.49-58.74,93.41-169.79,222.16-366.19,308.19-6,50.9-42.62,321.16-160.5,484.17-3,6.7,8.43,35.07,24.22,60.74,12,0,36.36.28,61.57,2.19,68.71,5.19,81.91,17.56,85.94,30.17,9.61,30-48.59,426.19-49.4,429.46-2.63,10.54-23.09,23.94-39.1,25.61A40.46,40.46,0,0,1,2119,3443.36Zm-85.23-185.75a13.63,13.63,0,0,1,12.52,8.23c.48,1.09,47.73,110.32,63.3,142.44,3.46,7.14,6.86,7.57,8.14,7.73,6.15.8,14.64-4.44,18.37-7.65,6.4-40.54,53.4-375,49.55-411.18-10.39-8.45-69.4-15-128.84-14.14a14,14,0,0,1-11.61-6.15c-14.1-21.5-45-74.07-27.38-98,123.38-170.6,156-475.78,156.29-478.85a13.64,13.64,0,0,1,8.2-11.15c193.94-83,303.07-208.81,360.47-299.72,62.32-98.71,78.93-178.89,79.09-179.68a13.65,13.65,0,0,1,2.77-5.91c25.51-31.54,31.25-79.61,31.31-80.09a13.63,13.63,0,0,1,8.75-11.22c.73-.28,74-27.94,101.29-46.86,7-4.81,10.77-10.8,11.67-18.31,1.22-10.19-3.3-21.87-8.49-28.54-13-3.41-69.88,5.07-116.81,15.53a13.63,13.63,0,0,1-11.15-2.4c-5.73-4.3-11.73-14.14-9.79-27.74,1.26-8.85,9.64-17.13,35.95-42,19.87-18.77,47.09-44.48,54.84-59.25,5.25-10,4.88-22.19-1-32.61a35.05,35.05,0,0,0-28.75-18.19h-.63c-18.64,0-73.88,48.36-115,93.85a13.74,13.74,0,0,1-11.62,4.41c-3.3-.36-14.75-2.9-23.36-20.12-4.51-9-1.46-21.5,8.86-59.64,9.37-34.62,22.2-82,17.56-103.72-3.6-16.77-13.74-24.51-21.61-28.06-12.35-5.56-28.16-4.74-40.27,2.09-14.19,8-41.14,93.5-57.41,168.26a13.61,13.61,0,0,1-15.76,10.52c-2.6-.47-25.61-5.11-34.38-23.13-2.62-5.38-3-12.71-3.66-33.12-1.25-37.58-3.85-115.77-37-134.44-10.61-6-19.73-6.3-27.88-1-20.16,13.16-38.4,62.4-30.79,139.44,10.29,104,7.73,129.55,7.41,132.12a13.64,13.64,0,0,1-21.57,9.31c-47.37-34.5-94.86-51.71-118.19-42.85-7.46,2.85-11.86,8.44-13.85,17.6-6.23,28.64,61.34,81.57,111.32,110a13.64,13.64,0,0,1,6.84,13.07c-15.09,168.43-152.84,254.23-158.69,257.8l-.27.16c-6,3.46-149.69,85.39-430.05,137.46-239.56,44.5-388.77,47.86-427.48,47.88l-25.57,72.7a13.63,13.63,0,0,1-10.58,8.93c-124.65,21.23-166.77,114.61-168.5,118.58a13.67,13.67,0,0,1-17.68,7.2c-71.82-29.35-135.82-31.16-190.24-5.36-93.8,44.46-129.3,157.18-129.65,158.32a13.58,13.58,0,0,1-14.33,9.59c-68.5-6.49-146.09-11.71-157.36-9.2-7.74,1.72-18.93,11.92-27.57,21.79,94.56,85.52,292.14,207.26,336.8,234.41,42.13-43.26,78.77-101.16,79.15-101.78a13.42,13.42,0,0,1,1.57-2c28.52-30.6,59.62-46.32,92.43-46.73h1.31c47.91,0,81,33.15,82.37,34.58.34.35.67.72,1,1.11,170.07,216.19,523.36,256.13,526.91,256.51a13.64,13.64,0,0,1,11.88,10.64c.16.7,19.07,77.87,135.51,159.56,118,82.79,249.51,79,250.82,79Zm152.57-259.79Zm-80.63-945.11h0Zm664.5-333.82Zm-199.71-95.28Z" transform="translate(-428.48 -478.77)"/><path class="cls-6" d="M1936.26,2904.19a1453.19,1453.19,0,0,1-154.56-8.3c-129.53-13.94-314.48-53.06-460-160.26-274.09-201.89-289.36-293.58-290.19-303.37a13.64,13.64,0,0,1,1.62-7.72c1.47-2.68,36.6-65.91,93.9-89.77a13.64,13.64,0,0,1,17,5.61h0c.85,1.42,88,143.67,343.55,279.87,256.32,136.6,607.06,124.64,610.57,124.52a13.82,13.82,0,0,1,11.4,5.38,13.66,13.66,0,0,1,2.13,12.42c-1,3-24.51,75.15-72.29,133.09a13.61,13.61,0,0,1-9.18,4.9C2027.63,2900.81,1992.3,2904.19,1936.26,2904.19Zm-876.72-470.81c5.56,18,43.36,107.22,278.31,280.27,252.42,185.93,633.31,164.06,684,160.22,28.57-36.12,47.67-78.12,57-101.52-79.58.11-377.27-7.08-604.21-128-225.77-120.32-322.23-243.26-347.32-279.53C1092,2384,1067.23,2420.87,1059.54,2433.38Z" transform="translate(-428.48 -478.77)"/><path class="cls-6" d="M1097.42,2774a13.63,13.63,0,0,1-10.86-5.37c-139.84-183.23-63.95-324.72-60.65-330.66a13.64,13.64,0,0,1,23.86,13.23c-3,5.38-70,132.54,58.48,300.88a13.65,13.65,0,0,1-10.83,21.92Z" transform="translate(-428.48 -478.77)"/><path class="cls-6" d="M936.45,2790.71a11.34,11.34,0,0,1-8.2-3.49c-102.63-106.79-232.17-170.12-233.46-170.75a11.37,11.37,0,1,1,9.89-20.47c5.44,2.62,134.41,65.63,240,175.47a11.36,11.36,0,0,1-8.19,19.24Z" transform="translate(-428.48 -478.77)"/><path class="cls-6" d="M2033.74,3282.62a11.35,11.35,0,0,1-11-8.59c-1.37-5.44-32.92-135.23,23-308.13a11.37,11.37,0,1,1,21.63,7c-53.83,166.32-22.94,294.31-22.62,295.58a11.38,11.38,0,0,1-8.26,13.79A11.15,11.15,0,0,1,2033.74,3282.62Z" transform="translate(-428.48 -478.77)"/><path class="cls-6" d="M1281.55,2513.77a11.37,11.37,0,0,1-3.7-22.12c6.27-2.16,628.63-218.19,794.76-433.42a11.37,11.37,0,0,1,18,13.9c-170.28,220.6-779.51,432.12-805.36,441A11.4,11.4,0,0,1,1281.55,2513.77Z" transform="translate(-428.48 -478.77)"/><path class="cls-6" d="M1203.9,2444.48a11.37,11.37,0,0,1-3.55-22.16c4.75-1.57,477.72-158.08,670.91-290.05a11.37,11.37,0,0,1,12.83,18.78c-195.85,133.78-671.85,291.28-676.63,292.86A11.32,11.32,0,0,1,1203.9,2444.48Z" transform="translate(-428.48 -478.77)"/><path class="cls-6" d="M1481.07,2343.65a11.31,11.31,0,0,1-6-1.74c-39.32-24.67-94.19-102.61-96.5-105.91a11.37,11.37,0,1,1,18.62-13.05c.54.77,54.53,77.47,90,99.7a11.37,11.37,0,0,1-6.06,21Z" transform="translate(-428.48 -478.77)"/><path class="cls-6" d="M1558.19,2312.57a11.28,11.28,0,0,1-6.84-2.29c-24-18.14-76.74-80.72-79-83.38a11.37,11.37,0,0,1,17.41-14.63c.53.63,53.28,63.27,75.26,79.86a11.37,11.37,0,0,1-6.86,20.44Z" transform="translate(-428.48 -478.77)"/><path class="cls-6" d="M2530.49,1951.74c-50.21,0-103.65-14.93-158.57-44.69-72.65-39.37-121.8-90.12-123.86-92.26a13.65,13.65,0,0,1,19.68-18.91c1.88,2,190.69,195,361.07,104.24a13.64,13.64,0,1,1,12.83,24.08A233.58,233.58,0,0,1,2530.49,1951.74Z" transform="translate(-428.48 -478.77)"/><path class="cls-6" d="M2294.29,1684.08c35.64,2.86,69.6,19.94,94.19,45.6a58,58,0,0,1,16.75,30.64,1.26,1.26,0,0,1-1,1.47c-20.9-9.42-34.07-25-54.65-33.44a203.78,203.78,0,0,0-58-17.17c-17.24-2.67-14.67-27.91,2.73-27.1Z" transform="translate(-428.48 -478.77)"/><path class="cls-7" d="M1519.68,2726.56s30.51,80,40.44,183.26-7.82,191.64-7.82,191.64-33.89-14.89-85.52-26.81-96.87,8.94-96.87,8.94,29.78-93.34,33-158.87-10.6-125.44-10.6-125.44" transform="translate(-428.48 -478.77)"/><path class="cls-7" d="M1254.32,2694.46s-33.79,92.24-19.89,224.3c0,0-56-28.73-95-28.26s-61.89.3-61.89.3-13-296.83,209.46-331.53" transform="translate(-428.48 -478.77)"/><g class="cls-5"><path class="cls-6" d="M1078.28,2854.12s89.13,3.08,98.07-4.37,15.88-75.06,30.78-120.69,33.76-73.43,33.76-73.43,6.95,18.86,7.44,22.84,2.61,26.55,2.61,26.55-16.13,40-17.92,101.54,2.9,109.72,1.41,112.2-40.85-24.64-69.82-28-87.06,0-87.06,0Z" transform="translate(-428.48 -478.77)"/></g><g class="cls-5"><path class="cls-6" d="M1524.37,2771.8s-35.26,34.76-57.85,49.65-34.74,194-34,198.09,82.29,8.19,124,41.71l-6.67,39.18s-45.6-21.68-83.33-27.64-92.45,5.21-92.45,5.21-6.71,1.49-6,.37,29-90.6,32.76-159.61-4.84-111.83-4.84-111.83l9.69-8.57s30.29-2.54,56.56-20.81,50.3-40.62,50.3-40.62,5.52,1.89,7.82,0S1537.28,2763.11,1524.37,2771.8Z" transform="translate(-428.48 -478.77)"/></g><path class="cls-6" d="M1552.29,3115.1a13.61,13.61,0,0,1-5.48-1.15c-.33-.14-33.49-14.56-83.1-26-46.19-10.65-87.7,7.86-88.12,8a13.66,13.66,0,0,1-18.68-16.55c.3-.92,29.28-92.44,32.42-155.4,3.12-62.74-10.14-121.1-10.27-121.69a13.64,13.64,0,1,1,26.58-6.14c.59,2.52,14.25,62.52,10.94,129.19-2.3,46.13-17,104.46-26.21,137.2,19.64-4.77,48.4-8.41,79.48-1.24a599.1,599.1,0,0,1,71.77,21.22c4.43-29.78,12.08-97,4.92-171.46-9.62-100-39.31-178.92-39.61-179.7a13.65,13.65,0,0,1,25.5-9.73c1.27,3.34,31.28,82.92,41.27,186.83,10,104.07-7.29,191.94-8,195.63a13.65,13.65,0,0,1-13.38,10.95Z" transform="translate(-428.48 -478.77)"/><path class="cls-6" d="M1234.43,2932.4a13.67,13.67,0,0,1-6.22-1.5c-.53-.27-52.65-26.77-87.81-26.77h-.8c-38.74.46-61.92.3-62.15.3a13.63,13.63,0,0,1-13.53-13c-.14-3.13-3.07-77.52,21.92-157.42,33.79-108.07,102.63-173.14,199.07-188.19a13.64,13.64,0,0,1,4.21,27c-181.83,28.36-197.09,248.21-198,304.43,10.57,0,27-.07,48.14-.33,26.16-.18,58.58,11,79.56,19.78-8.16-120.91,21.34-203.21,22.67-206.86a13.64,13.64,0,0,1,25.63,9.37h0c-.33.89-32.5,91.19-19.13,218.19a13.65,13.65,0,0,1-13.57,15.07Z" transform="translate(-428.48 -478.77)"/><path class="cls-7" d="M1321.81,2720.17s-63,10.43-75.46-45.68,33.26-131.06,87.87-141.49,93.84,32.27,96.82,71c0,0,61.48-13.41,95.32,25.81s6.45,113.69-80.93,156.89S1313.37,2750.45,1321.81,2720.17Z" transform="translate(-428.48 -478.77)"/><g class="cls-5"><path class="cls-6" d="M1254.38,2607.64s-3.07,48,34.66,59.9,103.31-38.22,103.31-38.22l-39.26,40s-17.87,38.88,31.28,64.2,147-53.61,150.92-71.49,9.2,15.29-2.6,41.66-54.32,88.39-121.43,94.36-84-40.31-86.88-51.15-2.57-17.35-2.57-17.35l-7-9.43s-39.17,10.14-60.54-25.71S1251.91,2613.23,1254.38,2607.64Z" transform="translate(-428.48 -478.77)"/></g><path class="cls-6" d="M1397,2813a88,88,0,0,1-56.7-20.33c-18.21-15.08-30.6-37.87-32.83-57.91-27.53-.6-64.64-12.82-74.48-57.29-6.94-31.37,1.69-69.51,23.08-102,19.81-30.1,47.35-50.44,75.56-55.83,27.37-5.25,54.3.94,75.8,17.38,17.26,13.2,29.65,31.85,34.78,51.71,22.34-1.93,66-.72,94.44,32.21,15.12,17.52,20.62,41.1,15.49,66.4-8.72,43-46.37,84.77-100.7,111.63C1430.75,2809.17,1412.58,2813,1397,2813Zm-75.27-106.43a13.66,13.66,0,0,1,13.18,17.29c-2.73,9.81,4.62,32.74,22.8,47.8,14.9,12.34,41.14,22.86,81.64,2.83,46.82-23.14,79-57.75,86-92.58,3.46-17.08.21-32-9.41-43.16-28-32.46-81.58-21.5-82.12-21.39a13.66,13.66,0,0,1-16.48-12.29c-1.31-17.1-11.48-34.88-26.54-46.39-10.78-8.23-28.92-17-54.11-12.25-21,4-42.1,20.06-57.88,44-17.42,26.47-24.61,56.79-19.23,81.11,9.27,41.89,54.81,36,60,35.16A13.89,13.89,0,0,1,1321.77,2706.54Z" transform="translate(-428.48 -478.77)"/><path class="cls-6" d="M1321.8,2733.81a13.64,13.64,0,0,1-12.11-19.89c1.7-3.29,42.42-81.05,114.64-121.81a13.64,13.64,0,1,1,13.41,23.76c-65,36.67-103.43,109.83-103.81,110.57A13.65,13.65,0,0,1,1321.8,2733.81Z" transform="translate(-428.48 -478.77)"/><g class="cls-4"><path class="cls-1" d="M1369.67,2557.91c2.59,6.27-16,12.64-35.83,20.83s-33.24,15.09-35.84,8.82,6.65-23.34,26.44-31.53S1367.08,2551.64,1369.67,2557.91Z" transform="translate(-428.48 -478.77)"/></g><g class="cls-4"><path class="cls-1" d="M1475.05,2635.22c2.59,6.27-16,12.64-35.84,20.83s-33.24,15.09-35.83,8.82,6.65-23.34,26.44-31.53S1472.45,2629,1475.05,2635.22Z" transform="translate(-428.48 -478.77)"/></g><path class="cls-7" d="M2272.05,3013.25,2209,3434.79a32.64,32.64,0,0,1-37.1,27.45h0a32.64,32.64,0,0,1-27.44-37.11l63.06-421.53a32.63,32.63,0,0,1,37.1-27.45h0A32.63,32.63,0,0,1,2272.05,3013.25Z" transform="translate(-428.48 -478.77)"/><g class="cls-8"><path class="cls-6" d="M2154.64,3366.41s30.53-.12,32-2.51,59.25-365.16,59.25-365.16l27.76,4.15-65.94,440.74-64.55-9.66Z" transform="translate(-428.48 -478.77)"/></g><path class="cls-6" d="M2183.56,3477.34a38.47,38.47,0,0,1-5.75-.43l-15.9-2.37a38.29,38.29,0,0,1-32.16-43.47l65.45-437.45a38.24,38.24,0,0,1,43.47-32.15l15.9,2.38a38.27,38.27,0,0,1,32.16,43.47h0l-65.45,437.44a38.23,38.23,0,0,1-37.72,32.58Zm49.43-489a11,11,0,0,0-10.81,9.33l-65.44,437.44a11,11,0,0,0,9.21,12.45l15.9,2.38a10.94,10.94,0,0,0,12.45-9.2l65.45-437.45a11,11,0,0,0-9.21-12.45l-15.91-2.38A11.42,11.42,0,0,0,2233,2988.33Zm40.25,17h0Z" transform="translate(-428.48 -478.77)"/><path class="cls-7" d="M459.32,2695.31l350.43,242.63a32.65,32.65,0,0,0,45.41-8.26h0a32.63,32.63,0,0,0-8.26-45.4L496.47,2641.65a32.64,32.64,0,0,0-45.41,8.25h0A32.64,32.64,0,0,0,459.32,2695.31Z" transform="translate(-428.48 -478.77)"/><g class="cls-8"><path class="cls-6" d="M797.11,2851.51s-21,22.17-23.7,21.57-306.73-206.81-306.73-206.81l-16,23.07L817.1,2943l37.15-53.66Z" transform="translate(-428.48 -478.77)"/></g><path class="cls-6" d="M830.28,2960.54a37.92,37.92,0,0,1-21.68-6.81L444.94,2702h0a38.29,38.29,0,0,1-9.66-53.2l9.15-13.22a38.22,38.22,0,0,1,53.2-9.67l363.66,251.78a38.24,38.24,0,0,1,9.67,53.2l-9.16,13.22a37.91,37.91,0,0,1-24.59,15.85A38.64,38.64,0,0,1,830.28,2960.54Zm-369.81-281L824.13,2931.3a10.94,10.94,0,0,0,15.23-2.77l9.16-13.23a10.94,10.94,0,0,0-2.77-15.23L482.09,2648.29a10.94,10.94,0,0,0-15.23,2.77l-9.16,13.22a11,11,0,0,0,2.77,15.24Z" transform="translate(-428.48 -478.77)"/><path class="cls-7" d="M695.34,2779.34s1.48-97.53-102.44-181.49c0,0,8.53-9.08,33.85-1.47,0,0,98.3,60.49,108,211.67Z" transform="translate(-428.48 -478.77)"/><path class="cls-7" d="M2061.55,3344.23s32.73-119.95,117.89-162.25l6.23-47.4S2078,3198,2053.13,3315.77C2053.13,3315.77,2051.62,3335.79,2061.55,3344.23Z" transform="translate(-428.48 -478.77)"/><path class="cls-6" d="M734.73,2817.14a9.14,9.14,0,0,1-5.35-1.74L690,2786.69a9.08,9.08,0,0,1-3.73-7.47h0c0-.93-.16-94.39-99.06-174.3a9.1,9.1,0,0,1-.92-13.3c2.07-2.2,13.87-12.74,43.1-3.95a8.86,8.86,0,0,1,2.15,1c4.17,2.57,102.42,64.72,112.29,218.83a9.09,9.09,0,0,1-9.08,9.67Zm-30.42-42.52,19.5,14.22C708.74,2666.2,632.25,2611,622.9,2604.73a60,60,0,0,0-10.33-2.07C693.86,2675.64,703.26,2754.33,704.31,2774.62Z" transform="translate(-428.48 -478.77)"/><path class="cls-6" d="M2061.55,3353.33a9.09,9.09,0,0,1-5.89-2.17c-13.07-11.12-11.79-33.55-11.6-36.07a9.47,9.47,0,0,1,.17-1.19c25.38-120.37,132.29-184.49,136.83-187.16a9.09,9.09,0,0,1,13.63,9l-6.23,47.41a9.1,9.1,0,0,1-5,7c-80.44,39.94-112.84,155.34-113.16,156.5a9.1,9.1,0,0,1-6.09,6.29A9.19,9.19,0,0,1,2061.55,3353.33ZM2174,3153.61c-29.52,22-90.6,75.95-110.41,157.17,15.59-38.71,49.09-103.42,107.46-134.7Z" transform="translate(-428.48 -478.77)"/><path class="cls-9" d="M3345.43,2173.06s-13.9-64.54-155.9-140S2978,1975.46,2978,1975.46l-42.22,61.71.06,0a18.92,18.92,0,0,0-2.74,4c-15.15,30.64,57.67,97.57,162.66,149.48s202.38,69.14,217.53,38.5a18.84,18.84,0,0,0,1.52-4.66l.05,0Zm-340.57-113.79s56.17,3.36,143,47.16,116.85,91.11,116.85,91.11C3095.64,2156.48,3004.86,2059.27,3004.86,2059.27Z" transform="translate(-428.48 -478.77)"/><g class="cls-4"><path class="cls-1" d="M3237.87,2061.3s-76.63-48.89-150.11-70.59-107.24-17.09-107.24-17.09-33.43,40.69-33.26,43.63-2.48,10.84-2.48,10.84l28.16-2.08,21.23-35.28a198.24,198.24,0,0,1,20.39.88l-15.66,34.52,13.83,4.44,12.35-37.88A377.26,377.26,0,0,1,3129,2021.14C3203.44,2053.41,3237.87,2061.3,3237.87,2061.3Z" transform="translate(-428.48 -478.77)"/></g><g class="cls-5"><path class="cls-6" d="M3206.24,2110.29l49.34-37,21.83,18.52-46.34,34.6,23.26,16.93,45.31-34.33,36.35,45.22-26.81,46.18S3272.48,2146.07,3206.24,2110.29Z" transform="translate(-428.48 -478.77)"/></g><g class="cls-5"><path class="cls-6" d="M2986.48,2063.84s61.34,73.47,151.81,109.72,128.19,36.33,128.19,36.33-29.32,35.09-143.24-21-139.86-93-148.24-109.8S2986.48,2063.84,2986.48,2063.84Z" transform="translate(-428.48 -478.77)"/></g><g class="cls-5"><path class="cls-6" d="M3140.62,2096.6s-106.75-54.61-167.68-55.11-34.15,44.74,21,86.91,125.8,73.54,125.8,73.54-134.44-85.46-144.71-122.83S3068.38,2060.86,3140.62,2096.6Z" transform="translate(-428.48 -478.77)"/></g><g class="cls-5"><path class="cls-6" d="M3194.39,2133.08s75.08,32.53,103.38,81.19-59.66,32.51-117.21,11.54-70.45-28.27-70.45-28.27,130.86,41.53,151.78,19.05S3222.58,2153.16,3194.39,2133.08Z" transform="translate(-428.48 -478.77)"/></g><path class="cls-6" d="M3239.73,2230.91q-13.45,0-31.76-3.73c-31.72-6.47-70.9-20.77-110.32-40.26-73.78-36.48-146-90.27-130.24-122.17,7.26-14.69,29.4-18.37,65.83-10.94,31.72,6.47,70.89,20.77,110.32,40.26,73.78,36.48,146,90.27,130.24,122.17C3269,2226,3257.55,2230.91,3239.73,2230.91Zm-238.24-162.64c-12.19,0-16.93,2.83-17.78,4.54-5.05,10.22,33.43,54,122,97.8,38.06,18.82,75.67,32.58,105.89,38.75,33.76,6.88,44.58,1.48,45.9-1.19,5.05-10.22-33.43-54-122-97.79h0c-38.06-18.83-75.67-32.58-105.89-38.75C3017.49,2069.16,3008.32,2068.27,3001.49,2068.27Z" transform="translate(-428.48 -478.77)"/><path class="cls-6" d="M3273,2253.42a210.89,210.89,0,0,1-36.34-3.6c-41.91-7.42-93.37-25.53-144.9-51-96.11-47.52-187.22-120.33-166.78-161.67,9.41-19,38.74-24.78,84.82-16.63,41.9,7.42,93.36,25.54,144.9,51h0c51.52,25.48,97.16,55.38,128.5,84.17,34.45,31.66,47.69,58.46,38.28,77.5C3314.85,2246.61,3298.32,2253.42,3273,2253.42Zm-299.83-218.36c-19.3,0-29.14,4.58-31.89,10.15-9.77,19.77,45.82,81.56,158.54,137.29,50,24.74,99.75,42.28,140,49.41,42,7.45,61.31,1.38,65.34-6.78s-2.85-27.17-34.28-56c-30.1-27.66-74.24-56.53-124.26-81.26h0c-50-24.73-99.74-42.28-140-49.41A195.31,195.31,0,0,0,2973.18,2035.06Z" transform="translate(-428.48 -478.77)"/><path class="cls-6" d="M3314.9,2233.62a9.1,9.1,0,0,1-7.82-13.73l28.44-47.95c-5.06-13.24-32.16-68.1-150.25-130.86-120.8-64.2-187.21-59.54-201.85-57.37l-40.09,58.59a9.09,9.09,0,1,1-15-10.27l42.21-61.7a9.07,9.07,0,0,1,5.24-3.67c3-.77,74.57-17.88,218,58.36,144.07,76.57,159.91,143.32,160.52,146.12a9.13,9.13,0,0,1-1.07,6.56l-30.52,51.47A9.1,9.1,0,0,1,3314.9,2233.62Z" transform="translate(-428.48 -478.77)"/><path class="cls-6" d="M3264.73,2206.64a9.36,9.36,0,0,1-2.15-.26c-169.77-41.23-260.58-136.85-264.36-140.9a9.1,9.1,0,0,1,13.29-12.42c.89,1,91.17,95.77,255.36,135.64a9.1,9.1,0,0,1-2.14,17.94Z" transform="translate(-428.48 -478.77)"/><polygon class="cls-9" points="2600.69 1524.99 2973.05 1410.31 2883.68 1667.98 2740.22 1610.13 2600.69 1524.99"/><g class="cls-4"><path class="cls-1" d="M3388.8,1900.37l-332.14,120.16-25.57-15.6s360.48-114.87,361-112.94S3388.8,1900.37,3388.8,1900.37Z" transform="translate(-428.48 -478.77)"/></g><path class="cls-9" d="M3001.63,1990.82l-251-110.68,194.13,207s-19.51-33.51-6.66-53.37a257.43,257.43,0,0,1,25.77-33.51Z" transform="translate(-428.48 -478.77)"/><path class="cls-9" d="M2978.15,2115.66l23.48,130.52,189.71-16.93S3077.56,2193.3,2978.15,2115.66Z" transform="translate(-428.48 -478.77)"/><path class="cls-9" d="M3225.28,2244.33l273.06,125.33-181.71-203.55,2.73,50.9s-2.91,24.07-27.14,25.56-70.88-5.17-71-5.2S3225.28,2244.33,3225.28,2244.33Z" transform="translate(-428.48 -478.77)"/><g class="cls-5"><polyline class="cls-6" points="2709.8 1591.58 2952.23 1428.78 2868.17 1661.72 2737.72 1612.23 2712.14 1593"/></g><g class="cls-5"><path class="cls-6" d="M3319.16,2213.19,3468.47,2356l-222.31-102-16.07-7.38s-3.14-2.49,0-4,10.12-2.83,10.12-2.83,36.65,8.32,58.28,1.85S3319.16,2213.19,3319.16,2213.19Z" transform="translate(-428.48 -478.77)"/></g><g class="cls-5"><path class="cls-6" d="M2993.92,2128.4c.5,2,23.66,102.64,23.66,102.64l136.59-15.59s-68.27-29.27-100.86-49.34S2993.92,2128.4,2993.92,2128.4Z" transform="translate(-428.48 -478.77)"/></g><g class="cls-5"><path class="cls-6" d="M2961.16,2001.28l-174-88.62,152.62,169.13s-5.56-27.1-5.72-36.06,18-33,18.71-34S2961.16,2001.28,2961.16,2001.28Z" transform="translate(-428.48 -478.77)"/></g><path class="cls-6" d="M3312.16,2155.84a9.1,9.1,0,0,1-3.4-.66l-143.46-57.85a9.26,9.26,0,0,1-1.34-.66l-139.52-85.15a9.09,9.09,0,0,1,2.06-16.45l372.35-114.68a9.09,9.09,0,0,1,11.27,11.67l-89.36,257.66a9.11,9.11,0,0,1-8.6,6.12Zm-139.36-75.09,133.9,54,80.36-231.69-335.92,103.46Z" transform="translate(-428.48 -478.77)"/><path class="cls-6" d="M2944.77,2096.26a9.1,9.1,0,0,1-6.63-2.87l-194.12-207a9.09,9.09,0,0,1,10.3-14.54l251,110.68a9.09,9.09,0,0,1-1.46,17.14l-35.07,8.8a259.89,259.89,0,0,0-23,30.3c-8,12.37,2.25,35.86,6.88,43.86a9.11,9.11,0,0,1-7.87,13.66Zm-157-189.79,136.84,145.93c-.29-8.1,1.18-16.33,5.85-23.54a264.66,264.66,0,0,1,26.79-34.82,9.08,9.08,0,0,1,4.4-2.57l12-3Z" transform="translate(-428.48 -478.77)"/><path class="cls-6" d="M3001.62,2255.27a9.1,9.1,0,0,1-8.94-7.48l-23.48-130.52a9.1,9.1,0,0,1,14.55-8.78c97,75.76,209.21,111.74,210.33,112.09a9.09,9.09,0,0,1-1.93,17.73l-189.71,16.92A7.5,7.5,0,0,1,3001.62,2255.27Zm-10.42-118.45,17.91,99.56,141.22-12.6C3112.15,2208.3,3050.83,2179.83,2991.2,2136.82Z" transform="translate(-428.48 -478.77)"/><path class="cls-6" d="M3498.34,2378.76a9.07,9.07,0,0,1-3.79-.83L3221.49,2252.6a9.12,9.12,0,0,1-4-3.62c-5.56-9.37-7.23-12.2-3.45-17.14a9.11,9.11,0,0,1,8.66-3.45c1.61.23,46.25,6.52,69,5.1,14.79-.91,18-13.8,18.57-16.92l-2.68-50a9.1,9.1,0,0,1,15.87-6.55l181.71,203.56a9.09,9.09,0,0,1-6.79,15.15Zm-237-127.9,201.23,92.37L3327.1,2191.49l1.35,25a9.28,9.28,0,0,1-.06,1.58c-1.32,10.92-10.46,32-35.62,33.54C3284.08,2252.18,3272.61,2251.71,3261.32,2250.86Z" transform="translate(-428.48 -478.77)"/><path class="cls-6" d="M3173.91,2097.82a6.82,6.82,0,0,1-4.53-11.92L3397,1884a6.82,6.82,0,1,1,9.06,10.2L3178.43,2096.1A6.75,6.75,0,0,1,3173.91,2097.82Z" transform="translate(-428.48 -478.77)"/><path class="cls-6" d="M3001.63,2253a6.82,6.82,0,0,1-4.69-11.77l64.77-61.45a6.82,6.82,0,1,1,9.39,9.89l-64.77,61.45A6.78,6.78,0,0,1,3001.63,2253Z" transform="translate(-428.48 -478.77)"/><path class="cls-6" d="M3495.41,2373.21a6.73,6.73,0,0,1-3.41-.92l-207.83-120.21a6.82,6.82,0,0,1,6.83-11.81l207.83,120.21a6.82,6.82,0,0,1-3.42,12.73Z" transform="translate(-428.48 -478.77)"/><path class="cls-6" d="M2933.14,2048a6.8,6.8,0,0,1-4.5-1.7c-18.26-16-178.52-156.76-183-161.49a6.82,6.82,0,0,1,9.91-9.37c5,5.06,133.1,117.63,182,160.61a6.82,6.82,0,0,1-4.5,12Z" transform="translate(-428.48 -478.77)"/><path class="cls-6" d="M2977.26,1935.11c-46.51-13.63-90.76-33.33-134.52-53.9-14.52-7-29-14.15-43.08-22.06a2.29,2.29,0,0,1,1.78-4.19c15.48,4.75,30.64,10.24,45.72,15.92,45.1,17.44,89.91,35.82,131.89,60,2.25,1.26.71,5-1.79,4.19Z" transform="translate(-428.48 -478.77)"/><path class="cls-6" d="M2951.27,2121.49c8.77,25.72,10.42,53,10.5,80l-3.74-4.24a161.4,161.4,0,0,1,15.41,6.13,2.34,2.34,0,0,1-1,4.44,164.81,164.81,0,0,1-16.55-1.14c-2.27-.22-3.51-2.18-3.74-4.24-4.09-19.79-6.73-39.86-6.79-60.09a132.78,132.78,0,0,1,1.39-20.39,2.37,2.37,0,0,1,4.53-.45Z" transform="translate(-428.48 -478.77)"/><path class="cls-6" d="M3362.82,2134.67c7.82-36.77,22.55-71,37.91-105.09,5.24-11.22,10.68-22.36,16.88-33.2a2.29,2.29,0,0,1,4.22,1.69c-3,12.12-6.74,23.94-10.68,35.68-10,29.27-21.16,58.18-35.11,85.81-2.91,5.64-6,11.62-9.12,16.66a2.24,2.24,0,0,1-4.1-1.55Z" transform="translate(-428.48 -478.77)"/><path class="cls-6" d="M3251.55,2278.36c31.49,12.74,60,31.2,87.77,50.43,9.19,6.52,18.26,13.22,26.92,20.6a2.3,2.3,0,0,1-2.4,3.86c-10.46-4.45-20.5-9.6-30.43-14.91-29.61-16.33-58.82-33.59-84.26-56.11-1.87-1.62.12-4.84,2.4-3.87Z" transform="translate(-428.48 -478.77)"/></svg>