<svg id="Layer_1" data-name="Layer 1" xmlns="http://www.w3.org/2000/svg" viewBox="0 0 2616.08 2764.14"><defs><style>.cls-1{fill:#ff2434;}.cls-2{fill:#3e4049;}.cls-3{fill:#f2c5a7;}.cls-4{opacity:0.4;}.cls-5{fill:#fff;}.cls-6{opacity:0.25;}.cls-7{fill:#0f0f14;}.cls-8{fill:#848499;}.cls-9{opacity:0.3;}.cls-10{fill:#9b9ba8;}</style></defs><title>ninja1</title><path class="cls-1" d="M1544.19,3249.59s-38.72,91.19-141.53,79.39-150-145.75-183.68-255.28-21.91-207.26-21.91-207.26l59-32.28s4.21,124.12,57.29,268.19S1468.36,3308.38,1544.19,3249.59Z" transform="translate(-713.69 -575.15)"/><path class="cls-2" d="M2505.06,1977.87c-108.81,34.82,88.81,306.11,88.81,306.11s256.22-98.29,404.5-258.93c-60.66-116.83-157.26-225.24-157.26-225.24S2613.87,1943,2505.06,1977.87Z" transform="translate(-713.69 -575.15)"/><path class="cls-3" d="M3133.18,1769s-6.74-34.85-37.07-47.21c0,0-18-33.7-48.31-37.07s-91,41.77-91,41.77-37.63-17.06-62.35-13.69-53.35,87.06-53.35,87.06,96.6,108.41,157.26,225.24c0,0,119.08-62.91,134.81-107.85s0-66.27,0-66.27S3163.51,1800.43,3133.18,1769Z" transform="translate(-713.69 -575.15)"/><g class="cls-4"><path class="cls-5" d="M2980.4,1780s-31.45-26.82-55-36.93-48.31-8.51-48.31-8.51,1-21.46,21.85-22.2,63.29,16.05,77.16,27.66,24,25.16,22.31,27,6.36,0,0,6.42S2980.4,1780,2980.4,1780Z" transform="translate(-713.69 -575.15)"/></g><g class="cls-4"><path class="cls-5" d="M2859.25,1821.11s-59.71,38.24-128.8,77-139.29,47.18-139.29,47.18L2831,1807.68h17Z" transform="translate(-713.69 -575.15)"/></g><g class="cls-6"><path class="cls-7" d="M3144.13,1788s3.79,16-33.28,35.38-58.64,18.12-58.64,18.12,6.57,13.22,13.23,20.51,26.88,8.56,26.88,8.56l37.49-15.82,7.16,9.08s-2.95,19.37-22.33,27.8-43.39,8.42-43.39,8.42-2.52,2.53,5.48,14.33,21.75,13.46,25.48,12.76,20.86-9,23-9.39,13.91-8,15.59-15.59-.84-45.11-1.26-47.41-2.48-10.25-2.08-12.17S3153.4,1809.08,3144.13,1788Z" transform="translate(-713.69 -575.15)"/></g><g class="cls-6"><path class="cls-7" d="M2950.74,1839.26s10.14,30.06,23.62,61.66-15.16,63.61-15.16,63.61l-19-34.13s-67.4,102.79-176.93,133.12-189.56-112.13-189.56-112.13-77.52,26.2-93.52,43,3.1,90.21,20.81,133.62S2593.87,2284,2593.87,2284s131.42-48.12,229.26-117.67,162-122.59,170.75-134,73-54.32,89.74-61.28,35.66-37.3,35.66-37.3l-8.44-8.46s-22,12.43-33.94-5.56a43,43,0,0,1-5.64-35.86l1.68-13.3s-8.61-5.48-20.73-23.6S3038,1823.4,3038,1823.4s-13.41-.74-23.34-17.22-9.51-26.17-9.51-26.17h-6.74s-27.81,5.06-44.24,8-16.19,6.42-16.19,6.42Z" transform="translate(-713.69 -575.15)"/></g><path class="cls-7" d="M2593.87,2297a13.08,13.08,0,0,1-10.56-5.37c-15.17-20.83-147.45-205.92-120.24-289.22,5.93-18.16,19.07-31,38-37,98.33-31.47,298.88-155.34,329.2-174.25,10.4-29.36,34.39-87.54,62.42-91.37,21.58-2.92,49.31,6.55,62.4,11.74,18.4-13,64.64-43.1,94.14-39.86,30.08,3.34,49.46,29.53,56,39.83,27.13,13.26,37,40.87,39.85,51.09,26.49,30.82,10.68,72.3,2.86,88.37,4.78,11.31,10.15,34.62-2.42,70.54-16.25,46.44-119.6,103.6-139,114-148.83,160.05-397.37,256.59-407.91,260.63A13,13,0,0,1,2593.87,2297Zm307.63-571.68a40.17,40.17,0,0,0-5.27.33c-9.06,2.16-29.47,39.5-42.77,78.35a13.1,13.1,0,0,1-5.39,6.82c-9.34,5.89-229.89,144.52-339,179.44-11.07,3.55-17.79,10-21.14,20.26-18.64,57,68.56,197.91,110.61,257.48,47.12-19.37,261.61-112.47,390.27-251.85a13,13,0,0,1,3.49-2.69c44.3-23.41,118.37-71.43,128.58-100.61,12.88-36.79,2.09-53.77,1.63-54.48a12.62,12.62,0,0,1-.5-14.21c.24-.39,24.74-42.38,1.79-66.19a13.1,13.1,0,0,1-3.41-6.58c-.05-.22-6-28.14-29.18-37.59a13.16,13.16,0,0,1-6.6-5.95c-.13-.24-15.25-27.69-38.22-30.24-17.27-1.84-58.25,21.8-81.76,39.26a13,13,0,0,1-13.17,1.42C2942.81,1734.44,2918.71,1725.36,2901.5,1725.36Z" transform="translate(-713.69 -575.15)"/><path class="cls-7" d="M2998.39,2038.11a13,13,0,0,1-11.6-7c-59.18-114-154.48-221.49-155.44-222.56a13.06,13.06,0,1,1,19.5-17.37c4,4.47,98.4,111,159.11,227.9a13.06,13.06,0,0,1-11.57,19.08Z" transform="translate(-713.69 -575.15)"/><path class="cls-7" d="M2963.84,1715.43c82.32,52.78,60.68,79.23-26.17,89.68l8.21-13.93c8,27.61,17.31,54.9,15.64,84.23a1.13,1.13,0,0,1-1.2,1c-15.23-23.74-22.8-52.29-34.14-78.12-2.68-6.14,1.65-13.16,8.21-13.93,15.84-3.49,32.32-7.53,47.24-13.54,2.75-1.12,8.4-3.81,9.47-5.32a6.42,6.42,0,0,0-1.33,3.65c-.18.62.17,1.54,0,2-.05,0,0,.15,0,.07a30.88,30.88,0,0,0-3-4c-10.39-11.25-24.49-21-37.27-30-13.74-9.85-.19-30.5,14.32-21.83Z" transform="translate(-713.69 -575.15)"/><path class="cls-7" d="M3094.35,1940.91a36.67,36.67,0,0,1-14.92-2.79c-12.63-5.61-22.26-21.48-23.42-38.61a44.68,44.68,0,0,1,5.06-24.65c-15.28-9-30.13-23.31-30.88-42.35-9.12-3.71-21.53-10.64-28.92-22.6a40.87,40.87,0,0,1-6-24.4l-2.3-1.83a13.06,13.06,0,0,1,16.31-20.4l8.18,6.53a13.07,13.07,0,0,1,4.52,13.37c-1.29,5.14-.81,9.27,1.49,13,5.38,8.7,19.22,13.48,23.65,14.47a13.06,13.06,0,0,1,9.75,16.19c-5,18.33,29.74,31.3,30.09,31.43a13.06,13.06,0,0,1,2.51,23.41c-5.42,3.35-7.92,8.75-7.42,16,.6,8.91,5.43,15.39,8,16.52,5.51,2.44,24.38-2.66,37.57-8.87a13.06,13.06,0,0,1,11.15,23.62C3131.8,1932.3,3111.89,1940.91,3094.35,1940.91Z" transform="translate(-713.69 -575.15)"/><path class="cls-7" d="M3082.63,1883.65a13.07,13.07,0,0,1-5-25.12l51.63-21.58a13.06,13.06,0,1,1,10.07,24.09l-51.63,21.6A13.13,13.13,0,0,1,3082.63,1883.65Z" transform="translate(-713.69 -575.15)"/><path class="cls-7" d="M3044.3,1836.46a13.06,13.06,0,0,1-7.68-23.62c12-8.7,72.67-52.37,92.35-58.29a13.06,13.06,0,0,1,7.53,25c-11.34,3.41-56.25,33.87-84.53,54.41A13,13,0,0,1,3044.3,1836.46Z" transform="translate(-713.69 -575.15)"/><path class="cls-7" d="M3009.33,1793.08a13.07,13.07,0,0,1-8.51-23c2.25-1.93,55.43-47.38,89-62.09a13.06,13.06,0,1,1,10.47,23.92c-30.06,13.17-82,57.55-82.49,58A13,13,0,0,1,3009.33,1793.08Z" transform="translate(-713.69 -575.15)"/><path class="cls-1" d="M2713.08,1227.51s43,90.33,220.52,174.22,291.45,18.24,313.67-4.15,38.35-124.09,13.29-142.14-134.58,25.16-219.39,7.92-243.06-183.42-243.06-183.42" transform="translate(-713.69 -575.15)"/><g class="cls-6"><path class="cls-7" d="M2952.14,1330.69c177.56,83.89,291.46,18.24,313.67-4.16a42.59,42.59,0,0,0,6.61-9.26c-2.88,32.77-13.11,68.17-25.15,80.31-22.22,22.39-136.11,88-313.67,4.15s-220.52-174.22-220.52-174.22l43.35,1.43c12-3.48,20-15.74,20-15.74C2809.43,1246.13,2864.31,1289.19,2952.14,1330.69Z" transform="translate(-713.69 -575.15)"/></g><path class="cls-7" d="M3102.12,1456.08c-48.83,0-107.46-11.06-174.1-42.54-179.71-84.91-224.9-176.56-226.73-180.42a13.06,13.06,0,0,1,23.56-11.27c.57,1.17,44.41,87.8,214.32,168.08,193.7,91.5,297.86-.58,298.83-1.55,11.83-11.93,24.76-63.36,21.76-99.61-1.23-15-4.88-21.32-6.84-22.74-7.13-5.15-40.68.15-67.61,4.39-43.9,6.92-98.53,15.54-146.74,5.73-87.82-17.85-243.34-180.3-249.92-187.21a13.06,13.06,0,0,1,18.92-18c1.55,1.63,156.38,163.4,236.2,179.63,43.59,8.86,95.65.66,137.47-5.94,41.28-6.5,71.1-11.19,87,.22,10,7.2,15.91,21.25,17.6,41.78,3.13,37.92-9.22,100-29.25,120.16C3238.73,1424.73,3184.33,1456.08,3102.12,1456.08Z" transform="translate(-713.69 -575.15)"/><path class="cls-1" d="M2785.38,1206s93.07-66.75,229.73-52S3309.33,1018.1,3316,986.13s-31.15-136.91-99.15-162.46c0,0-103.46,162.37-217.57,162.2s-204.57-12.57-288.5,77.41C2710.81,1063.28,2687.77,1142.31,2785.38,1206Z" transform="translate(-713.69 -575.15)"/><g class="cls-6"><path class="cls-7" d="M2765,1162s52.13-54.08,138.89-66.21,138.81,27.07,216.32-5S3298,948.15,3298,948.15s24.23,22.61,16.3,42.75-78.41,90.47-160.94,132.71S2985.32,1152,2985.32,1152s-64.65-2.83-122.2,17.61-77.74,36.4-77.74,36.4S2754.8,1176.63,2765,1162Z" transform="translate(-713.69 -575.15)"/></g><path class="cls-7" d="M2785.37,1219.05a13,13,0,0,1-7.13-2.12c-104.52-68.2-81-153.7-80-157.31a13.16,13.16,0,0,1,3-5.25c78.69-84.36,163.44-83.25,261.6-81.9,11.88.16,24,.33,36.47.35h.15c105.51,0,205.39-154.61,206.39-156.17a13.07,13.07,0,0,1,15.6-5.21c76,28.54,115.05,140.52,107.34,177.36-8,38.2-172.13,193.55-315.1,178.17-129.68-14-219.84,49-220.74,49.65A13.06,13.06,0,0,1,2785.37,1219.05Zm-62.64-149.36c-2.57,13.21-8.67,70.27,62.77,120.62,25.62-15.89,111.94-62.13,231-49.3,129.15,14,281.23-131.48,286.74-157.56,5.11-24.43-25.42-114.31-81.63-143.39-24.69,35.71-117.45,158.87-222.14,158.87h-.19c-12.54,0-24.79-.18-36.79-.34C2867.84,997.34,2792.85,996.3,2722.73,1069.69Z" transform="translate(-713.69 -575.15)"/><path class="cls-2" d="M1470,1987.77s454.14,150.12,866.31,110.32,536.12-201.6,453.76-435c0,0,119.79-466.74-126.11-780.19s-967.32-463.56-1308.59-3.61C1212,1086.16,1187,1474.12,1187,1474.12S941.13,1789.88,1470,1987.77Z" transform="translate(-713.69 -575.15)"/><g class="cls-4"><path class="cls-5" d="M2809.18,1734.57c-.67-2-1.32-4-2-5.94,0,0,.21-.8.54-2.19C2808.23,1729.16,2808.71,1731.87,2809.18,1734.57Z" transform="translate(-713.69 -575.15)"/></g><g class="cls-4"><path class="cls-5" d="M1148.68,1739.7c-29.53-71.59-19.31-138.74-2-187.62C1130,1602.88,1120.54,1670.72,1148.68,1739.7Z" transform="translate(-713.69 -575.15)"/></g><g class="cls-4"><path class="cls-5" d="M1226.79,1209.71c-32,143.12-39.75,264.41-39.75,264.41s-23.55,30.3-40.39,78c16.81-51.34,40.93-85.26,40.93-85.26S1191.88,1349.28,1226.79,1209.71Z" transform="translate(-713.69 -575.15)"/></g><g class="cls-4"><path class="cls-5" d="M2664,882.86c70.3,89.61,110.67,191.73,132.54,291.91-23.84-78.49-60.5-156.25-115.49-226.34-134.36-171.27-410.69-293.76-689.4-294.63a9.12,9.12,0,0,1,.61,2c3.67,21.24-70.23,51.74-165.07,68.12-84.83,14.66-157.63,13-174.67-2.66-106.19,46.78-202.87,119.51-280.06,223.55-26.72,38.55-78.89,71.45-97.18,115.65-20.59,49.75-36.38,100.82-48.49,149.24,25.19-112.84,65.38-239.24,128.62-330.46C1696.68,419.3,2418.1,569.41,2664,882.86Z" transform="translate(-713.69 -575.15)"/></g><g class="cls-6"><path class="cls-7" d="M2249.71,1993.81c412.17-39.8,536.13-201.6,453.76-435,0,0,109-424.63-94.34-735.85A558.54,558.54,0,0,1,2664,882.86c245.9,313.45,126.11,780.19,126.11,780.19,82.37,233.44-41.59,395.24-453.76,435S1470,1987.77,1470,1987.77c-181.17-67.78-271.41-149.39-311.78-227.41,51.59,43.33,124.23,85.38,225.14,123.13C1383.4,1883.49,1837.55,2033.61,2249.71,1993.81Z" transform="translate(-713.69 -575.15)"/></g><path class="cls-3" d="M2425.24,1147.4c74.24,23.69,123.78,93.62,122.29,171.53-2.28,119-20.51,347.46-124,413.18-141.92,90.14-482.18-8.89-729.51-45.93s-416.79-47.43-428.59-238.79,80.07-400,105.29-413.88S1661.08,1056.17,1930,1089C2109.47,1111,2302.18,1108.12,2425.24,1147.4Z" transform="translate(-713.69 -575.15)"/><path class="cls-7" d="M2192.23,2117.78c-365.72,0-722.26-116.28-726.29-117.61l-.48-.17c-191.85-71.78-305.86-167.35-338.86-284.07-34.87-123.33,33.31-226.62,47.67-246.53,3.13-43.5,32.59-398.79,170.41-597.59,139.41-187.91,357.38-293.11,614-296.56,139.89-2,282.59,26.28,413,81.44,126.89,53.66,234.36,131.12,302.6,218.11,129.31,164.83,157.32,371.38,158,515.63.71,141.85-23.37,250.13-28.62,272,35.35,102.55,30.73,189.91-13.76,259.68-65.52,102.75-217.71,166.34-452.34,189C2289.54,2115.73,2240.78,2117.78,2192.23,2117.78Zm-717.87-142.34c12.28,4,459.71,148.39,860.74,109.65,226.22-21.84,371.84-81.41,432.83-177,40.48-63.49,43.8-144.46,9.86-240.65a13.1,13.1,0,0,1-.33-7.59c.29-1.16,29.6-117.4,28.74-269.93-.78-140-27.88-340.14-152.47-499C2517.11,716.77,2231.52,597.77,1959,601.36,1710.74,604.7,1500.1,706.15,1365.9,887c-139.44,201.15-165.58,584.07-165.83,587.92a13,13,0,0,1-2.73,7.18c-.79,1-80.09,105.3-45.52,227C1182.53,1817.2,1291.05,1906.81,1474.36,1975.44Z" transform="translate(-713.69 -575.15)"/><path class="cls-7" d="M2252.33,1782.14c-112,0-248.29-25.94-381.86-51.36-63.06-12-122.63-23.34-178.37-31.69q-25.9-3.88-50.64-7.44c-219.11-31.86-377.41-54.88-389-243.46-12-193.89,79.26-408.07,112-426.12,22.45-12.36,142.71,1.15,432.51,37.31,44,5.5,89.25,11.14,134.6,16.68,63.08,7.71,128,12.37,190.85,16.86,116.08,8.31,225.74,16.17,306.81,42h0c78.95,25.2,133,101,131.37,184.22-2.47,129.06-22.66,355.75-130,424C2385.94,1771.46,2324.14,1782.14,2252.33,1782.14ZM1377,1045c-20.18,15-110,214.83-98.5,401.57,10.32,167.4,144.47,186.91,366.73,219.23q24.78,3.6,50.75,7.45c56.25,8.42,116.06,19.81,179.38,31.86,204.26,38.88,435.77,83,541.19,16,100.7-63.95,116-302.72,117.93-402.4,1.38-71.81-45.17-137.13-113.2-158.84h0c-78.11-24.93-186.24-32.67-300.73-40.87-63.14-4.52-128.43-9.19-192.16-17-45.37-5.55-90.64-11.19-134.66-16.69C1609.7,1062.34,1401.21,1036.31,1377,1045Z" transform="translate(-713.69 -575.15)"/><g class="cls-6"><path class="cls-7" d="M1240.92,1031.63s856.23,225.4,1560.61,195.54c0,0,35-.76,43.79-49.54a88.43,88.43,0,0,1,4.21,21.77c6,86.08-45.3,87.11-45.3,87.11C2099.86,1316.37,1243.63,1091,1243.63,1091c-5.93-23-6.26-43.23-3-60.62C1240.74,1030.79,1240.81,1031.2,1240.92,1031.63Z" transform="translate(-713.69 -575.15)"/></g><path class="cls-1" d="M1247.64,1043.76s856.23,225.4,1560.6,195.54c0,0,51.34-1,45.3-87.11s-115.82-83.39-115.82-83.39-591.13-19.48-802-47.41-588.31-114.1-616.16-116.46S1223.52,950.21,1247.64,1043.76Z" transform="translate(-713.69 -575.15)"/><g class="cls-6"><path class="cls-7" d="M1244.93,984.42s856.23,225.4,1560.61,195.53c0,0,35-.75,43.79-49.53a87.88,87.88,0,0,1,4.21,21.77c6,86.08-45.3,87.11-45.3,87.11-704.37,29.86-1560.6-195.54-1560.6-195.54-5.93-23-6.26-43.22-3-60.62C1244.75,983.57,1244.82,984,1244.93,984.42Z" transform="translate(-713.69 -575.15)"/></g><path class="cls-7" d="M2676.8,1255.05c-669.6,0-1424.44-196.54-1432.49-198.66A13,13,0,0,1,1235,1047c-16.27-63.13,7.3-103.33,22.8-121.67,18.28-21.64,43.55-35.08,62.86-33.45,9.19.78,44.36,8.07,116.66,23.15,133.31,27.81,356.44,74.35,500.11,93.38,205.72,27.24,782.89,46.72,800.36,47.3,42.47-1.08,123.32,17.83,128.78,95.53,2.59,36.88-4.35,64.61-20.64,82.45s-35.29,18.59-37.42,18.63C2765.18,1254.19,2721.11,1255.05,2676.8,1255.05Zm-1418.24-222c86.54,22,889.86,221.06,1549.13,193.16.5,0,10.61-.69,19.38-10.64,10.8-12.25,15.45-33.87,13.44-62.51-5.1-72.49-98.52-71.37-102.49-71.24h-.73c-5.92-.19-594.19-19.82-803.3-47.52-144.63-19.15-368.35-65.82-502-93.7-59-12.3-105.51-22-113.54-22.69-7.81-.69-25.62,6.42-40.7,24.28C1266.09,956,1248.73,985.67,1258.56,1033.09Z" transform="translate(-713.69 -575.15)"/><path class="cls-7" d="M1975.55,1511.8c65.41-25.45,140.29-55.59,205.53-81.19l35-13.24c11.95-3.69,22.3-11.31,37.43-7.17a9.42,9.42,0,0,1,6.63,11.57c-6.37,15-21.43,17.51-32.86,23.28-34.31,15-69,29.12-103.9,42.73-41,15.47-81.62,32.37-123.56,45.39a143.28,143.28,0,0,1-20.93,4.73c-15.09,2-20.69-19.06-6.65-24.78l3.35-1.32Z" transform="translate(-713.69 -575.15)"/><path class="cls-7" d="M2147.38,1681.1h0a107.7,107.7,0,0,0,105.37-110l-2.83-132.45a108.72,108.72,0,0,0-1.48-15.74c-2.15-12.77-212.53,81.93-212.53,81.93l1.51,70.85A107.7,107.7,0,0,0,2147.38,1681.1Z" transform="translate(-713.69 -575.15)"/><ellipse class="cls-5" cx="2106.89" cy="1551.42" rx="38.24" ry="47.02" transform="translate(-894.51 -293.48) rotate(-7.33)"/><g class="cls-4"><ellipse class="cls-5" cx="2183.59" cy="1619.56" rx="34.87" ry="23.2" transform="translate(-759.91 2599.71) rotate(-71.46)"/></g><path class="cls-7" d="M1629.26,1460.4c-22.86-3.11-43.5-14.17-64.35-23.14q-29.22-13.32-58-27.16-43.31-20.62-85.32-43.65c-9-5.74-20-7.74-25.09-21.09a10.07,10.07,0,0,1,6.83-13.34c13.78-3.68,21.79,4,31.73,7.79,57.41,26.5,114,56.63,171.39,82.77,10.21,5,21.12,9,30.66,15,11.3,6.75,5.1,24.48-7.83,22.82Z" transform="translate(-713.69 -575.15)"/><path class="cls-7" d="M1543.75,1624.59h0a107.68,107.68,0,0,1-110-105.36L1431,1386.78a109.88,109.88,0,0,1,.81-15.79c1.61-12.85,215.83,72.8,215.83,72.8l1.51,70.85A107.69,107.69,0,0,1,1543.75,1624.59Z" transform="translate(-713.69 -575.15)"/><ellipse class="cls-5" cx="1494.91" cy="1476.93" rx="36.49" ry="44.87" transform="translate(-890.01 -372.21) rotate(-7.33)"/><g class="cls-4"><ellipse class="cls-5" cx="1568.09" cy="1541.94" rx="33.27" ry="22.14" transform="translate(-1106.12 1963.22) rotate(-71.46)"/></g><path class="cls-7" d="M2152.67,1681.5c-25.25-2.54-50-6.93-74.83-12.09-25-6.07-50.33-8.47-72.84-22.73a1.19,1.19,0,0,1,.39-2.14c13.32-3,25.94-2.61,38.45-1.42,36.27,3.38,76.33,6.93,112.1,12.47,16.49,3,13.43,27.14-3.27,25.91Z" transform="translate(-713.69 -575.15)"/><path class="cls-7" d="M1552.59,1623.06c-25.24-2.54-50-6.94-74.83-12.09-25-6.08-50.32-8.47-72.84-22.74a1.19,1.19,0,0,1,.39-2.14c22.77-5.5,53.21.65,76,2.09,24.87,2.46,49.87,5.17,74.53,9,16.55,2.86,13.55,27.14-3.2,25.92Z" transform="translate(-713.69 -575.15)"/><path class="cls-3" d="M1127.42,2158.17s-37.63-31.46-77.51-40.45-62.34,18-62.34,18l-74.15,18s-54.48,8.43-67.46,30.89,7.93,73.58,7.93,73.58c-24.15,34.83,14.6,67.4,14.6,67.4-12.92,52.24,28.65,72.46,28.65,72.46s-11.8,38.76,14,48.31,64.31-8.71,64.31-8.71c75.83,21.91,154.46-11.51,154.46-11.51S1169.55,2318.24,1127.42,2158.17Z" transform="translate(-713.69 -575.15)"/><path class="cls-3" d="M1362.21,2793.14c-53.08,11.8-106.16,57.29-106.16,57.29,5,117.11,62.34,298.25,123,367.34s136.48,59,155.86,37.91,45.5-164.29,45.5-164.29S1416.69,2988.33,1362.21,2793.14Z" transform="translate(-713.69 -575.15)"/><path class="cls-2" d="M2720.91,3056.29c40.44-233.66-143.79-364-143.79-364,150.53-258.37-72.06-620.78-72.06-620.78s-195.3,38.88-388.31,31.72-474.45-68.47-474.45-68.47c-79.93.76-165,59.91-261.56,98.1s-253.32,25.28-253.32,25.28c42.13,160.07,2.53,267.92,2.53,267.92,158.1,71.89,348.52,20.22,348.52,20.22-3.37,149.4-116.26,346.83-116.26,346.83,54.48,195.19,218.21,298.25,218.21,298.25,159.23-27,273-188.72,273-188.72,119.64,43,333.64,23.59,333.64,23.59,118.8,43.81,153.34,137.33,153.34,137.33S2586.1,3031.57,2720.91,3056.29Z" transform="translate(-713.69 -575.15)"/><path class="cls-3" d="M2845.88,3186.6c-13.48-17.7-125-130.31-125-130.31-134.81-24.72-380.54,7.3-380.54,7.3-16,68.24,4.21,153.34,4.21,153.34,99.42,16,506.35,27.8,506.35,27.8S2859.36,3204.29,2845.88,3186.6Z" transform="translate(-713.69 -575.15)"/><path class="cls-3" d="M2007.41,2272.5s-69-67.44-103.55-105.33-80.35-91.08-80.35-91.08l7.14-6.67s104.15,15.67,176.76,25.53,157.72,9.16,157.72,9.16l6.35,9.17s-28.19,51.75-52.23,80.2-81.38,89.07-81.38,89.07l-14.29,1.43Z" transform="translate(-713.69 -575.15)"/><path class="cls-1" d="M2624.46,2553.74s-92.28,95.89-519.15,86.91-639.58-103.72-639.58-103.72l-27,88.94s307.15,149.58,637.42,138.35,501-71.9,501-71.9S2620.25,2597.05,2624.46,2553.74Z" transform="translate(-713.69 -575.15)"/><g class="cls-6"><path class="cls-7" d="M1558,3193.65s-10.4,46-61.41,46.87-117.57-69.93-160.54-196.31-58.66-210.05-58.66-210.05l-21.38,16.27s.44,108.31,52.46,235.3,101.73,178.26,166.6,185.06S1550.31,3225.28,1558,3193.65Z" transform="translate(-713.69 -575.15)"/></g><g class="cls-6"><path class="cls-7" d="M1386.86,2753.54s71.39,227.48,193.56,242.65,224.95-141.54,251.91-146.6,178,40.67,384.19,16.85,314.12-160.54,314.12-160.54l33.64-9.44,6,6.49s-14.77,26.46-59.59,71.81-140.67,96.29-140.67,96.29,34.35,98.18,122,130.19,228.89,17.7,228.89,17.7v24.43s-1.55,11.3-14,10.11-163.44-16.68-260.33.09l-31.18,1.69s-6.74,91.74,17.7,116.17,415.36,36.23,415.36,36.23l2.52,37.07s-218.68-6.32-326-13.21-180.38-14.59-180.38-14.59-11.7-57.95-10.38-90.43,5.33-66.28,5.33-66.28-35.39-62.14-69.09-89.63-71.66-39.72-71.66-39.72l-12.87-3.21s-124.1,5.67-184.65.28-147.87-25.27-147.87-25.27-77.33,102.79-167.15,150.11-113.06,33.73-113.06,33.73-100.92-70.86-144.15-149.28S1365.58,2803,1365.58,2803s.49-16.06,2.24-19.66S1386.86,2753.54,1386.86,2753.54Z" transform="translate(-713.69 -575.15)"/></g><g class="cls-6"><path class="cls-7" d="M1594.83,2578s115.38,147.53,479,148.06c283.09,0,519.9-72.94,519.9-72.94l-19.23,43.38s-307.26,83.61-641,63.33c-272-20.29-481.45-127.7-484.4-129.05s-8.69-10.65-8.69-10.65l23.38-76.85,7.49-4Z" transform="translate(-713.69 -575.15)"/></g><g class="cls-6"><path class="cls-7" d="M864.56,2351.38s14.6,13.48,49.43,14.61,47.18-16,47.18-16,.32,21.78-10.94,31-45.79,18.46-45.79,18.46-1.34,15.72,24.18,19.37,43.78-6.46,43.78-6.46,5.62,12.38-6.74,26.83-59.84,10.42-66.71-2.87-5.46-30.13-5.46-30.13l-2-10.11S867.65,2379.19,864.56,2351.38Z" transform="translate(-713.69 -575.15)"/></g><g class="cls-6"><path class="cls-7" d="M1049.14,2251.18s26,53.58,32.51,86.72,59.82,32,59.82,32l-4.35,35.38s-112.74,27.95-163.45,3c0,0-2.95-11.41-9.41-20s-4.78-22.63-4.78-22.63,10.92-22.25-5.75-37.66-15.87-22.1-15.87-22.1a31.38,31.38,0,0,0,6.18-29.82c-5.34-18-15.42-33.42-15.42-33.42s-3.21-16-2.56-17.5,8.22-24.48-.08-35.37,54.57-21.27,54.57-21.27-23.88,47.18-3.37,72.73,62.06-4.21,62.06-4.21Z" transform="translate(-713.69 -575.15)"/></g><g class="cls-6"><path class="cls-7" d="M1146.82,2360.09s148.55,40.54,265.94,42.12,141.72-37.13,141.72-37.13-30.34,58.22-70.23,77.8-142.14,28.88-217.19,18.54-125.59-30.34-125.59-30.34l-9.27-13.7Z" transform="translate(-713.69 -575.15)"/></g><g class="cls-6"><path class="cls-7" d="M1642.3,2034.79s165,128.43,389.27,153.14,473.49-116.39,473.49-116.39-261.35,47.84-446.82,28.2S1642.3,2034.79,1642.3,2034.79Z" transform="translate(-713.69 -575.15)"/></g><g class="cls-6"><path class="cls-7" d="M1554.48,2365.08S1574,2495,1673.94,2536.93s452.2,73.58,601.3,73.58c0,0-259.74-178.86-329.07-245.43,0,0,299.56,195.81,360.22,223.89s132.32,8.47,132.32,8.47l12.7,20.77s-141.63,30.85-394.4,21-432.5-48-529.11-79.48l-56.59-20.49-3-11s8.64-46.6,9.1-62.62,6.79-22.81,6.79-22.81S1539.5,2405.17,1554.48,2365.08Z" transform="translate(-713.69 -575.15)"/></g><g class="cls-4"><path class="cls-5" d="M2470.85,2078.88S2626,2321.56,2584.7,2578.27l32.14-18.31,9.7-17.61S2640,2440.69,2603,2303.64s-97.89-232.1-97.89-232.1Z" transform="translate(-713.69 -575.15)"/></g><g class="cls-4"><path class="cls-5" d="M1685.45,2598.25s98.53,57.56,331.65,71,394.88-15.81,460.6-28.12,137.23-46.37,137.23-46.37v-26.61s-132.18,64-357.13,70.77S1815.77,2628.32,1685.45,2598.25Z" transform="translate(-713.69 -575.15)"/></g><g class="cls-4"><path class="cls-5" d="M982.51,2235.68c3.14.15,17.69-83.69,30-91.28s67.67-1.12,117.39,39L1135,2186s121.6,11,226.07-12.64,222.43-128.62,275.79-133.68c0,0-89.87,10-168.51,53.59s-119.07,54.81-188.72,61.55-135.37,7.1-135.37,7.1l-22.42-8.09s-38.24-39.18-92.72-37.91-55,51.89-57.61,69.29S970.72,2235.11,982.51,2235.68Z" transform="translate(-713.69 -575.15)"/></g><g class="cls-4"><path class="cls-5" d="M870.74,2247.61s-8.71-38.33-3.65-51.81,35.38-24.15,35.38-24.15-15.72-11.93-26.4-9.76-32.85,8.91-33.7,31.38,5.62,52.52,5.62,52.52l12.92,10.11Z" transform="translate(-713.69 -575.15)"/></g><g class="cls-4"><path class="cls-5" d="M2850.93,3221.14s-154.18-139.67-172.71-165.88l14-2.34s29.77.56,40.44,10.67,110.55,113.77,115.15,126.94S2850.93,3221.14,2850.93,3221.14Z" transform="translate(-713.69 -575.15)"/></g><g class="cls-4"><path class="cls-5" d="M2699.56,3049.55s2.81-116.27-37.07-198.27-100.12-136.76-100.12-136.76l10-14.65s8.37-5.09,15.11-.88,73.72,67.9,114.55,160.08,21.72,184.86,21.72,184.86l-8.7,11.33Z" transform="translate(-713.69 -575.15)"/></g><path class="cls-7" d="M1366,3198.37c10.48-7.18,21.31-15.78,27.28-27.36,2.15-4,4-8,8.56-13.11a1.16,1.16,0,0,1,1.63-.09c12,15.08-1.36,37.51-12.59,49a56.87,56.87,0,0,1-14.7,10.77c-12.77,5.93-22.09-11.93-10.18-19.23Z" transform="translate(-713.69 -575.15)"/><path class="cls-7" d="M1402.13,3253.56c-5.38-3.61-6-12.45-1.11-16.81.47-.49,1.27-1.2,1.78-1.65,2-1.78,5.67-4.93,7.71-6.75,5.5-5.15,10.55-10.59,14.15-17.28a37.63,37.63,0,0,1,8.25-11,1.27,1.27,0,0,1,1.82,0c4.43,4.55,5.24,10.17,4.44,15.26-2,14.7-10.7,28.13-22.53,36.82,0,0-.82.66-.42.24a10.71,10.71,0,0,0,3.2-8.07,10.94,10.94,0,0,0-4.5-8.38c11.4,8.72-1,25.75-12.79,17.61Z" transform="translate(-713.69 -575.15)"/><path class="cls-7" d="M1441.38,3255.46a81.2,81.2,0,0,0,11.88-13.52c4.71-6.59,6.16-14.49,13.43-19.63a1.33,1.33,0,0,1,1.74.16c11.16,12.15,1.1,36.17-8.91,46.26a32.33,32.33,0,0,1-6.72,5.26c-12.4,7.22-23.45-10.69-11.42-18.53Z" transform="translate(-713.69 -575.15)"/><path class="cls-7" d="M1480.09,3265.79c2.38-5.32,7.2-13.41,10.12-18.7,4.53-7.39,5-12.76,12.71-19.23a1.32,1.32,0,0,1,1.73,0c11.93,9.79,1.1,38.31-5.79,49-7.68,11.21-24.79,1-18.77-11Z" transform="translate(-713.69 -575.15)"/><path class="cls-7" d="M2316.8,2646.44a10.75,10.75,0,0,1-5.39-1.43c-1.23-.7-125.12-71.79-262.92-179.78-185.65-145.48-306.95-285.06-360.53-414.86a10.88,10.88,0,0,1,20.12-8.31c124.57,301.81,609.24,581.26,614.13,584.05a10.88,10.88,0,0,1-5.41,20.33Z" transform="translate(-713.69 -575.15)"/><path class="cls-7" d="M2470.84,2625.16a10.85,10.85,0,0,1-4.91-1.18c-364.78-184.83-654.63-545.57-657.52-549.19a10.89,10.89,0,0,1,17-13.57c2.85,3.59,289.86,360.7,650.33,543.34a10.89,10.89,0,0,1-4.93,20.6Z" transform="translate(-713.69 -575.15)"/><path class="cls-7" d="M2103.89,2371.64a10.89,10.89,0,0,1-7.86-18.42c1.58-1.64,157.48-164.95,176.48-255.71a10.88,10.88,0,0,1,21.3,4.45c-20.27,96.86-175.48,259.45-182.07,266.33A10.9,10.9,0,0,1,2103.89,2371.64Z" transform="translate(-713.69 -575.15)"/><path class="cls-7" d="M2028,2303a10.89,10.89,0,0,1-7.48-18.79c1.21-1.15,121.64-115.76,144.09-183.54a10.88,10.88,0,1,1,20.65,6.85c-24.16,72.95-144.66,187.65-149.78,192.49A10.8,10.8,0,0,1,2028,2303Z" transform="translate(-713.69 -575.15)"/><path class="cls-7" d="M1486.25,3284.43h-1.4c-24.39-.28-71.85-8.2-115.61-58-65.17-74.23-121.38-262.74-126.24-375.39a13.08,13.08,0,0,1,4.55-10.48c2.19-1.88,52.51-44.63,106-58.71,16.33-29.74,101.21-189.76,111-318.79-50.64,10.89-201.71,35.44-335-22.78-19.3,7.19-86,28.73-153.11,11.19-12.22,5.09-44.49,16.5-69.86,7.13-24.69-9.13-27.2-35.7-24.26-54.39-16-11.93-34.42-36.74-28.16-74.15-14.66-15.38-30.55-44-14.84-73.19-6.09-16.69-17.95-55.92-4.73-78.8,15.06-26.08,64.89-35.38,76.21-37.18l70-16.95c8.6-8.24,33.61-27.56,71.95-18.92,35.81,8.08,69.08,32.24,79.63,40.44,24.58,1.63,159.21,8.66,243.53-24.67,30.66-12.12,60.34-26.49,89-40.37,61.75-29.88,120.07-58.11,177.2-58.64a14.32,14.32,0,0,1,2.9.3c2.81.61,282.55,61.14,472.16,68.17,189.17,7,383.33-31.1,385.27-31.48a13,13,0,0,1,13.68,6c2.31,3.76,57,93.47,93.86,216.59,47.75,159.37,42.17,300-16,407.6,16,13.05,49.84,43.54,81,90.57,38,57.31,78.85,150.71,59.81,272.38,23.15,23.42,108.94,110.49,121.4,126.84,16.61,21.81,8.44,64,7.45,68.71a12.94,12.94,0,0,1-13.16,10.39c-16.65-.48-408.94-12-508-28a13,13,0,0,1-10.63-9.87c-.84-3.53-20-85.55-5.16-155.13-7.33-16.26-44.57-88.48-141.51-125.3-26.8,2.23-211.45,15.86-327-21.41-25.14,33-127.13,156.44-266.61,184.49-7,37.05-28.08,141.27-47.09,161.93C1533.19,3276.86,1511,3284.43,1486.25,3284.43Zm-216.82-428c7,120.18,64.08,289.72,119.44,352.76,37.07,42.23,76.24,48.93,96.28,49.16h1.14c19.55,0,33.89-5.89,39-11.47,10.53-11.44,29.76-89.21,42.26-157.79a13.07,13.07,0,0,1,10.67-10.54c151.86-25.7,263.37-181.78,264.48-183.35a13,13,0,0,1,15.09-4.78c115.51,41.48,325.93,23.07,328,22.87a13.17,13.17,0,0,1,5.7.76c123,45.37,159.57,141,161.07,145a13,13,0,0,1,.46,7.51c-12.23,52.14-2,116,2.42,138.77,99.83,13.55,419.4,24,484.28,26,1.45-13.65,1-29.91-4.29-36.82-10.64-14-93-97.87-123.86-129a13.08,13.08,0,0,1-3.59-11.42c38.59-222.95-136.69-349.82-138.47-351.08a13.07,13.07,0,0,1-3.74-17.23c133-228.19-37-546.34-67.4-599.68-41.12,7.48-213.48,36.49-382.16,30.25-184.74-6.86-452.88-63.64-475.27-68.45-50.87,1-106.15,27.72-164.64,56-29.13,14.09-59.26,28.67-90.82,41.14-98.31,38.88-252.66,26.7-259.19,26.15a13.06,13.06,0,0,1-7.3-3c-.35-.29-35.79-29.55-72-37.72-31.19-7-48.78,12.84-49.51,13.68a13.36,13.36,0,0,1-6.89,4.25l-74.14,18c-.35.09-.72.16-1.07.22-20.08,3.13-51.4,12.81-58.16,24.52-6.67,11.54,1.25,43.88,8.71,62.1a13.08,13.08,0,0,1-1.36,12.39c-17.17,24.76,11.06,48.94,12.27,50a13.07,13.07,0,0,1,4.28,13.13c-9.95,40.22,18.5,56,21.78,57.63a13.17,13.17,0,0,1,6.68,15.5c-.07.23-7.65,27.17,6.08,32.25,16.84,6.22,44.84-3.86,54.2-8.26a13,13,0,0,1,9.2-.74c70.28,20.28,145-10.69,145.74-11a13.18,13.18,0,0,1,10.5.13c151.83,69,337.84,20,339.71,19.52a13.06,13.06,0,0,1,16.47,12.89c-3.41,151-113.31,344.85-118,353a13,13,0,0,1-8.5,6.26C1324.74,2814.85,1283.33,2845.41,1269.43,2856.39Z" transform="translate(-713.69 -575.15)"/><path class="cls-7" d="M1130,2439.14a12.88,12.88,0,0,1-4.5-.8,13.06,13.06,0,0,1-7.77-16.74c.45-1.22,37.53-106.53-2.88-260.11a13.06,13.06,0,0,1,25.26-6.65c42.67,162.19,3.82,271.18,2.15,275.75A13.07,13.07,0,0,1,1130,2439.14Z" transform="translate(-713.69 -575.15)"/><path class="cls-7" d="M999.46,2141.08c-9.33,24.66-26,66.64-14.09,91,11.72,17.27,32.8,6.88,47.71-4.41a9.26,9.26,0,0,1,13.69.73c10.71,21,23.19,42.73,35.63,63a1.13,1.13,0,0,1-1.5,1.57c-21.7-12.55-37.34-32.68-49.81-54.11l14.87,2.65c-18.84,19.24-53.41,32.8-75.36,10.16-29.39-29.3-9-88.36,5.07-121.3,7.54-15.4,30.39-5.08,23.79,10.77Z" transform="translate(-713.69 -575.15)"/><path class="cls-7" d="M971.92,2452.22a13.06,13.06,0,0,1-11.43-19.35c10.67-19.43-14.81-44.55-15.07-44.79a13.06,13.06,0,0,1-.53-18.38c.6-1.23,2.76-6.55,3.23-20.17.54-15.6-20.7-27.52-20.91-27.63a13.08,13.08,0,0,1-1.59-22c.24-.2,9.89-8,8.24-23.48-1.46-13.6-16.37-24.74-22-27.88a13.09,13.09,0,0,1-2.9-20.66c.42-.45,12.42-13.22,6.24-30.08-5.4-14.71-28-21.59-36.3-23a13.06,13.06,0,0,1,4.27-25.76c1.82.3,44.79,7.7,56.55,39.76,6.94,18.94,2.07,34.89-3.46,45.16,9.51,8,21.61,21.47,23.56,39.67a54.45,54.45,0,0,1-7.35,34.3c10.15,8.6,22.41,23.08,21.74,42.53-.41,11.8-2,20.2-4,26.2,10.63,13,28.44,41,13.16,68.81A13,13,0,0,1,971.92,2452.22ZM944.74,2370Zm2-1.95a0,0,0,0,0,0,0A0,0,0,0,1,946.78,2368Zm0,0h0Zm0,0h0Zm0,0h0Z" transform="translate(-713.69 -575.15)"/><path class="cls-7" d="M898.26,2411.09c-1.12,0-1.86-.05-2.21-.08a13.06,13.06,0,0,1,2-26c.82,0,18.42.23,50-17.7a13.06,13.06,0,1,1,12.91,22.7C926.92,2409.28,905.22,2411.09,898.26,2411.09Z" transform="translate(-713.69 -575.15)"/><path class="cls-7" d="M868.49,2338.61a13.06,13.06,0,0,1-.23-26.12c18.29-.33,47.89-4.23,56.4-11.84a13.06,13.06,0,1,1,17.41,19.46c-18.68,16.72-64.38,18.34-73.36,18.49Z" transform="translate(-713.69 -575.15)"/><path class="cls-7" d="M853.87,2271.21a13.06,13.06,0,0,1-1-26.08c24.27-2,50.56-9.09,54.09-14.64a13.06,13.06,0,1,1,22.55,13.17c-12.21,20.93-60.14,26.34-74.54,27.5C854.58,2271.19,854.22,2271.21,853.87,2271.21Z" transform="translate(-713.69 -575.15)"/><path class="cls-7" d="M1472.28,2434.81c27.13-17.13,53.49-38.48,70.55-66.12,5.68-9.35,10.29-18.81,17.7-29.26a1.19,1.19,0,0,1,2.15.32c3.16,12.41,1.31,25.5-3.57,37-14.44,34.71-41.68,62.94-74.44,81.09-15.33,7.62-27.16-14.38-12.39-23Z" transform="translate(-713.69 -575.15)"/><path class="cls-7" d="M2040.86,2777.87c-316.11,0-604.9-138.8-607.89-140.25a13.07,13.07,0,0,1-6.78-15.55l27-88.94A13.07,13.07,0,0,1,1471,2525c2.11.94,215.85,93.77,634.54,102.59,412.4,8.67,508.65-82.09,509.58-83a13.09,13.09,0,0,1,22.3,10.42c-4.37,44.95-46.65,138.73-48.45,142.7a13,13,0,0,1-7.52,6.92c-7,2.51-176.43,61.47-504.95,72.65C2064.63,2777.68,2052.71,2777.87,2040.86,2777.87ZM1454.49,2618.8c55.46,25.1,331.06,142.23,621.17,132.37,292.67-10,460.86-59.52,491.87-69.43,6.78-15.44,26.84-62.23,37.46-99.1-52.72,28.73-189,77.63-500,71.07-369.6-7.79-577.51-78.49-631-99.26Z" transform="translate(-713.69 -575.15)"/><path class="cls-7" d="M2187,2939.32a13.06,13.06,0,0,1-1.35-26.05c2.56-.27,257.27-29.18,380.34-227.83a13.06,13.06,0,0,1,22.21,13.76c-129.95,209.73-388.88,238.91-399.84,240.05A12.65,12.65,0,0,1,2187,2939.32Z" transform="translate(-713.69 -575.15)"/><path class="cls-7" d="M2340.35,3076.65a13.06,13.06,0,0,1-1.67-26c10.12-1.32,249.33-32,384.58-7.2a13.06,13.06,0,0,1-4.71,25.7c-131.23-24.07-374.06,7.08-376.49,7.4A14.15,14.15,0,0,1,2340.35,3076.65Z" transform="translate(-713.69 -575.15)"/><path class="cls-7" d="M1580.4,3104.45a13,13,0,0,1-6.94-2c-6.86-4.32-168.63-108-223.83-305.79a13.06,13.06,0,0,1,25.15-7c52.42,187.78,211,289.71,212.6,290.72a13.06,13.06,0,0,1-7,24.1Z" transform="translate(-713.69 -575.15)"/><path class="cls-8" d="M787.61,2178.39l289.83-73.58s9.54-40.45-15.17-54.49l-290.39,76.39S768.51,2168.84,787.61,2178.39Z" transform="translate(-713.69 -575.15)"/><g class="cls-6"><path class="cls-7" d="M781.43,2154.23s194.34-49.42,205.57-57.85,10.46-29,10.46-29l61.24-16.11,3.57-.94s17.22,17.47,17,30.33,3.8,27-1.81,24.16-292.69,71.76-292.69,71.76S776.94,2163.22,781.43,2154.23Z" transform="translate(-713.69 -575.15)"/></g><path class="cls-5" d="M994.27,2068.21,834.79,1265.66s-124.69,11.79-106.16,143.23,126.53,695.92,126.53,695.92" transform="translate(-713.69 -575.15)"/><g class="cls-6"><path class="cls-7" d="M834.79,1265.66s-78.35,94.36-68.24,127.22,40.44,19.81,48.86,71-19.38,68-10.11,107.62,47.18,64.88,43.81,98.58-27.8,87.62-12.63,109.52,48,27.81,44.65,59.82-15.53,85.94.24,102.79,38.51,40.44,39.36,64-14.19,55.13-5.41,82.75l71.18-18.73,6.52-8.32Z" transform="translate(-713.69 -575.15)"/></g><path class="cls-1" d="M1005,2122.5l-136.49,35.67L947,2498.87c9.69-4.11,57.79-23.17,128.34-28.43Z" transform="translate(-713.69 -575.15)"/><path class="cls-8" d="M1075.34,2470.44c-70.55,5.26-118.65,24.32-128.34,28.43l7.43,32.25s60.66,48.86,127.22-29.49Z" transform="translate(-713.69 -575.15)"/><path class="cls-8" d="M964.27,2133.53l60.79,301s-29.92,20.22-48.87,10.67l-73.72-296" transform="translate(-713.69 -575.15)"/><path class="cls-7" d="M1001.64,2559.11c-32.62,0-55-17.5-55.41-17.82a13.15,13.15,0,0,1-4.53-7.24l-85.93-373a13,13,0,0,1,9.42-15.57l136.49-35.67a13.07,13.07,0,0,1,16.1,10L1094.45,2499a13.06,13.06,0,0,1-2.85,11C1059.1,2548.34,1027.22,2559.11,1001.64,2559.11ZM966,2523.27c12,7.43,53.91,26.85,101.54-25.4l-72.64-359.24-110.86,29Z" transform="translate(-713.69 -575.15)"/><path class="cls-7" d="M787.61,2191.44a13,13,0,0,1-5.84-1.38c-25.68-12.83-23.59-55.89-22.91-64.39a13.06,13.06,0,0,1,9.7-11.58l290.39-76.4a13,13,0,0,1,9.77,1.28c32.84,18.66,21.91,66.8,21.43,68.84a13.07,13.07,0,0,1-9.5,9.65L790.82,2191A13,13,0,0,1,787.61,2191.44Zm-2.94-54.59c.26,11,2.37,22.08,6,27.28l275.13-69.85c.82-8.55.79-22.27-6.32-29.72Z" transform="translate(-713.69 -575.15)"/><path class="cls-7" d="M855.14,2117.87a13.06,13.06,0,0,1-12.81-10.61c-1.08-5.65-108.26-566.31-126.63-696.55-6.17-43.75,1.85-80,23.83-107.9,34.79-44.08,91.63-49.92,94-50.15a13.07,13.07,0,0,1,14,10.45l159.48,802.56a13.06,13.06,0,0,1-25.62,5.09l-157-790c-16,3.78-45.24,13.74-64.58,38.37-17.29,22-23.46,51.59-18.33,87.9C759.84,1536.67,866.9,2096.71,868,2102.35a13.09,13.09,0,0,1-12.84,15.52Z" transform="translate(-713.69 -575.15)"/><path class="cls-7" d="M947.2,2510.55a10.88,10.88,0,0,1-4.75-20.67c2-1,51.32-24.45,132.08-30.35a10.88,10.88,0,1,1,1.59,21.71c-76.3,5.58-123.74,28-124.21,28.24A11,11,0,0,1,947.2,2510.55Z" transform="translate(-713.69 -575.15)"/><path class="cls-7" d="M988,2456.45a34.55,34.55,0,0,1-15.74-3.5,8.69,8.69,0,0,1-4.53-5.67l-73.72-296a8.71,8.71,0,0,1,16.9-4.21l72.6,291.48c9.72,2.14,23.57-3.83,31.8-8.37l-59.58-295a8.71,8.71,0,0,1,17.07-3.45l60.79,301a8.71,8.71,0,0,1-3.66,8.93C1027.2,2443.57,1007.43,2456.45,988,2456.45Z" transform="translate(-713.69 -575.15)"/><path class="cls-7" d="M976.2,2453.89a8.71,8.71,0,0,1-5.12-15.76l31.07-22.54-41.95-14.77a8.71,8.71,0,0,1-3.67-13.93l35.6-40.86-51.61-22.23a8.7,8.7,0,0,1-3-13.8l37.84-42.29-52.68-18a8.71,8.71,0,0,1-4-13.62l40.08-51-55.3-14.77a8.71,8.71,0,0,1,4.5-16.83l68,18.18a8.71,8.71,0,0,1,4.6,13.79l-40.64,51.76,53.5,18.27a8.71,8.71,0,0,1,3.67,14.05l-38.53,43.07,51.46,22.16a8.71,8.71,0,0,1,3.11,13.72l-35,40.18,45.51,16a8.71,8.71,0,0,1,2.22,15.26l-44.51,32.29A8.65,8.65,0,0,1,976.2,2453.89Z" transform="translate(-713.69 -575.15)"/><path class="cls-3" d="M898.23,2435a40.24,40.24,0,0,1-3.54-23.26c2.13-12.59-.48-15.42-.48-15.42s-15.73-5.61-25.72-29.77,1.19-39.58-2-42.84a69.51,69.51,0,0,1-17.82-31.58c-4.49-17.7,2.25-36.23,2.25-36.23s-18.26-51.92-3.79-73.14,42.21-25.16,61.47-13.36,22.43,27.28,21.13,43.13-8,24.55-8,24.55,25.28,23,25.28,42.41-7.31,29.2-7.31,29.2,22,11.95,21,34.45-4.4,33.06-4.4,33.06,20.56,20,19.26,39-11,23.61-17.57,27.2S906.23,2449.81,898.23,2435Z" transform="translate(-713.69 -575.15)"/><g class="cls-6"><path class="cls-7" d="M864.56,2351.38s14.6,13.48,49.43,14.61,47.18-16,47.18-16,.32,21.78-10.94,31-45.79,18.46-45.79,18.46-1.34,15.72,24.18,19.37,43.78-6.46,43.78-6.46,5.62,12.38-6.74,26.83-59.84,10.42-66.71-2.87-5.46-30.13-5.46-30.13l-2-10.11S867.65,2379.19,864.56,2351.38Z" transform="translate(-713.69 -575.15)"/></g><g class="cls-4"><path class="cls-5" d="M1033,2116c-1.28,0-2.53-.11-3.84-.08-22,.51-35.17,9.06-43.26,20.22l1.7-.41S1003.76,2116.4,1033,2116Z" transform="translate(-713.69 -575.15)"/></g><g class="cls-4"><path class="cls-5" d="M1037.89,2116.08c1.14.06,2.28.14,3.45.26C1040.19,2116.24,1039.05,2116.14,1037.89,2116.08Z" transform="translate(-713.69 -575.15)"/></g><path class="cls-3" d="M1012.56,2144.4c-12.36,7.59-26.91,91.43-30,91.28-8.43-.41-11.75-17.14-12-33l0,.15s-6.65,36.51,15.4,47.74,54.24-14.88,54.24-14.88l34,48.74c24.46-16.9,40.44-75.83,47.45-107.38C1074.19,2142.62,1024.23,2137.24,1012.56,2144.4Z" transform="translate(-713.69 -575.15)"/><path class="cls-3" d="M1125.66,2156.74a185.21,185.21,0,0,0-31.25-23c-5-3-12.49-5.86-21.1-8.31,25.25,10.64,46.29,26.52,52.35,31.32Z" transform="translate(-713.69 -575.15)"/><path class="cls-3" d="M1001.86,2124.42l-.25.21a62.33,62.33,0,0,1,6.23-3.15A22.84,22.84,0,0,0,1001.86,2124.42Z" transform="translate(-713.69 -575.15)"/><g class="cls-4"><path class="cls-5" d="M1001.61,2124.63a57.13,57.13,0,0,0-14,11.07l-1.7.41c-12,16.49-12.78,38.69-14.35,49.07a109,109,0,0,0-1,17.49C971.2,2199.53,985.15,2137.35,1001.61,2124.63Z" transform="translate(-713.69 -575.15)"/></g><g class="cls-4"><path class="cls-5" d="M1073.31,2125.42a139.94,139.94,0,0,0-23.4-7.7c-2.28-.51-4.48-.88-6.65-1.17-.64-.06-1.27-.15-1.92-.21-1.17-.12-2.31-.2-3.45-.26-1.61-.09-3.27-.09-4.92-.11a63.81,63.81,0,0,0-25.13,5.51C1023.21,2116.05,1051.79,2119.3,1073.31,2125.42Z" transform="translate(-713.69 -575.15)"/></g><path class="cls-3" d="M1073.31,2125.42c-21.52-6.12-50.1-9.37-65.47-3.94a62.33,62.33,0,0,0-6.23,3.15c-16.46,12.72-30.41,74.9-31.1,78,.25,15.87,3.57,32.6,12,33,3.14.15,17.69-83.69,30-91.28,11.67-7.16,61.63-1.78,109,32.64,2.71-12.19,4.09-20.3,4.09-20.3C1119.6,2151.94,1098.56,2136.06,1073.31,2125.42Z" transform="translate(-713.69 -575.15)"/><g class="cls-4"><path class="cls-5" d="M1073.31,2125.42c-21.52-6.12-50.1-9.37-65.47-3.94a62.33,62.33,0,0,0-6.23,3.15c-16.46,12.72-30.41,74.9-31.1,78,.25,15.87,3.57,32.6,12,33,3.14.15,17.69-83.69,30-91.28,11.67-7.16,61.63-1.78,109,32.64,2.71-12.19,4.09-20.3,4.09-20.3C1119.6,2151.94,1098.56,2136.06,1073.31,2125.42Z" transform="translate(-713.69 -575.15)"/></g><g class="cls-4"><path class="cls-5" d="M870.74,2247.61s-8.71-38.33-3.65-51.81,35.38-24.15,35.38-24.15-15.72-11.93-26.4-9.76-32.85,8.91-33.7,31.38,5.62,52.52,5.62,52.52l12.92,10.11Z" transform="translate(-713.69 -575.15)"/></g><path class="cls-7" d="M1127.42,2171.22a13,13,0,0,1-8.37-3c-.35-.29-35.79-29.55-72-37.72-31.72-7.15-49.27,13.39-49.44,13.6a13.06,13.06,0,0,1-20.06-16.72c1.12-1.35,28.12-33,75.24-22.36,42.48,9.58,81.38,41.8,83,43.16a13.06,13.06,0,0,1-8.38,23.08Z" transform="translate(-713.69 -575.15)"/><path class="cls-7" d="M928.56,2462.14a63.34,63.34,0,0,1-21.91-3.58c-24.69-9.13-27.2-35.7-24.26-54.39-16-11.93-34.42-36.74-28.16-74.16-14.66-15.37-30.55-44-14.84-73.18-6.09-16.69-17.95-55.92-4.73-78.8,7.21-12.48,23.19-22.67,47.48-30.27a13.06,13.06,0,0,1,7.8,24.93c-24.27,7.59-30.93,15.4-32.67,18.4-6.71,11.62,1.05,43.32,8.71,62.12a13.08,13.08,0,0,1-1.36,12.38c-17.17,24.76,11.06,48.94,12.27,50a13.07,13.07,0,0,1,4.28,13.13c-9.95,40.22,18.5,56,21.78,57.63a13.17,13.17,0,0,1,6.68,15.5c-.07.23-7.65,27.17,6.08,32.25,16.84,6.22,44.84-3.86,54.2-8.26a13.06,13.06,0,0,1,11.18,23.6C977.67,2451,953.32,2462.14,928.56,2462.14Z" transform="translate(-713.69 -575.15)"/><path class="cls-7" d="M999.46,2141.08c-9.33,24.66-26,66.64-14.09,91,11.72,17.27,32.8,6.88,47.71-4.41a9.26,9.26,0,0,1,13.69.73c10.71,21,23.19,42.73,35.63,63a1.13,1.13,0,0,1-1.5,1.57c-21.7-12.55-37.34-32.68-49.81-54.11l14.87,2.65c-18.84,19.24-53.41,32.8-75.36,10.16-29.39-29.3-9-88.36,5.07-121.3,7.54-15.4,30.39-5.08,23.79,10.77Z" transform="translate(-713.69 -575.15)"/><path class="cls-7" d="M971.92,2452.22a13.06,13.06,0,0,1-11.43-19.35c10.67-19.43-14.81-44.55-15.07-44.79a13.06,13.06,0,0,1-.53-18.38c.6-1.23,2.76-6.55,3.23-20.17.54-15.6-20.7-27.52-20.91-27.63a13.08,13.08,0,0,1-1.59-22c.24-.2,9.89-8,8.24-23.48-1.46-13.6-16.37-24.74-22-27.88a13.09,13.09,0,0,1-2.9-20.66c.42-.45,12.42-13.22,6.24-30.08-5.4-14.71-28-21.59-36.3-23a13.06,13.06,0,0,1,4.27-25.76c1.82.3,44.79,7.7,56.55,39.76,6.94,18.94,2.07,34.89-3.46,45.16,9.51,8,21.61,21.47,23.56,39.67a54.45,54.45,0,0,1-7.35,34.3c10.15,8.6,22.41,23.08,21.74,42.53-.41,11.8-2,20.2-4,26.2,10.63,13,28.44,41,13.16,68.81A13,13,0,0,1,971.92,2452.22ZM944.74,2370Zm2-1.95a0,0,0,0,0,0,0A0,0,0,0,1,946.78,2368Zm0,0h0Zm0,0h0Zm0,0h0Z" transform="translate(-713.69 -575.15)"/><path class="cls-7" d="M898.26,2411.09c-1.12,0-1.86-.05-2.21-.08a13.06,13.06,0,0,1,2-26c.82,0,18.42.23,50-17.7a13.06,13.06,0,1,1,12.91,22.7C926.92,2409.28,905.22,2411.09,898.26,2411.09Z" transform="translate(-713.69 -575.15)"/><path class="cls-7" d="M868.49,2338.61a13.06,13.06,0,0,1-.23-26.12c18.29-.33,47.89-4.23,56.4-11.84a13.06,13.06,0,1,1,17.41,19.46c-18.68,16.72-64.38,18.34-73.36,18.49Z" transform="translate(-713.69 -575.15)"/><path class="cls-7" d="M853.87,2271.21a13.06,13.06,0,0,1-1-26.08c24.27-2,50.56-9.09,54.09-14.64a13.06,13.06,0,1,1,22.55,13.17c-12.21,20.93-60.14,26.34-74.54,27.5C854.58,2271.19,854.22,2271.21,853.87,2271.21Z" transform="translate(-713.69 -575.15)"/><path class="cls-1" d="M2013.35,2781.33s-17.81,44.67,0,86.8,78.2,82.56,94.91,156.7c0,0-68.67,11.8-95.63,48.31,0,0-48.54-76.91-78.64-116.83s-68.27-166.11-4.67-236.38C1929.32,2719.93,1989.92,2733.86,2013.35,2781.33Z" transform="translate(-713.69 -575.15)"/><g class="cls-6"><path class="cls-7" d="M2009.82,2812s-64.59-1.69-72.46,18,16.31,97.73,55.06,144.35,102.11,11.58,102.11,11.58l13.73,39s-32.8,10.09-53.82,17.12-43.79,28.06-43.79,28.06-58.24-87.84-81.31-120.49-41.83-95.09-30.17-148.8,22.18-71,22.18-71l12.51,1.23s28.86,31.57,45.07,38,29.64,11.38,29.64,11.38,3.22,12.39,2.94,13.7S2009.82,2812,2009.82,2812Z" transform="translate(-713.69 -575.15)"/></g><path class="cls-1" d="M2208.49,2727.83s26.56,44.25,82.73,44.81,135.37,10.11,173,65.72L2403,2922.61s-52.24-40.44-104.48-43.81-146-27.91-167.38-84.73S2208.49,2727.83,2208.49,2727.83Z" transform="translate(-713.69 -575.15)"/><path class="cls-7" d="M2012.63,3086.2h-.48a13.07,13.07,0,0,1-10.56-6.08c-.49-.76-48.61-76.91-78-115.94-30.13-40-75.53-173.9-3.93-253a13.07,13.07,0,0,1,12.61-4c2.72.63,66.94,15.92,92.81,68.35a13.08,13.08,0,0,1,.44,10.59h0c-.16.4-15.54,40.43-.12,76.9,6.06,14.32,18.19,29.1,32.23,46.21,23.33,28.43,52.36,63.82,63.38,112.71a13.05,13.05,0,0,1-10.52,15.74c-.63.11-63.86,11.4-87.33,43.2A13.07,13.07,0,0,1,2012.63,3086.2Zm-78.79-351.34c-50.3,65-16.31,177.91,10.58,213.59,22.51,29.86,54.61,79.21,70.17,103.46,23.74-21,58.37-32.07,77.51-36.89-11.43-36.49-34.28-64.33-54.68-89.2-14.69-17.9-28.57-34.81-36.1-52.61-15.87-37.55-6.72-76.15-2.17-90.73C1982.32,2753.67,1948.78,2739.8,1933.84,2734.86Z" transform="translate(-713.69 -575.15)"/><path class="cls-7" d="M2403,2935.67a13,13,0,0,1-8-2.74c-.48-.37-49.8-38-97.32-41.1-51-3.29-153.9-27-178.76-93.16-7.59-20.21-2.5-35.16,3.11-44.14,20.36-32.62,78.64-39.07,85.22-39.69a13,13,0,0,1,12.41,6.23c1,1.63,23.94,38,71.69,38.51,90.41.91,152.21,25,183.69,71.46a13,13,0,0,1-.26,15l-61.22,84.25a13.08,13.08,0,0,1-8.72,5.26A14.23,14.23,0,0,1,2403,2935.67Zm-200.56-193.85c-17.19,2.8-48.47,10.82-58.27,26.56-2.34,3.75-5,10-.8,21.11,18.57,49.44,105.54,73,156,76.28,41.4,2.67,81.78,26.18,100.65,38.74l48-66.06c-28.07-34.25-80.79-52-156.92-52.75C2242.34,2785.21,2213.47,2755.86,2202.44,2741.82Z" transform="translate(-713.69 -575.15)"/><path class="cls-1" d="M2064.68,2653.35s25.29-54.66,102-34.69,50.06,132.63,5.8,163-90.5-4.47-90.5-4.47-64.14,23-120.35-18-57.33-134.34-4.89-142.88S2043.78,2635.22,2064.68,2653.35Z" transform="translate(-713.69 -575.15)"/><g class="cls-6"><path class="cls-7" d="M1917.75,2658.92s46.85,65.09,105.93,74.35,72.22-14.73,72.22-14.73l.54-9.31s53,38.78,78.17,29.84,30.81-24.25,30.81-24.25l8.9-12.91s-7,75.77-54.26,86.6-70.1-6.3-70.1-6.3l-17.42-6.39s-69.8,21.19-119.91-24S1917.75,2658.92,1917.75,2658.92Z" transform="translate(-713.69 -575.15)"/></g><path class="cls-7" d="M2133,2807.26c-23.8,0-43.7-10.07-53.12-15.82-18.85,5.07-75,15.47-125.94-21.68-41.63-30.33-54.68-82.82-46.05-119,6.26-26.25,23.3-43.5,46.75-47.32,50.13-8.14,86.3,14,107.18,30.46,16.95-20.67,52.31-42.44,108.16-27.89,30.94,8.06,51.09,30.29,56.75,62.6,7.76,44.36-13.7,101.05-46.86,123.8A81.43,81.43,0,0,1,2133,2807.26Zm-51-43.14a13.06,13.06,0,0,1,7.86,2.63c1.55,1.15,39.47,28.68,75.26,4.13,22.34-15.32,42.45-60.39,35.91-97.76-3.9-22.27-16.55-36.34-37.61-41.82-64.56-16.8-86,25.8-86.86,27.63a13.12,13.12,0,0,1-20.36,4.28c-25.13-21.79-54.31-41-97.33-34-16.31,2.66-22.9,16.47-25.55,27.6-6.46,27.09,4,68.47,36,91.83,50,36.46,107.67,16.44,108.25,16.23A12.87,12.87,0,0,1,2081.93,2764.12Z" transform="translate(-713.69 -575.15)"/><path class="cls-7" d="M2082,2790.24a13.06,13.06,0,0,1-6.86-24.18c7.92-4.87,12.31-11.12,13.8-19.67,4.91-28.08-23.17-70.8-34.41-84.89a13.06,13.06,0,0,1,20.4-16.31c4.89,6.11,47.53,61,39.75,105.65-2.76,15.8-11.69,28.76-25.85,37.47A13,13,0,0,1,2082,2790.24Z" transform="translate(-713.69 -575.15)"/><g class="cls-4"><path class="cls-5" d="M2035.06,2660.35c16.47,13.55,22.46,29.83,17.89,34.05s-18-5.21-34.44-18.76-29.75-26.08-25.18-30.3S2018.6,2646.81,2035.06,2660.35Z" transform="translate(-713.69 -575.15)"/></g><g class="cls-4"><path class="cls-5" d="M2162.57,2642.52c16,6.73,24.28,19.38,21.53,24.7s-15.44,1.29-31.46-5.44-29.29-13.59-26.55-18.91S2146.56,2635.8,2162.57,2642.52Z" transform="translate(-713.69 -575.15)"/></g><g class="cls-6"><path class="cls-7" d="M2226,2747.65s-18.9,51.39-11.65,66.56,93.19,15.58,128.58,34.12,106-28.1,106-28.1l19.49,17.14L2403,2922.61s-45.69-33.81-104.48-43.81-99.82-14.8-132-42.23-33.39-37.71-33.39-37.71,34-10.19,51.47-30.57,22.63-31.18,22.63-31.18Z" transform="translate(-713.69 -575.15)"/></g><path class="cls-1" d="M2834.08,3326.14l-472.73-21.84a32.31,32.31,0,0,1-30.77-33.76l1.06-22.87a32.29,32.29,0,0,1,33.75-30.77l472.73,21.85a32.28,32.28,0,0,1,30.77,33.75l-1,22.87A32.3,32.3,0,0,1,2834.08,3326.14Z" transform="translate(-713.69 -575.15)"/><g class="cls-9"><path class="cls-7" d="M2433.85,3222s3.2,40.64,6,42.18,404.07,24.8,404.07,24.8l-1.74,37.59L2355,3304l4-87.39Z" transform="translate(-713.69 -575.15)"/></g><path class="cls-7" d="M2836.67,3339.29c-.69,0-1.38,0-2.07-.05l-475-21.95a44.24,44.24,0,0,1-42.15-46.23l1.16-25.11a44.24,44.24,0,0,1,46.23-42.15l475,22A44.23,44.23,0,0,1,2882,3272l-1.16,25.1A44.29,44.29,0,0,1,2836.67,3339.29Zm-473.86-109.41a18.1,18.1,0,0,0-18.08,17.27l-1.16,25.12a18.11,18.11,0,0,0,17.26,18.93l475,22h0a18.08,18.08,0,0,0,18.93-17.26l1.16-25.11a18.11,18.11,0,0,0-17.26-18.93l-475-21.95C2363.38,3229.88,2363.09,3229.88,2362.81,3229.88Z" transform="translate(-713.69 -575.15)"/><path class="cls-1" d="M2511.7,3225.57s74-119.84,276.94-103.84c0,0,.51-25.31-38-27.81s-176.92-1.68-284.77,127.22Z" transform="translate(-713.69 -575.15)"/><path class="cls-7" d="M2511.69,3234.27a7.69,7.69,0,0,1-.83,0l-45.79-4.42a8.71,8.71,0,0,1-5.84-14.25c109.92-131.39,251.31-133,292-130.33,37,2.41,46.34,25,46.1,36.67a8.68,8.68,0,0,1-9.38,8.5c-194.76-15.35-268.15,98.6-268.86,99.76A8.78,8.78,0,0,1,2511.69,3234.27Zm-28.08-20.16,23.78,2.3c15.88-22.11,92.37-113.4,268.35-104.25-3.88-4.29-11.33-8.62-25.63-9.55C2712.83,3100.18,2586.47,3101.52,2483.61,3214.11Z" transform="translate(-713.69 -575.15)"/><g class="cls-6"><path class="cls-7" d="M1209.34,2859.73s8.8,187.85,64.4,293.17,102.79,69.52,102.79,69.52,41.28,42.91,91,47.35,63.19-9.59,63.19-9.59-31.16,82.41-136.06,67.6-153.48-172.1-171.25-239.84-27.76-152.42-27.76-152.42l-.57-72.45Z" transform="translate(-713.69 -575.15)"/></g><path class="cls-7" d="M1420.58,3338.73a166.11,166.11,0,0,1-18.91-1.1c-105.78-12.14-154.06-141.28-191-261.37-33.86-110-22.72-206.8-22.23-210.87a8.73,8.73,0,0,1,4.46-6.59l59-32.28a8.71,8.71,0,0,1,12.88,7.34c0,1.23,4.83,124.51,56.76,265.48,31.24,84.79,81.75,144.54,135.11,159.83,29.14,8.35,57.57,2.66,82.24-16.46A8.71,8.71,0,0,1,1552.2,3253C1551.82,3253.91,1514.63,3338.73,1420.58,3338.73Zm-215.29-466.87c-1.72,20-6.75,105.81,22,199.28,35.33,114.83,81,238.25,176.36,249.2,59.44,6.81,95.86-22.66,115.11-46.49-21.2,7.92-43.87,8.68-67,2.06-58.68-16.82-113.5-80.58-146.65-170.55-42.72-116-54.12-220.34-57-257Z" transform="translate(-713.69 -575.15)"/><path class="cls-1" d="M1269.91,2959.6s66.4,7.38,138.61,82.08,95.23,165.79,100.85,166.3,57.33-50,57.33-50l7.26-32.58-56.73,41.57s-47.18-108.4-124.13-182c-55.61-52.24-128.06-56.73-128.06-56.73Z" transform="translate(-713.69 -575.15)"/><path class="cls-7" d="M1509.75,3216.72a11,11,0,0,1-1.19-.07c-6.71-.62-8.68-5.35-16-23-12.48-30-38.45-92.32-90.3-146-69.22-71.61-132.67-79.41-133.3-79.48a8.69,8.69,0,0,1-7.64-7.31l-4.88-31.38a8.7,8.7,0,0,1,9.15-10c3.08.19,76.24,5.3,133.48,59.07,64.68,61.85,108,146.32,121.63,175l48.12-35.26a8.71,8.71,0,0,1,13.65,8.92l-7.26,32.58a8.73,8.73,0,0,1-2.41,4.33C1523,3212.86,1514.17,3216.72,1509.75,3216.72Zm-232.2-264.65c19.12,3.92,76.09,20.32,137.22,83.56,54.14,56,81,120.42,93.85,151.37,1.31,3.13,2.63,6.31,3.77,8.95,9.82-7.83,29.39-25.89,46.38-42.42l1.66-7.45-38,27.88a8.71,8.71,0,0,1-13.13-3.55c-.47-1.06-47.43-107.7-122.17-179.16-40.17-37.74-90-49.5-111.67-53Z" transform="translate(-713.69 -575.15)"/><path class="cls-10" d="M3132.73,1664.45l30.78-148.28-133.68,92.11-152.78-32.58,97.73,128.07L2932.1,1849l135.06-91.31,166,22.32Zm-87,46.34a26.54,26.54,0,1,1,26.54-26.54A26.54,26.54,0,0,1,3045.7,1710.79Z" transform="translate(-713.69 -575.15)"/><g class="cls-6"><path class="cls-7" d="M2932.1,1849s109.24-138.49,113.6-138.21,17.79-4.21,21.46-7,166,76.24,166,76.24l-166-22.32Z" transform="translate(-713.69 -575.15)"/></g><g class="cls-6"><path class="cls-7" d="M2885.24,1586.43l140.66,80.83s-11.8,5.33-6.74,17-44.38,19.52-44.38,19.52Z" transform="translate(-713.69 -575.15)"/></g><g class="cls-6"><path class="cls-7" d="M3058.59,1661.06,3163,1521.22l-30.22,146-60.49,17S3066.14,1663.87,3058.59,1661.06Z" transform="translate(-713.69 -575.15)"/></g><path class="cls-7" d="M2932.1,1862.06a13.06,13.06,0,0,1-12.53-16.74l40.82-138.89-93.72-122.8a13.06,13.06,0,0,1,13.11-20.7l147.27,31.41,129-88.93a13.07,13.07,0,0,1,20.2,13.41l-29.47,142L3243,1771.45a13.06,13.06,0,0,1-11.6,21.51l-161.06-21.67-130.94,88.53A13.09,13.09,0,0,1,2932.1,1862.06Zm-23.26-266.23,76.32,100a13,13,0,0,1,2.15,11.61l-32.45,110.39,105-71a13,13,0,0,1,9.05-2.12l131.7,17.71L3122.87,1673a13.05,13.05,0,0,1-2.92-11.22l24.16-116.4L3037.24,1619a13.06,13.06,0,0,1-10.14,2Z" transform="translate(-713.69 -575.15)"/><path class="cls-7" d="M3045.7,1721.67a37.42,37.42,0,1,1,37.42-37.42A37.46,37.46,0,0,1,3045.7,1721.67Zm0-53.08a15.66,15.66,0,1,0,15.65,15.66A15.67,15.67,0,0,0,3045.7,1668.59Z" transform="translate(-713.69 -575.15)"/><path class="cls-3" d="M2955.57,1859.79s-6.48,11.64-21.65,7-22.23-16.43-26.28-26.54-46.6-88-46.6-88,5.79-38.39,37.86-39.84,86.61,27,95,43.16-3.93,23.64-3.93,23.64L2936,1794.76Z" transform="translate(-713.69 -575.15)"/><g class="cls-4"><path class="cls-5" d="M2980.4,1780s-31.45-26.82-55-36.93-48.31-8.51-48.31-8.51,1-21.46,21.85-22.2,63.29,16.05,77.16,27.66,24,25.16,22.31,27,6.36,0,0,6.42S2980.4,1780,2980.4,1780Z" transform="translate(-713.69 -575.15)"/></g><path class="cls-7" d="M2963.84,1715.43c82.32,52.78,60.68,79.23-26.17,89.68l8.21-13.93c8,27.61,17.31,54.9,15.64,84.23a1.13,1.13,0,0,1-1.2,1c-15.23-23.74-22.8-52.29-34.14-78.12-2.68-6.14,1.65-13.16,8.21-13.93,15.84-3.49,32.32-7.53,47.24-13.54,2.75-1.12,8.4-3.81,9.47-5.32a6.42,6.42,0,0,0-1.33,3.65c-.18.62.17,1.54,0,2-.05,0,0,.15,0,.07a30.88,30.88,0,0,0-3-4c-10.39-11.25-24.49-21-37.27-30-13.74-9.85-.19-30.5,14.32-21.83Z" transform="translate(-713.69 -575.15)"/><path class="cls-7" d="M2858.47,1770.71a13.06,13.06,0,0,1-12.12-17.92c16.34-40.78,40.69-51.17,43.41-52.22a13.11,13.11,0,0,1,2.94-.76c27.65-3.75,65.3,12.83,69.5,14.73a13.06,13.06,0,0,1-10.77,23.79c-9.2-4.15-36-14.2-53.34-12.84-3.83,2.17-17.15,11.19-27.5,37A13,13,0,0,1,2858.47,1770.71Z" transform="translate(-713.69 -575.15)"/></svg>