<svg xmlns="http://www.w3.org/2000/svg" xmlns:xlink="http://www.w3.org/1999/xlink" viewBox="0 0 110.94 73.34"><defs><style>.cls-1{isolation:isolate;}.cls-2{fill:url(#Áåçûìÿííûé_ãðàäèåíò_213);}.cls-3{fill:url(#Áåçûìÿííûé_ãðàäèåíò_296);}.cls-4{fill:url(#Áåçûìÿííûé_ãðàäèåíò_300);}.cls-5{fill:#d42f55;opacity:0.3;}.cls-16,.cls-17,.cls-23,.cls-5{mix-blend-mode:multiply;}.cls-6{fill:url(#Áåçûìÿííûé_ãðàäèåíò_313);}.cls-7{fill:#8d001a;}.cls-8{fill:url(#Áåçûìÿííûé_ãðàäèåíò_224);}.cls-9{fill:url(#Áåçûìÿííûé_ãðàäèåíò_310);}.cls-10{fill:url(#Áåçûìÿííûé_ãðàäèåíò_307);}.cls-11{fill:url(#Áåçûìÿííûé_ãðàäèåíò_224-2);}.cls-12{fill:url(#Áåçûìÿííûé_ãðàäèåíò_224-3);}.cls-13{fill:#9f001a;}.cls-14{fill:url(#Áåçûìÿííûé_ãðàäèåíò_316);}.cls-15{fill:url(#Áåçûìÿííûé_ãðàäèåíò_224-4);}.cls-16{fill:#be2f55;}.cls-16,.cls-17{opacity:0.5;}.cls-17{fill:#ff6d55;}.cls-18{fill:url(#Áåçûìÿííûé_ãðàäèåíò_307-2);}.cls-19{fill:url(#Áåçûìÿííûé_ãðàäèåíò_224-5);}.cls-20{fill:url(#Áåçûìÿííûé_ãðàäèåíò_458);}.cls-21{fill:url(#Áåçûìÿííûé_ãðàäèåíò_458-2);}.cls-22,.cls-24{fill:#fff;}.cls-22,.cls-25{mix-blend-mode:soft-light;}.cls-23{fill:#e02774;opacity:0.2;}.cls-25{fill:#ff9ca1;}</style><radialGradient id="Áåçûìÿííûé_ãðàäèåíò_213" cx="21.57" cy="26.83" r="44.09" gradientUnits="userSpaceOnUse"><stop offset="0" stop-color="#ce5411"/><stop offset="1" stop-color="#b42b00"/></radialGradient><linearGradient id="Áåçûìÿííûé_ãðàäèåíò_296" x1="45.67" y1="70.79" x2="45.67" y2="4.93" gradientUnits="userSpaceOnUse"><stop offset="0" stop-color="#b42b00"/><stop offset="1" stop-color="#ce5411"/></linearGradient><linearGradient id="Áåçûìÿííûé_ãðàäèåíò_300" x1="83.78" y1="70.79" x2="83.78" y2="7.43" gradientUnits="userSpaceOnUse"><stop offset="0" stop-color="#a71100"/><stop offset="1" stop-color="#b53303"/></linearGradient><linearGradient id="Áåçûìÿííûé_ãðàäèåíò_313" x1="86.66" y1="73.19" x2="86.66" y2="4.6" gradientUnits="userSpaceOnUse"><stop offset="0.05" stop-color="#ff3f00"/><stop offset="1" stop-color="#d92e03"/></linearGradient><linearGradient id="Áåçûìÿííûé_ãðàäèåíò_224" x1="67.92" y1="73.33" x2="67.92" gradientUnits="userSpaceOnUse"><stop offset="0" stop-color="#ff9600"/><stop offset="1" stop-color="#ffa900"/></linearGradient><linearGradient id="Áåçûìÿííûé_ãðàäèåíò_310" x1="83.22" y1="73.34" x2="83.22" y2="0.38" gradientUnits="userSpaceOnUse"><stop offset="0" stop-color="#ff7c00"/><stop offset="1" stop-color="#ff6800"/></linearGradient><linearGradient id="Áåçûìÿííûé_ãðàäèåíò_307" x1="60.15" y1="40.27" x2="105.86" y2="40.27" gradientUnits="userSpaceOnUse"><stop offset="0" stop-color="#ff7a00"/><stop offset="1" stop-color="#ff6800"/></linearGradient><linearGradient id="Áåçûìÿííûé_ãðàäèåíò_224-2" x1="83" y1="36.77" x2="83" y2="35.4" xlink:href="#Áåçûìÿííûé_ãðàäèåíò_224"/><linearGradient id="Áåçûìÿííûé_ãðàäèåíò_224-3" x1="13.03" y1="73.2" x2="13.03" y2="4.6" xlink:href="#Áåçûìÿííûé_ãðàäèåíò_224"/><linearGradient id="Áåçûìÿííûé_ãðàäèåíò_316" x1="24.05" y1="73.2" x2="24.05" y2="4.31" gradientUnits="userSpaceOnUse"><stop offset="0" stop-color="#ff6400"/><stop offset="1" stop-color="#ff6800"/></linearGradient><linearGradient id="Áåçûìÿííûé_ãðàäèåíò_224-4" x1="28.48" y1="44.05" x2="28.48" y2="33.45" xlink:href="#Áåçûìÿííûé_ãðàäèåíò_224"/><linearGradient id="Áåçûìÿííûé_ãðàäèåíò_307-2" x1="63.92" y1="69.19" x2="99.19" y2="69.19" xlink:href="#Áåçûìÿííûé_ãðàäèåíò_307"/><linearGradient id="Áåçûìÿííûé_ãðàäèåíò_224-5" x1="34.08" y1="73.33" x2="34.08" y2="66.15" xlink:href="#Áåçûìÿííûé_ãðàäèåíò_224"/><linearGradient id="Áåçûìÿííûé_ãðàäèåíò_458" x1="33.52" y1="66.34" x2="33.52" y2="63.11" gradientUnits="userSpaceOnUse"><stop offset="0" stop-color="#ffde00"/><stop offset="1" stop-color="#ffe834"/></linearGradient><linearGradient id="Áåçûìÿííûé_ãðàäèåíò_458-2" x1="28.31" y1="35.82" x2="28.31" y2="33.26" xlink:href="#Áåçûìÿííûé_ãðàäèåíò_458"/></defs><title>Asset 2</title><g class="cls-1"><g id="Layer_2" data-name="Layer 2"><g id="layer1"><path class="cls-2" d="M13.21,69.81S-.92,35.15,5.42,19.1,49,4,56.91,19.1s-3.34,51.69-3.34,51.69Z"/><path class="cls-3" d="M13.21,70.79h63l11.4-63s-29.7-7-68,.89c0,0-14.85,3.63-15.86,18S13.21,70.79,13.21,70.79Z"/><path class="cls-4" d="M64.82,70.79S57.05,35.15,62.34,19.1s36.35-15.07,42.9,0-6.79,50.71-6.79,50.71Z"/><path class="cls-5" d="M92.3,13c-1.39-1.95-15.13.12-17.08,1.94s-1.58,47-.6,48.34,13.89.89,14.59.87S92.3,13,92.3,13Z"/><path class="cls-5" d="M98.17,14.69c-2.16-.21-7.63,50-7,50s4.89-1,8-8.85,4.72-26.87,4.24-31S98.17,14.69,98.17,14.69Z"/><path class="cls-6" d="M99.38,70.82h0c-.17.5-.31.93-.44,1.28h0c-.22.61-.34,1-.37,1v0l-4.62-.13a.08.08,0,0,1,0,0c0-.09.16-.41.38-.94.47-1.22,1.33-3.51,2.36-6.49,3.67-10.54,9.45-29.76,7.32-40.91C101.36,10.87,85.05,4,73.23,7.91L73,8a17.34,17.34,0,0,0-7,4.49l-.1.09c10-11.21,38.56-12.58,41.21,8.83C109.27,39.32,101.92,63.28,99.38,70.82Z"/><path class="cls-7" d="M71.58,9.64l1,55.53S74,16.83,71.58,9.64Z"/><path class="cls-7" d="M93.38,10.35,89.81,65.46S94.4,27,93.38,10.35Z"/><path class="cls-8" d="M60.5,73.33H52.66s-6.45-32.1-3.79-49.85C52,2.79,71-2.25,87.62.83c0,0-18.23-1.12-25,11.28S60.5,73.33,60.5,73.33Z"/><path class="cls-9" d="M109.05,47.51h0a239.53,239.53,0,0,1-5.75,25.67H98.56v0c0-.07.15-.44.37-1h0c.12-.35.26-.78.44-1.28h0c2.49-7.5,9.71-31.15,7.68-48.2C105.33,8.25,86.25,2.94,73.23,7.91L73,8a20.31,20.31,0,0,0-7,4.49l-.1.09a16.21,16.21,0,0,0-4.18,7.36C58,34.12,61.75,54.6,64.21,65.18c.78,3.33,1.43,6.66,1.67,7.51l.1.36-5.48.29s-9.23-31.2-2.58-54.66C66.22-10.65,109-1.38,110.78,23,111.32,30.4,110.41,39.28,109.05,47.51Z"/><path class="cls-10" d="M60.15,35.82s26.43.85,45.71.79c0,0-.69,6-1,7.44s-44.4,0-44.4,0Z"/><path class="cls-11" d="M60.15,35.82s30.15,1.4,45.71.79A351.23,351.23,0,0,0,60.15,35.82Z"/><path class="cls-12" d="M12.49,73.2S-3.19,44.48.59,22.51C3.72,4.31,26.06,4.6,26.06,4.6A25.74,25.74,0,0,0,8.67,19.41C3.48,31.81,18.52,73.2,18.52,73.2Z"/><path class="cls-13" d="M27.87,69.81s-11.7-27.43-9.21-45.54,20-18.48,20-18.48S23.52,8.42,19.87,22.1C15.4,38.83,27.87,69.81,27.87,69.81Z"/><path class="cls-13" d="M44.53,69.81s-9.91-32.89-6.08-50.46C42,3.18,55.9,4.93,55.9,4.93s-13-1.51-17,16.24C34.75,40,44.53,69.81,44.53,69.81Z"/><path class="cls-14" d="M41.31,5.57s-7.57-2.35-19-.64S5.57,19.76,7,36.18s11.49,37,11.49,37h4.37l4.93-3.39-6-.08S8.35,44.42,11.59,23.78C14.28,6.64,41.31,5.57,41.31,5.57Z"/><path class="cls-15" d="M9.75,43S8.13,38,8.4,35.82s39.83-2.37,39.83-2.37L48.6,43S21.22,45.33,9.75,43Z"/><path class="cls-13" d="M25.91,42.19l.32-2s-1.47-1.74-1-2.85a1.69,1.69,0,0,1,2.54-.62c.49.57-.35,3.32-.35,3.32l1.06,2.19Z"/><path class="cls-16" d="M6.89,27.73c.63,2.07,4.36,7,4.36,7s-.12-12,5.08-18.51S37.57,5.79,37.57,5.79s-9.75-3.7-18.87.67S6.89,27.73,6.89,27.73Z"/><path class="cls-16" d="M60.2,30.53c.32,1.55,4.25-16.48,24.14-16.61s18.87,15.24,21.52,15.88,3.34-17-10.23-21.27S71.13,7.25,65.7,12.74,60.2,30.53,60.2,30.53Z"/><path class="cls-16" d="M61.57,51.41c0-5.32,30.92-5.08,34.81-5.56s4.37,8.08,6.2,5.56,2.32-7.36,2.32-7.36-18.15.19-44.4,0Z"/><path class="cls-17" d="M66,73.05S62,73.26,60.5,72s-6.12-27.78-4.73-40.82,8-24,12.15-25.9-3.53,3.84-6.8,14.26S59.18,56.31,66,73.05Z"/><path class="cls-18" d="M98.7,72.09c-.06.57-.12,1-.13,1.08v0L94,73l-27.41,0-.56,0-.1-.36-2-7.51h.29c2.84,0,25.15.21,32.48.42a20.5,20.5,0,0,1,2.33.13C99.44,65.93,99,70.06,98.7,72.09Z"/><path class="cls-19" d="M15.49,66.34c1-.44,36.06,0,36.06,0l1.11,7L18.52,73.2Z"/><path class="cls-20" d="M15.49,66.34l3.81-1.89S35.66,67,51,63.11l.54,3.23Z"/><path class="cls-21" d="M8.4,35.82l2.85-1.09s25.08-2.1,37-1.28C48.23,33.45,26.09,35.72,8.4,35.82Z"/><path class="cls-16" d="M9.75,43s3.51,7.82,4.9,8.84-.07-5,15.61-6,19,4.63,19,4.63L48.6,43S23.41,44,9.75,43Z"/><path class="cls-22" d="M49.76,21.78c-.28,2.36,5.35,1.27,6.14.85s4.74-11.25,5.71-13-4.49-.65-6.1.24S50.43,16.13,49.76,21.78Z"/><path class="cls-22" d="M6.3,25.33c-.37,1.64-6.16.83-6.16.83S1.42,17.07,4,14.2s5.55-4,6.78-3.45S8.12,17.22,6.3,25.33Z"/><path class="cls-23" d="M.14,27.34c-.1.46.14,8.23.6,9s4.75,1.3,5.56,1,.18-9.3,0-10S.14,27.34.14,27.34Z"/><path class="cls-23" d="M50.34,23.25c-1.41-.15-.83,8.06-1.06,9s4.34.75,4.79.48,1.79-7.3,1.44-8.57S50.34,23.25,50.34,23.25Z"/><path class="cls-23" d="M47.6,34.54c-.2-1-15.13,1.08-16.59,1.54s-2.53,6.55-1.49,7,18.38-.51,18.71-.8S47.6,34.54,47.6,34.54Z"/><path class="cls-17" d="M60.55,37.37C61,35.77,88,37.25,90.81,38.5s.92,4.51,0,5.07-29.55.36-29.91,0S60.55,37.37,60.55,37.37Z"/><path class="cls-24" d="M60.15,12.3c-.12-2.44-6.08,2.43-5.95,6.26s3.72.12,3.72.12Z"/><path class="cls-24" d="M9.75,15.21c.89-4.45-5.52,4.5-5.52,7.42S8.1,23.48,9.75,15.21Z"/><path class="cls-24" d="M10.8,35.79c-2.07.57,3.34,3.09,5.41,3.11s5.59-3.48,5.59-3.48Z"/><path class="cls-24" d="M36.93,66.34c-2.1-1.11,8.57-2.53,10.49-2a7.18,7.18,0,0,1,3.28,2.47Z"/><path class="cls-16" d="M10.71,69.67s2.08,3.42,19.48,2.89S60.5,72,60.5,72l5.89,1.07-5.89.27-48-.13Z"/><path class="cls-16" d="M100.75,53.69s-4.28,8.93-6.2,10-26.61,0-28.85,0-3-5.55-3-5.55l1.19,7,33.73.35Z"/><path class="cls-25" d="M19.35,24.54c-.26,2.34,16.58-1.12,17.4-2.67s7.11-13.4,9.39-15.36S34.52,6.22,30.73,8.77,20.29,16.18,19.35,24.54Z"/><path class="cls-25" d="M39.58,21.14c-.09,2.1,5.93.91,7.11.36s7.38-12.69,10.48-15S47.76,6.12,44.9,9.26,39.58,21.14,39.58,21.14Z"/><path class="cls-25" d="M18.66,24.27c-2.33,1.15-5.38.46-5.77-1s4.43-9.36,9.71-11.81S19.7,13,18.66,24.27Z"/><path class="cls-16" d="M109.05,47.52a239.53,239.53,0,0,1-5.75,25.67H98.56l-4.62-.13a.08.08,0,0,1,0,0l-27.41,0,32.17-1,.23,0a27.39,27.39,0,0,0,4,.24C103.58,72.18,108.91,48.11,109.05,47.52Z"/><path class="cls-16" d="M15.49,66.34S11.32,54.23,11.68,53s6.48,9.36,9.21,10.66,11.3,1.55,11.3,1.55S20.91,65,19.3,64.45,15.49,66.34,15.49,66.34Z"/><path class="cls-5" d="M27.36,64.23c-1.49.21-4.48-14.72-3.31-16.27s11.43-.32,13.52.8,4.21,14.71,3.74,15.47S28.82,64,27.36,64.23Z"/><path class="cls-5" d="M42,48c-1.46-.2,1.37,14.64,2.19,15.15s5.57,0,6-1.31-.8-9.7-1.55-11.21S42,48,42,48Z"/><path class="cls-23" d="M10.68,42.75c-.43-1.71,4.68-3.41,8.26-2.92a8.21,8.21,0,0,1,5.42,3.3Z"/><path class="cls-24" d="M6.49,55c.56-2.69,1.95,1.29,2,2.58S5.82,58.25,6.49,55Z"/></g></g></g></svg>