<svg xmlns="http://www.w3.org/2000/svg" xmlns:xlink="http://www.w3.org/1999/xlink" viewBox="0 0 26.62 27.99"><defs><style>.cls-1{isolation:isolate;}.cls-10,.cls-11,.cls-12,.cls-2,.cls-3,.cls-4,.cls-5,.cls-6,.cls-7,.cls-8,.cls-9{fill-rule:evenodd;}.cls-2{fill:url(#linear-gradient);}.cls-12,.cls-3,.cls-5,.cls-7{mix-blend-mode:screen;}.cls-3{fill:url(#radial-gradient);}.cls-11,.cls-4,.cls-9{mix-blend-mode:multiply;}.cls-4{fill:url(#radial-gradient-2);}.cls-5{fill:#fcce3a;}.cls-6{fill:url(#radial-gradient-3);}.cls-7{fill:#fffce4;}.cls-8{fill:url(#radial-gradient-4);}.cls-9{opacity:0.5;fill:url(#radial-gradient-5);}.cls-10{fill:url(#linear-gradient-2);}.cls-11{fill:url(#radial-gradient-6);}.cls-12{fill:url(#radial-gradient-7);}</style><linearGradient id="linear-gradient" x1="11.27" y1="28.87" x2="25.13" y2="4.86" gradientUnits="userSpaceOnUse"><stop offset="0" stop-color="#e86f0c"/><stop offset="0.69" stop-color="#fc940d"/><stop offset="1" stop-color="#e86f0c"/></linearGradient><radialGradient id="radial-gradient" cx="16.34" cy="12.84" r="13.02" gradientUnits="userSpaceOnUse"><stop offset="0" stop-color="#fff369"/><stop offset="0.11" stop-color="#faef67"/><stop offset="0.23" stop-color="#ede262"/><stop offset="0.36" stop-color="#d6cc58"/><stop offset="0.5" stop-color="#b7ae4b"/><stop offset="0.64" stop-color="#8e873b"/><stop offset="0.78" stop-color="#5c5826"/><stop offset="0.92" stop-color="#23210e"/><stop offset="1"/></radialGradient><radialGradient id="radial-gradient-2" cx="9.52" cy="11.95" r="18.89" gradientUnits="userSpaceOnUse"><stop offset="0.51" stop-color="#fff"/><stop offset="0.68" stop-color="#e6ddc3"/><stop offset="1" stop-color="#b09444"/></radialGradient><radialGradient id="radial-gradient-3" cx="6.99" cy="0.76" r="24.22" gradientUnits="userSpaceOnUse"><stop offset="0" stop-color="#fcf80d"/><stop offset="1" stop-color="#fc9c0d"/></radialGradient><radialGradient id="radial-gradient-4" cx="0.02" cy="-1.64" r="29.6" gradientUnits="userSpaceOnUse"><stop offset="0" stop-color="#fcf80d"/><stop offset="1" stop-color="#f78a0c"/></radialGradient><radialGradient id="radial-gradient-5" cx="16.53" cy="15.33" r="17.1" gradientUnits="userSpaceOnUse"><stop offset="0.51" stop-color="#fff"/><stop offset="0.69" stop-color="#ffe2c3"/><stop offset="1" stop-color="#ffa84b"/></radialGradient><linearGradient id="linear-gradient-2" x1="2.91" y1="20.54" x2="13.57" y2="2.07" gradientUnits="userSpaceOnUse"><stop offset="0" stop-color="#fc940d"/><stop offset="1" stop-color="#e86f0c"/></linearGradient><radialGradient id="radial-gradient-6" cx="16.83" cy="16.05" r="16.58" xlink:href="#radial-gradient-2"/><radialGradient id="radial-gradient-7" cx="-0.56" cy="-1.3" r="22.04" xlink:href="#radial-gradient"/></defs><title>Asset 2</title><g class="cls-1"><g id="Layer_2" data-name="Layer 2"><g id="Layer_1-2" data-name="Layer 1"><path class="cls-2" d="M22.62,3.71C27.11,7.12,28,14.34,24.44,20.46S14.22,29.45,9,27.27a34.7,34.7,0,0,1-4-2l6.93-12,6.93-12a33.47,33.47,0,0,1,3.73,2.45Z"/><path class="cls-3" d="M22.47,5.34c3.11,2.36,4.16,7.59,2.32,12.16s-5.92,6.84-9.39,5.4a21.68,21.68,0,0,1-2.69-1.34l3.6-8.95,3.61-8.95a23,23,0,0,1,2.55,1.68Z"/><path class="cls-4" d="M22.92,5.08c3.83,2.92,4.67,9.2,1.8,14.58-2.67,5-7.68,7.58-11.9,6.44A10,10,0,0,1,5,25.26a34.7,34.7,0,0,0,4,2c5.2,2.18,11.88-.68,15.42-6.81S27.11,7.12,22.62,3.71a34.06,34.06,0,0,0-3.71-2.44,9.43,9.43,0,0,1,3.36,3.34l.65.47Z"/><path class="cls-5" d="M19.67,1.81c5.09,2.94,6.21,10.53,2.51,16.94S11.34,28,6.25,25.05,0,14.52,3.74,8.11s10.83-9.24,15.93-6.3Z"/><path class="cls-6" d="M18.89,1.26c5.38,3.1,6.64,11,2.82,17.63S10.41,28.37,5,25.26s-6.64-11-2.82-17.63,11.3-9.48,16.68-6.37Z"/><path class="cls-7" d="M13.34,23a1,1,0,0,1-.73.67,1,1,0,0,1-.87-.13A7.09,7.09,0,0,1,7,23.07c-4.27-2-5.66-8.06-3.1-13.55A12.45,12.45,0,0,1,10.1,3.25a1,1,0,0,1,.75-.81,1,1,0,0,1,1,.25,8.24,8.24,0,0,1,1.71-.15.65.65,0,0,1,.7-.24.67.67,0,0,1,.5.38,6.94,6.94,0,0,1,1.52.5c4.27,2,5.66,8.06,3.1,13.56A12.53,12.53,0,0,1,13.34,23Z"/><path class="cls-8" d="M17.05,3.7c4,2.33,4.87,8.41,1.88,13.58s-8.68,7.49-12.7,5.17S1.36,14,4.35,8.87,13,1.38,17.05,3.7Z"/><path class="cls-9" d="M6.54,10.92C9.37,6,14.76,3.83,18.57,6A6,6,0,0,1,20,7.18a7,7,0,0,0-3-3.48c-4-2.32-9.71,0-12.7,5.17S2.2,20.12,6.23,22.45a6.18,6.18,0,0,0,.9.43c-2.75-2.62-3.09-7.63-.59-12Z"/><path class="cls-10" d="M5.68,9.63C8.41,4.9,13.41,2.56,17.32,4l.37.14a3.62,3.62,0,0,0-.32-.22l-.32-.2c-4-2.32-9.71,0-12.7,5.17S2.2,20.12,6.23,22.45l.32.17.36.17-.31-.24c-3.19-2.68-3.66-8.18-.92-12.92Z"/><path class="cls-11" d="M14.51,3.58a6.83,6.83,0,0,1,2.81.4l.37.14a3.62,3.62,0,0,0-.32-.22l-.32-.2c-4-2.32-9.71,0-12.7,5.17S2.2,20.12,6.23,22.45l.32.17.36.17-.31-.24a7.24,7.24,0,0,1-1.28-1.43c-3-2.49-3.46-7.62-1-12.06C6.7,4.83,11,2.64,14.51,3.58Z"/><path class="cls-12" d="M17.94,6C10.81,2.71,4.15,12,5.13,18,9.07,16.53,15.64,13.3,17.94,6Z"/></g></g></g></svg>