<svg xmlns="http://www.w3.org/2000/svg" xmlns:xlink="http://www.w3.org/1999/xlink" viewBox="0 0 30.41 28.1"><defs><style>.cls-1{isolation:isolate;}.cls-10,.cls-11,.cls-12,.cls-13,.cls-14,.cls-15,.cls-16,.cls-17,.cls-2,.cls-3,.cls-4,.cls-5,.cls-6,.cls-7,.cls-8,.cls-9{fill-rule:evenodd;}.cls-2{fill:url(#radial-gradient);}.cls-3{fill:url(#radial-gradient-2);}.cls-4{fill:url(#radial-gradient-3);}.cls-5{fill:url(#radial-gradient-4);}.cls-6{fill:url(#radial-gradient-5);}.cls-7{fill:url(#radial-gradient-6);}.cls-8{fill:url(#radial-gradient-7);}.cls-9{fill:url(#radial-gradient-8);}.cls-10{fill:#85f2ff;}.cls-11,.cls-13,.cls-16{opacity:0.5;}.cls-11,.cls-12,.cls-13,.cls-14,.cls-16,.cls-17{mix-blend-mode:screen;}.cls-11{fill:url(#radial-gradient-9);}.cls-12{fill:#9fdfff;opacity:0.75;}.cls-13{fill:url(#radial-gradient-10);}.cls-14,.cls-16{fill:#8ffcff;}.cls-15{fill:#fff;}.cls-17{fill:url(#radial-gradient-11);}</style><radialGradient id="radial-gradient" cx="8.59" cy="4.24" r="27.99" gradientUnits="userSpaceOnUse"><stop offset="0" stop-color="#c4eeff"/><stop offset="0.33" stop-color="#4ccaff"/><stop offset="1" stop-color="#003eb0"/></radialGradient><radialGradient id="radial-gradient-2" cx="-0.77" cy="-1.27" r="10.64" gradientUnits="userSpaceOnUse"><stop offset="0" stop-color="#a5e2ff"/><stop offset="1" stop-color="#218cf3"/></radialGradient><radialGradient id="radial-gradient-3" cx="8.2" cy="4.92" r="30.77" gradientUnits="userSpaceOnUse"><stop offset="0" stop-color="#a5e2ff"/><stop offset="1" stop-color="#08f"/></radialGradient><radialGradient id="radial-gradient-4" cx="13.17" cy="29.47" r="21.39" gradientUnits="userSpaceOnUse"><stop offset="0" stop-color="#a5e2ff"/><stop offset="1" stop-color="#0069c2"/></radialGradient><radialGradient id="radial-gradient-5" cx="31.79" cy="9.17" r="15.54" gradientUnits="userSpaceOnUse"><stop offset="0" stop-color="#4ccaff"/><stop offset="1" stop-color="#003eb0"/></radialGradient><radialGradient id="radial-gradient-6" cx="-0.75" cy="19.9" r="13.57" xlink:href="#radial-gradient-2"/><radialGradient id="radial-gradient-7" cx="9.52" cy="32.61" r="24.95" gradientUnits="userSpaceOnUse"><stop offset="0" stop-color="#77d6ff"/><stop offset="1" stop-color="#001fb0"/></radialGradient><radialGradient id="radial-gradient-8" cx="6.19" cy="29.03" r="22.64" gradientUnits="userSpaceOnUse"><stop offset="0" stop-color="#a5e2ff"/><stop offset="1" stop-color="#0081ff"/></radialGradient><radialGradient id="radial-gradient-9" cx="24.35" cy="14.28" r="13.21" gradientUnits="userSpaceOnUse"><stop offset="0" stop-color="#00000d"/><stop offset="1" stop-color="#fff"/></radialGradient><radialGradient id="radial-gradient-10" cx="10.99" cy="16.02" r="14.2" gradientUnits="userSpaceOnUse"><stop offset="0.31" stop-color="#00000d"/><stop offset="1" stop-color="#1cb4ff"/></radialGradient><radialGradient id="radial-gradient-11" cx="23.82" cy="-5.56" r="23.05" gradientUnits="userSpaceOnUse"><stop offset="0.57" stop-color="#00000d"/><stop offset="0.6" stop-color="#030613"/><stop offset="0.63" stop-color="#0d1524"/><stop offset="0.68" stop-color="#1c2f3f"/><stop offset="0.72" stop-color="#315466"/><stop offset="0.77" stop-color="#4c8298"/><stop offset="0.82" stop-color="#6dbad3"/><stop offset="0.86" stop-color="#85e3ff"/></radialGradient></defs><title>Asset 1</title><g class="cls-1"><g id="Layer_2" data-name="Layer 2"><g id="Layer_1-2" data-name="Layer 1"><polygon class="cls-2" points="21.01 4.09 28.02 9.73 29.18 13.68 23.82 13.63 15.08 9.6 8.07 3.95 6.9 0 12.26 0.06 21.01 4.09 21.01 4.09"/><polygon class="cls-3" points="6.9 0 0 2.42 1.59 7.81 8.07 3.95 6.9 0 6.9 0"/><polygon class="cls-4" points="8.07 3.95 1.59 7.81 11.16 15.51 15.08 9.6 8.07 3.95 8.07 3.95"/><polygon class="cls-5" points="15.08 9.6 23.82 13.63 23.1 21.01 11.16 15.51 15.08 9.6 15.08 9.6"/><polygon class="cls-6" points="29.18 13.68 30.41 21.09 23.1 21.01 23.82 13.63 29.18 13.68 29.18 13.68"/><polygon class="cls-7" points="1.59 7.81 5.77 28.1 11.16 15.51 1.59 7.81 1.59 7.81"/><polygon class="cls-8" points="11.16 15.51 23.1 21.01 5.77 28.1 11.16 15.51 11.16 15.51"/><polygon class="cls-9" points="30.41 21.09 5.77 28.1 23.1 21.01 30.41 21.09 30.41 21.09"/><polygon class="cls-10" points="0 2.42 5.77 28.1 1.59 7.81 0 2.42 0 2.42"/><path class="cls-11" d="M14.29,1c2.4,2.34,7.15,9.62,8.42,12.12l1.11.52,2.46,0h.42A60.78,60.78,0,0,1,19.6,3.44L14.29,1Z"/><path class="cls-12" d="M2.63,12.83c-.09-3.64,1.41-2.55,3-.92,5,5.1,3.32,8.05,1.16,13.82l4.38-10.22L1.59,7.81c.35,1.67.69,3.34,1,5Z"/><path class="cls-13" d="M14.87,17.22c4.89,2.26,2.85,4.9-1.29,7L5.77,28.1,23.1,21l-8.23-3.79Z"/><path class="cls-14" d="M8.07,4,7,.34c.38,1.84.62,2.5.08,3.29A12.12,12.12,0,0,1,4.15,6.29L8.07,4Z"/><path class="cls-15" d="M4.15,6.29ZM15.08,9.6,8.07,4,4.15,6.29C6.11,5.23,7.29,4.84,8,5.12A15.66,15.66,0,0,1,11.25,7.2c1.62,1.22,2.33,2.45,2.35,3.12,0,.82-.77,2.42-1.81,4.24l3.29-5Z"/><path class="cls-16" d="M15.08,9.6l-3.29,5c1.51-2.16,2.7-3.16,3.53-3.36,1.12-.26,2.75.1,5.93,1.24L15.08,9.6Z"/><path class="cls-17" d="M10.74,0,6.9,0l.78,2.66L8.07,4l7,5.65,3.39,1.56C16.35,9.28,11,1.69,10.74,0Z"/></g></g></g></svg>