<svg xmlns="http://www.w3.org/2000/svg" xmlns:xlink="http://www.w3.org/1999/xlink" viewBox="0 0 94.67 103.04"><defs><style>.cls-1{isolation:isolate;}.cls-2{fill:url(#linear-gradient);}.cls-3{fill:url(#linear-gradient-2);}.cls-4{fill:#4a2792;opacity:0.3;mix-blend-mode:multiply;}.cls-5{fill:#fff;mix-blend-mode:soft-light;}</style><linearGradient id="linear-gradient" x1="47.32" y1="41.74" x2="49.93" y2="315.63" gradientUnits="userSpaceOnUse"><stop offset="0" stop-color="#cfb7ff"/><stop offset="0.33" stop-color="#7443dc"/><stop offset="0.66" stop-color="#4a2792"/><stop offset="1" stop-color="#140025"/></linearGradient><linearGradient id="linear-gradient-2" x1="41.42" y1="-123.66" x2="54.04" y2="234.04" xlink:href="#linear-gradient"/></defs><title>Asset 1</title><g class="cls-1"><g id="Layer_2" data-name="Layer 2"><g id="OBJECTS"><path class="cls-2" d="M94.67,44.42C94.67,18.09,76.68,0,50.35,0S0,16.48,0,42.81c0,13.26,5.36,24,14,31.44-2.78,2-4.7,4.4-3.55,6.63C13.45,86.6,24,84,24,84S18.08,94.63,19.29,99s50.51,5.29,53.7,2.1-1.32-16-1.32-16,7.7,3.74,9.35,0c.7-1.58-1-4.79-3.2-8C88.15,70.23,94.67,59.11,94.67,44.42Z"/><path class="cls-3" d="M43.5,43.93A15.47,15.47,0,0,1,24.8,55.27c-8.11-2.14-14.68-6-12.46-14.45S24.59,25.39,32.7,27.53,45.72,35.53,43.5,43.93Zm7.66,0A15.48,15.48,0,0,0,69.87,55.27c8.1-2.14,14.68-6,12.46-14.45S70.08,25.39,62,27.53,48.94,35.53,51.16,43.93ZM39.64,77.14c2.92.71,7.16-4.63,7.16-4.63s3,5.34,6.66,3.86S50.7,62.77,46.3,62.61,36.73,76.42,39.64,77.14Z"/><path class="cls-4" d="M66.66,2.61a49.72,49.72,0,0,1,8.56,11,50.48,50.48,0,0,1,5.7,34C79.67,54.26,76.76,61,71.11,64.73c-4,2.66-10,4.84-9.76,9.67.12,2,1.43,4.11.51,5.9-1.09,2.11-4.25,1.89-6.08,3.39-1.23,1-1.69,2.62-2.41,4-2.66,5.2-9,7.5-14.85,7.49S27,93.4,21.25,92.54l-1-.13c-.86,2.49-1.39,5-.94,6.62,1.21,4.41,50.51,5.29,53.7,2.1s-1.32-16-1.32-16,7.7,3.74,9.35,0c.7-1.58-1-4.79-3.2-8,10.33-7,16.85-18.09,16.85-32.78C94.67,24,83.82,8.51,66.66,2.61Z"/><path class="cls-5" d="M29.89,7.31A3.11,3.11,0,0,1,32,7.47c1,.58,1.13,2,.95,3.13-.63,3.94-3.3,7.22-6.08,10.09a23.65,23.65,0,0,1-5,4.18c-2.44,1.41-5.5,2.07-8.15.84-2-.94-3.38-2.72-2.76-5s2.65-4.4,4.38-6a28.45,28.45,0,0,1,6.27-4.51A27,27,0,0,1,29.89,7.31Z"/><path class="cls-5" d="M38.58,5.18A4.82,4.82,0,0,0,37,5.64a1.8,1.8,0,0,0-1,1.23,1.76,1.76,0,0,0,.8,1.66,4,4,0,0,0,1.82.6,11.17,11.17,0,0,0,8.56-2.58,1,1,0,0,0,.44-.67c0-.34-.3-.6-.6-.76a5.49,5.49,0,0,0-2.8-.53,34.67,34.67,0,0,0-3.66.28C40,5,39.27,5.06,38.58,5.18Z"/></g></g></g></svg>