<svg xmlns="http://www.w3.org/2000/svg" xmlns:xlink="http://www.w3.org/1999/xlink" viewBox="0 0 35.2 34.28"><defs><style>.cls-1{isolation:isolate;}.cls-2{fill:#ffd400;}.cls-10,.cls-11,.cls-12,.cls-13,.cls-14,.cls-15,.cls-16,.cls-17,.cls-2,.cls-3,.cls-4,.cls-5,.cls-6,.cls-7,.cls-8,.cls-9{fill-rule:evenodd;}.cls-3{fill:url(#radial-gradient);}.cls-13,.cls-14,.cls-4{mix-blend-mode:multiply;}.cls-4{fill:url(#radial-gradient-2);}.cls-15,.cls-16,.cls-17,.cls-5,.cls-6,.cls-7{mix-blend-mode:screen;}.cls-5{fill:url(#radial-gradient-3);}.cls-6{fill:url(#radial-gradient-4);}.cls-7{fill:url(#radial-gradient-5);}.cls-8{fill:#848484;}.cls-9{fill:url(#radial-gradient-6);}.cls-10{fill:url(#radial-gradient-7);}.cls-11{fill:url(#radial-gradient-8);}.cls-12{fill:url(#radial-gradient-9);}.cls-13{fill:url(#radial-gradient-10);}.cls-14{fill:url(#radial-gradient-11);}.cls-15{fill:url(#radial-gradient-12);}.cls-16{fill:url(#radial-gradient-13);}.cls-17{fill:url(#radial-gradient-14);}</style><radialGradient id="radial-gradient" cx="10.63" cy="6.38" r="31.19" gradientUnits="userSpaceOnUse"><stop offset="0" stop-color="#fcf800"/><stop offset="1" stop-color="#fc9700"/></radialGradient><radialGradient id="radial-gradient-2" cx="14.68" cy="9.41" r="29.73" gradientUnits="userSpaceOnUse"><stop offset="0" stop-color="#fff"/><stop offset="0.1" stop-color="#fffdf9"/><stop offset="0.22" stop-color="#fff7e9"/><stop offset="0.36" stop-color="#ffeccf"/><stop offset="0.51" stop-color="#ffdeaa"/><stop offset="0.67" stop-color="#ffcc7a"/><stop offset="0.84" stop-color="#ffb641"/><stop offset="1" stop-color="#ff9d00"/></radialGradient><radialGradient id="radial-gradient-3" cx="6.74" cy="0.44" r="27.37" gradientUnits="userSpaceOnUse"><stop offset="0" stop-color="#fff261"/><stop offset="0.11" stop-color="#faee5f"/><stop offset="0.23" stop-color="#ede15a"/><stop offset="0.36" stop-color="#d6cb52"/><stop offset="0.5" stop-color="#b7ad46"/><stop offset="0.64" stop-color="#8e8736"/><stop offset="0.78" stop-color="#5c5823"/><stop offset="0.92" stop-color="#23210d"/><stop offset="1"/></radialGradient><radialGradient id="radial-gradient-4" cx="6.84" cy="1.5" r="19.82" gradientUnits="userSpaceOnUse"><stop offset="0" stop-color="#fffacf"/><stop offset="1"/></radialGradient><radialGradient id="radial-gradient-5" cx="20.2" cy="28.79" r="12.76" gradientUnits="userSpaceOnUse"><stop offset="0"/><stop offset="0.08" stop-color="#232112"/><stop offset="0.22" stop-color="#5c582e"/><stop offset="0.36" stop-color="#8e8747"/><stop offset="0.5" stop-color="#b7ae5c"/><stop offset="0.64" stop-color="#d6cc6c"/><stop offset="0.77" stop-color="#ede277"/><stop offset="0.89" stop-color="#faef7e"/><stop offset="1" stop-color="#fff380"/></radialGradient><radialGradient id="radial-gradient-6" cx="24.31" cy="9.08" r="14.53" gradientUnits="userSpaceOnUse"><stop offset="0" stop-color="#fcac00"/><stop offset="1" stop-color="#ff7300"/></radialGradient><radialGradient id="radial-gradient-7" cx="17.16" cy="30.5" r="13.35" gradientUnits="userSpaceOnUse"><stop offset="0" stop-color="#fc8f00"/><stop offset="1" stop-color="#e86900"/></radialGradient><radialGradient id="radial-gradient-8" cx="31.54" cy="19.88" r="16.69" xlink:href="#radial-gradient-6"/><radialGradient id="radial-gradient-9" cx="7.41" cy="37.16" r="13.36" xlink:href="#radial-gradient-7"/><radialGradient id="radial-gradient-10" cx="18.91" cy="23.08" r="16.86" gradientUnits="userSpaceOnUse"><stop offset="0" stop-color="#fff"/><stop offset="0.1" stop-color="#fefbf9"/><stop offset="0.22" stop-color="#fbf0e9"/><stop offset="0.36" stop-color="#f6decf"/><stop offset="0.51" stop-color="#f0c4aa"/><stop offset="0.67" stop-color="#e7a47a"/><stop offset="0.84" stop-color="#dd7c41"/><stop offset="1" stop-color="#d15000"/></radialGradient><radialGradient id="radial-gradient-11" cx="20.01" cy="19.77" r="16.03" xlink:href="#radial-gradient-10"/><radialGradient id="radial-gradient-12" cx="32.61" cy="9.97" r="7.29" xlink:href="#radial-gradient-3"/><radialGradient id="radial-gradient-13" cx="6.85" cy="27.45" r="7.47" xlink:href="#radial-gradient-3"/><radialGradient id="radial-gradient-14" cx="30.38" cy="27.67" r="7.92" xlink:href="#radial-gradient-3"/></defs><title>Asset 1</title><g class="cls-1"><g id="Layer_2" data-name="Layer 2"><g id="Layer_1-2" data-name="Layer 1"><path class="cls-2" d="M27.88,34.24a1.11,1.11,0,0,0,1.37-1c.2-3-1.46-8.82-1-10.17S33.44,18,35,15.45a1.09,1.09,0,0,0,.12-.93,1.12,1.12,0,0,0-.64-.69c-2.79-1.12-8.84-1.34-10-2.17C23.6,11,19.23,1.38,17.53.4c-.29-.17-.63.13-.85.39-1.92,2.3-3,10-4.16,10.87S3.7,11.11.91,12.23a1.06,1.06,0,0,0-.63.68c-.28.84,5.81,7,6.47,7.7a9.63,9.63,0,0,1,2.06,2.46c.44,1.35-1.23,7.18-1,10.17a1.07,1.07,0,0,0,.45.82,1.08,1.08,0,0,0,.92.18c2.92-.73,7.94-4.11,9.36-4.11s6.44,3.38,9.36,4.11Z"/><path class="cls-3" d="M26,31.8a1.07,1.07,0,0,0,.92-.17,1.09,1.09,0,0,0,.45-.82c.21-3-1.45-8.83-1-10.17S31.6,15.55,33.2,13a1.09,1.09,0,0,0,.11-.93,1,1,0,0,0-.64-.68c-2.78-1.13-8.84-1.35-10-2.18S19.46,2.7,17.53.4a1.08,1.08,0,0,0-.85-.4,1,1,0,0,0-.84.4c-1.93,2.3-4,8-5.16,8.82s-7.2,1-10,2.18a1,1,0,0,0-.64.68A1.06,1.06,0,0,0,.17,13c1.6,2.54,6.37,6.28,6.8,7.63S5.75,27.81,6,30.81a1.1,1.1,0,0,0,.46.82,1.07,1.07,0,0,0,.92.17c2.91-.73,7.94-4.11,9.35-4.11S23.13,31.07,26,31.8Z"/><path class="cls-4" d="M32.06,12.87c-3.37,2.41-5.26,3.86-8.2,5.8a1.29,1.29,0,0,0-.64,1.27c.86,2.8,3.33,7.28,3.5,10.08.11,1.64-1.3,1.14-2.12.79-2.85-1.23-4.77-3-7.5-4.36a2.37,2.37,0,0,0-2.69.23c-1.65,1.07-4.58,3.7-7,4.47-.69.21-1.12.16-1.4-.15a1.13,1.13,0,0,0,.43.63,1.07,1.07,0,0,0,.92.17c2.91-.73,7.94-4.11,9.35-4.11S23.13,31.07,26,31.8a1.07,1.07,0,0,0,.92-.17,1.09,1.09,0,0,0,.45-.82c.21-3-1.45-8.83-1-10.17S31.6,15.55,33.2,13a1.09,1.09,0,0,0,.11-.93,1,1,0,0,0-.64-.68c-2.78-1.13-8.84-1.35-10-2.18S19.46,2.7,17.53.4a1.08,1.08,0,0,0-.85-.4,1,1,0,0,0-.84.4,9.34,9.34,0,0,0-.91,1.29c.84-.88,1.71-1.43,2.49-.21a30.14,30.14,0,0,1,2.86,7c.49,1.43.78,2,3.59,2.21,3.23.22,5.9.44,7.82.77,1.06.17,1.08.92.37,1.43Z"/><path class="cls-5" d="M14.82,2.35C13.91,4,13.11,5.89,12.26,7.62c-.73,1.47-1,2.34-2.81,2.65-2.25.38-4.54.45-6.79.81-2.44.39-3,.95-1.24,2.9,1.05,1.16,5.84,5.5,6.16,6.56s-.24,2.66-.29,3.75c0,.51.18,1.27,1,.33,6.61-7.3,8.3-8.67,17.93-11.88,1-.34,2.09-.6,3.14-.92.29-.08.69-.37-.17-.49-3-.41-5.42-.08-8-.32-1.16-.1-1.91-1.5-2.26-2.47-.76-2.06-1.16-4.23-1.88-6.3-.57-1.62-1.61-1-2.23.11Z"/><path class="cls-6" d="M7.12,11.87c-.62-.12-.46-.77.11-.9.92-.22,1.89-.26,2.81-.48a2.63,2.63,0,0,0,2.07-1.68c1-2,2-4.66,3-6.47.38-.65.81-.55.71.18a50.25,50.25,0,0,1-1.52,6.82c-.33,1.16-.7,2.41-2.3,2.6a21.35,21.35,0,0,1-4.92-.07Zm-2.27-.74a13.7,13.7,0,0,0-3.07.54c-1,.33-.77.55.11.59a22.11,22.11,0,0,0,2.82,0c1.32-.1,1.14-1.19.14-1.11Z"/><path class="cls-7" d="M23.81,29.09c-.44.18-1.49.41-.22,1.11a8.25,8.25,0,0,0,1.72.69c1.28.37,1.29-.55,1.09-1.48a30.33,30.33,0,0,0-2-5.68c-.35-.8-.79-1.22-.65.05.16,1.45.42,2.88.56,4.32.07.66,0,.75-.54,1Z"/><path class="cls-8" d="M6.15,31.36a13.73,13.73,0,0,0,2.09,2.7,1.08,1.08,0,0,0,.92.18c2.92-.73,7.94-4.11,9.36-4.11s6.44,3.38,9.36,4.11a1.11,1.11,0,0,0,1.37-1c.2-3-1.46-8.82-1-10.17S33.44,18,35,15.45a1.09,1.09,0,0,0,.12-.93,13.34,13.34,0,0,0-2.08-2.86c0,.08.21.33.24.42a1.09,1.09,0,0,1-.11.93c-1.6,2.54-6.37,6.28-6.81,7.63s1.23,7.17,1,10.17a1.09,1.09,0,0,1-.45.82,1.07,1.07,0,0,1-.92.17c-2.91-.73-7.94-4.11-9.36-4.11s-6.44,3.38-9.35,4.11a1.07,1.07,0,0,1-.92-.17,2.2,2.2,0,0,1-.26-.27Z"/><path class="cls-9" d="M26.39,20.64l1.84,2.43c.45-1.35,5.21-5.08,6.8-7.62a1.09,1.09,0,0,0,.12-.93,1.17,1.17,0,0,0-.11-.23,15.36,15.36,0,0,0-2-2.63c0,.08.21.33.24.42a1.09,1.09,0,0,1-.11.93c-.08.11-.15.23-.24.35-1.78,2.53-6.15,6-6.57,7.28Z"/><path class="cls-10" d="M28.23,23.07l-1.84-2.43c-.43,1.34,1.23,7.17,1,10.17a1.09,1.09,0,0,1-.45.82l-.07,0,1.84,2.44.06,0a1.05,1.05,0,0,0,.46-.82c.2-3-1.46-8.82-1-10.17Z"/><path class="cls-11" d="M26,31.8c-2.91-.73-7.94-4.11-9.36-4.11l1.85,2.44c1.42,0,6.44,3.38,9.35,4.11a1.06,1.06,0,0,0,.85-.13l-1.84-2.44a1.06,1.06,0,0,1-.85.13Z"/><path class="cls-12" d="M9.16,34.24c2.92-.73,7.94-4.11,9.36-4.11h0l-1.85-2.44c-1.34,0-5.91,3-8.86,4-.17.06-.34.1-.49.14a1.07,1.07,0,0,1-.92-.17,2.2,2.2,0,0,1-.26-.27,15,15,0,0,0,2,2.59l.13.11a1.08,1.08,0,0,0,.92.18Z"/><path class="cls-13" d="M19.83,30.06A2.26,2.26,0,0,0,17.29,30c-2.37,1.06-5.41,3.17-7.66,3.73a2,2,0,0,1-2-.22,4.18,4.18,0,0,0,.59.6,1.08,1.08,0,0,0,.92.18c2.92-.73,7.94-4.11,9.36-4.11s6.44,3.38,9.36,4.11a1.08,1.08,0,0,0,.4,0,8.71,8.71,0,0,1-2.21-.86c-2-1-4.36-2.43-6.24-3.35Z"/><path class="cls-14" d="M28.94,21.19c-1.4,1.33-1.49,1.67-1.18,3.6.42,2.6,1.06,5.38,1.28,8A2.85,2.85,0,0,1,29,33.92a1.11,1.11,0,0,0,.29-.68c.2-3-1.46-8.82-1-10.17S33.44,18,35,15.45a1.09,1.09,0,0,0,.12-.93A8.38,8.38,0,0,0,34.2,13c.58,1.23.45,2.62-1.25,4.38-1.28,1.32-2.69,2.51-4,3.79Z"/><path class="cls-15" d="M33.09,13.6c.95-.18,1.52,1.26,1.46,2.05a3.14,3.14,0,0,1-.33.9,11.36,11.36,0,0,0,.81-1.1,1.09,1.09,0,0,0,.12-.93,1.17,1.17,0,0,0-.11-.23,15.36,15.36,0,0,0-2-2.63c0,.08.21.33.24.42a1.09,1.09,0,0,1-.11.93c-.08.11-.15.23-.24.35l-.32.44a1.3,1.3,0,0,1,.45-.2Z"/><path class="cls-16" d="M7.91,32.26a1.45,1.45,0,0,1-.12-.19.52.52,0,0,1,0-.38l-.41.11a1.07,1.07,0,0,1-.92-.17,2.2,2.2,0,0,1-.26-.27,15,15,0,0,0,2,2.59l.13.11a1.08,1.08,0,0,0,.92.18c.27-.07.56-.16.86-.27a1.26,1.26,0,0,1-.94-.4,13.19,13.19,0,0,1-1.17-1.31Z"/><path class="cls-17" d="M26.2,32.07a12,12,0,0,1,1,1.32c.2.28.41.64.25.74l.4.11a1.06,1.06,0,0,0,.91-.18,1.08,1.08,0,0,0,.41-.54.55.55,0,0,1-.41-.21c-.34-.41-.66-.83-1-1.26a1.49,1.49,0,0,1-.42-1.11A1.1,1.1,0,0,1,26,31.8l-.28-.07a2.07,2.07,0,0,1,.44.34Z"/></g></g></g></svg>