<svg id="Layer_1" data-name="Layer 1" xmlns="http://www.w3.org/2000/svg" viewBox="0 0 3536.69 2539.92"><defs><style>.cls-1{fill:#1c1c1b;}.cls-2{fill:#3a6;}.cls-3{fill:#ee9a27;}.cls-4{fill:#f4f4f4;}</style></defs><title>senator1</title><path class="cls-1" d="M3769.49,1072.75c5.73,1.17,7.56,8,5.21,12.63-53.4,106.15-168.66,154.34-281.31,115.27a8.79,8.79,0,0,1-5.86-6.65q-29.51,17.58-58.22,36c77.23-12.11,156,12.24,218.28,62.51,3.65,3,3.39,9.9,0,13-78.8,69.93-227.79,66.16-277.28-36a1444.17,1444.17,0,0,0-124.5,96.64c79.7-38.94,169.7-29.31,239.24,29.56,4.82,4,2.74,11.59-1.82,14.59-84.92,55.87-209.94,87.39-277.93-7.3a1133,1133,0,0,0-81.53,85.7c-8.07,9.38-16.15,19.15-24.09,28.91,84.39-41,180.51-30.86,260,31.52,4.82,3.78,2.35,10.81-1.82,13.68-92.73,65.11-210.07,86.47-302.28,12a1158,1158,0,0,0-83.22,130c28-14.58,66.16-23.18,84.91-26.69,64.86-12.38,122.69,13.15,179.6,41.54,4.56,2.35,5.6,9.9,1.69,13.29-80.22,68.76-204,82.7-288,13.8-28.52,59.26-50.53,120.86-62,183.77,25.91-.26,51.83-.39,77.75-.92,7.29,0,13.41,9,8.85,15.5-27.35,38.29-56.13,75.67-86.47,111.75.13.52.26.91.39,1.56,6,74.23,27.22,133.1,72.54,192.62,3.91,5.08-4.17,10.42-8.47,6.51-49.23-44.93-80.61-113.3-81.66-180.64-9.5,10.94-19,21.75-28.78,32.3a9,9,0,0,1-8.2,3,1183,1183,0,0,1,22.4,142.87c27,278.31-20.06,543.35-203.82,761.5-175.17,207.86-429.92,328.06-698.47,354.76-264.9,26.31-592.84-21.49-790.93-214.37a12,12,0,0,1-2.21-3.25c-119.3,70.58-630.22,333-658.09,118.64-18.76-53.66,36.85-88.43,109.53-110.7q-13.48.59-27,.78c-75.67,1.56-155.64-.39-226.23-30.86-60.95-26.31-142.6-113.57-107.57-177.39a4.74,4.74,0,0,1,1.69-5.73c1.17-.91,2.48-1.69,3.65-2.6,7.16-9.64,17.32-18.63,31.13-26.7,3.9-2.22,8.07,2.08,6.64,5.6,33.6-13.29,69.67-15.5,106-12.37-55.48-26.83-104.19-61.74-135.19-107.45-28.52-41.94-40.37-103.54-6.25-146.39,24-30.08,61.73-40.76,96.12-26.7,41.54,4.3,78,25.27,116.82,47.28q66.23,37.52,132.06,75.8C593,2741,582.71,2726.12,575,2710.1c-31.65-66,5.47-167.88,91.16-140.27a6.62,6.62,0,0,1,2.74,1.83c24,5.6,47.28,17.06,64.6,33.07a4.69,4.69,0,0,1,1.56,3.65c38,22.92,73.45,52.36,96.64,68.12,111.09,75,236.12,183.24,375.47,192.62-46.75-17.58-87.65-47.93-96.38-100.94-10.15-61.47,37.64-102.49,90-122.81-90.39-2.74-200.18-23.57-240.68-109.27-35.69-75.54,13.67-125,76.58-146.26-106.4-5-218-36.46-270.37-135.7-52-98.33,15.75-156.55,99.24-175.17-113.31-13.81-244.07-65.25-297.73-159.94-49-86.34,16.54-170.87,100.81-179.07-70.07-30.22-139.75-80-185.46-138.7-36.6-47-58.48-126.59,1-167.36,64.47-44.15,186.11-32.43,258.65-27,106.67,8,211.38,34.25,310.88,73.07,87.26,34,170,77.1,249.14,126.72-12.63-35.3-1.56-78.41,30.35-101.07,28.39-20.45,66.42-25.92,103.54-21.75-64-42.06-128.55-102.76-132.45-166.7-4.43-75,70.2-110.83,135.44-104.58-84-69.81-132.19-190.28-82.18-294.08,69.29-143.78,224.79-67.46,308.54,16.41,248.62,248.89,447.88,554.68,550,892.65,62.25-73.2,159-117.09,255-115,150.69,3.52,245.5,99.11,304,221.4,31.78-2.08,63.68-2.86,95.59-3.38,1.17-61.35,25.14-121.25,53.27-177.13-78.14-71.24-91.56-189.49-46.23-282.61,3.12-6.64,12.37-5.34,15.75,0,39.34,60.43,81,135.71,71.11,207.21a1279,1279,0,0,1,75.8-117.35c-84.26-74.88-58-193.14,4.17-275.06,4-5.47,11.59-6.25,15.63,0,42.2,65.25,51.83,142,28.52,211.77.26-.13.39-.39.52-.52a1318.54,1318.54,0,0,1,96.9-105.76c-43.89-110.7-16-212.81,71.5-289.12,5.6-4.82,13.67-2.87,16,4.16,27,81.79,20.57,164.23-27.87,229.74a1191.52,1191.52,0,0,1,106.27-82c-26.18-29.56-2.6-104.71,9.64-133.88,24.48-58.48,69.15-103.67,126.2-130.76,4.82-2.34,12.5-.78,13.54,5.6,12.24,71,0,142.61-41.54,194.71,12.63-6.52,25.26-12.9,38.16-18.76a8,8,0,0,1,4.55-.52C3544.57,1064.16,3671.68,1051.52,3769.49,1072.75ZM3739.41,1085c-89.48-13.15-173.74,7.56-225.18,89.09C3589.11,1144,3664,1113.39,3739.41,1085ZM3508.5,1333.75c18.75.52,109.53-3.78,105.36-37.9-75.8,6.64-157.07-6.64-228.44-32C3415.38,1307.57,3454.06,1332.19,3508.5,1333.75Zm.65-147.17c95.07,27,188.45-7.68,239.5-90.65C3671.42,1131.36,3590.15,1160.92,3509.15,1186.58Zm97.8,95.2c-20.57-22-86.47-32.69-109.39-35.68-33.87-4.43-66.69-2.22-99.51,4.43-2.73,1.82-5.47,3.64-8.07,5.47C3462.65,1272.15,3533,1278.79,3607,1281.78Zm-225.44-49.49c76.58-45.84,111.49-117,105.63-202.13C3446.76,1095.41,3414.72,1163.27,3381.51,1232.29ZM3233.82,1383c72.29,7,144.57,11.2,217.24,10.29C3386.72,1350.55,3302.85,1345,3233.82,1383Zm214.77,26.44c-77.23.65-153.81-4.69-229.87-18.63-.13,0-.13-.13-.26-.13v.13C3276.41,1469.59,3373.18,1450.7,3448.59,1409.42Zm-80.75-167.23c21.23-80.36,62.64-156.81,108.75-225.57-34.78,20.45-63.56,48.19-84.53,83.87-16,27.61-52.35,110.31-29.17,146.26,1.69-1.17,3.39-2.21,5.08-3.39C3368,1243,3367.71,1242.58,3367.84,1242.19Zm-35.56,317.13c0-.52-.13-1-.13-1.56-86.34,7.94-177,6.9-263.86,3.38,44.93,35.95,97.68,49.49,154.72,40.9C3242.81,1599,3329.29,1582,3332.28,1559.32Zm-258.78-8.6c83.35-6.51,170-10.68,253.31-6.51-22.92-26.31-111.48-36.73-126.46-36.59-46.1.52-88.82,16.27-125.94,42.06A3.5,3.5,0,0,0,3073.5,1550.72Zm138.31-199.78c52.36-57.7,68.12-129.46,52.75-204C3249.45,1215.36,3232.39,1284,3211.81,1350.94Zm39.86-217.37c-28.92,27.61-52.1,57.18-62.26,98.85-12.24,50.41-6.25,101.33,4.43,151.34l3.65-3.65c-4.69-1.56-7.69-7.29-3-11.59,1.7-1.56,3.13-3.12,4.69-4.69v-1.3C3212.6,1285.69,3231.22,1209,3251.67,1133.57ZM3203,1739.7a17.8,17.8,0,0,0,2.47-8.6,7.25,7.25,0,0,1-4.3,1.83c-80.22,6.77-161.88,4.16-242-3.13a14.18,14.18,0,0,0-.78,1.43c36,29.83,79.71,44.54,126.59,44.28C3111.66,1775.25,3187.46,1766.92,3203,1739.7Zm-3.52-21.36c-24.48-23-115.91-28.52-137.92-24.62-19,3.39-62,12.77-89.34,27.35C3048.11,1722,3123.64,1719.9,3199.44,1718.34Zm-140.39-192.75c30.73-63.69,31.9-134.8,2.6-199C3034.69,1392.36,3064.52,1458.52,3059.05,1525.59Zm-6.52-217.11a10.74,10.74,0,0,0-.91-1.69c-52.22,75.54-68.63,169-5.6,242.63,1.17-1.82,2.22-3.78,3.39-5.73-6.38-75.54-36.34-160.45.39-232.21A7.74,7.74,0,0,1,3052.53,1308.48ZM2936,1711.31c28.39-71.11-3.91-143.26-43.37-207.73C2904.45,1573.65,2918.52,1642.41,2936,1711.31Zm-7.68,16.54a6.56,6.56,0,0,1-1.43-2.48,1251.15,1251.15,0,0,1-43.11-221.27c-29.05,80.22-10.68,163.58,40.5,231.17C2925.68,1732.8,2926.86,1730.32,2928.29,1727.85Zm17.58,222.7c-20.84.39-41.81.91-62.64,1.17-2.22,1.83-5.6,1.83-8.34.26-30.48.53-61.08.66-91.56-.12,19.93,45.06,35.17,93.11,46.76,141.17C2870.85,2047.06,2909.66,1999.91,2945.87,1950.55ZM2647.1,2983.47c167.1-206.95,208.91-456.88,185.59-716.57-11.72-130.11-33.34-267.51-108.88-377.56-75.27-109.66-199.91-178.95-333.79-145.08C2268.11,1775,2187.5,1871.11,2166.14,1993c-20.06,114.09-2.87,233.26-56.26,339.92a6.83,6.83,0,0,1-3.65,3.26c-2.35,7.68-12.5,13.15-20.06,5.86-261.51-254.75-513.78-541.14-827.66-733.11-155.89-95.33-332.1-164.75-515.61-179.34-87-6.9-321.55-19.53-262.82,125.55,35.95,88.95,149,142.22,227.66,186.37l.39.39c2.21.39,4.43.78,6.51,1.3,8.08,2,6.25,14.33-1.82,14.2-68.25-.78-153.29,34.77-136.36,119.82C586,1925.42,635.33,1961,674,1985.07c81.14,50.92,168.92,70.84,263.6,75.66,11.2.52,13.41,13.55,7,19.28a7.88,7.88,0,0,1-7,7.55C869.1,2095.9,754.1,2105,773.38,2210.64c7.68,43,46.49,83,81,106.53,75.53,51.71,167.87,54.18,256,53.4,12.25-.13,12.12,18.23,0,18.88-.39,0-.91.13-1.3.13a7.72,7.72,0,0,1-1,.52c-35.43,8.86-76.58,12.25-105.1,37.51-61.21,53.92-22.4,120.08,29.43,154.07,62,40.64,138.44,39.47,209.42,43.37,11.85.65,12.9,16.54,3.13,19.67-.13.13-.13.26-.26.26-56.53,27-137.79,63.16-104.19,141.31,23,53.91,82,69,135,80.09a3.79,3.79,0,0,1,1.18.26c5.47,1,10.81,2.22,16,3.26,12.63,2.6,7,20.71-5.21,18.88-3.78-.52-7.69-1.17-11.59-1.82-105.37,17.84-200.44-24.74-288.22-79.71C931,2771.7,876.4,2732.5,821.05,2694.73c-46.11-31.65-135.06-115-199.66-94.94a70.84,70.84,0,0,0-3.77,6.25q-42.4,13.47-30.22,51.31c1.43,30.09,9.77,48.19,28.39,71.76,21.23,26.83,49.36,47.54,77.88,66.16,51.45,33.47,107.84,55.74,166.84,71.76,9.24,2.48,5.08,15.63-3.91,14.07-53-9.12-115.39-29-169.44-60.17a9.21,9.21,0,0,1-9.51,0c-54.17-30.35-107.57-62.12-161.23-93.38-59.26-34.77-120.6-83.09-191.32-85.7-92.47,10.29-62.12,137.27-8.85,186.11,29.69,27.22,67.85,47.67,103.92,65,41.16,19.93,83.88,34.77,127,48.71,97,23.44,193.92,48.06,291,72,12.24,3.13,7,22.14-5.34,19q-107.44-26.58-215-53.27a1060.34,1060.34,0,0,1-127.11-31.78c-71.63-17.06-142.22-27.48-213.59.65-35.81,59.52,14.2,123.73,72.94,154.46,52.61,27.61,113,35,171.52,37.38,108.23,4.17,214.76-10.68,322.47-18a3.89,3.89,0,0,1,3.77,1.82,36.83,36.83,0,0,0,3.91-.26c11.07-.52,10.94,16.54,0,17.32-19.14,1.31-52.09,3.39-90,7.95-12.38,1.82-24.62,3.51-37,4.95-97.55,14.71-208.51,46.23-206.69,117.73,47.8,129.46,244.85,31.91,333.54-1.69,107.71-40.77,209.81-92.86,315.44-138.44a8.42,8.42,0,0,1,11.85,6.25,8.67,8.67,0,0,1,2.47,1.56c214.11,205.38,578,243.67,858.4,194.57C2276.58,3292.52,2495.51,3171.53,2647.1,2983.47ZM2199,1849.75a11.62,11.62,0,0,1-2.87-4.82c-80.09-261.52-213.59-501-385.37-713.31q-62.33-77-130.37-148.73c-58.47-61.73-130.5-141.83-224.66-117.87-71.63,18.24-100.15,94.43-93.9,163.45,7.43,80.1,56.92,148,120.34,193.66,8.6,6.26.91,20.45-8.59,14.59-.14,0-.14-.13-.27-.13-42.19-8.86-94.16-7.55-125,27.74-46.63,53.27-.52,103.93,33.6,140.14,35,37.38,75.93,66.94,117.6,95.85a191.31,191.31,0,0,1,26.31,13.42c3.39,2.08,2.61,6.51-.13,8.2a6.6,6.6,0,0,1-9.51,5.6c-8.72-3.91-18.49-8.59-28.52-13.8-36.73-8.34-74.37-13.16-111.22-3.52-57.18,15-70.46,72.28-37.38,116.69a7.14,7.14,0,0,1,1.56,4c283.4,187.28,521.21,455.57,758,689.22,55.49-146,6.91-319.48,90.52-455.57C2192.19,1859.52,2195.57,1854.57,2199,1849.75Z" transform="translate(-239.01 -838.04)"/><path class="cls-2" d="M3514.23,1174.08c51.44-81.53,135.7-102.24,225.18-89.09C3664,1113.39,3589.11,1144,3514.23,1174.08Z" transform="translate(-239.01 -838.04)"/><path class="cls-2" d="M3613.86,1295.85c4.17,34.12-86.61,38.42-105.36,37.9-54.44-1.56-93.12-26.18-123.08-69.94C3456.79,1289.21,3538.06,1302.49,3613.86,1295.85Z" transform="translate(-239.01 -838.04)"/><path class="cls-2" d="M3748.65,1095.93c-51.05,83-144.43,117.61-239.5,90.65C3590.15,1160.92,3671.42,1131.36,3748.65,1095.93Z" transform="translate(-239.01 -838.04)"/><path class="cls-2" d="M3497.56,1246.1c22.92,3,88.82,13.67,109.39,35.68-74-3-144.3-9.63-217-25.78,2.6-1.83,5.34-3.65,8.07-5.47C3430.87,1243.88,3463.69,1241.67,3497.56,1246.1Z" transform="translate(-239.01 -838.04)"/><path class="cls-2" d="M3487.14,1030.16c5.86,85.18-29,156.29-105.63,202.13C3414.72,1163.27,3446.76,1095.41,3487.14,1030.16Z" transform="translate(-239.01 -838.04)"/><path class="cls-2" d="M3451.06,1393.27c-72.67.91-144.95-3.26-217.24-10.29C3302.85,1345,3386.72,1350.55,3451.06,1393.27Z" transform="translate(-239.01 -838.04)"/><path class="cls-2" d="M3218.72,1390.79c76.06,13.94,152.64,19.28,229.87,18.63-75.41,41.28-172.18,60.17-230.13-18.63v-.13C3218.59,1390.66,3218.59,1390.79,3218.72,1390.79Z" transform="translate(-239.01 -838.04)"/><path class="cls-2" d="M3476.59,1016.62c-46.11,68.76-87.52,145.21-108.75,225.57-.13.39.13.78.13,1.17-1.69,1.18-3.39,2.22-5.08,3.39-23.18-36,13.15-118.65,29.17-146.26C3413,1064.81,3441.81,1037.07,3476.59,1016.62Z" transform="translate(-239.01 -838.04)"/><path class="cls-2" d="M3332.15,1557.76c0,.52.13,1,.13,1.56-3,22.66-89.47,39.72-109.27,42.72-57,8.59-109.79-5-154.72-40.9C3155.16,1564.66,3245.81,1565.7,3332.15,1557.76Z" transform="translate(-239.01 -838.04)"/><path class="cls-2" d="M3326.81,1544.21c-83.35-4.17-170,0-253.31,6.51a3.5,3.5,0,0,1,.91-1c37.12-25.79,79.84-41.54,125.94-42.06C3215.33,1507.48,3303.89,1517.9,3326.81,1544.21Z" transform="translate(-239.01 -838.04)"/><path class="cls-2" d="M3264.56,1147c15.37,74.49-.39,146.25-52.75,204C3232.39,1284,3249.45,1215.36,3264.56,1147Z" transform="translate(-239.01 -838.04)"/><path class="cls-2" d="M3189.41,1232.42c10.16-41.67,33.34-71.24,62.26-98.85-20.45,75.41-39.07,152.12-52.49,229v1.3c-1.56,1.57-3,3.13-4.69,4.69-4.69,4.3-1.69,10,3,11.59l-3.65,3.65C3183.16,1333.75,3177.17,1282.83,3189.41,1232.42Z" transform="translate(-239.01 -838.04)"/><path class="cls-2" d="M3205.43,1731.1a17.8,17.8,0,0,1-2.47,8.6c-15.5,27.22-91.3,35.55-118,35.81-46.88.26-90.64-14.45-126.59-44.28a14.18,14.18,0,0,1,.78-1.43c80.1,7.29,161.76,9.9,242,3.13A7.25,7.25,0,0,0,3205.43,1731.1Z" transform="translate(-239.01 -838.04)"/><path class="cls-2" d="M3061.52,1693.72c22-3.9,113.44,1.57,137.92,24.62-75.8,1.56-151.33,3.65-227.26,2.73C2999.53,1706.49,3042.51,1697.11,3061.52,1693.72Z" transform="translate(-239.01 -838.04)"/><path class="cls-2" d="M3061.65,1326.59c29.3,64.2,28.13,135.31-2.6,199C3064.52,1458.52,3034.69,1392.36,3061.65,1326.59Z" transform="translate(-239.01 -838.04)"/><path class="cls-2" d="M3051.62,1306.79a10.74,10.74,0,0,1,.91,1.69,7.74,7.74,0,0,0-2.73,3c-36.73,71.76-6.77,156.67-.39,232.21-1.17,2-2.22,3.91-3.39,5.73C2983,1475.84,2999.4,1382.33,3051.62,1306.79Z" transform="translate(-239.01 -838.04)"/><path class="cls-2" d="M2892.6,1503.58c39.46,64.47,71.76,136.62,43.37,207.73C2918.52,1642.41,2904.45,1573.65,2892.6,1503.58Z" transform="translate(-239.01 -838.04)"/><path class="cls-2" d="M2926.86,1725.37a6.56,6.56,0,0,0,1.43,2.48c-1.43,2.47-2.61,5-4,7.42-51.18-67.59-69.55-151-40.5-231.17A1251.15,1251.15,0,0,0,2926.86,1725.37Z" transform="translate(-239.01 -838.04)"/><path class="cls-3" d="M2883.23,1951.72c20.83-.26,41.8-.78,62.64-1.17-36.21,49.36-75,96.51-115.78,142.48-11.59-48.06-26.83-96.11-46.76-141.17,30.48.78,61.08.65,91.56.12C2877.63,1953.55,2881,1953.55,2883.23,1951.72Z" transform="translate(-239.01 -838.04)"/><path class="cls-4" d="M2832.69,2266.9c23.32,259.69-18.49,509.62-185.59,716.57-151.59,188.06-370.52,309.05-607.42,350.46-280.4,49.1-644.29,10.81-858.4-194.57a8.67,8.67,0,0,0-2.47-1.56,8.42,8.42,0,0,0-11.85-6.25c-105.63,45.58-207.73,97.67-315.44,138.44-88.69,33.6-285.74,131.15-333.54,1.69-1.82-71.5,109.14-103,206.69-117.73,12.37-1.44,24.61-3.13,37-4.95,37.9-4.56,70.85-6.64,90-7.95,10.94-.78,11.07-17.84,0-17.32a36.83,36.83,0,0,1-3.91.26,3.89,3.89,0,0,0-3.77-1.82c-107.71,7.29-214.24,22.14-322.47,18-58.48-2.34-118.91-9.77-171.52-37.38C291.24,3072,241.23,3007.82,277,2948.3c71.37-28.13,142-17.71,213.59-.65a1060.34,1060.34,0,0,0,127.11,31.78q107.46,26.57,215,53.27c12.37,3.12,17.58-15.89,5.34-19-97-24-193.93-48.58-291-72-43.11-13.94-85.83-28.78-127-48.71-36.07-17.32-74.23-37.77-103.92-65-53.27-48.84-83.62-175.82,8.85-186.11,70.72,2.61,132.06,50.93,191.32,85.7,53.66,31.26,107.06,63,161.23,93.38a9.21,9.21,0,0,0,9.51,0c54.05,31.13,116.43,51.05,169.44,60.17,9,1.56,13.15-11.59,3.91-14.07-59-16-115.39-38.29-166.84-71.76-28.52-18.62-56.65-39.33-77.88-66.16-18.62-23.57-27-41.67-28.39-71.76q-12.1-37.89,30.22-51.31a70.84,70.84,0,0,1,3.77-6.25c64.6-20.06,153.55,63.29,199.66,94.94,55.35,37.77,109.92,77,166.7,112.52,87.78,55,182.85,97.55,288.22,79.71,3.9.65,7.81,1.3,11.59,1.82,12.24,1.83,17.84-16.28,5.21-18.88-5.21-1-10.55-2.22-16-3.26a3.79,3.79,0,0,0-1.18-.26c-53-11.07-112-26.18-135-80.09-33.6-78.15,47.66-114.35,104.19-141.31.13,0,.13-.13.26-.26,9.77-3.13,8.72-19-3.13-19.67-71-3.9-147.43-2.73-209.42-43.37-51.83-34-90.64-100.15-29.43-154.07,28.52-25.26,69.67-28.65,105.1-37.51a7.72,7.72,0,0,0,1-.52c.39,0,.91-.13,1.3-.13,12.12-.65,12.25-19,0-18.88-88.17.78-180.51-1.69-256-53.4-34.52-23.57-73.33-63.55-81-106.53C754.1,2105,869.1,2095.9,937.61,2087.56a7.88,7.88,0,0,0,7-7.55c6.38-5.73,4.17-18.76-7-19.28-94.68-4.82-182.46-24.74-263.6-75.66-38.68-24.1-88-59.65-97.55-107.84-16.93-85,68.11-120.6,136.36-119.82,8.07.13,9.9-12.24,1.82-14.2-2.08-.52-4.3-.91-6.51-1.3l-.39-.39c-78.66-44.15-191.71-97.42-227.66-186.37C421.35,1410.07,655.9,1422.7,742.9,1429.6c183.51,14.59,359.72,84,515.61,179.34,313.88,192,566.15,478.36,827.66,733.11,7.56,7.29,17.71,1.82,20.06-5.86a6.83,6.83,0,0,0,3.65-3.26c53.39-106.66,36.2-225.83,56.26-339.92,21.36-121.9,102-218,223.88-248.75,133.88-33.87,258.52,35.42,333.79,145.08C2799.35,1999.39,2821,2136.79,2832.69,2266.9Zm-237.81-315.18c2.87,11.2,18.75,6.26,17.06-4.68-6.77-41.68-55.87-73.46-95.72-54-33.34,16.28-48.32,63.16-22.8,92.34,4.95,5.6,12.77-1.44,9.77-7.43-11.33-23.05-4.43-55.74,20.19-67.85C2555.16,1894.29,2587.33,1922,2594.88,1951.72ZM1988.1,2291.51c3.78,4.56,11.73-1.43,8.21-6.25-15.63-21.23-36.34-39.07-58.09-53.79-3.9-2.6-7.29,3.52-3.64,6.13C1955.28,2253.22,1971.82,2271.59,1988.1,2291.51Zm-10.29,14.33a4.56,4.56,0,1,0,5.61-7.16c-12.64-9.64-25-20.32-38.3-28.92-3.12-2.08-6.77,2.61-4,5.21C1952.55,2286,1965.57,2295.68,1977.81,2305.84ZM592.48,1482.48c7.68-.52,7.81-12.11,0-12.11-21.75-.13-43.76,6.12-62.51,16.93-4.3,2.47-1.44,10.29,3.38,8.2A181.18,181.18,0,0,1,592.48,1482.48Zm-11.2-18c7.68-.52,7.81-12.12,0-12.12-34.25,0-65.64,16.28-87.26,42.33-3.65,4.43,2.34,10.68,6.38,6.38C522.28,1478.18,550,1466.85,581.28,1464.51Z" transform="translate(-239.01 -838.04)"/><path class="cls-1" d="M2611.94,1947c1.69,10.94-14.19,15.88-17.06,4.68-7.55-29.69-39.72-57.43-71.5-41.67-24.62,12.11-31.52,44.8-20.19,67.85,3,6-4.82,13-9.77,7.43-25.52-29.18-10.54-76.06,22.8-92.34C2556.07,1873.58,2605.17,1905.36,2611.94,1947Z" transform="translate(-239.01 -838.04)"/><path class="cls-4" d="M2196.09,1844.93a11.62,11.62,0,0,0,2.87,4.82c-3.39,4.82-6.77,9.77-9.9,14.85-83.61,136.09-35,309.57-90.52,455.57-236.77-233.65-474.58-501.94-758-689.22a7.14,7.14,0,0,0-1.56-4c-33.08-44.41-19.8-101.71,37.38-116.69,36.85-9.64,74.49-4.82,111.22,3.52,10,5.21,19.8,9.89,28.52,13.8a6.6,6.6,0,0,0,9.51-5.6c2.74-1.69,3.52-6.12.13-8.2a191.31,191.31,0,0,0-26.31-13.42c-41.67-28.91-82.57-58.47-117.6-95.85-34.12-36.21-80.23-86.87-33.6-140.14,30.86-35.29,82.83-36.6,125-27.74.13,0,.13.13.27.13,9.5,5.86,17.19-8.33,8.59-14.59-63.42-45.71-112.91-113.56-120.34-193.66-6.25-69,22.27-145.21,93.9-163.45,94.16-24,166.19,56.14,224.66,117.87q68,71.89,130.37,148.73C1982.5,1343.91,2116,1583.41,2196.09,1844.93Zm-61.6-114.22c2.87,3.78,10.42,1.82,8.47-3.64-6.65-19.67-19.67-39.73-30.74-57.18-3.13-4.82-9.77-.65-7.55,4.3,4.29,9.77,9.5,19.14,14.32,28.65S2128,1722.25,2134.49,1730.71ZM2119,1746c3.65,6.38,12.64.78,9.64-5.6-5.47-11.59-12.37-22.66-18.49-33.86-3-5.34-10.81-.65-8.21,4.82C2107.53,1722.77,2112.61,1734.88,2119,1746Zm-652.49-77.49c4,5,12.11-1.43,8.73-6.77-12.11-18.63-34.51-33.48-56-38.42-3.39-.79-6,4.29-2.48,5.86,9.9,4.42,19.28,9.11,27.87,15.89S1459.6,1660,1466.5,1668.46Zm-10,8.46c6.26,3.65,11.33-5.47,5.6-9.37-25.65-17.85-54.44-31.26-83.35-42.85-4.82-1.83-8.2,6.25-3.51,8.46C1403.47,1645.93,1429.65,1661.42,1456.47,1676.92Z" transform="translate(-239.01 -838.04)"/><path class="cls-1" d="M2143,1727.07c1.95,5.46-5.6,7.42-8.47,3.64-6.51-8.46-10.68-18.49-15.5-27.87s-10-18.88-14.32-28.65c-2.22-5,4.42-9.12,7.55-4.3C2123.29,1687.34,2136.31,1707.4,2143,1727.07Z" transform="translate(-239.01 -838.04)"/><path class="cls-1" d="M2128.63,1740.35c3,6.38-6,12-9.64,5.6-6.38-11.07-11.46-23.18-17.06-34.64-2.6-5.47,5.21-10.16,8.21-4.82C2116.26,1717.69,2123.16,1728.76,2128.63,1740.35Z" transform="translate(-239.01 -838.04)"/><path class="cls-1" d="M1996.31,2285.26c3.52,4.82-4.43,10.81-8.21,6.25-16.28-19.92-32.82-38.29-53.52-53.91-3.65-2.61-.26-8.73,3.64-6.13C1960,2246.19,1980.68,2264,1996.31,2285.26Z" transform="translate(-239.01 -838.04)"/><path class="cls-1" d="M1983.42,2298.68a4.56,4.56,0,1,1-5.61,7.16c-12.24-10.16-25.26-19.8-36.72-30.87-2.74-2.6.91-7.29,4-5.21C1958.41,2278.36,1970.78,2289,1983.42,2298.68Z" transform="translate(-239.01 -838.04)"/><path class="cls-1" d="M1475.23,1661.69c3.38,5.34-4.69,11.72-8.73,6.77-6.9-8.47-13.28-16.67-21.88-23.44s-18-11.47-27.87-15.89c-3.52-1.57-.91-6.65,2.48-5.86C1440.72,1628.21,1463.12,1643.06,1475.23,1661.69Z" transform="translate(-239.01 -838.04)"/><path class="cls-1" d="M1462.07,1667.55c5.73,3.9.66,13-5.6,9.37-26.82-15.5-53-31-81.26-43.76-4.69-2.21-1.31-10.29,3.51-8.46C1407.63,1636.29,1436.42,1649.7,1462.07,1667.55Z" transform="translate(-239.01 -838.04)"/><path class="cls-1" d="M592.48,1470.37c7.81,0,7.68,11.59,0,12.11a181.18,181.18,0,0,0-59.13,13c-4.82,2.09-7.68-5.73-3.38-8.2C548.72,1476.49,570.73,1470.24,592.48,1470.37Z" transform="translate(-239.01 -838.04)"/><path class="cls-1" d="M581.28,1452.39c7.81,0,7.68,11.6,0,12.12-31.26,2.34-59,13.67-80.88,36.59-4,4.3-10-1.95-6.38-6.38C515.64,1468.67,547,1452.39,581.28,1452.39Z" transform="translate(-239.01 -838.04)"/></svg>