<svg xmlns="http://www.w3.org/2000/svg" viewBox="0 0 896.51 614.49"><defs><style>.cls-1{fill:#f9dd29;}</style></defs><title>Asset 2</title><g id="Layer_2" data-name="Layer 2"><g id="Graphic_Elements" data-name="Graphic Elements"><path class="cls-1" d="M386.21,896.22S430.42,825,366,723.73C363.61,729.15,332,817.88,386.21,896.22Z" transform="translate(-151.74 -281.73)"/><path class="cls-1" d="M344.05,867.31s-81,21.52-159.11-69.6C190.83,797,284.93,792.58,344.05,867.31Z" transform="translate(-151.74 -281.73)"/><path class="cls-1" d="M272.86,764.26s-83.15-10.62-121.12-124.45C157.48,641.34,246.29,672.75,272.86,764.26Z" transform="translate(-151.74 -281.73)"/><path class="cls-1" d="M246.09,649.94s-75.32-36.78-74.69-156.77C176.33,496.46,250.34,554.75,246.09,649.94Z" transform="translate(-151.74 -281.73)"/><path class="cls-1" d="M258.12,529s-62.72-55.63-30-171.06C232,362.41,287.72,438.4,258.12,529Z" transform="translate(-151.74 -281.73)"/><path class="cls-1" d="M297,442.88s-35.45-72.09,32.62-161.15C331.42,287.11,353.77,374.44,297,442.88Z" transform="translate(-151.74 -281.73)"/><path class="cls-1" d="M301.67,818.22S369.93,756.3,336,631.91C331.69,636.84,271,716.72,301.67,818.22Z" transform="translate(-151.74 -281.73)"/><path class="cls-1" d="M252.19,679.45s71.56-40.58,74.25-161.55C321.32,521.4,252.37,575.41,252.19,679.45Z" transform="translate(-151.74 -281.73)"/><path class="cls-1" d="M320.54,432.62c20.5-14.9,44.11-25.16,68.45-32.22a59.64,59.64,0,0,1-2.06,15,91.28,91.28,0,0,1-7,17.36c-22.69,44.55-68.78,86.77-119.1,96.66.17-5.66,4-13.26,5.58-18.82C275.49,478.43,293.31,452.4,320.54,432.62Z" transform="translate(-151.74 -281.73)"/><path class="cls-1" d="M376.5,354.5a191.1,191.1,0,0,1,119.26-42.1c1,13.51-16.78,26-26.11,33a198.65,198.65,0,0,1-69.94,34.2c-16.08,4.34-34.15,7.83-50.84,7.8a1.7,1.7,0,0,1-1.38-.43c-.44-.56,0-1.37.4-1.95,3.3-4.58,7.57-8.36,11-12.81A108.46,108.46,0,0,1,376.5,354.5Z" transform="translate(-151.74 -281.73)"/><path class="cls-1" d="M813.79,896.22S769.59,825,834,723.73C836.4,729.15,868,817.88,813.79,896.22Z" transform="translate(-151.74 -281.73)"/><path class="cls-1" d="M856,867.31s81,21.52,159.11-69.6C1009.17,797,915.07,792.58,856,867.31Z" transform="translate(-151.74 -281.73)"/><path class="cls-1" d="M927.14,764.26s83.15-10.62,121.12-124.45C1042.53,641.34,953.72,672.75,927.14,764.26Z" transform="translate(-151.74 -281.73)"/><path class="cls-1" d="M953.91,649.94s75.33-36.78,74.7-156.77C1023.67,496.46,949.67,554.75,953.91,649.94Z" transform="translate(-151.74 -281.73)"/><path class="cls-1" d="M941.88,529s62.72-55.63,30-171.06C968,362.41,912.28,438.4,941.88,529Z" transform="translate(-151.74 -281.73)"/><path class="cls-1" d="M903,442.88s35.46-72.09-32.62-161.15C868.59,287.11,846.23,374.44,903,442.88Z" transform="translate(-151.74 -281.73)"/><path class="cls-1" d="M898.33,818.22s-68.25-61.92-34.28-186.31C868.32,636.84,929,716.72,898.33,818.22Z" transform="translate(-151.74 -281.73)"/><path class="cls-1" d="M947.81,679.45s-71.56-40.58-74.25-161.55C878.68,521.4,947.63,575.41,947.81,679.45Z" transform="translate(-151.74 -281.73)"/><path class="cls-1" d="M879.47,432.62C859,417.72,835.36,407.46,811,400.4a60.1,60.1,0,0,0,2.06,15,91.32,91.32,0,0,0,7,17.36c22.68,44.55,68.77,86.77,119.09,96.66-.16-5.66-4-13.26-5.57-18.82C924.52,478.43,906.69,452.4,879.47,432.62Z" transform="translate(-151.74 -281.73)"/><path class="cls-1" d="M823.5,354.5a191.08,191.08,0,0,0-119.25-42.1c-1,13.51,16.77,26,26.1,33a198.78,198.78,0,0,0,69.95,34.2c16.07,4.34,34.15,7.83,50.84,7.8a1.69,1.69,0,0,0,1.37-.43c.44-.56,0-1.37-.4-1.95-3.3-4.58-7.57-8.36-11-12.81A108.46,108.46,0,0,0,823.5,354.5Z" transform="translate(-151.74 -281.73)"/></g></g></svg>