<svg id="Layer_1" data-name="Layer 1" xmlns="http://www.w3.org/2000/svg" viewBox="0 0 2509.4 2971.18"><defs><style>.cls-1{fill:#feb845;}.cls-2{fill:#f48d40;}.cls-3{fill:#f4ad7d;}.cls-4{fill:#650000;}.cls-5{fill:#b1411e;}.cls-6{opacity:0.3;}.cls-7{fill:#fff;}.cls-8{fill:#963f27;}.cls-9{fill:#e8e8e8;}.cls-10{fill:#ffd4b2;}.cls-11{opacity:0.5;}.cls-12{opacity:0.7;}.cls-13{fill:#fc7e81;}.cls-14{fill:#ff5c64;}.cls-15{fill:#fcd629;}.cls-16{fill:#ffad1d;}.cls-17{fill:#ec0411;}.cls-18{opacity:0.4;}</style></defs><title>Artboard 18</title><path class="cls-1" d="M1761.49,2822c-22,6.1-46.32,10.63-72.71,13.91-124.9,15.58-642-15.57-642-15.57l-71.69-442.93-19.7-121.84-25.7-158.83S1571,1268,1607.38,1630.48c21.54,214.53,51.31,342.06,84.26,428.78,59.73,157.49,129.89,180.55,179.91,346.31C1953.51,2677.1,1904.09,2782.63,1761.49,2822Z"/><path class="cls-2" d="M1761.49,2822c-22,6.1-46.32,10.63-72.71,13.91-124.9,15.58-642-15.57-642-15.57l-71.69-442.93a552.79,552.79,0,0,1,234.22-51.72C1496.07,2325.7,1732,2543.05,1761.49,2822Z"/><path class="cls-2" d="M1691.64,2059.26c-113,68.46-350.61,195.25-579.19,208.29-54.64,3.1-107.29-1.76-157-12l-25.7-158.83S1571,1268,1607.38,1630.48C1628.92,1845,1658.69,1972.54,1691.64,2059.26Z"/><path class="cls-3" d="M1113.93,2267.46c-.51,0-1,0-1.48.09-115.84,6.61-222.85-22.7-311.83-62.36-10.31-148.43-8.78-321.4,11.32-480.64,28.85-34.21,57.92-68.64,86-101.83Z"/><path class="cls-3" d="M1448.22,2183c-24.17,10-49.22,19.6-74.83,28.52-83.21,29-172.74,51-260.94,56-68.27,3.88-133.5-4.67-193.73-20.53a.19.19,0,0,1-.09,0c-4-82.93,19.46-166.73,117.92-196.55,77.29-28.1,152.68-20.75,221.69,6.24,28.94,8,55.79,18.21,78.54,29.68,2.22,4.76,4.3,9.52,6.33,14.28C1382.4,2125.73,1418,2154.85,1448.22,2183Z"/><path class="cls-4" d="M1573,2858.78c-193,0-510.49-19-527.29-20l-14.78-.9-120.71-746.1,4.91-6.35c1.17-1.52,118.45-152.74,253.89-296.36,188.73-200.14,316.79-287,391.52-265.6,37.35,10.71,59.29,46.1,65.23,105.18h0c39.26,391,104.8,487.33,168.17,580.52,33.31,49,67.75,99.61,95.34,191,51.31,170.06,53.54,282.58,7,354.11-35.88,55.17-101.1,86.92-205.22,99.93C1665.18,2857.49,1623.3,2858.78,1573,2858.78Zm-510.3-56c85.27,4.91,513.72,28.59,623.78,14.82,93.77-11.72,148.91-37.44,178.81-83.4,40.14-61.71,36.51-164.43-11.41-323.26-25.95-86-57.32-132.11-90.52-180.93-66-97-134.18-197.3-174.39-597.62h0c-4.27-42.53-17.26-67.2-38.62-73.32-33.37-9.54-123.79,10.88-354.26,255.24-118.63,125.78-223.27,257.54-246.79,287.5Z"/><path class="cls-1" d="M1837.55,2773.27s264.71-25.9,330.35-214.36c77.14-221.47-166.5-415.41,10.25-610.93l-20.5-55.08c-147.14,103.75-165.74,207.65-102.46,468.77,67.88,280.12-227.65,266-227.65,266Z"/><path class="cls-2" d="M2167.9,2558.91c-65.64,188.47-330.37,214.35-330.37,214.35l.06-128.46c77.15-15.94,222,57.06,297.82-109.77,72.07-158.46-162.51-371.54,8.5-569,15.14-14.2-5.87-59.32,13.74-73.16l20.51,55.08C2001.42,2143.5,2245.05,2337.43,2167.9,2558.91Z"/><path class="cls-4" d="M1837.52,2791.76a18.49,18.49,0,0,1-1.79-36.89h0c2.53-.26,253.79-27.13,314.71-202,31.87-91.5,4.8-180.55-21.37-266.67-34-111.84-69.1-227.38,27.9-342.06l-8.11-21.8c-120.68,92.74-135.47,188.37-75.7,435,21.16,87.33,10.79,157.15-30.82,207.54-72,87.14-209.85,81.65-215.68,81.33a18.49,18.49,0,1,1,1.76-36.93c1.23,0,125.46,4.8,185.51-68.07,33.7-40.92,41.54-99.84,23.29-175.16-66-272.17-41.33-381.68,109.78-488.23l19.61-13.83,32.78,88.09-7.53,8.32c-92.16,102-62.16,200.7-27.41,315,27.9,91.8,56.74,186.71,20.91,289.59-68.74,197.36-334.73,225.57-346,226.68C1838.73,2791.73,1838.13,2791.76,1837.52,2791.76Z"/><path class="cls-5" d="M2423.8,1839s-27.42-85.55-132.17-77.18c-89.79,7.16-136.62,75-159.5,126.86-17.62,39.93-1,87,38.09,106.44,37.29,18.59,93.92,30.94,173.37,9,149.17-41.15,148-166.82,145.89-187.27a1,1,0,0,0-1.79-.6c-9.07,9.67-59.72,55.31-179.39,19"/><g class="cls-6"><path class="cls-7" d="M2419.75,1839l-38.19-1.25c-20.42-16-50.56-28.75-94-25.26-89.78,7.17-134.42,57.58-157.3,109.43-1.16,2.6-4.35,22.67-5.2,25.35a82.17,82.17,0,0,1,3-58.57c22.88-51.85,69.72-119.69,159.5-126.85C2392.3,1753.46,2419.75,1839,2419.75,1839Z"/></g><path class="cls-8" d="M2343.61,2004.15c-79.48,21.94-136.08,9.58-173.38-9-39.09-19.48-55.7-66.5-38.11-106.44.63-1.43,1.3-2.91,2-4.39a80.6,80.6,0,0,0,36.09,35.87c37.3,18.58,93.9,30.94,173.38,9,74.38-20.5,111.37-62.06,129.55-101.1a79,79,0,0,0,14.55-11.83,1,1,0,0,1,1.79.59C2491.56,1837.35,2492.77,1963,2343.61,2004.15Z"/><path class="cls-4" d="M2406.19,1844.67c-.41-1.17-1.55-3.89-2.51-5.94-1.12-2.21-2.16-4.44-3.47-6.59a69.59,69.59,0,0,0-4-6.41,65.86,65.86,0,0,0-4.41-6.12,101.54,101.54,0,0,0-21.45-20.73c-16.19-11.49-35.87-17.55-56.6-18.72a160.93,160.93,0,0,0-62.11,9.1c-19.71,7.18-37.52,19-53,33.6s-28.38,32.58-39,51.88l-3.91,7.3-3.62,7.47c-1.26,2.47-2.3,5-3.44,7.58l-1.68,3.81-1.17,3.21a55.84,55.84,0,0,0-3.05,26.5,58.74,58.74,0,0,0,28.17,43.68,72.83,72.83,0,0,0,6.55,3.58c2.33,1.26,4.79,2.28,7.19,3.41,4.85,2.15,9.81,4.09,14.86,5.77a187.26,187.26,0,0,0,31.19,7.5c21.3,3.29,43.34,2.81,65.2-.09a319.06,319.06,0,0,0,32.67-6.45c11-2.45,21.07-6.54,31.54-9.85,20-8.29,39.38-18.05,55.37-31.77a152.88,152.88,0,0,0,38.21-49,50.91,50.91,0,0,0,3.24-7.13l3-7.27c1.76-4.93,3.34-10,4.83-15a183.19,183.19,0,0,0,5.31-31.16l.35-7.81c-.05-2.47,0-5.19-.12-7.45l-.1-1.71,0-.85a11.18,11.18,0,1,0,.22,1.47,18.91,18.91,0,0,0,1.53,4.57,18.37,18.37,0,0,0,25.3,8.09,18.17,18.17,0,0,0,3.83-2.77l.58-.59-.53.53-2.12,2.1-4.21,3.72-4.28,3.34a134,134,0,0,1-36.71,18.8,177.29,177.29,0,0,1-77.19,7.5,212.52,212.52,0,0,1-71-21.66,9.4,9.4,0,0,1,5.11-17.72l.27,0c23.43,2,45.85,4.79,67.83,4.74,21.84.13,43.38-1.55,62.54-8.56a95.87,95.87,0,0,0,25.8-13.81l2.66-2.16,2.37-2.2,1-1,.26-.25,1-1a20.41,20.41,0,0,1,34.1,11,12.71,12.71,0,0,1,.29,2l.1,1.36.2,2.71c.26,3.62.21,6.81.29,10.24l-.34,9.88c-1.85,26-7.89,51.85-19.76,75.44a192.88,192.88,0,0,1-48.36,61.76c-20.07,17.07-43.37,28.85-67,38.15-12,3.77-24,8.29-36.13,10.87a357,357,0,0,1-36.85,6.84c-24.93,3-50.56,3.38-75.95-.62a226.9,226.9,0,0,1-37.52-9.25q-9.18-3.13-18.08-7.15c-2.94-1.39-5.92-2.67-8.78-4.23s-5.72-2.91-8.95-5c-25.24-15-42.5-42.31-45.62-71.36a92.63,92.63,0,0,1,5-43.19l1.89-5.09,1.89-4.29c1.29-2.85,2.46-5.75,3.88-8.55l4.1-8.45,4.45-8.32a265.12,265.12,0,0,1,20.47-31.94,227.7,227.7,0,0,1,25.37-28.88c18.74-17.75,41.09-32.58,65.81-41.57a197.71,197.71,0,0,1,77-11.32c26.26,1.41,53.53,9.53,75.88,25.51A138.54,138.54,0,0,1,2421.1,1797a99.25,99.25,0,0,1,5.93,8.24c1.91,2.8,3.71,5.66,5.34,8.65s3.24,6,4.77,9.07a105.51,105.51,0,0,1,4.26,10.41,18.48,18.48,0,0,1-34.92,12.12Z"/><path class="cls-1" d="M1196.76,2901.61c-25.47,48.44-283.54,81.36-292.14-23.53a47.91,47.91,0,0,1,.88-14.24c8-37.71,60.65-50.24,62.78-54.12-80.11-140.34-132.72-316.55-152.64-458.09-33-234.08-33.56-599.35,41.28-851.36l294.54,879.23,48.77,145.56C1207.81,2616.59,1222,2853.54,1196.76,2901.61Z"/><path class="cls-2" d="M1196.76,2901.61c-25.47,48.44-283.54,81.36-292.14-23.53a47.91,47.91,0,0,1,.88-14.24c20.43,13.64,61,32.13,131,32.13,83.25,0,106.92-51.91,109-105.95,2.32-60.23-22.28-118.24-64.9-160.81-46.22-46-112.27-122.45-112.27-182.59,0-44.65,90.09-61.57,183.18-67.12l48.77,145.56C1207.81,2616.59,1222,2853.54,1196.76,2901.61Z"/><path class="cls-2" d="M1113.93,2267.46c-.51,0-1,0-1.48.09-115.84,6.61-222.85-22.7-311.83-62.36-10.31-148.43-8.78-321.4,11.32-480.64,28.85-34.21,57.92-68.64,86-101.83Z"/><path class="cls-4" d="M874.65,1505.54c-15.2,52.8-26.38,107-35,161.6-4.36,27.32-8,54.78-11,82.33s-5.57,55.16-7.55,82.83c-4,55.34-5.94,110.88-6.34,166.42s.77,111.12,3.78,166.56,7.8,110.77,14.88,165.65a1302.63,1302.63,0,0,0,31.7,162.17c6.83,26.73,14.54,53.24,22.79,79.57,8.53,26.23,17.36,52.39,27.44,78a1138.55,1138.55,0,0,0,69.7,149.41,19.64,19.64,0,0,1,.31,18.6l-.18.34a21.66,21.66,0,0,1-3.71,4.82c-.44.42-.89.83-1.35,1.21l-.83.64c-.58.44-1.12.8-1.42,1l-1,.65c-1.16.68-2,1.09-2.7,1.44l-3.63,1.65-5.87,2.53c-3.68,1.59-7.13,3.18-10.45,4.86a89.48,89.48,0,0,0-17.5,11.28,39.45,39.45,0,0,0-10.59,13.22,27.77,27.77,0,0,0-2.28,14.93c1,11.7,6.9,21,17.42,28.83s24.67,13,39.49,16.52c30,6.79,62.94,7.16,95,4a359.23,359.23,0,0,0,47.58-8c15.41-3.74,30.77-8.64,43.38-15.3,6.17-3.14,11.75-7.52,13.31-9.87.18-.29.19-.32.41-.66.24-.57.52-1,.78-1.66.54-1.24,1.07-2.7,1.59-4.28a100.4,100.4,0,0,0,2.75-10.41c3.16-14.94,4.77-31.44,6-47.85,2.23-33,2.91-66.63,2.94-100.26s-.35-67.4-1-101.18l-1-50.7-1.37-50.7v-.07a9.26,9.26,0,0,1,18.43-1.45c8.87,67.52,15,135.28,17.64,203.51,1.17,34.14,1.88,68.34.13,103-1,17.4-2.24,34.76-5.73,53.08a136.63,136.63,0,0,1-3.51,14.21,79,79,0,0,1-2.78,7.65c-.5,1.28-1.26,2.75-1.91,4.1a55.47,55.47,0,0,1-2.87,4.78,59.54,59.54,0,0,1-13,13.15,98.25,98.25,0,0,1-13.12,8.3c-17.41,9.2-34.69,14.48-52.12,18.86a393.74,393.74,0,0,1-52.58,9c-35.27,3.49-71.08,3.55-107.33-4.41-18-4.28-36.51-10.42-53.55-22.74a83.66,83.66,0,0,1-22.35-23.8,75.11,75.11,0,0,1-10.65-32,66.48,66.48,0,0,1,5.47-34.68,77.59,77.59,0,0,1,20.49-26.5,127.47,127.47,0,0,1,25-16.41c4.23-2.17,8.48-4.12,12.57-5.91l5.8-2.52,2.15-1c.24-.11.35-.19.11-.05a10.49,10.49,0,0,0-1.14.77l-.51.4c-.37.3-.72.61-1.06.94a18.74,18.74,0,0,0-3.2,4.22l.13,18.94a1179.31,1179.31,0,0,1-73.26-154.11,1436.28,1436.28,0,0,1-52.78-161.78A1347.2,1347.2,0,0,1,793,2336.2c-7.2-56.14-12.07-112.4-15-168.73-6-112.65-5.12-225.58,3.68-338.14,2.19-28.13,4.86-56.25,8.21-84.31s7.11-56.08,11.75-84a1312,1312,0,0,1,37.63-166,18.49,18.49,0,0,1,35.49,10.39Z"/><path class="cls-1" d="M1832.12,2306.29c110.67,209.25,93.89,393.59,55.69,496.77-10.3,27.82-22.16,49.75-33.5,64.66-67.44,88.74-326.92,74.2-326.52,4,.3-52.33,38.56-68.82,58.66-84,0,0-148.21-249,62.23-430.91"/><path class="cls-2" d="M1887.82,2803.06c-10.31,27.83-22.19,49.74-33.51,64.67-67.44,88.75-326.9,74.19-326.53,4a89.52,89.52,0,0,1,2.54-21.17c56.67,44.93,253.68,44.33,311.18-31.3,11.33-14.93,23.16-36.84,33.47-64.66,26.53-71.61,42.71-182.18,13.22-313C1934.28,2593.52,1917.5,2722.81,1887.82,2803.06Z"/><path class="cls-4" d="M1848.46,2297.65c20.77,40.12,38.82,81.74,53,124.82a672.35,672.35,0,0,1,29.39,132.77c5.25,45.15,6.1,91,1,136.4s-15,90.48-32.88,133.51a305.08,305.08,0,0,1-15.51,31.7c-6,10.42-12.27,20.42-21.58,30.52-18.17,19.24-40.45,30.93-62.63,39.54-22.36,8.47-45.25,13.66-68.21,17a420.4,420.4,0,0,1-69.17,3.86,354.86,354.86,0,0,1-69.37-8.25,211.2,211.2,0,0,1-34.66-10.93c-11.47-5-23.23-11.1-33.91-22.14a52.38,52.38,0,0,1-12.73-21.61,46.68,46.68,0,0,1-1.86-13.47l.5-9.81a96.89,96.89,0,0,1,11.82-38.9c6.87-12.08,16.39-22.12,26.17-30s20-14.11,27.45-19.61h0l-4.72,24.19c-3.12-5.1-5.47-9.36-7.9-14.09s-4.68-9.27-6.87-14c-4.44-9.34-8.18-18.93-11.85-28.55a406.17,406.17,0,0,1-17-59.33,378,378,0,0,1-7.77-61.43,339.1,339.1,0,0,1,2.57-62.06,321.21,321.21,0,0,1,14.14-60.53,330.91,330.91,0,0,1,26.18-56.15c21.14-35.45,49.41-65.76,80.63-91.27a9.25,9.25,0,0,1,12.18,13.91l-.09.08c-28.22,26.34-52.07,56.78-69.77,90.11a303.11,303.11,0,0,0-20.9,52.29,312.69,312.69,0,0,0-10.13,55.15c-3.46,37.33.82,75.14,9.46,111.76,4.28,18.36,10.13,36.35,16.51,54.12,3.28,8.85,6.85,17.59,10.61,26.21,1.86,4.31,3.8,8.6,5.82,12.79s4.18,8.6,6,12l8.06,15.14-12.77,9.05,0,0c-10.38,7.6-19,12.78-26.5,18.86s-13.15,12.37-17.26,19.51a59.67,59.67,0,0,0-7.18,24.08l-.36,6.74a9.65,9.65,0,0,0,.41,2.87,15.68,15.68,0,0,0,4.12,6.54c4.67,5,12.73,9.76,21.46,13.46a174.69,174.69,0,0,0,28.48,8.93,320,320,0,0,0,62.06,7.33c42,.93,85.06-4.13,123.23-18.4,18.86-7.23,36.53-17.1,48.77-30.22,5.76-6.11,11.51-14.88,16.48-23.58a268.06,268.06,0,0,0,13.59-27.8c16.08-38.67,25.48-80.72,30.18-123.07s4-85.56-1-128.15a634.65,634.65,0,0,0-27.84-125.65c-13.42-40.91-30.62-80.58-50.47-118.95l-.15-.3a18.49,18.49,0,0,1,32.84-17Z"/><path class="cls-1" d="M1498.71,2892c-29,89.08-257.89,66.61-283.33,18.15-16.75-31.93-26.65-183.47-22.33-284.68,0-.91.09-1.78.13-2.66-130.91-12.78-191.75-106.42-224.9-176.21,0,0-148.8-317.16,68.25-396.19,91.48-33.31,180.34-16.84,259.08,22.94,149.92,75.77,259.89,228.1,259.89,228.1-7.15,66.48-55.61,325.38-104.16,508.24C1453.73,2814.08,1520.65,2824.73,1498.71,2892Z"/><path class="cls-2" d="M1502.72,2874.06a89,89,0,0,1-4,18c-29,89.08-257.88,66.61-283.31,18.12-16.78-31.89-26.67-183.46-22.32-284.65,0-.92.09-1.8.13-2.68-131-12.76-191.78-106.41-224.92-176.21,33.14,69.8,94.51,106.41,237.71,97.17,108-7,156.85-91.84,149-63.08-8.16,29.91-85,119.08-98.14,160.43-34.55,108.21-17.15,196.54,5,227.85C1287.61,2905.28,1429.87,2915.06,1502.72,2874.06Z"/><path class="cls-9" d="M1315,2505.23c-46.41,76.92-120.42,117.6-121.81,117.6-2-.18-4.06-.42-6.1-.65-126.75-15-186.19-106.87-218.82-175.56,33.14,69.8,94.52,106.41,237.73,97.17C1253.9,2540.69,1290.18,2522.29,1315,2505.23Z"/><path class="cls-2" d="M1448.22,2183c-24.17,10-49.22,19.6-74.83,28.52-83.21,29-172.74,51-260.94,56-68.27,3.88-133.5-4.67-193.73-20.53-2.63-80.06,21.82-161.64,117.83-196.59,77.29-28.1,152.68-20.75,221.69,6.24,12.67,4.95,25.15,10.59,37.35,16.73a542,542,0,0,1,47.52,27.23C1382.4,2125.73,1418,2154.85,1448.22,2183Z"/><path class="cls-7" d="M1193.18,2622.84c-130.91-12.78-195.88-94.61-224.9-176.21,0,0-149.57-330.25,68.25-396.19,93.18-28.21,221.52-3.86,300.25,35.92,65.44,140.87,43.75,286.75-10,397.22C1282.13,2575.33,1193.14,2623.72,1193.18,2622.84Z"/><path class="cls-9" d="M1315,2505.23c-46.41,76.92-120.42,117.6-121.81,117.6-2-.18-4.06-.42-6.1-.65-126.88-14.65-190.26-95.27-218.82-175.56,33.14,69.8,94.52,106.41,237.73,97.17C1253.9,2540.69,1290.18,2522.29,1315,2505.23Z"/><path class="cls-9" d="M918.72,2247c.09,2.22.19,4.4.28,6.61-.14-2.21-.28-4.43-.37-6.65-4-82.93,19.46-166.73,117.92-196.55,66.24-20.06,150.32-13.5,221.69,6.24,28.94,8,55.79,18.21,78.54,29.68,2.22,4.76,4.3,9.52,6.33,14.28a429.75,429.75,0,0,1,30.28,110.89c-83.21,29-156.52,65-259.46,69.06C1045.6,2283.29,979,2262.88,918.72,2247Z"/><path class="cls-4" d="M1564.71,2302.45c-2.2,44.09-8.44,86.87-14.4,130-3.31,21.45-6.85,42.86-10.48,64.24s-7.35,42.77-11.59,64-8.41,42.57-12.75,63.83l-6.67,31.86-7.25,31.75c-9.69,42.33-20.17,84.51-32.37,126.33l-1.69-13.69-.09-.17a16.06,16.06,0,0,0-4.73-5.36l-.87-.58-.4-.24c-.36-.19-.28-.14-.12-.07l1.88.78,5.32,2.15c3.78,1.57,7.74,3.35,11.66,5.42a88.32,88.32,0,0,1,22.66,16.66,66.45,66.45,0,0,1,15.65,26.26,73.82,73.82,0,0,1,2.74,29.37,98.38,98.38,0,0,1-2.3,13.51c-.5,2.18-1.1,4.3-1.72,6.4l-1,3.14-1.26,3.45a79.36,79.36,0,0,1-15.14,24.59c-12.76,14.06-28.43,22.89-43.89,29.08a216.92,216.92,0,0,1-47.12,12.37,327.67,327.67,0,0,1-47.13,3.66c-31.32.12-62.38-3.11-93.24-11.09-15.44-4.19-30.82-9.21-46.33-18.53-7.61-4.88-15.89-10.56-22.54-21.87a75.12,75.12,0,0,1-5.62-13.76c-1.34-4.2-2.35-8.17-3.27-12.11a456.25,456.25,0,0,1-7.69-45.94c-1.86-15.12-3.32-30.17-4.51-45.21-4.56-60.16-6.23-120.08-3.77-180.66h0l16.67,19.24c-26.66-2.83-53.17-9-78-19.46a272.27,272.27,0,0,1-68.95-41,276.75,276.75,0,0,1-54-58.62c-14.71-22.07-26.49-46.56-31.12-73.19a9.28,9.28,0,0,1,17.77-5l.09.24c8.75,22.08,21.35,42.67,36,61.45a263.6,263.6,0,0,0,51.06,49.55,254.17,254.17,0,0,0,62.06,33.59,268.29,268.29,0,0,0,33.77,10.05,309.57,309.57,0,0,0,34.86,5.56,18.69,18.69,0,0,1,16.67,19.24h0c-2.39,58.32-.76,117.58,3.69,176,1.15,14.61,2.57,29.18,4.35,43.59a418.25,418.25,0,0,0,7,42c.75,3.31,1.6,6.55,2.52,9.43a42.58,42.58,0,0,0,2.68,6.92c.8,1.68,4.69,5.46,9.63,8.36,10,6.1,23.13,10.76,36.35,14.25,26.76,7,55.38,10,83.52,9.87,28-.31,56.47-3.8,80.81-13.38,12.07-4.77,22.81-11.35,30.08-19.43a42.22,42.22,0,0,0,8.16-13.17l.67-1.79.68-2.17c.43-1.47.85-2.93,1.18-4.38a61.94,61.94,0,0,0,1.45-8.46c1-11.14-1.52-19.4-8.27-26.46a51.07,51.07,0,0,0-13.22-9.55c-2.65-1.41-5.48-2.7-8.57-4l-5-2-3.26-1.38c-.69-.32-1.45-.66-2.63-1.31l-1-.58c-.36-.22-1-.64-1.45-1a19.65,19.65,0,0,1-5.72-6.33l-.11-.19a17.76,17.76,0,0,1-1.89-12.85l.2-.84,29.44-125.72,7.09-31.53,7.3-31.5q7.18-31.53,14.11-63.13l6.87-31.61,7.12-31.57c4.73-21.05,9.26-42.14,13.77-63.24q7.21-31.54,13.93-63.18c4.64-21,9.23-42.18,13.23-63l0-.23a9.26,9.26,0,0,1,18.34,2.21Z"/><path class="cls-10" d="M968.28,2809.7s40.73,26.7,136.48,18.5"/><path class="cls-4" d="M975.88,2798.11a25.22,25.22,0,0,0,2.41,1.54l3.23,1.79c2.29,1.14,4.62,2.27,7.08,3.29,4.84,2.12,10,3.89,15.16,5.58a229.36,229.36,0,0,0,32.44,7.33,321.47,321.47,0,0,0,33.71,3.43c5.68.26,11.38.31,17.09.48l17.17-.26h.28a6.93,6.93,0,0,1,.9,13.82l-17.64,2c-5.91.42-11.83,1-17.77,1.26a341.64,341.64,0,0,1-35.92-.07,251.33,251.33,0,0,1-36.23-4.51,186.17,186.17,0,0,1-18.15-4.68c-3-.92-6.06-2-9.11-3.19-1.55-.65-3.06-1.24-4.63-2a54,54,0,0,1-5.22-2.68l-2.76-1.63a14.22,14.22,0,0,1,14.44-24.5A14.61,14.61,0,0,1,975.88,2798.11Z"/><path class="cls-4" d="M1459.3,2825.17a50.84,50.84,0,0,1-5.69,2.86c-1.67.75-3.24,1.34-4.86,2-3.18,1.16-6.33,2.26-9.45,3.17-6.26,1.92-12.46,3.29-18.65,4.54a255,255,0,0,1-36.86,4,342.51,342.51,0,0,1-36.29-.48c-6-.41-11.94-1-17.89-1.55l-17.71-2.33a9.25,9.25,0,0,1,1.18-18.42h.39l17.09,0c5.67-.27,11.34-.42,17-.78a315.14,315.14,0,0,0,33.34-4,224.24,224.24,0,0,0,31.81-7.8c5-1.75,10-3.58,14.67-5.73,2.36-1,4.57-2.17,6.74-3.31,1-.59,2.09-1.17,3-1.76a10.72,10.72,0,0,0,1.94-1.35,18.49,18.49,0,0,1,20.27,30.93Z"/><path class="cls-10" d="M1586.45,2787.69s114.45,32,193.48-19.29"/><path class="cls-4" d="M1590.19,2774.33c7,2.11,15.07,4.1,22.82,5.63s15.77,2.93,23.72,4a316.19,316.19,0,0,0,48,2.62,236.23,236.23,0,0,0,47.38-6.22,177,177,0,0,0,44-17.74l.37-.21a6.93,6.93,0,0,1,7.19,11.84,193.08,193.08,0,0,1-46.79,22.77,255.69,255.69,0,0,1-50.83,10.32,338.72,338.72,0,0,1-51.65.78c-8.6-.52-17.17-1.32-25.74-2.48s-16.87-2.49-26-4.57a13.88,13.88,0,0,1,6.17-27.07q.45.11.9.24Z"/><path class="cls-4" d="M974.67,2861.2c-5.91,3.72-11.91,9.79-16.45,15.91s-8,13.14-9,19.53A20.72,20.72,0,0,0,953,2913c3.42,4.69,9.13,8.75,15.58,12.1a13.9,13.9,0,1,1-14.49,23.65c-8.18-5.84-16.41-13-22-23.35a43.39,43.39,0,0,1-3.11-33.88c3.34-10.5,9.36-18.73,16-25.69a89.72,89.72,0,0,1,10.8-9.48,65.3,65.3,0,0,1,12.72-7.61,6.93,6.93,0,0,1,6.48,12.21Z"/><path class="cls-4" d="M1088.43,2870.16a32,32,0,0,0-13,15.55,34,34,0,0,0-1.89,19.69,29.26,29.26,0,0,0,9.27,15.95c4.66,4.19,10.7,7.09,17.24,9.16l.3.1a13.91,13.91,0,0,1-8.41,26.51,15.59,15.59,0,0,1-1.69-.66c-9.3-4.35-18.35-10.29-25.34-18.72a52,52,0,0,1-12-29.83,53.16,53.16,0,0,1,7.1-30.08,47.55,47.55,0,0,1,22.54-20.2,6.94,6.94,0,0,1,6.2,12.38Z"/><path class="cls-4" d="M1614.29,2845.91a40.64,40.64,0,0,0-14.29,15.5,30.48,30.48,0,0,0-2.82,18.58c1.94,12.36,11.21,22.59,23.14,28.8a18.6,18.6,0,1,1-17.17,33,19,19,0,0,1-2.83-1.81l-.51-.41a84.42,84.42,0,0,1-22-25.39,64.7,64.7,0,0,1-8.3-33.33,56.06,56.06,0,0,1,11.14-32,61.77,61.77,0,0,1,25.24-19.39,9.27,9.27,0,0,1,8.73,16.27Z"/><path class="cls-4" d="M1725.56,2845.18a50.19,50.19,0,0,0-12.62,17.17,34.44,34.44,0,0,0-2.37,18.78c1.78,12.29,10.76,23.12,20.77,27A18.67,18.67,0,1,1,1717.9,2943a18.32,18.32,0,0,1-3.58-1.84l-1.3-.87a67.68,67.68,0,0,1-30.18-58.29,60.11,60.11,0,0,1,9.92-30.87,71.55,71.55,0,0,1,22-20.89,9.26,9.26,0,0,1,11.21,14.64Z"/><path class="cls-4" d="M1439.22,2848.74a65.52,65.52,0,0,1,12.71,7.61,89,89,0,0,1,10.8,9.48c6.65,7,12.68,15.19,16,25.69a43.39,43.39,0,0,1-3.11,33.88c-5.54,10.34-13.77,17.51-22,23.35a13.9,13.9,0,0,1-16.16-22.63,17,17,0,0,1,1.67-1c6.44-3.35,12.16-7.41,15.58-12.1a20.75,20.75,0,0,0,3.81-16.36c-1-6.39-4.43-13.31-9-19.53s-10.53-12.19-16.45-15.91l-.39-.25a6.93,6.93,0,0,1,6.49-12.21Z"/><path class="cls-4" d="M1325.3,2857.63a47.53,47.53,0,0,1,22.55,20.2,53.15,53.15,0,0,1,7.09,30.08,51.93,51.93,0,0,1-12,29.83c-7,8.43-16,14.37-25.35,18.72a13.9,13.9,0,1,1-10.17-25.83l.38-.12c6.54-2.07,12.58-5,17.24-9.16a29.31,29.31,0,0,0,9.26-15.95,34,34,0,0,0-1.88-19.69,32,32,0,0,0-13.05-15.55l-.25-.15a6.94,6.94,0,0,1,6.19-12.38Z"/><path class="cls-5" d="M659.08,547.26S778.75,422.14,919.75,408.71c179.28-17.08,163.7,118.86,179.54,118.86s.27-135.94,179.54-118.86c141,13.43,260.67,138.55,260.67,138.55s-169.36,156.09-440.21,146.16S659.08,547.26,659.08,547.26Z"/><path class="cls-5" d="M2179.23,1087.92c-17.68,2.13-141.74,16.3-190.34,1.31-1-.33-1.75.74-1,1.39,24.87,22.34,171.68,172.86,59.67,525.64a1.06,1.06,0,0,1-2,0c-4.32-15-23.8-78.52-57-119.36-.57-.69-1.84-.37-1.84.49,0,2.49,0,6.57-.2,12.13v.9c-2.41,76.61-29.86,411.83-323.88,571.21-.81.45-1.79-.2-1.55-1,3.39-9.43,15.07-48,9.15-118-283,213.24-571,250.11-571,250.11s-390.52-47.52-568.2-275.1c-11.39,85.92,2.61,132.51,6.37,143,.29.78-.69,1.43-1.51,1-289.65-157-320.57-484.72-323.71-567.62a0,0,0,0,1,0,0c-.29-7.84-.33-13.48-.33-16.58,0-.86-1.26-1.18-1.83-.49-33.2,40.84-52.68,104.34-57,119.36a1.06,1.06,0,0,1-2,0c-112-352.78,34.79-503.3,59.66-525.64.73-.65,0-1.72-1-1.39-48.64,15-172.7.82-190.34-1.31-.86-.12-1.18-1-.53-1.51,15.35-12.17,140.8-115.64,285-353.35,154-253.84,551.74-177.27,551.74-177.27H1343s397.7-76.57,551.74,177.27c144.23,237.71,269.68,341.18,285,353.35A.84.84,0,0,1,2179.23,1087.92Z"/><path class="cls-8" d="M1986.53,1509.52v.9c-2.41,76.61-29.86,411.83-323.88,571.21-.81.45-1.79-.2-1.55-1,3.39-9.43,15.07-48,9.15-118-283,213.24-571,250.11-571,250.11s-390.52-47.52-568.2-275.1c-11.39,85.92,2.61,132.51,6.37,143,.29.78-.69,1.43-1.51,1-289.65-157-320.57-484.72-323.71-567.62,3.1,4.12,145.75,191.73,291.16,79.63,75.55-58.23,89.39-261.39,89.39-261.39l1134,39S1851,1656.37,1986.53,1509.52Z"/><g class="cls-11"><path class="cls-7" d="M1637.9,2433.94c-54.93,24.88-74.43,198.22-15.59,238.19,17.12,11.63,36.68,4.55,43-76.24C1671.87,2513.23,1683.93,2413.08,1637.9,2433.94Z"/></g><g class="cls-6"><path class="cls-7" d="M2179.24,1087.93c-7.41.87-33.56,3.9-65,6-53.29-55.24-133-149.51-219.45-292-81.39-134.12-230.77-176-353.61-185.72-12-10.43-333.93-1.21-274.13-38,63.63-39.1,202.85-18.16,187.56-28.3-52.14-34.6-115.13-66.59-175.73-72.4-179.25-17-135,133.51-179.56,133.51S1099,460.49,919.77,477.53C868,482.47,809.87,510.9,757,544.92c-14.22,9.15,58.81,2.74,94.15,10.06,66.63,13.81,80.85,33.52,64.39,47.12-19,1.42-243.35,8.19-313.71,20.72-123.77,22-228.55,64.69-298,179.1-86.46,142.48-166.16,236.75-219.45,292-31.48-2.08-57.63-5.11-65-6-.87-.09-1.17-1-.52-1.47,15.35-12.23,140.79-115.69,285-353.4C386,597.82,537.19,556.36,660.6,547.17,728.37,491.23,833,417,919.77,408.72c179.25-17.09,179.51,118.85,179.51,118.85s.31-135.94,179.56-118.85c101.42,9.67,209.57,92.75,262.3,138.67,122.84,9.67,272.22,51.55,353.61,185.67,144.22,237.71,269.66,341.17,285,353.4C2180.41,1086.93,2180.07,1087.84,2179.24,1087.93Z"/></g><path class="cls-1" d="M1066.35,822.5h0A697.88,697.88,0,0,0,694.17,930.06l-3.1,2c-155.79,98.54-266.64,255-307,434.85-7.13,31.79-11.65,60.08-11.65,80.74,0,192.24,120.74,300.82,237.17,360.83,90.74,46.78,191.91,69.66,294,69.66h325.53c102.09,0,203.26-22.88,294-69.66,116.43-60,237.17-168.59,237.17-360.83,0-20.66-4.52-48.95-11.65-80.74-40.36-179.87-151.21-336.31-307-434.85l-3.1-2A697.88,697.88,0,0,0,1066.35,822.5Z"/><path class="cls-2" d="M1760.29,1447.61c0,192.22-120.75,300.8-237.17,360.83-90.74,46.8-191.93,69.67-294,69.67H903.59c-102.09,0-203.24-22.87-294-69.67-116.47-60-237.18-168.61-237.18-360.83a244.39,244.39,0,0,1,2.53-32.14c17.93,163.18,128.07,258.78,234.65,313.71,90.74,46.75,191.89,69.66,294,69.66h325.5c102.1,0,203.29-22.91,294-69.66,106.5-54.93,216.67-150.49,234.6-313.59A236.68,236.68,0,0,1,1760.29,1447.61Z"/><g class="cls-11"><path class="cls-7" d="M1748.63,1371.87c-40.36-179.87-151.21-336.31-307-434.85l-3.1-2A697.88,697.88,0,0,0,1066.35,827.5h0A697.88,697.88,0,0,0,694.17,935.06l-3.1,2c-155.79,98.54-266.64,255-307,434.85-6.13,27.31-10.31,52-11.37,71.54.39,11.07,1.16,21.87,2.37,32.39,2-14.53,5.16-30.71,9-48C424.44,1248,535.29,1091.54,691.06,993l3.09-2a697.67,697.67,0,0,1,744.38,0l3.1,2c155.76,98.56,266.66,255,307,434.85,3.85,17.21,7,33.39,9,47.93,1.21-10.53,2-21.35,2.37-32.46C1758.92,1423.79,1754.74,1399.13,1748.63,1371.87Z"/></g><path class="cls-4" d="M1229.11,1896.6H903.58c-106.85,0-211.44-24.8-302.46-71.72-161.71-83.36-247.19-213.82-247.19-377.26,0-20.78,4-48.52,12.1-84.8,41.06-183,155.93-345.71,315.15-446.43l3.1-1.95a716.17,716.17,0,0,1,764.11,0l3.13,2c159.22,100.71,274.08,263.42,315.15,446.42,8.14,36.28,12.1,64,12.1,84.8,0,163.44-85.48,293.9-247.19,377.26C1440.56,1871.8,1336,1896.6,1229.11,1896.6ZM1066.35,841A678.49,678.49,0,0,0,704,945.7L701,947.64C550,1043.15,441,1197.43,402.11,1370.91c-7.43,33.14-11.2,58.94-11.2,76.71,0,150.82,76.43,266.69,227.15,344.39,85.8,44.23,184.53,67.6,285.52,67.6h325.53c101,0,199.72-23.37,285.52-67.6,150.73-77.7,227.16-193.57,227.16-344.39,0-17.77-3.77-43.57-11.21-76.71-38.92-173.48-147.85-327.76-298.84-423.27l-3.08-1.94A678.46,678.46,0,0,0,1066.35,841Z"/><path class="cls-7" d="M1275.56,1602.91c0,53.45-34.68,193.75-292.27,187.55-213.77-5.14-256.23-132.74-256.23-187.55s95.55-197.85,259.86-197.85C1160.2,1405.06,1275.56,1549.45,1275.56,1602.91Z"/><path class="cls-4" d="M854.44,1551.62c-2.52,17.12-3.6,35.86.84,49.27,2.21,6.71,5.45,11.56,9.73,15,3.93,3.24,11,6.49,17.28,7.81,12.8,2.7,27-.42,40.47-8a103.58,103.58,0,0,0,34.2-31.11h0a18,18,0,0,1,30.28-2.69l1.54,2c1,1.32,2.72,3.54,4.21,5.32l4.76,5.64c3.29,3.68,6.65,7.31,10.17,10.71s7.14,6.63,10.84,9.68,7.58,5.71,11.44,8.29c15.63,10.07,32.29,15,49,12.81,2.11-.14,4.19-.76,6.31-1.08,2.09-.54,4.19-1.13,6.3-1.75,2-.79,4.31-1.54,6.15-2.31l2.68-1.14,2.5-1.34a39.9,39.9,0,0,0,15.45-16.42c7.83-14.69,9.24-36.45,7.79-56.35l-.06-.88a9.29,9.29,0,0,1,17.82-4.29,116.59,116.59,0,0,1,8.77,35.37,92.06,92.06,0,0,1-4.22,38.55,73.54,73.54,0,0,1-9.9,18.89,71.13,71.13,0,0,1-15.73,15.3l-4.54,3-4.71,2.61c-3.12,1.62-6,2.73-9.1,4.1-3.11,1.15-6.27,2.24-9.47,3.24-3.29.79-6.51,1.81-9.89,2.32a95.93,95.93,0,0,1-40.76-1.18c-13.28-3-25.29-8.94-36.11-15.78a157.28,157.28,0,0,1-28.65-24.14,167.31,167.31,0,0,1-11.88-14c-1.83-2.45-3.68-4.88-5.38-7.46s-3.26-5-5.22-8.27l31.83-.67h0a107.86,107.86,0,0,1-20,27.48,121.17,121.17,0,0,1-26.71,20.51,102.32,102.32,0,0,1-32.93,12,83.31,83.31,0,0,1-36.8-1.69,86.6,86.6,0,0,1-17.13-7.07,63.94,63.94,0,0,1-15.68-11.63,61.14,61.14,0,0,1-11.52-16.49,65.75,65.75,0,0,1-5.32-18.21,74.81,74.81,0,0,1-.49-17.49,91.66,91.66,0,0,1,2.7-16.23,107.87,107.87,0,0,1,12.1-29.29,9.32,9.32,0,0,1,17.23,6.13Z"/><path class="cls-4" d="M979.59,1489.16a235.87,235.87,0,0,0-3.23,26,191.1,191.1,0,0,0-.2,25.86c.62,8.39,1.56,16.72,3.78,24.12s5.16,14,8.88,18.85a18.59,18.59,0,0,1-29.49,22.63,17.93,17.93,0,0,1-1.75-2.75l-.27-.53c-5.61-11-8.09-22-9.27-32.58s-.59-20.68.34-30.54a216.41,216.41,0,0,1,5.08-28.7,251.94,251.94,0,0,1,8.31-27.63,9.31,9.31,0,0,1,17.89,4.91Z"/><path class="cls-4" d="M1078.75,1485.91c-6.17,34.86-75,54.94-125.08,54.68-37.79-.2-98.06-25.63-97.58-63.49.37-29.9,34.36-51,124.27-42.89C1053.91,1440.87,1082.87,1462.64,1078.75,1485.91Z"/><g class="cls-6"><path class="cls-7" d="M979.12,1459.82c0,12.16-20.64,21.09-45.3,21.66-13,.3-31.22-9.47-31.22-19,0-10.28,16.29-16.82,33.36-16.9C962.1,1445.45,979.12,1451.17,979.12,1459.82Z"/></g><path class="cls-4" d="M587,1417.38a151.37,151.37,0,0,1,2.31-24.28,201.88,201.88,0,0,1,5.71-23.43A166.29,166.29,0,0,1,616.63,1325a132.6,132.6,0,0,1,37.82-36.77,126.51,126.51,0,0,1,24.66-12,116.32,116.32,0,0,1,27.51-6,87.49,87.49,0,0,1,30.08,2.39,83.92,83.92,0,0,1,27.71,12.93c16.44,11.73,27.2,27.44,34.42,43.08a161.14,161.14,0,0,1,13.24,48,175,175,0,0,1-.7,47.92,12.66,12.66,0,0,1-24.94.25l-.06-.36a284.62,284.62,0,0,0-9.93-40.11,169.39,169.39,0,0,0-16.25-35.28c-6.5-10.42-14.37-18.84-22.55-23.71s-16.54-6.57-26.56-5.54a83.83,83.83,0,0,0-15.68,3.53,105.66,105.66,0,0,0-15.37,6.91,111.55,111.55,0,0,0-27.38,22.59,194,194,0,0,0-22.71,31.81c-3.44,5.83-6.69,11.89-9.69,18.12-1.58,3.09-3.07,6.24-4.47,9.41l-4.17,9.25-.55,1.2a12.61,12.61,0,0,1-24.11-5.32Z"/><path class="cls-4" d="M1425.77,1420.2c-1.35-2.75-2.91-6.4-4.53-9.57s-3.21-6.55-5-9.73c-3.34-6.45-7.11-12.62-11-18.56a172.61,172.61,0,0,0-26.14-31.65,119.86,119.86,0,0,0-31.55-21.62,112.24,112.24,0,0,0-35.8-9.88c-11.77-1-22.48.72-32.35,5.38s-19,12.53-26.86,22.72a139.87,139.87,0,0,0-19.4,35.59,221.61,221.61,0,0,0-11.34,41.73l-.06.33a12.63,12.63,0,0,1-24.94-.4,162.45,162.45,0,0,1,1.19-51.14c3.16-17,8.64-34.14,18.09-50.14s22.89-31,40.8-41,39.13-14.22,58.54-12.7a140.3,140.3,0,0,1,54.11,15.43,140.51,140.51,0,0,1,43,34.68c11.83,13.84,20.35,29.61,26.73,45.64a180.56,180.56,0,0,1,7.53,24.61,146.46,146.46,0,0,1,3.51,25.8,12.57,12.57,0,0,1-23.84,6Z"/><path class="cls-1" d="M1455.53,863.64c40.21-155.41,183.5-195.27,265.53-134.24,137.8,102.54,44.35,274.49-40.82,302.64Z"/><g class="cls-12"><path class="cls-7" d="M1773.46,937.85c12-56.39,4.15-125.09-60.1-172.89-74.28-55.28-204.81-22-257.51,98.93l-.32-.23C1495.74,708.21,1639,668.36,1721,729.43,1801.66,789.38,1803.14,873.09,1773.46,937.85Z"/></g><path class="cls-4" d="M1680.24,1050.53a18.49,18.49,0,0,1-5.8-36c38.24-12.63,85.91-65.89,96.26-129.89,6.26-38.77.83-94.59-60.68-140.35-33.17-24.68-78.46-30.43-121.17-15.38-55.49,19.57-97.56,70.38-115.42,139.41a18.49,18.49,0,0,1-35.8-9.26c21-81.15,71.63-141.29,138.93-165,54.33-19.16,112.47-11.46,155.54,20.58,59.6,44.35,86.27,106.82,75.1,175.92-11.59,71.71-63.68,140.11-121.15,159.11A18.71,18.71,0,0,1,1680.24,1050.53Z"/><path class="cls-13" d="M1505.73,924.64C1512.54,821.42,1615,744.73,1677.4,796c76.54,62.9,14.7,180.11-35.84,202.49"/><path class="cls-13" d="M1670.07,977c-9.23,9.8-19.08,17.31-28.51,21.48l-135.84-73.85a165.22,165.22,0,0,1,4.46-28.79c21.57-87.92,110.8-146.21,167.21-99.88C1739.66,847.18,1710.35,934.25,1670.07,977Z"/><path class="cls-14" d="M1670.07,977c-9.23,9.8-19.08,17.31-28.51,21.48l-135.84-73.85a165.22,165.22,0,0,1,4.46-28.79c34.56-52.33,95-78.07,136.68-43.84C1687.89,885.72,1687.14,935.84,1670.07,977Z"/><path class="cls-4" d="M1641.57,1012.34a13.87,13.87,0,0,1-5.63-26.55c25.26-11.18,56.41-53.25,62.51-98,3.17-23.18.55-56.06-29.86-81C1644,786.5,1616,794,1601.46,800.32c-36.51,15.8-77.7,61.73-81.89,125.24a13.87,13.87,0,0,1-27.68-1.83c4.25-64.37,44.77-125.58,98.55-148.86,34.6-15,69.51-11.19,95.76,10.39,31.44,25.84,45.55,63.56,39.73,106.22-6.9,50.6-41.49,103.17-78.76,119.67A13.76,13.76,0,0,1,1641.57,1012.34Z"/><path class="cls-5" d="M1390.68,864.43C1431.9,854,1496.25,894.63,1528,922.6a.92.92,0,0,0,1.53-.79c-1-9.36,3.08-52.17,26.17-56.79,40.63-8.14,46.84,49,43.86,86.48-.08,1,1.58,1.16,1.84.15,3.2-12.64,6.24-37.51,31-34.42,43.76,5.46,67.33,108.71,59.08,164.67"/><path class="cls-4" d="M1419.2,834.84c22.36,9.5,43.3,21.88,62.88,35.71,9.8,6.91,19.28,14.19,28.53,21.65l13.71,11.31,6.76,5.72,3.35,2.86.84.72.42.36.21.18s.47.35-.67-.54a11.29,11.29,0,0,0-17.83,7.76,14.3,14.3,0,0,0-.08,1.56c0,.39.1,1.31.06,1a48.76,48.76,0,0,1-.25-6c0-1.75.09-3.42.2-5.08.22-3.3.59-6.53,1.07-9.76a104.39,104.39,0,0,1,4.77-19.36c2.37-6.45,5.47-13.12,11-19.39a37,37,0,0,1,10.49-8.25,30.7,30.7,0,0,1,6.7-2.59l1.75-.44,1.43-.25,2.84-.46c7.63-1,16.77-.18,24.65,3.91s13.76,10.4,17.79,16.71c7.92,12.88,10.73,25.92,12.69,38.56a201.47,201.47,0,0,1,.62,37.6l-.19,2.33-.1,1.17,0,.58c0-.08,0,.39,0-.15a11.43,11.43,0,0,0,0-1.94A12.52,12.52,0,0,0,1605,940a12.09,12.09,0,0,0-6.13-.78,12.36,12.36,0,0,0-6,2.53,12.57,12.57,0,0,0-4.18,6.14c-.23.86-.1.38-.12.46l0-.12.06-.23.13-.46.25-1c.68-2.68,1.4-5.74,2.31-8.91,1.88-6.31,4.23-13.4,9.68-20.34a32.87,32.87,0,0,1,24-12.64,43.9,43.9,0,0,1,12.28,1,44.69,44.69,0,0,1,11.3,4.23c13.79,7.68,21.74,19.16,28.13,30.2,12.36,22.55,18.5,46.31,22.53,70.22,3.69,24,5.21,48.24,1.47,73a9.4,9.4,0,0,1-18.63-2.51l0-.24c2.6-21.62.59-44.6-3.58-66.64-4.33-22-11.07-44-21.9-62.17-5.37-8.93-12.22-16.88-19.28-20.29a19.85,19.85,0,0,0-5.14-1.73,18.88,18.88,0,0,0-5.16-.22,7.66,7.66,0,0,0-5.94,3.51c-1.77,2.35-3.38,6.54-4.58,11.45-.62,2.48-1.16,5.13-1.82,8.14l-.25,1.16-.14.6-.3,1.17a14.22,14.22,0,0,1-26.22,2.48,13.92,13.92,0,0,1-1.48-5,13.7,13.7,0,0,1,0-2.22l0-.42,0-.51.05-1,.11-2a175.26,175.26,0,0,0-1.45-32.42c-1.2-10.42-3.73-20.73-8-27.94-2.16-3.54-4.58-6.06-7.11-7.38s-5.52-1.94-9.45-1.56l-1.48.21-.75.09-.37.1a5.15,5.15,0,0,0-1.47.51,11,11,0,0,0-3.26,2.47,34.06,34.06,0,0,0-6.29,10.88,78.53,78.53,0,0,0-3.93,14.58c-.45,2.54-.8,5.12-1,7.64-.12,1.26-.2,2.51-.24,3.68s0,2.37,0,2.81l.08,1.25a13.34,13.34,0,0,1-1.15,5.61,13.15,13.15,0,0,1-5.16,5.83A13,13,0,0,1,1528,935a13.15,13.15,0,0,1-7.13-2.51,8.83,8.83,0,0,1-1.09-.88l-.2-.18-.4-.37-.81-.73-3.24-2.92-6.47-5.8-13-11.39c-8.75-7.47-17.63-14.69-26.75-21.52C1450.66,875,1431.41,863,1411,853.57a10.23,10.23,0,0,1,8.25-18.73Z"/><path class="cls-1" d="M476.39,1032c-85.16-28.15-178.62-200.1-40.82-302.64,82-61,225.33-21.17,265.53,134.24"/><g class="cls-12"><path class="cls-7" d="M678.35,804.82c-60.69-79.18-160.07-91.94-223.21-45-85.2,63.38-82,153.33-47,219.38C357,913,336.39,803.25,435.58,729.43,506,677,621.73,699,678.35,804.82Z"/></g><path class="cls-4" d="M476.4,1050.53a18.66,18.66,0,0,1-5.81-.93c-57.48-19-109.57-87.4-121.16-159.11-11.17-69.1,15.51-131.57,75.11-175.92,43.06-32,101.2-39.74,155.53-20.58C647.37,717.72,698,777.86,719,859a18.49,18.49,0,0,1-35.81,9.26c-17.85-69-59.92-119.84-115.42-139.41-42.71-15.06-88-9.3-121.17,15.38-61.5,45.76-66.94,101.58-60.67,140.35,10.34,64,58,117.26,96.26,129.89a18.49,18.49,0,0,1-5.8,36Z"/><path class="cls-4" d="M1099.29,2231.22a18.54,18.54,0,0,1-2.23-.14c-15.43-1.87-362.07-46.22-551.49-248.16-2.37,55.16,7,85.07,9.3,91.48a19.17,19.17,0,0,1-5.62,21.16,19.7,19.7,0,0,1-22.12,2.33C263.47,1955,207.9,1677.07,196.35,1554.26a449.17,449.17,0,0,0-25.54,67.1,19.33,19.33,0,0,1-18.46,14.05,19,19,0,0,1-18.91-13.57c-89.61-282.23-18-439.6,32.1-507.92-57.24,2.69-130.41-5.48-148.39-7.64A19.32,19.32,0,0,1,7.32,1072C21,1061.09,145.06,959.12,288,723.47,354.13,614.56,474.29,548,635.54,530.84c120-12.75,219.39,6,223.56,6.78a18.49,18.49,0,0,1-7,36.31c-3.86-.74-387-71-532.46,168.73-109.38,180.26-209,284.91-258.22,331,50.71,4.33,114.31,6.7,142.79-2.08a19.4,19.4,0,0,1,22.76,9,19.17,19.17,0,0,1-3.9,23.83c-11.64,10.46-51.48,50.75-75.84,130.56-28,91.65-25.79,200.43,6.45,324,10.13-24.18,24.13-51.73,42-73.69a19.61,19.61,0,0,1,21.78-6,19.4,19.4,0,0,1,12.9,18.27c-.07,39.08,7.52,374.78,280.57,548.08-3.27-25.55-4.57-62.18,1.81-110.31a18.5,18.5,0,0,1,32.91-9c164,210,521.19,263.38,553.55,267.81,27.45-4.08,297.53-48.46,559.91-246.22a18.49,18.49,0,0,1,29.55,13.21c3,35.6,1.63,63.71-1,84.48,273.07-173.32,280.67-509,280.6-548.11a19.43,19.43,0,0,1,12.91-18.27,19.64,19.64,0,0,1,21.75,6c17.86,22,31.86,49.53,42,73.71,32.25-123.53,34.45-232.33,6.46-324-24.37-79.81-64.2-120.1-75.83-130.54a19.19,19.19,0,0,1-3.92-23.85,19.41,19.41,0,0,1,22.74-9c28.5,8.79,92.1,6.43,142.81,2.09-49.24-46.05-148.83-150.7-258.21-331-145.48-239.76-528.6-169.47-532.46-168.73a18.49,18.49,0,0,1-7-36.31c4.17-.81,103.52-19.52,223.56-6.78,161.24,17.11,281.4,83.72,347.49,192.63,143,235.67,267,337.62,280.71,348.47a19.31,19.31,0,0,1-9.79,34.33c-18,2.17-91.18,10.33-148.42,7.64,50.11,68.32,121.71,225.7,32.1,507.94a19.54,19.54,0,0,1-37.37-.54,449.44,449.44,0,0,0-25.54-67c-11.53,122.77-67.08,400.67-330.79,543.63a19.73,19.73,0,0,1-22.1-2.34,19.16,19.16,0,0,1-5.62-21.16c1.92-5.37,9.94-30.53,9.66-76.48-274,195.73-540.18,231.67-551.74,233.15A18.42,18.42,0,0,1,1099.29,2231.22Zm964-620.12a.19.19,0,0,0,0,.08A.19.19,0,0,1,2063.31,1611.1Z"/><path class="cls-4" d="M1539.51,565.75a18.48,18.48,0,0,1-13.37-5.71c-1.14-1.2-116.76-120.32-249.06-132.93C1153.84,415.4,1135.5,480.18,1125.66,515c-4.12,14.56-8.79,31.06-26.37,31.06s-22.24-16.5-26.36-31.06c-9.84-34.82-28.17-99.62-151.43-87.89C789.21,439.72,673.59,558.84,672.44,560a18.49,18.49,0,0,1-26.72-25.56C650.8,529.17,771.82,404.22,918,390.3c122.33-11.67,164.23,45.25,181.29,86.86,17.07-41.61,59-98.54,181.3-86.86,146.17,13.92,267.19,138.87,272.28,144.18a18.5,18.5,0,0,1-13.36,31.27Z"/><path class="cls-13" d="M478,972.37c-38.07-44.17-63.25-127-3.19-176.4,59.13-48.58,154.32,17.82,169.84,112.77Z"/><path class="cls-13" d="M644.64,908.74,479.82,971.67l-1.83.7c-38.07-44.17-63.25-127-3.19-176.4,58.62-48.15,152.58,16.6,169.37,110.19C644.36,907,644.5,907.9,644.64,908.74Z"/><path class="cls-14" d="M644.64,908.74,479.82,971.67c-15.24-39.53-17.47-90.34,24.24-118.63,49.24-33.41,107.71-4.88,140.11,53.12C644.36,907,644.5,907.9,644.64,908.74Z"/><path class="cls-4" d="M510.64,1012.34a13.77,13.77,0,0,1-5.61-1.19c-37.26-16.5-71.86-69.07-78.76-119.67-5.82-42.66,8.29-80.38,39.73-106.22,26.26-21.58,61.16-25.36,95.76-10.39,53.78,23.28,94.31,84.49,98.55,148.86a13.87,13.87,0,0,1-27.67,1.83c-4.19-63.51-45.39-109.44-81.89-125.24-14.53-6.28-42.57-13.82-67.14,6.37-30.41,25-33,57.87-29.86,81,6.11,44.81,37.26,86.88,62.51,98.06a13.87,13.87,0,0,1-5.62,26.55Z"/><path class="cls-5" d="M465.2,1081.9c-8.26-56,15.32-159.21,59.08-164.67,24.72-3.09,27.76,21.78,31,34.42.26,1,1.92.9,1.84-.15-3-37.46,3.23-94.62,43.86-86.48,23.09,4.62,27.22,47.43,26.17,56.79a.92.92,0,0,0,1.54.79c31.73-28,60.66-62.83,135.2-65,0,0-184.75,123.83-194.43,138.34"/><path class="cls-4" d="M455.07,1083.4c-3.58-25-1.87-49.24,2-73.21,4.2-23.9,10.52-47.63,23-70.05,6.45-11,14.46-22.36,28.16-29.88a43.81,43.81,0,0,1,11.18-4.12,42.85,42.85,0,0,1,12.12-.87A32.15,32.15,0,0,1,555,917.76c5.3,6.83,7.58,13.83,9.39,20.11.88,3.15,1.58,6.2,2.24,8.89l.24,1,.12.46.06.24,0,.12c0-.07.1.38-.1-.41a11.42,11.42,0,0,0-3.74-5.76,11.67,11.67,0,0,0-5.52-2.51,11.42,11.42,0,0,0-5.83.59,11.94,11.94,0,0,0-6.32,5.56,12.39,12.39,0,0,0-1.36,4.33,11,11,0,0,0-.08,1.9c0,.52,0,.06,0,.14l0-.58-.1-1.17-.18-2.33a201.67,201.67,0,0,1,.73-37.53c1.67-12.65,4.21-25.73,12-38.82,4.07-6.35,9.92-12.81,18-16.8a42.57,42.57,0,0,1,24.85-3.9l2.86.47,1.43.25,1.77.44a30.47,30.47,0,0,1,6.78,2.57,37.31,37.31,0,0,1,10.66,8.25c5.64,6.3,8.83,13,11.28,19.47a105.15,105.15,0,0,1,5,19.45c.52,3.24.92,6.49,1.18,9.82.12,1.67.22,3.35.25,5.13a50.18,50.18,0,0,1-.21,6.08c0,.36.05-.64,0-1.06a13,13,0,0,0-.14-1.7,12.55,12.55,0,0,0-1.08-3.47,12,12,0,0,0-4.88-5.23,11.77,11.77,0,0,0-12.92.89c-1.13,1-.66.58-.66.58l.21-.18.42-.36.85-.71,3.37-2.84,6.8-5.67,13.79-11.21c9.31-7.39,18.84-14.6,28.68-21.44,19.67-13.69,40.67-25.89,63-35.21a9.4,9.4,0,0,1,7.58,17.21c-20.46,9.57-39.65,21.83-57.79,35.64-9.08,6.9-17.92,14.19-26.61,21.73l-13,11.49-6.43,5.84-3.22,3-.8.74-.4.36-1.29,1.11a13.35,13.35,0,0,1-7.22,2.76,13.67,13.67,0,0,1-7.76-1.77,13.89,13.89,0,0,1-6.81-10,12.53,12.53,0,0,1-.16-2,12.24,12.24,0,0,1,.05-1.34c0-.35.08-1.57,0-2.68s-.08-2.38-.18-3.63c-.2-2.5-.51-5-.92-7.58a79.42,79.42,0,0,0-3.71-14.49,34,34,0,0,0-6-10.8,10.9,10.9,0,0,0-3.09-2.46,4.85,4.85,0,0,0-1.39-.53l-.35-.11-.74-.09-1.48-.2c-3.88-.35-6.83.21-9.25,1.57s-4.81,3.79-6.92,7.29c-4.49,7-7.29,17.27-8.78,27.68a175.24,175.24,0,0,0-1.34,32.49l.11,2.05.06,1,0,.51,0,.42A14.32,14.32,0,0,1,570,953a13.68,13.68,0,0,1-1.52,4.85,13.58,13.58,0,0,1-20.55,4.07,13.29,13.29,0,0,1-4.34-6.65l-.69-2.87c-.68-3-1.24-5.66-1.9-8.15-1.26-5-2.94-9.23-4.86-11.69a8.38,8.38,0,0,0-6.51-3.66,19.74,19.74,0,0,0-5.32.3A20.25,20.25,0,0,0,519,931c-7.16,3.56-13.94,11.61-19.25,20.6-10.7,18.34-17.25,40.36-21.41,62.34-4,22-5.81,45-3.05,66.47l0,.23a10.23,10.23,0,0,1-20.28,2.76Z"/><path class="cls-15" d="M1137.82,571.63l-43.68-304.79a57.73,57.73,0,1,0-43.71-5.89L927.48,539"/><path class="cls-16" d="M1137.82,571.63l-43.68-304.79a57.73,57.73,0,1,0-43.71-5.89L927.48,539"/><path class="cls-4" d="M1137.79,590.13a18.49,18.49,0,0,1-18.28-15.87l-45.87-320.08L944.39,546.49a18.49,18.49,0,0,1-33.82-15l117-264.59a76.24,76.24,0,1,1,86.94,11.74L1156.12,569a18.49,18.49,0,0,1-15.68,20.93A19.8,19.8,0,0,1,1137.79,590.13Zm-58.41-418.36A39.24,39.24,0,0,0,1059.72,245l14,8.15,15.66-4.15a39.25,39.25,0,0,0-10-77.19Z"/><path class="cls-15" d="M1382.37,661l50-303.82a57.74,57.74,0,1,0-39.91-18.76L1191.57,566.7"/><path class="cls-16" d="M1382.37,661l50-303.82a57.74,57.74,0,1,0-39.91-18.76L1191.57,566.7"/><path class="cls-4" d="M1382.39,679.54a19.33,19.33,0,0,1-3-.25A18.5,18.5,0,0,1,1364.12,658L1416.59,339,1205.45,578.91a18.49,18.49,0,1,1-27.76-24.43L1368.82,337.3a76.24,76.24,0,1,1,79.39,37.33L1400.61,664A18.5,18.5,0,0,1,1382.39,679.54ZM1417,338l16.18.76A39.25,39.25,0,1,0,1406.08,326Z"/><path class="cls-15" d="M1633.56,369.63a57.74,57.74,0,0,1-62.79,43.49L1428.13,728.45l-15.17-.89a1428.12,1428.12,0,0,1-268.18-41.2,1424.66,1424.66,0,0,1-255.49-91.19l5.89-348.89a57.75,57.75,0,1,1,45.27-3.42l33.7,128.34c10.87,41.4,49.81,61.37,85.62,55.89,21.52-3.25,41.89-15.71,54.45-38.2l147.91-265.61a57.7,57.7,0,1,1,43,9.89l15.57,307.5c3.48,68.84,89.38,98,134,45.41l78.88-92.95a57.72,57.72,0,1,1,100-23.5Z"/><g class="cls-12"><path class="cls-7" d="M1059.77,427.09l-.08,13.21-38.53,3.95A70.16,70.16,0,0,1,945,387.1L915.88,228s32.28-10.88,24.92-47.56c-7.45-37.13-53.58-30.19-53.58-30.19l4.09-11.79a57.72,57.72,0,0,1,49.14,104.37l33.7,128.34C985,412.6,1024,432.57,1059.77,427.09Z"/></g><g class="cls-12"><path class="cls-7" d="M1345.38,492.38l-6.17,11.29,31,21.54A68.35,68.35,0,0,0,1462,512.45l99.84-121.81s-22.37-24.5,1.2-52.29c23.86-28.12,59.89-.45,59.89-.45l2.07-12a56.22,56.22,0,0,0-91.1,65.76l-89.25,93.46C1415.9,515.29,1373.3,513.94,1345.38,492.38Z"/></g><path class="cls-15" d="M970.36,203.24l-13-49.46A57.44,57.44,0,0,1,970.36,203.24Z"/><path class="cls-16" d="M1454.9,674.16l-26.42,58.38-15.17-.89a1428.12,1428.12,0,0,1-268.18-41.2,1423.89,1423.89,0,0,1-255.49-91.19l1.24-73.71A1632.16,1632.16,0,0,0,1182.1,629.37,1625.47,1625.47,0,0,0,1454.9,674.16Z"/><path class="cls-4" d="M1428.15,746.92l-1.06,0L1411.9,746a1438.68,1438.68,0,0,1-530.44-134.1,18.5,18.5,0,0,1-10.65-17l5.68-336.8c-29.15-16.48-44.93-51.23-36.65-84.71A76.22,76.22,0,1,1,961.7,251L992,366.51c7.28,27.75,29.81,40.16,48.48,42.52s43.57-4.06,57.53-29.12l140.76-252.75a76.25,76.25,0,1,1,85.5,19.65l14.82,292.93c1.46,28.82,21.12,45.57,39,51.64s43.71,4.71,62.38-17.28l69.84-82.28a76.21,76.21,0,1,1,141.12-17.74h0a76.34,76.34,0,0,1-68.9,57.75L1445,736.05A18.47,18.47,0,0,1,1428.15,746.92ZM908,583.46A1401.74,1401.74,0,0,0,1414,709.1l2.52.15,137.41-303.76a18.56,18.56,0,0,1,19-10.75,39.22,39.22,0,0,0,42.64-29.54h0a39.24,39.24,0,1,0-68,16,18.51,18.51,0,0,1,0,23.93L1468.75,498c-25.65,30.22-64.91,41.09-102.44,28.37s-62.11-45.2-64.11-84.79L1286.64,134.1a18.5,18.5,0,0,1,15.4-19.17,39.24,39.24,0,1,0-29.2-6.71,18.5,18.5,0,0,1,5.45,24.07L1130.36,397.91c-19.18,34.43-55.4,52.73-94.48,47.81S966.27,414,956.27,375.9L922.58,247.55a18.47,18.47,0,0,1,9.34-21.09,39.24,39.24,0,1,0-30.78,2.31,18.49,18.49,0,0,1,12.53,17.82Zm725.57-213.82h0Z"/><polygon class="cls-17" points="1167.73 583.64 1137.46 496.05 1209.63 437.92 1239.9 525.51 1167.73 583.64"/><g class="cls-18"><polygon class="cls-7" points="1137.46 496.05 1209.63 437.92 1188.65 509.46 1137.46 496.05"/></g><path class="cls-4" d="M1158.84,614.53l-43.1-124.73L1218.52,407l43.1,124.74Zm.34-112.23,17.43,50.44,41.57-33.48-17.43-50.44Z"/></svg>