<svg id="Layer_1" data-name="Layer 1" xmlns="http://www.w3.org/2000/svg" viewBox="0 0 2300.37 3414.47"><defs><style>.cls-1{fill:#fd6220;}.cls-2{fill:#ed0000;}.cls-3{fill:#c60000;}.cls-4{fill:#352e2c;}.cls-11,.cls-5{fill:#fff;}.cls-6{font-size:272px;fill:#f90b0b;font-family:Arial-BoldMT, Arial;font-weight:700;}.cls-7{letter-spacing:-0.07em;}.cls-8{letter-spacing:-0.04em;}.cls-9{fill:#ffd097;}.cls-10{fill:#fcb670;}.cls-11{stroke:#1d1d1b;stroke-miterlimit:10;stroke-width:40px;}.cls-12{fill:#ffead4;}.cls-13{fill:#225e87;}.cls-14{fill:#0a3b56;}</style></defs><title>senator2</title><rect class="cls-1" y="1877.93" width="2028.85" height="404.32"/><rect class="cls-2" x="67.92" y="2282.25" width="1893.02" height="1132.22"/><rect class="cls-3" x="67.92" y="2282.25" width="1893.02" height="223.25"/><rect class="cls-2" y="2282.25" width="2028.85" height="171"/><rect class="cls-3" x="516.95" y="2024.95" width="994.94" height="110.27"/><rect class="cls-4" x="516.95" y="2107.67" width="994.94" height="29.29"/><rect class="cls-5" x="262.17" y="2584.27" width="1504.52" height="467.56"/><text class="cls-6" transform="translate(635.14 2937.52)">VO<tspan class="cls-7" x="392.99" y="0">T</tspan><tspan class="cls-8" x="538.95" y="0">A</tspan></text><path class="cls-9" d="M2527.06,603.89l-417.88,525.27,376,299.13L2903.06,903c82.61-103.83,65.41-255-38.42-337.58S2609.66,500.05,2527.06,603.89Z" transform="translate(-854.2 -282.02)"/><path class="cls-10" d="M2296.46,1278.14l188.73,150.15L2903.05,903c82.62-103.83,65.41-255-38.43-337.58Z" transform="translate(-854.2 -282.02)"/><path class="cls-10" d="M2070.25,1098.28a265.92,265.92,0,0,0-77.43,169.17c57.28-10.82,132.4,10.93,172.66,51.17l15.95,16c42.63,42.64,43.26,112.4.64,155L2143.64,1528c99.34,47.85,221.52,30,303.93-52.41,104.22-104.24,104.15-273.12-.06-377.34S2174.47,994.06,2070.25,1098.28Z" transform="translate(-854.2 -282.02)"/><path class="cls-10" d="M2445.19,1478a88.92,88.92,0,0,0,0-125.8h0a88.92,88.92,0,0,0-125.8,0l-322.58,322.57a88.9,88.9,0,0,0,0,125.76h0a88.89,88.89,0,0,0,125.76,0Z" transform="translate(-854.2 -282.02)"/><path class="cls-9" d="M2223.92,1699.24a88.9,88.9,0,0,0,0-125.79h0a88.91,88.91,0,0,0-125.8,0l-101.31,101.3a88.9,88.9,0,0,0,0,125.76h0a88.89,88.89,0,0,0,125.76,0Z" transform="translate(-854.2 -282.02)"/><rect class="cls-11" x="606.58" y="1065.02" width="771.79" height="997.95"/><path class="cls-9" d="M1842.8,1297.53a88.92,88.92,0,0,0,0-125.79h0a88.9,88.9,0,0,0-125.8,0l-137.32,137.32a88.89,88.89,0,0,0,0,125.76h0a88.92,88.92,0,0,0,125.77,0Z" transform="translate(-854.2 -282.02)"/><path class="cls-9" d="M2247.25,1198.85a88.92,88.92,0,0,0,62.94-108.92h0a88.89,88.89,0,0,0-109-62.86l-440.65,118.07a88.89,88.89,0,0,0-62.89,108.9h0a88.91,88.91,0,0,0,108.92,62.88Z" transform="translate(-854.2 -282.02)"/><path class="cls-10" d="M1777.4,1211.45A106.93,106.93,0,0,0,1749,1262l0,.15c-.21.66-.4,1.32-.58,2l-46.68,174.24c1.27-1.12,2.54-2.32,3.77-3.55l124.09-124.08,206.26-55.27a107.13,107.13,0,0,0-47.62-171.36l-114.06,30.56Z" transform="translate(-854.2 -282.02)"/><path class="cls-9" d="M2201.22,1027.07l-269.53,72.67,46,171.78,269.53-72.67a88.92,88.92,0,1,0-46-171.78Z" transform="translate(-854.2 -282.02)"/><path class="cls-9" d="M1937.73,1314.91a88.91,88.91,0,0,0-62.85-109h0A88.91,88.91,0,0,0,1766,1268.87l-50.27,187.61a88.88,88.88,0,0,0,62.87,108.9h0a88.91,88.91,0,0,0,108.92-62.88Z" transform="translate(-854.2 -282.02)"/><path class="cls-9" d="M2017.32,1248.76a89,89,0,0,0,0-125.81h0a88.94,88.94,0,0,0-125.8.06l-101.31,101.3a88.89,88.89,0,0,0,0,125.77h0a88.88,88.88,0,0,0,125.76,0Z" transform="translate(-854.2 -282.02)"/><path class="cls-10" d="M1922.52,1184.78c-.28.27-.55.57-.92,1l-.24.24a107.53,107.53,0,0,0-27.76,103.59l25.46,95,13.74-51.32,67-67,35.83-194.6Z" transform="translate(-854.2 -282.02)"/><path class="cls-9" d="M2082.94,1238.83A88.93,88.93,0,0,0,1974,1175.89h0a88.91,88.91,0,0,0-62.86,109l50.27,187.58a88.87,88.87,0,0,0,108.91,62.9h0a88.91,88.91,0,0,0,62.87-108.91Z" transform="translate(-854.2 -282.02)"/><path class="cls-12" d="M1994.29,1386.77c-28.59,6-46.22,27.88-42.21,46.16l6.36,28.13c7.37,37.25,36,63.76,63.93,59.29s44.87-38.21,37.52-75.45c0,0-3.47-14.8-7.5-33.12S2024,1380.5,1994.29,1386.77Z" transform="translate(-854.2 -282.02)"/><path class="cls-12" d="M1778.77,1394.52c-28.5-6.47-53.64,6-57.63,24.31l-6,28.22c-8.86,36.93,6.06,73,33.32,80.57s56.72-16,65.59-52.91c0,0,3-14.89,7-33.21S1808.4,1401.24,1778.77,1394.52Z" transform="translate(-854.2 -282.02)"/><path class="cls-12" d="M1659.06,1302.17c-21.28-20.05-49.29-22-62-8.3l-19.45,21.3c-26.37,27.32-31.8,65.94-12.17,86.33s57,15,83.37-12.3c0,0,10.16-11.3,22.9-25S1681.18,1323,1659.06,1302.17Z" transform="translate(-854.2 -282.02)"/><path class="cls-9" d="M2201.22,1027.07,2093,1055.69l46,171.77,108.19-28.61a88.92,88.92,0,1,0-46-171.78Z" transform="translate(-854.2 -282.02)"/><path class="cls-9" d="M2119.33,1098.76l271.11,271.12c42.69,42.68,125.38-.37,131.81-40a266.52,266.52,0,0,0-74.74-231.58c-81.35-81.35-202.2-99.18-300.88-53.43C2150.39,1051.22,2119.33,1098.76,2119.33,1098.76Z" transform="translate(-854.2 -282.02)"/><path class="cls-9" d="M2180.46,1204.07a88.89,88.89,0,0,0,0-125.79h0a88.9,88.9,0,0,0-125.79,0l-119.32,119.33a88.88,88.88,0,0,0,0,125.76h0a88.88,88.88,0,0,0,125.74,0Z" transform="translate(-854.2 -282.02)"/><path class="cls-13" d="M2673,384,2203.14,974.64,2625.94,1311l469.87-590.62c92.89-116.76,73.54-286.69-43.21-379.58S2765.9,267.23,2673,384Z" transform="translate(-854.2 -282.02)"/><path class="cls-14" d="M2413.72,1142.16,2625.94,1311,3095.8,720.36c92.9-116.76,73.54-286.69-43.21-379.58Z" transform="translate(-854.2 -282.02)"/></svg>