<svg id="Layer_1" data-name="Layer 1" xmlns="http://www.w3.org/2000/svg" viewBox="0 0 2559.62 3030.64"><defs><style>.cls-1{fill:#feb845;}.cls-2{fill:#f48d40;}.cls-3{fill:#f4ad7d;}.cls-4{fill:#650000;}.cls-5{fill:#b1411e;}.cls-6{opacity:0.3;}.cls-7{fill:#fff;}.cls-8{fill:#963f27;}.cls-9{fill:#e8e8e8;}.cls-10{fill:#ffd4b2;}.cls-11{opacity:0.5;}.cls-12{opacity:0.7;}.cls-13{fill:#fc7e81;}.cls-14{fill:#ff5c64;}.cls-15{fill:#fcd629;}.cls-16{fill:#ffad1d;}.cls-17{fill:#ec0411;}.cls-18{opacity:0.4;}.cls-19{fill:#232323;}.cls-20{fill:#ffcd50;}.cls-21{fill:#fc9130;}.cls-22{fill:#35374d;}</style></defs><title>Artboard 16</title><path class="cls-1" d="M1783.75,2856.08c-22,6.1-46.32,10.63-72.72,13.91-124.89,15.58-642-15.57-642-15.57l-71.7-442.93-19.69-121.85L952,2130.82s641.23-828.76,677.65-466.27c21.54,214.53,51.31,342.06,84.27,428.78,59.72,157.49,129.89,180.55,179.91,346.31C1975.76,2711.17,1926.35,2816.7,1783.75,2856.08Z"/><path class="cls-2" d="M1783.75,2856.08c-22,6.1-46.32,10.63-72.72,13.91-124.89,15.58-642-15.57-642-15.57l-71.7-442.93a552.86,552.86,0,0,1,234.22-51.72C1518.32,2359.77,1754.3,2577.12,1783.75,2856.08Z"/><path class="cls-2" d="M1713.9,2093.33c-113,68.46-350.61,195.25-579.19,208.29a608.28,608.28,0,0,1-157-12L952,2130.82s641.23-828.76,677.65-466.27C1651.17,1879.08,1680.94,2006.61,1713.9,2093.33Z"/><path class="cls-3" d="M1136.19,2301.52c-.51.05-1,.05-1.48.1-115.84,6.61-222.85-22.7-311.83-62.36-10.31-148.43-8.79-321.4,11.32-480.64,28.85-34.21,57.92-68.65,86-101.84Z"/><path class="cls-3" d="M1470.48,2217.07c-24.17,10-49.23,19.6-74.84,28.52-83.2,29-172.74,51-260.93,56-68.28,3.88-133.5-4.67-193.73-20.53a.14.14,0,0,1-.09,0c-4-82.93,19.46-166.74,117.92-196.55,77.28-28.1,152.68-20.75,221.69,6.24,28.94,8,55.79,18.21,78.53,29.68,2.22,4.76,4.3,9.52,6.34,14.28C1404.66,2159.8,1440.21,2188.92,1470.48,2217.07Z"/><path class="cls-4" d="M1595.25,2892.85c-193,0-510.49-19-527.3-20l-14.77-.9L932.47,2125.85l4.91-6.34c1.17-1.52,118.45-152.74,253.88-296.36,188.74-200.14,316.8-287,391.53-265.6,37.35,10.71,59.29,46.1,65.22,105.17h0c39.26,391,104.79,487.34,168.17,580.53,33.31,49,67.75,99.61,95.34,191,51.31,170.06,53.54,282.58,7,354.11-35.88,55.16-101.09,86.92-205.22,99.93C1687.44,2891.56,1645.55,2892.85,1595.25,2892.85Zm-510.3-56c85.27,4.91,513.72,28.59,623.78,14.82,93.77-11.72,148.91-37.44,178.81-83.4,40.14-61.71,36.51-164.43-11.42-323.26-25.95-86-57.31-132.11-90.51-180.93-66-97-134.19-197.3-174.39-597.62h0c-4.27-42.53-17.27-67.2-38.62-73.32-33.38-9.55-123.79,10.88-354.26,255.24-118.63,125.78-223.28,257.54-246.8,287.5Z"/><path class="cls-1" d="M1859.8,2807.34s264.72-25.9,330.36-214.36c77.13-221.47-166.51-415.41,10.24-610.93L2179.91,1927c-147.14,103.75-165.74,207.65-102.46,468.77,67.88,280.12-227.65,266.05-227.65,266.05Z"/><path class="cls-2" d="M2190.16,2593c-65.65,188.48-330.37,214.36-330.37,214.36l0-128.46c77.16-15.94,222,57.06,297.83-109.77,72.06-158.46-162.52-371.54,8.5-568.95,15.13-14.2-5.88-59.33,13.74-73.16l20.5,55.08C2023.67,2177.57,2267.31,2371.5,2190.16,2593Z"/><path class="cls-4" d="M1859.78,2825.83a18.49,18.49,0,0,1-1.79-36.89h0c2.53-.26,253.79-27.13,314.71-202.05,31.86-91.49,4.8-180.54-21.37-266.67-34-111.83-69.1-227.37,27.9-342l-8.11-21.8c-120.68,92.74-135.47,188.37-75.7,435,21.16,87.33,10.79,157.15-30.83,207.54-72,87.14-209.84,81.65-215.67,81.33a18.49,18.49,0,1,1,1.76-36.93c1.22,0,125.45,4.8,185.5-68.08,33.71-40.91,41.55-99.83,23.3-175.15-66-272.17-41.34-381.68,109.78-488.23l19.61-13.83,32.78,88.09-7.53,8.32c-92.17,102-62.16,200.7-27.41,315,27.9,91.79,56.74,186.71,20.91,289.59-68.74,197.36-334.73,225.57-346,226.68C1861,2825.8,1860.38,2825.83,1859.78,2825.83Z"/><path class="cls-5" d="M2446.05,1873.09s-27.41-85.55-132.16-77.19c-89.79,7.17-136.63,75-159.5,126.87-17.62,39.93-1,87,38.09,106.44,37.29,18.59,93.92,30.94,173.37,9,149.17-41.15,148-166.82,145.89-187.27a1,1,0,0,0-1.79-.6c-9.08,9.67-59.73,55.31-179.39,19"/><g class="cls-6"><path class="cls-7" d="M2442,1873.06l-38.2-1.26c-20.41-16-50.55-28.74-94-25.25-89.79,7.16-134.42,57.58-157.3,109.43-1.17,2.6-4.35,22.67-5.21,25.35a82.17,82.17,0,0,1,3-58.57c22.88-51.85,69.71-119.69,159.5-126.85C2414.56,1787.53,2442,1873.06,2442,1873.06Z"/></g><path class="cls-8" d="M2365.87,2038.22c-79.48,21.94-136.08,9.58-173.38-9-39.09-19.48-55.71-66.5-38.11-106.44.63-1.43,1.3-2.91,2-4.39a80.56,80.56,0,0,0,36.09,35.87c37.3,18.58,93.9,30.94,173.38,9,74.38-20.51,111.36-62.06,129.54-101.11a78.51,78.51,0,0,0,14.56-11.82,1,1,0,0,1,1.79.58C2513.82,1871.42,2515,1997.11,2365.87,2038.22Z"/><path class="cls-4" d="M2428.44,1878.73c-.4-1.16-1.55-3.88-2.5-5.93-1.12-2.21-2.16-4.44-3.48-6.59a67.39,67.39,0,0,0-4-6.41,66.38,66.38,0,0,0-4.41-6.12,101.53,101.53,0,0,0-21.45-20.73c-16.19-11.49-35.87-17.55-56.6-18.72a160.93,160.93,0,0,0-62.11,9.1c-19.72,7.18-37.52,19-53,33.6s-28.38,32.58-39,51.88l-3.9,7.3-3.63,7.47c-1.25,2.47-2.29,5.05-3.43,7.58l-1.68,3.81-1.17,3.21a55.82,55.82,0,0,0-3,26.49,58.74,58.74,0,0,0,28.17,43.69,72.83,72.83,0,0,0,6.55,3.58c2.33,1.26,4.79,2.28,7.19,3.4q7.27,3.24,14.86,5.78a188,188,0,0,0,31.19,7.5c21.3,3.28,43.34,2.81,65.2-.09a319.06,319.06,0,0,0,32.67-6.45c11-2.46,21.07-6.54,31.54-9.85,20-8.29,39.38-18,55.37-31.77a153.12,153.12,0,0,0,38.21-49,50.91,50.91,0,0,0,3.24-7.13l3-7.27c1.76-4.94,3.34-10,4.83-15a184.18,184.18,0,0,0,5.31-31.16l.35-7.81c0-2.47,0-5.19-.12-7.45l-.1-1.71-.05-.85s-.12-.7.23,1.47a18.37,18.37,0,0,0,26.83,12.66,18.11,18.11,0,0,0,3.83-2.78c1.59-1.6.29-.29.57-.58l-.52.53-2.12,2.1-4.21,3.72-4.28,3.33a133.81,133.81,0,0,1-36.71,18.81,177.32,177.32,0,0,1-77.2,7.5,212.53,212.53,0,0,1-71-21.66,9.4,9.4,0,0,1,5.1-17.72l.27,0c23.44,2,45.85,4.78,67.84,4.74,21.84.13,43.38-1.55,62.53-8.56a96.06,96.06,0,0,0,25.81-13.81l2.66-2.16,2.37-2.2,1-1,.26-.26,1-1a20.81,20.81,0,0,1,4.27-3.1,20.45,20.45,0,0,1,29.83,14.08,17.32,17.32,0,0,1,.29,2l.1,1.36.2,2.71c.26,3.62.2,6.81.29,10.23l-.34,9.89c-1.85,26-7.89,51.85-19.77,75.44a192.82,192.82,0,0,1-48.35,61.76c-20.07,17.06-43.37,28.85-67,38.15-12,3.77-24.05,8.29-36.14,10.87a356.3,356.3,0,0,1-36.84,6.84c-24.94,3-50.56,3.38-76-.63a225.77,225.77,0,0,1-37.51-9.24q-9.19-3.14-18.08-7.16c-2.94-1.38-5.92-2.67-8.79-4.22s-5.71-2.91-8.94-5c-25.24-15-42.51-42.31-45.62-71.36a92.8,92.8,0,0,1,5-43.19l1.9-5.09,1.89-4.29c1.28-2.85,2.46-5.75,3.87-8.55l4.11-8.45,4.45-8.32a263.9,263.9,0,0,1,20.47-31.94,227.7,227.7,0,0,1,25.37-28.88c18.74-17.75,41.09-32.58,65.81-41.57a197.68,197.68,0,0,1,77-11.32c26.26,1.41,53.52,9.53,75.88,25.51a138.3,138.3,0,0,1,29.29,28.26,99.9,99.9,0,0,1,5.93,8.24c1.9,2.8,3.71,5.66,5.34,8.65s3.23,6,4.76,9.07a104.36,104.36,0,0,1,4.27,10.41,18.48,18.48,0,0,1-34.92,12.12Z"/><path class="cls-1" d="M1219,2935.68c-25.47,48.44-283.54,81.35-292.14-23.53a47.89,47.89,0,0,1,.88-14.24c8-37.72,60.65-50.24,62.77-54.13-80.1-140.33-132.71-316.54-152.63-458.08-33-234.08-33.56-599.35,41.28-851.36l294.54,879.23,48.77,145.56C1230.07,2650.66,1244.21,2887.61,1219,2935.68Z"/><path class="cls-2" d="M1219,2935.68c-25.47,48.44-283.54,81.35-292.14-23.53a47.89,47.89,0,0,1,.88-14.24c20.43,13.64,61,32.13,131,32.13,83.25,0,106.92-51.91,109-105.95,2.31-60.23-22.28-118.24-64.9-160.81-46.22-46-112.28-122.45-112.28-182.59,0-44.65,90.09-61.57,183.19-67.12l48.77,145.56C1230.07,2650.66,1244.21,2887.61,1219,2935.68Z"/><path class="cls-2" d="M1136.19,2301.52c-.51.05-1,.05-1.48.1-115.84,6.61-222.85-22.7-311.83-62.36-10.31-148.43-8.79-321.4,11.32-480.64,28.85-34.21,57.92-68.65,86-101.84Z"/><path class="cls-4" d="M896.91,1539.61c-15.2,52.8-26.38,107-35,161.6-4.37,27.31-8,54.78-11,82.33s-5.57,55.16-7.55,82.83c-4,55.34-5.94,110.88-6.35,166.42s.77,111.12,3.79,166.56,7.8,110.77,14.87,165.65a1304.46,1304.46,0,0,0,31.7,162.17c6.84,26.73,14.55,53.24,22.79,79.57,8.54,26.23,17.37,52.39,27.45,78a1139.79,1139.79,0,0,0,69.69,149.41,19.61,19.61,0,0,1,.31,18.6l-.17.34a21.62,21.62,0,0,1-3.72,4.82c-.43.42-.88.82-1.35,1.21l-.82.64c-.58.44-1.12.8-1.42,1l-1,.65c-1.16.67-2,1.09-2.71,1.44l-3.62,1.65-5.87,2.53c-3.68,1.59-7.13,3.17-10.45,4.86a89.48,89.48,0,0,0-17.5,11.28,39.2,39.2,0,0,0-10.59,13.22,27.77,27.77,0,0,0-2.29,14.93c1,11.7,6.9,21,17.42,28.83s24.68,13,39.5,16.52c30,6.79,62.94,7.16,95,4a356.26,356.26,0,0,0,47.58-8c15.41-3.73,30.77-8.63,43.37-15.29,6.17-3.14,11.76-7.52,13.32-9.88.17-.29.18-.31.41-.65.24-.57.52-1,.78-1.66.53-1.24,1.07-2.7,1.59-4.28a101.08,101.08,0,0,0,2.75-10.41c3.15-14.94,4.76-31.44,6-47.85,2.23-33,2.91-66.63,2.94-100.26s-.35-67.41-1-101.18l-1-50.7-1.38-50.7v-.07a9.26,9.26,0,0,1,18.43-1.46c8.87,67.53,15,135.29,17.63,203.52,1.17,34.14,1.88,68.34.14,103-1,17.4-2.24,34.76-5.73,53.08a139.34,139.34,0,0,1-3.52,14.21,78.85,78.85,0,0,1-2.77,7.65c-.5,1.28-1.27,2.75-1.91,4.1-.81,1.5-1.88,3.31-2.88,4.78a59.73,59.73,0,0,1-13,13.15,98.33,98.33,0,0,1-13.13,8.3c-17.4,9.2-34.68,14.48-52.11,18.86a392,392,0,0,1-52.59,9c-35.27,3.5-71.07,3.55-107.33-4.4-18-4.28-36.5-10.42-53.54-22.75a83.48,83.48,0,0,1-22.35-23.79,75.25,75.25,0,0,1-10.66-32,66.37,66.37,0,0,1,5.48-34.67A77.47,77.47,0,0,1,933.9,2854a126.72,126.72,0,0,1,25-16.41c4.23-2.17,8.48-4.12,12.56-5.91l5.81-2.52,2.15-1c.24-.11.35-.19.1,0a11,11,0,0,0-1.13.77l-.51.4c-.37.3-.72.61-1.06.94a18.5,18.5,0,0,0-3.2,4.22l.13,18.94a1176.73,1176.73,0,0,1-73.26-154.11,1435.78,1435.78,0,0,1-52.78-161.79,1346.68,1346.68,0,0,1-32.49-167.19c-7.2-56.14-12.08-112.41-15-168.73-6-112.65-5.13-225.58,3.68-338.14,2.18-28.13,4.86-56.25,8.2-84.31s7.12-56.08,11.76-84a1312.51,1312.51,0,0,1,37.63-166,18.49,18.49,0,0,1,35.49,10.4Z"/><path class="cls-1" d="M1854.37,2340.36c110.68,209.25,93.9,393.59,55.7,496.77-10.3,27.82-22.16,49.75-33.5,64.66-67.44,88.74-326.93,74.2-326.52,4,.3-52.34,38.55-68.82,58.65-84.06,0,0-148.2-248.94,62.24-430.91"/><path class="cls-2" d="M1910.08,2837.13c-10.31,27.83-22.19,49.74-33.52,64.67-67.44,88.75-326.9,74.19-326.53,4a90,90,0,0,1,2.55-21.17c56.67,44.93,253.68,44.33,311.18-31.3,11.33-14.93,23.16-36.84,33.47-64.67,26.53-71.6,42.71-182.17,13.22-313C1956.53,2627.59,1939.75,2756.88,1910.08,2837.13Z"/><path class="cls-4" d="M1870.72,2331.72c20.77,40.12,38.82,81.74,53,124.82a672.37,672.37,0,0,1,29.4,132.77c5.24,45.15,6.1,91,1,136.4s-15,90.48-32.88,133.51a303.18,303.18,0,0,1-15.52,31.7c-6,10.41-12.26,20.42-21.57,30.52-18.17,19.24-40.45,30.92-62.63,39.54-22.36,8.46-45.25,13.66-68.21,16.95a420.46,420.46,0,0,1-69.17,3.86,354.86,354.86,0,0,1-69.37-8.25,210.29,210.29,0,0,1-34.66-10.94c-11.47-5-23.23-11.09-33.91-22.14a52.35,52.35,0,0,1-12.74-21.6,47.38,47.38,0,0,1-1.86-13.47l.51-9.81a96.74,96.74,0,0,1,11.82-38.9c6.87-12.08,16.39-22.13,26.17-30s20-14.11,27.45-19.61h0l-4.71,24.19c-3.13-5.1-5.47-9.36-7.91-14.1s-4.68-9.26-6.87-13.94c-4.43-9.34-8.18-18.93-11.85-28.55a408.68,408.68,0,0,1-17-59.33,379.14,379.14,0,0,1-7.76-61.43,339.1,339.1,0,0,1,2.57-62.06,320.44,320.44,0,0,1,14.14-60.53,330.91,330.91,0,0,1,26.18-56.15c21.14-35.45,49.4-65.77,80.62-91.27a9.25,9.25,0,0,1,12.19,13.9l-.09.09c-28.22,26.33-52.07,56.78-69.77,90.11a303,303,0,0,0-20.9,52.28,311.89,311.89,0,0,0-10.13,55.16c-3.46,37.32.82,75.13,9.45,111.76,4.28,18.36,10.14,36.35,16.51,54.12,3.28,8.84,6.85,17.59,10.62,26.21,1.86,4.31,3.8,8.6,5.82,12.79s4.18,8.59,6,12l8.05,15.14-12.77,9,0,0c-10.39,7.6-19,12.77-26.51,18.86s-13.14,12.37-17.25,19.51a59.83,59.83,0,0,0-7.19,24.08l-.35,6.74a9.76,9.76,0,0,0,.4,2.87,15.78,15.78,0,0,0,4.13,6.54c4.66,5,12.73,9.76,21.45,13.46a173.82,173.82,0,0,0,28.49,8.92,318.41,318.41,0,0,0,62.06,7.33c42,.93,85.06-4.12,123.23-18.4,18.86-7.22,36.53-17.09,48.77-30.21,5.76-6.11,11.51-14.88,16.48-23.58a268,268,0,0,0,13.58-27.8c16.08-38.68,25.48-80.72,30.18-123.07s4-85.56-1-128.15A635.35,635.35,0,0,0,1888.5,2468,807.63,807.63,0,0,0,1838,2349l-.15-.3a18.49,18.49,0,0,1,32.84-17Z"/><path class="cls-1" d="M1521,2926.1c-29.06,89.08-257.9,66.61-283.33,18.15-16.75-31.93-26.65-183.47-22.33-284.68,0-.91.09-1.79.13-2.66-130.91-12.78-191.75-106.42-224.9-176.21,0,0-148.8-317.16,68.25-396.19,91.48-33.31,180.34-16.84,259.07,22.94,149.93,75.77,259.9,228.1,259.9,228.1-7.15,66.48-55.62,325.38-104.17,508.24C1476,2848.15,1542.91,2858.79,1521,2926.1Z"/><path class="cls-2" d="M1525,2908.13a89,89,0,0,1-4,18c-29,89.08-257.89,66.61-283.31,18.12-16.78-31.89-26.67-183.46-22.33-284.65,0-.92.1-1.8.14-2.68-131-12.76-191.78-106.41-224.93-176.21,33.15,69.8,94.51,106.41,237.72,97.17,108-7,156.85-91.84,149-63.09-8.16,29.91-85,119.09-98.15,160.43-34.54,108.22-17.14,196.55,5,227.86C1309.87,2939.35,1452.13,2949.13,1525,2908.13Z"/><path class="cls-9" d="M1337.26,2539.3c-46.41,76.92-120.41,117.6-121.8,117.6-2-.19-4.07-.42-6.1-.65-126.75-15-186.19-106.87-218.83-175.56,33.15,69.8,94.53,106.41,237.74,97.16C1276.15,2574.76,1312.44,2556.36,1337.26,2539.3Z"/><path class="cls-2" d="M1470.48,2217.07c-24.17,10-49.23,19.6-74.84,28.52-83.2,29-172.74,51-260.93,56-68.28,3.88-133.5-4.67-193.73-20.53-2.63-80.06,21.82-161.64,117.83-196.59,77.28-28.1,152.68-20.75,221.69,6.24,12.66,5,25.15,10.59,37.35,16.73a542,542,0,0,1,47.52,27.23C1404.66,2159.8,1440.21,2188.92,1470.48,2217.07Z"/><path class="cls-7" d="M1215.44,2656.91c-130.91-12.78-195.88-94.62-224.9-176.21,0,0-149.57-330.25,68.25-396.19,93.18-28.21,221.51-3.86,300.25,35.92,65.43,140.87,43.75,286.75-10,397.22C1304.39,2609.4,1215.4,2657.78,1215.44,2656.91Z"/><path class="cls-9" d="M1337.26,2539.3c-46.41,76.92-120.41,117.6-121.8,117.6-2-.19-4.07-.42-6.1-.65-126.89-14.65-190.26-95.27-218.83-175.56,33.15,69.8,94.53,106.41,237.74,97.16C1276.15,2574.76,1312.44,2556.36,1337.26,2539.3Z"/><path class="cls-9" d="M941,2281.09c.09,2.22.18,4.39.28,6.61-.14-2.22-.28-4.43-.37-6.65-4-82.93,19.46-166.74,117.92-196.55,66.24-20.06,150.32-13.5,221.69,6.24,28.94,8,55.79,18.21,78.53,29.68,2.22,4.76,4.3,9.52,6.34,14.28a429.61,429.61,0,0,1,30.27,110.89c-83.2,29-156.51,65-259.45,69.06C1067.86,2317.36,1001.21,2297,941,2281.09Z"/><path class="cls-4" d="M1587,2336.52c-2.2,44.09-8.44,86.87-14.39,129.95-3.31,21.45-6.85,42.85-10.49,64.24s-7.34,42.77-11.58,64-8.41,42.57-12.75,63.83l-6.67,31.86-7.25,31.75c-9.69,42.32-20.17,84.51-32.37,126.33l-1.69-13.69-.09-.17a16.06,16.06,0,0,0-4.73-5.36l-.87-.58-.4-.24c-.36-.2-.28-.14-.12-.08l1.87.79,5.33,2.15c3.78,1.57,7.73,3.35,11.66,5.42a88.27,88.27,0,0,1,22.65,16.66,66.47,66.47,0,0,1,15.66,26.26,74,74,0,0,1,2.74,29.37,98.38,98.38,0,0,1-2.3,13.51c-.51,2.18-1.1,4.3-1.72,6.39l-1,3.15-1.26,3.45a79.38,79.38,0,0,1-15.14,24.58c-12.76,14.07-28.43,22.9-43.89,29.09a216.92,216.92,0,0,1-47.12,12.37,327.67,327.67,0,0,1-47.13,3.66c-31.32.12-62.38-3.11-93.25-11.09-15.44-4.19-30.81-9.21-46.32-18.53-7.61-4.88-15.89-10.56-22.54-21.87a75.12,75.12,0,0,1-5.62-13.76c-1.34-4.2-2.35-8.17-3.27-12.11a456.25,456.25,0,0,1-7.69-45.94c-1.87-15.12-3.33-30.17-4.52-45.21-4.56-60.16-6.23-120.08-3.76-180.67h0l16.67,19.24c-26.66-2.83-53.17-9-78-19.46a272.27,272.27,0,0,1-69-41,276.75,276.75,0,0,1-54-58.62c-14.71-22.08-26.49-46.56-31.12-73.19a9.28,9.28,0,0,1,17.77-5l.09.24c8.74,22.08,21.35,42.67,36,61.45a263.6,263.6,0,0,0,51.06,49.55,254,254,0,0,0,62.06,33.59,268.29,268.29,0,0,0,33.77,10,309.57,309.57,0,0,0,34.86,5.56,18.69,18.69,0,0,1,16.67,19.24h0c-2.39,58.32-.76,117.57,3.69,176,1.15,14.61,2.57,29.18,4.35,43.59a421.13,421.13,0,0,0,7,42c.76,3.3,1.6,6.55,2.53,9.43a42,42,0,0,0,2.68,6.91c.8,1.69,4.69,5.47,9.63,8.37,10,6.1,23.13,10.76,36.35,14.25,26.76,7,55.38,10,83.52,9.87,28-.31,56.46-3.81,80.81-13.38,12.07-4.77,22.81-11.35,30.08-19.43a42.22,42.22,0,0,0,8.16-13.17l.67-1.79.68-2.17c.43-1.47.85-2.93,1.18-4.38a61.94,61.94,0,0,0,1.45-8.46c1-11.14-1.53-19.4-8.27-26.47a51.66,51.66,0,0,0-13.22-9.55c-2.66-1.4-5.48-2.69-8.58-4l-5-2-3.27-1.38c-.68-.32-1.45-.67-2.62-1.31l-1-.59c-.36-.21-1-.63-1.45-1a19.65,19.65,0,0,1-5.72-6.33l-.11-.19a17.71,17.71,0,0,1-1.89-12.85l.2-.84,29.44-125.72,7.09-31.53,7.3-31.5q7.18-31.53,14.1-63.13l6.87-31.62,7.13-31.56c4.73-21,9.26-42.15,13.76-63.24q7.23-31.55,13.93-63.18c4.65-21,9.24-42.18,13.24-63l0-.23a9.26,9.26,0,0,1,18.34,2.21Z"/><path class="cls-10" d="M990.54,2843.77s40.73,26.7,136.47,18.5"/><path class="cls-4" d="M998.14,2832.18a24,24,0,0,0,2.41,1.54l3.23,1.78c2.29,1.15,4.62,2.28,7.07,3.3,4.85,2.12,10,3.89,15.17,5.57a227.7,227.7,0,0,0,32.44,7.34,321.47,321.47,0,0,0,33.71,3.43c5.68.26,11.38.31,17.09.48l17.16-.26h.29a6.93,6.93,0,0,1,.9,13.82l-17.64,2c-5.91.41-11.83.94-17.78,1.26a341.45,341.45,0,0,1-35.91-.07,251.64,251.64,0,0,1-36.24-4.51,186.72,186.72,0,0,1-18.14-4.68c-3-.92-6.07-2-9.11-3.19-1.55-.66-3.06-1.24-4.63-2a52.88,52.88,0,0,1-5.22-2.68l-2.77-1.63a14.22,14.22,0,1,1,14.45-24.5A14.57,14.57,0,0,1,998.14,2832.18Z"/><path class="cls-4" d="M1481.56,2859.24a51.71,51.71,0,0,1-5.69,2.86c-1.68.75-3.24,1.34-4.87,2-3.17,1.16-6.32,2.26-9.44,3.17-6.26,1.91-12.46,3.29-18.65,4.53a253.58,253.58,0,0,1-36.87,4,342.35,342.35,0,0,1-36.28-.48c-6-.41-11.94-1-17.89-1.56l-17.72-2.32a9.25,9.25,0,0,1,1.19-18.42h.39l17.09,0c5.67-.27,11.34-.42,17-.78a315.14,315.14,0,0,0,33.34-4,222.9,222.9,0,0,0,31.81-7.81,156.81,156.81,0,0,0,14.67-5.72c2.36-1,4.57-2.17,6.73-3.31,1-.59,2.09-1.17,3-1.76a10.06,10.06,0,0,0,1.93-1.35,18.49,18.49,0,0,1,20.28,30.93Z"/><path class="cls-10" d="M1608.7,2821.75s114.46,32.05,193.49-19.28"/><path class="cls-4" d="M1612.44,2808.4c7,2.11,15.08,4.09,22.83,5.63s15.76,2.93,23.72,4a316.12,316.12,0,0,0,48,2.62,236.32,236.32,0,0,0,47.38-6.22,177,177,0,0,0,44-17.74l.37-.21a6.93,6.93,0,0,1,7.19,11.84,193.08,193.08,0,0,1-46.79,22.77,255.69,255.69,0,0,1-50.83,10.32,340,340,0,0,1-51.65.78c-8.6-.52-17.18-1.32-25.74-2.48s-16.87-2.49-26-4.57a13.88,13.88,0,1,1,6.16-27.07q.46.11.9.24Z"/><path class="cls-4" d="M996.93,2895.27c-5.91,3.71-11.91,9.79-16.45,15.91s-8,13.13-9,19.53a20.76,20.76,0,0,0,3.81,16.36c3.43,4.68,9.14,8.75,15.59,12.1A13.9,13.9,0,0,1,978,2983.84a14.89,14.89,0,0,1-1.67-1c-8.17-5.84-16.41-13-22-23.35a43.39,43.39,0,0,1-3.11-33.88c3.33-10.5,9.36-18.73,16-25.69a89.72,89.72,0,0,1,10.8-9.48,65.52,65.52,0,0,1,12.71-7.61,6.93,6.93,0,0,1,6.49,12.21Z"/><path class="cls-4" d="M1110.69,2904.23a32,32,0,0,0-13,15.55,34,34,0,0,0-1.89,19.69,29.26,29.26,0,0,0,9.27,16c4.66,4.19,10.69,7.08,17.24,9.16l.3.1a13.91,13.91,0,0,1-8.41,26.51,18,18,0,0,1-1.69-.66c-9.3-4.36-18.36-10.29-25.35-18.72a51.93,51.93,0,0,1-12-29.83,53.06,53.06,0,0,1,7.1-30.08,47.55,47.55,0,0,1,22.54-20.2,6.94,6.94,0,0,1,6.19,12.38Z"/><path class="cls-4" d="M1636.54,2880a40.69,40.69,0,0,0-14.28,15.5,30.48,30.48,0,0,0-2.82,18.58c1.93,12.36,11.21,22.59,23.14,28.8a18.6,18.6,0,0,1-17.18,33,19.24,19.24,0,0,1-2.83-1.82l-.51-.4a84.5,84.5,0,0,1-22-25.39,64.62,64.62,0,0,1-8.3-33.33,56.06,56.06,0,0,1,11.14-32,61.77,61.77,0,0,1,25.24-19.39,9.27,9.27,0,0,1,8.73,16.26Z"/><path class="cls-4" d="M1747.81,2879.25a50.29,50.29,0,0,0-12.61,17.17,34.44,34.44,0,0,0-2.38,18.78c1.79,12.29,10.77,23.12,20.78,27a18.67,18.67,0,1,1-13.45,34.84,18.23,18.23,0,0,1-3.57-1.84l-1.3-.87A67.65,67.65,0,0,1,1705.1,2916a60.11,60.11,0,0,1,9.92-30.87,71.55,71.55,0,0,1,22-20.89,9.25,9.25,0,0,1,11.21,14.63Z"/><path class="cls-4" d="M1461.48,2882.81a65.52,65.52,0,0,1,12.71,7.61,89.72,89.72,0,0,1,10.8,9.48c6.65,7,12.68,15.19,16,25.69a43.39,43.39,0,0,1-3.11,33.88c-5.54,10.34-13.78,17.51-22,23.35a13.9,13.9,0,1,1-16.16-22.63,16.11,16.11,0,0,1,1.66-1c6.45-3.35,12.16-7.42,15.59-12.1a20.76,20.76,0,0,0,3.81-16.36c-1-6.4-4.43-13.31-9-19.53s-10.54-12.2-16.45-15.91l-.39-.25a6.93,6.93,0,0,1,6.49-12.21Z"/><path class="cls-4" d="M1347.56,2891.7a47.55,47.55,0,0,1,22.54,20.2,53.06,53.06,0,0,1,7.1,30.08,51.93,51.93,0,0,1-12,29.83c-7,8.43-16,14.36-25.35,18.72a13.91,13.91,0,0,1-11.79-25.19,14.57,14.57,0,0,1,1.61-.64l.38-.12c6.55-2.08,12.58-5,17.24-9.16a29.26,29.26,0,0,0,9.27-16,34,34,0,0,0-1.89-19.69,32,32,0,0,0-13-15.55l-.25-.15a6.94,6.94,0,0,1,6.19-12.38Z"/><path class="cls-5" d="M681.34,581.32S801,456.21,942,442.77c179.27-17.07,163.7,118.87,179.54,118.87s.27-135.94,179.54-118.87c141,13.44,260.67,138.55,260.67,138.55s-169.36,156.1-440.21,146.17S681.34,581.32,681.34,581.32Z"/><path class="cls-5" d="M2201.49,1122c-17.68,2.13-141.74,16.3-190.34,1.31-1-.33-1.75.74-1,1.39,24.87,22.34,171.68,172.86,59.66,525.64a1.06,1.06,0,0,1-2,0c-4.33-15-23.8-78.53-57-119.36-.58-.7-1.84-.37-1.84.49,0,2.49,0,6.57-.21,12.13v.9c-2.41,76.6-29.85,411.83-323.87,571.21-.82.45-1.8-.2-1.55-1,3.39-9.43,15.07-48,9.15-118-283,213.24-571,250.1-571,250.1S731,2199.3,553.34,1971.71c-11.4,85.92,2.61,132.52,6.37,143,.28.78-.7,1.43-1.51,1-289.65-157-320.57-484.72-323.71-567.62a0,0,0,0,1,0,0c-.29-7.84-.33-13.48-.33-16.58,0-.86-1.27-1.19-1.84-.49-33.2,40.83-52.68,104.34-57,119.36a1.06,1.06,0,0,1-2,0C61.3,1297.55,208.11,1147,233,1124.69c.73-.65,0-1.72-1-1.39-48.64,15-172.7.82-190.34-1.31-.86-.12-1.19-1-.53-1.51,15.35-12.17,140.8-115.65,285-353.35,154-253.84,551.74-177.27,551.74-177.27h487.38S1763,513.29,1917,767.13c144.24,237.7,269.69,341.18,285,353.35A.85.85,0,0,1,2201.49,1122Z"/><path class="cls-8" d="M2008.78,1543.59v.9c-2.41,76.6-29.85,411.83-323.87,571.21-.82.45-1.8-.2-1.55-1,3.39-9.43,15.07-48,9.15-118-283,213.24-571,250.1-571,250.1S731,2199.3,553.34,1971.71c-11.4,85.92,2.61,132.52,6.37,143,.28.78-.7,1.43-1.51,1-289.65-157-320.57-484.72-323.71-567.62,3.1,4.12,145.74,191.73,291.16,79.63C601.2,1569.48,615,1366.32,615,1366.32l1133.94,39S1873.25,1690.43,2008.78,1543.59Z"/><g class="cls-11"><path class="cls-7" d="M1660.15,2468c-54.92,24.88-74.42,198.22-15.58,238.19,17.12,11.63,36.68,4.55,43-76.24C1694.13,2547.3,1706.19,2447.15,1660.15,2468Z"/></g><g class="cls-6"><path class="cls-7" d="M2201.5,1122c-7.42.87-33.56,3.9-65,6-53.29-55.24-133-149.51-219.45-292-81.39-134.12-230.77-176-353.62-185.72-12-10.43-333.92-1.22-274.12-38,63.63-39.11,202.84-18.16,187.56-28.3-52.14-34.6-115.13-66.6-175.73-72.4-179.26-17-135,133.51-179.56,133.51S1121.28,494.56,942,511.6C890.27,516.54,832.13,545,779.25,579c-14.22,9.15,58.81,2.74,94.15,10.06,66.63,13.81,80.85,33.52,64.39,47.11-19,1.42-243.36,8.2-313.72,20.72-123.76,22-228.54,64.7-298,179.11C239.66,978.47,160,1072.74,106.67,1128c-31.48-2.08-57.63-5.11-65-6-.87-.09-1.17-1-.52-1.47,15.35-12.23,140.79-115.69,285-353.4,82.08-135.24,233.33-176.7,356.73-185.89C750.63,525.3,855.3,451,942,442.79c179.26-17.09,179.52,118.85,179.52,118.85s.3-135.94,179.56-118.85c101.42,9.67,209.57,92.75,262.29,138.67C1686.24,591.13,1835.62,633,1917,767.13c144.22,237.71,269.66,341.17,285,353.4C2202.67,1121,2202.32,1121.91,2201.5,1122Z"/></g><path class="cls-1" d="M1088.61,856.57h0A697.91,697.91,0,0,0,716.42,964.13l-3.09,2c-155.79,98.54-266.64,255-307,434.84-7.14,31.79-11.65,60.09-11.65,80.75,0,192.23,120.74,300.82,237.17,360.83,90.74,46.78,191.91,69.66,294,69.66h325.53c102.09,0,203.25-22.88,294-69.66,116.43-60,237.18-168.6,237.18-360.83,0-20.66-4.52-49-11.66-80.75-40.36-179.86-151.21-336.3-307-434.84l-3.1-2A697.9,697.9,0,0,0,1088.61,856.57Z"/><path class="cls-2" d="M1782.55,1481.68c0,192.22-120.75,300.8-237.18,360.83-90.73,46.8-191.93,69.67-294,69.67H925.85c-102.09,0-203.25-22.87-294-69.67-116.47-60-237.18-168.61-237.18-360.83a244.39,244.39,0,0,1,2.53-32.14c17.93,163.18,128.06,258.78,234.65,313.71,90.73,46.75,191.89,69.66,294,69.66h325.5c102.09,0,203.29-22.91,294-69.66,106.5-54.93,216.68-150.49,234.61-313.59A236.68,236.68,0,0,1,1782.55,1481.68Z"/><g class="cls-11"><path class="cls-7" d="M1770.88,1405.93c-40.36-179.86-151.21-336.3-307-434.84l-3.1-2a697.9,697.9,0,0,0-372.18-107.56h0A697.91,697.91,0,0,0,716.42,969.13l-3.1,2c-155.78,98.54-266.63,255-307,434.84-6.13,27.32-10.31,52-11.37,71.55.39,11.07,1.16,21.87,2.37,32.39,2-14.53,5.15-30.71,9-48,40.37-179.87,151.22-336.29,307-434.85l3.09-2a697.67,697.67,0,0,1,744.38,0l3.09,2c155.77,98.56,266.67,255,307,434.85,3.85,17.21,7,33.39,9,47.92,1.22-10.52,2-21.35,2.37-32.45C1781.17,1457.86,1777,1433.2,1770.88,1405.93Z"/></g><path class="cls-4" d="M1251.37,1930.66H925.84c-106.85,0-211.45-24.8-302.46-71.71-161.72-83.36-247.19-213.82-247.19-377.27,0-20.77,4-48.51,12.1-84.8,41.06-183,155.93-345.7,315.15-446.42l3.1-2a716.17,716.17,0,0,1,764.11,0l3.13,2c159.21,100.71,274.08,263.42,315.14,446.41,8.15,36.29,12.1,64,12.1,84.8,0,163.45-85.47,293.91-247.19,377.27C1462.82,1905.86,1358.23,1930.66,1251.37,1930.66ZM1088.6,875.06A678.54,678.54,0,0,0,726.28,979.77l-3.06,1.94c-151,95.51-259.92,249.79-298.85,423.27-7.43,33.14-11.2,58.94-11.2,76.7,0,150.83,76.42,266.7,227.15,344.4,85.8,44.23,184.53,67.6,285.52,67.6h325.53c101,0,199.72-23.37,285.52-67.6,150.73-77.7,227.16-193.57,227.16-344.4,0-17.76-3.77-43.56-11.21-76.7C1713.91,1231.5,1605,1077.22,1454,981.71l-3.08-1.94A678.49,678.49,0,0,0,1088.6,875.06Z"/><path class="cls-7" d="M1297.82,1637c0,53.45-34.68,193.75-292.27,187.55-213.78-5.14-256.23-132.74-256.23-187.55s95.55-197.85,259.86-197.85C1182.46,1439.13,1297.82,1583.52,1297.82,1637Z"/><path class="cls-4" d="M876.7,1585.69c-2.52,17.12-3.6,35.86.83,49.27,2.22,6.71,5.46,11.56,9.74,15,3.93,3.24,11,6.49,17.28,7.81,12.79,2.7,27-.42,40.46-8a103.25,103.25,0,0,0,34.2-31.1h0a18,18,0,0,1,30.29-2.69l1.54,2c1,1.32,2.71,3.54,4.21,5.32l4.76,5.63c3.28,3.69,6.65,7.31,10.17,10.71s7.14,6.64,10.84,9.69,7.58,5.71,11.43,8.29c15.64,10.07,32.3,15,49,12.81,2.11-.14,4.19-.76,6.3-1.08,2.1-.54,4.2-1.13,6.31-1.75,2-.79,4.31-1.54,6.15-2.31l2.68-1.14,2.5-1.34a39.94,39.94,0,0,0,15.44-16.42c7.84-14.69,9.24-36.45,7.8-56.36l-.07-.88a9.29,9.29,0,0,1,17.82-4.28,116.83,116.83,0,0,1,8.78,35.37,92.06,92.06,0,0,1-4.22,38.55,73.57,73.57,0,0,1-9.91,18.89,70.86,70.86,0,0,1-15.72,15.3l-4.55,3-4.7,2.6c-3.12,1.63-6,2.74-9.1,4.1-3.11,1.16-6.28,2.25-9.47,3.25-3.29.79-6.51,1.81-9.89,2.32a95.92,95.92,0,0,1-40.76-1.18c-13.28-3-25.3-9-36.11-15.78a158.09,158.09,0,0,1-28.66-24.14,168.82,168.82,0,0,1-11.87-14c-1.84-2.45-3.68-4.88-5.38-7.46s-3.26-5-5.22-8.28l31.82-.66h0a108.1,108.1,0,0,1-20,27.48,121.71,121.71,0,0,1-26.71,20.51,102.52,102.52,0,0,1-32.94,12,83.33,83.33,0,0,1-36.8-1.69,86.76,86.76,0,0,1-17.12-7.07,63.94,63.94,0,0,1-15.68-11.63,60.92,60.92,0,0,1-11.52-16.49,65.78,65.78,0,0,1-5.33-18.21,74.8,74.8,0,0,1-.48-17.49,90.87,90.87,0,0,1,2.7-16.24,108.23,108.23,0,0,1,12.09-29.28,9.33,9.33,0,0,1,17.24,6.13Z"/><path class="cls-4" d="M1001.85,1523.23a233.3,233.3,0,0,0-3.23,26,191.28,191.28,0,0,0-.21,25.87c.63,8.39,1.57,16.72,3.78,24.12s5.17,14,8.89,18.85a18.59,18.59,0,1,1-29.49,22.63,18.37,18.37,0,0,1-1.76-2.76l-.26-.52c-5.61-11-8.09-22-9.27-32.59s-.59-20.67.34-30.53a216.41,216.41,0,0,1,5.08-28.7,252.1,252.1,0,0,1,8.31-27.64,9.31,9.31,0,0,1,17.89,4.92Z"/><path class="cls-4" d="M1101,1520c-6.17,34.86-75,54.94-125.08,54.68-37.79-.2-98.06-25.63-97.59-63.49.38-29.9,34.36-51,124.28-42.89C1076.17,1474.94,1105.13,1496.71,1101,1520Z"/><g class="cls-6"><path class="cls-7" d="M1001.38,1493.89c0,12.16-20.64,21.08-45.3,21.66-13,.3-31.22-9.47-31.22-19,0-10.28,16.29-16.82,33.36-16.9C984.35,1479.52,1001.38,1485.24,1001.38,1493.89Z"/></g><path class="cls-4" d="M609.2,1451.45a152.51,152.51,0,0,1,2.32-24.28,199.86,199.86,0,0,1,5.71-23.43,166,166,0,0,1,21.66-44.69,132.6,132.6,0,0,1,37.82-36.77,125.67,125.67,0,0,1,24.66-12,116.21,116.21,0,0,1,27.51-6,87.42,87.42,0,0,1,30.07,2.39,84.06,84.06,0,0,1,27.72,12.92c16.44,11.74,27.19,27.45,34.42,43.08a161.58,161.58,0,0,1,13.24,48.06,175.42,175.42,0,0,1-.7,47.92,12.66,12.66,0,0,1-24.94.24l-.06-.35a284.62,284.62,0,0,0-9.93-40.11,169.67,169.67,0,0,0-16.25-35.28c-6.5-10.42-14.38-18.84-22.55-23.71s-16.55-6.57-26.56-5.54a83.13,83.13,0,0,0-15.69,3.53,105.49,105.49,0,0,0-15.37,6.9,111.78,111.78,0,0,0-27.37,22.6,194.64,194.64,0,0,0-22.72,31.81c-3.43,5.83-6.68,11.89-9.69,18.12-1.57,3.09-3.07,6.24-4.47,9.41l-4.17,9.24-.54,1.21a12.62,12.62,0,0,1-24.12-5.32Z"/><path class="cls-4" d="M1448,1454.27c-1.35-2.75-2.91-6.4-4.53-9.57s-3.21-6.55-5-9.74c-3.34-6.44-7.1-12.61-11-18.55a172.61,172.61,0,0,0-26.14-31.65,120,120,0,0,0-31.55-21.62,112.31,112.31,0,0,0-35.8-9.88c-11.78-1-22.48.72-32.35,5.38s-19,12.53-26.86,22.72a139.87,139.87,0,0,0-19.4,35.59,221.71,221.71,0,0,0-11.34,41.72l-.06.34a12.63,12.63,0,0,1-24.94-.4,162.45,162.45,0,0,1,1.19-51.14c3.16-17,8.64-34.14,18.08-50.14s22.9-31,40.81-41,39.13-14.22,58.54-12.7a135.48,135.48,0,0,1,28,5,137.44,137.44,0,0,1,26.08,10.39,140.81,140.81,0,0,1,43,34.69c11.83,13.84,20.35,29.61,26.73,45.64a180.13,180.13,0,0,1,7.53,24.61,146.46,146.46,0,0,1,3.51,25.8,12.57,12.57,0,0,1-23.84,6Z"/><path class="cls-1" d="M1477.79,897.71c40.2-155.41,183.5-195.28,265.53-134.24,137.8,102.54,44.35,274.49-40.82,302.64Z"/><g class="cls-12"><path class="cls-7" d="M1795.72,971.92c12-56.39,4.15-125.1-60.1-172.89-74.29-55.29-204.81-22-257.51,98.93l-.32-.23C1518,742.28,1661.3,702.43,1743.3,763.49,1823.92,823.45,1825.39,907.16,1795.72,971.92Z"/></g><path class="cls-4" d="M1702.5,1084.6a18.49,18.49,0,0,1-5.8-36c38.24-12.63,85.91-65.89,96.26-129.89,6.26-38.77.82-94.59-60.68-140.35-33.17-24.68-78.47-30.43-121.17-15.38-55.49,19.57-97.56,70.38-115.42,139.41a18.49,18.49,0,0,1-35.8-9.26c21-81.15,71.63-141.29,138.93-165,54.33-19.16,112.47-11.46,155.54,20.58,59.6,44.35,86.27,106.82,75.1,175.92-11.59,71.71-63.68,140.11-121.16,159.1A18.33,18.33,0,0,1,1702.5,1084.6Z"/><path class="cls-13" d="M1528,958.71c6.81-103.22,109.31-179.91,171.67-128.66,76.54,62.9,14.7,180.11-35.84,202.49"/><path class="cls-13" d="M1692.33,1011.08c-9.24,9.8-19.08,17.3-28.51,21.48L1528,958.71a165.22,165.22,0,0,1,4.46-28.79C1554,842,1643.24,783.71,1699.64,830,1761.91,881.24,1732.61,968.32,1692.33,1011.08Z"/><path class="cls-14" d="M1692.33,1011.08c-9.24,9.8-19.08,17.3-28.51,21.48L1528,958.71a165.22,165.22,0,0,1,4.46-28.79c34.55-52.33,95-78.08,136.68-43.85C1710.15,919.79,1709.4,969.91,1692.33,1011.08Z"/><path class="cls-4" d="M1663.82,1046.41a13.87,13.87,0,0,1-5.62-26.55c25.26-11.18,56.4-53.25,62.51-98.06,3.16-23.17.55-56-29.86-81-24.56-20.19-52.61-12.66-67.14-6.37-36.5,15.8-77.7,61.73-81.89,125.23a13.86,13.86,0,1,1-27.67-1.82c4.25-64.37,44.77-125.58,98.55-148.86,34.59-15,69.5-11.19,95.76,10.39,31.44,25.84,45.55,63.56,39.73,106.22-6.9,50.6-41.49,103.17-78.76,119.67A13.77,13.77,0,0,1,1663.82,1046.41Z"/><path class="cls-5" d="M1412.94,898.5c41.22-10.39,105.57,30.2,137.3,58.17a.92.92,0,0,0,1.54-.79c-1-9.36,3.08-52.17,26.17-56.79,40.63-8.14,46.84,49,43.86,86.48-.08,1,1.58,1.16,1.84.15,3.2-12.64,6.24-37.51,31-34.42C1698.37,956.76,1722,1060,1713.7,1116"/><path class="cls-4" d="M1441.46,868.91c22.36,9.5,43.29,21.88,62.88,35.71,9.8,6.91,19.28,14.19,28.53,21.65l13.71,11.31,6.75,5.72,3.36,2.86.84.72.42.36.21.17s.47.36-.67-.53a11.29,11.29,0,0,0-17.83,7.75,12.32,12.32,0,0,0-.08,1.57c0,.39.1,1.31.06,1a48.76,48.76,0,0,1-.25-5.95c0-1.76.09-3.43.2-5.08.22-3.31.58-6.54,1.07-9.76a103.61,103.61,0,0,1,4.77-19.36c2.37-6.45,5.47-13.12,11-19.39a37,37,0,0,1,10.5-8.25,30.5,30.5,0,0,1,6.7-2.59l1.75-.44,1.42-.25,2.85-.46c7.63-1,16.77-.18,24.65,3.91s13.76,10.4,17.78,16.71c7.92,12.88,10.73,25.92,12.7,38.56a203.19,203.19,0,0,1,.62,37.6l-.19,2.33-.1,1.17,0,.58c0-.08,0,.39,0-.15a11.43,11.43,0,0,0,0-1.94,12.72,12.72,0,0,0-1.33-4.49,12.58,12.58,0,0,0-6.47-5.89,12.16,12.16,0,0,0-6.13-.77,12.33,12.33,0,0,0-6,2.53,12.5,12.5,0,0,0-4.18,6.14c-.24.86-.1.38-.12.45l0-.11.06-.23.12-.46.26-1c.68-2.68,1.4-5.74,2.31-8.91,1.87-6.31,4.23-13.4,9.68-20.34a32.82,32.82,0,0,1,24-12.64,43.9,43.9,0,0,1,12.28.95,44.62,44.62,0,0,1,11.29,4.23c13.8,7.68,21.74,19.16,28.14,30.2,12.36,22.55,18.5,46.31,22.53,70.22,3.69,24,5.21,48.24,1.47,73a9.4,9.4,0,0,1-18.63-2.51l0-.24c2.6-21.62.59-44.6-3.58-66.64-4.34-22-11.07-44-21.91-62.17-5.36-8.94-12.21-16.88-19.27-20.29a20.27,20.27,0,0,0-5.14-1.74,18.87,18.87,0,0,0-5.16-.21,7.66,7.66,0,0,0-5.94,3.51c-1.77,2.35-3.39,6.54-4.58,11.45-.62,2.48-1.16,5.13-1.82,8.14l-.26,1.16-.13.6-.3,1.17a14.27,14.27,0,0,1-19,9.07,14,14,0,0,1-8.75-11.6,16.42,16.42,0,0,1,0-2.22l0-.42,0-.51.05-1,.11-2a175.22,175.22,0,0,0-1.45-32.42c-1.2-10.42-3.73-20.73-8-27.94-2.15-3.54-4.57-6.06-7.1-7.39a15.8,15.8,0,0,0-9.45-1.55l-1.49.21-.74.09-.37.1a5.31,5.31,0,0,0-1.48.51,11,11,0,0,0-3.25,2.47c-2.33,2.43-4.58,6.42-6.3,10.88a79.42,79.42,0,0,0-3.92,14.57c-.45,2.55-.8,5.13-1,7.65-.12,1.26-.2,2.51-.24,3.68s0,2.37,0,2.81l.07,1.25a11.61,11.61,0,0,1-.09,1.83,12.91,12.91,0,0,1-1.06,3.78,13.11,13.11,0,0,1-19.69,5.21,12,12,0,0,1-1.09-.88l-.2-.19-.41-.36-.8-.73-3.24-2.92-6.48-5.8-13-11.39c-8.75-7.47-17.63-14.69-26.76-21.53-18.23-13.66-37.47-25.74-57.94-35.13a10.24,10.24,0,0,1,8.26-18.73Z"/><path class="cls-1" d="M498.65,1066.11C413.48,1038,320,866,457.83,763.47c82-61,225.33-21.17,265.53,134.24"/><g class="cls-12"><path class="cls-7" d="M700.61,838.89c-60.69-79.19-160.07-91.94-223.22-45-85.19,63.37-82,153.33-47,219.38-51.12-66.19-71.74-176,27.46-249.8C528.29,711,644,733,700.61,838.89Z"/></g><path class="cls-4" d="M498.65,1084.6a18.38,18.38,0,0,1-5.8-.94c-57.48-19-109.57-87.39-121.16-159.1-11.17-69.1,15.5-131.57,75.11-175.92,43.06-32,101.2-39.74,155.53-20.58,67.3,23.72,117.94,83.87,138.93,165a18.49,18.49,0,0,1-35.8,9.26C687.6,833.31,645.53,782.5,590,762.93c-42.71-15.06-88-9.3-121.17,15.38-61.5,45.76-66.94,101.58-60.68,140.35,10.35,64,58,117.26,96.26,129.89a18.49,18.49,0,0,1-5.8,36Z"/><path class="cls-4" d="M1121.55,2265.29a18.54,18.54,0,0,1-2.23-.14c-15.43-1.87-362.07-46.22-551.49-248.16-2.37,55.16,7,85.07,9.3,91.48a19.14,19.14,0,0,1-5.63,21.15,19.68,19.68,0,0,1-22.12,2.34C285.72,1989,230.16,1711.14,218.61,1588.33a449.66,449.66,0,0,0-25.55,67.09,19.32,19.32,0,0,1-18.45,14.06,19,19,0,0,1-18.91-13.57c-89.61-282.23-18-439.6,32.1-507.92-57.24,2.69-130.41-5.48-148.4-7.65A19.32,19.32,0,0,1,29.57,1106c13.7-10.86,137.75-112.83,280.73-348.48C376.39,648.63,496.55,582,657.8,564.91c120-12.75,219.39,6,223.56,6.77a18.49,18.49,0,0,1-7,36.32c-3.85-.74-387-71-532.45,168.73C232.54,957,133,1061.64,83.7,1107.7c50.71,4.33,114.31,6.7,142.79-2.08a19.4,19.4,0,0,1,22.76,9,19.17,19.17,0,0,1-3.9,23.83c-11.65,10.46-51.48,50.75-75.85,130.55-28,91.66-25.79,200.44,6.46,324,10.13-24.18,24.12-51.73,42-73.69a19.53,19.53,0,0,1,34.68,12.22c-.07,39.08,7.52,374.77,280.57,548.08-3.28-25.55-4.57-62.18,1.81-110.31a18.5,18.5,0,0,1,32.91-9c164,210,521.19,263.38,553.55,267.8,27.44-4.07,297.53-48.45,559.9-246.21a18.5,18.5,0,0,1,29.56,13.21c3,35.6,1.63,63.71-1,84.47,273.07-173.31,280.66-509,280.59-548.11a19.43,19.43,0,0,1,12.92-18.26,19.64,19.64,0,0,1,21.75,6c17.86,22,31.86,49.53,42,73.71,32.24-123.53,34.44-232.33,6.46-324-24.37-79.8-64.2-120.09-75.83-130.53a19.18,19.18,0,0,1-3.92-23.85,19.4,19.4,0,0,1,22.73-9c28.51,8.79,92.11,6.43,142.82,2.09-49.24-46-148.83-150.7-258.22-331C1755.7,537,1372.58,607.26,1368.73,608a18.49,18.49,0,0,1-7-36.32c4.17-.8,103.52-19.51,223.56-6.77,161.25,17.1,281.41,83.72,347.5,192.63,143,235.67,267,337.62,280.71,348.47a19.32,19.32,0,0,1-9.79,34.33c-18,2.17-91.18,10.33-148.42,7.64,50.11,68.32,121.71,225.7,32.1,507.94a19.55,19.55,0,0,1-37.38-.54,448.53,448.53,0,0,0-25.53-67.05C2013,1711.11,1957.4,1989,1693.7,2132a19.71,19.71,0,0,1-22.1-2.35,19.14,19.14,0,0,1-5.63-21.15c1.93-5.37,9.94-30.54,9.67-76.48-274,195.72-540.18,231.67-551.74,233.15A20.6,20.6,0,0,1,1121.55,2265.29Zm964-620.12,0,.08Z"/><path class="cls-4" d="M1561.76,599.81a18.4,18.4,0,0,1-13.36-5.7c-1.15-1.2-116.77-120.33-249.06-132.93-123.25-11.71-141.58,53.07-151.43,87.88-4.11,14.57-8.78,31.07-26.36,31.07s-22.24-16.5-26.36-31.07c-9.84-34.81-28.17-99.61-151.43-87.88C811.47,473.78,695.85,592.91,694.7,594.11A18.49,18.49,0,0,1,668,568.54c5.08-5.31,126.1-130.25,272.27-144.17,122.34-11.67,164.23,45.25,181.3,86.86,17.07-41.61,59-98.54,181.3-86.86C1449,438.29,1570,563.23,1575.12,568.54a18.48,18.48,0,0,1-13.36,31.27Z"/><path class="cls-13" d="M500.25,1006.44c-38.08-44.17-63.25-127-3.19-176.4,59.13-48.58,154.32,17.82,169.84,112.77Z"/><path class="cls-13" d="M666.9,942.81l-164.82,62.93-1.83.7c-38.07-44.17-63.25-127-3.19-176.4,58.61-48.16,152.58,16.6,169.37,110.19C666.61,941.08,666.76,942,666.9,942.81Z"/><path class="cls-14" d="M666.9,942.81l-164.82,62.93c-15.24-39.53-17.47-90.34,24.24-118.63,49.23-33.41,107.71-4.88,140.11,53.12C666.61,941.08,666.76,942,666.9,942.81Z"/><path class="cls-4" d="M532.89,1046.41a13.76,13.76,0,0,1-5.6-1.19c-37.27-16.5-71.86-69.07-78.76-119.67-5.82-42.66,8.29-80.38,39.73-106.22C514.52,797.75,549.42,794,584,808.94c53.78,23.28,94.3,84.49,98.55,148.86a13.86,13.86,0,1,1-27.67,1.82c-4.19-63.5-45.39-109.43-81.9-125.23-14.52-6.28-42.56-13.82-67.13,6.37-30.41,25-33,57.87-29.86,81,6.11,44.81,37.25,86.88,62.51,98.06a13.87,13.87,0,0,1-5.63,26.55Z"/><path class="cls-5" d="M487.45,1116c-8.25-56,15.33-159.21,59.08-164.67,24.73-3.09,27.77,21.78,31,34.42.26,1,1.92.89,1.84-.15-3-37.46,3.23-94.62,43.86-86.48,23.09,4.62,27.22,47.43,26.17,56.79a.92.92,0,0,0,1.54.79c31.73-28,60.66-62.83,135.2-65,0,0-184.75,123.83-194.43,138.34"/><path class="cls-4" d="M477.33,1117.47c-3.58-25-1.87-49.24,2-73.22,4.2-23.89,10.52-47.62,23-70,6.46-11,14.47-22.36,28.17-29.88a43.67,43.67,0,0,1,11.18-4.12,42.83,42.83,0,0,1,12.12-.87,33.53,33.53,0,0,1,13,3.7,33.17,33.17,0,0,1,10.38,8.79c5.31,6.82,7.59,13.83,9.4,20.11.88,3.15,1.58,6.19,2.23,8.89l.25,1,.12.46.06.24,0,.11c0-.06.1.39-.1-.41a11.51,11.51,0,0,0-3.74-5.75A11.7,11.7,0,0,0,580,974a11.34,11.34,0,0,0-5.83.59,11.92,11.92,0,0,0-6.31,5.56,12.35,12.35,0,0,0-1.37,4.33,13.3,13.3,0,0,0-.08,1.9c0,.52,0,.06,0,.14l0-.59-.09-1.16-.18-2.33a201.66,201.66,0,0,1,.72-37.53c1.68-12.65,4.22-25.73,12-38.82,4.07-6.35,9.93-12.81,18-16.81a42.56,42.56,0,0,1,24.85-3.89l2.85.47,1.43.25,1.77.44a30.37,30.37,0,0,1,6.79,2.57A37.31,37.31,0,0,1,645,897.33c5.64,6.3,8.82,13,11.28,19.47a105.26,105.26,0,0,1,5,19.44c.52,3.25.92,6.5,1.17,9.83.13,1.67.22,3.35.25,5.13a48,48,0,0,1-.2,6.08c0,.36.05-.64,0-1.07a13,13,0,0,0-.14-1.69,12.61,12.61,0,0,0-1.08-3.48,12,12,0,0,0-4.88-5.22,11.77,11.77,0,0,0-12.92.89c-1.13.95-.66.57-.66.57l.21-.17.42-.36.84-.71,3.38-2.84,6.8-5.67,13.79-11.21c9.31-7.4,18.84-14.6,28.68-21.44,19.67-13.69,40.67-25.89,63-35.21a9.4,9.4,0,0,1,7.58,17.21c-20.46,9.57-39.65,21.83-57.79,35.64-9.08,6.9-17.92,14.19-26.61,21.73l-13,11.48-6.44,5.85-3.21,2.95-.8.74-.41.36-1.28,1.11a13.35,13.35,0,0,1-7.23,2.76,13.72,13.72,0,0,1-7.75-1.77,13.94,13.94,0,0,1-5.6-6,14.14,14.14,0,0,1-1.22-4,13.66,13.66,0,0,1-.15-2c0-.52.06-1.61,0-1.34a24.31,24.31,0,0,0,0-2.68c0-1.15-.09-2.38-.18-3.63-.2-2.5-.51-5.06-.92-7.58A79.42,79.42,0,0,0,631.45,926a34,34,0,0,0-6-10.8,10.74,10.74,0,0,0-3.08-2.46,4.57,4.57,0,0,0-1.39-.53l-.36-.11-.73-.09-1.48-.2c-3.88-.35-6.83.21-9.25,1.57s-4.81,3.79-6.92,7.29c-4.49,7-7.29,17.27-8.78,27.68a175.24,175.24,0,0,0-1.34,32.49l.11,2,.06,1,0,.51,0,.42a13.14,13.14,0,0,1-.09,2.17,13.53,13.53,0,0,1-8.63,11.12,13.64,13.64,0,0,1-13.43-2.2,13.3,13.3,0,0,1-4.35-6.65l-.68-2.87c-.68-3-1.25-5.66-1.9-8.15-1.26-4.95-2.94-9.23-4.86-11.69a8.38,8.38,0,0,0-6.51-3.66,19.84,19.84,0,0,0-5.33.3,20.14,20.14,0,0,0-5.25,1.85c-7.15,3.56-13.94,11.61-19.24,20.6C511.34,1004,504.79,1026,500.62,1048c-4,22-5.81,45-3,66.47l0,.23a10.23,10.23,0,0,1-20.27,2.76Z"/><path class="cls-15" d="M1160.08,605.7l-43.69-304.79a57.73,57.73,0,1,0-43.7-5.89l-123,278.06"/><path class="cls-16" d="M1160.08,605.7l-43.69-304.79a57.73,57.73,0,1,0-43.7-5.89l-123,278.06"/><path class="cls-4" d="M1160.05,624.19a18.48,18.48,0,0,1-18.28-15.86L1095.9,288.25,966.65,580.56a18.49,18.49,0,0,1-33.82-15l117-264.59a76.25,76.25,0,1,1,86.94,11.73l41.61,290.34A18.49,18.49,0,0,1,1162.7,624,19.89,19.89,0,0,1,1160.05,624.19Zm-58.41-418.35A39.24,39.24,0,0,0,1082,279l14,8.15,15.67-4.15a39.25,39.25,0,0,0-10-77.19Z"/><path class="cls-15" d="M1404.63,695.11l50-303.83a57.73,57.73,0,1,0-39.91-18.75L1213.82,600.77"/><path class="cls-16" d="M1404.63,695.11l50-303.83a57.73,57.73,0,1,0-39.91-18.75L1213.82,600.77"/><path class="cls-4" d="M1404.65,713.61a19.55,19.55,0,0,1-3-.25,18.49,18.49,0,0,1-15.24-21.25l52.47-319.06L1227.7,613a18.49,18.49,0,1,1-27.76-24.43l191.13-217.18a76.24,76.24,0,1,1,79.39,37.33l-47.59,289.41A18.5,18.5,0,0,1,1404.65,713.61Zm34.63-341.55,16.18.75a39.24,39.24,0,1,0-27.12-12.74Z"/><path class="cls-15" d="M1655.82,403.7A57.74,57.74,0,0,1,1593,447.19L1450.39,762.52l-15.18-.89A1427.9,1427.9,0,0,1,1167,720.42a1423.57,1423.57,0,0,1-255.49-91.18l5.89-348.89a57.75,57.75,0,1,1,45.27-3.42l33.7,128.34c10.87,41.4,49.8,61.37,85.61,55.89,21.53-3.25,41.9-15.72,54.46-38.2l147.91-265.61a57.7,57.7,0,1,1,43,9.89l15.57,307.5c3.48,68.83,89.38,98,134,45.41l78.89-92.95a57.72,57.72,0,1,1,100-23.5Z"/><g class="cls-12"><path class="cls-7" d="M1082,461.16l-.07,13.21-38.53,3.95a70.17,70.17,0,0,1-76.18-57.15L938.13,262.1s32.28-10.88,24.92-47.56c-7.44-37.13-53.57-30.19-53.57-30.19l4.09-11.79a57.72,57.72,0,0,1,49.14,104.37l33.7,128.34C1007.28,446.67,1046.21,466.64,1082,461.16Z"/></g><g class="cls-12"><path class="cls-7" d="M1367.64,526.45l-6.17,11.29,31,21.54a68.35,68.35,0,0,0,91.87-12.76l99.83-121.81s-22.37-24.5,1.21-52.29c23.85-28.12,59.89-.45,59.89-.45l2.07-12a56.22,56.22,0,0,0-91.1,65.76l-89.26,93.46C1438.16,549.36,1395.56,548,1367.64,526.45Z"/></g><path class="cls-15" d="M992.62,237.3l-13-49.45A57.43,57.43,0,0,1,992.62,237.3Z"/><path class="cls-16" d="M1477.15,708.23l-26.41,58.38-15.18-.89a1427.89,1427.89,0,0,1-268.17-41.2A1423.61,1423.61,0,0,1,911.9,633.33l1.24-73.71a1631.07,1631.07,0,0,0,291.22,103.81A1625.54,1625.54,0,0,0,1477.15,708.23Z"/><path class="cls-4" d="M1450.41,781c-.35,0-.71,0-1.06,0l-15.2-.87A1438.78,1438.78,0,0,1,903.71,646a18.5,18.5,0,0,1-10.64-17l5.68-336.8c-29.15-16.48-44.93-51.23-36.65-84.72A76.22,76.22,0,1,1,984,285l30.33,115.56c7.29,27.75,29.82,40.16,48.48,42.52s43.58-4.06,57.54-29.12l140.76-252.75a76.24,76.24,0,1,1,85.5,19.65l14.82,292.93c1.46,28.82,21.12,45.57,39,51.64s43.71,4.71,62.38-17.28l69.84-82.28a76.21,76.21,0,1,1,141.12-17.74h0a76.36,76.36,0,0,1-68.9,57.75L1467.25,770.12A18.48,18.48,0,0,1,1450.41,781ZM930.25,617.53a1401.74,1401.74,0,0,0,506,125.64l2.52.15L1576.2,439.56a18.56,18.56,0,0,1,19-10.75,39.23,39.23,0,0,0,42.64-29.54h0a39.24,39.24,0,1,0-68,16,18.49,18.49,0,0,1,0,23.92L1491,532.1c-25.64,30.22-64.9,41.09-102.44,28.37s-62.1-45.2-64.1-84.79L1308.9,168.17A18.49,18.49,0,0,1,1324.3,149a39.25,39.25,0,1,0-29.2-6.71,18.48,18.48,0,0,1,5.44,24.06L1152.62,432c-19.18,34.44-55.4,52.74-94.48,47.81S988.53,448.09,978.53,410l-33.7-128.35a18.48,18.48,0,0,1,9.35-21.09,39.24,39.24,0,1,0-30.78,2.31,18.49,18.49,0,0,1,12.53,17.82Zm725.57-213.82h0Z"/><polygon class="cls-17" points="1189.98 617.71 1159.72 530.12 1231.89 471.99 1262.16 559.58 1189.98 617.71"/><g class="cls-18"><polygon class="cls-7" points="1159.72 530.12 1231.89 471.99 1210.91 543.53 1159.72 530.12"/></g><path class="cls-4" d="M1181.1,648.6,1138,523.87l102.77-82.78,43.11,124.74Zm.34-112.24,17.43,50.45,41.57-33.48L1223,502.89Z"/><path class="cls-19" d="M1135.31,1409.08a13.81,13.81,0,0,1-11.58-6.25c-25.54-39-59.4-60.52-95.36-60.52s-69.82,21.49-95.36,60.52a13.83,13.83,0,0,1-23.14-15.14c30.82-47.09,72.9-73,118.5-73s87.68,25.94,118.5,73a13.83,13.83,0,0,1-11.56,21.39Z"/><path class="cls-19" d="M940.5,1379.45c0,101.28-82.39,183.67-183.68,183.67a182.48,182.48,0,0,1-49.15-6.7,176.2,176.2,0,0,1-20.36-7,184.06,184.06,0,0,1-114.2-170c0-101.29,82.42-183.71,183.71-183.71,3.15,0,6.3.09,9.45.25A183.75,183.75,0,0,1,940.5,1379.45Z"/><g class="cls-11"><path class="cls-7" d="M871.27,1235.87l-234,282.94a183.42,183.42,0,0,1-35.27-40.6L766.27,1196A182.56,182.56,0,0,1,871.27,1235.87Z"/></g><g class="cls-11"><path class="cls-7" d="M929.36,1316.49,707.67,1556.42a176.2,176.2,0,0,1-20.36-7l210.4-287.74A183.6,183.6,0,0,1,929.36,1316.49Z"/></g><path class="cls-19" d="M756.8,1573.42c-107,0-194-87-194-194s87-194,194-194,194,87,194,194S863.77,1573.42,756.8,1573.42Zm0-367.38c-95.61,0-173.4,77.79-173.4,173.4s77.79,173.4,173.4,173.4,173.41-77.79,173.41-173.4S852.42,1206,756.8,1206Z"/><path class="cls-19" d="M1483.63,1379.45c0,101.28-82.39,183.67-183.68,183.67a182.54,182.54,0,0,1-49.15-6.7,176.2,176.2,0,0,1-20.36-7,184.06,184.06,0,0,1-114.2-170c0-101.29,82.42-183.71,183.71-183.71,3.15,0,6.3.09,9.45.25a183.72,183.72,0,0,1,174.23,183.46Z"/><g class="cls-11"><path class="cls-7" d="M1414.4,1235.87l-234,282.94a183.42,183.42,0,0,1-35.27-40.6L1309.4,1196A182.56,182.56,0,0,1,1414.4,1235.87Z"/></g><g class="cls-11"><path class="cls-7" d="M1472.5,1316.49l-221.7,239.93a176.2,176.2,0,0,1-20.36-7l210.4-287.74A183.41,183.41,0,0,1,1472.5,1316.49Z"/></g><path class="cls-19" d="M1299.94,1573.42c-107,0-194-87-194-194s87-194,194-194,194,87,194,194S1406.9,1573.42,1299.94,1573.42Zm0-367.38c-95.61,0-173.4,77.79-173.4,173.4s77.79,173.4,173.4,173.4,173.4-77.79,173.4-173.4S1395.55,1206,1299.94,1206Z"/><path class="cls-20" d="M818.84,2179.41,797,2189.68a83,83,0,0,0-39.84,110.45l36,76.66a83,83,0,0,0,110.45,39.84l21.87-10.27a83.05,83.05,0,0,0,39.85-110.46l-36-76.65A83,83,0,0,0,818.84,2179.41Zm28.92,65.08a18.86,18.86,0,0,1,25.07,9l30,63.95a18.84,18.84,0,0,1-9,25.07l-19.15,9a18.84,18.84,0,0,1-25.07-9l-30.05-64a18.85,18.85,0,0,1,9.05-25.06Z"/><path class="cls-21" d="M972.61,2321.58a80.61,80.61,0,0,1-12.74,7.5L938,2339.37a82.86,82.86,0,0,1-50.92,6.38l-12.36,5.78a18.78,18.78,0,0,1-25-9l-13.33-28.43a79.67,79.67,0,0,1-8.78-14.56l-36-76.66a81.87,81.87,0,0,1-7.3-25.68,82.94,82.94,0,0,0-27.06,102.93l36,76.66a83,83,0,0,0,110.43,39.85l21.87-10.24A83,83,0,0,0,972.61,2321.58Z"/><path class="cls-19" d="M868.36,2436.81A95.59,95.59,0,0,1,782.05,2382l-36-76.66a95.28,95.28,0,0,1,45.72-126.75l21.87-10.27A95.29,95.29,0,0,1,940.39,2214l36,76.65a95.29,95.29,0,0,1-45.72,126.76l-21.86,10.27A94.93,94.93,0,0,1,868.36,2436.81Zm-14.27-253.06a70.54,70.54,0,0,0-30,6.75l-21.87,10.27a70.8,70.8,0,0,0-34,94.15l36,76.66a70.87,70.87,0,0,0,94.16,34l21.86-10.27a70.8,70.8,0,0,0,34-94.16l-36-76.65A70.36,70.36,0,0,0,878.16,2188,71.11,71.11,0,0,0,854.09,2183.75Zm-35.25-4.34h0Zm47.88,186.18a31.14,31.14,0,0,1-28.2-17.87l-30-64a31.14,31.14,0,0,1,14.93-41.37l19.15-9a31.16,31.16,0,0,1,41.37,14.93l30,64a31.13,31.13,0,0,1-14.91,41.36l-19.16,9A30.93,30.93,0,0,1,866.72,2365.59Zm-13.76-110-19.14,9a6.59,6.59,0,0,0-3.16,8.77l30,64a6.6,6.6,0,0,0,8.77,3.16l19.15-9a6.58,6.58,0,0,0,3.16-8.76l-30-64a6.6,6.6,0,0,0-8.78-3.16Z"/><path class="cls-20" d="M942,2412l-18.15,15.94a83,83,0,0,0-7.6,117.17l55.88,63.64a83,83,0,0,0,117.17,7.6l18.16-15.94a83,83,0,0,0,7.6-117.17l-55.88-63.64A83,83,0,0,0,942,2412Zm45.86,54.49a18.86,18.86,0,0,1,26.59,1.72l46.62,53.1a18.84,18.84,0,0,1-1.72,26.59l-15.9,14a18.84,18.84,0,0,1-26.6-1.72L970.22,2507a18.86,18.86,0,0,1,1.73-26.6Z"/><path class="cls-21" d="M1134.51,2524l-9.85,8.67a82.8,82.8,0,0,1-70,19.22l-11.27,9.9a18.86,18.86,0,0,1-26.62-1.72L970.21,2507a18.83,18.83,0,0,1-.2-24.61l-18.43-21a82.55,82.55,0,0,1-19.46-40.83l-8.28,7.31a83,83,0,0,0-7.6,117.15l55.88,63.67a83.06,83.06,0,0,0,117.15,7.6l18.18-16A82.93,82.93,0,0,0,1134.51,2524Z"/><path class="cls-19" d="M1034.65,2649.2q-3.15,0-6.31-.21a94.67,94.67,0,0,1-65.43-32.2L907,2553.15a95.31,95.31,0,0,1,8.72-134.47l18.16-15.94a95.4,95.4,0,0,1,134.47,8.73l55.88,63.63a95.3,95.3,0,0,1-8.73,134.47l-18.15,15.94A94.59,94.59,0,0,1,1034.65,2649.2Zm-37.91-245.61a70.48,70.48,0,0,0-46.66,17.57l-18.16,15.94a70.77,70.77,0,0,0-6.47,99.88l55.88,63.64a70.86,70.86,0,0,0,99.88,6.48l18.15-15.95a70.79,70.79,0,0,0,6.48-99.88L1050,2427.64A70.63,70.63,0,0,0,996.74,2403.59ZM942,2412h0Zm89.06,166.81c-.68,0-1.37,0-2-.07a30.93,30.93,0,0,1-21.37-10.52L961,2515.08a31.15,31.15,0,0,1,2.85-43.89l15.9-14a31.11,31.11,0,0,1,43.89,2.85l46.62,53.09a31.09,31.09,0,0,1-2.85,43.89l-15.89,14A30.88,30.88,0,0,1,1031.05,2578.76ZM1000.27,2474a6.56,6.56,0,0,0-4.34,1.64l-15.9,14a6.61,6.61,0,0,0-.6,9.31l46.62,53.08a6.59,6.59,0,0,0,9.3.61l15.9-14a6.58,6.58,0,0,0,.6-9.3l-46.62-53.09a6.51,6.51,0,0,0-4.52-2.22Zm-12.43-7.57h0Z"/><path class="cls-20" d="M997.39,2436l-73.57-106.91a36,36,0,0,0-34.77-15.22h0a36,36,0,0,0-24.52,56l73.54,106.93a36,36,0,0,0,51.95,7.85l0,0A36,36,0,0,0,997.39,2436Z"/><path class="cls-21" d="M990.06,2484.61l0,0a36,36,0,0,1-52-7.84l-73.52-107a35.52,35.52,0,0,1-6.37-20.24,36.26,36.26,0,0,1,7.84-22.5l64.31,93.47a35.93,35.93,0,0,0,51.91,7.85l0-.05a40,40,0,0,0,5.88-5.83l9.26,13.43A36,36,0,0,1,990.06,2484.61Z"/><path class="cls-19" d="M967.66,2504.65a47.79,47.79,0,0,1-7.15-.53A48.46,48.46,0,0,1,928,2483.76l-73.53-106.94a48.24,48.24,0,0,1,79.48-54.68l73.57,106.91a48.26,48.26,0,0,1-39.83,75.6Zm-73.42-178.9a25.25,25.25,0,0,0-3.45.25,23.72,23.72,0,0,0-16.16,36.93l73.54,106.94a23.7,23.7,0,0,0,34.25,5.17,23.8,23.8,0,0,0,4.88-32.1L913.73,2336A23.57,23.57,0,0,0,894.24,2325.75Z"/><path class="cls-20" d="M1160.21,2600.93,1063.82,2514a36,36,0,0,0-37.35-6.72h0a36,36,0,0,0-10.84,60.16l96.36,86.93a36,36,0,0,0,52.35-4.44l0,0A36,36,0,0,0,1160.21,2600.93Z"/><path class="cls-21" d="M1164.36,2649.94v0a36,36,0,0,1-52.35,4.41l-96.36-86.9a35.6,35.6,0,0,1-11.92-26.62,36.18,36.18,0,0,1,6.57-20.78l71.17,64.21a36,36,0,0,0,52.35-4.46,16.57,16.57,0,0,0,1.18-1.62l25.19,22.7A35.92,35.92,0,0,1,1164.36,2649.94Z"/><path class="cls-19" d="M1136.14,2675.93a48.46,48.46,0,0,1-32.36-12.42l-96.36-86.93a48.23,48.23,0,1,1,64.6-71.64l96.4,86.89a48.28,48.28,0,0,1-28.25,83.93C1138.83,2675.87,1137.48,2675.93,1136.14,2675.93ZM1039.78,2517a23.8,23.8,0,0,0-8.8,1.69,23.72,23.72,0,0,0-7.14,39.67l96.36,86.93a23.72,23.72,0,0,0,34.52-2.92A23.81,23.81,0,0,0,1152,2610l-96.4-86.89A23.59,23.59,0,0,0,1039.78,2517Z"/><path class="cls-20" d="M873.64,2236l-44-122.09a36,36,0,0,0-29.76-23.55h0a36,36,0,0,0-37.94,47.93l43.95,122.11a36,36,0,0,0,48.26,20.79l0,0A36,36,0,0,0,873.64,2236Z"/><path class="cls-20" d="M873.64,2236l-44-122.09a36,36,0,0,0-29.76-23.55h0a36,36,0,0,0-37.94,47.93l43.95,122.11a36,36,0,0,0,48.26,20.79l0,0A36,36,0,0,0,873.64,2236Z"/><path class="cls-21" d="M854.19,2281.19h-.05a35.92,35.92,0,0,1-48.23-20.78l-44-122.1a35.84,35.84,0,0,1,12.84-41.37l42.64,118.52a36,36,0,0,0,48.29,20.78v0a35.61,35.61,0,0,0,6.66-3.78l1.28,3.58A36,36,0,0,1,854.19,2281.19Z"/><path class="cls-22" d="M839.74,2296.46a48.19,48.19,0,0,1-45.37-31.89l-44-122.11a48.23,48.23,0,0,1,90.76-32.69l44,122.09a48.25,48.25,0,0,1-45.43,64.6Zm-44.11-194.07a23.75,23.75,0,0,0-22.17,31.77l44,122.11A23.75,23.75,0,0,0,849.25,2270a23.79,23.79,0,0,0,12.86-29.81l-44-122.09a23.58,23.58,0,0,0-19.62-15.53A25.18,25.18,0,0,0,795.63,2102.39Z"/><g class="cls-11"><path class="cls-7" d="M820.92,2151.33c4.41,13.65,5.29,25.6,2,26.67s-9.61-9.12-14-22.78-5.3-25.6-2-26.67S816.5,2137.67,820.92,2151.33Z"/></g><g class="cls-11"><path class="cls-7" d="M833.44,2190.06c1.86,5.76.67,11.29-2.66,12.37s-7.53-2.72-9.39-8.47-.67-11.29,2.66-12.37S831.58,2184.31,833.44,2190.06Z"/></g><g class="cls-11"><path class="cls-7" d="M915,2238.33c6.39,12.85,9,24.54,5.91,26.09s-10.85-7.6-17.24-20.45-9-24.53-5.91-26.09S908.6,2225.48,915,2238.33Z"/></g><g class="cls-11"><path class="cls-7" d="M933.12,2274.78c2.69,5.42,2.34,11.07-.79,12.63s-7.86-1.57-10.55-7-2.34-11.07.8-12.62S930.43,2269.37,933.12,2274.78Z"/></g><g class="cls-11"><path class="cls-7" d="M924.86,2366.81c8,11.89,12.21,23.12,9.32,25.08s-11.77-6.09-19.81-18-12.21-23.12-9.32-25.08S916.82,2354.92,924.86,2366.81Z"/></g><g class="cls-11"><path class="cls-7" d="M947.67,2400.53c3.39,5,3.79,10.66.89,12.62s-8-.52-11.38-5.52-3.79-10.66-.89-12.62S944.28,2395.52,947.67,2400.53Z"/></g><g class="cls-11"><ellipse class="cls-7" cx="1045.4" cy="2443.73" rx="6.33" ry="25.99" transform="translate(-1337.59 1266.43) rotate(-40.55)"/></g><g class="cls-11"><path class="cls-7" d="M1076.68,2470.54c3.93,4.6,5,10.17,2.3,12.44s-8,.39-11.92-4.21-5-10.16-2.31-12.43S1072.74,2466,1076.68,2470.54Z"/></g><g class="cls-11"><path class="cls-7" d="M1066.68,2540.21c10.45,9.84,17,19.88,14.58,22.43s-12.81-3.37-23.26-13.21-17-19.88-14.58-22.43S1056.24,2530.37,1066.68,2540.21Z"/></g><g class="cls-11"><path class="cls-7" d="M1096.32,2568.12c4.4,4.15,6,9.57,3.63,12.12s-7.91,1.25-12.31-2.9-6-9.57-3.63-12.12S1091.92,2564,1096.32,2568.12Z"/></g><path class="cls-20" d="M1450.81,2219.25l-36,76.65a83.05,83.05,0,0,0,39.85,110.46l21.86,10.27A83,83,0,0,0,1587,2376.79l36-76.66a83,83,0,0,0-39.85-110.45l-21.86-10.27A83,83,0,0,0,1450.81,2219.25Zm100.69,34.24a18.84,18.84,0,0,1,9,25.06l-30,64a18.84,18.84,0,0,1-25.07,9l-19.15-9a18.84,18.84,0,0,1-9-25.07l30-63.95a18.86,18.86,0,0,1,25.07-9Z"/><path class="cls-21" d="M1454.65,2406.38l21.86,10.24A83,83,0,0,0,1587,2376.77l36-76.66a82.92,82.92,0,0,0-27-102.93,81.89,81.89,0,0,1-7.31,25.68l-36,76.66a80.23,80.23,0,0,1-8.78,14.56l-13.33,28.43a18.79,18.79,0,0,1-25,9l-12.35-5.78a82.89,82.89,0,0,1-50.93-6.38l-21.91-10.29a80.16,80.16,0,0,1-12.74-7.5A83,83,0,0,0,1454.65,2406.38Z"/><path class="cls-19" d="M1511.67,2436.76a94.59,94.59,0,0,1-40.36-9l-21.87-10.27a95.39,95.39,0,0,1-45.73-126.76l36-76.65a95.3,95.3,0,0,1,126.76-45.72l21.87,10.27a95.29,95.29,0,0,1,45.71,126.75l-36,76.66A95.4,95.4,0,0,1,1511.67,2436.76Zm-49.77-212.3-36,76.65a70.86,70.86,0,0,0,34,94.16l21.87,10.27a70.88,70.88,0,0,0,94.15-34l36-76.66a70.8,70.8,0,0,0-34-94.15l-21.87-10.27a70.78,70.78,0,0,0-94.16,34Zm51.53,141.15a31,31,0,0,1-13.21-3l-19.15-9a31.14,31.14,0,0,1-14.93-41.37l30-64a31.16,31.16,0,0,1,41.37-14.93l19.15,9a31.15,31.15,0,0,1,14.93,41.37l-30.05,64a31.18,31.18,0,0,1-28.16,17.89ZM1524.35,2255a6.56,6.56,0,0,0-6,3.78l-30.06,64a6.61,6.61,0,0,0,3.17,8.77l19.15,9a6.59,6.59,0,0,0,8.77-3.15l30-64a6.6,6.6,0,0,0-3.17-8.77h0l-19.15-9A6.58,6.58,0,0,0,1524.35,2255Z"/><path class="cls-20" d="M1320.94,2419.55l-55.88,63.64a83,83,0,0,0,7.6,117.17l18.16,15.94a83,83,0,0,0,117.17-7.6l55.88-63.64a83,83,0,0,0-7.6-117.17L1438.12,2412A83,83,0,0,0,1320.94,2419.55Zm87.22,60.85a18.86,18.86,0,0,1,1.73,26.6l-46.63,53.09a18.83,18.83,0,0,1-26.59,1.72l-15.9-14a18.85,18.85,0,0,1-1.73-26.59l46.63-53.1a18.86,18.86,0,0,1,26.59-1.72Z"/><path class="cls-21" d="M1272.66,2600.34l18.18,16a83.06,83.06,0,0,0,117.15-7.6l55.88-63.67a83,83,0,0,0-7.6-117.15l-8.28-7.31a82.55,82.55,0,0,1-19.46,40.83l-18.43,21a18.83,18.83,0,0,1-.2,24.61l-46.61,53.08a18.86,18.86,0,0,1-26.62,1.72l-11.27-9.9a82.8,82.8,0,0,1-70-19.22l-9.85-8.67A82.93,82.93,0,0,0,1272.66,2600.34Z"/><path class="cls-19" d="M1345.54,2649.16a94.89,94.89,0,0,1-62.81-23.65l-18.15-15.94a95.29,95.29,0,0,1-8.73-134.47l55.89-63.63a95.29,95.29,0,0,1,134.46-8.73l18.16,15.94a95.31,95.31,0,0,1,8.72,134.47l-55.88,63.64A95.13,95.13,0,0,1,1345.54,2649.16Zm37.84-245.57a70.64,70.64,0,0,0-53.23,24l-55.88,63.63a70.79,70.79,0,0,0,6.48,99.88l18.15,15.95a70.87,70.87,0,0,0,99.88-6.48l55.89-63.64a70.79,70.79,0,0,0-6.48-99.88L1430,2421.16A70.48,70.48,0,0,0,1383.38,2403.59Zm-62.44,16h0Zm28.14,159.19a30.94,30.94,0,0,1-20.5-7.72l-15.9-14a31.1,31.1,0,0,1-2.84-43.89l46.62-53.09a31.12,31.12,0,0,1,43.89-2.84l15.9,14a31.1,31.1,0,0,1,2.84,43.89l-46.62,53.09A31,31,0,0,1,1349.08,2578.74ZM1379.84,2474l-.44,0a6.51,6.51,0,0,0-4.53,2.23l-46.62,53.08a6.6,6.6,0,0,0,.6,9.3l15.9,14a6.61,6.61,0,0,0,9.31-.6l46.62-53.09a6.61,6.61,0,0,0-.6-9.3l-15.9-14A6.56,6.56,0,0,0,1379.84,2474Z"/><path class="cls-20" d="M1382.71,2436l73.58-106.91a36,36,0,0,1,34.77-15.22h0a36,36,0,0,1,24.52,56L1442,2476.81a36,36,0,0,1-52,7.85l0,0A36,36,0,0,1,1382.71,2436Z"/><path class="cls-21" d="M1390.05,2484.61l0,0a36,36,0,0,0,52-7.84l73.52-107a35.52,35.52,0,0,0,6.37-20.24,36.26,36.26,0,0,0-7.84-22.5l-64.31,93.47a35.93,35.93,0,0,1-51.91,7.85l-.05-.05a40,40,0,0,1-5.88-5.83L1382.7,2436A36,36,0,0,0,1390.05,2484.61Z"/><path class="cls-19" d="M1412.44,2504.65a48.39,48.39,0,0,1-30-10.38l-.41-.34c-19.49-15.38-23.82-44-9.47-64.88h0l73.57-106.91a48.24,48.24,0,0,1,79.48,54.68l-73.53,106.94a48.46,48.46,0,0,1-32.55,20.36A47.7,47.7,0,0,1,1412.44,2504.65Zm-19.63-61.71h0a23.78,23.78,0,0,0,4.84,32.07l.41.35a23.75,23.75,0,0,0,33.88-5.49l73.54-106.94a23.73,23.73,0,0,0-16.17-36.93,23.56,23.56,0,0,0-22.93,10Z"/><path class="cls-20" d="M1219.9,2600.93l96.39-86.89a36,36,0,0,1,37.35-6.72h0a36,36,0,0,1,10.84,60.16l-96.36,86.93a36,36,0,0,1-52.36-4.44l0,0A36,36,0,0,1,1219.9,2600.93Z"/><path class="cls-21" d="M1215.75,2649.94v0a36,36,0,0,0,52.35,4.41l96.36-86.9a35.59,35.59,0,0,0,11.91-26.62,36.17,36.17,0,0,0-6.56-20.78l-71.18,64.21a36,36,0,0,1-52.35-4.46,16.43,16.43,0,0,1-1.17-1.62l-25.2,22.7A35.92,35.92,0,0,0,1215.75,2649.94Z"/><path class="cls-19" d="M1244,2675.93c-1.34,0-2.68-.06-4-.17a48.27,48.27,0,0,1-28.25-83.93l96.4-86.89a48.23,48.23,0,0,1,64.6,71.64l-96.36,86.93A48.48,48.48,0,0,1,1244,2675.93ZM1228.1,2610h0a23.8,23.8,0,0,0-2.75,32.32,23.73,23.73,0,0,0,34.56,3l96.36-86.93a23.72,23.72,0,0,0-7.15-39.67,23.61,23.61,0,0,0-24.63,4.43Z"/><path class="cls-20" d="M1506.47,2236l44-122.09a36,36,0,0,1,29.76-23.55h0a36,36,0,0,1,37.94,47.93l-44,122.11a36,36,0,0,1-48.25,20.79l0,0A36,36,0,0,1,1506.47,2236Z"/><path class="cls-20" d="M1506.47,2236l44-122.09a36,36,0,0,1,29.76-23.55h0a36,36,0,0,1,37.94,47.93l-44,122.11a36,36,0,0,1-48.25,20.79l0,0A36,36,0,0,1,1506.47,2236Z"/><path class="cls-21" d="M1525.92,2281.19h0a35.92,35.92,0,0,0,48.23-20.78l44-122.1a35.85,35.85,0,0,0-12.84-41.37l-42.65,118.52a36,36,0,0,1-48.28,20.78v0a35.61,35.61,0,0,1-6.66-3.78l-1.28,3.58A36,36,0,0,0,1525.92,2281.19Z"/><path class="cls-22" d="M1540.36,2296.46a48.25,48.25,0,0,1-45.42-64.6l44-122.09a48.23,48.23,0,0,1,90.76,32.69l-44,122.11a48.19,48.19,0,0,1-45.38,31.89ZM1518,2240.17a23.78,23.78,0,0,0,12.82,29.79,23.74,23.74,0,0,0,31.87-13.69l44-122.11a23.73,23.73,0,0,0-25-31.61,23.6,23.6,0,0,0-19.63,15.53Z"/><g class="cls-11"><path class="cls-7" d="M1559.19,2151.33c-4.41,13.65-5.3,25.6-2,26.67s9.6-9.12,14-22.78,5.3-25.6,2-26.67S1563.61,2137.67,1559.19,2151.33Z"/></g><g class="cls-11"><ellipse class="cls-7" cx="1552.69" cy="2192.01" rx="10.95" ry="6.33" transform="translate(-1010.65 2995.16) rotate(-72.09)"/></g><g class="cls-11"><path class="cls-7" d="M1465.11,2238.33c-6.39,12.85-9,24.54-5.9,26.09s10.85-7.6,17.24-20.45,9-24.53,5.9-26.09S1471.5,2225.48,1465.11,2238.33Z"/></g><g class="cls-11"><ellipse class="cls-7" cx="1452.66" cy="2277.6" rx="10.95" ry="6.33" transform="translate(-1233.51 2564.32) rotate(-63.56)"/></g><g class="cls-11"><path class="cls-7" d="M1455.25,2366.81c-8,11.89-12.22,23.12-9.32,25.08s11.76-6.09,19.81-18,12.21-23.12,9.31-25.08S1463.29,2354.92,1455.25,2366.81Z"/></g><g class="cls-11"><path class="cls-7" d="M1432.44,2400.53c-3.39,5-3.79,10.66-.89,12.62s8-.52,11.38-5.52,3.78-10.66.89-12.62S1435.83,2395.52,1432.44,2400.53Z"/></g><g class="cls-11"><path class="cls-7" d="M1329.9,2439.61c-9.33,10.91-14.75,21.59-12.09,23.86s12.38-4.72,21.71-15.63,14.74-21.59,12.08-23.86S1339.23,2428.7,1329.9,2439.61Z"/></g><g class="cls-11"><ellipse class="cls-7" cx="1308.24" cy="2474.66" rx="10.95" ry="6.33" transform="translate(-1422.63 1860.02) rotate(-49.45)"/></g><g class="cls-11"><path class="cls-7" d="M1313.42,2540.21c-10.44,9.84-17,19.88-14.57,22.43s12.81-3.37,23.26-13.21,17-19.88,14.57-22.43S1323.87,2530.37,1313.42,2540.21Z"/></g><g class="cls-11"><path class="cls-7" d="M1283.79,2568.12c-4.4,4.15-6,9.57-3.63,12.12s7.91,1.25,12.31-2.9,6-9.57,3.63-12.12S1288.19,2564,1283.79,2568.12Z"/></g><circle class="cls-20" cx="1190.05" cy="2665.11" r="61.19" transform="translate(-1535.96 1622.09) rotate(-45)"/><g class="cls-11"><path class="cls-7" d="M1251.23,2665.09a64.36,64.36,0,0,1-1.08,11.61,61.25,61.25,0,0,0-45-47.64c-.05,4.36-6.82,7.89-15.1,7.89s-15-3.53-15.1-7.89a61.18,61.18,0,0,0-45,47.64,65.28,65.28,0,0,1-1.07-11.61,61.17,61.17,0,1,1,122.34,0Z"/></g><path class="cls-21" d="M1228.8,2665.25a38.74,38.74,0,1,1-77.48,0,38.26,38.26,0,0,1,3.26-15.55,38.72,38.72,0,0,0,71,0A38.26,38.26,0,0,1,1228.8,2665.25Z"/><path class="cls-22" d="M1190.06,2738.56a73.45,73.45,0,1,1,73.44-73.45A73.53,73.53,0,0,1,1190.06,2738.56Zm0-122.38a48.93,48.93,0,1,0,48.93,48.93A49,49,0,0,0,1190.06,2616.18Z"/><path class="cls-20" d="M1258.73,2825.62c-8.58-9.66-20.54-17.7-35.68-24l-28.48-11.33-4.61-1.86v-63.77q47,2.71,47,40.68a56.33,56.33,0,0,1-2.35,15.1l31.71-6.42q0-27.8-12.6-44.26-18.37-24-63.72-24.07v-19.85h-12.2v20.83q-43,3.68-60.1,28.68-11.4,16.54-11.42,42.54v.64q.43,53.45,71.52,76.86V2927q-44.05-3.6-44.07-43.08c0-6.77,1.27-15.2,3.87-25.25l-32,7.94a124.77,124.77,0,0,0-1.37,15.93q0,55.16,73.58,62.74v26.13H1190v-26.13h5.1q35.58,0,58.23-20.34t22.64-52.05Q1275.93,2844.77,1258.73,2825.62Zm-81-41.77q-29.34-11.68-29.32-31.17,0-27.49,25.79-27.5a22.59,22.59,0,0,1,3.53.54ZM1190,2927v-67q32.71,12.2,32.74,35.09Q1222.7,2922.06,1190,2927Z"/><path class="cls-21" d="M1263,2813.56c-.78-2.16-.93-2.75-.44-1.72A4.35,4.35,0,0,1,1263,2813.56Z"/><path class="cls-21" d="M1275.93,2872.87q0,31.68-22.64,52.05t-58.23,20.34H1190v26.13h-12.2v-26.13q-73.6-7.64-73.58-62.74a124.77,124.77,0,0,1,1.37-15.93l32-7.94c-2.6,10-3.87,18.48-3.87,25.25q0,39.48,44.07,43.08v-71.56q-71.1-23.46-71.52-76.86c7.89,17.94,25.69,41.17,65.88,55.73,51.12,18.58,77.1,4.46,86.61-8.67Q1275.94,2844.81,1275.93,2872.87Z"/><path class="cls-19" d="M1190,2685.87v19.84q76.3,0,76.3,68.32l-31.71,6.45a55.55,55.55,0,0,0,2.38-15.09q0-38-47-40.69v63.75l4.58,1.86,28.48,11.36q52.9,21.87,52.9,71.21,0,31.7-22.63,52t-58.24,20.34H1190v26.11h-12.2v-26.11q-73.59-7.62-73.59-62.73a129.55,129.55,0,0,1,1.36-15.94l32-8q-3.91,15.09-3.91,25.26,0,39.49,44.09,43.06v-71.54q-71.55-23.58-71.55-77.49,0-65.1,71.55-71.21v-20.85H1190m-12.2,98v-58.16a21.41,21.41,0,0,0-3.56-.51q-25.79,0-25.78,27.47,0,19.5,29.34,31.2M1190,2927q32.73-4.92,32.73-31.87,0-22.89-32.73-35.1v67m-52.38-68.32h0M1190,2661.36h-12.2a24.51,24.51,0,0,0-24.51,24.45c-46.35,11-71.55,43-71.55,92.12,0,19.27,5.33,42.48,24.67,63.21l-6.75,1.68a24.51,24.51,0,0,0-18.38,20.55,149.64,149.64,0,0,0-1.57,19.17c0,26.08,10.15,69.18,73.58,83.56v5.28a24.51,24.51,0,0,0,24.51,24.51H1190a24.51,24.51,0,0,0,24.51-24.51v-3c21.46-3.12,40-11.58,55.2-25.28,20.13-18.08,30.76-42.39,30.76-70.27,0-22.58-6.69-51.19-34-73.87l4.72-1a24.5,24.5,0,0,0,19.62-24c0-51.06-27.52-83.27-76.45-91a24.52,24.52,0,0,0-24.35-21.65Z"/><g class="cls-11"><path class="cls-7" d="M1253.68,2729.79c-17.94-10.69-39.85-17.75-68.52-16.27-25.39,1.32-48.92,11.12-67.5,21.86q17.13-25,60.1-28.68v-20.83H1190v19.85Q1235.25,2705.72,1253.68,2729.79Z"/></g></svg>