<svg id="Layer_1" data-name="Layer 1" xmlns="http://www.w3.org/2000/svg" viewBox="0 0 2410.61 2392.68"><defs><style>.cls-1{fill:#fc311d;}.cls-2{fill:#ffb600;}.cls-3{fill:#ff0;}.cls-4{fill:#371a45;}.cls-5{fill:#04aaff;}.cls-6{opacity:0.7;}.cls-7{fill:#fff;}.cls-8{fill:#ed1b24;}.cls-9{opacity:0.35;}.cls-10{fill:none;stroke-linecap:round;stroke-width:6.21px;}.cls-10,.cls-11{stroke:#371a45;stroke-miterlimit:10;}.cls-11{fill:#c1303d;stroke-width:3.65px;}.cls-12{fill:#293856;}.cls-13{fill:#21102b;}.cls-14{opacity:0.6;}.cls-15{fill:#22a7f0;}</style></defs><title>Astronaut2</title><path class="cls-1" d="M3099,2558.47c-58.6-92.48-174.08-124.37-257.94-71.24s-104.33,171.18-45.73,263.66c46.92,74.06,271.3,226.23,358.8,283.89a20.32,20.32,0,0,0,31.43-18.83C3175.74,2909.88,3146.1,2632.77,3099,2558.47Z" transform="translate(-792.9 -790)"/><path class="cls-2" d="M3031,2548.31c-40.47-63.88-120.24-85.91-178.16-49.21s-72.06,118.24-31.59,182.11c29.7,46.87,166.86,138.44,237.78,183.87,17.15,11,39.3-3,36.69-23.24C3084.89,2758.3,3060.67,2595.18,3031,2548.31Z" transform="translate(-792.9 -790)"/><path class="cls-3" d="M2963.74,2536.31c-25.14-39.68-74.7-53.36-110.68-30.56s-44.77,73.45-19.62,113.13c16.33,25.77,84.95,73.29,131,103.44,17.2,11.24,39.64-3,36.82-23.33C2993.73,2644.43,2980.07,2562.08,2963.74,2536.31Z" transform="translate(-792.9 -790)"/><path class="cls-4" d="M3163.54,3058.14a39.79,39.79,0,0,1-22.71-7.17c-115.69-80.11-316.23-225.7-359.51-300.69-28.64-49.61-38-106.47-26.41-160.1,11.73-54.27,43.47-98.74,89.37-125.23,94.14-54.34,219.11-14.77,278.56,88.21h0c43.28,75,69,321.47,80.53,461.72a40.06,40.06,0,0,1-39.83,43.26Zm-227.3-582.78a148.28,148.28,0,0,0-74.55,19.75c-37.28,21.52-63.11,57.9-72.75,102.43-9.77,45.16-1.76,93.22,22.54,135.33,28.7,49.73,159.23,157.94,349.18,289.47a5.11,5.11,0,0,0,8-4.62c-18.88-230.26-47.29-397.42-76-447.15C3057.77,2510.09,2996.46,2475.36,2936.24,2475.36Z" transform="translate(-792.9 -790)"/><path class="cls-5" d="M2942.38,2453.52c-15.06,48.1-40.62,78.45-67.91,97.47-53.94,37.74-114.71,31.43-114.71,31.43l-52.37-54.72,64.17-42.36,134-88.5Z" transform="translate(-792.9 -790)"/><g class="cls-6"><path class="cls-7" d="M2942.38,2453.52c-15.06,48.1-40.62,78.45-67.91,97.47a168.36,168.36,0,0,1-37.61,19.72c3.65-2.13,7.27-4.44,10.88-7a164.17,164.17,0,0,0,42.87-44c18.47-27.66,18.31-63.8.19-91.7l-9.72-15,24.51-16.2Z" transform="translate(-792.9 -790)"/></g><path class="cls-4" d="M2768.55,2600.12c-6.5,0-10.33-.35-10.57-.38l-6.36-.66-71.24-74.4,230.24-152,50.84,78.26-2.45,7.82C2918.05,2589.65,2803.92,2600.12,2768.55,2600.12Zm-.93-34.69c25,.67,118.44-4.24,155.6-109.43l-22.69-34.94L2734.4,2530.75Z" transform="translate(-792.9 -790)"/><path class="cls-8" d="M2489.08,1569.17c-66.82,75.62-158.15,160.89-272.2,224.36a794.86,794.86,0,0,1-99.69,47,1190.83,1190.83,0,0,1-38.79-137c-29.12-132.64-29.64-244.65-16.19-301.72,4.65-20.11,11.1-33.38,18.63-38.39,30.17-19.9,165.33,24,314.34,130.9A1195.74,1195.74,0,0,1,2489.08,1569.17Z" transform="translate(-792.9 -790)"/><g class="cls-6"><path class="cls-7" d="M2445.68,1615.75c3.35-3.66,6.57-7.31,9.79-10.93a1335.57,1335.57,0,0,0-104.65-83.4c-110.18-79.06-213.56-127.2-280.52-144.18,3.18-6.62,6.71-11.28,10.54-13.8,30.17-19.9,165.33,24,314.34,130.9a1195.74,1195.74,0,0,1,93.9,74.83C2475.63,1584.41,2461.18,1600,2445.68,1615.75Z" transform="translate(-792.9 -790)"/></g><path class="cls-4" d="M2106.66,1863.27l-5.93-17a1216.86,1216.86,0,0,1-39.35-139c-37.2-169.41-32.78-330.18,9.86-358.37,43.44-28.66,193.29,30.25,334.09,131.27a1215,1215,0,0,1,95.26,75.92l13.06,11.53-11.54,13.06c-115.26,130.47-242.65,223.35-378.64,276.06Zm-4.27-487.61c-5.64,0-9.68.8-12,2.31-16.92,12.31-35.69,136.7,5,321.84a1177.44,1177.44,0,0,0,32.35,117.7c119.92-49.83,233-132.74,336.55-246.81-25.55-21.88-52.15-42.77-79.27-62.23C2249.64,1411.33,2140.13,1375.66,2102.39,1375.66Z" transform="translate(-792.9 -790)"/><path class="cls-7" d="M2905.59,2396.84s-20.15,50.41-75.05,87.41a246.15,246.15,0,0,1-33.6,18.94c-47.41,22.12-89.55,24.51-89.55,24.51s-85.19-37.92-131.72-71q-30.49-21.81-62-48.63c-18.81-16-37.83-33.43-56.86-52q-26.45-25.78-52.89-54.54c-56.2-61.3-111.88-132.34-163.9-211.13-54.11-81.93-94.11-167.43-122.84-249.88a794.86,794.86,0,0,0,99.69-47c114-63.47,205.38-148.74,272.2-224.36,70.09,61.82,139.09,137.26,197.77,226.15,52,78.75,95.59,157.89,129.81,233.59q16.07,35.59,29.43,70.13c9.57,24.77,18.1,49.06,25.46,72.7,8.19,26.21,15,51.67,20.33,76.05C2904.16,2303.64,2905.59,2396.84,2905.59,2396.84Z" transform="translate(-792.9 -790)"/><path class="cls-4" d="M2704.17,2545.34l-3.86-1.72c-3.54-1.57-87.31-39-134.75-72.79-21-15-42.27-31.69-63.19-49.56-19.08-16.27-38.49-34-57.7-52.76-17.92-17.47-35.94-36.05-53.56-55.23-58.66-63.94-114.38-135.7-165.62-213.32-51-77.2-92.95-162.56-124.75-253.71l-5.55-15.89,15.69-6.08c130.75-50.68,253.6-140.4,365.14-266.65l11.51-13,13,11.51c78.16,68.93,145.72,146.19,200.8,229.62,51.4,77.81,95.52,157.22,131.13,236,10.88,24.07,20.91,48,29.81,71,9.67,25,18.37,49.8,25.86,73.81,8.29,26.62,15.26,52.7,20.72,77.5,12.5,56.9,14,148.66,14.08,152.54l.06,3.48-1.3,3.24c-.9,2.26-22.78,55.82-81.46,95.38-62.29,42-129.08,46.24-131.9,46.4Zm-565-694.89c30.12,82.55,68.88,160,115.34,230.32,50.23,76.08,104.8,146.38,162.21,208.95,17.19,18.71,34.76,36.83,52.23,53.86,18.65,18.2,37.49,35.43,56,51.21,20.16,17.22,40.62,33.26,60.81,47.69,38.87,27.68,107.24,59.55,124.6,67.48,14.27-1.58,64.4-9.11,110.43-40.14,42.52-28.66,62.25-65.85,67.26-76.47-.42-17.82-2.82-94.58-13.19-141.82-5.25-23.82-12-48.93-20-74.61-7.26-23.26-15.7-47.36-25.1-71.61-8.67-22.46-18.44-45.75-29.06-69.23-34.85-77.11-78.06-154.89-128.45-231.17s-111.49-147.23-181.89-211.17C2382.75,1712.41,2264.73,1798.67,2139.21,1850.45Z" transform="translate(-792.9 -790)"/><path class="cls-4" d="M2425.21,2325.84c-10,0-16-.52-17.05-.63l3.33-34.66c1.2.11,124.54,10.25,249-82.92,111.72-83.65,144.9-178.27,145.22-179.21l33,11.11c-1.43,4.26-36.4,105.42-157.34,196C2572.36,2317.1,2465.83,2325.84,2425.21,2325.84Z" transform="translate(-792.9 -790)"/><g class="cls-9"><path class="cls-4" d="M2874.47,2551c-53.94,37.74-114.71,31.43-114.71,31.43l-52.37-54.72s-85.19-37.92-131.72-71q-30.49-21.81-62-48.63c-18.81-16-37.83-33.43-56.86-52q-26.45-25.78-52.89-54.54c-56.2-61.3-111.88-132.34-163.9-211.13-54.11-81.93-94.11-167.43-122.84-249.88a1190.83,1190.83,0,0,1-38.79-137c-29.12-132.64-29.64-244.65-16.19-301.72,27.94,93.34,298.15,526.9,456.52,758.11,100.43,146.63,172.82,267.29,252.83,325.4q13.13,9.47,25.38,17.85A890.25,890.25,0,0,0,2874.47,2551Z" transform="translate(-792.9 -790)"/></g><path class="cls-7" d="M2419.38,3138.52c-73,51.59-231.5,45.23-206.56-167.33,0,0-152.8-17.81-277.73-77.8-62.08-29.82-117.28-70-143.44-123.67l332.19-497s84.06,198,155.24,301.37c40.7,59.07,100.29,112.75,151.75,147.57a409.17,409.17,0,0,0,39.7,24C2557.55,2791.18,2518.46,3068.52,2419.38,3138.52Z" transform="translate(-792.9 -790)"/><g class="cls-9"><path class="cls-4" d="M2456.77,3098.86c-11.19,16.42-23.72,30-37.39,39.66-73,51.59-231.5,45.23-206.56-167.33,0,0-152.75-17.81-277.69-77.8h0c-12.41-6-24.56-12.32-36.22-19.15q-3.27-1.89-6.53-3.92a347.38,347.38,0,0,1-46.76-33.47c-1.13-1-2.26-2-3.39-3-4.92-4.36-9.66-8.84-14.15-13.5-1.35-1.39-2.7-2.79-4-4.22-2.66-2.87-5.23-5.75-7.66-8.71-1.09-1.3-2.18-2.65-3.27-4-2.48-3.14-4.88-6.32-7.14-9.58-1-1.48-2-3-3-4.44-1.13-1.65-2.18-3.31-3.22-5s-1.92-3.17-2.83-4.83c-.7-1.17-1.35-2.35-2-3.57-.48-.83-.91-1.7-1.35-2.57-.69-1.26-1.3-2.48-1.91-3.74l332.19-497a.38.38,0,0,0,0,.13.15.15,0,0,1,0,.13c.08.18.17.39.35.74.82,2,2.87,6.75,6,13.8,20.94,47.8,89.37,200.25,148.84,286.57,40.7,59.07,100.29,112.75,151.75,147.57-56.89,65.81-133.14,118.17-221.07,149-31.75,11.13-25.31,57.73,8.25,60,75.37,5.14,129.67-3.32,129.67-3.32C2245.82,3105.87,2381.16,3141.83,2456.77,3098.86Z" transform="translate(-792.9 -790)"/></g><path class="cls-4" d="M2332.48,3182.68c-24.39,0-49-5.52-70.78-18.48-36.14-21.48-76.19-69.74-67.82-178-71.9-10.57-345.28-60.05-417.89-208.87a17.41,17.41,0,1,1,31.3-15.27c73.72,151.1,404.24,191.45,407.57,191.84l17.3,2-2,17.3c-9.46,80.53,7.61,136.21,49.37,161,40.81,24.26,97.36,13,129.85-10,61.53-43.47,97.48-177.48,91.26-270.55-3.2-47.85-17.1-81.6-38.14-92.59-57-29.78-143.14-97.91-197.73-177.14-71.38-103.61-153.45-296.29-156.91-304.45a17.41,17.41,0,1,1,32.06-13.6c.83,2,84.16,197.61,153.53,298.3,51.22,74.34,131.9,138.17,185.18,166,33,17.24,52.61,59.13,56.76,121.14,7,104.44-33.92,250.44-105.92,301.31C2404.11,3170.62,2368.53,3182.67,2332.48,3182.68Z" transform="translate(-792.9 -790)"/><path class="cls-4" d="M2099.08,2962.8a13.06,13.06,0,0,1-2.43-25.89c105.65-20.09,275.32-97.06,309.71-226.79a13.06,13.06,0,1,1,25.25,6.69c-40.42,152.44-233.58,227.41-330.08,245.76A13.63,13.63,0,0,1,2099.08,2962.8Z" transform="translate(-792.9 -790)"/><path class="cls-4" d="M2212.34,2956.91l37.59-2c12.58-.91,25.19-1.79,37.54-3.93a163,163,0,0,0,36-9.92,95.57,95.57,0,0,0,31.68-20.73l0,0a1.92,1.92,0,0,1,3.12,2.13c-5.54,12.76-15.42,23.87-26.91,32.32a141.42,141.42,0,0,1-37.87,19.4,189.79,189.79,0,0,1-41,9.45,175.37,175.37,0,0,1-20.86,1.27,131.11,131.11,0,0,1-21.2-1.44,13.33,13.33,0,0,1,1.32-26.48Z" transform="translate(-792.9 -790)"/><path class="cls-10" d="M2249.22,1803.26" transform="translate(-792.9 -790)"/><path class="cls-11" d="M2421.91,1893" transform="translate(-792.9 -790)"/><path class="cls-7" d="M1507.78,2580.14c-36.48,29.38-72.27,52.15-100,64.64-232.94,105.09-352.26-103.21-329.58-209.56,30.64-143.57,174.26-83.36,174.26-83.36,52.37-5.44,97.07-31.48,126.41-84.8,36-65.21,48.93-171.21,24.86-330.32q-5.94-39.26-14.93-82.93l44.84,64.64L1666,2253.39C1720.61,2359.87,1611.38,2496.69,1507.78,2580.14Z" transform="translate(-792.9 -790)"/><g class="cls-9"><path class="cls-4" d="M1680.56,2314.81c0,2,0,4-.14,6.05,0,.31,0,.61,0,.87-.09,1.79-.17,3.62-.35,5.44,0,.31,0,.57,0,.88-.17,1.91-.35,3.83-.61,5.74-.17,1.66-.44,3.35-.7,5a21.5,21.5,0,0,1-.39,2.57c-1,6-2.31,12-3.87,18q-.86,3.21-1.83,6.4v.09c-.57,1.87-1.18,3.79-1.79,5.7-.13.4-.26.79-.39,1.22q-1,2.94-2.09,5.88c-.74,2.18-1.56,4.31-2.43,6.44-.4,1-.83,2.09-1.27,3.09-.87,2.22-1.83,4.4-2.78,6.58-.13.3-.26.61-.4.87-.56,1.35-1.21,2.7-1.82,4-1,2.3-2.18,4.61-3.31,6.92-.66,1.39-1.35,2.78-2.09,4.13-2.31,4.53-4.79,9.06-7.36,13.58-1,1.83-2.13,3.66-3.22,5.49a420.69,420.69,0,0,1-24,35.91c-1,1.44-2.13,2.83-3.22,4.27s-2.13,2.83-3.27,4.27c-2.17,2.78-4.39,5.61-6.66,8.4s-4.35,5.31-6.57,8c-5.88,7-12,13.93-18.28,20.72-1.22,1.31-2.44,2.66-3.7,4-13.93,14.84-28.56,29-43.4,42.22-1.88,1.66-3.79,3.31-5.66,5-.44.35-.83.69-1.22,1q-4,3.47-8,6.79-5.94,5-11.88,9.8c-36.48,29.38-72.27,52.15-100,64.64-190.63,86-305.16-37.87-328.06-144,48.84,80,151.1,140.09,299.41,73.18l.77-.35c51.89-23.6,75-84.54,53.29-137.26-23.56-57.28-41.16-115-54.32-169.29,36-65.21,48.93-171.21,24.86-330.32l29.91-18.29,217.74,314,14.54,20.94A132.91,132.91,0,0,1,1680.56,2314.81Z" transform="translate(-792.9 -790)"/></g><path class="cls-4" d="M1286.15,2690.84c-51.61,0-98.8-16.12-138.54-48.15-72.83-58.72-98.86-152.6-86.38-211.12,9.85-46.18,31.63-78.37,64.72-95.68,51-26.7,111.83-8,128.79-1.81,40.73-5.22,73.33-24.23,97-56.56,54.59-74.66,61.55-220,20.1-420.2a17.41,17.41,0,1,1,34.1-7.06c44.12,213.14,35.34,363.81-26.08,447.82-30.47,41.67-72.7,65.59-125.52,71.11l-4.43.46-4.11-1.72c-.55-.23-59.75-24.27-103.81-1.11-23.39,12.3-39.09,36.52-46.66,72-10.46,49,14.43,128.56,74.18,176.74,42.68,34.41,117.44,64.65,231.2,13.32,80.18-36.18,214.93-152.16,252.24-258.86,14.35-41,13.53-77.59-2.44-108.7a17.42,17.42,0,0,1,31-15.9c20.49,39.93,21.94,85.72,4.33,136.1-42,120-186.75,241.18-270.8,279.1C1370.3,2680.81,1326.85,2690.84,1286.15,2690.84Z" transform="translate(-792.9 -790)"/><path class="cls-7" d="M2269,2808.51c-124.15,56.94-277.17,69.47-433.67,11-279.91-104.65-387.95-399-429.61-610.54-26.21-132.94-26.21-233.2-26.21-233.2L2003,1594.66c33.39,113.14,79.1,191.11,130.34,251,98.16,115,216.39,163.63,306,267.41,31.3,36.27,59.11,79.23,81.31,134.13.83,2,1.66,4,2.44,6.09a418.73,418.73,0,0,1,17.07,54.11C2590.59,2515.45,2466.22,2718,2269,2808.51Z" transform="translate(-792.9 -790)"/><g class="cls-9"><path class="cls-4" d="M1835.35,2819.48C1634.15,2744.25,1521.75,2571,1459,2401c66.17,149.67,174.6,292.58,352.3,359,417.39,156.06,810.22-193.28,696-543.06q8.36,17.31,15.8,36.35C2662.85,2610.57,2261.92,2979,1835.35,2819.48Z" transform="translate(-792.9 -790)"/></g><path class="cls-4" d="M2042.43,2875.07c-71.24,0-143.32-13.17-213.16-39.28-191.67-71.67-333.25-243.56-409.44-497.09-57.06-189.9-57.71-356-57.71-363V1966l651.14-398,6.41,21.77c64.68,219.36,176.69,302.76,285,383.41,92.5,68.88,179.86,133.93,234.59,273.79,63.24,161.6,24.11,336.14-104.67,466.89-71.68,72.78-163.69,123.64-266.08,147.08A564.72,564.72,0,0,1,2042.43,2875.07Zm-645.3-889.69c1,38.22,8.2,184.44,56.31,344.12,50.88,168.92,159.51,388.22,388,473.67,245.86,91.94,454.78,1.51,568.32-113.77,118.85-120.67,155.13-281.33,97.05-429.76-51.09-130.57-134.58-192.73-223-258.54-109.3-81.39-222.2-165.46-291-379.87Z" transform="translate(-792.9 -790)"/><g class="cls-9"><path class="cls-4" d="M2133.29,1845.67c-126.85,265.5-435.71,426.83-727.55,363.27-26.21-132.94-26.21-233.2-26.21-233.2L2003,1594.66C2036.34,1707.8,2082.05,1785.77,2133.29,1845.67Z" transform="translate(-792.9 -790)"/></g><g class="cls-9"><path class="cls-4" d="M2009.34,1850.23c-91.89-6.65-156.77-120.08-138.2-246.66,55.46,134,199.09-82.94,210-145.63C2316.3,1521.74,2177.86,1866.08,2009.34,1850.23Z" transform="translate(-792.9 -790)"/></g><g class="cls-6"><path class="cls-7" d="M1812.62,1486.13c-36.92,123.24-177.63,83.45-163.68-28.46C1674.52,1317.52,1841.12,1361.74,1812.62,1486.13Z" transform="translate(-792.9 -790)"/></g><path class="cls-7" d="M917.5,1835.3c515.38,727.79,1551.41,48.28,1133.39-702C1541,375.83,470.74,1079.23,917.5,1835.3Z" transform="translate(-792.9 -790)"/><path class="cls-7" d="M917.5,1835.3c515.38,727.79,1551.41,48.28,1133.39-702C1541,375.83,470.74,1079.23,917.5,1835.3Z" transform="translate(-792.9 -790)"/><path class="cls-7" d="M917.5,1835.3c515.38,727.79,1551.41,48.28,1133.39-702C1541,375.83,470.74,1079.23,917.5,1835.3Z" transform="translate(-792.9 -790)"/><path class="cls-4" d="M1472.44,2159.23a636.73,636.73,0,0,1-105.47-8.76c-179.65-30.18-338.68-136.61-459.9-307.79l-.57-.88c-106-179.36-135-368.44-83.91-546.82,45.59-159.16,151.72-298,298.84-390.83,146.81-92.67,316.67-127.94,478.33-99.31,182.28,32.29,341.94,143.42,461.72,321.37l.56.91c99.31,178.24,124.33,365,72.34,540.05-46.5,156.59-151.7,293-296.22,384C1725.51,2122.18,1598.7,2159.23,1472.44,2159.23ZM928.23,1828.34c259.3,365.79,637,364.66,896.32,201.25,253.38-159.66,428.79-506.1,215.44-889.56-255.16-378.64-647.9-376.53-904.92-214.28C875.52,1089.59,700.14,1441.87,928.23,1828.34Z" transform="translate(-792.9 -790)"/><g class="cls-9"><path class="cls-12" d="M917.5,1835.28c434.2,636.36,1371.6,205.85,1209.82-516.69-25.25,240.14-106.27,256.11-221.52,386.51-351.71,425.81-976,182.84-1089.93-289.34C801.9,1565.22,839.44,1712.51,917.5,1835.28Z" transform="translate(-792.9 -790)"/></g><path class="cls-12" d="M1472.44,2164.37a641.8,641.8,0,0,1-106.33-8.83c-181-30.41-341.2-137.56-463.23-309.89l-.81-1.23c-106.72-180.61-135.91-371.09-84.42-550.85,45.93-160.38,152.84-300.23,301-393.77,147.9-93.36,319.07-128.89,482-100,183.69,32.54,344.51,144.42,465.09,323.56l.79,1.28c100,179.47,125.16,367.59,72.77,544-46.86,157.78-152.83,295.19-298.4,386.91C1727.42,2127.06,1599.66,2164.37,1472.44,2164.37ZM932.55,1825.55c257.35,362.84,632,361.78,889.25,199.68,251.37-158.38,425.4-502,213.8-882.51-253.25-375.59-642.84-373.55-897.79-212.61C880.34,1092.63,706.39,1442.1,932.55,1825.55Z" transform="translate(-792.9 -790)"/><path class="cls-4" d="M1472.44,2164.37a641.8,641.8,0,0,1-106.33-8.83c-181-30.41-341.2-137.56-463.23-309.89l-.81-1.23c-106.72-180.61-135.91-371.09-84.42-550.85,45.93-160.38,152.84-300.23,301-393.77,147.9-93.36,319.07-128.89,482-100,183.69,32.54,344.51,144.42,465.09,323.56l.79,1.28c100,179.47,125.16,367.59,72.77,544-46.86,157.78-152.83,295.19-298.4,386.91C1727.42,2127.06,1599.66,2164.37,1472.44,2164.37ZM932.55,1825.55c257.35,362.84,632,361.78,889.25,199.68,251.37-158.38,425.4-502,213.8-882.51-253.25-375.59-642.84-373.55-897.79-212.61C880.34,1092.63,706.39,1442.1,932.55,1825.55Z" transform="translate(-792.9 -790)"/><path class="cls-4" d="M1026.87,1966.52c683.12,382.6,1237.72-417,716.09-861.76C1128.42,642.05,467.35,1399.67,1026.87,1966.52Z" transform="translate(-792.9 -790)"/><path class="cls-13" d="M836.21,1507c13,707.55,1026.11,743.7,1120.4,94.87C1641,1990,1033.55,1845.08,836.21,1507Z" transform="translate(-792.9 -790)"/><path class="cls-4" d="M1418,2148.36A552.36,552.36,0,0,1,1290,2133.44c-151.14-36-285.08-135.63-387.33-288.16l-.08-.12c-86.25-130.79-122.55-301-99.59-466.94,24.32-175.72,111.21-327.77,244.67-428.12l1.22-.92,1.35-.7c160.32-82.42,356.77-92.18,539-26.79,181.57,65.17,326.27,196.73,397,361,64.39,160.75,65.61,325,3.68,475.32-56.13,136.29-160,249.89-292.59,319.88C1609,2124.46,1513,2148.36,1418,2148.36Zm-485.58-323c225.06,335.66,543.64,328.69,748.09,220.75,235-124.07,404.06-421.45,272.55-749.76-66.65-154.71-203.77-279.14-376-341s-357.84-53-509.11,24.24C791.19,1188.89,774.32,1585.58,932.43,1825.4Z" transform="translate(-792.9 -790)"/><path class="cls-4" d="M1384.8,2085.13c-120.25,0-244.87-34.75-366.69-103l-2.21-1.24-1.78-1.8C879.66,1842.89,805,1685.64,798.2,1524.35c-6.08-144.37,42.88-283.69,137.88-392.3,92.83-106.14,220.42-172.12,359.26-185.8,154.43-15.21,312.92,34.65,458.4,144.19l.85.68c121.76,103.83,194.11,233.57,209.24,375.21,13.7,128.24-21,259.49-97.66,369.59a579.31,579.31,0,0,1-348.57,234.53A601.31,601.31,0,0,1,1384.8,2085.13Zm-347-133c350.33,195,653.56,72.06,798.93-136.68,132-189.51,150.62-478.38-105-696.7C1424.88,888,1124.58,971,963.05,1155.64,802.42,1339.29,757.6,1666.62,1037.84,1952.12Z" transform="translate(-792.9 -790)"/><path class="cls-7" d="M2238.49,1597c-35.57,312.43-351.69,303.08-347.8,1.39C1916,1269.61,2253.87,1279.56,2238.49,1597Z" transform="translate(-792.9 -790)"/><path class="cls-4" d="M2051.19,1846c-3.15,0-6.27-.09-9.38-.29-85.66-5.42-171.15-84-169-247.46l0-1.14c13.69-178.22,118.53-265.4,214.92-259.32,87,5.45,176.93,89.19,168.65,260.17l-.1,1.16C2236.8,1770.33,2138.18,1846,2051.19,1846ZM1908.6,1599.23c-1.62,139.51,66.84,206.33,135.47,210.67,72.67,4.51,158.84-60.53,176.55-214.3,6.89-146.34-65.17-217.71-135.12-222.09C2006.68,1368.64,1920.68,1444.52,1908.6,1599.23Zm329.89-2.19h0Z" transform="translate(-792.9 -790)"/><path class="cls-7" d="M2251.27,1614c-29.09,253.15-266,250.15-262.92,6.13C2007.8,1350.56,2265.29,1354.11,2251.27,1614Z" transform="translate(-792.9 -790)"/><path class="cls-4" d="M2107,1821.4c-2.33,0-4.64-.08-6.93-.22-65.75-4.19-131.32-68-129.63-201.29l0-1.07c10.78-149.45,93.41-222.75,169.49-218,67.56,4.26,136.8,73.08,129.2,214.12l-.09,1.08C2252.71,1758.43,2175,1821.4,2107,1821.4Zm-100.73-200.53c-1.24,109.36,47.33,161.44,96.07,164.55,53,3.3,116.71-49.32,131.08-173,6.11-116.32-45.29-172.71-95.7-175.89C2079.32,1432.86,2015.5,1495,2006.26,1620.87Zm245-6.9h0Z" transform="translate(-792.9 -790)"/><g class="cls-14"><path class="cls-7" d="M1755,1667.49c-14.93,48.47-79.35,35-68-19.17C1701.94,1599.86,1766.37,1613.33,1755,1667.49Z" transform="translate(-792.9 -790)"/></g><g class="cls-14"><path class="cls-7" d="M933.61,1534.77c-95.72-450.82,372.49-529.4,519.19-439C1152,1129.09,1026.19,1320.94,933.61,1534.77Z" transform="translate(-792.9 -790)"/></g><g class="cls-9"><path class="cls-4" d="M1978,1677.68c-6-35.34-2.34-72.45,8.77-106.71,51.89,168.33,220,86.2,254.67-37.52C2289.59,1783.58,2038.59,1911.72,1978,1677.68Z" transform="translate(-792.9 -790)"/></g><path class="cls-4" d="M1261,2336.67a106.6,106.6,0,0,1,9.31,6c2.71,2,5.43,4,7.9,6.22s5,4.36,7.36,6.66a95.35,95.35,0,0,1,6.88,7.06,163.26,163.26,0,0,1,22.86,31.71c13,22.6,20.31,47.89,23,73,.44,6.31,1.15,12.6,1.31,18.87,0,6.27-.09,12.52-.25,18.76a118.36,118.36,0,0,1-8.79,38.73c-10.27,24.7-32.07,44-57,48.39a1.49,1.49,0,0,1-1.31-2.52l.15-.14c17.12-16.72,29.38-34.67,35.55-54.22a92.54,92.54,0,0,0,3.67-30.52c-.5-5.55-.91-11.08-1.27-16.6-.57-5.49-1.65-10.88-2.43-16.3s-2.53-10.6-3.7-15.89-3.29-10.28-4.86-15.42c-2-5-4.07-9.91-6.34-14.72-2.55-4.66-4.64-9.58-7.62-14a150.06,150.06,0,0,0-18.94-25.17c-1.78-1.92-3.54-3.86-5.45-5.61s-3.72-3.63-5.69-5.26-3.91-3.29-5.87-4.88c-1.83-1.42-4.28-3.13-5.36-3.84l-1.21-.79a17.38,17.38,0,0,1,18.18-29.62Z" transform="translate(-792.9 -790)"/><path class="cls-7" d="M1207,2340.59s85.1,20.82,116.87,102.17c0,0,33-2.24,39.27-39.65,7.31-43.66-27.72-107-90-111.5C1225.87,2288.23,1207,2340.59,1207,2340.59Z" transform="translate(-792.9 -790)"/><g class="cls-9"><path class="cls-4" d="M1363.12,2403.09c-6.27,37.44-39.27,39.66-39.27,39.66-31.77-81.36-116.88-102.17-116.88-102.17a94.85,94.85,0,0,1,13.37-23.29c25,5.45,66.8,19.66,98.33,56.37,12,14,34.79,11.07,41.77-6l.24-.62C1364.08,2379.46,1365,2391.91,1363.12,2403.09Z" transform="translate(-792.9 -790)"/></g><path class="cls-4" d="M1313.88,2458.47l-4-10.25c-28.43-72.8-105.72-92.88-106.5-93.07l-16.11-4,5.6-15.63c.93-2.57,23.36-63,81.33-58.84,30.87,2.21,58.86,17.39,78.81,42.73s29.55,58.46,24.9,86.21c-6.5,38.83-37.54,51.08-53,52.14Zm-85.64-126.59c26.73,10.45,77,36.69,104.14,93,6.27-3.27,13.57-10.07,15.93-24.2,3.25-19.38-4.17-44-18.89-62.71s-35-29.76-57.37-31.36C1250.07,2305,1236,2320,1228.24,2331.88Z" transform="translate(-792.9 -790)"/><path class="cls-7" d="M2299.84,2034l-321.44,93.76C1866.13,1988.54,1730.49,1670,1730.49,1670s-37.57-1.35-80-20.51c-31.69-14.32-66.08-38.61-89.5-79.7a198.49,198.49,0,0,1-18.63-44.45c-47.06-163.37,144.39-284.87,306.63-237C2104.08,1363.6,2078.26,1732.88,2299.84,2034Z" transform="translate(-792.9 -790)"/><g class="cls-9"><path class="cls-4" d="M1819.64,1620.83c-47,21.63-114.31,27.81-169.12,28.68-31.69-14.32-66.08-38.61-89.5-79.7,89.76,4.44,317.21,3.31,345.6-118.8C1906.62,1451,1962.42,1555.05,1819.64,1620.83Z" transform="translate(-792.9 -790)"/></g><path class="cls-4" d="M2295.16,2037.45a335.56,335.56,0,0,1-35.18-37.77c-11.11-13.18-20.68-27.41-30.18-41.71a845.67,845.67,0,0,1-49-90.22c-28.21-62.27-51.67-126.15-74.94-189.51s-45.15-126.91-73.38-186.61c-14.15-29.78-30-58.52-48.91-84.61s-41.16-49.21-67-67.16l-9.77-6.61c-3.19-2.31-6.81-3.91-10.19-5.9l-10.31-5.73-10.78-4.81c-3.62-1.56-7.15-3.3-10.83-4.72l-11.23-3.82c-3.75-1.21-7.45-2.72-11.24-3.71l-11.39-3a252,252,0,0,0-93.92-3.4,255.9,255.9,0,0,0-89,30.53c-27.33,15.45-51.29,36.59-68.51,61.88a158.9,158.9,0,0,0-20,40.73,144.45,144.45,0,0,0-6.7,44.51,170.5,170.5,0,0,0,6.54,45.05,183.86,183.86,0,0,0,18.08,42.38,171.92,171.92,0,0,0,65.46,62.86,217.87,217.87,0,0,0,43.09,18c7.51,2.22,15.15,4.09,22.84,5.56,3.84.73,7.69,1.36,11.52,1.87s8,.94,10.9,1.09l11.09.58,4.3,10c17,39.53,35.14,79,53.62,118.14s37.61,78,57.6,116.29c9.85,19.25,20.19,38.19,30.55,57.13,5.31,9.38,10.79,18.66,16.27,27.94s11.4,18.25,16.9,27.49c22.29,36.91,44.36,72.83,61.44,113.94l0,.09a6,6,0,0,1-9.08,7.19c-9.23-6.64-17.53-14.23-25.72-22-7.85-8-15-16.47-21.94-25.12l-5.15-6.55-4.75-6.77c-3.14-4.53-6.36-9-9.37-13.63s-6.17-9.16-9.08-13.84-5.66-9.42-8.37-14.2c-11.14-19-21.12-38.52-31.78-57.67-10.33-19.3-21-38.46-30.86-57.94-20.23-38.78-39.51-78-58.18-117.45s-36.8-79.07-54.18-119.39l15.4,10.58c-5.47-.29-9.61-.76-14.25-1.38s-9-1.33-13.43-2.18q-13.29-2.53-26.26-6.39a252.44,252.44,0,0,1-50-20.89c-31.93-17.5-59.87-43.79-78.57-75.63a218.61,218.61,0,0,1-21.53-50.37,205.37,205.37,0,0,1-7.91-54.68,179.3,179.3,0,0,1,8.31-55.06,193.51,193.51,0,0,1,24.34-49.75c20.75-30.46,48.82-54.9,80.09-72.62a290.65,290.65,0,0,1,101.14-34.72,286.6,286.6,0,0,1,107,3.93l13.08,3.41c4.35,1.15,8.5,2.8,12.76,4.18l12.69,4.36c4.18,1.6,8.23,3.56,12.35,5.34s8.23,3.6,12.29,5.51l11.8,6.53c3.87,2.27,8,4.16,11.65,6.77l11.18,7.55c29.56,20.52,54.7,46.66,75.21,75.2,20.67,28.52,37.45,59.1,52.22,90.17,29.41,62.28,51.46,126.46,74.64,189.62,11.57,31.59,23,63.13,35.74,94,12.43,31,26.32,61.37,40.45,91.45,14.38,30,29.09,59.64,44.53,89,7.9,14.57,15.35,29.43,23.06,44.24,7.33,15.07,15.48,29.63,22.14,45.51l.12.28a5.9,5.9,0,0,1-9.47,6.6Z" transform="translate(-792.9 -790)"/><path class="cls-4" d="M1915.29,1408.64c11.91,12.85,12.49,28.49,10.12,42.38-2.42,14.07-8.65,26.83-16,38.21-7.46,11.29-15,22.22-23.59,32.2a68.8,68.8,0,0,1-7.84,8.27c-1.44,1.36-2.9,2.55-4.35,3.69s-2.93,2.29-4.4,3.31a143.68,143.68,0,0,1-17.85,10.74c-24,12.11-48.64,19.45-73.62,24.91a408.71,408.71,0,0,1-76,9.08c-25.62.56-51.6-1.23-77.44-7.67a175.31,175.31,0,0,1-38.1-14.14c-12.29-6.45-24.22-14.85-34-25.91a100.24,100.24,0,0,1-21.42-38.43,125.3,125.3,0,0,1-4.31-42.29,184.63,184.63,0,0,1,2.5-20.29c1.28-6.59,2-13.27,3.5-19.75a52.2,52.2,0,0,1,7.71-18.17,35.13,35.13,0,0,1,17.39-13.52,8.3,8.3,0,0,1,10.47,4.33l.15.34a41.47,41.47,0,0,1,3.75,20.52,66.38,66.38,0,0,1-3.72,16.66c-1.91,5.27-3.93,10.5-5,15.91a135.91,135.91,0,0,0-2,16.08,91.17,91.17,0,0,0,3,30.33,65.24,65.24,0,0,0,14,25.09c13,14.6,33.06,24.11,54.62,29.46s44.89,7.17,68.11,6.63a373.44,373.44,0,0,0,69.47-8.31c22.73-4.91,45.33-11.85,65-21.82a110.53,110.53,0,0,0,13.56-8.13,36.09,36.09,0,0,0,2.93-2.2,33.92,33.92,0,0,0,2.64-2.23,22.92,22.92,0,0,0,2.27-2.22,31.21,31.21,0,0,0,2.44-2.83,139.57,139.57,0,0,0,18.88-27.47c4.84-9.83,8.3-19.75,12.1-29.34,3.34-9.74,6.92-19,13.81-30.24l1.36-2.21a6.2,6.2,0,0,1,8.52-2A6.69,6.69,0,0,1,1915.29,1408.64Z" transform="translate(-792.9 -790)"/><path class="cls-7" d="M1535.56,1487.33s133.63-11,155.07,29.65c25.94,49.18-17.66,74.52-60.27,83.38-41.27,8.58-71.51,13.3-92.32-18.76C1509.63,1537.82,1535.56,1487.33,1535.56,1487.33Z" transform="translate(-792.9 -790)"/><g class="cls-9"><path class="cls-4" d="M1630.36,1600.37c-41.27,8.57-71.52,13.27-92.33-18.77-15.84-24.42-14.76-50.93-10.71-69.6a79.49,79.49,0,0,0,10.71,24.81c20.81,32,51.06,27.34,92.33,18.76,25.29-5.27,50.94-16.32,62.17-34.74C1714.25,1567.5,1671.85,1591.7,1630.36,1600.37Z" transform="translate(-792.9 -790)"/></g><path class="cls-4" d="M1585.84,1621.66c-22.73,0-44.27-7.06-60.39-31.9-32.76-50.48-4.45-106.91-3.23-109.28l3.81-7.41,8.3-.69c24-2,144.76-9.43,169.56,37.6,13.85,26.24,10,46.07,4.35,58.08-14.28,30.31-53,42.45-74.83,47C1617.93,1618.26,1601.6,1621.66,1585.84,1621.66Zm-40-120c-5,14-12.65,45,4.76,71.78,14.66,22.59,33.65,21.19,76.69,12.24,27.4-5.69,47.51-17.06,53.79-30.4,4.05-8.6,2.83-18.84-3.74-31.3C1666.58,1503.54,1595.78,1498.74,1545.86,1501.65Z" transform="translate(-792.9 -790)"/><path class="cls-7" d="M2505.33,2256.61s119.12,179.7,208.19,268.61c64.79,64.67,158,115.31,219.95,134.56,94,29.2,106.57,308.82,22,395.27-62.35,63.74-219.45,85.76-234-127.66,0,0-364.94,3.53-472.24-141.24h0a90.29,90.29,0,0,1-9.3-108.61Z" transform="translate(-792.9 -790)"/><g class="cls-9"><path class="cls-4" d="M2998.87,2969c-9.31,35.43-23.72,66-43.4,86.1-62.33,63.73-219.44,85.72-234-127.68,0,0-364.93,3.53-472.24-141.26a90.15,90.15,0,0,1-23.2-60.46v-.5c.14-25.62,31.2-38.51,50.1-21.22,2.54,2.32,4.95,4.7,7.1,7.09,204.56,228.32,566.46,119.67,566.46,119.67-121.89,209.62,97.63,239.82,139.76,149.27C2991.43,2975.68,2995.92,2972.93,2998.87,2969Z" transform="translate(-792.9 -790)"/></g><path class="cls-4" d="M2850.81,3116.47a130.91,130.91,0,0,1-45.51-7.92c-39.72-14.63-88.28-55.06-99.81-163.83-73.5-1.15-369.75-14.13-469.67-147.41-4.27-4.7-20.6-24.11-25.23-51a17.41,17.41,0,1,1,34.32-5.9c3.28,19.06,16.75,33.55,16.89,33.69l1.41,1.68C2364,2911.73,2717.81,2910,2721.29,2910l16.42-.15,1.12,16.38c5.53,81,32.68,132.77,78.51,149.67,45.06,16.62,97.34-4,125.68-33,52.11-53.27,63-190.81,40.25-280.94-11.93-47.21-32-78.39-55-85.53-61.37-19.07-158.34-70.46-226.58-138.36-118.17-100.35-192.8-267.58-195.92-274.66a17.41,17.41,0,1,1,31.86-14.06c.74,1.66,74.84,167.57,187.1,262.6l1.06,1c64.09,64,155.24,112.36,212.81,130.25,35.87,11.15,63,49.27,78.4,110.26,25.57,101.16,11.93,251.4-49.12,313.82C2940.84,3094.9,2896.25,3116.47,2850.81,3116.47Z" transform="translate(-792.9 -790)"/><path class="cls-4" d="M1787,1807.37a13.06,13.06,0,0,1-1.16-26.07c80.07-7.24,292.34-46.85,312.7-141.88a13.06,13.06,0,0,1,25.54,5.48c-28.54,133.2-323.36,161.28-335.9,162.41A11.66,11.66,0,0,1,1787,1807.37Z" transform="translate(-792.9 -790)"/><path class="cls-4" d="M2604.76,2934.37a13.06,13.06,0,0,1-2-26c.81-.13,51.43-8.57,100.62-50,66.09-55.63,98.71-141.57,97-255.45a13.06,13.06,0,0,1,12.86-13.26h.2a13.07,13.07,0,0,1,13.06,12.86c2.34,152.93-57.1,234.92-107.38,276.78-54.88,45.67-110,54.51-112.36,54.87A13.4,13.4,0,0,1,2604.76,2934.37Z" transform="translate(-792.9 -790)"/><path class="cls-4" d="M2719.69,2914.23l10.42-3c3.63-1,7.22-2.23,10.83-3.42s7.14-2.6,10.74-3.78,7-2.9,10.59-4.2c13.94-6,27.47-12.91,39.88-21.67l4.62-3.35a36.73,36.73,0,0,0,4.52-3.49l8.7-7.46c2.73-2.66,5.26-5.53,8-8.26,1.32-1.41,2.77-2.73,4-4.22l3.52-4.61c10.23-11.9,17.19-26.17,24.41-40.9l.07-.16a1.91,1.91,0,0,1,3.6,1.12c-2.42,16.37-6.41,33.29-14.74,48.46l-2.94,5.8c-1,1.9-2.32,3.64-3.48,5.47-2.39,3.62-4.72,7.34-7.35,10.81l-8.46,10c-2.73,3.48-6.16,6.19-9.28,9.29a167.94,167.94,0,0,1-67.79,38.75c-4.17,1.3-8.44,2.3-12.75,3.19a115.8,115.8,0,0,1-13.56,1.93,13.27,13.27,0,0,1-4.76-26Z" transform="translate(-792.9 -790)"/><path class="cls-7" d="M1451.13,2441.93l23.37-33.32a96.65,96.65,0,0,1,46.06-35.33L1831.63,2260c5.13-1.84,19.25,64.58,21,69.73l-31.18,81.49Z" transform="translate(-792.9 -790)"/><path class="cls-4" d="M1460,2453.68a16.85,16.85,0,0,1-13.76-26.53l18-25.72a108.68,108.68,0,0,1,52-39.89l311.07-113.29a13.33,13.33,0,0,1,10.84.83c6.86,3.71,10.2,9.58,23.49,65.1,1.16,4.88,2.49,10.41,2.85,11.57l1.29,4.14-1.46,4.31-34,88.83-368.94,30.59C1460.94,2453.66,1460.46,2453.68,1460,2453.68Zm6.72-12.19v0S1466.7,2441.49,1466.71,2441.49Zm-10.24-7.16h0Zm369.25-158.88L1524.84,2385a83.74,83.74,0,0,0-40.11,30.76l-8,11.48,336-27.86,26.92-70.35c-.52-2.09-1.21-5-2.19-9.06C1835,2310.18,1829.63,2287.69,1825.72,2275.45Z" transform="translate(-792.9 -790)"/><path class="cls-7" d="M2056,2655.93c-50.28,36.87-130,94.68-131.86,91.76L1854.73,2624l-153.8-274.08c-1-1.79,82.8-62.82,130.68-89.9,20.07-11.36,42.31,15.94,55.46,36.79l97.25,153.36,83.23,131.25C2083.66,2606.69,2078.61,2639.34,2056,2655.93Z" transform="translate(-792.9 -790)"/><g class="cls-9"><path class="cls-4" d="M2056,2655.93c-50.28,36.87-130,94.68-131.86,91.76L1854.73,2624l-38.83-159.29s78.61,53,140.52,10.71a134.86,134.86,0,0,0,27.9-25.25l83.23,131.25C2083.66,2606.69,2078.61,2639.34,2056,2655.93Z" transform="translate(-792.9 -790)"/></g><path class="cls-4" d="M1924.41,2760.35a12.19,12.19,0,0,1-2.47-.3l-5.35-1-3.35-5.23L1690,2356c-5.64-10.26,1.34-15.53,16.64-27.08,9.11-6.88,21.21-15.66,34.09-24.72,15.64-11,55.21-38.4,84.73-55.1,12.77-7.23,39.11-11.5,72.19,41l180.45,284.58c19.6,30.76,13.14,70.87-14.72,91.3C1947.16,2751.25,1931.49,2760.35,1924.41,2760.35Zm-207.63-407.7L1929.09,2731c12.79-8.24,43.9-29.66,119.52-85.12,17.26-12.66,21-38,8.4-57.72l-180.49-284.64c-15.39-24.43-30.6-37.21-38.74-32.6C1798.1,2293.33,1737.09,2337,1716.78,2352.65Z" transform="translate(-792.9 -790)"/><path class="cls-7" d="M1920.46,2748.35l-252.92,37.78c-40,.09-68.65-5.57-91.63-42.4L1564.19,2725,1446.88,2537a110.48,110.48,0,0,1-15.28-39.13c-5.4-30.87,15.06-51.5,43.88-69.61L1687,2351a78,78,0,0,1,91.68,30l22.07,36,155.75,254.06C1975.66,2702.29,1956.68,2743,1920.46,2748.35Z" transform="translate(-792.9 -790)"/><g class="cls-9"><path class="cls-4" d="M1920.46,2748.35l-252.92,37.78c-40,.09-68.65-5.57-91.63-42.4L1564.19,2725c56.07,6.83,143.66,3,204.56-68.69,58.16-68.35,48.67-169.65,32-239.26l155.75,254.06C1975.66,2702.29,1956.68,2743,1920.46,2748.35Z" transform="translate(-792.9 -790)"/></g><path class="cls-4" d="M1666.68,2798.65c-36.19,0-73.73-4-101.4-48.3l-129-206.7a123.22,123.22,0,0,1-17-43.59c-7.16-40.9,22.71-65.5,49.54-82.36l1.12-.71,212.76-77.71a90.23,90.23,0,0,1,106.34,34.8l178.1,290.46a63.64,63.64,0,0,1-44.85,96.19l-253.84,37.92h-1.79Zm.85-12.5h0ZM1481,2439.56c-30,19.08-40.75,35.42-37.12,56.19a98.56,98.56,0,0,0,13.54,34.67l129,206.69c19.18,30.73,42.09,36.52,80.11,36.54l252-37.65a38.62,38.62,0,0,0,27.22-58.39L1768,2387.55a65.21,65.21,0,0,0-76.71-24.79Z" transform="translate(-792.9 -790)"/><path class="cls-15" d="M1733.88,2573.44c3.69,7.13,41.69,60.44,41.69,60.44l33.38-17.26c23-11.88,26.63-50.49,8.15-86.22s-52.09-55.07-75.07-43.18l-33.38,17.26S1727.87,2561.82,1733.88,2573.44Z" transform="translate(-792.9 -790)"/><path class="cls-15" d="M1733.88,2573.44c3.69,7.13,41.69,60.44,41.69,60.44l33.38-17.26c23-11.88,26.63-50.49,8.15-86.22s-52.09-55.07-75.07-43.18l-33.38,17.26S1727.87,2561.82,1733.88,2573.44Z" transform="translate(-792.9 -790)"/><g class="cls-9"><path class="cls-4" d="M1733.88,2573.44c3.69,7.13,41.69,60.44,41.69,60.44l33.38-17.26c23-11.88,26.63-50.49,8.15-86.22s-52.09-55.07-75.07-43.18l-33.38,17.26S1727.87,2561.82,1733.88,2573.44Z" transform="translate(-792.9 -790)"/></g><path class="cls-4" d="M1771.51,2650.69l-6.57-9.23c-9-12.68-38.84-54.64-42.66-62h0c-6.29-12.16-24-64.84-26-70.81l-3.55-10.61,43.31-22.4c15.19-7.86,33.57-6.44,51.73,4,16.33,9.39,30.87,25.29,40.94,44.77s14.65,40.54,12.88,59.28c-2,20.87-11.44,36.68-26.63,44.54Zm-26-83.26c2,3.78,18,26.75,34.18,49.64L1803,2605c9.49-4.91,12-17,12.62-23.79,1.29-13.62-2.38-30-10.07-44.83s-18.9-27.3-30.76-34.13c-5.9-3.39-17.23-8.36-26.71-3.45l-23.41,12.1C1732,2532.6,1742,2560.77,1745.47,2567.43Z" transform="translate(-792.9 -790)"/><ellipse class="cls-15" cx="1730.79" cy="2574.84" rx="46.85" ry="72.84" transform="translate(-1782.26 292.79) rotate(-27.35)"/><path class="cls-4" d="M1749.35,2656.14c-25.91,0-54.5-20.38-71.77-53.78h0c-22.13-42.78-16.09-88.39,13.75-103.82s70.54,6,92.67,48.78,16.09,88.39-13.75,103.82A45.05,45.05,0,0,1,1749.35,2656.14Zm-48.57-65.78c16.18,31.29,43.27,44.92,57.47,37.58s18.74-37.32,2.55-68.62-43.26-44.91-57.47-37.58-18.73,37.33-2.55,68.62Z" transform="translate(-792.9 -790)"/><path class="cls-15" d="M1760.8,2559.32c-16.18-31.28-43.27-44.91-57.47-37.58s-18.73,37.33-2.55,68.62,43.28,44.93,57.47,37.58S1777,2590.61,1760.8,2559.32Z" transform="translate(-792.9 -790)"/><g class="cls-14"><path class="cls-7" d="M1710.78,2600.36c-16.18-31.29-11.65-61.28,2.55-68.62,8.8-4.54,22.54-1,35.58,9.75-15.49-18.34-34.47-25.48-45.58-19.75-14.2,7.34-18.73,37.33-2.55,68.62a88.91,88.91,0,0,0,21.9,27.84A94.82,94.82,0,0,1,1710.78,2600.36Z" transform="translate(-792.9 -790)"/></g><g class="cls-9"><path class="cls-4" d="M1772.4,2553.32a102.25,102.25,0,0,0-26.77-33.22c14.71,33.71,10.15,68.31-11.38,79.44-14.09,7.29-32.16,2.8-48.3-10,1,2.27,2.06,4.53,3.23,6.78,18.48,35.73,52.09,55.07,75.07,43.18S1790.88,2589.06,1772.4,2553.32Z" transform="translate(-792.9 -790)"/></g><path class="cls-7" d="M2382.29,2054.46s-134.4,216.15-391,317.7c-40,15.85-62.5,59.42-48.91,99.76,7.18,21.29,23.5,38.3,57.36,38.24,141.32-.23,476.63-264.95,479.79-369.44C2482.46,2043.1,2382.29,2054.46,2382.29,2054.46Z" transform="translate(-792.9 -790)"/><g class="cls-9"><path class="cls-4" d="M2479.52,2140.74c-3.15,104.49-338.47,369.19-479.78,369.44-33.89,0-50.19-17-57.37-38.24a76.76,76.76,0,0,1,5.27-60.82,3.63,3.63,0,0,0,.21.69c7.17,21.28,23.52,38.32,57.36,38.28,128.92-.21,419.31-220.59,471.65-338.56A112.21,112.21,0,0,1,2479.52,2140.74Z" transform="translate(-792.9 -790)"/></g><path class="cls-4" d="M1999.57,2527.58c-36.65,0-62.81-17.79-73.7-50.1-16.36-48.57,9.56-101.95,59-121.51,247.93-98.12,381.31-308.6,382.63-310.72l4.45-7.14,8.37-1c2.17-.25,53.76-5.68,88,25.82,20,18.41,29.62,44.74,28.61,78.28-2,64.54-101.9,164.76-194.79,237-92.66,72.09-220.75,149.16-302.38,149.3ZM2392,2071.47c-27.25,40.7-159.92,224.13-394.3,316.88-32.21,12.75-49.26,47-38.81,78,6.14,18.25,18.69,26.39,40.67,26.39h.15c137.45-.23,459.7-262.68,462.41-352.55.69-22.91-5.11-40.23-17.26-51.49C2428.66,2073.7,2404.34,2071.52,2392,2071.47Z" transform="translate(-792.9 -790)"/><path class="cls-4" d="M1750.52,2786.82a13.07,13.07,0,0,1-11.33-6.54l-95.47-165.56-39.51-6.11-113.66-183a13.06,13.06,0,0,1,22.19-13.78l107.32,172.8,40,6.2,101.73,176.4a13.07,13.07,0,0,1-11.3,19.59Z" transform="translate(-792.9 -790)"/></svg>