<svg id="Layer_1" data-name="Layer 1" xmlns="http://www.w3.org/2000/svg" viewBox="0 0 2917.68 3255.08"><defs><style>.cls-1{opacity:0.2;}.cls-2{fill:#371a45;}.cls-3{fill:#fff;}.cls-4{fill:#e8e8e8;}.cls-5{fill:#d8d8d8;}.cls-6{opacity:0.7;}.cls-7{fill:#220f2d;}.cls-8{opacity:0.5;}.cls-9{fill:#e2e2e2;}.cls-10{fill:#371944;}.cls-11{fill:#22a7f0;}.cls-12{fill:#1c7aea;}.cls-13{fill:none;stroke:#232323;stroke-linecap:round;stroke-linejoin:round;stroke-width:29.57px;}.cls-14{fill:#ffb200;}.cls-15{fill:#d66b09;}.cls-16{opacity:0.35;}.cls-17{fill:#232323;}.cls-18{fill:#ffc536;}.cls-19{fill:#ffec90;}.cls-20{opacity:0.41;}.cls-21{fill:#ffd243;}.cls-22{fill:#ff9d33;}.cls-23{opacity:0.4;}</style></defs><title>astronaut4</title><g class="cls-1"><ellipse class="cls-2" cx="1122.85" cy="3136.12" rx="753.08" ry="118.95"/></g><path class="cls-3" d="M1738.06,1759.08s215.36-4.86,396.89,26.4c67.2,11.58,178.29,22.68,178.29,22.68s276.91-213.05,379.89-231.14c81.84-14.38,194.51,6.72,290.31,77.69,89.58,66.35,53.95,121.1,7.18,130.77,0,0,56.84,86.39-2.21,113.92C2927,1928,2875.19,1838,2875.19,1838s-180,209.83-266.67,272.06c-158.57,113.78-373.7,201.16-695.73-2.88" transform="translate(-581.54 -389.21)"/><path class="cls-3" d="M1738.05,1759.07l148.17,295.22,26.55,52.89c322.05,204.08,537.16,116.69,695.75,2.88,86.72-62.2,266.67-272,266.67-272s51.83,90,113.23,61.36c59-27.54,2.22-113.9,2.22-113.9,30.19-6.25,55.73-31.3,45.93-66.1-5.37-19.11-21.37-41.14-53.11-64.69-95.81-71-208.51-92.08-290.35-77.67-103,18.09-379.86,231.12-379.86,231.12s-111.1-11.09-178.31-22.66C1953.43,1754.23,1738.05,1759.07,1738.05,1759.07Z" transform="translate(-581.54 -389.21)"/><path class="cls-4" d="M1738.05,1759.07l99.4,198c92.17-43.45,167.41-107.07,215.91-183.15C1894.69,1755.56,1738.05,1759.07,1738.05,1759.07Z" transform="translate(-581.54 -389.21)"/><path class="cls-4" d="M1124,1868.35c55.46,49.75,124.71,89.69,203,116l29.22-200S1233.92,1797.55,1124,1868.35Z" transform="translate(-581.54 -389.21)"/><path class="cls-4" d="M1192.69,1920.36c97.14,62.29,220.88,99.57,355.61,99.57,182.84,0,345.37-68.63,448.71-175.12L1856.6,1645c-365-645.51-639-118.73-639-118.73S1198.28,1701,1192.69,1920.36Z" transform="translate(-581.54 -389.21)"/><path class="cls-4" d="M1886.22,2054.29l26.55,52.89c322.05,204.08,537.16,116.69,695.75,2.88,86.72-62.2,266.67-272,266.67-272s51.83,90,113.23,61.36c59-27.54,2.22-113.9,2.22-113.9,30.19-6.25,55.73-31.3,45.93-66.1-7.23,12.81-27.09,28.82-81.49,18-105-20.84-162.44-113.14-192.37-99.79-197.42,88.22-184.83,433.45-386.42,480.49s-290.65-215.15-398.17-241C1927.14,1864.85,1900.36,1955.51,1886.22,2054.29Z" transform="translate(-581.54 -389.21)"/><path class="cls-2" d="M2277.09,2247.63c-118.17,0-241-41.28-373.78-125.44a17.73,17.73,0,1,1,19-30c320.41,203,529.51,108.47,675.89,3.44,84-60.27,261.76-267.12,263.55-269.2a17.73,17.73,0,0,1,28.83,2.7c.42.73,44.52,75.54,90.36,54.15,8.29-3.86,13.15-9.15,15.28-16.64,6.53-22.89-13-60.2-20.41-71.47a17.74,17.74,0,0,1,11.24-27.09c17.3-3.58,30.36-14.44,33.27-27.67,4.38-19.87-12.91-45.93-47.42-71.49-99-73.36-207.85-86.57-276.68-74.48-97.56,17.14-369.42,225.63-372.15,227.73a17.6,17.6,0,0,1-12.57,3.59c-4.57-.45-112.48-11.29-179.54-22.84-177.68-30.6-391.36-26.19-393.49-26.15h-.4a17.74,17.74,0,0,1-.4-35.47c2.17-.06,219.18-4.54,400.31,26.66,56.23,9.68,144.79,19.16,170.09,21.79,41.17-31.33,283-212.87,382-230.25,76.09-13.37,195.88.87,303.93,80.91,60.15,44.55,66.35,83.11,61,107.61-4.41,20-18.74,37-38.55,47.07,10,20.35,22,52.86,14,81.17-4.94,17.42-16.85,31-34.43,39.16-54.72,25.5-100.49-20.06-122.35-48.49-45.5,52.12-181.09,204.69-254.7,257.51-102.21,73.34-196,111.78-295.27,121Q2300.46,2247.63,2277.09,2247.63Z" transform="translate(-581.54 -389.21)"/><path class="cls-4" d="M2838.41,1752.9s85.18,133.74.15,191.08c-61.86,41.72-126.91,17.35-132.71-52.88,0,0-35-43.68-9.33-100.09S2838.41,1752.9,2838.41,1752.9Z" transform="translate(-581.54 -389.21)"/><path class="cls-2" d="M2777.85,1982.08a89.5,89.5,0,0,1-39-8.58c-27.83-13.36-45.95-40.88-50.21-76-9.38-14.19-33.39-58.84-8.3-113.87,30.43-66.74,147.53-50.36,160.79-48.27a17.73,17.73,0,0,1,12.2,8c3.86,6,93.33,149.06-4.89,215.3C2825.57,1974.13,2800.93,1982.08,2777.85,1982.08Zm20.23-214.25c-33.3,0-74.23,6-85.43,30.54-20.94,45.94,6.75,81.28,7,81.64a17.71,17.71,0,0,1,3.84,9.63c2.06,24.94,13,43.37,30.71,51.89,20.59,9.87,48.4,5.29,74.42-12.26,59.86-40.36,13.55-133.69-1.14-159.9A279.5,279.5,0,0,0,2798.08,1767.83Z" transform="translate(-581.54 -389.21)"/><path class="cls-2" d="M2753.85,1909.42c-25.61,0-50.2-7.58-69.36-22.68a17.73,17.73,0,0,1,22-27.86c29.06,22.91,73,17,101.38-.59,12.23-7.6,39.88-29.07,32.45-64.27a17.73,17.73,0,1,1,34.7-7.33c8.37,39.66-9.73,77.69-48.43,101.73A138.69,138.69,0,0,1,2753.85,1909.42Z" transform="translate(-581.54 -389.21)"/><path class="cls-3" d="M2990.62,1785.48c-74.37,0-143.21-64.83-174.73-79.35" transform="translate(-581.54 -389.21)"/><path class="cls-2" d="M2990.62,1803.22c-59.84,0-115.2-37.35-151.84-62.06-12.43-8.39-23.16-15.63-30.31-18.92A17.73,17.73,0,0,1,2823.3,1690c9.77,4.49,21.61,12.48,35.32,21.73,35,23.63,83,56,132,56a17.74,17.74,0,0,1,0,35.47Z" transform="translate(-581.54 -389.21)"/><line class="cls-3" x1="2188.29" y1="1184.53" x2="2612.33" y2="2658.63"/><path class="cls-2" d="M3193.86,3061.14a13.3,13.3,0,0,1-12.77-9.63l-424-1474.1a13.3,13.3,0,0,1,25.57-7.35l424,1474.1a13.31,13.31,0,0,1-9.1,16.46A13.47,13.47,0,0,1,3193.86,3061.14Z" transform="translate(-581.54 -389.21)"/><path class="cls-3" d="M1709.42,2971.48s-75,2.94-175.82-1.21c-19.77-.85-40.47-1.9-61.79-3.32-159.11-10.51-352.6-40.23-427.66-120.07-112.29-119.39-144.71-714.64-52.64-953.13,15.49-40.3,56.08-73,109.19-99.24,90.84-45,218.48-71.53,320.1-86.6,18-2.68,35.19-5,51.15-7,67.51-8.43,114.31-11.19,114.31-11.19l11,115.52.88,9,6.13,63.44Z" transform="translate(-581.54 -389.21)"/><path class="cls-5" d="M1597.31,1805.25c-239.14,61-412.77,31.65-496.61-10.74,90.84-45,218.48-71.53,320.1-86.6,18-2.68,35.19-5,51.15-7,67.51-8.43,114.31-11.19,114.31-11.19Z" transform="translate(-581.54 -389.21)"/><path class="cls-4" d="M1598.19,1814.24l6.11,63.43,83.48,868.49,21.66,225.31-4.55.15c-.84,0-1.85,0-2.92.08l-2.75.06c-.73,0-1.46,0-2.19.09-.28,0-.61,0-.89,0-1.35,0-2.87.07-4.45.07a8.77,8.77,0,0,1-1.06,0c-1.29,0-2.64,0-4.1.08-2,.06-4,.07-6.13.1-1.53,0-3.15.06-4.78.07l-5.12.06c-2.2,0-4.51,0-6.87.09-4.79,0-9.85.07-15.21.05-4.72.07-9.68,0-14.88,0-6,0-12.23,0-18.72-.11-24-.26-51.47-.86-81.24-2.08-5.78-.24-11.68-.51-17.64-.78-4.14-.19-8.4-.42-12.66-.65-10.28-.55-20.86-1.16-31.5-1.88-159.1-10.5-352.55-40.23-427.6-120.08-92.48-98.3-130.83-519.25-90-798-2.42,241.64,36.47,498.9,106.18,573,34.46,36.63,160.31-103.54,154.54-180.72-14.86-199,5.34-457,182-617.91C1401.46,1819,1509.39,1827.74,1598.19,1814.24Z" transform="translate(-581.54 -389.21)"/><path class="cls-2" d="M1638.15,2990.35c-151.51,0-496.11-13.45-606.93-131.31-117.18-124.59-151.9-724-56.31-971.71,30-77.74,142.83-137.58,335.35-177.86,140-29.29,273.6-37.36,274.93-37.43l17.06-1,1.63,17,125,1300.42-18.76.74C1705.52,2989.38,1678.77,2990.35,1638.15,2990.35Zm-67.92-1281.79c-154.84,11.24-512.76,63.34-562.23,191.54-41.77,108.25-60.58,305.16-49.11,513.9,11.22,204.11,49.75,369.26,98.16,420.74,115.41,122.74,538.43,121.41,632.94,119.51Z" transform="translate(-581.54 -389.21)"/><path class="cls-3" d="M983.48,2398.63l216,5.41a42.32,42.32,0,0,1,40.2,32.66c16,68.8,44.79,229.61-20.06,286.43-53.83,47.16-145.09,46.49-200.67,4-62.17-47.51-75.93-205.95-78.89-284.58A42.36,42.36,0,0,1,983.48,2398.63Z" transform="translate(-581.54 -389.21)"/><path class="cls-4" d="M1239.66,2436.73c16.07,68.77,44.8,229.59-20.06,286.38-53.84,47.18-145.08,46.51-200.69,4-38.21-29.25-58.13-100.43-68.48-169.18,11.42,34,28,61.31,47.88,78.75,113.73,100,188.49-28.32,188.49-28.32s15.55,29.47,26.84,30.61c47.18,4.81,30.18-141.3,19.62-216.69A40.72,40.72,0,0,1,1239.66,2436.73Z" transform="translate(-581.54 -389.21)"/><path class="cls-2" d="M1117.51,2776.63c-39,0-78.38-11.73-109.33-35.39-66.85-51.08-82.48-208.63-85.84-298a60.09,60.09,0,0,1,61.59-62.34l216,5.41a60.06,60.06,0,0,1,57,46.36c20.33,87.25,44,242.74-25.65,303.78C1200.83,2763.16,1159.33,2776.62,1117.51,2776.63ZM982.39,2416.36a24.61,24.61,0,0,0-24.61,25.55c5.25,139.38,32.14,240.74,71.93,271.16,50.52,38.59,132.13,37.1,178.22-3.28,40.13-35.16,45.54-135.74,14.47-269.06a24.59,24.59,0,0,0-23.37-19l-216-5.41Z" transform="translate(-581.54 -389.21)"/><path class="cls-2" d="M1106.7,2745.07c51.65-33.33,70.14-99.14,72.18-157.92.53-32.78.9-67.05-7.93-98.75a4.68,4.68,0,1,1,8.61-3.69,127.82,127.82,0,0,1,5.84,18.55c5.87,24.42,8.43,49.44,9.9,74.43,4.89,70.39-12.29,151.36-73.24,194.67-18.71,11-34.55-17-15.36-27.29Z" transform="translate(-581.54 -389.21)"/><path class="cls-2" d="M1315.46,1870c-52.5-1.13-105.47-.38-157.89,2.72-51.43,3.3-104.47,8-153.73,21.59-22.65,5.75-32.15-27-9.72-34.12,80.25-17,161.4-15.2,242.57-13,26.65,1,53.13,2.42,79.81,4.53,11.66,1.17,10.84,18.41-1,18.25Z" transform="translate(-581.54 -389.21)"/><path class="cls-3" d="M1472.08,2403.86s164.26,256.45,206.6,378c56.66,162.65-6.27,608.74,37.27,690.5,19,35.59,64.48,69,235.79,69,118.78,0,231.34-6.12,234.65-94.66,2.63-70.53-90.23-102.79-90.23-102.79L2200,2571.15" transform="translate(-581.54 -389.21)"/><path class="cls-3" d="M1678.69,2781.87c56.66,162.66-6.3,608.76,37.28,690.51,18.93,35.6,64.47,69,235.78,69,118.77,0,231.33-6.12,234.66-94.65a76.86,76.86,0,0,0-.93-15.08c-9.71-60.07-89.34-87.69-89.34-87.69l76.79-571.56,27-201.24-727.88-167.27S1636.35,2660.3,1678.69,2781.87Z" transform="translate(-581.54 -389.21)"/><path class="cls-4" d="M1678.69,2781.87c56.66,162.66-6.3,608.76,37.28,690.51,18.93,35.6,64.47,69,235.78,69,118.77,0,231.33-6.12,234.66-94.65a76.86,76.86,0,0,0-.93-15.08s-42.74,42.3-224.16,43.45c-173.61,1.07-221.77-39.22-215-191.54,6.58-149.14,10.08-235.49,78.12-266.57,84.13-38.43,276.37-98.28,348.54-244.59l27-201.24-727.88-167.27S1636.35,2660.3,1678.69,2781.87Z" transform="translate(-581.54 -389.21)"/><path class="cls-2" d="M1487,2394.3c40.57,64,79.58,128.62,116.84,194.62,32.37,58.27,64.89,117.07,88.84,179.64,17.12,45.93,22,96.2,25.48,143.6,7.1,113.46,1.61,227.44-.32,340.44-.68,37.55-1.14,75.05-.09,112.15.58,18.52,1.5,37,3.54,54.88,2.25,16.53,3.81,32.85,11.92,47.29,31.57,52.38,134.47,53.8,192.66,56.43,36.8.6,74.61.47,111.29-2,34.27-2.73,71.82-7.07,101-24,20.79-11.81,31.21-32.14,30.44-54.84-1.47-40.33-41-66.69-78.29-81.84a17.76,17.76,0,0,1-11.76-19.11l103.82-772.78a17.73,17.73,0,1,1,35.15,4.72l-103.82,772.78L2102,3327.18a207.38,207.38,0,0,1,28.38,13.11c42.5,22.41,81.5,66.09,72.75,118.33-15.27,98.93-143.7,97.73-220.88,100.31-77-.29-195.55,3.3-257.9-48-26.39-21.48-35.26-54.95-38.28-87.24-6-57.31-4.41-114.66-3.67-171.72,1.92-112.87,7.38-225.15.39-337.41-2.56-36.92-6.47-73.9-15.33-108.43-21.19-70.7-59.37-135.05-94.5-199.78-36.84-65.27-75.8-129.76-115.9-193-11.72-19.18,16.09-39,30-19Z" transform="translate(-581.54 -389.21)"/><path class="cls-2" d="M1885.36,3146.82c-101.22,0-180.43-25.09-186.22-27a13.3,13.3,0,0,1,8.21-25.3c2.42.79,243.83,77,418.87-40.57a13.3,13.3,0,0,1,14.83,22.08C2059,3131.16,1965.31,3146.82,1885.36,3146.82Z" transform="translate(-581.54 -389.21)"/><path class="cls-3" d="M1856.59,1644.93c-364.94-645.47-639-118.72-639-118.72s-36.93,333.77-23.51,657.45c9.53,229.74,27.11,316.87,48.14,446.77,81.44,443.66,838.22,409.74,944.45,26.92,60.12-216.65-15-524.36-153.54-761.15" transform="translate(-581.54 -389.21)"/><path class="cls-3" d="M1856.59,1644.93c-364.94-645.47-639-118.72-639-118.72s-36.93,333.77-23.51,657.45c9.53,229.74,27.11,316.87,48.14,446.77,81.44,443.66,838.22,409.74,944.45,26.92,60.12-216.65-15-524.36-153.54-761.15Z" transform="translate(-581.54 -389.21)"/><path class="cls-3" d="M1194.11,2183.66c9.49,229.74,27.09,316.86,48.1,446.76a376.35,376.35,0,0,0,23,77.9c150.83,360.13,821.88,307.81,921.45-50.94a554,554,0,0,0,15.61-79.05c26.16-208.24-46.73-472.88-169.14-682.14L1856.6,1645c-365-645.51-639-118.73-639-118.73S1180.68,1860,1194.11,2183.66Z" transform="translate(-581.54 -389.21)"/><path class="cls-4" d="M2180.56,2450.51l-121.85,73.91,9.88,46.89a75.39,75.39,0,0,1-61.28,89.9l-407.14,68.33a75.37,75.37,0,0,1-86.87-62.17l-14.52-88.68-311.43-40.83-53.63-206.74L1279.78,2308s-31.12,127.09,109.48,161.24,788.5-86.32,788.5-86.32Z" transform="translate(-581.54 -389.21)"/><path class="cls-4" d="M1265.22,2708.32c150.83,360.13,821.88,307.81,921.45-50.94a554,554,0,0,0,15.61-79.05c0,.13,0,.22-.09.35C2151.25,2766.17,1653.51,2947.19,1265.22,2708.32Z" transform="translate(-581.54 -389.21)"/><path class="cls-4" d="M1232.42,2687c3,38.79,5.36,72.48,6.47,93.14,4.21,77.54,7.4,168.48,10.06,258.83L1693.41,3067c3.1-46.24,5-94.83,5.14-144.09l-99.66-104.19C1475.55,2806.87,1348.22,2766.79,1232.42,2687Z" transform="translate(-581.54 -389.21)"/><path class="cls-4" d="M1192.69,1920.36c97.14,62.29,220.88,99.57,355.61,99.57,182.84,0,345.37-68.63,448.71-175.12L1856.6,1645c-365-645.51-639-118.73-639-118.73S1198.28,1701,1192.69,1920.36Z" transform="translate(-581.54 -389.21)"/><path class="cls-2" d="M2143.78,2734.62c83.54-202.57,39.4-432.74-31.91-632.92-24.8-68.43-54.07-135.23-86.4-201a8.89,8.89,0,0,1,15.32-8.93c83.58,123.68,137.67,266.16,166.89,412.39,21.58,114.88,27.75,236.21-2,350.67-3.39,14-10.24,27.31-16.45,40.2a340.94,340.94,0,0,1-30.23,48.8,8.91,8.91,0,0,1-15.18-9.16Z" transform="translate(-581.54 -389.21)"/><path class="cls-2" d="M1841.15,1653.66c-119-212.44-325.72-458.11-548.27-204.08-22.4,25.93-43.07,54.87-59.55,84.81l1.9-6.23c-8.37,82.3-14.15,165.45-18.48,248.36-15.08,289.28-7.53,581.58,48.16,866.46,46.36,210.07,268.29,301.56,466.16,292,81.77-3.12,160.49-23.25,238.28-48.73a8.94,8.94,0,0,1,7.71,16c-72.33,46.6-159.39,64.65-244.37,69.13-218.15,12.48-455.08-88.79-506.09-319.58-4-17.66-8-44.54-11-62.76-59.84-351.55-50.35-711-15.58-1064.72l.37-3.38,1.53-2.86c18.16-33.17,39.69-63.1,64.21-91.68,75.61-89.18,187.75-149.79,305.12-105.71,138.18,53,229.33,193.42,300.82,315.57,11,21-18.88,37.5-30.87,17.46Z" transform="translate(-581.54 -389.21)"/><g class="cls-6"><ellipse class="cls-3" cx="1355.59" cy="1443.35" rx="43.52" ry="50.02" transform="translate(-650.16 -321.54) rotate(-2.79)"/></g><path class="cls-3" d="M1698.54,2923c-.43,244.7-47.42,473.55-47.42,473.55s49.4,63.93.81,122.73c-29.57,35.78-102.38,35.85-102.38,35.85H1344.11s-56.15-5.4-77.74-67.48c-10.67-30.67-13.2-445.43-27.48-707.52-4.45-81.8-28.77-367.72-28.77-367.72Z" transform="translate(-581.54 -389.21)"/><path class="cls-3" d="M1698.54,2923c-.43,244.7-47.42,473.55-47.42,473.55s49.4,63.93.81,122.73c-29.57,35.78-102.38,35.85-102.38,35.85H1344.11s-56.15-5.4-77.74-67.48c-10.67-30.67-13.2-445.43-27.48-707.52-4.45-81.8-28.77-367.72-28.77-367.72Z" transform="translate(-581.54 -389.21)"/><path class="cls-4" d="M1261.06,3432.12c1.55,29.93,3.28,49.66,5.32,55.46,21.59,62.12,77.71,67.48,77.71,67.48h205.45s72.8,0,102.37-35.82c22.21-26.82,24-54.71,19.33-77.14a103.39,103.39,0,0,1-10.33,14.89c-30.9,37.42-86,37.51-182.61,37.51S1285.44,3489.31,1261.06,3432.12Z" transform="translate(-581.54 -389.21)"/><path class="cls-4" d="M1232.42,2687c3,38.79,5.36,72.48,6.47,93.14,3.18,58.51,5.77,124.64,8,192.4,61.45,34.4,231.69,77,449.2,47.85,1.51-31.83,2.4-64.47,2.46-97.4l-99.66-104.19C1475.55,2806.87,1348.22,2766.79,1232.42,2687Z" transform="translate(-581.54 -389.21)"/><path class="cls-2" d="M1707.41,2923c11,119.61-1,240.29-18.88,358.6-6,39.58-12.2,78.83-20,118.51l-3.34-14.41c33.87,45.8,36.51,111.2-6.52,152.21-31.52,28.15-77.9,34.9-117.89,35-50.73,0-145,0-196.64,0-15.64-1.38-30.32-7.34-43.72-15.2a117.58,117.58,0,0,1-52.06-69c-2.66-13.56-3-26.09-4.08-39.51-10-202.16-11.68-465-23-666.53-7.76-122.92-18.71-245.93-28.82-368.79-1.38-22.47,32.19-27.14,35.34-3,10.15,123.26,21.1,246.29,28.9,369.85,12,208.07,12.22,475.93,24.29,684.22.67,33.18,26.79,63,58.56,71.2,1.85.43,4.67,1.13,6.27,1.3l-1.7-.08h196.63a207.32,207.32,0,0,0,26.12-1.17c29.62-3.82,61.91-10.62,77.81-37.1,13.86-21.06,13.62-48.26,3.63-71.25a110.16,110.16,0,0,0-8.27-16.1c-4.19-5.83-7.93-11.74-6.28-18.79,7.46-38.26,14-77.45,19.36-116.48,10.58-76.92,17.86-158.05,25.24-235.38,4-39.35,6.88-78.74,11.34-118.31,1.06-10.1,16.61-10.75,17.72.19Z" transform="translate(-581.54 -389.21)"/><path class="cls-3" d="M1685.71,3151.11s-136.92,62.56-426-8.08" transform="translate(-581.54 -389.21)"/><path class="cls-2" d="M1514.5,3190.13c-66.44,0-152.12-8.31-258-34.19a13.29,13.29,0,1,1,6.31-25.83c280.09,68.44,416,9.5,417.36,8.89a13.3,13.3,0,0,1,11,24.21C1687.57,3164.88,1630.25,3190.13,1514.5,3190.13Z" transform="translate(-581.54 -389.21)"/><path class="cls-3" d="M1338.48,3377.26s122.29-42.85,271.44,1.15" transform="translate(-581.54 -389.21)"/><path class="cls-2" d="M1335.55,3368.9c87.89-32.73,189.18-30.9,276.88,1,10.34,3.82,5.76,19.42-5,17-65.88-13.63-133.19-19-200.15-11.85-22.31,2.33-45.08,5.64-66.41,10.71-10.5,2.41-15.39-12.82-5.3-16.87Z" transform="translate(-581.54 -389.21)"/><path class="cls-3" d="M2096.16,3343.93s-103.55,20.77-190.59,14.4" transform="translate(-581.54 -389.21)"/><path class="cls-2" d="M2098.78,3357c-63.76,12.55-129.17,16.33-193.85,10.21-11.13-1.25-10.17-17.82,1.07-17.69,31.36.82,62.88-1.27,94.25-4.75,27.32-2.9,66-9.52,93.5-13.89,16.84-2.33,21.55,22,5,26.12Z" transform="translate(-581.54 -389.21)"/><path class="cls-3" d="M1356.29,1784.42s-142.39,15.24-258,101.7c-86.48,64.7-324.84,287.67-352.51,400.14-33.33,135.45,72.7,269.89,245.4,236,179.24-35.13,288.56-214.27,288.56-214.27Z" transform="translate(-581.54 -389.21)"/><path class="cls-3" d="M991.24,2522.29c176.45-34.58,285.11-208.73,288.44-214.14a.36.36,0,0,1,.09-.13l76.52-523.59s-142.41,15.25-257.94,101.7c-86.5,64.68-324.84,287.64-352.55,400.12q-2.46,9.91-3.9,19.82C723,2434.42,826.93,2554.52,991.24,2522.29Z" transform="translate(-581.54 -389.21)"/><path class="cls-4" d="M1124,1868.35c55.46,49.75,124.71,89.69,203,116l29.22-200S1233.92,1797.55,1124,1868.35Z" transform="translate(-581.54 -389.21)"/><path class="cls-4" d="M991.24,2522.29c176.45-34.58,285.11-208.73,288.44-214.14-3.51,3.95-108,120.37-208.77,95.72-53.52-13.08,35-118.86,2.48-168.12-29.09-44.2-274-36.62-331.49,70.32C723,2434.42,826.93,2554.52,991.24,2522.29Z" transform="translate(-581.54 -389.21)"/><path class="cls-2" d="M1358.18,1802.05c-79.39,11.36-157.66,38.59-225.36,81.77-40.73,27-77.24,60-113.63,92.94-72.35,67.06-142.45,137.7-201.48,216.6-27.85,38.9-54.61,77.56-58.17,125-10.68,117.39,84.37,200.69,199.25,189.79,130.65-12.19,232.85-107.53,313.42-204.71,6.35-8.62,19.89-.3,15.14,9.24-23.65,46-56.44,85.89-93.72,121.38-87.7,81.11-218.08,140.44-338.26,98-101.27-36.28-154.68-148.25-127.69-250.87,31.68-108.23,183.51-253.11,267.19-331.06,37.75-33.9,75.86-68.05,118.67-96.09,43.38-27.91,91-49.26,140.11-64.5,33.09-10.29,66.21-18.27,100.75-22.75,23.43-1.93,27.4,32.07,3.78,35.26Z" transform="translate(-581.54 -389.21)"/><path class="cls-3" d="M2291.94,1296a741.28,741.28,0,0,1-165.57,339.47,763.26,763.26,0,0,1-56,58.51c-9.66,9.12-19.72,18-30,26.82a763.6,763.6,0,0,1-301.71,156.13q-21.16,5.41-42.48,9.68c-260.25,51.57-539.88-33.09-724.3-245.6C700.07,1328,737.94,856.3,1056.26,587.37a761.52,761.52,0,0,1,199.25-121.66c8.22-3.5,16.58-6.78,25-9.88q33.66-12.68,68.09-22.05a772.94,772.94,0,0,1,323.75-17.17q25.52,4.08,50.77,9.86a758.17,758.17,0,0,1,401.65,240.69C2281.09,847.19,2334.92,1079.72,2291.94,1296Z" transform="translate(-581.54 -389.21)"/><path class="cls-2" d="M1546.55,1903.08c-219.29,0-430.89-93.6-576.08-260.9-131.22-151.12-195-343.8-179.65-542.53C806.31,899.32,900.17,716.91,1055.11,586a763.39,763.39,0,0,1,199.72-121.94c7.86-3.35,16.06-6.59,25.05-9.91,22.37-8.42,45.34-15.86,68.25-22.09a774.68,774.68,0,0,1,324.49-17.21c17.19,2.74,34.31,6.07,50.9,9.88a763.71,763.71,0,0,1,75,21.35A754.88,754.88,0,0,1,2126.11,666c151.45,174.42,212.53,404.17,167.59,630.36h0a745.81,745.81,0,0,1-166,340.28,762.67,762.67,0,0,1-56.18,58.65c-8.9,8.41-18.74,17.21-30.07,26.88a765.41,765.41,0,0,1-302.42,156.5c-14,3.59-28.37,6.85-42.58,9.7A771.1,771.1,0,0,1,1546.55,1903.08Zm4-1494.36q-20.22,0-40.39,1.07a766.77,766.77,0,0,0-161.15,25.71c-22.79,6.21-45.65,13.61-67.93,22-9,3.3-17.1,6.52-24.92,9.85a759.73,759.73,0,0,0-198.8,121.38c-154.2,130.28-247.62,311.83-263,511.19-15.29,197.77,48.21,389.52,178.78,539.92,177.32,204.32,454.19,298.21,722.61,245,14.15-2.84,28.41-6.09,42.39-9.66a763.58,763.58,0,0,0,301-155.76c11.28-9.63,21.07-18.38,29.94-26.76A763.13,763.13,0,0,0,2125,1634.3a742.18,742.18,0,0,0,165.17-338.65c44.73-225.09-16.05-453.74-166.77-627.32a756.42,756.42,0,0,0-400.7-240.12c-16.51-3.8-33.55-7.11-50.67-9.84A768.9,768.9,0,0,0,1550.6,408.72Z" transform="translate(-581.54 -389.21)"/><path class="cls-4" d="M971.81,1641c184.41,212.54,464.08,297.21,724.32,245.6q21.33-4.24,42.45-9.66a765.6,765.6,0,0,0,301.75-156.12c10.26-8.82,20.32-17.7,30-26.8a771,771,0,0,0,56-58.55,741.79,741.79,0,0,0,177.41-544.34,740.94,740.94,0,0,1-162,322.58,750.59,750.59,0,0,1-56,58.55c-9.64,9.11-19.71,18-30,26.81A762.84,762.84,0,0,1,1754,1655.18q-21.19,5.41-42.5,9.66c-260.24,51.61-539.86-33.06-724.32-245.6-107.64-124-166.64-272.83-178.94-424.09C758.89,1216.2,811.41,1456.27,971.81,1641Z" transform="translate(-581.54 -389.21)"/><path class="cls-2" d="M1546.57,1915c-222.73,0-437.66-95.08-585.13-265-133.33-153.56-198.16-349.35-182.54-551.3C794.63,895.18,890,709.85,1047.39,576.87A775,775,0,0,1,1250.24,453c7.94-3.38,16.32-6.69,25.5-10.08,22.65-8.53,46-16.08,69.24-22.41A786.87,786.87,0,0,1,1674.51,403c17.45,2.78,34.85,6.16,51.69,10a774.71,774.71,0,0,1,76.2,21.68,766.84,766.84,0,0,1,332.74,223.39c153.89,177.23,216,410.69,170.29,640.53h0a757.74,757.74,0,0,1-168.64,345.75,781.21,781.21,0,0,1-57.06,59.58c-9,8.52-19,17.44-30.49,27.25a777.48,777.48,0,0,1-307.19,159c-14.29,3.65-28.81,7-43.23,9.85A783.35,783.35,0,0,1,1546.57,1915Zm4-1494.35q-19.9,0-39.75,1.05a754.63,754.63,0,0,0-158.65,25.32c-22.43,6.1-44.93,13.38-66.86,21.64-8.83,3.26-16.8,6.41-24.44,9.67a747.75,747.75,0,0,0-195.77,119.51c-151.74,128.2-243.66,306.82-258.83,503-15,194.56,47.43,383.2,175.9,531.16,174.51,201.08,447,293.48,711.25,241.12,13.91-2.79,28-6,41.74-9.51a751.39,751.39,0,0,0,296.25-153.31c11.08-9.46,20.73-18.08,29.45-26.31A754.56,754.56,0,0,0,2116,1626.5a730.2,730.2,0,0,0,162.51-333.18c44-221.44-15.8-446.38-164.08-617.15A744.27,744.27,0,0,0,1720,439.87c-16.23-3.74-33-7-49.85-9.69A757.17,757.17,0,0,0,1550.6,420.68ZM2292,1296h0Z" transform="translate(-581.54 -389.21)"/><path class="cls-2" d="M1546.58,1919c-223.9,0-439.91-95.57-588.15-266.38-134-154.37-199.21-351.2-183.51-554.22,15.82-204.62,111.67-390.92,269.9-524.6a779.23,779.23,0,0,1,203.89-124.49c8-3.39,16.41-6.73,25.65-10.14,22.74-8.56,46.19-16.15,69.58-22.52a791,791,0,0,1,331.2-17.57c17.54,2.8,35,6.19,51.95,10.09a780.1,780.1,0,0,1,76.6,21.8,770.78,770.78,0,0,1,334.46,224.54c154.71,178.17,217.1,412.87,171.19,643.92h0A761.67,761.67,0,0,1,2139.81,1647a783.52,783.52,0,0,1-57.35,59.89c-9.06,8.55-19.1,17.52-30.63,27.37a781.15,781.15,0,0,1-308.78,159.81c-14.37,3.67-29,7-43.45,9.9A787.45,787.45,0,0,1,1546.58,1919Zm4-1494.35q-19.78,0-39.54,1a751.19,751.19,0,0,0-157.81,25.18c-22.32,6.08-44.69,13.32-66.5,21.53-8.8,3.25-16.71,6.38-24.29,9.6a744.07,744.07,0,0,0-194.76,118.9c-150.92,127.5-242.34,305.15-257.42,500.23-15,193.49,47.16,381.08,174.93,528.24,173.58,200,444.64,291.91,707.46,239.82,13.84-2.77,27.83-6,41.54-9.46a747.74,747.74,0,0,0,294.66-152.49c11-9.4,20.61-18,29.28-26.17a748.79,748.79,0,0,0,54.78-57.2,726.18,726.18,0,0,0,161.62-331.35h0c43.76-220.22-15.71-443.93-163.18-613.76a735.47,735.47,0,0,0-319.11-214.22,745,745,0,0,0-73.13-20.81c-16.15-3.71-32.83-7-49.59-9.63A752.67,752.67,0,0,0,1550.6,424.67ZM2292,1296h0Z" transform="translate(-581.54 -389.21)"/><path class="cls-2" d="M2230.45,1477.82c-331.29,423.57-973.77,395.09-1163.89-98.87-129.34-336.06,105-721.47,440.74-824.35,244.38-74.88,515.83-42.7,736.13,299.06,0,0,73.77,166.21,62.75,295.6s-43.9,253.45-43.9,253.45Z" transform="translate(-581.54 -389.21)"/><path class="cls-7" d="M1066.58,1379c190.1,494,832.59,522.42,1163.88,98.88l6.44-15.23c-440.33,227.13-992.24,96.81-1193.89-399.06C1021.36,1166.85,1026.68,1275.24,1066.58,1379Z" transform="translate(-581.54 -389.21)"/><path class="cls-2" d="M1639.73,1868.78c-101.41,0-200.9-19.61-291.69-58.87-172.64-74.63-301.48-211.73-372.6-396.45-65.31-169.65-53.84-360.53,32.29-537.47,95.68-196.55,273-350.74,474.46-412.46,111.93-34.29,218.9-45.52,317.92-33.37l1.81.23,1.72.58a770.86,770.86,0,0,1,334.51,224.56c154.71,178.17,217.1,412.87,171.19,643.92h0A761.67,761.67,0,0,1,2139.81,1647a783.52,783.52,0,0,1-57.35,59.89c-9.06,8.55-19.1,17.52-30.63,27.37a782.65,782.65,0,0,1-100.12,71.88l-2.47,1.24C1848.92,1848.31,1743.32,1868.78,1639.73,1868.78Zm81.46-1407.89c-72.62,0-149.21,12.22-228.62,36.56-192.17,58.88-361.5,206.2-452.95,394.06-81.77,168-92.81,348.84-31.08,509.21,67.62,175.63,189.88,305.87,353.58,376.64,174.44,75.42,383,74.57,572.44-2.27a746.27,746.27,0,0,0,94.31-67.83c11-9.4,20.61-18,29.28-26.17a748.79,748.79,0,0,0,54.78-57.2,726.18,726.18,0,0,0,161.62-331.35h0c43.76-220.22-15.71-443.93-163.18-613.76A735.49,735.49,0,0,0,1794,465.15,613.32,613.32,0,0,0,1721.19,460.89ZM2292,1296h0Z" transform="translate(-581.54 -389.21)"/><path class="cls-2" d="M1643.93,1789.22a686.13,686.13,0,0,1-101.32-7.5c-227.28-33.92-405.89-178.77-490-397.38-58-150.74-47.82-320.33,28.71-477.54,85-174.67,242.64-311.68,421.63-366.53,308.27-94.47,561.65,8.26,753.1,305.27l1.11,2c3.07,6.93,75.19,171.25,64,302.95-11,129.19-44,254.77-44.34,256l-.69,2-32.6,76.92-1.22,1.56C2092.26,1678.81,1869.85,1789.22,1643.93,1789.22Zm69.63-1252.59q-96.39,0-201.86,32.29c-171.19,52.45-322,183.66-403.47,351-72.85,149.66-82.69,310.77-27.69,453.66,80.16,208.27,250.19,346.23,466.5,378.52,247.91,37,504.57-71,670.39-281.95l30.63-72.26c3.11-12,32.92-129.45,43.19-249.9,10.12-118.81-55-273.17-61.07-287.23C2090.83,645.1,1917.62,536.63,1713.56,536.63Zm516.89,941.19h0Z" transform="translate(-581.54 -389.21)"/><path class="cls-3" d="M735.82,1447.46c35.78,143,151.46,241.76,258.41,220.58s164.66-154.26,128.89-297.25c-.21-.9-.47-1.84-.73-2.74-36.52-141.51-151.48-238.88-257.68-217.84-82.63,16.35-135.85,99.5-139.32,202.39A345.17,345.17,0,0,0,735.82,1447.46Z" transform="translate(-581.54 -389.21)"/><path class="cls-4" d="M735.82,1447.46c35.78,143,151.46,241.76,258.41,220.58s164.66-154.26,128.89-297.25c-.21-.9-.47-1.84-.73-2.74-8.08,17-22.77,35.08-48.79,35.12-45.56,0-146.5-76.47-146.5-76.47s-87.55,10.66-201.71,25.9A345.17,345.17,0,0,0,735.82,1447.46Z" transform="translate(-581.54 -389.21)"/><path class="cls-2" d="M965.34,1688.58c-106,0-212.27-99.07-246.74-236.81h0c-21.93-87.65-11.46-174.27,28.72-237.65,27.87-43.95,67.26-72.06,113.92-81.3,115.86-23,241.1,81.86,279.08,233.65,21.92,87.66,11.45,174.28-28.73,237.66-27.87,43.94-67.26,72.06-113.92,81.29A165.64,165.64,0,0,1,965.34,1688.58Zm-71.12-523.51a134.21,134.21,0,0,0-26.09,2.54c-36.9,7.31-68.31,30-90.85,65.5-34.5,54.41-43.57,132.93-24.27,210.05h0c30.49,121.9,121.82,210,211.69,210a132.75,132.75,0,0,0,26.09-2.54c36.89-7.3,68.31-30,90.85-65.5,34.49-54.4,43.57-132.92,24.27-210.05C1075.42,1253.19,984.09,1165.07,894.22,1165.07Z" transform="translate(-581.54 -389.21)"/><ellipse class="cls-3" cx="871.08" cy="1440.75" rx="148.57" ry="217.96" transform="translate(-971.5 -63.96) rotate(-17.35)"/><path class="cls-4" d="M924.75,1651.62c-80.93,15.38-170.51-66.57-200.15-183.07a314.17,314.17,0,0,1-7.17-37.49c41.38,75,109.37,120.8,172.27,108.79,71-13.57,112.26-96.52,102.2-194.59a318.2,318.2,0,0,1,25.67,67.65C1047.21,1529.41,1005.63,1636.25,924.75,1651.62Z" transform="translate(-581.54 -389.21)"/><path class="cls-2" d="M905.41,1671.17c-83.22,0-168.81-83.48-198-198.23h0c-18.89-74.26-10.77-149.06,21.73-200.09,21-32.94,50.36-53.83,85-60.4,89.8-17.06,188.77,70.93,220.62,196.11,18.89,74.26,10.77,149.06-21.73,200.09-21,32.94-50.36,53.83-85,60.4A120.4,120.4,0,0,1,905.41,1671.17Zm-163.63-207c27.32,107.37,107.83,183.61,179.64,170,24.77-4.7,46.1-20.13,61.68-44.61,27.34-42.93,33.8-107.34,17.28-172.29-27.32-107.37-107.89-183.62-179.64-170-24.77,4.7-46.1,20.13-61.68,44.61-27.34,42.93-33.8,107.34-17.28,172.29Z" transform="translate(-581.54 -389.21)"/><g class="cls-8"><path class="cls-3" d="M1373.54,738.76s311-113.54,546.86,15.7l.74.41c49.62,27.24,110.54,101.79,139.29,150.07,38,63.85,54.73,113.37,67.72,157.53,39.46,134.31,32.44,204.62,32.44,204.62,56.72-93.36,76.76-186.54,45-298.74q-4.74-16.58-11-33.79c-.94-2.65-1.94-5.25-3-7.85.05-.05,0-.1-.09-.15a774.28,774.28,0,0,0-43.35-83.5c-57.15-95.46-156.19-212.91-306-237.45C1562.2,559.71,1358.18,728,1373.54,738.76Z" transform="translate(-581.54 -389.21)"/></g><g class="cls-8"><ellipse class="cls-3" cx="1246.72" cy="1168.65" rx="101.31" ry="116.38" transform="translate(-595.48 -374.15) rotate(-0.69)"/></g><g class="cls-8"><ellipse class="cls-3" cx="1251.06" cy="1380.04" rx="48.07" ry="41.82" transform="translate(-807.27 2126.06) rotate(-85.36)"/></g><path class="cls-2" d="M2498.25,2194.74a17.75,17.75,0,0,1-4.65-.62c-91.66-24.86-155-100.45-183.07-218.58-20.66-86.83-15.22-165.38-15-168.68a17.73,17.73,0,0,1,35.37,2.58c-.21,3-19.28,298.57,172,350.45a17.73,17.73,0,0,1-4.63,34.85Z" transform="translate(-581.54 -389.21)"/><path class="cls-2" d="M934.72,2545.3a17.74,17.74,0,0,1-1.46-35.41c71.21-6,122.71-31.54,153.09-76,60.06-87.9,21-223.05,20.58-224.41a17.73,17.73,0,0,1,34-10.13c1.85,6.18,44.35,152.43-25.19,254.4-36.68,53.79-97.07,84.56-179.51,91.47C935.72,2545.27,935.22,2545.3,934.72,2545.3Z" transform="translate(-581.54 -389.21)"/><path class="cls-3" d="M685.55,2226c10.77-3.41,22.61-9.31,35.16-18-1.38,71.87,49.87,106.71,119.39,115.31H1001s137.57-46.55,149.59-166.61c.09-.53.13-1.1.18-1.68,9.31-103-86.23-138.28-115.27-146.53-5.19-1.5-8.25-2.12-8.25-2.12s-11.88-15.74-30.1-37.2c-37.69-44.16-102.5-112.34-146.84-116.65-63.49-6.2-69.52,45-43.54,91.33a147,147,0,0,0,11.71,17.69c-1.51.14-3,.31-4.57.45-52.18,5.41-134.51,22.92-123.2,87.78.13.8.26,1.64.44,2.48,4.21,20.48,19.51,28.78,38.88,31.57-24.87,8.87-44.95,19.42-60.83,30.72C589.56,2171.38,617.05,2247.81,685.55,2226Z" transform="translate(-581.54 -389.21)"/><path class="cls-4" d="M685.55,2226c10.77-3.41,22.61-9.31,35.16-18-1.38,71.87,49.87,106.71,119.39,115.31H1001s137.57-46.55,149.59-166.61c-29,14.55-66.28,22.3-107.73,4.57-73.56-31.43-26.38-101.57-7.36-152.78-5.19-1.5-8.25-2.12-8.25-2.12s-11.88-15.74-30.1-37.2c-22.17,20.48-55,40.08-97.23,35.82-55.42-5.58-95.05-67-99.18-73.55.85,1.55,3.2,6.07,6,12.41,2.27,5.06,4.79,11.27,7.14,18.14,8,23.23,13.52,53.86-3.46,71-23.85,24.12-86,19.6-119.74,16.76.13.8.26,1.64.44,2.48,4.21,20.48,19.51,28.78,38.88,31.57-24.87,8.87-44.95,19.42-60.83,30.72C675.48,2153.56,687.9,2197.45,685.55,2226Z" transform="translate(-581.54 -389.21)"/><path class="cls-2" d="M998.21,2314.93c46-26.07,90.49-57.78,116.14-103.83,45.61-90.31.71-162.28-92.26-187.81a15.9,15.9,0,0,1-9-6.27,919.48,919.48,0,0,0-62.74-73.27c-21.61-22.38-45.08-44.9-71.1-61.16-16.12-10.79-36.77-16.57-55-10.43-29.89,12.34-6,60.61,8.33,78.56,8.63,10.61,1,27.54-12.4,28.47-18.53,1.77-36.86,4.54-54.14,9.23-29.19,8.18-63.69,22.9-58,57.15,1.08,7.58,3,11.1,6.63,14.18s10.07,5.44,17.9,6.5a17.71,17.71,0,0,1,3.44,34.27c-21.43,7.67-41.92,17.57-59.37,30.55-16.07,12-31.27,28.22-36.67,47-4.29,15.83-.28,30.28,16.49,33.45,18.07,2.95,38.45-7.29,54.08-18.08,11.39-8.39,28.46,1,27.87,14.88,1.91,64.11,46.87,89.47,102.91,106.23,9.51,2.89,7.52,17.23-2.32,17.55-74.38,3.93-142.75-44.51-136-124.45l27.87,14.89c-28.78,20.19-71,36.8-104.35,14.16-36.25-25.46-25.47-77.35-.43-106.12,25.16-31,61.91-50.47,98.09-63.51l3.44,34.26c-17.25-1.58-41.06-12.68-49-31.48-13.75-29-5.59-67,19.3-87,33.41-27.75,77.85-34.46,119-39l-12.4,28.47c-30.52-37.25-50.46-111.36,7.61-133.5,29.47-10.24,60.72-2.76,85.73,13.5,57.6,37.67,101.24,90.09,143.65,143.33l-10.63-6.71c5.83,1.11,10.11,2.3,15.5,3.82,81.72,23.68,138.3,89.56,121.69,177.83-8.83,51.15-41.42,95.77-83.6,124.82-24.53,16.93-51.3,29.67-80.51,36.29a8.93,8.93,0,0,1-5.69-16.8Z" transform="translate(-581.54 -389.21)"/><path class="cls-2" d="M893.9,2054.92c-34.69-21.82-67.2-48.11-89.69-82.9-10.56-18.35,13.73-36.44,28.28-21.33,12.94,13.84,25.5,28.87,37.64,43.8,12.27,15.27,24.74,30.75,35.91,47.52,5.39,7.81-4.13,17.78-12.14,12.91Z" transform="translate(-581.54 -389.21)"/><path class="cls-3" d="M730.08,2083.81s-37.2,74.65,3,120c20.2,22.75,65.32,14.61,82-15.5,22.58-40.79,11-90.54,17.37-105.76" transform="translate(-581.54 -389.21)"/><path class="cls-4" d="M723.41,2189.65a69.32,69.32,0,0,0,9.71,14.14c20.22,22.74,65.3,14.58,82-15.52,22.57-40.79,11-90.53,17.38-105.74l-32,.4c-.13,22.17-.22,52.8-15,79.58C773.11,2184.77,745.27,2195,723.41,2189.65Z" transform="translate(-581.54 -389.21)"/><path class="cls-2" d="M764.87,2234.57c-18,0-34.09-6.72-45-19-47.65-53.66-7.39-136.17-5.65-139.66A17.73,17.73,0,0,1,746,2091.68h0c-.31.65-31.29,64.63.41,100.32,4.83,5.43,13.13,7.92,22.84,6.86,13-1.44,24.62-8.78,30.36-19.16,12.55-22.68,12.7-49.35,12.82-70.78.08-13.82.13-24.74,3.71-33.27a17.73,17.73,0,1,1,32.7,13.74c-.85,2.6-.9,12.5-.94,19.72-.13,22.76-.32,57.16-17.25,87.77-11.23,20.28-33.26,34.55-57.5,37.23A74.52,74.52,0,0,1,764.87,2234.57Z" transform="translate(-581.54 -389.21)"/><path class="cls-2" d="M855.31,2095.62c-16.18.33-29.64-4.93-44.06-6.35-.06.22,1,0-.14.28-1.74.51-8.13,2.53-10,3.11-22.23,7.49-48.1,12.78-72.32,8.83a17.79,17.79,0,0,1,2.55-35.37,227,227,0,0,0,28.91-3.25c17-2.28,34.76-10.44,52.87-10.31,20.08,2.72,36.73,12.2,50,27.15,5.59,6.13.3,16.58-7.84,15.91Z" transform="translate(-581.54 -389.21)"/><path class="cls-3" d="M1122.55,2144.18c-3.36,30.66-32.34,86.73-78.87,86.24-64.73-.67-64.07-76.7-17.49-153.7" transform="translate(-581.54 -389.21)"/><path class="cls-2" d="M1131.36,2145.15c-1.39,44.7-30.28,93.95-77.87,101.83-37.65,5.79-72.13-16.58-76.65-55.38-5-44.44,15.86-86.6,41.77-119.47,6.53-8,19.26-.23,15.17,9.18-9.9,23.87-18.56,47.84-22.29,71.48-2.68,18.83-3.63,43.64,11.74,54.61,16.54,9.85,37.32,6.61,52.79-6.08,17.36-14,31.23-36.47,37.72-58.1,2.39-10.23,17.57-8.5,17.62,1.93Z" transform="translate(-581.54 -389.21)"/><path class="cls-3" d="M1541.48,2418s-208.5,43.71-328.37,20.39c0,0-89.09,65,10.37,135.07,185.94,42,346.77-15.22,346.77-15.22Z" transform="translate(-581.54 -389.21)"/><path class="cls-3" d="M1223.46,2573.45c185.94,42,346.79-15.21,346.79-15.21l-12.33-60-16.45-80.2s-162.22,34-282.76,26a368.63,368.63,0,0,1-45.58-5.63S1124,2503.4,1223.46,2573.45Z" transform="translate(-581.54 -389.21)"/><path class="cls-4" d="M1223.46,2573.45c185.94,42,346.79-15.21,346.79-15.21l-12.33-60c-63.66,19.78-193.9,39.11-259.38,19.78-40-11.83-46.71-46.82-39.83-73.95a368.63,368.63,0,0,1-45.58-5.63S1124,2503.4,1223.46,2573.45Z" transform="translate(-581.54 -389.21)"/><path class="cls-2" d="M1365.87,2606.7a664.6,664.6,0,0,1-146.3-15.94,18,18,0,0,1-6.31-2.8c-36-25.32-54.32-53.73-54.58-84.44-.39-46.53,42.16-78.13,44-79.45a17.82,17.82,0,0,1,13.84-3.09c115,22.37,319.3-19.91,321.35-20.34a17.73,17.73,0,0,1,21,13.79l28.78,140.24a17.73,17.73,0,0,1-11.43,20.27C1571.29,2576.69,1485,2606.7,1365.87,2606.7Zm-135-49.76c145.44,31.89,276,1.31,318.78-10.9l-22-107.25c-51.94,9.77-206.39,35.57-309.46,18.53-8.56,7.95-24.29,25.39-24,46.06C1194.37,2521.26,1206.72,2539.27,1230.87,2556.94Z" transform="translate(-581.54 -389.21)"/><path class="cls-3" d="M2087.88,2491.51s66.88-4,117.42-50,39.94-137.35-21.14-158.29c0,0-96.28,33.76-175.8,41.52C1968.21,2328.71,2087.88,2491.51,2087.88,2491.51Z" transform="translate(-581.54 -389.21)"/><path class="cls-4" d="M2087.9,2491.52s66.85-4,117.39-50c32.59-29.61,39.77-78.11,24.39-114.47-5.19,22.48-17.74,43.72-37.55,58.26-55,40.43-122,37.46-122,37.46s-30.46-52-51.51-99.18c-3.46.45-6.88.85-10.29,1.16C1968.19,2328.72,2087.9,2491.52,2087.9,2491.52Z" transform="translate(-581.54 -389.21)"/><path class="cls-2" d="M2087.88,2509.24a17.75,17.75,0,0,1-14.29-7.23c-1-1.39-25.39-34.61-48.68-71.81-45.2-72.2-45.91-94.52-39.94-107.89,3.87-8.68,11.77-14.21,21.66-15.17,76.41-7.46,170.72-40.27,171.66-40.61a17.8,17.8,0,0,1,11.62,0c31.82,10.91,55.27,39,62.73,75.12,8.68,42-4.89,85.33-35.42,113.07-54.53,49.55-125.29,54.35-128.27,54.53Zm-69.21-167.73c5.9,22.88,41.55,81.31,77.43,131.15,18.87-2.94,62.74-12.85,97.27-44.23,21-19,30.6-50.32,24.54-79.65-4.52-21.91-16.86-38.59-34.22-46.62C2161.55,2309.58,2086.41,2333.55,2018.67,2341.51Z" transform="translate(-581.54 -389.21)"/><path class="cls-3" d="M2690.91,1648.9s88.48-28.75,127.19,29.86,19.37,140-31.73,152c-56.4,13.27-76.3-34-64.41-75.11,0,0-74.18,89.59-137.22,72.44" transform="translate(-581.54 -389.21)"/><path class="cls-2" d="M2688.18,1640.47c46.18-25.66,112.34-19.72,144.45,26.5,45.39,60.06,31.4,179.9-58.56,185.4-57.54,4.6-85.85-51.71-69.15-101.68l30.7,16.25h0c-32.07,41.86-98.12,90.31-153.18,69.67-9.58-4-5.61-18.52,4.65-17.11,37.35,2.49,67.77-25.24,94-48.84,8-7.48,19.3-18.54,27.22-26.35a17.19,17.19,0,0,1,23.48-6.31c8.22,4.64,10.22,14.34,7.21,22.55-4.42,19.35-2.24,41.59,15.09,50.25,16.58,6.58,39.42.72,50.23-14.88,21.9-30.1,17.91-77.09-2.49-107.79-22.87-34.39-70.28-31.13-108.17-30.81-9.73,1.11-14-12.17-5.47-16.86Z" transform="translate(-581.54 -389.21)"/><line class="cls-3" x1="356.31" y1="1640.16" x2="356.31" y2="2791.63"/><path class="cls-2" d="M937.85,3194.14a13.3,13.3,0,0,1-13.3-13.3V2029.37a13.3,13.3,0,1,1,26.6,0V3180.84A13.31,13.31,0,0,1,937.85,3194.14Z" transform="translate(-581.54 -389.21)"/><path class="cls-2" d="M919.78,2043.07c-15.84,0-33.6-3-53.32-10.27a13.3,13.3,0,1,1,9.24-24.94c82.06,30.4,119.68-29.62,121.23-32.19a13.3,13.3,0,0,1,22.84,13.65C1019.37,1990,986.85,2043.07,919.78,2043.07Z" transform="translate(-581.54 -389.21)"/><path class="cls-3" d="M2743.8,1714.51a314.19,314.19,0,0,0-22.26,42.64" transform="translate(-581.54 -389.21)"/><path class="cls-2" d="M2751.22,1719.37a320.09,320.09,0,0,0-13.42,44.84c-8,27.24-46.69,10.88-32.73-13.83a360.34,360.34,0,0,1,22.91-31c5.21-5.85,12.13-17.9,21.06-10.37a9,9,0,0,1,2.18,10.36Z" transform="translate(-581.54 -389.21)"/><path class="cls-3" d="M1510.79,2383.45,1548,2617.39c6.9,43.41,46.74,73.5,88.5,66.87l414.82-65.89c41.8-6.64,70.31-47.58,63.42-91l-37.16-233.94c-6.89-43.36-46.68-73.45-88.49-66.81l-414.82,65.88c-33.36,5.3-58.31,32.52-63.47,65.38A82.75,82.75,0,0,0,1510.79,2383.45Z" transform="translate(-581.54 -389.21)"/><path class="cls-9" d="M1510.79,2383.45,1548,2617.39c6.9,43.41,46.74,73.5,88.5,66.87l414.82-65.89c41.8-6.64,70.31-47.58,63.42-91l-12.51-78.74c-65,52.51-197,136.81-347.41,108.44-73.48-13.88-166.75-86.63-166.75-86.63s11.17,90.1-1.86,90.72c-36.22,1.72-64.75-179.63-75.41-203.28A82.75,82.75,0,0,0,1510.79,2383.45Z" transform="translate(-581.54 -389.21)"/><path class="cls-10" d="M1616.54,2704.28a85.38,85.38,0,0,1-84.15-71.89l-41-258.35a85.36,85.36,0,0,1,70.83-97.58l433.37-68.83a85.46,85.46,0,0,1,97.58,70.83l41,258.35a85.45,85.45,0,0,1-70.83,97.57L1630,2703.21A85.18,85.18,0,0,1,1616.54,2704.28ZM2008.93,2242a50.34,50.34,0,0,0-7.82.61l-433.37,68.84a49.85,49.85,0,0,0-41.36,57l41,258.35a49.88,49.88,0,0,0,57,41.36h0l433.36-68.83a50,50,0,0,0,41.37-57l-41-258.35a50,50,0,0,0-49.17-42Z" transform="translate(-581.54 -389.21)"/><ellipse class="cls-11" cx="1665.8" cy="2478.77" rx="66.33" ry="68.88" transform="translate(-949.79 -97.18) rotate(-9.03)"/><path class="cls-3" d="M1600.28,2489.19a71.08,71.08,0,0,0,3.43,13.3c1.1-32.11,23.86-59.76,55.58-64.8s61.91,14.2,72.87,44.4a70.88,70.88,0,0,0-.86-13.71c-6-37.57-40.12-63.4-76.3-57.65S1594.31,2451.62,1600.28,2489.19Z" transform="translate(-581.54 -389.21)"/><path class="cls-12" d="M1600.29,2489.16c6,37.6,40.15,63.36,76.31,57.62s60.67-40.83,54.7-78.43a71.86,71.86,0,0,0-5.27-17.84c-3.14,29.9-25.18,55-55.22,59.79s-58.78-12.28-71-39.74A71.47,71.47,0,0,0,1600.29,2489.16Z" transform="translate(-581.54 -389.21)"/><path class="cls-10" d="M1666.39,2560.91a78.17,78.17,0,0,1-47.29-16.07,83.08,83.08,0,0,1-31.95-53.58h0c-7.1-44.76,22.4-86.78,65.76-93.66a77.87,77.87,0,0,1,59.58,15.09,84.07,84.07,0,0,1,18.18,114.43,78.1,78.1,0,0,1-64.28,33.79Zm-53-73.83a56.54,56.54,0,0,0,21.7,36.53,51.31,51.31,0,0,0,73.72-11.7,57.47,57.47,0,0,0-12.39-78,51.46,51.46,0,0,0-39.38-10.05c-28.88,4.59-48.46,32.94-43.65,63.21Z" transform="translate(-581.54 -389.21)"/><path class="cls-10" d="M1904.22,2659.43a17.73,17.73,0,0,1-17.49-15l-19-119.73c-5.53-34.82,5.23-70.71,28.77-96l9.23-9.91c16.17-17.36,23.54-42.14,19.71-66.27l-18-113a17.73,17.73,0,0,1,35-5.56l18,113c5.54,34.82-5.22,70.71-28.77,96l-9.23,9.91c-16.16,17.36-23.53,42.14-19.71,66.27l19,119.74a17.73,17.73,0,0,1-17.53,20.51Z" transform="translate(-581.54 -389.21)"/><path class="cls-2" d="M3394.18,3351.2c59.4-60.59,74.46-117.11,56.38-199.65,61,64.59,29.77,176.89-56.38,199.65Z" transform="translate(-581.54 -389.21)"/><path class="cls-2" d="M3052.92,2894.88c-52.18,22.57-96.3,52.59-122.14,103.56-8.66,16.07-15.41,33.77-23,53.4-30.79-87.41,55.54-181.24,145.18-157Z" transform="translate(-581.54 -389.21)"/><path class="cls-2" d="M2927.79,2898.43c-19.62,15.74-36.27,29.78-48.69,50.24-12.67,20.33-17.73,41.51-23.32,66.07-33.5-50.23,12-124.12,72-116.31Z" transform="translate(-581.54 -389.21)"/><path class="cls-2" d="M3021.9,3357.72c50.53,27.74,101.16,46.88,158.5,49.4,18.57,1.09,37.55.48,58.33-.21-65.88,54.28-180.71,28.05-216.83-49.19Z" transform="translate(-581.54 -389.21)"/><path class="cls-13" d="M3036.5,3066.65" transform="translate(-581.54 -389.21)"/><path class="cls-14" d="M3386.43,3151.43a202.3,202.3,0,0,1-14.34,57.24,201.4,201.4,0,0,1-254.25,112.6,202.76,202.76,0,0,1-30-13.63,200.74,200.74,0,0,1-21.78-14c49.48-12.08,106.71-31.71,166-58S3344.28,3180,3386.43,3151.43Z" transform="translate(-581.54 -389.21)"/><path class="cls-15" d="M3118.06,3324.66l-.22-3.38-1.56-3,.63-.32.71-.05c27.25-1.77,79.3-18.2,132.59-41.86,53.59-23.78,99.4-50.53,119.53-69.81l4.7,4.9c-20.67,19.78-67.21,47-121.47,71.12C3198.17,3306.56,3146.48,3322.81,3118.06,3324.66Z" transform="translate(-581.54 -389.21)"/><path class="cls-15" d="M3232.06,3235.59c59.26-26.3,112.22-55.57,154.37-84.16a203,203,0,0,1-3.93,24.34c-32.45,23.23-84.23,51.82-144.48,78.56-57.71,25.61-111.47,44.33-150.16,53.31a200.74,200.74,0,0,1-21.78-14C3115.56,3281.53,3172.79,3261.9,3232.06,3235.59Z" transform="translate(-581.54 -389.21)"/><g class="cls-16"><path class="cls-17" d="M3391.1,3123.92a198.71,198.71,0,0,1-3.93,24.34,201.52,201.52,0,0,1-316.41,117.84c49.48-12.07,106.71-31.71,166-58S3349,3152.51,3391.1,3123.92Z" transform="translate(-581.54 -389.21)"/></g><g class="cls-16"><path class="cls-2" d="M3383.33,3046.94c-1.44,1.16-2.92,2.31-4.48,3.49,1.4-1.48,2.8-3,4.14-4.54C3383.11,3046.24,3383.22,3046.58,3383.33,3046.94Z" transform="translate(-581.54 -389.21)"/><path class="cls-17" d="M3379.91,3051.84l-2.34-2.62c1.39-1.46,2.77-3,4.1-4.49l2-2.34,1.65,5.18-.93.75C3383,3049.48,3381.48,3050.64,3379.91,3051.84Z" transform="translate(-581.54 -389.21)"/></g><path class="cls-14" d="M3370.05,3050.06a201.81,201.81,0,0,1,8.75,23.55c-32.94,26.26-97.91,62.89-175.45,97.3s-148.29,58-189.86,64.83a203,203,0,0,1-11.59-22.28c-.16-.37-.32-.72-.47-1.09q-2.26-5.14-4.19-10.34a200.86,200.86,0,0,1-7.43-24.52c-.08-.33-.16-.67-.23-1a199.3,199.3,0,0,1-4.89-36.83,201.4,201.4,0,0,1,365-125.19c.6.82,1.18,1.65,1.76,2.49a201.42,201.42,0,0,1,13.2,22q2.22,4.28,4.24,8.7C3369.32,3048.44,3369.68,3049.25,3370.05,3050.06Z" transform="translate(-581.54 -389.21)"/><path class="cls-15" d="M3368.94,3047.64c.38.8.74,1.61,1.11,2.42a201.81,201.81,0,0,1,8.75,23.55c-32.94,26.26-97.91,62.89-175.45,97.3s-148.29,58-189.86,64.83a203,203,0,0,1-11.59-22.28c-.16-.37-.32-.72-.47-1.09,39.4-4.08,111.42-26.89,190.46-62C3274.05,3113.93,3341.3,3074.2,3368.94,3047.64Z" transform="translate(-581.54 -389.21)"/><path class="cls-15" d="M2984.29,3146.45l.79-13.55c27.44,1.62,99.39-20.69,175-54.23,90.18-40,148.5-78.6,159.52-96l11.47,7.26c-14.57,23-81.07,63.7-165.48,101.16C3087,3126,3014.13,3148.21,2984.29,3146.45Z" transform="translate(-581.54 -389.21)"/><path class="cls-15" d="M2994.82,3078l-1.9-13.44c30.9-4.37,84.55-22.37,140-47,58.12-25.8,108.45-54.35,131.34-74.51l9,10.19c-23.85,21-75.5,50.41-134.8,76.72C3081.91,3055.09,3026.88,3073.49,2994.82,3078Z" transform="translate(-581.54 -389.21)"/><path class="cls-15" d="M2989.5,3183.3l.16-13.58c31.5.37,105.84-23,185-58.12,83-36.85,152.79-78.45,169.62-101.16l10.91,8.09c-18.38,24.78-88.71,67.17-175,105.48C3098.13,3160.43,3023.28,3183.7,2989.5,3183.3Z" transform="translate(-581.54 -389.21)"/><path class="cls-17" d="M3186.1,3344.12a213,213,0,0,1-126.58-41.63,11,11,0,0,1,3.94-19.6c50.63-12.36,107.38-32.21,164.12-57.39s109.52-53.95,152.65-83.21a11,11,0,0,1,17.18,10.23,212.3,212.3,0,0,1-211.31,191.6Zm-93-46.18a190.38,190.38,0,0,0,278.36-123.55c-39.81,25.15-86,49.56-134.95,71.29S3138.49,3285.28,3093.13,3297.94Z" transform="translate(-581.54 -389.21)"/><path class="cls-18" d="M3486.06,3029.79c12,27-28.44,73.35-99.63,121.64-42.15,28.59-95.11,57.86-154.37,84.16s-116.5,45.94-166,58c-83.57,20.4-145.07,19.24-157-7.72-10.87-24.49,21.45-65,80.77-108.38a200.86,200.86,0,0,0,7.43,24.52c-16.41,13.23-24.51,23.76-21.77,29.95s16.5,7.28,38,3.76c41.57-6.81,112.33-30.41,189.86-64.83s142.51-71,175.45-97.3c17-13.6,25.5-24.41,22.71-30.72s-16-7.24-36.81-3.95a201.42,201.42,0,0,0-13.2-22C3423.48,3002.1,3475.19,3005.3,3486.06,3029.79Z" transform="translate(-581.54 -389.21)"/><path class="cls-19" d="M2971.94,3257.7c-9.76-1.65-16.8-5.41-19.73-12-5.9-13.28,6.73-31.86,38.59-56.77l6.77,8.65c-29.94,23.41-37.88,37.91-35.32,43.66,4.29,9.68,41.72,10.4,113.77-10.83,40.28-11.88,85.87-28.95,131.83-49.35s89.19-42.75,125-64.66c64.08-39.18,88.65-67.43,84.36-77.09-2.56-5.77-18.63-9.61-56.07-3.1l-1.88-10.83c39.86-6.92,62.09-3.82,68,9.47,10.59,23.86-42.38,62.62-88.67,90.92-36.24,22.15-79.92,44.74-126.31,65.33s-92.44,37.83-133.18,49.84C3041.48,3252,2997.44,3262,2971.94,3257.7Z" transform="translate(-581.54 -389.21)"/><path class="cls-19" d="M2954.76,3284.43c-13.75-2.34-24.14-7.65-28.44-17.33-11.1-25,27.63-60.95,62.07-86.69l6.58,8.8c-50.49,37.73-63.38,62.68-58.61,73.43,5.9,13.28,44.25,20.36,133-3.36,45.87-12.26,97.5-30.89,149.31-53.89s100.27-48.78,140.13-74.58c77.12-49.89,97.6-83.09,91.71-96.36-4.78-10.75-31.91-17.93-93.78-5.8l-2.11-10.78c42.2-8.27,94.83-12.89,105.93,12.13,14.43,32.49-53.82,82.89-95.78,110-40.34,26.1-89.32,52.17-141.64,75.39s-104.52,42.06-150.93,54.46C3038.28,3279,2987.19,3289.93,2954.76,3284.43Z" transform="translate(-581.54 -389.21)"/><g class="cls-16"><path class="cls-17" d="M3093.66,3274c48.47-11.83,104.37-30.9,162.34-56.41-53,7-89.76,1.26-98.73-19a24.23,24.23,0,0,1-1.92-7.49c-58.1,23.33-109.07,39.18-141.86,44.55-21.52,3.52-35.22,2.55-38-3.76s5.36-16.72,21.77-29.95a199.62,199.62,0,0,1-7-22.83c-41.66,35.11-62.68,66.68-53.62,87.12C2948.59,3293.28,3010.09,3294.43,3093.66,3274Z" transform="translate(-581.54 -389.21)"/></g><path class="cls-17" d="M2968.58,3318.71c-32.36,0-60.15-7-69.63-28.34-16.62-37.48,36.69-86.91,84.34-121.77a11,11,0,0,1,17.27,6.39,190.65,190.65,0,0,0,7,23.18,11,11,0,0,1-3.41,12.46c-9.65,7.78-14.21,12.89-16.35,15.88,3.78.41,10.93.45,23.88-1.66,42-6.87,113.68-31.41,187.17-64s139.8-69.34,173.05-95.85c10.26-8.18,15-13.52,17.24-16.6-3.66-.42-10.5-.46-22.73,1.48a11,11,0,0,1-11.53-5.83,194.26,194.26,0,0,0-12.48-20.77,11,11,0,0,1,6.85-17.08c57.82-12,130.25-18.33,146.87,19.14,19.31,43.48-56.57,103.41-103.51,135.25-44.2,30-98.18,59.42-156.09,85.12s-116,46-167.84,58.65C3040.64,3311.19,3002.15,3318.71,2968.58,3318.71Zm14.92-122.63c-55.82,43.36-69.91,72.83-64.37,85.33,7.32,16.48,54.79,23.33,144.33,1.48,50.63-12.36,107.38-32.21,164.12-57.39s109.52-53.95,152.65-83.21c76.28-51.75,103.05-91.54,95.73-108h0c-5.55-12.51-36.85-21.82-106.46-9.51q.63,1.08,1.26,2.19c17.14-2.06,35.08-1.51,40.84,11.46,6.72,15.15-10.32,31.38-25.91,43.83-35.15,28-101.64,64.93-177.86,98.76s-148.21,58.38-192.56,65.64c-19.69,3.22-43.16,5-49.89-10.18-5.75-13,5.87-26.64,18.9-38C2984,3197.68,2983.76,3196.88,2983.5,3196.08Z" transform="translate(-581.54 -389.21)"/><g class="cls-16"><path class="cls-17" d="M3404.09,3055.66c-32.94,26.26-97.91,62.9-175.45,97.31s-148.29,58-189.87,64.84a208.56,208.56,0,0,1-11.59-22.29l-.47-1.09q-2.25-5.14-4.18-10.33a202.3,202.3,0,0,1-7.44-24.53c-.07-.33-.15-.67-.22-1a201.55,201.55,0,0,1,85-212.54,202.14,202.14,0,0,0-33.19,118.86,199.08,199.08,0,0,0,4.89,36.82c.08.35.15.68.23,1s.25,1,.43,1.63c9.88,34.71,47,49.62,82.95,46.77,68.58-5.44,217.85-83.95,249.61-102.1C3406.9,3054.36,3402.44,3050.25,3404.09,3055.66Z" transform="translate(-581.54 -389.21)"/></g><g class="cls-20"><path class="cls-3" d="M3373.29,3077.58q-5.76,4.59-12.77,9.57-2.76-8-6.24-15.82c-.37-.81-.73-1.61-1.1-2.41q-2-4.44-4.25-8.7a200.55,200.55,0,0,0-13.19-22c-.58-.84-1.17-1.66-1.76-2.49a201.46,201.46,0,0,0-331.61,5.93,201.37,201.37,0,0,1,341.86-23.23c.6.83,1.18,1.66,1.76,2.5a199.78,199.78,0,0,1,13.19,22q2.24,4.27,4.25,8.7c.38.8.75,1.6,1.1,2.43A203.42,203.42,0,0,1,3373.29,3077.58Z" transform="translate(-581.54 -389.21)"/></g><path class="cls-17" d="M3013.48,3246.78a11,11,0,0,1-9.45-5.35,215,215,0,0,1-12.22-23.49c-1.74-3.93-3.4-8-4.91-12a212,212,0,0,1-7.84-25.87c-23.23-99.12,27.55-201.08,120.74-242.43s202.86-10.62,260.78,73.1a211.53,211.53,0,0,1,13.92,23.17c2,3.78,3.86,7.72,5.64,11.7h0a215.26,215.26,0,0,1,9.23,24.83,11,11,0,0,1-3.69,11.83c-35.14,28-101.63,64.93-177.85,98.76s-148.21,58.38-192.56,65.64A12,12,0,0,1,3013.48,3246.78Zm172.43-305.38a190,190,0,0,0-77.16,16.38c-83.5,37.06-129,128.41-108.19,217.21a190.65,190.65,0,0,0,7,23.18c1.36,3.65,2.85,7.29,4.41,10.81,2.19,4.93,4.6,9.8,7.19,14.52,42.68-8.35,110.4-31.92,179.69-62.68s132.2-65.16,167-91.21c-1.76-5.08-3.75-10.13-5.94-15.07-1.6-3.59-3.3-7.12-5.06-10.51a193.42,193.42,0,0,0-12.48-20.78A190.22,190.22,0,0,0,3185.91,2941.4Z" transform="translate(-581.54 -389.21)"/><path class="cls-2" d="M1133.74,3403.57c59.71-45.41,97.74-111.21,90-187.5-2.17-24.14-8.39-48.09-16.78-71.86a180.35,180.35,0,0,1,29.46,70.09c16.15,78-29.67,159.31-102.71,189.27Z" transform="translate(-581.54 -389.21)"/><path class="cls-2" d="M790.55,2945.13c-57.3,9.9-108.92,40.84-134.29,94.22-8.4,17-14.21,35.56-18.81,55-9.87-87.11,66.1-161.8,153.1-149.26Z" transform="translate(-581.54 -389.21)"/><path class="cls-2" d="M665.41,2942.22c-32.87,16-60.1,40.5-70.53,76-3.66,11.34-5.65,23.44-7.41,36.39-22.16-52.49,20.88-115,77.94-112.42Z" transform="translate(-581.54 -389.21)"/><path class="cls-2" d="M739.14,3413.88c62.8,49.43,139,66.55,216.91,48.9-70.16,42.07-171.53,19.1-216.91-48.9Z" transform="translate(-581.54 -389.21)"/><path class="cls-21" d="M1136.77,3249.27C1098.42,3363,975.18,3424,861.49,3385.68a216.7,216.7,0,0,1-74.34-42.91c-61.36-54.21-88.93-140.72-64.81-223.5.84-3,1.77-5.91,2.77-8.85a217.34,217.34,0,0,1,63.81-95c1.42-1.23,2.87-2.44,4.33-3.64a217.47,217.47,0,0,1,269.66-4.58C1134.82,3062.18,1167.32,3158.75,1136.77,3249.27Z" transform="translate(-581.54 -389.21)"/><path class="cls-22" d="M767,3323.67q7.21,7.76,15.2,14.84a212.86,212.86,0,0,0,20.22,15.81,216.69,216.69,0,0,0,54.12,27.1c113.69,38.35,236.92-22.72,275.28-136.41a217.08,217.08,0,0,0-43.23-213.5c-4.58-5-9.39-9.79-14.45-14.35a217,217,0,0,1,31.55,199.13C1067.33,3330,944.1,3391.05,830.41,3352.71a217.05,217.05,0,0,1-54.12-27.11,212.86,212.86,0,0,1-20.22-15.81l-1.55-1.38a217,217,0,0,0,16.69,19.83C769.78,3326.74,768.38,3325.21,767,3323.67Z" transform="translate(-581.54 -389.21)"/><g class="cls-23"><path class="cls-3" d="M1002.86,2966.9a217.06,217.06,0,0,0-203.76,38.87c-1.46,1.19-2.91,2.4-4.33,3.64a217.17,217.17,0,0,0-63.81,95c-1,2.94-1.93,5.88-2.77,8.85-24.12,82.77,3.45,169.29,64.81,223.49a216,216,0,0,0,20.23,15.82c1.6,1.11,3.24,2.18,4.88,3.25-70.05-56.54-101.15-152.75-70.69-243.05A221.85,221.85,0,0,1,757.48,3088a14,14,0,0,0,1.45,1.08c10.77,7.16,28.51-.6,39.62-17.33s11.4-36.09.62-43.24l0,0A221.54,221.54,0,0,1,1002.86,2966.9Z" transform="translate(-581.54 -389.21)"/></g><path class="cls-17" d="M931.39,3407.44A228.56,228.56,0,0,1,715,3105.82c40.29-119.41,170.23-183.77,289.62-143.52a228.55,228.55,0,0,1,143.5,289.61C1116,3347.19,1026.79,3407.43,931.39,3407.44Zm.38-434.5c-86,0-166.32,54.27-195.28,140.12A205.88,205.88,0,0,0,865.76,3374c107.59,36.3,224.64-21.72,260.93-129.3a205.88,205.88,0,0,0-129.27-260.92h0A205.22,205.22,0,0,0,931.77,2972.94Z" transform="translate(-581.54 -389.21)"/><ellipse class="cls-22" cx="804.4" cy="3114.43" rx="48.21" ry="30.2" transform="translate(-2681.44 1342.54) rotate(-50.06)"/><ellipse class="cls-21" cx="811.43" cy="3120.94" rx="42.16" ry="18.96" transform="translate(-2683.93 1350.29) rotate(-50.06)"/><path class="cls-17" d="M819.14,3070c23.44-3.47,32.14,21.5,26.42,40.21-7.46,26.2-30,51.67-59.16,51.6-36.89-4.33-25.67-50.22-6.2-68.18a1.69,1.69,0,0,1,2.63,2.08c-4.53,7-8.53,14.41-10.47,22.29-4.21,13.25-2.1,32.95,14.59,33.18,22.86-.95,41.94-23,49-43.65,5.27-14.43,1.41-33.31-16.62-33.36-2.51,0-2.67-3.87-.24-4.17Z" transform="translate(-581.54 -389.21)"/><path class="cls-17" d="M844.55,3142.34c-7.22,31.08-59.09,51.91-79.79,22.88a1.72,1.72,0,0,1,2.6-2.14c24.07,15.61,57.77-1.79,73.39-22.45a2.13,2.13,0,0,1,3.8,1.71Z" transform="translate(-581.54 -389.21)"/><ellipse class="cls-22" cx="834.42" cy="3291.09" rx="30.26" ry="48.31" transform="translate(-2652.27 1144.72) rotate(-44.61)"/><ellipse class="cls-21" cx="841.48" cy="3284.67" rx="18.96" ry="42.16" transform="translate(-2645.73 1147.82) rotate(-44.61)"/><path class="cls-17" d="M791.54,3272.16c-1.23-23.66,24.45-29.95,42.54-22.49,25.37,9.91,48.59,34.77,45.74,63.81-7.82,36.29-52.44,20.77-68.47-.32a1.69,1.69,0,0,1,2.37-2.38c11.93,9.64,28.47,18.33,43.6,14.92,25-8.71,6.39-41.89-7.29-53.68-13.61-14.45-49.72-28.71-54.32.3-.25,2.49-4.1,2.28-4.17-.16Z" transform="translate(-581.54 -389.21)"/><path class="cls-17" d="M865.93,3253.73c30.26,10.14,46.05,63.76,15.18,81.6a1.72,1.72,0,0,1-1.88-2.79c17.83-22.47,3.71-57.68-15.37-75.19a2.13,2.13,0,0,1,2.07-3.62Z" transform="translate(-581.54 -389.21)"/><ellipse class="cls-22" cx="943.16" cy="3159.85" rx="40.69" ry="34.7" transform="translate(-2692.6 1527.27) rotate(-51.23)"/><ellipse class="cls-21" cx="947.51" cy="3173.94" rx="30.57" ry="24.66" transform="translate(-2215.91 709.74) rotate(-34.59)"/><path class="cls-17" d="M970.5,3180.39c13.37-19.66,8.79-50.77-16.24-54.76-22.74-3.43-44.48,17.8-45.27,40.25-1.13,15.89,10.24,30.62,26.55,32.46a1.69,1.69,0,0,1-.16,3.36c-19.26,1.47-36.14-16.79-35.67-35.86-.52-19.23,11.07-37.5,28.06-46.4,44.21-22.18,77.61,28.41,46,63.49-1.65,1.9-4.7-.47-3.31-2.54Z" transform="translate(-581.54 -389.21)"/><path class="cls-17" d="M896.53,3187.36c26.1,50.59,94.52,18,99.69-29.73,2.22-15.6-2.46-31.93-14.41-42.8a1.69,1.69,0,0,1,2-2.69c32.69,21,25.26,71-1.91,93.71-27.16,26.07-78.15,23.35-89.32-17.07a2.1,2.1,0,0,1,3.93-1.42Z" transform="translate(-581.54 -389.21)"/><ellipse class="cls-22" cx="916.51" cy="3017.43" rx="21.59" ry="18.42" transform="translate(-2264.86 843.36) rotate(-38.63)"/><ellipse class="cls-21" cx="917.13" cy="3025.23" rx="16.22" ry="13.09" transform="translate(-1647.73 174.4) rotate(-21.99)"/><path class="cls-17" d="M928.11,3031c6-6.17,8.47-15.32,5.45-22.12-7.41-15.57-31.51-6.95-34.83,7.84a15.78,15.78,0,0,0,9.43,19.53,1.13,1.13,0,0,1-.59,2.16c-25.25-5.86-16.07-39.66,5.45-44.44,26-6.72,38.2,24.68,16.87,39.17a1.4,1.4,0,0,1-1.78-2.14Z" transform="translate(-581.54 -389.21)"/><path class="cls-17" d="M889.45,3026.24c7.55,28.14,46.43,19.23,54.19-4,2.91-7.46,2.72-16.33-2.08-23.49a1.13,1.13,0,0,1,1.71-1.45c15.05,14.68,5.35,40.36-11.64,49.13-16.89,10.72-44.65,2.58-44.94-19.82a1.4,1.4,0,0,1,2.76-.35Z" transform="translate(-581.54 -389.21)"/><path class="cls-17" d="M989.61,3026.28c-12.66,32.23,22.3,60.47,52.81,55.3a48.63,48.63,0,0,0,28-13.42,1.39,1.39,0,0,1,2.16,1.71c-20.61,31.87-75.67,24.76-89.24-10.38-4.74-11.4-3.49-25.06,3.19-34.81a1.73,1.73,0,0,1,3,1.6Z" transform="translate(-581.54 -389.21)"/><ellipse class="cls-22" cx="1031.66" cy="3044.29" rx="27.91" ry="33.67" transform="translate(-2718.5 2114.79) rotate(-61.6)"/><path class="cls-21" d="M1054.78,3061.38c-6.08,7.85-17.65,11.55-29.77,8.55-16.13-4-27.13-18.38-24.57-32.12a20.67,20.67,0,0,1,1.81-5.45c6.86-3.86,15.8-5.1,25-2.81C1043.69,3033.61,1055.27,3047.39,1054.78,3061.38Z" transform="translate(-581.54 -389.21)"/><path class="cls-17" d="M1038.26,3018.31c-17.09-2.15-35.64,10.49-31.33,28,4.31,16.17,25,23.34,39.83,16.74,10.65-4.4,17.11-16.07,13.69-27.54a1.4,1.4,0,0,1,2.58-1c13.7,31.84-29.74,51-53.06,31.89-28.56-22.54-3.83-61.49,29-51.45a1.73,1.73,0,0,1-.7,3.36Z" transform="translate(-581.54 -389.21)"/><path class="cls-21" d="M1082.12,3181.4c11.18-2.9,22.36-2.46,32.41,1.95,18.2,8,27.47,26.69,28.43,49.71.63,15.1-2.76,31.84-10.58,48.11-19.72,41.08-60.14,63.65-90.28,50.41-11.22-4.93-19.43-14.12-24.31-25.83-8.23-19.77-5.93-46.2,6.45-72" transform="translate(-581.54 -389.21)"/><path class="cls-17" d="M1115.37,3181.44c19.35,6.42,30.24,27.33,32.14,46.63,5.24,48-28,102.12-77.42,110-9.81,1.08-20.1-.27-28.67-5a1.69,1.69,0,0,1-.67-2.29,1.7,1.7,0,0,1,2-.79,47.62,47.62,0,0,0,26.14,1.06c43-11.45,70.78-59.15,68.88-102.13-1-17.42-7.93-35.19-24.1-43.71-2.23-1.11-.64-4.7,1.68-3.82Z" transform="translate(-581.54 -389.21)"/><ellipse class="cls-22" cx="1078.05" cy="3257.2" rx="62.67" ry="45.54" transform="translate(-2824.08 2004.72) rotate(-57.11)"/><ellipse class="cls-21" cx="1084.39" cy="3268.62" rx="53.13" ry="33.5" transform="translate(-2749.53 1747.26) rotate(-52.45)"/><path class="cls-17" d="M1075.82,3317.31c-27.26,9.67-51.17-12.6-52.42-39.65-2.75-37,22.39-77.86,60.5-84.66,47.78-5.41,56.94,50.49,37,83.18a1.69,1.69,0,0,1-3-1.46c12.6-27.41,7-77-32.31-71.2-31.74,6.64-53.17,42.18-52.21,73.44.09,22.9,18,41.56,41.46,36.32,2.5-.56,3.46,3.31,1,4Z" transform="translate(-581.54 -389.21)"/></svg>