<svg id="Layer_1" data-name="Layer 1" xmlns="http://www.w3.org/2000/svg" xmlns:xlink="http://www.w3.org/1999/xlink" viewBox="0 0 2619.84 3211.18"><defs><style>.cls-1{fill:none;}.cls-2{fill:#fff;}.cls-3{opacity:0.35;}.cls-4{fill:#371a45;}.cls-5{fill:#22a7f0;}.cls-6{opacity:0.4;}.cls-7{fill:#111a28;}.cls-8{opacity:0.7;}.cls-9{clip-path:url(#clip-path);}.cls-10{fill:#ec1c24;}.cls-11{fill:#ec1d24;}.cls-12{fill:#ec1e24;}.cls-13{fill:#ec1f24;}.cls-14{fill:#ec2024;}.cls-15{fill:#ed2124;}.cls-16{fill:#ed2224;}.cls-17{fill:#ed2324;}.cls-18{fill:#ed2424;}.cls-19{fill:#ed2524;}.cls-20{fill:#ed2624;}.cls-21{fill:#ed2724;}.cls-22{fill:#ed2824;}.cls-23{fill:#ed2924;}.cls-24{fill:#ed2a24;}.cls-25{fill:#ee2a24;}.cls-26{fill:#ee2b24;}.cls-27{fill:#ee2c24;}.cls-28{fill:#ee2d24;}.cls-29{fill:#ee2e24;}.cls-30{fill:#ee2f24;}.cls-31{fill:#ee3024;}.cls-32{fill:#ee3124;}.cls-33{fill:#ee3224;}.cls-34{fill:#ee3225;}.cls-35{fill:#ef3325;}.cls-36{fill:#ef3425;}.cls-37{fill:#ef3525;}.cls-38{fill:#ef3625;}.cls-39{fill:#ef3725;}.cls-40{fill:#ef3825;}.cls-41{fill:#ef3925;}.cls-42{fill:#ef3a25;}.cls-43{fill:#ef3b25;}.cls-44{fill:#ef3c25;}.cls-45{fill:#f03d25;}.cls-46{fill:#f03e25;}.cls-47{fill:#f03f25;}.cls-48{fill:#f04025;}.cls-49{fill:#f04125;}.cls-50{fill:#f04225;}.cls-51{fill:#f04325;}.cls-52{fill:#f04425;}.cls-53{fill:#f04525;}.cls-54{fill:#f14625;}.cls-55{fill:#f14725;}.cls-56{fill:#f14825;}.cls-57{fill:#f14925;}.cls-58{fill:#f14a25;}.cls-59{fill:#f14b25;}.cls-60{fill:#f14c25;}.cls-61{fill:#f14d25;}.cls-62{fill:#f14e25;}.cls-63{fill:#f24f25;}.cls-64{fill:#f25025;}.cls-65{fill:#f25125;}.cls-66{fill:#f25225;}.cls-67{fill:#f25325;}.cls-68{fill:#f25425;}.cls-69{fill:#f25525;}.cls-70{fill:#f25625;}.cls-71{fill:#f25725;}.cls-72{fill:#f35825;}.cls-73{fill:#f35925;}.cls-74{fill:#f35a25;}.cls-75{fill:#f35c25;}.cls-76{fill:#f35d25;}.cls-77{fill:#f35e26;}.cls-78{fill:#f35f26;}.cls-79{fill:#f36026;}.cls-80{fill:#f46126;}.cls-81{fill:#f46226;}.cls-82{fill:#f46426;}.cls-83{fill:#f46526;}.cls-84{fill:#f46626;}.cls-85{fill:#f46726;}.cls-86{fill:#f46826;}.cls-87{fill:#f46a26;}.cls-88{fill:#f56b26;}.cls-89{fill:#f56c26;}.cls-90{fill:#f56d26;}.cls-91{fill:#f56f26;}.cls-92{fill:#f57026;}.cls-93{fill:#f57126;}.cls-94{fill:#f57226;}.cls-95{fill:#f67426;}.cls-96{fill:#f67526;}.cls-97{fill:#f67626;}.cls-98{fill:#f67726;}.cls-99{fill:#f67926;}.cls-100{fill:#f67a26;}.cls-101{fill:#f67b26;}.cls-102{fill:#f77d26;}.cls-103{fill:#f77e26;}.cls-104{fill:#f77f26;}.cls-105{fill:#f78126;}.cls-106{fill:#f78226;}.cls-107{fill:#f78426;}.cls-108{fill:#f78526;}.cls-109{fill:#f88626;}.cls-110{fill:#f88826;}.cls-111{fill:#f88927;}.cls-112{fill:#f88a27;}.cls-113{fill:#f88c27;}.cls-114{fill:#f88d27;}.cls-115{fill:#f98f27;}.cls-116{fill:#f99027;}.cls-117{fill:#f99227;}.cls-118{fill:#f99327;}.cls-119{fill:#f99427;}.cls-120{fill:#f99627;}.cls-121{fill:#f99727;}.cls-122{fill:#fa9927;}.cls-123{fill:#fa9a27;}.cls-124{fill:#fa9c27;}.cls-125{fill:#fa9d27;}.cls-126{fill:#fa9f27;}.cls-127{fill:#faa027;}.cls-128{fill:#fba227;}.cls-129{fill:#fba327;}.cls-130{fill:#fba527;}.cls-131{fill:#fba627;}.cls-132{fill:#fba827;}.cls-133{fill:#fbaa27;}.cls-134{fill:#fcab27;}.cls-135{fill:#fcad27;}.cls-136{fill:#fcae27;}.cls-137{fill:#fcb027;}.cls-138{fill:#fcb127;}.cls-139{fill:#fcb327;}.cls-140{fill:#fdb528;}.cls-141{fill:#fdb628;}.cls-142{fill:#fdb828;}.cls-143{fill:#fdb928;}.cls-144{fill:#fdbb28;}.cls-145{fill:#febd28;}.cls-146{fill:#febe28;}.cls-147{fill:#fec028;}.cls-148{fill:#fec228;}.cls-149{fill:#fec328;}.cls-150{fill:#fec528;}.cls-151{fill:#ffc728;}.cls-152{fill:#ffc828;}.cls-153{fill:#ffca28;}.cls-154{fill:#390075;}.cls-155{opacity:0.6;}.cls-156{fill:#ffd553;}.cls-157{fill:#00abfc;}.cls-158{fill:#ed1b24;}.cls-159{opacity:0.3;}.cls-160{fill:#293856;}.cls-161{fill:#6b184e;}.cls-162{fill:#00cde2;}</style><clipPath id="clip-path" transform="translate(-715.99 -435.14)"><path class="cls-1" d="M3084.5,2810c-42.29-298.93-257.93-361.83-284.75-551.39s170.3-257.49,170.3-257.49,208.24,10.57,235.06,200.13S3042.21,2511.07,3084.5,2810Z"/></clipPath></defs><title>Astronaut1</title><path class="cls-2" d="M1191,3078.55c-151.93,19-419.43,32.27-449.79-117a498.72,498.72,0,0,1-8.3-63.56c-10.74-150,28.19-352.34,85.51-404.19,32.73-29.59,95.7-41,165.58-37.73,138.87,6.55,305.15,71.16,316,166.86C1310.61,2715.08,1343,3059.59,1191,3078.55Z" transform="translate(-715.99 -435.14)"/><g class="cls-3"><path class="cls-4" d="M1191,3078.55c-151.93,19-419.43,32.27-449.79-117a498.72,498.72,0,0,1-8.3-63.56c45.14,29.2,101.06-5.66,104.39-46.77,20.59-253.77,104.74-358.2,146.7-395.15,138.87,6.55,305.15,71.16,316,166.86C1310.61,2715.08,1343,3059.59,1191,3078.55Z" transform="translate(-715.99 -435.14)"/></g><path class="cls-4" d="M1024.43,3105.32c-144.94,0-276.09-31.67-298.24-140.65-29.31-144.16,6.53-414,81.95-482.21,66.79-60.4,234.89-49.94,352.33-5.61,93.25,35.2,148.25,86.47,154.86,144.38,19.24,168.38,28.91,453.67-122.42,472.56C1138.35,3100.6,1080.36,3105.32,1024.43,3105.32ZM961.78,2470.7c-58.27,0-107.58,11.5-133,34.54h0c-61.08,55.23-101.71,309.42-72.46,453.31,27.39,134.74,282.92,123.47,432.83,104.77,133.39-16.65,107-339.93,95.71-438.61-5.17-45.23-54.44-88.65-135.19-119.13C1088,2482.33,1020.37,2470.7,961.78,2470.7Zm-143.34,23.15h0Z" transform="translate(-715.99 -435.14)"/><path class="cls-2" d="M849.42,2748.52,773.25,2730c-17.21-4.2-34.76,5.76-37.33,21.26-8.87,53.34-19.09,163.13,43.17,179.47,75.46,19.82,91.93-55.6,92.11-157.08C871.22,2761.91,862.27,2751.65,849.42,2748.52Z" transform="translate(-715.99 -435.14)"/><g class="cls-3"><path class="cls-4" d="M871.18,2773.59c-.17,101.48-16.64,176.92-92.09,157.09-31-8.11-44-39.42-48.17-75.37,7.27,9.72,16.86,16.88,29.48,20.18,67.55,17.72,87.86-40.89,91.42-126.23C863.4,2752.94,871.24,2762.66,871.18,2773.59Z" transform="translate(-715.99 -435.14)"/></g><path class="cls-4" d="M801.59,2946.35a101.09,101.09,0,0,1-25.67-3.58c-70.48-18.5-63-129.24-52.33-193.61a37.75,37.75,0,0,1,16.92-25.36,45.45,45.45,0,0,1,35.71-6l76.16,18.58h0c18.47,4.5,31.35,19.81,31.32,37.24-.15,88.12-13.18,137.4-42.24,159.77C830.25,2942,816.9,2946.35,801.59,2946.35Zm-36.31-204.86a20.07,20.07,0,0,0-11,3.18c-1.93,1.27-5.28,4.08-6,8.59-5.85,35.16-20.68,151,34,165.33,18.76,4.93,33.15,3.29,43.94-5,28.94-22.28,32.4-90.57,32.49-140,0-5.85-5-11.16-12.24-12.92h0l-76.17-18.57A21.32,21.32,0,0,0,765.28,2741.49Z" transform="translate(-715.99 -435.14)"/><path class="cls-2" d="M1383.88,2464.84c100.52-5.69,283.48,117.44,309.65,107.54s20.88-116.6,84.15-152.6c84.44-48.06,123.79,39.46,131.45,142.34,10.39,139.44-76.76,245.59-162,250-141.61,7.28-256.88-97.35-311.64-106.57" transform="translate(-715.99 -435.14)"/><g class="cls-3"><path class="cls-4" d="M1747.12,2812.11c-141.57,7.25-256.86-97.36-311.64-106.61l-51.59-240.66c18.85-1.07,40.58,2.38,63.65,8.64l25.1,31.56c54.75,9.21,137,248.22,278.67,240.92,69.37-3.57,140-74.55,158.31-176C1916.26,2705.5,1830.77,2807.81,1747.12,2812.11Z" transform="translate(-715.99 -435.14)"/></g><path class="cls-4" d="M1732.9,2827.81c-92.71,0-172.62-43.58-231.79-75.85-28.21-15.39-52.59-28.68-68.16-31.3a15.35,15.35,0,1,1,5.1-30.28c20.65,3.47,45.86,17.22,77.77,34.62,59.12,32.24,140,76.41,230.53,71.76,31.75-1.63,64.08-19.36,91-49.93,41.1-46.61,61.67-113.52,56.45-183.57-5.28-70.92-25-122.12-52.89-137-15.18-8.08-33.39-5.86-55.66,6.82-32.54,18.52-44.61,61.47-54.31,96-8,28.45-14.3,50.92-32,57.62-15.8,6-40.79-5.52-100.79-34.45-66-31.8-156.36-75.37-213.43-72.11a15.36,15.36,0,0,1-1.74-30.67c65.08-3.6,159.54,41.86,228.51,75.12,29.29,14.12,65.39,31.52,76.78,32.88,4.2-5,9.3-23.2,13.1-36.7,10.62-37.82,25.17-89.61,68.68-114.37,31.72-18.06,60.41-20.49,85.3-7.23,51.66,27.52,65.45,113.17,69.07,161.77,5.83,78.24-17.52,153.38-64,206.16-32.46,36.82-72.41,58.23-112.48,60.29C1742.89,2827.69,1737.87,2827.81,1732.9,2827.81Zm-45.43-269.47Z" transform="translate(-715.99 -435.14)"/><path class="cls-2" d="M1589.49,3462.8a51.81,51.81,0,0,1-.47,9.69,55.89,55.89,0,0,1-1.67,7.5c-23.26,77.28-198.83,87.86-278.25,19-1.31-1.12-2.57-2.28-3.83-3.4s-2.42-2.33-3.58-3.5a126.63,126.63,0,0,1-31.7-51.17c-.37-1-.7-2.05-1-3.08-.74-2.33-1.44-4.75-2-7.18a189.75,189.75,0,0,1-4.33-21.48c-.14-.89-.28-1.82-.37-2.75-5.13-37.61-2.61-83.29-.8-140.62,3-92.79,4.29-216.07-31.08-384.79l322.66,170s3.59,14,7.46,36.73c11.46,67,25.26,209.41-43.81,290.13,0,0,69,35.52,72.71,83.25C1589.44,3461.72,1589.49,3462.24,1589.49,3462.8Z" transform="translate(-715.99 -435.14)"/><g class="cls-3"><path class="cls-4" d="M1589,3472.49a55.89,55.89,0,0,1-1.67,7.5c-23.26,77.28-198.83,87.86-278.25,19-1.31-1.12-2.57-2.28-3.83-3.4s-2.42-2.33-3.58-3.5a126.63,126.63,0,0,1-31.7-51.17c-.37-1-.7-2.05-1-3.08-.74-2.33-1.44-4.75-2-7.18a177.39,177.39,0,0,1-4.33-21.48c-.14-.89-.28-1.82-.37-2.75-5.13-37.61-2.66-83.29-.8-140.62,3-92.79,4.29-216.07-31.08-384.79l322.66,170s3.59,14,7.46,36.73c-22.84,71.78-79.33,124.63-170.77,151.76-84.69,25.16-111.39,134.32-46.94,194.72,1.4,1.35,2.89,2.66,4.39,4,61.56,53.37,180.83,59,242.22,22.94,0,.55.09,1.07.09,1.63A44.79,44.79,0,0,1,1589,3472.49Z" transform="translate(-715.99 -435.14)"/></g><path class="cls-4" d="M1451.9,3560.07c-53.76,0-112.78-14.71-152.87-49.44-59.57-51.61-57.2-120.3-53.61-224.27,3.23-93.76,7.66-222.18-30.05-402.15a15.36,15.36,0,0,1,30.06-6.3c38.47,183.62,34,314.17,30.68,409.51-3.52,101.87-5.45,158,43,200,48.83,42.31,136.93,50.52,193.86,34,32.38-9.39,53.56-25.67,59.64-45.84,13.08-43.44-62.22-83.61-63-84l-17.26-8.88,12.63-14.75c86.32-100.84,33.68-310.94,33.13-313.05a15.36,15.36,0,0,1,29.75-7.64c2.28,8.87,52.67,210.32-28.47,326.33,27.17,17.69,78.26,58.9,62.61,110.85-9.17,30.49-37.76,54.1-80.49,66.49C1501.15,3556.83,1477.1,3560.06,1451.9,3560.07Z" transform="translate(-715.99 -435.14)"/><path class="cls-2" d="M1305.19,3156.3c-3.61.23-7.25.38-10.94.54-67.64,2.76-121.65-7.18-164.76-25.53a254.68,254.68,0,0,1-38.2-20.19c-34.32-22-59.66-50.22-78.35-81.2a305.16,305.16,0,0,1-23-47.18c-15-38.54-22.22-78.35-25.45-113.7-.34-3.38-.61-6.72-.84-10a609.07,609.07,0,0,1-.46-83.11c6-96,33.82-171.29,53.78-243.31.88-3.15,1.73-6.26,2.57-9.41,1.31-5,2.61-9.86,3.84-14.78,4.26-17.08,7.91-34.12,10.48-51.32.81-5.26,1.5-10.52,2.07-15.82.46-4.22.89-8.48,1.19-12.78,3.34-44,314.91-18.39,424.66,39.12h0c22.15,11.63,36,24.49,37.54,38.39a547,547,0,0,0,9,55.54q2.36,11.36,5.06,22.46c8.83,36.09,20.2,70.48,31.75,103.73,20.19,58.43,41,113.21,49.6,167C1622.28,3026.89,1528.88,3143.67,1305.19,3156.3Z" transform="translate(-715.99 -435.14)"/><g class="cls-3"><path class="cls-4" d="M1102.06,2653c0-1.19-10.48,37.05,65.17,91.23s14.42,220.2,14.42,220.2l-153-132.52Z" transform="translate(-715.99 -435.14)"/></g><g class="cls-3"><path class="cls-4" d="M1294.24,3156.85c-266.52,10.86-321.63-175.4-330.59-297.82a606.34,606.34,0,0,1-.73-78.88c.19,3.8.46,7.6.73,11.44,9,122.43,64.07,308.68,330.59,297.86,189.67-7.72,289-88.1,303.33-213C1614.36,3039.35,1516.14,3147.81,1294.24,3156.85Z" transform="translate(-715.99 -435.14)"/></g><path class="cls-4" d="M1272.41,3172.66c-261.39,0-315.41-194.37-324.08-312.51-8.77-119.41,17.9-209.43,41.43-288.85,14.63-49.36,28.44-96,32.07-143.94,1.82-24.08,32.57-35.3,99.68-36.39,104.62-1.8,384.11,30.56,393.09,113.34h0c7.9,72.64,30.8,138,53,201.22,17.79,50.76,34.59,98.71,42.29,146.78,14,87.4-1.62,159.47-46.41,214.22-53.21,65-143.56,100.58-268.56,105.67C1287.24,3172.51,1279.72,3172.66,1272.41,3172.66Zm-220.13-740.83c-4.1,50.42-18.18,97.93-33.07,148.19-23.9,80.66-48.61,164.06-40.26,277.88,9.61,130.81,68.88,284,293.55,284,6.9,0,13.92-.14,21.13-.44,115.85-4.71,198.63-36.48,246-94.43,39-47.66,52.41-111.56,39.87-189.92-7.26-45.35-23.63-92-41-141.47-22.72-64.86-46.23-131.92-54.49-208.07h0c-.37-3.39-5.5-21.46-70.27-43.33-56.17-19-140.83-34.39-221-40.27C1105.5,2417.61,1061.3,2425.14,1052.28,2431.83Z" transform="translate(-715.99 -435.14)"/><path class="cls-4" d="M1434.76,3325.22c-68.26,0-128.23-22.2-132.26-23.72a12.5,12.5,0,0,1,8.83-23.39c1.49.56,149.43,55.17,235.75-10.33a12.5,12.5,0,0,1,15.11,19.91C1524.45,3316.33,1477.94,3325.22,1434.76,3325.22Z" transform="translate(-715.99 -435.14)"/><circle class="cls-2" cx="1570.88" cy="2792.99" r="48.8" transform="translate(-1665.24 378.61) rotate(-22.5)"/><g class="cls-3"><path class="cls-4" d="M1619.68,2793a48.81,48.81,0,1,1-92.92-20.87,48.8,48.8,0,0,0,88.22,0A48.23,48.23,0,0,1,1619.68,2793Z" transform="translate(-715.99 -435.14)"/></g><path class="cls-4" d="M1570.88,2854.29a61.3,61.3,0,1,1,61.3-61.29A61.36,61.36,0,0,1,1570.88,2854.29Zm0-97.6a36.3,36.3,0,1,0,36.3,36.31A36.34,36.34,0,0,0,1570.88,2756.69Z" transform="translate(-715.99 -435.14)"/><path class="cls-2" d="M1327.15,3516.5c-23.25,77.27-198.82,87.84-278.28,19s-37.33-172.47-48.14-385.6a1450.66,1450.66,0,0,0-18.56-169.22q-5.13-30.46-12-63.16l180,94.84,142.62,75.17s7.43,29,12.44,71.07c8.74,73.5,10,187.06-48.81,255.78C1256.48,3414.42,1344.28,3459.62,1327.15,3516.5Z" transform="translate(-715.99 -435.14)"/><path class="cls-4" d="M1297.79,3086.3c7.36,13.13,12,26.85,16.11,40.81a293.09,293.09,0,0,1,8.47,42.61,416.12,416.12,0,0,1,2.65,87.19c-1,14.59-2.5,29.22-5,43.78s-5.41,29.11-9.84,43.42-9.58,28.48-16.66,42a209.48,209.48,0,0,1-25.38,38.31l-4.64-23.64c5.91,3.14,10.72,6.1,15.85,9.43s10,6.74,14.75,10.42a179.63,179.63,0,0,1,27,25.14c8.15,9.64,15.67,20.7,20,34.12a72.41,72.41,0,0,1,3.57,21.2,67.65,67.65,0,0,1-3.43,21.48c-4.42,13.53-12.78,25.29-22.51,34.31a122,122,0,0,1-32.13,21.1c-22.72,10.43-46.57,15.51-70.32,17.61a265.68,265.68,0,0,1-35.67.86,276,276,0,0,1-35.46-3.54,248.56,248.56,0,0,1-68.58-21.18,186.25,186.25,0,0,1-31.33-19.41,160.54,160.54,0,0,1-26.6-26.29,148.83,148.83,0,0,1-19.2-32.51,189.34,189.34,0,0,1-10.49-35.4c-4.45-23.8-5.21-47.2-5.29-70.14s.89-45.55,1.64-68c1.63-44.95,2.6-89.53,1.43-134.1s-4.45-89-9.75-133.23c-1.43-11-3.2-22-5-33-2.11-10.94-4-21.92-5.37-33a308.24,308.24,0,0,1-3.21-33.4c-.48-11.27-.35-22.68,1.82-34.59l0-.12a5.48,5.48,0,0,1,6.37-4.41,5.55,5.55,0,0,1,3.63,2.43c6.54,10.16,11,20.84,15,31.65a293.92,293.92,0,0,1,8.57,33.09c2.17,11.17,3.64,22.47,5,33.76q1.69,17,3.76,33.92c5.42,45.17,8.67,90.62,10,136.09s.19,90.93-1.44,136c-.75,22.51-1.62,44.91-1.62,67s.88,43.85,4.74,64.34a157.76,157.76,0,0,0,8.62,29.25,117.85,117.85,0,0,0,15,25.47,130.29,130.29,0,0,0,21.32,21.05,156.81,156.81,0,0,0,26,16.07c37.4,17.94,81.46,24.37,123.5,20.85,21-1.81,41.84-6.45,60.07-14.86s33.32-21.23,38.41-37.1a36.51,36.51,0,0,0-.15-23.65c-2.56-8.08-7.78-16.15-14.13-23.63a149.59,149.59,0,0,0-22.37-20.76c-4.14-3.17-8.43-6.2-12.82-9.06s-9.12-5.71-13.15-7.86l-16.94-9,12.31-14.63c16.54-19.67,28.41-43.55,36-69.16a259.61,259.61,0,0,0,8.67-39.38,331.09,331.09,0,0,0,3.6-40.65c.8-27.33-.53-54.81-2.13-82.4-2-27.56-4-55.28-3.05-84v-.12a5.29,5.29,0,0,1,9.91-2.42Z" transform="translate(-715.99 -435.14)"/><path class="cls-2" d="M1520,2914.06l-257.53,15.31a55.72,55.72,0,0,1-58.75-52.15l-8.14-137a55.75,55.75,0,0,1,41.14-57,54.52,54.52,0,0,1,11-1.78l257.49-15.32a55.67,55.67,0,0,1,58.75,52.16l6.48,108.54,1.7,28.51A55.73,55.73,0,0,1,1520,2914.06Z" transform="translate(-715.99 -435.14)"/><g class="cls-3"><path class="cls-4" d="M1520,2914.06l-257.53,15.31a55.72,55.72,0,0,1-58.75-52.15l-8.14-137a55.75,55.75,0,0,1,41.14-57c15.21,8.85,24.86,14.51,24.86,14.51C1280.67,2807,1315.26,2860,1452,2854.06c59-2.56,95.7-13.76,118.47-27.26l1.7,28.51A55.73,55.73,0,0,1,1520,2914.06Z" transform="translate(-715.99 -435.14)"/></g><path class="cls-4" d="M1259.16,2942a68.14,68.14,0,0,1-67.89-64l-8.15-137.06a68.11,68.11,0,0,1,63.88-72l257.51-15.33a68.14,68.14,0,0,1,72,63.89l8.16,137.07a68.22,68.22,0,0,1-63.89,72l-257.51,15.32C1261.88,2941.94,1260.51,2942,1259.16,2942Zm249.42-263.49c-.85,0-1.72,0-2.58.08l-257.51,15.32a43.1,43.1,0,0,0-40.42,45.54l8.15,137.06a43.13,43.13,0,0,0,45.54,40.42l257.51-15.33a43.22,43.22,0,0,0,40.42-45.53L1551.53,2719A43.11,43.11,0,0,0,1508.58,2678.49Z" transform="translate(-715.99 -435.14)"/><path class="cls-2" d="M1530.29,2912.43a50,50,0,0,1-10.28,1.63l-257.53,15.31a55.65,55.65,0,0,1-52.39-29.59,54.74,54.74,0,0,1-6.32-22.56l-3.64-60.89-1.2-20.08-3.34-56.08a55.72,55.72,0,0,1,52.16-58.75l55.65-3.3a55.71,55.71,0,0,0-42,57.13l4.38,74,3.76,63.06a55.74,55.74,0,0,0,58.75,52.16Z" transform="translate(-715.99 -435.14)"/><g class="cls-3"><path class="cls-4" d="M1530.29,2912.43a50,50,0,0,1-10.28,1.63l-257.53,15.31a55.66,55.66,0,0,1-58.71-52.15l-4.84-81c7.32,13.92,20,30.79,38.74,31.52,10.27.43,19.89-7.52,28.15-18.5l3.76,63.06a55.74,55.74,0,0,0,58.75,52.16Z" transform="translate(-715.99 -435.14)"/></g><path class="cls-4" d="M1259.1,2942a68.2,68.2,0,0,1-67.82-64l-8.15-137.06a68.22,68.22,0,0,1,63.88-72l55.63-3.3,3.79,24.6a43.08,43.08,0,0,0-32.51,44.29l8.15,137.06a43.19,43.19,0,0,0,45.5,40.42l202-12,3.92,24.57a64.62,64.62,0,0,1-12.8,2l-257.46,15.32C1261.85,2941.94,1260.47,2942,1259.1,2942Zm2-248.84-12.55.74a43.21,43.21,0,0,0-40.42,45.54l8.16,137.07a43.18,43.18,0,0,0,45.49,40.41l14.21-.84a67.48,67.48,0,0,1-18.83-43L1249,2736A67.72,67.72,0,0,1,1261.05,2693.14Z" transform="translate(-715.99 -435.14)"/><path class="cls-5" d="M1367.12,2798.86c.27,5.07-4.66,46.38-4.66,46.38l-28.88,1.55c-19.89,1.07-37.12-18.66-38.48-44.06s13.65-46.86,33.54-47.93l28.88-1.55S1366.68,2790.6,1367.12,2798.86Z" transform="translate(-715.99 -435.14)"/><g class="cls-3"><path class="cls-4" d="M1367.12,2798.86c.27,5.07-4.66,46.38-4.66,46.38l-28.88,1.55c-19.89,1.07-37.12-18.66-38.48-44.06s13.65-46.86,33.54-47.93l28.88-1.55S1366.68,2790.6,1367.12,2798.86Z" transform="translate(-715.99 -435.14)"/></g><path class="cls-4" d="M1332,2856.83c-12,0-23.31-5.47-32.13-15.57s-14-23.49-14.75-38,3-28.48,10.59-39.35c8.14-11.63,19.64-18.41,32.4-19.1l37.16-2,2,8c1.57,6.39,9.41,38.7,9.87,47.45.29,5.36-3.19,35.43-4.71,48.1l-1,8.35-37.27,2Q1333.06,2856.83,1332,2856.83Zm17.76-93.15-20.57,1.11c-6.49.34-12.56,4.1-17.09,10.58-5.06,7.23-7.55,16.76-7,26.82s4,19.27,9.84,25.92c5.2,6,11.66,9,18.12,8.69l20.47-1.1c1.94-16.81,3.66-33.37,3.62-36.36C1356.88,2795,1353.13,2778,1349.75,2763.68Z" transform="translate(-715.99 -435.14)"/><ellipse class="cls-5" cx="1359.99" cy="2799.24" rx="36.06" ry="46.06" transform="translate(-864.23 -358.14) rotate(-3.08)"/><path class="cls-4" d="M1360.94,2855.28c-24.48,0-45.33-23.53-47-53.56-.78-14.51,3-28.49,10.6-39.36,8.14-11.63,19.64-18.41,32.39-19.1s24.92,4.83,34.26,15.51c8.73,10,14,23.5,14.75,38s-3,28.49-10.59,39.36c-8.14,11.63-19.65,18.41-32.4,19.09C1362.31,2855.26,1361.62,2855.28,1360.94,2855.28Zm-1.89-92.07-1,0c-6.49.35-12.55,4.11-17.09,10.59-5.06,7.23-7.55,16.76-7,26.82,1,19.52,13.69,35.37,28,34.61,6.49-.35,12.56-4.11,17.09-10.58,5.06-7.24,7.55-16.76,7-26.83h0c-.55-10.06-4-19.26-9.84-25.91C1371.24,2766.28,1365.19,2763.21,1359.05,2763.21Z" transform="translate(-715.99 -435.14)"/><path class="cls-4" d="M1439.89,2927.83a10,10,0,0,1-10-9.64l-3.41-95.19a10,10,0,0,1,4.18-8.49l38-27.15L1462,2668.72a10,10,0,0,1,20-1.12l7,124.13a10,10,0,0,1-4.17,8.7l-38.08,27.22,3.21,89.82a10,10,0,0,1-9.64,10.35Z" transform="translate(-715.99 -435.14)"/><path class="cls-4" d="M1185.69,3339.88c-87.51,0-175.62-30.17-181.2-32.11a12.5,12.5,0,0,1,8.22-23.61c2,.68,197.34,67.53,283.89,1.84a12.5,12.5,0,0,1,15.11,19.92C1278.09,3331.44,1232,3339.88,1185.69,3339.88Z" transform="translate(-715.99 -435.14)"/><path class="cls-2" d="M941.7,2712.31s-27.39,16-28.22,45.36c-1,34,23.79,50.63,23.79,50.63s84,59.32,280.11,48.12c0,0,50-50-6.94-87.92C1210.44,2768.5,1031,2796.4,941.7,2712.31Z" transform="translate(-715.99 -435.14)"/><g class="cls-3"><path class="cls-4" d="M962.57,2787.91c-.2,3.1-.27,6.24-.35,9.38-.08,2.29-.12,4.58-.16,6.9q-.16,8.51,0,17.22c-16.79-7.48-24.78-13.1-24.78-13.1s-24.74-16.68-23.81-50.65c0-1.32.12-2.6.28-3.84a57.6,57.6,0,0,0,15.31,17.3S939.81,2778.72,962.57,2787.91Z" transform="translate(-715.99 -435.14)"/></g><path class="cls-4" d="M1168.91,2873.19c-164.35,0-237.2-50-240.5-52.35-1-.68-31.45-21.66-30.28-63.6,1.06-37.49,34.42-57.36,35.84-58.19l9.91-5.78,8.35,7.86c82.74,77.89,254.13,52.46,255.86,52.2l5.89-.92,5,3.31c20.49,13.66,31.86,30.51,33.79,50.09,3.3,33.26-23.38,60.34-24.52,61.47l-4.14,4.14-5.84.33C1201,2872.74,1184.51,2873.19,1168.91,2873.19ZM941.24,2732.27c-5.62,5.58-12.09,14.43-12.41,25.83-.69,24.66,16.43,37,17.16,37.55.89.62,81.47,54.89,264.09,45.78,5.62-7.19,13.39-20.23,12.1-32.72-.89-8.64-6.17-16.75-15.7-24.16C1173.9,2788.67,1028,2802.46,941.24,2732.27Z" transform="translate(-715.99 -435.14)"/><g class="cls-3"><path class="cls-4" d="M1327.15,3516.5c-23.25,77.27-198.82,87.84-278.28,19s-37.33-172.47-48.14-385.6c-.16-3.14-.32-6.29-.52-9.46-.11-2.43-.27-4.93-.43-7.4-.12-2-.24-4.09-.4-6.16-.16-3-.4-6.08-.64-9.18s-.43-6.16-.71-9.3q-.66-8.59-1.47-17.37-2.26-24.87-5.69-51.52c-.43-3.42-.87-6.87-1.35-10.37-1.39-10.46-3-21.11-4.69-32-.55-3.62-1.11-7.27-1.75-11-.28-1.83-.59-3.66-.91-5.53,0,0,0,0,0-.08-15.3-39.47-22.74-80.29-26-116.46-.35-3.46-.63-6.88-.87-10.25q-1.44-19.8-1.63-38.56-.18-8.94,0-17.65c0-2.38.08-4.73.16-7.08.08-3.21.16-6.43.36-9.61,39.11,15.89,112.92,36.48,227.6,33.19a47.9,47.9,0,0,0,15.94-3.22,46.22,46.22,0,0,0,28.74-32.6l.12-.59c26.83,35.41-11.21,73.45-11.21,73.45-5.13.28-10.22.56-15.19.72l1.23,20.59a56.13,56.13,0,0,0,6.48,23.13,49.94,49.94,0,0,1-19.12,4.41c-24.68.68-47.42.24-68.32-1,11,45.39,22.45,86,29.85,113.32,4.33,16,103.9-14.28,104.5-9.16,2.46,21.19-40.13,86.65-113.3,105.27-29.33,7.47-65.86,7.42-91,5.12-.55,158.16-26.77,297.81,41.56,357,59.86,51.87,174.41,58.63,237.1,25.68A51.28,51.28,0,0,1,1327.15,3516.5Z" transform="translate(-715.99 -435.14)"/></g><g class="cls-3"><path class="cls-4" d="M1106.71,2818.27c-47-3.26-101.29-14-143.52-42.34,6-96,33.81-171.33,53.79-243.34,43.43-63.41,85.08,120.37,85.08,120.37C1090.23,2693.36,1095.46,2755.33,1106.71,2818.27Z" transform="translate(-715.99 -435.14)"/></g><path class="cls-2" d="M1210.53,3024c-70,19.7-140.54,23.84-197.59,5.91-63-19.8-109.45-66.52-120.43-148.87-17-127.56,54.67-278.89,110.26-373.71,11.32-19.31,22-36.32,31.09-50.25,17.31-26.49,29-42,29-42l26.19,159,13,78.93c-13.51,46.33-26.26,108.64,6,144.76,16.16,18.08,90-16,129.6,8.6C1319.78,2857.25,1328.42,2990.84,1210.53,3024Z" transform="translate(-715.99 -435.14)"/><g class="cls-3"><path class="cls-4" d="M1299.13,2920.59c-1.85,44.34-29.1,86.69-88.6,103.42-147.3,41.46-297.13,13.94-318-143-14.93-111.86,38.35-241.92,89.14-336.2-35.51,81.38-62.42,175.09-51.28,258.62,20.92,156.89,170.71,184.42,318,143C1269.11,2940.59,1286,2931.65,1299.13,2920.59Z" transform="translate(-715.99 -435.14)"/></g><path class="cls-4" d="M1066.84,2418.05c-11.68,29-26.48,55.62-41.55,82-14.81,26.52-30,52.74-44.24,79.53a801.47,801.47,0,0,0-37.38,82.65c-10.83,28.16-20.23,56.83-27,86s-11.07,58.68-11.57,88.09,2.86,58.77,12.49,85.42c9.45,26.71,25.76,50.33,47.9,67.29,22,17.12,49.21,27.66,77.6,32.89s58.21,5.38,87.62,2.41a407,407,0,0,0,44-7c7.3-1.47,14.54-3.26,21.77-5.11l10.75-2.91c3.31-1.1,6.69-2,9.94-3.24A116.28,116.28,0,0,0,1252.4,2986a90.08,90.08,0,0,0,23.66-31.28c11-24,10.47-53,.75-78.33a116.19,116.19,0,0,0-20.91-34.88,111.37,111.37,0,0,0-14.64-14.17,96.6,96.6,0,0,0-8.22-6c-1.34-.85-3-2.11-4.06-2.64a27.59,27.59,0,0,0-3.64-1.85c-10.23-4.57-24.13-5.31-38.34-4.4-14.37.84-29.15,3.38-45.29,5-4,.42-8.27.71-12.71.81a65.39,65.39,0,0,1-14.86-1.19,38.6,38.6,0,0,1-9.21-3.18,33.23,33.23,0,0,1-5-3.32c-.82-.71-1.63-1.45-2.4-2.22a13.2,13.2,0,0,1-1.41-1.61c-2.86-3.7-6-7.24-8.2-11.32-1.19-2-2.46-4-3.53-6l-2.87-6.24c-2.09-4.13-3.15-8.46-4.73-12.71a130.58,130.58,0,0,1-4.61-25.78,149.76,149.76,0,0,1,4.8-49.39,136.75,136.75,0,0,1,8.14-22.74,112.58,112.58,0,0,1,12.15-21,5.34,5.34,0,0,1,9.59,2.7v.11a193.38,193.38,0,0,1,.19,23.54c-.28,7.63-.79,15.06-1.37,22.38a339.14,339.14,0,0,0-1.56,42.41,112.89,112.89,0,0,0,2.37,19.74c1.75,6.1,3.63,12.23,7,17.27,1.36,2.78,3.52,4.91,5.27,7.36.15.18.65.89.46.56a.75.75,0,0,0-.27-.26c-.21-.11-.12-.18-.24-.14a13.23,13.23,0,0,0,1.68.49,36.5,36.5,0,0,0,8.1.53c3.23-.08,6.68-.29,10.29-.67,14.45-1.46,30-4.14,46.38-5.13a158.06,158.06,0,0,1,25.42.23c8.75.91,17.91,2.64,26.91,6.68a55.82,55.82,0,0,1,6.62,3.38c2.32,1.26,3.72,2.4,5.62,3.6,3.63,2.31,7,5,10.38,7.61a141.6,141.6,0,0,1,18.45,17.86,145.88,145.88,0,0,1,26.27,43.82,139.78,139.78,0,0,1,9.37,50.49,123.64,123.64,0,0,1-10.8,50.9,120,120,0,0,1-31.49,41.71,146.06,146.06,0,0,1-44.4,25.5c-4,1.45-8,2.61-12,3.91-3.91,1.13-7.67,2.07-11.51,3.11-7.67,2-15.36,3.85-23.13,5.43a439,439,0,0,1-47.07,7.44c-31.68,3.18-64.1,3.24-96.17-2.75s-63.83-18-90.52-38.67a169.89,169.89,0,0,1-34.85-36.38,185.76,185.76,0,0,1-22.9-44.44c-11.26-31.3-14.84-64.07-14.27-96.06s5.23-63.71,12.36-94.48c14.37-61.63,38.89-119.56,65.89-175.72,13.54-28.09,28.22-55.66,45.27-81.74,16.87-26.17,35.59-51.24,60.2-71.84a5.13,5.13,0,0,1,8.06,5.85Z" transform="translate(-715.99 -435.14)"/><g class="cls-3"><path class="cls-4" d="M1513.37,2584q-5.92,3.11-12,6.11a436.14,436.14,0,0,1-64.46,25.45,432.26,432.26,0,0,1-125.72,19q-12.56,0-25-.69a438,438,0,0,1-197.2-59.77,431.59,431.59,0,0,1-69.49-50.87q-8.58-7.65-16.77-15.85c11.32-19.31,22-36.32,31.09-50.25.81-5.26,1.5-10.52,2.07-15.82.46-4.22.89-8.48,1.19-12.78,3.34-44,314.91-18.39,424.66,39.12h0c22.15,11.63,36,24.49,37.54,38.39a547,547,0,0,0,9,55.54Q1510.67,2572.9,1513.37,2584Z" transform="translate(-715.99 -435.14)"/></g><path class="cls-2" d="M1702.68,2310.16a432.45,432.45,0,0,1-141.12,167.49,438.94,438.94,0,0,1-39.6,24.9c-6.68,3.74-13.56,7.31-20.55,10.78a434.3,434.3,0,0,1-190.2,44.42q-12.53,0-25-.69c-152-8.55-295.09-96.73-366.76-243.23-105.63-215.78-16.29-476.32,199.46-581.94a434.09,434.09,0,0,1,128.28-39.8c5.08-.78,10.19-1.42,15.31-2q20.54-2.28,41-2.58a437.39,437.39,0,0,1,182.31,37.13q13.59,6,26.78,12.9a434.8,434.8,0,0,1,188.25,193.8C1761.63,2055.51,1757.87,2194.42,1702.68,2310.16Z" transform="translate(-715.99 -435.14)"/><path class="cls-4" d="M1311.22,2559.28c-8.34,0-16.78-.24-25.09-.69a437.39,437.39,0,0,1-368.05-244.08c-105.82-216.18-16-478.16,200.16-584A435.28,435.28,0,0,1,1247,1690.58c4.81-.75,10-1.41,15.37-2,13.64-1.52,27.49-2.39,41.16-2.6a439.3,439.3,0,0,1,183,37.26c9.16,4,18.2,8.4,26.87,13a436.19,436.19,0,0,1,188.91,194.49c58.94,120.39,59.61,258.93,1.83,380.12a435.64,435.64,0,0,1-141.62,168.08,445.74,445.74,0,0,1-39.74,25c-6.19,3.47-12.94,7-20.62,10.81a439,439,0,0,1-64.7,25.54,433.44,433.44,0,0,1-126.17,19ZM1309.79,1689q-3.12,0-6.23,0c-13.58.21-27.33,1.07-40.87,2.58-5.35.56-10.48,1.21-15.25,1.95a432.63,432.63,0,0,0-127.85,39.66c-214.67,105.09-303.83,365.23-198.75,579.89a434.33,434.33,0,0,0,365.46,242.37c8.26.44,16.64.67,24.92.68a431.13,431.13,0,0,0,125.27-18.91,435.59,435.59,0,0,0,64.24-25.35c7.63-3.78,14.33-7.3,20.48-10.74a441.13,441.13,0,0,0,39.47-24.81,432.44,432.44,0,0,0,140.61-166.9l1.39.66-1.39-.66c57.38-120.33,56.72-257.9-1.8-377.44a433.18,433.18,0,0,0-187.59-193.12c-8.6-4.52-17.58-8.85-26.68-12.86a435.84,435.84,0,0,0-175.43-37Z" transform="translate(-715.99 -435.14)"/><g class="cls-3"><path class="cls-4" d="M1702.68,2310.15a432.52,432.52,0,0,1-141.12,167.49,438.86,438.86,0,0,1-39.6,24.89c-6.69,3.75-13.56,7.32-20.55,10.78a435.59,435.59,0,0,1-64.47,25.45,432.08,432.08,0,0,1-125.73,19q-12.54,0-25-.68c-152-8.55-295.09-96.73-366.76-243.23A432.92,432.92,0,0,1,878.19,2071a437,437,0,0,0,34.51,99.08c26.88,54.94,70.43,75.06,114.09,112.47,72.77,62.35,157.66,125.41,252.67,130.75q12.46.68,25,.69a435.79,435.79,0,0,0,190.19-44.42c7-3.46,13.87-7,20.56-10.78a442.52,442.52,0,0,0,39.6-24.89,432.52,432.52,0,0,0,141.12-167.49,437.94,437.94,0,0,0,39.45-136.07A435.1,435.1,0,0,1,1702.68,2310.15Z" transform="translate(-715.99 -435.14)"/></g><path class="cls-4" d="M1311.24,2568.17c-8.52,0-17.12-.24-25.59-.7-160.93-9-304.83-104.48-375.55-249-108-220.59-16.35-487.9,204.23-595.89a444.4,444.4,0,0,1,131.37-40.75c4.88-.75,10.2-1.44,15.74-2,13.85-1.54,28-2.43,41.93-2.64a447.85,447.85,0,0,1,186.68,38c9.34,4.12,18.56,8.57,27.42,13.22a445,445,0,0,1,192.76,198.44c60.13,122.84,60.81,264.21,1.86,387.85h0a444.49,444.49,0,0,1-144.52,171.52,451.76,451.76,0,0,1-40.54,25.49c-6.3,3.52-13.18,7.13-21,11a444.46,444.46,0,0,1-194.8,45.5Zm-1.45-870.25c-2,0-4.07,0-6.11,0-13.28.2-26.75,1-40,2.52-5.27.55-10.24,1.19-14.87,1.91a423.73,423.73,0,0,0-125.31,38.85c-210.26,102.93-297.59,357.74-194.67,568a425.43,425.43,0,0,0,358,237.4c8.08.44,16.3.67,24.43.67a421.5,421.5,0,0,0,122.65-18.51,427.83,427.83,0,0,0,62.95-24.84c7.45-3.7,14-7.15,20-10.52a431.36,431.36,0,0,0,38.69-24.32,423.46,423.46,0,0,0,137.71-163.45h0c56.2-117.87,55.56-252.62-1.77-369.72a424.18,424.18,0,0,0-183.74-189.15c-8.42-4.43-17.21-8.67-26.12-12.59a427.14,427.14,0,0,0-171.85-36.3Zm392.89,612.24h0Z" transform="translate(-715.99 -435.14)"/><path class="cls-4" d="M1311.26,2573.1c-8.63,0-17.32-.24-25.87-.71-162.73-9.15-308.22-105.63-379.73-251.81-109.16-223-16.53-493.3,206.5-602.48A449.12,449.12,0,0,1,1245,1676.9c4.9-.76,10.31-1.46,15.93-2,14-1.55,28.26-2.45,42.37-2.67A453,453,0,0,1,1492,1710.63c9.44,4.16,18.77,8.66,27.72,13.36a450.17,450.17,0,0,1,194.9,200.64c60.8,124.2,61.49,267.13,1.88,392.14h0a449.44,449.44,0,0,1-146.12,173.43,457.24,457.24,0,0,1-41,25.77c-6.36,3.56-13.31,7.2-21.2,11.11a451.88,451.88,0,0,1-66.81,26.38,448,448,0,0,1-130.16,19.64Zm-1.47-870.24c-2,0-4,0-6,0-13.13.2-26.44,1-39.55,2.5q-7.83.81-14.65,1.87a418.94,418.94,0,0,0-123.9,38.41c-207.82,101.74-294.13,353.59-192.41,561.4a420.51,420.51,0,0,0,353.83,234.65c8,.43,16.11.65,24.15.66a416.67,416.67,0,0,0,121.2-18.3,421.36,421.36,0,0,0,62.23-24.55c7.35-3.65,13.86-7.06,19.8-10.39a428.57,428.57,0,0,0,38.26-24.05,418.62,418.62,0,0,0,136.1-161.55c55.55-116.49,54.91-249.69-1.74-365.42a419.44,419.44,0,0,0-181.62-187c-8.32-4.37-17-8.56-25.81-12.44a422.36,422.36,0,0,0-169.86-35.87Zm392.89,607.3h0Z" transform="translate(-715.99 -435.14)"/><path class="cls-4" d="M1642.2,2403.8c-245.34,191-598.09,82-632.17-224-23.19-208.21,162.76-391.67,364.16-401.13,146.58-6.89,292.7,50.5,365.59,275.08,0,0,16.91,104.4-8,175.76s-61.07,136.58-61.07,136.58Z" transform="translate(-715.99 -435.14)"/><g class="cls-6"><path class="cls-7" d="M1737.1,2211.48a179,179,0,0,1-5.25,18c-24.86,71.36-61.11,136.61-61.11,136.61l-28.55,37.74c-245.32,191-598.07,82-632.16-224a317.65,317.65,0,0,1-1.11-58.49c124.78,243.5,463.36,305.8,710.72,113.28Z" transform="translate(-715.99 -435.14)"/></g><path class="cls-4" d="M1373.2,2555.68c-99,0-194.25-31.1-268.65-88.95-86.8-67.48-139.51-164.48-152.44-280.5-11.9-106.79,23-214.2,98.32-302.44,81.91-96,202.6-156.67,322.84-162.32,67.48-3.19,128.87,6,182.45,27.32l1.2.48,1.09.72a446.6,446.6,0,0,1,154.09,175.9c60.41,123.41,61.09,265.43,1.87,389.65h0a446.53,446.53,0,0,1-145.2,172.32,451.5,451.5,0,0,1-40.73,25.61c-6.33,3.54-13.23,7.16-21.08,11.06a450.43,450.43,0,0,1-66.38,26.2l-1.92.42A475.62,475.62,0,0,1,1373.2,2555.68ZM1399,1745.86q-12.12,0-24.54.58c-113.47,5.34-227.48,62.75-305,153.58C998.68,1983,965.83,2083.61,977,2183.46c12.17,109.16,61.6,200.29,142.94,263.54,85.17,66.23,199.71,95.19,314.35,79.52a422.65,422.65,0,0,0,61.67-24.42c7.41-3.67,14-7.11,19.94-10.46a428.23,428.23,0,0,0,38.51-24.21,421.39,421.39,0,0,0,137-162.65h0c55.92-117.29,55.28-251.38-1.76-367.9a421.46,421.46,0,0,0-144.37-165.33C1501.84,1754.48,1452.73,1745.86,1399,1745.86Zm303.7,564.3h0Z" transform="translate(-715.99 -435.14)"/><path class="cls-4" d="M1372.73,2514.05a403.73,403.73,0,0,1-157.29-31.42c-124.79-52.65-205.22-162.42-220.67-301.17-10.72-96.18,20.7-192.88,88.46-272.29,73.62-86.26,182.12-140.8,290.24-145.88,188.35-8.85,316.52,87.27,380.92,285.68l.55,2.28c.71,4.43,17.23,109.09-8.61,183.28-25,71.79-60.65,136.27-62.15,139l-1.18,1.81-29.77,39.36-1.59,1.24C1568.72,2480.45,1470,2514.05,1372.73,2514.05Zm23.58-720.6q-10.56,0-21.39.51c-99.81,4.69-200.11,55.22-268.33,135.15-62.19,72.88-91.07,161.29-81.31,249,14.19,127.38,87.85,228.08,202.09,276.28,129.39,54.59,283.94,31,403.82-61.43l26.65-35.23c4.42-8.1,37-68.54,59.49-133.26,22-63.12,9.13-156,7.46-167.14C1667.58,1882.12,1557.12,1793.45,1396.31,1793.45ZM1642.2,2403.8h0Z" transform="translate(-715.99 -435.14)"/><path class="cls-2" d="M1042.61,2183.31c0,.62,0,1.28,0,1.9C1041,2270.09,990,2335.79,928,2332.3c-62.47-3.49-112.42-75.93-111.61-161.75.66-66.2,31.37-121.07,74.11-141a83.37,83.37,0,0,1,40.52-8C993.48,2025.09,1043.46,2097.53,1042.61,2183.31Z" transform="translate(-715.99 -435.14)"/><g class="cls-3"><path class="cls-4" d="M1042.57,2185.21C1041,2270.09,990,2335.79,928,2332.3c-62.47-3.49-112.42-75.93-111.61-161.75a208.21,208.21,0,0,1,4.5-41.28c11.87-55.55,87.56-64.79,113.53-14.26l27.94,54.38s15.82,36.45,51.46,36.45C1025.89,2205.84,1035.36,2197,1042.57,2185.21Z" transform="translate(-715.99 -435.14)"/></g><path class="cls-4" d="M932.81,2347.8c-1.89,0-3.78-.05-5.68-.16-70.44-4-127-83.47-126.1-177.22.53-54.38,19.71-103.25,52.62-134.06,22.77-21.3,49.86-31.73,78.23-30.11,70.44,4,127,83.47,126.1,177.22-.53,54.39-19.71,103.25-52.63,134.06C984.12,2337.4,959.15,2347.8,932.81,2347.8Zm-6.5-311c-18.46,0-36.26,7.55-51.67,22-26.42,24.74-42.46,66.58-42.9,111.94h0c-.75,77.59,42.81,143.2,97.12,146.26,19.83,1.15,39-6.44,55.51-21.87,26.42-24.73,42.46-66.58,42.9-111.94.75-77.58-42.82-143.2-97.12-146.26C928.87,2036.84,927.59,2036.8,926.31,2036.8ZM816.39,2170.57h0Z" transform="translate(-715.99 -435.14)"/><ellipse class="cls-2" cx="892.81" cy="2187.77" rx="92.1" ry="121.67" transform="translate(-881.55 -360.02) rotate(-4.41)"/><path class="cls-4" d="M896.75,2310.85a74.87,74.87,0,0,1-29-5.93c-27.71-11.6-50.06-38.47-61.33-73.72-20.26-63.39,1.87-134.5,49.33-158.51a73,73,0,0,1,62.07-2.07c27.72,11.6,50.07,38.47,61.34,73.72,20.25,63.38-1.87,134.49-49.34,158.51A72.92,72.92,0,0,1,896.75,2310.85Zm-8-243.09a69.56,69.56,0,0,0-31.59,7.75c-46.13,23.35-67.55,92.76-47.74,154.73,11,34.36,32.68,60.52,59.53,71.76,19.87,8.32,40.42,7.64,59.43-2,46.13-23.35,67.54-92.76,47.74-154.73-11-34.36-32.68-60.52-59.54-71.76A71.82,71.82,0,0,0,888.79,2067.76Z" transform="translate(-715.99 -435.14)"/><g class="cls-3"><path class="cls-4" d="M981.11,2237.84c5.92-22.63,5.66-47,.39-69.86-17.85,50.46-64.1,70.67-107.24,45-27.88-16.57-48-48.5-56.17-83.94-1.15,3.17-2.15,6.51-3.05,9.94-15.06,57.64,6.39,132.83,52.26,160.12S966.06,2295.44,981.11,2237.84Z" transform="translate(-715.99 -435.14)"/></g><path class="cls-4" d="M895.58,2325.63c-1.54,0-3.07,0-4.62-.14-54.48-3.51-96.8-67.07-96.36-144.72h0c.27-45.53,16.06-87.28,42.25-111.69,16.78-15.65,36.58-23.23,57.18-21.89,54.49,3.5,96.81,67.07,96.36,144.72-.27,45.53-16.06,87.28-42.24,111.69C932.62,2318.07,914.53,2325.63,895.58,2325.63Zm-76-144.71c-.36,62.27,33.06,117,73,119.62,13.57.85,26.92-4.39,38.54-15.22,21.24-19.81,34.06-54.79,34.29-93.56.36-62.28-33-117.05-73-119.62-13.65-.86-26.91,4.39-38.53,15.22-21.25,19.81-34.07,54.78-34.3,93.56Z" transform="translate(-715.99 -435.14)"/><g class="cls-8"><path class="cls-2" d="M1497.84,1871.22c-2.27-3.21,11.76.42,11.76.42l10,.72s17.77,2.05,26.5,3.7,17.51,3.75,26.07,6.24a55.37,55.37,0,0,1,26.59,16.84,305,305,0,0,1,64.26,123c24.44,94.23,5.17,166.19-45.28,235.42,0,0,9.45-49.78-9.75-148.36C1597.27,2054,1580,1987.1,1497.84,1871.22Z" transform="translate(-715.99 -435.14)"/></g><g class="cls-8"><ellipse class="cls-2" cx="1183.77" cy="2087.36" rx="58.15" ry="67.76" transform="translate(-872.97 -337.95) rotate(-4.41)"/></g><g class="cls-8"><ellipse class="cls-2" cx="1181.54" cy="2230.15" rx="24.01" ry="27.98" transform="translate(-1059.15 -216.19) rotate(-9.25)"/></g><g class="cls-3"><path class="cls-4" d="M1830.79,2468.14c-10.22-11.48-26.89-23.06-52.38-22.59-54.43,1-86,117.38-29.09,192.19,24.42,32.09,109.12,15.19,99.44-36.58" transform="translate(-715.99 -435.14)"/></g><path class="cls-2" d="M1869.18,2429.76c-10.22-11.49-26.89-23.07-52.38-22.6-54.44,1-86,117.38-29.09,192.2,24.42,32.08,58,24,70.66,8.75" transform="translate(-715.99 -435.14)"/><g class="cls-3"><path class="cls-4" d="M1858.37,2608.11h0c-12.7,15.24-46.26,23.34-70.67-8.75-39.54-52-36.39-124-12.52-163.46-4.76,36.58,2.77,79.54,28.83,113.78,8.53,11.2,18.16,17.5,27.63,20.31A37.4,37.4,0,0,1,1858.37,2608.11Z" transform="translate(-715.99 -435.14)"/></g><path class="cls-4" d="M1868.41,2456.9l-.7-1.63c-.31-.69-.65-1.4-1-2.12-.69-1.44-1.57-2.86-2.39-4.27a60.47,60.47,0,0,0-5.81-8,52.59,52.59,0,0,0-14.6-12,47.45,47.45,0,0,0-17.76-5.78,24.81,24.81,0,0,0-4.83-.4c-1.56,0-3.46-.24-4.73-.13a20.17,20.17,0,0,0-3.63.48l-1.81.37-1.78.66c-9.7,3.33-18.78,14.29-24.77,26.8-6.16,12.65-9.61,27.25-11,41.93a140.77,140.77,0,0,0,2.8,44.19c3.31,14.43,9.26,27.93,16.39,40.48a147.86,147.86,0,0,0,11.54,17.32,45.35,45.35,0,0,0,13.57,11.37,36.68,36.68,0,0,0,17.36,4.11,44.34,44.34,0,0,0,9.73-1.39,42.48,42.48,0,0,0,9.51-4.06l.58-.35a5.21,5.21,0,0,1,7.29,6.9c-9.35,17.71-32.61,26-53.39,20.41-10.43-2.56-19.74-8.43-27-15.43a114,114,0,0,1-17.37-22.21c-9.44-15.67-15.33-33.12-18.71-50.72A190.92,190.92,0,0,1,1743,2490c1.76-17.82,5.82-35.61,14-52.47a103,103,0,0,1,15.85-24.06c6.64-7.42,15.19-14.23,25.83-18.15l4-1.39,4.18-1a50.51,50.51,0,0,1,8.52-1.07c2.8-.16,5,.09,7.53.13a47.34,47.34,0,0,1,7.37.64,78.15,78.15,0,0,1,28.58,9.36,83.49,83.49,0,0,1,23.06,19,91.36,91.36,0,0,1,8.65,11.85c1.25,2.11,2.49,4.19,3.59,6.44.57,1.09,1.12,2.22,1.64,3.4l.8,1.81.87,2.22a15.32,15.32,0,0,1-28.31,11.72Z" transform="translate(-715.99 -435.14)"/><path class="cls-4" d="M1725.15,2823.85a11.79,11.79,0,0,1-2.49-.27c-32.1-7.08-55.81-24.32-70.48-51.22-41.36-75.91,5.07-203,7.07-208.34a11.52,11.52,0,0,1,21.59,8c-.45,1.22-44.78,122.65-8.41,189.32,11.49,21.07,29.54,34.07,55.19,39.72a11.52,11.52,0,0,1-2.47,22.77Z" transform="translate(-715.99 -435.14)"/><path class="cls-4" d="M903.71,2939.15q-.59,0-1.2-.06a11.52,11.52,0,0,1-10.27-12.64c.18-1.76,20.12-174.52,195-174.52,1.29,0,2.56,0,3.87,0a11.52,11.52,0,0,1-.16,23h-.17c-157.56-2.15-174.92,147.45-175.58,153.83A11.51,11.51,0,0,1,903.71,2939.15Z" transform="translate(-715.99 -435.14)"/><path class="cls-4" d="M1797.85,2401l232.7-252.87L2264.08,1896l234.28-251.4L2615.51,1519c39.06-41.89,78.65-83.29,121.07-122.06a5.78,5.78,0,0,1,8.45,7.83c-35.46,45.23-73.74,87.84-112.56,130L2516,1661l-233,252.62-233.73,251.91-234.55,251.16a11.52,11.52,0,0,1-16.89-15.66Z" transform="translate(-715.99 -435.14)"/><path class="cls-4" d="M1181.64,2809.26a11.52,11.52,0,0,1-3-22.63l648-176.31a11.51,11.51,0,1,1,6,22.22l-648,176.31A11.34,11.34,0,0,1,1181.64,2809.26Z" transform="translate(-715.99 -435.14)"/><path class="cls-4" d="M1152.58,3035.3a352.36,352.36,0,0,1,8.38,57.15,344.51,344.51,0,0,1-.75,57.53,262.79,262.79,0,0,1-11.82,56.9,202.12,202.12,0,0,1-26.38,52.63,177.14,177.14,0,0,1-19.27,22.65c-7,7.13-14,13.05-21,19.34l-42.06,36.56c-27.86,24.32-55.22,49-80.55,75.36a517.27,517.27,0,0,0-35.79,41c-11,14.22-20.9,29.21-28,44.87s-11.1,32.22-8,46.69c2.8,14.47,13.22,26.59,27.14,35.61a152.49,152.49,0,0,0,22.74,12.1c8.29,3.81,16.61,7.27,25,10.5s16.8,6.09,25.38,8.66c8.62,2.41,17.31,4.67,26.19,6.6,17.72,3.88,35.9,6.93,54.15,9.94l27.43,4.56c9.15,1.57,18.34,3,27.49,4.73h.07a3.85,3.85,0,0,1-.77,7.63c-37.28-.42-74.44-1.42-112-6.86A297.55,297.55,0,0,1,954.25,3626c-9-3.21-17.94-6.67-26.61-10.39s-18.12-7.88-26.61-13.53a96.3,96.3,0,0,1-23.53-21.22,75.09,75.09,0,0,1-8.77-14.12,69.22,69.22,0,0,1-5.14-16c-2.24-11-1.47-22.09.54-32.36a137.05,137.05,0,0,1,9.89-28.89c8.43-18.08,19.45-34.06,31.11-49.19a540.77,540.77,0,0,1,37.39-42.85c26.13-27.18,54-52.26,82-76.76l42-36.49c6.8-6.07,14-12.24,20-18.37a153.9,153.9,0,0,0,16.77-19.7c20.09-28.3,30.64-63,34-98.46A320.55,320.55,0,0,0,1138,3094a333.39,333.39,0,0,0-7.69-52.91l-.12-.48a11.52,11.52,0,1,1,22.41-5.32Z" transform="translate(-715.99 -435.14)"/><path class="cls-4" d="M955,2520c-13-.07-25.74-.93-38.4-1.76s-25.17-2-37.64-2.62-24.85-1-36.87-.47a139.68,139.68,0,0,0-17.42,1.71c-5.49.95-10.69,2.4-14.33,4.34l-.63.34a10,10,0,0,1-10.16-17.18c7.24-4.73,14.54-6.67,21.51-8a123.1,123.1,0,0,1,20.53-1.74,249,249,0,0,1,39.26,3.4,318.2,318.2,0,0,1,37.85,8.32C931.07,2510,943.3,2514.2,955,2520Z" transform="translate(-715.99 -435.14)"/><g class="cls-9"><rect class="cls-10" x="2056.94" y="1565.98" width="188.51" height="808.88"/><rect class="cls-10" x="2245.44" y="1565.98" width="1.42" height="808.88"/><rect class="cls-10" x="2246.86" y="1565.98" width="1.42" height="808.88"/><rect class="cls-10" x="2248.27" y="1565.98" width="1.42" height="808.88"/><rect class="cls-10" x="2249.69" y="1565.98" width="1.42" height="808.88"/><rect class="cls-10" x="2251.11" y="1565.98" width="1.42" height="808.88"/><rect class="cls-10" x="2252.52" y="1565.98" width="1.42" height="808.88"/><rect class="cls-11" x="2253.94" y="1565.98" width="1.42" height="808.88"/><rect class="cls-11" x="2255.35" y="1565.98" width="1.42" height="808.88"/><rect class="cls-11" x="2256.77" y="1565.98" width="1.42" height="808.88"/><rect class="cls-11" x="2258.18" y="1565.98" width="1.42" height="808.88"/><rect class="cls-11" x="2259.6" y="1565.98" width="1.42" height="808.88"/><rect class="cls-12" x="2261.01" y="1565.98" width="1.42" height="808.88"/><rect class="cls-12" x="2262.43" y="1565.98" width="1.42" height="808.88"/><rect class="cls-12" x="2263.84" y="1565.98" width="1.42" height="808.88"/><rect class="cls-13" x="2265.26" y="1565.98" width="1.42" height="808.88"/><rect class="cls-13" x="2266.68" y="1565.98" width="1.42" height="808.88"/><rect class="cls-13" x="2268.09" y="1565.98" width="1.42" height="808.88"/><rect class="cls-14" x="2269.51" y="1565.98" width="1.42" height="808.88"/><rect class="cls-14" x="2270.92" y="1565.98" width="1.42" height="808.88"/><rect class="cls-14" x="2272.34" y="1565.98" width="1.42" height="808.88"/><rect class="cls-15" x="2273.75" y="1565.98" width="1.42" height="808.88"/><rect class="cls-15" x="2275.17" y="1565.98" width="1.42" height="808.88"/><rect class="cls-15" x="2276.58" y="1565.98" width="1.42" height="808.88"/><rect class="cls-16" x="2278" y="1565.98" width="1.42" height="808.88"/><rect class="cls-16" x="2279.41" y="1565.98" width="1.42" height="808.88"/><rect class="cls-17" x="2280.83" y="1565.98" width="1.42" height="808.88"/><rect class="cls-17" x="2282.25" y="1565.98" width="1.42" height="808.88"/><rect class="cls-18" x="2283.66" y="1565.98" width="1.42" height="808.88"/><rect class="cls-18" x="2285.08" y="1565.98" width="1.42" height="808.88"/><rect class="cls-19" x="2286.49" y="1565.98" width="1.42" height="808.88"/><rect class="cls-19" x="2287.91" y="1565.98" width="1.42" height="808.88"/><rect class="cls-20" x="2289.32" y="1565.98" width="1.42" height="808.88"/><rect class="cls-20" x="2290.74" y="1565.98" width="1.42" height="808.88"/><rect class="cls-21" x="2292.15" y="1565.98" width="1.42" height="808.88"/><rect class="cls-21" x="2293.57" y="1565.98" width="1.42" height="808.88"/><rect class="cls-22" x="2294.98" y="1565.98" width="1.42" height="808.88"/><rect class="cls-22" x="2296.4" y="1565.98" width="1.42" height="808.88"/><rect class="cls-23" x="2297.82" y="1565.98" width="1.42" height="808.88"/><rect class="cls-24" x="2299.23" y="1565.98" width="1.42" height="808.88"/><rect class="cls-25" x="2300.65" y="1565.98" width="1.42" height="808.88"/><rect class="cls-26" x="2302.06" y="1565.98" width="1.42" height="808.88"/><rect class="cls-26" x="2303.48" y="1565.98" width="1.42" height="808.88"/><rect class="cls-27" x="2304.89" y="1565.98" width="1.42" height="808.88"/><rect class="cls-28" x="2306.31" y="1565.98" width="1.42" height="808.88"/><rect class="cls-28" x="2307.72" y="1565.98" width="1.42" height="808.88"/><rect class="cls-29" x="2309.14" y="1565.98" width="1.42" height="808.88"/><rect class="cls-30" x="2310.55" y="1565.98" width="1.42" height="808.88"/><rect class="cls-30" x="2311.97" y="1565.98" width="1.42" height="808.88"/><rect class="cls-31" x="2313.39" y="1565.98" width="1.42" height="808.88"/><rect class="cls-32" x="2314.8" y="1565.98" width="1.42" height="808.88"/><rect class="cls-33" x="2316.22" y="1565.98" width="1.42" height="808.88"/><rect class="cls-34" x="2317.63" y="1565.98" width="1.42" height="808.88"/><rect class="cls-35" x="2319.05" y="1565.98" width="1.42" height="808.88"/><rect class="cls-36" x="2320.46" y="1565.98" width="1.42" height="808.88"/><rect class="cls-37" x="2321.88" y="1565.98" width="1.42" height="808.88"/><rect class="cls-37" x="2323.29" y="1565.98" width="1.42" height="808.88"/><rect class="cls-38" x="2324.71" y="1565.98" width="1.42" height="808.88"/><rect class="cls-39" x="2326.12" y="1565.98" width="1.42" height="808.88"/><rect class="cls-40" x="2327.54" y="1565.98" width="1.42" height="808.88"/><rect class="cls-41" x="2328.96" y="1565.98" width="1.42" height="808.88"/><rect class="cls-41" x="2330.37" y="1565.98" width="1.42" height="808.88"/><rect class="cls-42" x="2331.79" y="1565.98" width="1.42" height="808.88"/><rect class="cls-43" x="2333.2" y="1565.98" width="1.42" height="808.88"/><rect class="cls-44" x="2334.62" y="1565.98" width="1.42" height="808.88"/><rect class="cls-45" x="2336.03" y="1565.98" width="1.42" height="808.88"/><rect class="cls-46" x="2337.45" y="1565.98" width="1.42" height="808.88"/><rect class="cls-46" x="2338.86" y="1565.98" width="1.42" height="808.88"/><rect class="cls-47" x="2340.28" y="1565.98" width="1.42" height="808.88"/><rect class="cls-48" x="2341.69" y="1565.98" width="1.42" height="808.88"/><rect class="cls-49" x="2343.11" y="1565.98" width="1.42" height="808.88"/><rect class="cls-50" x="2344.53" y="1565.98" width="1.42" height="808.88"/><rect class="cls-51" x="2345.94" y="1565.98" width="1.42" height="808.88"/><rect class="cls-52" x="2347.36" y="1565.98" width="1.42" height="808.88"/><rect class="cls-53" x="2348.77" y="1565.98" width="1.42" height="808.88"/><rect class="cls-54" x="2350.19" y="1565.98" width="1.42" height="808.88"/><rect class="cls-55" x="2351.6" y="1565.98" width="1.42" height="808.88"/><rect class="cls-56" x="2353.02" y="1565.98" width="1.42" height="808.88"/><rect class="cls-57" x="2354.43" y="1565.98" width="1.42" height="808.88"/><rect class="cls-58" x="2355.85" y="1565.98" width="1.42" height="808.88"/><rect class="cls-59" x="2357.26" y="1565.98" width="1.42" height="808.88"/><rect class="cls-60" x="2358.68" y="1565.98" width="1.42" height="808.88"/><rect class="cls-61" x="2360.1" y="1565.98" width="1.42" height="808.88"/><rect class="cls-62" x="2361.51" y="1565.98" width="1.42" height="808.88"/><rect class="cls-63" x="2362.93" y="1565.98" width="1.42" height="808.88"/><rect class="cls-64" x="2364.34" y="1565.98" width="1.42" height="808.88"/><rect class="cls-65" x="2365.76" y="1565.98" width="1.42" height="808.88"/><rect class="cls-66" x="2367.17" y="1565.98" width="1.42" height="808.88"/><rect class="cls-67" x="2368.59" y="1565.98" width="1.42" height="808.88"/><rect class="cls-68" x="2370" y="1565.98" width="1.42" height="808.88"/><rect class="cls-69" x="2371.42" y="1565.98" width="1.42" height="808.88"/><rect class="cls-70" x="2372.83" y="1565.98" width="1.42" height="808.88"/><rect class="cls-71" x="2374.25" y="1565.98" width="1.42" height="808.88"/><rect class="cls-72" x="2375.67" y="1565.98" width="1.42" height="808.88"/><rect class="cls-73" x="2377.08" y="1565.98" width="1.42" height="808.88"/><rect class="cls-74" x="2378.5" y="1565.98" width="1.42" height="808.88"/><rect class="cls-75" x="2379.91" y="1565.98" width="1.42" height="808.88"/><rect class="cls-76" x="2381.33" y="1565.98" width="1.42" height="808.88"/><rect class="cls-77" x="2382.74" y="1565.98" width="1.42" height="808.88"/><rect class="cls-78" x="2384.16" y="1565.98" width="1.42" height="808.88"/><rect class="cls-79" x="2385.57" y="1565.98" width="1.42" height="808.88"/><rect class="cls-80" x="2386.99" y="1565.98" width="1.42" height="808.88"/><rect class="cls-81" x="2388.4" y="1565.98" width="1.42" height="808.88"/><rect class="cls-82" x="2389.82" y="1565.98" width="1.42" height="808.88"/><rect class="cls-83" x="2391.24" y="1565.98" width="1.42" height="808.88"/><rect class="cls-84" x="2392.65" y="1565.98" width="1.42" height="808.88"/><rect class="cls-85" x="2394.07" y="1565.98" width="1.42" height="808.88"/><rect class="cls-86" x="2395.48" y="1565.98" width="1.42" height="808.88"/><rect class="cls-87" x="2396.9" y="1565.98" width="1.42" height="808.88"/><rect class="cls-88" x="2398.31" y="1565.98" width="1.42" height="808.88"/><rect class="cls-89" x="2399.73" y="1565.98" width="1.42" height="808.88"/><rect class="cls-90" x="2401.14" y="1565.98" width="1.42" height="808.88"/><rect class="cls-91" x="2402.56" y="1565.98" width="1.42" height="808.88"/><rect class="cls-92" x="2403.97" y="1565.98" width="1.42" height="808.88"/><rect class="cls-93" x="2405.39" y="1565.98" width="1.42" height="808.88"/><rect class="cls-94" x="2406.81" y="1565.98" width="1.42" height="808.88"/><rect class="cls-95" x="2408.22" y="1565.98" width="1.42" height="808.88"/><rect class="cls-96" x="2409.64" y="1565.98" width="1.42" height="808.88"/><rect class="cls-97" x="2411.05" y="1565.98" width="1.42" height="808.88"/><rect class="cls-98" x="2412.47" y="1565.98" width="1.42" height="808.88"/><rect class="cls-99" x="2413.88" y="1565.98" width="1.42" height="808.88"/><rect class="cls-100" x="2415.3" y="1565.98" width="1.42" height="808.88"/><rect class="cls-101" x="2416.71" y="1565.98" width="1.42" height="808.88"/><rect class="cls-102" x="2418.13" y="1565.98" width="1.42" height="808.88"/><rect class="cls-103" x="2419.54" y="1565.98" width="1.42" height="808.88"/><rect class="cls-104" x="2420.96" y="1565.98" width="1.42" height="808.88"/><rect class="cls-105" x="2422.38" y="1565.98" width="1.42" height="808.88"/><rect class="cls-106" x="2423.79" y="1565.98" width="1.42" height="808.88"/><rect class="cls-107" x="2425.21" y="1565.98" width="1.42" height="808.88"/><rect class="cls-108" x="2426.62" y="1565.98" width="1.42" height="808.88"/><rect class="cls-109" x="2428.04" y="1565.98" width="1.42" height="808.88"/><rect class="cls-110" x="2429.45" y="1565.98" width="1.42" height="808.88"/><rect class="cls-111" x="2430.87" y="1565.98" width="1.42" height="808.88"/><rect class="cls-112" x="2432.28" y="1565.98" width="1.42" height="808.88"/><rect class="cls-113" x="2433.7" y="1565.98" width="1.42" height="808.88"/><rect class="cls-114" x="2435.11" y="1565.98" width="1.42" height="808.88"/><rect class="cls-115" x="2436.53" y="1565.98" width="1.42" height="808.88"/><rect class="cls-116" x="2437.95" y="1565.98" width="1.42" height="808.88"/><rect class="cls-117" x="2439.36" y="1565.98" width="1.42" height="808.88"/><rect class="cls-118" x="2440.78" y="1565.98" width="1.42" height="808.88"/><rect class="cls-119" x="2442.19" y="1565.98" width="1.42" height="808.88"/><rect class="cls-120" x="2443.61" y="1565.98" width="1.42" height="808.88"/><rect class="cls-121" x="2445.02" y="1565.98" width="1.42" height="808.88"/><rect class="cls-122" x="2446.44" y="1565.98" width="1.42" height="808.88"/><rect class="cls-123" x="2447.85" y="1565.98" width="1.42" height="808.88"/><rect class="cls-124" x="2449.27" y="1565.98" width="1.42" height="808.88"/><rect class="cls-125" x="2450.68" y="1565.98" width="1.42" height="808.88"/><rect class="cls-126" x="2452.1" y="1565.98" width="1.42" height="808.88"/><rect class="cls-127" x="2453.52" y="1565.98" width="1.42" height="808.88"/><rect class="cls-128" x="2454.93" y="1565.98" width="1.42" height="808.88"/><rect class="cls-129" x="2456.35" y="1565.98" width="1.42" height="808.88"/><rect class="cls-130" x="2457.76" y="1565.98" width="1.42" height="808.88"/><rect class="cls-131" x="2459.18" y="1565.98" width="1.42" height="808.88"/><rect class="cls-132" x="2460.59" y="1565.98" width="1.42" height="808.88"/><rect class="cls-133" x="2462.01" y="1565.98" width="1.42" height="808.88"/><rect class="cls-134" x="2463.42" y="1565.98" width="1.42" height="808.88"/><rect class="cls-135" x="2464.84" y="1565.98" width="1.42" height="808.88"/><rect class="cls-136" x="2466.25" y="1565.98" width="1.42" height="808.88"/><rect class="cls-137" x="2467.67" y="1565.98" width="1.42" height="808.88"/><rect class="cls-138" x="2469.09" y="1565.98" width="1.42" height="808.88"/><rect class="cls-139" x="2470.5" y="1565.98" width="1.42" height="808.88"/><rect class="cls-140" x="2471.92" y="1565.98" width="1.42" height="808.88"/><rect class="cls-141" x="2473.33" y="1565.98" width="1.42" height="808.88"/><rect class="cls-142" x="2474.75" y="1565.98" width="1.42" height="808.88"/><rect class="cls-143" x="2476.16" y="1565.98" width="1.42" height="808.88"/><rect class="cls-144" x="2477.58" y="1565.98" width="1.42" height="808.88"/><rect class="cls-145" x="2478.99" y="1565.98" width="1.42" height="808.88"/><rect class="cls-146" x="2480.41" y="1565.98" width="1.42" height="808.88"/><rect class="cls-147" x="2481.83" y="1565.98" width="1.42" height="808.88"/><rect class="cls-148" x="2483.24" y="1565.98" width="1.42" height="808.88"/><rect class="cls-149" x="2484.66" y="1565.98" width="1.42" height="808.88"/><rect class="cls-150" x="2486.07" y="1565.98" width="1.42" height="808.88"/><rect class="cls-151" x="2487.49" y="1565.98" width="1.42" height="808.88"/><rect class="cls-152" x="2488.9" y="1565.98" width="1.42" height="808.88"/><rect class="cls-153" x="2490.32" y="1565.98" width="1.42" height="808.88"/><rect class="cls-153" x="2491.73" y="1565.98" width="24.21" height="808.88"/></g><path class="cls-154" d="M3084.5,2812.75a2.74,2.74,0,0,1-2.72-2.36c-23.44-165.64-100.62-258.81-168.71-341C2857.24,2402,2809,2343.8,2797,2259c-26.83-189.62,170.14-259.79,172.14-260.47a2.68,2.68,0,0,1,1-.15c2.1.11,210.81,12.87,237.64,202.5,12,84.8-18.18,154.1-53.12,234.33-42.62,97.86-90.93,208.77-67.49,374.41a2.56,2.56,0,0,1,0,.39,2.76,2.76,0,0,1-2.37,2.73Zm-114.05-808.84c-11,4-193.5,73.89-168,254.31,11.78,83.26,59.54,140.91,114.84,207.66,60.14,72.59,127.32,153.69,158.88,285.35C3070,2616,3112,2519.43,3149.67,2433c34.61-79.46,64.5-148.1,52.72-231.36C3176.86,2021.22,2982.15,2004.72,2970.45,2003.91Z" transform="translate(-715.99 -435.14)"/><g class="cls-155"><path class="cls-2" d="M3210.68,2201.25c-26.82-189.56-235.06-200.13-235.06-200.13l-.55.2c61.48,13.25,177.1,56.35,196.62,194.36,22,155.53-101.72,264.43-123.51,463.61,18.76,43.05,33.64,92.37,41.89,150.71C3047.78,2511.07,3237.5,2390.82,3210.68,2201.25Z" transform="translate(-715.99 -435.14)"/></g><path class="cls-156" d="M3043,2509c-24.62-174-176.71-206.9-192.32-317.26s125.69-153.66,125.69-153.66,147.77,2.39,163.39,112.76S3018.35,2335,3043,2509Z" transform="translate(-715.99 -435.14)"/><path class="cls-4" d="M3084.48,2825.93a15.93,15.93,0,0,1-15.74-13.7c-22.92-161.95-98.84-253.59-165.81-334.43-54.74-66.07-106.43-128.47-118.95-217-28.33-200.26,178.79-274.06,180.89-274.78a15.78,15.78,0,0,1,6-.85c2.22.12,221.68,13.55,250,213.81,12.52,88.5-19.83,162.79-54.09,241.44-41.92,96.26-89.43,205.36-66.52,367.31a15.68,15.68,0,0,1,.16,2.25,15.93,15.93,0,0,1-13.7,15.75A15.48,15.48,0,0,1,3084.48,2825.93Zm-112.15-808.69c-24.28,9.22-180,75.11-156.82,239.13,11.26,79.58,57.92,135.9,111.94,201.1C2976,2516,3029,2580,3064.85,2671.13c9.21-97.51,42.38-173.68,72.74-243.39,33.81-77.63,63-144.68,51.76-224.26C3166.14,2039.48,2998.29,2019.37,2972.33,2017.24Z" transform="translate(-715.99 -435.14)"/><path class="cls-157" d="M2752.33,1958.69l24.46,64.52a84.84,84.84,0,0,0,68.22,54h0a509.37,509.37,0,0,0,271.06-38.35h0a84.86,84.86,0,0,0,50.55-70.84l5.6-68.77Z" transform="translate(-715.99 -435.14)"/><g class="cls-3"><path class="cls-4" d="M2796.88,1958.69l24.47,64.52a84.84,84.84,0,0,0,68.22,54c14.92,2,29.89,3.21,44.86,3.86q-21.32.95-42.7.08a509.35,509.35,0,0,0,224.34-42.29h0a84.83,84.83,0,0,0,50.54-70.84l5.09-62.39Z" transform="translate(-715.99 -435.14)"/></g><path class="cls-157" d="M2891.28,2081.61a508.93,508.93,0,0,0,126.22-29.8q12.61-4.76,25-10.16a84.67,84.67,0,0,0,50.57-70.82l5.17-63.44,57.29-8.11-5.64,68.76a84.8,84.8,0,0,1-50.52,70.84q-12.37,5.43-25,10.15A509.6,509.6,0,0,1,2891.28,2081.61Z" transform="translate(-715.99 -435.14)"/><g class="cls-155"><path class="cls-2" d="M2990.69,2061a509.44,509.44,0,0,1-99.4,20.61q11.92.09,23.83-.39A508.83,508.83,0,0,0,2990.69,2061Z" transform="translate(-715.99 -435.14)"/><path class="cls-2" d="M3098.24,1907.39l-.26,3.24,40.84-5.78-5.64,68.76a84.8,84.8,0,0,1-50.52,70.84q-12.37,5.43-25,10.15c-3.6,1.36-7.26,2.55-10.89,3.82,9.27-2.89,18.49-6,27.6-9.39q12.59-4.73,25-10.15a84.8,84.8,0,0,0,50.52-70.84l5.64-68.76Z" transform="translate(-715.99 -435.14)"/></g><path class="cls-158" d="M3312,2031.5c-22.37-26.91-126.47-154.22-214.43-138.35l43.83-157.85a127.27,127.27,0,0,1,13.76.14h0c68.43,4.4,172.66,64,163.29,288.94-.06,1.67-.14,3.35-.22,5.05A3.54,3.54,0,0,1,3312,2031.5Z" transform="translate(-715.99 -435.14)"/><g class="cls-159"><path class="cls-160" d="M3312,2031.5c-22.37-26.91-126.47-154.22-214.43-138.35l43.83-157.85a127.27,127.27,0,0,1,13.76.14l-6.5-.94c6.62,10,14.6,26.51,15.4,43.3,2.94,61.69,9,93.39,44.88,118.21,45,31.12,97.27,94.52,109.53,128.36-.06,1.67-.14,3.35-.22,5.05A3.54,3.54,0,0,1,3312,2031.5Z" transform="translate(-715.99 -435.14)"/></g><g class="cls-155"><path class="cls-2" d="M3304.36,2022.32c5.81,6.62,3.23,3.85,7.67,9.19a3.55,3.55,0,0,0,6.26-2.09c11.93-245-109.34-297.15-176.86-294.12l-4.74,17.09C3200.9,1761.59,3302.26,1836.47,3304.36,2022.32Z" transform="translate(-715.99 -435.14)"/></g><path class="cls-4" d="M3314.68,2049.51a20.09,20.09,0,0,1-15.49-7.32l-1.07-1.28c-104.85-126.34-168.81-136.52-197.56-131.32a16.71,16.71,0,0,1-5.93-32.89c58.64-10.57,128.43,29.09,207.75,117.93-.39-91.75-22-161.4-63.05-202.65-38.17-38.32-80.69-40.73-97.14-40a16.71,16.71,0,0,1-1.5-33.38c21-.94,74.75,2,122.31,49.78,53.6,53.8,77.82,141.9,72,261.84a20.36,20.36,0,0,1-20.3,19.28Z" transform="translate(-715.99 -435.14)"/><path class="cls-158" d="M2723.11,1794.49c-65.71,15.82-171.47,100.11-92.05,332.16a3.55,3.55,0,0,0,6.6.28c14-32.07,82.69-183.82,171.59-193" transform="translate(-715.99 -435.14)"/><g class="cls-3"><path class="cls-4" d="M2697.61,2018.69c29.5-41.56,67.72-79.69,110.7-84.63.13-.32.29-.64.43-1l-85.62-138.61c-18.44,4.44-40,14.27-59.81,31.28C2653.84,1875.84,2660.43,1939.83,2697.61,2018.69Z" transform="translate(-715.99 -435.14)"/></g><path class="cls-4" d="M2634.44,2145.75l-.87,0a20.12,20.12,0,0,1-18.32-13.68c-38.4-112.19-39.25-203-2.54-269.78,33.36-60.73,85.58-79,106.48-84a16.71,16.71,0,0,1,7.83,32.49c-12.94,3.12-57.32,17.2-85,67.63-28.15,51.25-29.84,123.67-5.17,210.8,32.23-65.12,93.38-163.86,170.72-171.84a16.71,16.71,0,0,1,3.43,33.24c-75.78,7.82-140.1,142.09-158,183.06A20.09,20.09,0,0,1,2634.44,2145.75Zm12.43-24.51h0Z" transform="translate(-715.99 -435.14)"/><path class="cls-2" d="M3097,1933.56a610.08,610.08,0,0,1-344.67,25.12S2513,1746,2478.1,1261.47C2437.18,692.61,2751.9,442,2751.9,442s316.34,130.62,458.45,588.61c12,38.55,22.71,79.46,31.9,122.78,30.91,145.58,36.33,272,28.94,377.21-16.71,238.46-99,368.72-99,368.72A611.92,611.92,0,0,1,3097,1933.56Z" transform="translate(-715.99 -435.14)"/><g class="cls-3"><path class="cls-4" d="M2994.4,1838.88l-1.67.1c-105.11,6.16-205.43-45.83-262.22-134.49-70.69-110.34-154-305.59-161.94-583.28-2.17-75.78,57.73-174.72,139.76-218.37C2882,810.4,3076,830.67,3071.81,796.3c-6.48-53-500.48-5.81-490.49-47.22-50,127.73-85.26,297.3-69.8,512.37,34.85,484.57,274.22,697.25,274.22,697.25a609.5,609.5,0,0,0,113.31,13.64,609.67,609.67,0,0,0,273.19-73.06s26.29-41.68,52.17-121A610.73,610.73,0,0,1,2994.4,1838.88Z" transform="translate(-715.99 -435.14)"/></g><path class="cls-158" d="M2504.53,889.7a1472.43,1472.43,0,0,1,609.22-86.2C2959.4,527.62,2751.87,442,2751.87,442S2576.29,581.83,2504.53,889.7Z" transform="translate(-715.99 -435.14)"/><g class="cls-155"><path class="cls-2" d="M2751.87,442s-33.62,26.78-77.45,82.7c29.43-33.18,49.6-49.28,49.6-49.28S2913.28,553.64,3064.76,801c16.33.6,32.66,1.37,49,2.51C2959.4,527.62,2751.87,442,2751.87,442Z" transform="translate(-715.99 -435.14)"/></g><g class="cls-3"><path class="cls-4" d="M3105.21,788.56C2957.56,763.47,2848,749.23,2720.15,766c-52.75,6.94-93.94-45.15-74.18-94.55,26.67-66.65,57.32-124.84,87.12-171.74-55.77,63.64-142.56,186.86-190.47,376.63a1471.54,1471.54,0,0,1,571.14-72.85C3111,798.47,3108.1,793.47,3105.21,788.56Z" transform="translate(-715.99 -435.14)"/></g><path class="cls-4" d="M2504.54,909.19a19.5,19.5,0,0,1-19-23.92c52.8-226.51,160.11-363.94,219.39-425.69a79.07,79.07,0,0,1,96.91-13.72C2875.94,488.75,3017.2,591,3130.76,794a19.49,19.49,0,0,1-18.37,29A1443.41,1443.41,0,0,0,2511.24,908,19.53,19.53,0,0,1,2504.54,909.19Zm257.57-435a40.19,40.19,0,0,0-29.05,12.42c-53.42,55.66-147.82,176-200.79,372.68a1480.42,1480.42,0,0,1,546.38-77.31c-105.46-174.28-229.56-263.69-296.33-302.35A40.31,40.31,0,0,0,2762.11,474.15Z" transform="translate(-715.99 -435.14)"/><path class="cls-4" d="M2882,1992.18a629,629,0,0,1-133.79-14.43,19.43,19.43,0,0,1-8.81-4.48c-2.54-2.25-63-56.65-128.08-171.9-59.57-105.51-134.4-284.58-152.66-538.48-9.57-133.13-.54-260.18,26.85-377.61a19.48,19.48,0,0,1,12.78-14,1482.08,1482.08,0,0,1,616.82-87.17,19.5,19.5,0,0,1,15.65,9.92c58.89,105.22,102.81,224.77,130.55,355.34,52.89,249,30.69,441.8,2.74,559.7-30.52,128.76-73.53,197.8-75.34,200.68a19.47,19.47,0,0,1-7.22,6.74A630.48,630.48,0,0,1,2882,1992.18Zm-120.25-51.4a590.81,590.81,0,0,0,396.47-56.1c9.39-16.47,43.55-80.9,68.38-186.68,26.68-113.66,47.75-299.71-3.42-540.58-26.11-122.92-66.92-235.63-121.33-335.18a1442.8,1442.8,0,0,0-580.72,82.17c-24.66,110.75-32.6,230.35-23.59,355.68,17.67,245.61,89.53,418.51,146.7,520.31C2697.44,1875.1,2748.13,1927.53,2761.75,1940.78Z" transform="translate(-715.99 -435.14)"/><path class="cls-4" d="M2911.8,2101.14a528.89,528.89,0,0,1-69.34-4.57,104.22,104.22,0,0,1-83.89-66.45l-24.46-64.52a19.49,19.49,0,1,1,36.44-13.82L2795,2016.3a65.27,65.27,0,0,0,52.55,41.62A489.84,489.84,0,0,0,3108.25,2021a65.3,65.3,0,0,0,38.94-54.57l5.6-68.78a19.49,19.49,0,0,1,38.86,3.17l-5.6,68.78a104.22,104.22,0,0,1-62.17,87.11A528.92,528.92,0,0,1,2911.8,2101.14Z" transform="translate(-715.99 -435.14)"/><path class="cls-158" d="M2886.87,1921.82c11.8,83.3,89.35,156,89.35,156s.21-.35.56-1c5.79-10.08,53.06-95.42,42-173.64-10.61-75.07-73.42-127.7-85-136.84-1.2-.93-1.85-1.41-1.85-1.41S2875.12,1839.1,2886.87,1921.82Z" transform="translate(-715.99 -435.14)"/><g class="cls-155"><path class="cls-2" d="M2965.07,2077.8s-3.3-3.09-8.61-8.72c17.12-39.7,37.82-102.79,29.43-162.32-8.31-58.87-44.28-105.83-70.9-133.44,3.55-5.42,5.82-8.39,5.82-8.39s.65.47,1.84,1.4c11.6,9.15,74.43,61.78,85,136.84,11,78.23-36.25,163.58-42,173.65C2965.29,2077.45,2965.07,2077.8,2965.07,2077.8Z" transform="translate(-715.99 -435.14)"/></g><g class="cls-159"><path class="cls-161" d="M2886.87,1921.82c11.8,83.3,89.35,156,89.35,156s.21-.35.56-1l-43-310.48c-1.2-.93-1.85-1.41-1.85-1.41S2875.12,1839.1,2886.87,1921.82Z" transform="translate(-715.99 -435.14)"/></g><path class="cls-4" d="M2976.22,2094.52a16.68,16.68,0,0,1-11.43-4.52c-3.34-3.13-82-77.72-94.47-165.82-12.58-88.67,45.87-166.15,48.37-169.4a16.7,16.7,0,0,1,23.18-3.28c3.3,2.43,81,60.66,93.47,149.33,12.44,88.1-42.42,181.59-44.76,185.53a16.72,16.72,0,0,1-12,8A16.94,16.94,0,0,1,2976.22,2094.52Zm-40.72-304.64c-14.61,24.34-39.76,75.55-32.1,129.61,7.69,54.24,46.63,104.85,68.79,129.84,14.35-30.16,37.72-89.58,30.06-143.82S2956.29,1809.14,2935.5,1789.88Z" transform="translate(-715.99 -435.14)"/><g class="cls-3"><circle class="cls-4" cx="2827.24" cy="1141.53" r="218.95" transform="translate(-695.09 1898.36) rotate(-45)"/></g><circle class="cls-157" cx="2132.39" cy="688.81" r="196.9"/><g class="cls-155"><path class="cls-2" d="M3043.33,1096.37C3028.09,988.7,2928.46,913.76,2820.79,929a196.1,196.1,0,0,0-122.26,67.28,196,196,0,0,1,100-45c107.67-15.23,207.31,59.7,222.54,167.37a196.37,196.37,0,0,1-45.12,155.26A196.7,196.7,0,0,0,3043.33,1096.37Z" transform="translate(-715.99 -435.14)"/></g><g class="cls-3"><path class="cls-4" d="M2647.87,1157.12c15.23,107.63,114.83,182.61,222.51,167.37a196.1,196.1,0,0,0,90.08-37.08,199,199,0,0,1-43,11.1c-107.68,15.24-207.32-59.69-222.56-167.37a196.78,196.78,0,0,1,77.37-185.48A196.94,196.94,0,0,0,2647.87,1157.12Z" transform="translate(-715.99 -435.14)"/></g><path class="cls-4" d="M2847.93,1334.81a210.94,210.94,0,0,1-208.3-181.33h0a210.82,210.82,0,1,1,238.28,179.21A213.68,213.68,0,0,1,2847.93,1334.81Zm.83-393.87a185.83,185.83,0,0,0-26,1.84,183,183,0,0,0-155.54,206.8c12.91,91.24,91.43,157.35,181.05,157.36a184.59,184.59,0,0,0,25.76-1.82c99.89-14.14,169.66-106.91,155.53-206.8a183.06,183.06,0,0,0-180.78-157.38Z" transform="translate(-715.99 -435.14)"/><circle class="cls-162" cx="2850.36" cy="1121.3" r="125.26" transform="translate(-674.02 1908.79) rotate(-45)"/><g class="cls-159"><path class="cls-2" d="M2726.32,1138.86a125.25,125.25,0,0,0,141.59,106.46,123.76,123.76,0,0,0,41.21-13.38c-1.37.25-2.74.46-4.15.68A125.28,125.28,0,0,1,2828.64,998,125.27,125.27,0,0,0,2726.32,1138.86Z" transform="translate(-715.99 -435.14)"/></g><g class="cls-3"><path class="cls-4" d="M2782.18,1014.41c2.12-.38,4.23-.76,6.39-1.06a125.26,125.26,0,0,1,81.56,231.71,125.27,125.27,0,1,0-88-230.65Z" transform="translate(-715.99 -435.14)"/></g><path class="cls-4" d="M2850.27,1260.5c-68.17,0-127.9-50.29-137.72-119.7h0a139.19,139.19,0,0,1,118.32-157.31c75.94-10.73,146.56,42.33,157.3,118.31a139.19,139.19,0,0,1-118.31,157.32A139.91,139.91,0,0,1,2850.27,1260.5Zm.17-250.55a112.43,112.43,0,0,0-15.67,1.11,111.34,111.34,0,0,0-94.65,125.84h0a111.34,111.34,0,1,0,110.32-127Z" transform="translate(-715.99 -435.14)"/><g class="cls-3"><path class="cls-4" d="M2866.23,2228.22c-6.05-45.94,26.46-87.57,72.23-94.75,115.93-18.2,173.75-72.47,173.75-72.47h-41.64l-171.22,18c.17-.27.34-.55.52-.82l-41.55-3.49,24.42,2.05c-37.32,40.75-66.58,99.38-55.15,180.15,22.52,159.13,178.07,229,252.46,424.19a551.12,551.12,0,0,1,13.19-83.62c-79.72-153.32-206.51-224.25-226.66-366.71C2866.46,2229.91,2866.34,2229.06,2866.23,2228.22Z" transform="translate(-715.99 -435.14)"/></g></svg>