<svg id="Layer_1" data-name="Layer 1" xmlns="http://www.w3.org/2000/svg" viewBox="0 0 2109.85 3377.65"><defs><style>.cls-1{fill:#fff;}.cls-2{fill:#d8d8d8;}.cls-3{fill:#232323;}.cls-4{fill:#a6aacc;}.cls-5{opacity:0.55;}.cls-6{opacity:0.3;}.cls-7{fill:#22a7f0;}.cls-8{fill:#020202;}.cls-9{opacity:0.35;}.cls-10{fill:#b2b6d8;}.cls-11{fill:none;stroke:#232323;stroke-linecap:round;stroke-linejoin:round;stroke-width:42.01px;}.cls-12{fill:#ffb200;}.cls-13{fill:#d66b09;}.cls-14{fill:#371a45;}.cls-15{fill:#ffc536;}.cls-16{fill:#ffec90;}.cls-17{opacity:0.41;}</style></defs><title>astronaut3</title><path class="cls-1" d="M1620,2181.23l25,128.3,51,174.85,39.3,134.5,18.2,62.35s10.25,22.5,27.75,51.85c35.8,60,102.1,148.8,173.7,133.15,37.15-8.15,41-109.4,30.15-237.95-.25-2.75-.5-5.55-.75-8.35-5.05-57.45-13-119.95-22-181.85-28.65-196.65-69.1-386.85-69.1-386.85l-139.8-41.7S1598.35,2016.23,1620,2181.23Z" transform="translate(-924.31 -325.86)"/><polyline class="cls-2" points="1229.34 343.64 1821.36 1425.79 1762.69 1456.3 1187.34 377.65"/><path class="cls-3" d="M2687,1797.84a15.69,15.69,0,0,1-13.85-8.3L2097.81,710.89a15.68,15.68,0,1,1,27.67-14.76l568.05,1064.95,30.69-16L2139.89,677a15.68,15.68,0,1,1,27.51-15l592,1082.14a15.7,15.7,0,0,1-6.52,21.44l-58.67,30.51A15.62,15.62,0,0,1,2687,1797.84Z" transform="translate(-924.31 -325.86)"/><path class="cls-4" d="M1653.5,525c21.4,40.3,75.55,74,208.45,39.25l68.9-13.65a54.08,54.08,0,0,1,55.6,23.1l79.8,120A37.64,37.64,0,0,0,2117.2,705l25.2-15.5a37.56,37.56,0,0,0,13.4-49.9c-26.2-48.25-77.3-140.7-108.5-197a181.86,181.86,0,0,0-97.85-83.45c-63.1-22.4-159.6-34.85-255.4,37.65-5.75,4.3-11.45,9-17.2,13.9C1644,439.18,1633.1,486.63,1653.5,525Z" transform="translate(-924.31 -325.86)"/><g class="cls-5"><path class="cls-1" d="M1646.7,458.13a96.8,96.8,0,0,1,15.15-16.6c101.3-87.9,205.7-75.3,272.6-51.55a181.86,181.86,0,0,1,97.85,83.45c31.2,56.3,82.3,148.75,108.5,197a38.12,38.12,0,0,1,4.55,17.05,37.51,37.51,0,0,0,10.45-47.9c-26.2-48.25-77.3-140.7-108.5-197a181.86,181.86,0,0,0-97.85-83.45c-66.9-23.75-171.3-36.3-272.6,51.55A98.26,98.26,0,0,0,1646.7,458.13Z" transform="translate(-924.31 -325.86)"/></g><path class="cls-3" d="M2097.49,726.27a53.08,53.08,0,0,1-44.28-23.82l-79.81-120A38.23,38.23,0,0,0,1933.93,566l-68.47,13.59c-145.72,38-203.23-4.68-225.81-47.19-23.21-43.72-11.9-99.89,26.92-133.56,106-92,215.19-80.39,288.11-54.47A197.22,197.22,0,0,1,2061,435c35.62,64.31,83.35,150.71,108.54,197.12a53.22,53.22,0,0,1-18.93,70.74l-25.23,15.49A53.18,53.18,0,0,1,2097.49,726.27Zm-156-192.38a69.48,69.48,0,0,1,58,31.16l79.82,120a21.79,21.79,0,0,0,29.66,6.53l25.23-15.49a21.86,21.86,0,0,0,7.78-29.06h0c-25.13-46.31-72.83-132.63-108.41-196.89a165.86,165.86,0,0,0-89.41-76.25c-65.06-23.12-162.46-33.46-257.07,48.61-27.88,24.19-36.19,64.22-19.76,95.17,31.33,59,121,49.66,190.64,31.43.3-.08.6-.15.91-.21l68.92-13.68A70.32,70.32,0,0,1,1941.53,533.89Z" transform="translate(-924.31 -325.86)"/><path class="cls-3" d="M1938.26,2883.71c-108.49,0-195.14-187.54-199-196a17,17,0,0,1-.78-2.1L1630,2313.94a13,13,0,0,1-.34-1.4l-25-128.33c-.06-.32-.11-.64-.16-1-7.24-55.16,3.3-100.05,31.34-133.43,43.86-52.21,114.1-55.81,117.07-55.94a15.68,15.68,0,0,1,1.37,31.33c-1.08.06-59.93,3.51-94.6,45-21.94,26.26-30.06,62.76-24.15,108.51l24.77,127.14,108,369.88c25.47,55.4,106.52,192,183.38,175.18,5.37-1.18,50.86-22.33-3-398.58-28.34-198-70.24-395.87-70.66-397.84a15.68,15.68,0,1,1,30.67-6.53c.42,2,42.53,200.74,71,399.79,52.79,368.8,16.33,425.55-21.34,433.79A93.87,93.87,0,0,1,1938.26,2883.71Z" transform="translate(-924.31 -325.86)"/><path class="cls-1" d="M1854.44,2320.38H1648.16l-29.81,43.28a64.84,64.84,0,0,0-9.45,52.73L1647,2566.55a68.07,68.07,0,0,0,66,51.33h193.71" transform="translate(-924.31 -325.86)"/><g class="cls-6"><path class="cls-3" d="M1735.35,2618.88l18.2,62.35s10.25,22.5,27.75,51.85c35.8,60,102.1,148.8,173.7,133.15,37.15-8.15,41-109.4,30.15-237.95-.25-2.75-.5-5.55-.75-8.35l-17.75-22Z" transform="translate(-924.31 -325.86)"/></g><path class="cls-1" d="M1608.9,2416.38l4.5,17.8,33.6,132.35a68,68,0,0,0,66,51.35h193.7l-29.75-169.65-22.45-127.85h-206.3l-29.8,43.3A64.76,64.76,0,0,0,1608.9,2416.38Z" transform="translate(-924.31 -325.86)"/><path class="cls-3" d="M1906.66,2633.56H1713a83.68,83.68,0,0,1-81.18-63.16l-38.08-150.16a80.52,80.52,0,0,1,11.73-65.47l29.82-43.29a15.71,15.71,0,0,1,12.91-6.78h206.28a15.68,15.68,0,0,1,0,31.36h-198l-25.14,36.5a49.12,49.12,0,0,0-7.16,40l38.08,150.16A52.35,52.35,0,0,0,1713,2602.2h193.7a15.68,15.68,0,0,1,0,31.36Z" transform="translate(-924.31 -325.86)"/><path class="cls-1" d="M1820,3419.53s-31.65,136.7,85,141.7h211.1c20,0,39.75-5.95,55.55-18.15,32.1-24.75,34.8-62.85-35.4-133.95l65.4-214.6,105.85-215s1.65,4.25,4.6,11.35c8.85,21.45,29.5,68.8,52.05,102l3.15,358.85c.4,44.15,31.25,82.45,74.5,91.35,2.65.55,5.35,1.05,8.2,1.45h225.85c113.3-2.5,179-93.15,22.5-171.65l7.5-237.5,10.8-102.5s28.9-441.7-8.05-584.15c-13.9-53.6-43.1-126.05-74.1-195.55-2.55-5.65-5.05-11.3-7.6-16.9-49.25-108.6-100.25-205.55-100.25-205.55s-45.8-61.2-145.4-109.5L1836.65,2036s-95,68.8,56.7,368.7l13.3,144.15s-31.65,84.05-13.3,257.4,11.65,273.3-10,323.3c-20.5,47.3-58.9,264.5-63,287.95C1820.1,3418.83,1820,3419.53,1820,3419.53Z" transform="translate(-924.31 -325.86)"/><path class="cls-1" d="M2420,1921.23l171.25,39.15H2715l288.94,116.5s79.24,240.33-312.35,201.29-252.84-221.54-252.84-221.54" transform="translate(-924.31 -325.86)"/><g class="cls-6"><path class="cls-3" d="M2502.4,2234.73c41.95,19.15,102.6,34.8,189.2,43.45,391.6,39.05,312.35-201.3,312.35-201.3l-282.3-113.8c-47.25,28-110,63.9-159.2,87.9C2599.1,2099.68,2562,2189.68,2502.4,2234.73Z" transform="translate(-924.31 -325.86)"/></g><path class="cls-3" d="M2772.13,2298.14q-38.28,0-82.1-4.37c-158.37-15.79-253.22-57.21-281.93-123.13-27.27-62.61,16.3-121,18.17-123.5a15.68,15.68,0,1,1,25,19c-.31.42-34.33,46.59-14.28,92.23,16.49,37.53,74.32,86.09,256.2,104.22,137.82,13.74,233.15-6.87,275.66-59.61,34.23-42.45,26.21-95.88,22-114.48L2712,1976.06H2591.25a15.84,15.84,0,0,1-3.5-.39l-171.25-39.15a15.69,15.69,0,0,1,7-30.58L2593,1944.7h122a15.68,15.68,0,0,1,5.86,1.14l288.94,116.5a15.66,15.66,0,0,1,9,9.63c1.14,3.44,27.14,84.89-25.36,150.37C2953.05,2272.75,2878.76,2298.13,2772.13,2298.14Z" transform="translate(-924.31 -325.86)"/><path class="cls-4" d="M2845,2170.38l29.65,57.7,30.35,59.05a42.13,42.13,0,0,0,30.3,22.35q56.1,9.38,79.3-39a41.58,41.58,0,0,0-1.8-38.4l-36.7-64.3-21.35-37.45s-.85-33.4-25.9-43.25-48.25-11.7-51.95-9.2Z" transform="translate(-924.31 -325.86)"/><path class="cls-3" d="M2116.11,3576.89H1904.33c-35.66-1.53-62.85-14.28-80.8-37.89-34.76-45.69-20.46-115.51-18.91-122.51,2.5-14.38,42.41-242.58,64.33-293.17,22.48-51.89,25.44-158,8.79-315.45s7.06-242.68,13-260.94L1878,2409.08c-63.3-125.78-92.07-227.57-85.5-302.59,5.27-60.08,31.94-81,35-83.23a15.78,15.78,0,0,1,6-2.65L2378,1905.87a15.65,15.65,0,0,1,10.08,1.24c101.83,49.42,149.15,111.6,151.11,114.22a14.31,14.31,0,0,1,1.33,2.1c5.95,11.31,146.27,278.73,183.25,421.34,37.14,143.29,9.71,571,8.52,589.13,0,.21,0,.42,0,.63l-10.77,101.92-7.17,227c91.52,48.73,96.26,97.19,90.63,122.18-9.71,43.11-61.45,73.07-128.77,74.55H2450a14.92,14.92,0,0,1-2.32-.18c-3.13-.47-6.14-1-9-1.61-50-10.28-86.56-55.1-87-106.56l-3.09-354.19c-16.65-25.41-31.87-57-42.18-80.3l-90.06,182.94L2154,3404.86c39.36,41.33,56.84,74.23,54.9,103.08-1.23,18.37-10.52,34.37-27.6,47.57C2163.39,3569.3,2140.26,3576.89,2116.11,3576.89Zm-210.77-31.36h210.77c17.25,0,33.58-5.27,46-14.84,9.94-7.68,14.86-15.58,15.48-24.85.94-13.9-7.41-40.05-52.47-85.69a15.67,15.67,0,0,1-3.84-15.59L2186.67,3190a14.72,14.72,0,0,1,.93-2.35l105.83-215a15.68,15.68,0,0,1,28.7,1.28c.26.68,26.39,68,55,110.17a15.54,15.54,0,0,1,2.71,8.67L2383,3451.6c.33,36.79,26.39,68.81,62,76.13q3,.63,6.25,1.13h224.63c50.66-1.12,92.24-22.18,98.53-50.08,6.36-28.25-24.69-62.6-83.06-91.89a15.67,15.67,0,0,1-8.64-14.5l7.5-237.5c0-.39,0-.77.08-1.16l10.8-102.17c.88-13.7,27.88-442-7.61-578.92-34.82-134.32-169.44-393.18-180-413.37-5.91-7.39-49.28-59.23-134.26-101.6l-535,112.74c-11,12.2-66.1,91.54,63.2,347.19a15.85,15.85,0,0,1,1.62,5.63l13.33,144.15a15.6,15.6,0,0,1-.94,7c-.29.78-30,83.58-12.41,250.21,17.47,165.17,13.8,273.51-11.21,331.22-16.55,38.19-48,204.07-62.27,286.45,0,.28-.11.57-.18.86-.13.58-13.67,61.68,13.28,97C1860.71,3536,1879.29,3544.35,1905.34,3545.53Z" transform="translate(-924.31 -325.86)"/><path class="cls-1" d="M2623.15,1872.88c8.3,30.45,27,69.35,61.15,118.95l196.2-115.55c34.75-47.3,11.85-98.35-29-126.2a.15.15,0,0,1-.05-.1c-40.8-27.85-99.6-32.55-136.45,12.9C2715,1762.88,2591.05,1755.23,2623.15,1872.88Z" transform="translate(-924.31 -325.86)"/><polyline class="cls-2" points="1794.44 1534.48 1815.11 1578.96 1862.57 1534.48 1815.11 1507.26"/><g class="cls-6"><path class="cls-3" d="M2623.15,1872.88c8.3,30.45,27,69.35,61.15,118.95l7-4.1c42.75-134.1,141.8-122.75,186.35-109.8l2.85-1.65c34.75-47.3,11.85-98.35-29-126.2.8,3.75,23.65,111.8-110.25,42.3C2741.25,1792.38,2718.75,1864.08,2623.15,1872.88Z" transform="translate(-924.31 -325.86)"/></g><path class="cls-1" d="M2204.6,2356.23l99,208.9a37.28,37.28,0,0,0,46.9,18.9l196.15-74.1,67.15-25.4,94.8-35.8a37.35,37.35,0,0,0,22.4-46.2l-53-167.25-3.95-12.4-47.15,13.4Z" transform="translate(-924.31 -325.86)"/><circle class="cls-7" cx="2407.91" cy="2367.46" r="47.08" transform="translate(-1893.09 2070.21) rotate(-45)"/><path class="cls-3" d="M2337.55,2602.09a53.34,53.34,0,0,1-48.12-30.25l-99-208.89a15.69,15.69,0,0,1,9.88-21.8l469.45-133.35a15.68,15.68,0,0,1,19.23,10.34l56.94,179.65a53,53,0,0,1-31.78,65.59l-358.1,135.34A52.26,52.26,0,0,1,2337.55,2602.09Zm-110.84-235.83,91.06,192.15a21.77,21.77,0,0,0,27.21,11L2703.07,2434a21.65,21.65,0,0,0,13-26.78l-52.34-165.14Z" transform="translate(-924.31 -325.86)"/><path class="cls-3" d="M2433.44,2561.3a69.86,69.86,0,0,1-63.55-40.83l-73.77-162.42a12.5,12.5,0,1,1,22.76-10.34l73.77,162.42a44.76,44.76,0,0,0,56.44,23.3l1.48-.56a12.5,12.5,0,0,1,8.85,23.38l-1.49.56A69.12,69.12,0,0,1,2433.44,2561.3Z" transform="translate(-924.31 -325.86)"/><path class="cls-3" d="M2542.61,2522.73a12.52,12.52,0,0,1-11.53-7.66l-32.72-77.79a55.24,55.24,0,0,1,12.43-61.33l27.19-26.51a12.43,12.43,0,0,0,3.26-12.46l-12.09-40.83a12.5,12.5,0,1,1,24-7.09l12.09,40.82a37.38,37.38,0,0,1-9.78,37.47l-27.19,26.5a30.38,30.38,0,0,0-6.83,33.74l32.72,77.79a12.5,12.5,0,0,1-11.52,17.35Z" transform="translate(-924.31 -325.86)"/><path class="cls-3" d="M2407.92,2427.05a59.59,59.59,0,1,1,59.58-59.59A59.65,59.65,0,0,1,2407.92,2427.05Zm0-94.17a34.59,34.59,0,1,0,34.58,34.58A34.62,34.62,0,0,0,2407.92,2332.88Z" transform="translate(-924.31 -325.86)"/><path class="cls-1" d="M2268.33,2367.46l28,61.32c10.92,23.87,1.48,52.33-21.8,64.48-94.38,49.28-210.38,69.52-354,52.62a57.43,57.43,0,0,1-49-43.36l-5.86-23.87c-8.89-36.18,18.45-71.42,55.7-71.2,120.4.72,227.32-18,322-54.57" transform="translate(-924.31 -325.86)"/><path class="cls-3" d="M2015.65,2567.34a831.44,831.44,0,0,1-97-5.88,73.4,73.4,0,0,1-62.37-55.19l-5.87-23.88a72.9,72.9,0,0,1,13.67-62.95,72.07,72.07,0,0,1,56.91-27.67h.44c116.11.63,222.42-17.32,316.23-53.52a15.68,15.68,0,0,1,20.27,9,15.47,15.47,0,0,1,.92,7.71,16,16,0,0,1,2.94-1.75,15.68,15.68,0,0,1,20.78,7.74l28,61.32a65.11,65.11,0,0,1-28.81,84.9C2205.12,2547.2,2115.89,2567.34,2015.65,2567.34ZM1921,2423.13a40.93,40.93,0,0,0-32.3,15.73,41.73,41.73,0,0,0-7.83,36l5.86,23.88a41.89,41.89,0,0,0,35.58,31.53c135.84,16,248.69-.68,345-50.95a33.75,33.75,0,0,0,14.79-44.06l-28-61.32a15.62,15.62,0,0,1-1.28-8.58,16,16,0,0,1-3.81,2.11c-97.49,37.62-207.94,56.47-327.71,55.62Z" transform="translate(-924.31 -325.86)"/><path class="cls-1" d="M1968.35,2296.23c120.85,45,236.7,69.4,345.4,64,46.85-2.3,92.95-12.5,136.85-29.05,3.1-1.15,6.25-2.4,9.35-3.65s6.2-2.5,9.3-3.8c66.6-28.15,153.1-64.7,226.25-95.55l14.45-6.1c19-8,36.9-15.6,53.05-22.4l17.35-7.35c14.75-6.25,27.55-11.65,37.7-15.9l7.1-3c12.1-5.15,19-8,19-8,23.5-103.4,104.2-101.65,110.6-35.05,93.95-48,51.15-161.6-22.25-221.45a232.5,232.5,0,0,0-35.7-24.6c-82.85-46-153.2-7.15-185.35,56a171.78,171.78,0,0,0-16.45,50.15c-115.9,15.1-224.15,38.2-317.5,76.95-61.25,13.9-118.15,1.55-172.5-26.1l-172.6,186Z" transform="translate(-924.31 -325.86)"/><path class="cls-3" d="M2212.11,2027.24c25.35,12.91,52,22.69,79.45,27.21A212.37,212.37,0,0,0,2374,2052l-2.53.81c51.52-21.31,104.87-37.08,158.71-49.48s108.27-21.4,162.77-28.53l-13.44,13a186.66,186.66,0,0,1,29-73.5c14.89-22.07,35.31-41.27,60.26-53.07,24.83-12,53.76-15.46,80.49-10.67s51.31,16.32,72.67,30.89l7.95,5.57c2.6,1.9,5.07,3.93,7.61,5.89,5.06,3.9,10,8.06,14.81,12.44a249.8,249.8,0,0,1,26.6,28.31c16.17,20.23,29.56,43,37.87,68.37a145.94,145.94,0,0,1,7.37,39.94c.47,13.8-1.06,28.18-6.09,41.73a102.46,102.46,0,0,1-22.71,36.27c-9.88,10.23-21.51,18.1-33.51,24.3a15.63,15.63,0,0,1-21.07-6.72,15.45,15.45,0,0,1-1.66-5.54l0-.2a52.33,52.33,0,0,0-4.37-17,30.87,30.87,0,0,0-9.18-11.62c-7.33-5.19-17.13-5.47-26.94-.09s-18.49,15.18-24.88,26.85c-6.54,11.62-11,25-14.28,38.78l0,.09a16.36,16.36,0,0,1-9.19,11q-105.39,46.47-211.47,91.25L2532.75,2316l-53.15,22.14a512.32,512.32,0,0,1-55.94,20c-38.13,11-77.9,17.53-117.58,18.23-39.4,1.06-78.68-2-117.29-8-77.25-12.27-151.69-36.17-222.2-67.45a5,5,0,0,1,3.49-9.37c36.72,11,73.53,21.14,110.58,29.69a1037.2,1037.2,0,0,0,111.87,19.38c18.75,1.92,37.5,3.58,56.26,4.29s37.5.71,56.16-.24c37.09-1.34,73.62-8.07,109-19a486.14,486.14,0,0,0,52.22-19.33l52.93-22.67,106.11-44.73q106.05-44.9,212.85-88l-9.19,11,0-.11c3.78-16,9-32,17.51-47.15s20.12-29.6,37.37-39.13a60.69,60.69,0,0,1,29.54-7.66,53.14,53.14,0,0,1,30.53,9.88,62.07,62.07,0,0,1,19.32,23.81,83.57,83.57,0,0,1,7.17,27.28l-22.74-12.46c9.55-4.94,18.28-10.94,25.29-18.22a70.91,70.91,0,0,0,15.69-25c6.74-18.66,5.22-40.67-1.6-61.43s-18.33-40.73-32.48-58.39a219.55,219.55,0,0,0-23.26-24.75c-4.17-3.83-8.53-7.47-13.09-11-2.27-1.75-4.49-3.59-6.79-5.28l-7-4.87c-18.68-12.78-39.23-22.17-60.37-25.94a102.1,102.1,0,0,0-61.74,8.08c-19.12,9-35.5,24.17-47.72,42.3a155.33,155.33,0,0,0-24.08,61.06,15.74,15.74,0,0,1-13.45,13c-53.76,7-107.21,15.9-159.79,28s-104.28,27.43-153.72,47.88a16.85,16.85,0,0,1-2.53.8,244,244,0,0,1-94.56,2.79c-31.27-5.18-61-16.19-88.53-30.2a15.68,15.68,0,0,1,14.22-28Z" transform="translate(-924.31 -325.86)"/><path class="cls-3" d="M2563.37,2296.49a12.75,12.75,0,0,1-2.37-.22,12.51,12.51,0,0,1-9.92-14.64c26.56-137.88-90.68-235-91.87-236a12.5,12.5,0,0,1,15.74-19.43c5.32,4.31,130.12,107.29,100.68,260.11A12.5,12.5,0,0,1,2563.37,2296.49Z" transform="translate(-924.31 -325.86)"/><path class="cls-3" d="M2128.7,3422.87a102.37,102.37,0,0,0-9.72-5.08c-3.51-1.7-7.17-3.17-10.85-4.65s-7.48-2.66-11.24-4c-3.84-1.06-7.66-2.26-11.54-3.23a176.93,176.93,0,0,0-47.75-5.36,166.33,166.33,0,0,0-48,7.7c-8,2-15.44,5.54-23.08,8.72-3.92,1.42-7.39,3.7-11.07,5.63l-11,6-.46.25a5,5,0,0,1-5.25-8.46l10.78-7.49c3.65-2.44,7.11-5.22,11.07-7.17,7.72-4.23,15.36-8.79,23.71-11.9,16.26-7.25,33.85-11.65,51.7-13.92a200.44,200.44,0,0,1,54.15.41c4.49.65,9,1.53,13.45,2.3,4.44,1,8.91,2,13.33,3.19s8.83,2.51,13.21,4.08a130.94,130.94,0,0,1,13.59,5.45,15.71,15.71,0,1,1-13.31,28.46,14.92,14.92,0,0,1-1.48-.79Z" transform="translate(-924.31 -325.86)"/><path class="cls-3" d="M2200.6,3210.5a12.42,12.42,0,0,1-5.9-1.49c-1.68-.9-169.66-89.48-317.64-35a12.5,12.5,0,1,1-8.64-23.45c158.69-58.48,330.87,32.48,338.12,36.38a12.5,12.5,0,0,1-5.94,23.51Z" transform="translate(-924.31 -325.86)"/><path class="cls-3" d="M2514.23,3205.26c-50.95,0-105.87-11.86-156.7-47.08a12.5,12.5,0,0,1,14.24-20.55c139.92,96.95,321.92-3.77,323.75-4.8a12.5,12.5,0,1,1,12.29,21.77C2702.48,3157.61,2616.32,3205.26,2514.23,3205.26Z" transform="translate(-924.31 -325.86)"/><path class="cls-3" d="M2690.23,3386.3c.52.18-.82-.62-1.52-1s-1.88-.88-2.81-1.35a59,59,0,0,0-6.54-2.2c-2.24-.76-4.73-1-7.11-1.61-2.48-.3-5-.68-7.5-.91a119.3,119.3,0,0,0-31.6,2c-10.75,1.78-21.36,5.19-32,8.81l-15.66,6.39-15.4,7.35-.27.12a5,5,0,0,1-5-8.64l14.61-10c5-3.13,10.16-6.11,15.28-9.18,10.56-5.55,21.38-11,33.05-14.86a142.31,142.31,0,0,1,36.76-8.05c3.23-.22,6.51-.26,9.8-.34,3.34.21,6.65.13,10.06.65a85.24,85.24,0,0,1,10.3,1.74c1.79.51,3.5.89,5.36,1.54a37.25,37.25,0,0,1,6.34,2.64,15.68,15.68,0,1,1-16.21,26.84Z" transform="translate(-924.31 -325.86)"/><path class="cls-3" d="M2293.68,2972.13c1.32-2.57,3.09-6.56,4.49-10.06s2.86-7.36,4.18-11.12c2.63-7.55,4.92-15.28,7-23.09s3.83-15.75,5.35-23.74,2.8-16,3.92-24.11h0l.16-.92a15.26,15.26,0,0,1,15-12.71c6,0,13.25-.41,19.95-.94s13.68-1.26,20.51-2.19c13.68-1.79,27.32-4.22,40.83-7.27a433.22,433.22,0,0,0,79-25.9,363.74,363.74,0,0,0,71.93-41.9,330.14,330.14,0,0,0,60-58.27l.06-.07a5,5,0,0,1,8,6,343.5,343.5,0,0,1-58.42,64.27,381.64,381.64,0,0,1-72.58,48.58,456.61,456.61,0,0,1-81.36,32.44q-21.09,6.18-42.73,10.41c-7.21,1.43-14.47,2.65-21.8,3.71s-14.44,1.93-22.62,2.45l15.2-13.63h0c-1.2,8.67-2.53,17.34-4.22,26s-3.6,17.21-5.81,25.75-4.78,17-7.72,25.46c-1.47,4.21-3,8.41-4.74,12.62s-3.36,8.11-5.9,13.07a15.68,15.68,0,0,1-27.91-14.29Z" transform="translate(-924.31 -325.86)"/><g class="cls-6"><path class="cls-3" d="M2027,2402.78c75.55-2.25,142.8-10.75,179.85-41.8,0,0,109.9,20.85,243.75-29.8,3.1-1.15,6.25-2.4,9.35-3.65s6.2-2.5,9.3-3.8c66.6-28.15,153.1-64.7,226.25-95.55l14.45-6.1c19-8,36.9-15.6,53.05-22.4,6.05-2.55,11.85-5,17.35-7.35,14.75-6.25,27.55-11.65,37.7-15.9l7.1-3c12.1-5.15,19-8,19-8,23.5-103.4,104.2-101.65,110.6-35.05,93.95-48,51.15-161.6-22.25-221.45a232.5,232.5,0,0,0-35.7-24.6s53.2,98.6-21.8,138.6-163.55-82.65-163.55-82.65L2695,1990.38s81.65,67.5,21.65,132.5-393.3,170-535,125c-52.35-16.65-107.8-25.55-149.25-20.65C1961.6,2235.53,1931.55,2284,2027,2402.78Z" transform="translate(-924.31 -325.86)"/></g><g class="cls-6"><path class="cls-3" d="M2367.3,3451.73c.4,44.15,31.25,82.45,74.5,91.35,2.65.55,5.35,1.05,8.2,1.45h225.85c113.3-2.5,179-93.15,22.5-171.65l7.5-237.5,10.8-102.5s28.9-441.7-8.05-584.15a37.35,37.35,0,0,0,22.4-46.2l-53-167.25-43.5,17.9L2505,2306.63l-130.85,46.25s94.1,35.9,177,32.88a39.57,39.57,0,0,1,39,27.18l23.63,71.59-67.15,25.4-138.75,52.45,119.54,10.77a70.68,70.68,0,0,1,63,83.51c-13.38,71.78-49.42,172.35-146.47,204.47l-104.25,20.65-13.5,43.2s80.86,28.35,163.48,33.56c45.19,2.85,80,41.12,79.72,86.41l-1.95,321.28S2754.85,3499.83,2367.3,3451.73Z" transform="translate(-924.31 -325.86)"/></g><g class="cls-6"><path class="cls-3" d="M2082.56,2387.88s75.77,118.56,27.44,160.95l197.5-68.45L2265,2359.13l-63.11,8.33" transform="translate(-924.31 -325.86)"/></g><g class="cls-6"><path class="cls-3" d="M1905,3561.23h211.1c20,0,39.75-5.95,55.55-18.15,32.1-24.75,34.8-62.85-35.4-133.95l65.4-214.6,105.85-215s1.65,4.25,4.6,11.35l12-57.35L2330,2870l-56.92-7.13a57.49,57.49,0,0,0-63,43.52c-11.38,47-33.81,117.28-73.79,166.49-65.25,80.3-118.75,316.7-118.75,316.7,107.5,99.65-153.65,162.85-187.5,35l-9.65-7.05c-.25,1.35-.35,2.05-.35,2.05S1788.35,3556.23,1905,3561.23Z" transform="translate(-924.31 -325.86)"/></g><path class="cls-1" d="M2672.59,1371.24c24.2,361-254.19,673.58-621.81,698.23a673.26,673.26,0,0,1-285.59-42.35h0c-233.87-88.92-406.2-304.49-423.78-566.62q-1.92-28.71-1.3-57a1.24,1.24,0,0,0,0-.42c7.06-336.12,275.08-617.46,623.05-640.79C2330.75,737.68,2648.38,1010.29,2672.59,1371.24Z" transform="translate(-924.31 -325.86)"/><g class="cls-6"><path class="cls-3" d="M2672.59,1371.24c24.2,361-254.19,673.58-621.81,698.23a673.26,673.26,0,0,1-285.59-42.35h0a668.66,668.66,0,0,1-129.9-66.4,679.1,679.1,0,0,0,167.45,9.35c367.63-24.65,646-337.27,621.81-698.23-14.11-210.56-128.1-391.12-293.65-500.07C2422.83,825,2652.17,1066.71,2672.59,1371.24Z" transform="translate(-924.31 -325.86)"/></g><path class="cls-3" d="M1765.19,2027.12h0a666.41,666.41,0,0,1-87.43-40.65c-188.42-104.8-321-297.73-336.35-526q-1.92-28.71-1.3-57a1.24,1.24,0,0,0,0-.42c164.59-317,638.62-450,943.53-306.15,79.73,37.6,147.89,94.11,195.91,171.24C2633.23,1640.39,2190.05,2074.8,1765.19,2027.12Z" transform="translate(-924.31 -325.86)"/><path class="cls-8" d="M1765.19,2027.12h0a666.41,666.41,0,0,1-87.43-40.65c-3.35-10.15-4.89-16-4.89-16,483.78-26.52,656.36-344.67,606.82-870.91l4-2.57c79.73,37.6,147.89,94.11,195.91,171.24C2633.23,1640.39,2190.05,2074.8,1765.19,2027.12Z" transform="translate(-924.31 -325.86)"/><path class="cls-3" d="M2004.35,2086.69c-164.83,0-322.09-57.77-447.26-165.2-137.21-117.77-219.38-281.11-231.37-459.91-24.74-369,260.74-689.7,636.37-714.89,182-12.2,357.63,45.91,494.76,163.61s219.38,281.11,231.37,459.91-47.64,351.65-167.9,486.69-286.56,216-468.47,228.2C2036,2086.16,2020.1,2086.69,2004.35,2086.69Zm5.21-1310.23q-22.61,0-45.37,1.52c-358.38,24-630.77,329.75-607.18,681.5,11.42,170.34,89.73,326,220.51,438.22s298.52,167.77,472.23,156.11,332.46-89,447.15-217.77,171.45-293.39,160-463.73-89.73-326-220.51-438.21C2317,831.6,2166.88,776.46,2009.56,776.46Z" transform="translate(-924.31 -325.86)"/><path class="cls-3" d="M1828.76,2043.7a583.32,583.32,0,0,1-65-3.59,13.07,13.07,0,0,1,2.91-26c223.85,25.12,472.74-88.83,619.38-283.54,110.68-147,140.48-313.26,81.83-456.4-93.55-149.28-272.56-230-491.58-221.38-268.37,10.51-519.38,153.71-624.59,356.34a13.06,13.06,0,1,1-23.19-12c56-107.76,149.67-199.93,271-266.53,112.82-61.92,246.26-98.81,375.73-103.88,229-9,416.87,76.53,515.35,234.59a13.39,13.39,0,0,1,1,1.92c62.81,152.13,31.94,328.21-84.7,483.1C2268.94,1929.51,2043.25,2043.69,1828.76,2043.7Z" transform="translate(-924.31 -325.86)"/><path class="cls-3" d="M1367.25,1244.27a13.07,13.07,0,0,1-11.22-19.73c81.06-136.75,237-232.07,439-268.39,116.24-20.89,238.48-20.27,353.5,1.8,118.11,22.66,220,66.52,294.54,126.83a13.07,13.07,0,0,1-16.44,20.32c-142.76-115.45-394.72-165-627-123.23-194.48,35-344.06,125.87-421.19,256A13.1,13.1,0,0,1,1367.25,1244.27Z" transform="translate(-924.31 -325.86)"/><path class="cls-3" d="M1933.94,2080.38a13.06,13.06,0,0,1-1.58-26c335.21-41,584.45-268.5,635-579.45a13.06,13.06,0,1,1,25.79,4.19c-23.95,147.46-96.65,286.59-204.68,391.77-118.34,115.21-275,187.63-452.9,209.43A14.57,14.57,0,0,1,1933.94,2080.38Z" transform="translate(-924.31 -325.86)"/><g class="cls-9"><path class="cls-1" d="M1751.93,1227.08c-158.51,154.64-169.33,364.58-67.51,616.7,5.65,14-11.28,26.32-22.78,16.55-107.38-91.19-180.46-205.65-203.92-353.78a155.45,155.45,0,0,1,17.08-99c55.34-100.86,145.64-166.19,262.41-204.62C1751.73,1198.16,1762.88,1216.4,1751.93,1227.08Z" transform="translate(-924.31 -325.86)"/></g><g class="cls-9"><path class="cls-1" d="M2210.83,1278.37a333.67,333.67,0,0,1,28,38.32c13.73,22,42.47,29.23,65.27,16.82h0a49.41,49.41,0,0,0,19.14-68.16l-26.72-46.14a49.33,49.33,0,0,0-60.06-21.54,113.53,113.53,0,0,0-11,4.83C2197.14,1216.76,2190.36,1254.13,2210.83,1278.37Z" transform="translate(-924.31 -325.86)"/></g><g class="cls-9"><path class="cls-1" d="M2317.73,1409h0a52.79,52.79,0,0,0-47.92,55.78c2.38,37.52,1.76,89.75-13,135.16-7.49,23.06,6.32,47.65,29.69,54.11l1,.27a44.41,44.41,0,0,0,50.85-21.34c31.29-56.92,44.3-115.94,36.83-177.32A53.07,53.07,0,0,0,2317.73,1409Z" transform="translate(-924.31 -325.86)"/></g><path class="cls-1" d="M2728.33,1222.87c33.19,128.17-6.07,249.21-87.7,270.34s-165.7-70.67-198.89-198.84-2.92-244.16,78.7-265.3S2695.14,1094.7,2728.33,1222.87Z" transform="translate(-924.31 -325.86)"/><g class="cls-6"><path class="cls-3" d="M2640.63,1493.21c-81.61,21.14-165.69-70.67-198.89-198.84-9.11-35.16-13.4-69.36-13.2-101,39.38,103.47,112.85,171.79,184.41,153.24,60.07-15.54,97.16-85.16,99.38-171.89a368,368,0,0,1,16,48.1C2761.54,1351,2722.25,1472.08,2640.63,1493.21Z" transform="translate(-924.31 -325.86)"/></g><path class="cls-3" d="M2617,1511.91c-35.95,0-72.47-17.58-105.19-51.19-37.93-39-68.2-96.63-85.23-162.41-36.72-141.8,1.12-261.41,90-284.42,44.82-11.62,93.41,4.23,136.73,44.62,41.42,38.62,73.48,95.59,90.27,160.43s16.41,130.22-1.06,184.08c-18.28,56.33-53,93.75-97.89,105.37A109.63,109.63,0,0,1,2617,1511.91Zm-71.44-470.34a84.07,84.07,0,0,0-21.16,2.68c-70.11,18.15-99.11,124-67.47,246.19,15.7,60.59,43.16,113.3,77.35,148.41,32.95,33.84,69.32,47.76,102.44,39.18,34.11-8.83,61.07-38.91,75.92-84.69,15.66-48.26,15.85-107.4.53-166.54S2669,1116,2631.86,1081.45C2603.78,1055.28,2573.82,1041.57,2545.54,1041.57Z" transform="translate(-924.31 -325.86)"/><path class="cls-3" d="M2657.73,1472.77c-61.2,0-124.08-77.86-154.56-195.46-15.06-58.2-18.43-114.72-9.49-159.15,9.77-48.56,33.85-80.15,67.79-88.93,20.31-5.24,42.49-1.61,64.12,10.5h0a13.47,13.47,0,0,1,3.67,2.94,13.06,13.06,0,0,1-16.63,19.75c-15.8-8.8-30.82-11.46-44.63-7.89-32,8.28-44.25,46.65-48.7,68.79-8.18,40.63-4.92,93,9.17,147.44,28.72,110.8,90.49,187.4,140.69,174.42,24.12-6.24,37.86-29.86,45.14-48.58,12-30.71,15.92-72,11.12-116.17-.22-2.28-.43-4.36-.73-6.49a389.05,389.05,0,0,0-9.45-49.09c-1.19-4.68-2.48-9.26-3.82-13.8-1-3.2-2-6.51-3.07-9.72a13.06,13.06,0,1,1,24.79-8.26c1.14,3.41,2.22,6.93,3.3,10.45,1.47,5,2.84,9.86,4.11,14.81a416,416,0,0,1,10,52.15c.33,2.33.58,4.78.82,7.28,5.24,48.15.71,93.78-12.76,128.32-13.61,35-35.37,57.26-62.94,64.39A71.57,71.57,0,0,1,2657.73,1472.77Z" transform="translate(-924.31 -325.86)"/><g class="cls-6"><path class="cls-3" d="M2221.09,2036s29.49,24.46,29.6,24.46,137.36,11.33,141.46,6.9,118.52-51.94,118.52-51.94l-102.76-76.83" transform="translate(-924.31 -325.86)"/></g><path class="cls-3" d="M2684.3,2007.49a15.68,15.68,0,0,1-12.94-6.8c-64-93.12-83.69-162.91-58.48-207.43,23.09-40.78,75-45.79,95-46.14,44.95-48.51,114.48-39.62,159-5.24,40.49,31.25,66,89.54,26.2,143.66a15.68,15.68,0,1,1-25.27-18.56c29.32-39.93,7.5-79-20.1-100.28-35.35-27.29-88.13-34-120.58,6.06a15.77,15.77,0,0,1-13.15,5.77c-.52,0-55.32-2.76-73.92,30.27-12.85,22.84-13.39,71.59,57.09,174.13a15.68,15.68,0,0,1-12.9,24.56Z" transform="translate(-924.31 -325.86)"/><path class="cls-3" d="M2723.5,1749.7a80.15,80.15,0,0,1,7.48,6.47c2.22,2.16,4.33,4.41,6.37,6.73a92.45,92.45,0,0,1,10.84,15.35c6.25,11,10,25,7.46,38.34a54.6,54.6,0,0,1-6.86,18.08,75.12,75.12,0,0,1-11.26,14c-8.32,8.19-17.73,14.27-27.27,19.62a5,5,0,0,1-5.6-8.28l.08-.06c8.05-6.46,15.6-13.5,21.22-21.36a58.49,58.49,0,0,0,6.77-12.11,35.29,35.29,0,0,0,2.37-12.2c0-7.89-3.33-15.25-8.72-21.88a65,65,0,0,0-9.3-9.24c-1.74-1.4-3.54-2.75-5.38-4a45.09,45.09,0,0,0-5.2-3.15,15.83,15.83,0,0,1,12.93-28.91,15.53,15.53,0,0,1,3,1.75Z" transform="translate(-924.31 -325.86)"/><path class="cls-3" d="M2809.46,1875c-52.9,0-76.5-41.27-77.5-43.07l21.84-12.16-10.92,6.08,10.88-6.15a65.81,65.81,0,0,0,58.32,30.26l.84,25C2811.75,1875,2810.6,1875,2809.46,1875Z" transform="translate(-924.31 -325.86)"/><path class="cls-3" d="M2952.61,2326.68a121.24,121.24,0,0,1-19.89-1.73,58,58,0,0,1-41.67-30.67l-60-116.73a15.68,15.68,0,0,1,27.9-14.34l60,116.73a26.46,26.46,0,0,0,19,14.08c30.33,5.07,50.21-4.57,62.58-30.35a25.72,25.72,0,0,0-1.31-23.81l-58-101.76a15.68,15.68,0,0,1,27.24-15.54l58,101.77c9.42,16.53,10.31,36.31,2.34,52.91C3013.11,2309.84,2987,2326.68,2952.61,2326.68Z" transform="translate(-924.31 -325.86)"/><path class="cls-3" d="M2915.63,2313.29a15.67,15.67,0,0,1-14.75-10.36c-16.33-45.24,15.86-89.18,55.06-103.94,31.63-11.91,60.34-.91,71.44,27.38a15.68,15.68,0,0,1-29.19,11.45c-6-15.28-20.27-13.6-31.2-9.48-22,8.3-47,35.14-36.62,63.94a15.7,15.7,0,0,1-14.74,21Z" transform="translate(-924.31 -325.86)"/><g class="cls-6"><path class="cls-3" d="M2845,2170.38l29.65,57.7c17.2-92.3,101.45-60.3,101.45-60.3l-21.35-37.45s-.85-33.4-25.9-43.25l-.75-.29c-26.26-10.11-55.65,4-64.82,30.59Z" transform="translate(-924.31 -325.86)"/></g><rect class="cls-3" x="2713.4" y="1858.06" width="31.36" height="49.04" transform="translate(-1463.53 999.78) rotate(-24.93)"/><path class="cls-3" d="M1628.22,2105.33a12.5,12.5,0,0,1-6.54-23.17c72-44,192.67-11.08,197.77-9.65a12.5,12.5,0,0,1-6.73,24.08c-1.14-.33-115.29-31.46-178,6.9A12.39,12.39,0,0,1,1628.22,2105.33Z" transform="translate(-924.31 -325.86)"/><path class="cls-3" d="M1836.66,2623.72a12.51,12.51,0,0,1-12.11-9.43l-55-216.67a12.44,12.44,0,0,1,2.08-10.52l55-74.17a12.5,12.5,0,1,1,20.07,14.9l-51.46,69.39,53.54,210.92a12.52,12.52,0,0,1-12.12,15.58Z" transform="translate(-924.31 -325.86)"/><path class="cls-3" d="M1781.66,2407.05H1607.2a12.5,12.5,0,1,1,0-25h174.46a12.5,12.5,0,0,1,0,25Z" transform="translate(-924.31 -325.86)"/><g class="cls-6"><path class="cls-3" d="M1613.4,2434.18l33.6,132.35a68,68,0,0,0,66,51.35h193.7l-29.75-169.65C1813.7,2564.73,1648.2,2458.33,1613.4,2434.18Z" transform="translate(-924.31 -325.86)"/></g><g class="cls-6"><path class="cls-3" d="M1653.5,525c21.4,40.3,75.55,74,208.45,39.25l68.9-13.65a54.08,54.08,0,0,1,55.6,23.1l79.8,120A37.64,37.64,0,0,0,2117.2,705l25.2-15.5a37.13,37.13,0,0,0,15-17.6c-13.8,3.65-38,5-59.95-21.5-36.55-44.25-85.85-206.8-247.5-163.75-130.6,34.8-152.4-54.35-156-89.85-5.75,4.3-11.45,9-17.2,13.9C1644,439.18,1633.1,486.63,1653.5,525Z" transform="translate(-924.31 -325.86)"/></g><rect class="cls-10" x="390.75" y="3225.67" width="102.92" height="55.93"/><path class="cls-3" d="M1420.48,3610H1312.56V3549h107.92Zm-102.92-5h97.92V3554h-97.92Z" transform="translate(-924.31 -325.86)"/><g class="cls-6"><rect class="cls-3" x="442.19" y="3225.67" width="51.5" height="55.95"/></g><path class="cls-3" d="M1418,3620H1315.06a12.5,12.5,0,0,1-12.5-12.5v-55.93a12.5,12.5,0,0,1,12.5-12.5H1418a12.5,12.5,0,0,1,12.5,12.5v55.93A12.5,12.5,0,0,1,1418,3620Zm-90.42-25h77.92V3564h-77.92Z" transform="translate(-924.31 -325.86)"/><path class="cls-3" d="M1280.81,3642.37c14.92,1.8,30.11,3.37,45,4.51,15,1,29.87,1.91,44.8,2s29.86,0,44.87-.78c15.06-.51,30-2,45.66-2.52h.21a5.08,5.08,0,0,1,2.28,9.69,188.48,188.48,0,0,1-45.58,14.4c-15.69,3.26-31.77,4.3-47.78,4.21a227,227,0,0,1-47.69-5.53c-15.68-3.51-30.9-8.37-45.3-16.57a5.06,5.06,0,0,1,3.11-9.42Z" transform="translate(-924.31 -325.86)"/><rect class="cls-3" x="418.09" y="3279.94" width="46.5" height="50.83"/><path class="cls-3" d="M1189.07,3680.93c7.72-.13,15.75.16,23.5.54s15.59,1,23.4,1.76,15.67,1.5,23.56,2.73a190,190,0,0,1,23.92,4.49h0a4.16,4.16,0,0,1,.13,8,118.66,118.66,0,0,1-24.51,4.47,154.38,154.38,0,0,1-24.8.17,123.33,123.33,0,0,1-24.67-4.05,92.88,92.88,0,0,1-12-4.18,56.2,56.2,0,0,1-11.54-6.5,4.13,4.13,0,0,1,2.41-7.42Z" transform="translate(-924.31 -325.86)"/><path class="cls-11" d="M1124.09,3164.08" transform="translate(-924.31 -325.86)"/><path class="cls-12" d="M1621.1,3284.49a286.28,286.28,0,0,1-455,202c70.28-17.15,151.56-45,235.74-82.41S1561.23,3325.11,1621.1,3284.49Z" transform="translate(-924.31 -325.86)"/><path class="cls-13" d="M1239.93,3530.54l-.32-4.8-2.21-4.29.89-.46,1-.07c38.71-2.52,112.63-25.85,188.33-59.45,76.12-33.78,141.17-71.78,169.77-99.16l6.67,7c-29.35,28.1-95.46,66.81-172.53,101C1353.71,3504.83,1280.29,3527.92,1239.93,3530.54Z" transform="translate(-924.31 -325.86)"/><path class="cls-13" d="M1401.84,3404c84.18-37.35,159.39-78.92,219.26-119.54a285,285,0,0,1-5.59,34.58c-46.08,33-119.62,73.59-205.2,111.58-82,36.38-158.32,62.95-213.27,75.71a285.61,285.61,0,0,1-30.94-19.92C1236.38,3469.29,1317.66,3441.4,1401.84,3404Z" transform="translate(-924.31 -325.86)"/><g class="cls-9"><path class="cls-3" d="M1627.74,3245.42a286.28,286.28,0,0,1-455,201.95c70.28-17.15,151.56-45,235.75-82.41S1567.87,3286,1627.74,3245.42Z" transform="translate(-924.31 -325.86)"/></g><g class="cls-9"><path class="cls-14" d="M1616.7,3136.09c-2,1.63-4.15,3.28-6.37,5,2-2.11,4-4.27,5.89-6.46Q1616.46,3135.33,1616.7,3136.09Z" transform="translate(-924.31 -325.86)"/><path class="cls-3" d="M1611.84,3143l-3.32-3.71c2-2.08,3.93-4.22,5.82-6.38l2.89-3.31,2.36,7.34-1.33,1.06C1616.2,3139.69,1614.08,3141.35,1611.84,3143Z" transform="translate(-924.31 -325.86)"/></g><path class="cls-12" d="M1597.83,3140.52a286.87,286.87,0,0,1,12.43,33.44c-46.78,37.3-139.06,89.33-249.19,138.21s-210.62,82.41-269.67,92.08a290.26,290.26,0,0,1-16.46-31.65c-.23-.52-.45-1-.67-1.55q-3.21-7.31-5.94-14.68a284.29,284.29,0,0,1-10.56-34.83l-.33-1.43A286.06,286.06,0,0,1,1569,3090q1.27,1.76,2.5,3.54a286.57,286.57,0,0,1,18.75,31.19q3.15,6.08,6,12.36C1596.8,3138.21,1597.32,3139.36,1597.83,3140.52Z" transform="translate(-924.31 -325.86)"/><path class="cls-13" d="M1596.27,3137.08c.53,1.13,1,2.28,1.56,3.44a286.87,286.87,0,0,1,12.43,33.44c-46.78,37.3-139.06,89.33-249.19,138.21s-210.62,82.41-269.67,92.08a290.26,290.26,0,0,1-16.46-31.65c-.23-.52-.45-1-.67-1.55,56-5.79,158.25-38.2,270.52-88C1461.49,3231.23,1557,3174.8,1596.27,3137.08Z" transform="translate(-924.31 -325.86)"/><path class="cls-13" d="M1049.93,3277.42l1.13-19.24c39,2.29,141.16-29.38,248.51-77,128.08-56.85,210.92-111.64,226.57-136.38l16.29,10.31c-20.69,32.73-115.15,90.48-235,143.69C1195.77,3248.31,1092.31,3279.92,1049.93,3277.42Z" transform="translate(-924.31 -325.86)"/><path class="cls-13" d="M1064.89,3180.23l-2.7-19.09c43.89-6.2,120.09-31.78,198.87-66.75,82.56-36.64,154-77.18,186.55-105.82l12.75,14.47c-33.89,29.84-107.25,71.6-191.47,109C1188.59,3147.66,1110.42,3173.8,1064.89,3180.23Z" transform="translate(-924.31 -325.86)"/><path class="cls-13" d="M1057.33,3329.75l.23-19.28c44.73.53,150.33-32.64,262.77-82.55,117.94-52.34,217-111.43,240.92-143.67l15.49,11.48c-26.1,35.2-126,95.41-248.58,149.82C1211.62,3297.27,1105.32,3330.32,1057.33,3329.75Z" transform="translate(-924.31 -325.86)"/><path class="cls-3" d="M1336.57,3558.18a302.44,302.44,0,0,1-179.79-59.13,15.68,15.68,0,0,1,5.6-27.84c71.9-17.55,152.51-45.74,233.1-81.51s155.57-76.64,216.81-118.18A15.68,15.68,0,0,1,1636.7,3286a301.53,301.53,0,0,1-300.13,272.14Zm-132-65.59a270.39,270.39,0,0,0,395.36-175.48c-56.54,35.71-122.09,70.37-191.67,101.25S1268.94,3474.61,1204.52,3492.59Z" transform="translate(-924.31 -325.86)"/><path class="cls-15" d="M1762.6,3111.72c17,38.3-40.39,104.18-141.5,172.77-59.87,40.62-135.08,82.19-219.26,119.54s-165.46,65.26-235.74,82.41c-118.7,29-206,27.33-223-11-15.44-34.78,30.46-92.29,114.72-153.93a284.29,284.29,0,0,0,10.56,34.83c-23.31,18.79-34.83,33.74-30.92,42.53,4,9,23.43,10.35,54,5.35,59-9.67,159.55-43.21,269.67-92.08s202.41-100.91,249.19-138.21c24.2-19.31,36.23-34.67,32.25-43.63-3.89-8.78-22.71-10.28-52.27-5.61a286.57,286.57,0,0,0-18.75-31.19C1673.73,3072.4,1747.17,3076.94,1762.6,3111.72Z" transform="translate(-924.31 -325.86)"/><path class="cls-16" d="M1032.39,3435.44c-13.86-2.36-23.86-7.69-28-17.08-8.38-18.87,9.55-45.25,54.81-80.63l9.61,12.29c-42.52,33.25-53.79,53.83-50.17,62,6.1,13.75,59.27,14.77,161.59-15.39,57.22-16.87,122-41.11,187.24-70.08s126.69-60.73,177.59-91.84c91-55.65,125.91-95.78,119.82-109.51-3.64-8.19-26.46-13.64-79.64-4.39l-2.67-15.38c56.62-9.83,88.19-5.43,96.57,13.44,15,33.9-60.18,88.94-125.94,129.15-51.48,31.46-113.51,63.54-179.39,92.79s-131.3,53.72-189.17,70.78C1131.15,3427.37,1068.6,3441.59,1032.39,3435.44Z" transform="translate(-924.31 -325.86)"/><path class="cls-16" d="M1008,3473.39c-19.53-3.32-34.29-10.85-40.39-24.6-15.77-35.53,39.23-86.57,88.16-123.14l9.34,12.5c-71.72,53.6-90,89-83.24,104.31,8.37,18.84,62.84,28.91,188.87-4.78,65.14-17.41,138.48-43.88,212.07-76.54s142.41-69.29,199-105.93c109.53-70.86,138.63-118,130.26-136.86-6.78-15.28-45.32-25.47-133.19-8.24l-3-15.31c59.93-11.75,134.68-18.31,150.45,17.22,20.49,46.15-76.44,117.73-136,156.29-57.29,37.07-126.85,74.1-201.17,107.09s-148.45,59.73-214.37,77.35C1126.61,3465.62,1054,3481.22,1008,3473.39Z" transform="translate(-924.31 -325.86)"/><g class="cls-9"><path class="cls-3" d="M1205.28,3458.64c68.83-16.81,148.23-43.88,230.57-80.11-75.28,9.9-127.49,1.78-140.22-26.92a34.47,34.47,0,0,1-2.74-10.64c-82.52,33.13-154.92,55.65-201.49,63.28-30.56,5-50,3.61-54-5.35-3.91-8.79,7.61-23.74,30.92-42.53a287.08,287.08,0,0,1-10-32.43c-59.17,49.87-89,94.71-76.14,123.73C999.23,3486,1086.58,3487.61,1205.28,3458.64Z" transform="translate(-924.31 -325.86)"/></g><path class="cls-3" d="M1027.62,3522.09c-46,0-85.44-9.93-98.9-40.26-23.62-53.22,52.11-123.42,119.79-172.95A15.68,15.68,0,0,1,1073,3318a273,273,0,0,0,10,32.93,15.67,15.67,0,0,1-4.85,17.7c-13.7,11-20.18,18.31-23.22,22.54,5.35.61,15.52.66,33.93-2.35,59.59-9.76,161.45-44.6,265.84-90.93s198.56-98.5,245.78-136.14c14.57-11.63,21.36-19.21,24.49-23.58-5.19-.59-14.93-.66-32.29,2.09a15.71,15.71,0,0,1-16.38-8.28,270.79,270.79,0,0,0-17.72-29.48,15.68,15.68,0,0,1,9.73-24.28c82.13-17,185-26,208.61,27.19,27.42,61.77-80.35,146.87-147,192.11-62.76,42.57-139.42,84.38-221.69,120.89s-164.71,65.33-238.4,83.31C1130,3511.4,1075.3,3522.09,1027.62,3522.09Zm21.19-174.18c-79.29,61.59-99.31,103.44-91.43,121.2,10.39,23.41,77.8,33.14,205,2.1,71.9-17.55,152.51-45.74,233.1-81.51s155.57-76.64,216.81-118.18c108.36-73.5,146.37-130,136-153.44h0c-7.88-17.76-52.36-31-151.21-13.5.6,1,1.19,2.07,1.78,3.1,24.36-2.93,49.83-2.13,58,16.29,9.55,21.53-14.65,44.57-36.81,62.25-49.91,39.79-144.34,92.23-252.61,140.28s-210.51,82.9-273.49,93.22c-28,4.58-61.31,7.07-70.86-14.46-8.18-18.42,8.33-37.84,26.84-53.94C1049.54,3350.18,1049.17,3349.05,1048.81,3347.91Z" transform="translate(-924.31 -325.86)"/><g class="cls-9"><path class="cls-3" d="M1646.18,3148.47c-46.78,37.3-139.06,89.34-249.19,138.22s-210.63,82.41-269.68,92.08a294,294,0,0,1-16.46-31.66l-.67-1.54c-2.13-4.88-4.11-9.76-5.93-14.68a287.35,287.35,0,0,1-10.57-34.83c-.11-.48-.22-.95-.31-1.42a286.26,286.26,0,0,1,120.69-301.88,287.06,287.06,0,0,0-47.14,168.82,282.94,282.94,0,0,0,6.95,52.3c.11.49.22,1,.33,1.43.14.63.35,1.4.61,2.31,14,49.31,66.7,70.48,117.81,66.43,97.41-7.73,309.42-119.24,354.54-145C1650.18,3146.63,1643.85,3140.78,1646.18,3148.47Z" transform="translate(-924.31 -325.86)"/></g><g class="cls-17"><path class="cls-1" d="M1602.43,3179.61q-8.16,6.51-18.13,13.59-3.93-11.32-8.86-22.47c-.52-1.15-1-2.29-1.57-3.43q-2.86-6.3-6-12.36a288.31,288.31,0,0,0-18.75-31.2c-.82-1.19-1.66-2.36-2.5-3.53a281.75,281.75,0,0,0-34.72-40.07,286.17,286.17,0,0,0-436.27,48.49,286,286,0,0,1,485.55-33c.86,1.17,1.68,2.36,2.5,3.54a285.62,285.62,0,0,1,18.75,31.19q3.15,6.09,6,12.35c.54,1.15,1.07,2.28,1.57,3.46A286.05,286.05,0,0,1,1602.43,3179.61Z" transform="translate(-924.31 -325.86)"/></g><path class="cls-3" d="M1091.4,3419.93a15.68,15.68,0,0,1-13.43-7.59,301.39,301.39,0,0,1-17.35-33.39c-2.5-5.62-4.86-11.38-7-17.11a303.13,303.13,0,0,1-11.13-36.72c-33-140.78,39.13-285.59,171.49-344.34s288.13-15.08,370.39,103.83a301.17,301.17,0,0,1,19.78,32.9c2.8,5.38,5.49,11,8,16.65h0a303.43,303.43,0,0,1,13.11,35.26,15.69,15.69,0,0,1-5.23,16.8c-49.91,39.79-144.34,92.23-252.61,140.28s-210.51,82.9-273.49,93.22A15.64,15.64,0,0,1,1091.4,3419.93Zm244.89-433.75a269.76,269.76,0,0,0-109.58,23.26c-118.6,52.64-183.23,182.39-153.67,308.52a271.54,271.54,0,0,0,10,32.92c1.92,5.14,4,10.3,6.27,15.35,3.11,7,6.53,13.93,10.21,20.63,60.62-11.87,156.79-45.34,255.22-89s187.77-92.56,237.23-129.55c-2.5-7.22-5.32-14.38-8.44-21.41-2.25-5.08-4.67-10.1-7.18-14.93a269.64,269.64,0,0,0-240-145.77Z" transform="translate(-924.31 -325.86)"/></svg>