<svg id="Layer_1" data-name="Layer 1" xmlns="http://www.w3.org/2000/svg" viewBox="0 0 2948.69 3173"><defs><style>.cls-1{fill:#862b90;}.cls-2{opacity:0.6;}.cls-3{fill:#fff;}.cls-4{fill:#4c2d7e;}.cls-5{opacity:0.3;}.cls-6{fill:#390176;}.cls-7{fill:#a17e89;}.cls-8{fill:#cc3737;}.cls-9{fill:#d88454;}.cls-10{fill:#ef569c;}.cls-11{fill:none;stroke:#390176;stroke-linecap:round;stroke-linejoin:round;stroke-width:35px;}</style></defs><title>wizard1</title><path class="cls-1" d="M2616,883.39c-215.7,6.55-435,70.05-598.55,200.5-215.9,172.15-467,173.6-697.75,135.4,0,0,40.25-27.2,49.1-132.45,7.25-86.4,31-121.1,31-121.1-62.15-26.8-58.9-52.5-58.9-52.5-49.65,44-109.55,34.55-109.55,34.55s37,32.15,35.35,127.8-86.8,92.4-84.4,39.35-27.3-94-27.3-94c-234.9-208.55,78.75-386.25,78.75-386.25,23.55-347.15,572.15-186.45,572.15-186.45,212.1-55.7,332.65,89,429.1,106.6S2361.91,677,2361.91,677C2460,657.69,2616,883.39,2616,883.39Z" transform="translate(-473.69 -393.39)"/><g class="cls-2"><path class="cls-3" d="M1269.05,662.53c3.22-320.35,490.2-188.57,490.2-188.57,212.1-55.7,332.65,88.95,429.1,106.6s127,122.15,127,122.15c79-15.55,258.33,124.3,300.71,180.68,20.92-1.71-20.91.64,0,0,0,0-156.05-225.7-254.1-206.4,0,0-30.55-104.45-126.95-122.15s-217-162.3-429.1-106.6c0,0-548.6-160.7-572.15,186.45,0,0-117,66.33-154.58,165.49C1147.46,716.53,1269.05,662.53,1269.05,662.53Z" transform="translate(-473.69 -393.39)"/></g><path class="cls-4" d="M2679.56,1641.94s-1617.3,456.3-1989.1,174.5c-282.5-214.1-230.6-536.25-54.8-654.95,12.65,26,37.7,45.35,37.7,45.35-23.6,115.7,147.85,172.5,147.85,172.5-111.45-113.6-61.1-143.6-79.3-184.3-10.2-22.75-10.65-52.6-9-74.45a260.11,260.11,0,0,1,63.7-4.85c133.7,6,320.6,70,523.15,103.55,230.75,38.2,481.85,36.75,697.75-135.4,163.6-130.45,382.85-194,598.55-200.5,140.8-4.3,280.15,15.65,401.45,57-12.8,11.4-20.75,25.7-19.1,43.55,6.4,69.15-79.65,75.55-93.7,122.15-13.65,45.35-61.4,83.15-63.95,85.15,3.6-1.25,99.75-35.85,99.75-64.25,0-28.9,99.65-37,101.25-73.9,1-22.15,26.7-55.25,68.6-75.1,137.5,65.4,240.4,162.75,277,286.7C3499.76,1645.79,2679.56,1641.94,2679.56,1641.94Z" transform="translate(-473.69 -393.39)"/><g class="cls-5"><path class="cls-6" d="M3118.51,1584.84c-201.8,58.2-439,57.1-439,57.1s-1617.3,456.3-1989.1,174.5a582.38,582.38,0,0,1-87.15-80.7C544.16,1558,745,1408.44,923.71,1466.09c254,82,507.65,120.55,1047.15-218,389.9-244.75,769.2-300.55,1006.15-209-24.85,23.9-63.35,37.25-72.35,67.1-13.65,45.35-61.4,83.15-63.95,85.15,3.6-1.25,99.75-35.85,99.75-64.25,0-25,74.65-34.4,95.75-60.45,62.3,34.6,111.15,81.7,143.2,140.3C3251.46,1338.59,3195.81,1476.79,3118.51,1584.84Z" transform="translate(-473.69 -393.39)"/></g><path class="cls-6" d="M1124.5,1926.14c-211.69,0-360.4-31.92-444.61-95.75-136.9-103.75-210.07-242.07-206-389.48,3.33-122,60.16-231.9,152-293.92a17.49,17.49,0,0,1,25.53,6.86c10.62,21.86,32.45,39,32.67,39.15a17.55,17.55,0,0,1,6.44,17.34c-10.59,51.88,26.63,91,64.81,116.61-29.43-45.57-27.94-74.45-26.75-97.32.57-11.22,1-19.33-2.64-27.45-11.79-26.3-12.23-59.58-10.52-82.87a17.49,17.49,0,0,1,14-15.87,279.61,279.61,0,0,1,68-5.18c77.82,3.5,169.95,25.45,276.63,50.87,286,68.13,641.82,152.93,932.56-78.92,130.4-104,301.55-171.62,494.94-195.57,178.51-22.1,363.77-4.64,521.62,49.19a17.5,17.5,0,0,1,6,29.63c-13.24,11.79-13.94,22.12-13.31,28.87,4.69,50.72-30.25,74.5-58.32,93.61-16.46,11.21-32,21.79-36,35.2a137,137,0,0,1-12.3,28.11c7.42-5,12.49-9.53,13.85-12.93.48-24.94,27.77-36,56.65-47.73,14.36-5.83,44.25-18,44.61-26.25,1.43-31.86,33.75-68.92,78.59-90.16a17.5,17.5,0,0,1,15,0c151,71.83,250,174.73,286.21,297.55,22.07,74.75,11.85,141.16-30.37,197.37-148.44,197.62-647.09,202.32-691.72,202.34-34,9.49-425.73,117.66-854.5,192.66Q1404.18,1926.14,1124.5,1926.14Zm-494-739.3c-72.74,56.82-118.91,152.74-121.71,255-3.71,135.82,64.55,263.89,192.2,360.63,84.47,64,236.79,88.58,420.69,88.59,601.34,0,1540.77-262.5,1553.09-266a16.79,16.79,0,0,1,4.83-.66c5.18-.1,524.46.18,666.05-188.36,35.71-47.54,43.81-102,24.79-166.43-32.72-111-122.54-204.93-260-272.14-32.67,17.73-50.73,43.46-51.31,56.37-1.33,30.73-35.9,44.76-66.41,57.14-11.56,4.69-30.61,12.42-34.86,17.47-2,37.3-78.38,67.8-111.47,79.29a17.51,17.51,0,0,1-16.54-30.31c1.87-1.47,45.93-36.35,58-76.42,7.63-25.28,29.1-39.9,49.87-54,28.49-19.4,45.82-32.74,43.16-61.45a63.79,63.79,0,0,1,7.27-36.29c-272.71-84.74-680.76-74.25-959.83,148.3C1893.86,1204.84,1735.05,1257,1543,1257h-3.67c-166-.58-329.33-39.5-473.44-73.83-105-25-195.59-46.61-270.11-50a245.39,245.39,0,0,0-46.08,2.21c-.31,17.17,1.3,37.08,8.19,52.45,7.07,15.82,6.34,29.92,5.64,43.55-1.4,27.14-3.15,60.91,70.18,135.66a17.49,17.49,0,0,1-18,28.86c-7.4-2.44-176.36-59.93-161.2-182.24A176.1,176.1,0,0,1,630.54,1186.84Z" transform="translate(-473.69 -393.39)"/><path class="cls-7" d="M2869.77,2340.39l-28.93,115.72c65.89,82,248.3,143,248.3,143l69.91-93.21C2991.74,2452.85,2869.77,2340.39,2869.77,2340.39Z" transform="translate(-473.69 -393.39)"/><path class="cls-6" d="M3089.14,2616.64a17.47,17.47,0,0,1-5.55-.9c-7.65-2.57-188.07-63.68-256.39-148.67a17.49,17.49,0,0,1-3.34-15.21l28.93-115.71a17.5,17.5,0,0,1,28.83-8.63c1.2,1.1,121.32,110.52,282.73,161.73a17.5,17.5,0,0,1,8.7,27.18l-69.91,93.21A17.51,17.51,0,0,1,3089.14,2616.64Zm-229.14-165c55.89,62.32,183.42,112.3,222.87,126.71l47.66-63.56c-118.25-42.12-210.36-110-250.64-142.74Z" transform="translate(-473.69 -393.39)"/><g class="cls-5"><path class="cls-6" d="M2869.77,2340.39l-28.93,115.72c65.89,82,248.3,143,248.3,143l69.91-93.21C2991.74,2452.85,2869.77,2340.39,2869.77,2340.39Z" transform="translate(-473.69 -393.39)"/></g><path class="cls-3" d="M2827.91,3298.39q-4.57,20.93-9.55,41.65s-446.8,276.4-1163.6,151.05l-114.1-49.8s5.2-14.3,13.7-40.95c-297.85,4.3-465.3-116.55-465.3-116.55,63.6-181.3,104.15-351.9,128.25-509.05,73-475.95-4.7-828.25-49.65-978.2-.5-1.65-1-3.25-1.45-4.8-1-3.15-1.9-6.25-2.85-9.2l-1.35-4.35c-.4-1.45-.9-2.85-1.35-4.25-.55-1.7-1.1-3.4-1.6-5-1.15-3.65-2.3-7.1-3.45-10.4-3.2-9.5-6-17.45-8.3-23.75-.55-1.55-1.1-3-1.6-4.4-3.35-8.95-5.25-13.5-5.25-13.5l407.4-170.45,84.4-35.3s742.5-183.2,1199,32.15c0,0,.1.55.25,1.6.05.35.15.75.2,1.2,0,.1.05.2.05.3.05.25.1.6.15.9.1.45.15,1,.25,1.5s.15,1,.25,1.55.2,1.25.3,1.9c.1.5.15,1,.25,1.55.25,1.6.55,3.35.85,5.3q.3,1.8.6,3.75c.6,3.7,1.25,8,1.95,12.65.2,1.35.45,2.8.65,4.25.8,5.4,1.7,11.35,2.65,17.85.3,2.25.65,4.55,1,6.9C2873.51,1830.69,2973.31,2641,2827.91,3298.39Z" transform="translate(-473.69 -393.39)"/><path class="cls-8" d="M2840.61,1604.44c-.35-2.35-.7-4.65-1-6.9-1-6.5-1.85-12.45-2.65-17.85-.2-1.45-.45-2.9-.65-4.25-.7-4.7-1.35-9-1.95-12.65q-.3-1.95-.6-3.75c-.3-2-.6-3.7-.85-5.3-.1-.55-.15-1-.25-1.55-.1-.65-.2-1.3-.3-1.9s-.2-1-.25-1.55-.15-1-.25-1.5c-.05-.3-.1-.65-.15-.9,0-.1-.05-.2-.05-.3,0-.45-.15-.85-.2-1.2-.15-1-.25-1.6-.25-1.6-456.45-215.35-1198.95-32.15-1198.95-32.15l-.07,0c26.63,53.57,362.4,765.88,22.58,1980C2371.56,3616.44,2818.36,3340,2818.36,3340q4.95-20.7,9.55-41.65C2973.31,2641,2873.51,1830.69,2840.61,1604.44Z" transform="translate(-473.69 -393.39)"/><path class="cls-6" d="M1194.93,3355.34a17.52,17.52,0,0,1-16.58-23.11c.77-2.26,76.93-229.58,119.33-545.32,39-290.67,56.62-718-81.2-1102.88a17.5,17.5,0,0,1,33-11.79c140.28,391.79,122.47,825.36,82.83,1120.09-42.89,318.91-120,548.83-120.76,551.12A17.5,17.5,0,0,1,1194.93,3355.34Z" transform="translate(-473.69 -393.39)"/><path class="cls-6" d="M1264.61,3379.48a17.51,17.51,0,0,1-16.38-23.66c.82-2.19,82.86-222.83,128.17-541.68,41.73-293.67,60-733.2-90.1-1159.41a17.5,17.5,0,1,1,33-11.62c152.55,433.2,134,879.09,91.61,1176.86-45.91,322.42-129.09,546-129.93,548.16A17.48,17.48,0,0,1,1264.61,3379.48Z" transform="translate(-473.69 -393.39)"/><path class="cls-6" d="M1479.53,2828.64c-24.27,188.53-64.55,375.1-118.54,557.68-5,15.55-28.26,9-24-7.09,58.41-180,103.42-364.63,132.55-552,1-6,10.66-5.45,10,1.42Z" transform="translate(-473.69 -393.39)"/><path class="cls-6" d="M1499,2502.39h-.26a12.49,12.49,0,0,1-12.24-12.75c10.61-533.39-120-863.72-121.3-867a12.5,12.5,0,0,1,23.18-9.35c1.34,3.33,133.83,338.41,123.11,876.85A12.5,12.5,0,0,1,1499,2502.39Z" transform="translate(-473.69 -393.39)"/><path class="cls-6" d="M1470.85,1579.55c28.34,99.58,45.07,201.34,57.55,303.86.54,4.79-6.71,6.08-7.63,1.11-13.3-75.55-29.69-150.64-50.69-224.4-7-24.53-14.55-49.27-23-72.8-5.26-16,18.45-24,23.77-7.77Z" transform="translate(-473.69 -393.39)"/><path class="cls-6" d="M1563.37,1818.45c42.71,164.27,60.34,335.17,63.15,504.56,3.09,169.79-12.76,340.27-49.65,506a5.78,5.78,0,0,1-11.38-1.93c2.74-21,5.53-42,8.57-62.95l4.43-31.28c20.84-176.94,25.7-357.62,15.84-535.52-7.45-125.58-20.13-252.5-41.29-376.44a5.31,5.31,0,0,1,10.33-2.46Z" transform="translate(-473.69 -393.39)"/><path class="cls-6" d="M1546.35,3050.64c-10.42,89.81-29.66,178.34-55.8,264.87-8.58,28.95-18.67,57.45-29.11,85.86a12.51,12.51,0,0,1-23.48-8.62,1453.46,1453.46,0,0,0,60.81-168.65c16.78-57.18,30.87-115.51,40.49-174.32.6-4.39,7.53-3.9,7.09.86Z" transform="translate(-473.69 -393.39)"/><g class="cls-5"><path class="cls-6" d="M2840.63,1604.44c-5.73-39.46-9.43-61.19-9.43-61.19-456.45-215.35-1198.95-32.15-1198.95-32.15l-84.4,35.3-407.4,170.45s11.63,27.7,27.2,79.68L1676.76,1618S2344.17,1454,2840.63,1604.44Z" transform="translate(-473.69 -393.39)"/></g><path class="cls-6" d="M1710.79,3271l.92,0Z" transform="translate(-473.69 -393.39)"/><path class="cls-6" d="M1710.45,3271l.34,0Z" transform="translate(-473.69 -393.39)"/><g class="cls-5"><path class="cls-6" d="M2827.91,3298.39q-4.57,20.93-9.55,41.65s-446.8,276.4-1163.6,151.05l-114.1-49.8s5.2-14.3,13.7-40.95c-297.85,4.3-465.3-116.55-465.3-116.55,63.6-181.3,104.15-351.9,128.25-509.05,0,0-55.45,465.8,493.15,496.25C1710.46,3271,2079.11,3634.84,2827.91,3298.39Z" transform="translate(-473.69 -393.39)"/></g><path class="cls-6" d="M1319.71,1236.82a17.5,17.5,0,0,1-9.81-32s33.64-26.07,41.48-119.44c4.72-56.18,16.36-92.08,24.7-111.5-22-11.51-34.93-23.11-42.47-33.22A161.06,161.06,0,0,1,1264,965.1c10.64,22,21,57.41,20.14,110.76-.69,40.88-15.9,72.36-41.74,86.39-17.67,9.59-38.48,9.38-54.33-.54s-24.21-27.18-23.29-47.56c1.86-40.9-18.45-74.49-23.1-81.6-67.09-60.17-97.55-124.32-90.53-190.7C1063.28,727.07,1184,644.76,1217,624.29c7.22-75.4,39.25-133.41,95.3-172.51,157.21-109.65,451.43-33.44,493.78-21.66,150.31-37.66,258.68,22,338,65.75,35.81,19.73,66.74,36.77,94,41.77,84.85,15.56,123.14,89.58,135.7,120.73h0c104.68,0,240.71,192.15,256.57,215.08a17.5,17.5,0,0,1-28.79,19.91c-57.85-83.61-173.17-211.58-236.32-199.19a17.5,17.5,0,0,1-20.18-12.26c-.26-.9-29-94.37-113.32-109.84-32.87-6-66.11-24.34-104.59-45.54-79.17-43.63-177.71-97.93-316.92-61.35a17.4,17.4,0,0,1-9.36-.14c-3.14-.92-316.36-90.79-468.64,15.48-49.16,34.3-76.46,86.56-81.13,155.34a17.47,17.47,0,0,1-8.83,14c-1.43.82-144.58,83.41-156.37,195.72-5.78,55,21.34,109.59,80.61,162.22a17.41,17.41,0,0,1,2.55,2.81c1.36,1.88,33.3,46.61,30.64,105.09-.35,7.62,2,13.26,6.9,16.31,5.17,3.23,12.47,3,19-.56,6.83-3.71,22.78-16.6,23.44-56.21,1.43-84.53-29.26-114.18-29.57-114.47a17.35,17.35,0,0,1-4.27-20.49,17.6,17.6,0,0,1,18.69-9.81c.45.08,52.75,7.26,95.25-30.36a17.49,17.49,0,0,1,29.09,13.54c1,4.86,11.18,20,48.36,36a17.51,17.51,0,0,1,7.53,25.94c-.13.19-21.29,33.21-28,112.68-9.28,110.43-51.94,142.25-56.77,145.52A17.4,17.4,0,0,1,1319.71,1236.82Zm38.5-321.44v0Zm0,0v0Zm.08-1.93Z" transform="translate(-473.69 -393.39)"/><path class="cls-6" d="M1383.47,959.37c43.61-112,140.64-224.47,239.5-291.8l21-14a5.72,5.72,0,0,1,6.61,9.34c-44.54,36.52-85.38,77.26-120.77,122.58-35.6,44.33-65.46,93.74-92.23,143.79-6.4,12.28-16.28,31.38-21.88,43.62-9.88,19.55-39.24,7.27-32.22-13.54Z" transform="translate(-473.69 -393.39)"/><path class="cls-6" d="M1482.4,660.89c-40,80.61-76.05,185-53.73,274.81a17.52,17.52,0,1,1-34.15,7.67c-4.66-26-4.55-52.43-1.35-78.37,6.52-50.47,23.38-98.27,44.7-143.85a614,614,0,0,1,35.69-65.54c3.56-5.45,12-.6,8.84,5.28Z" transform="translate(-473.69 -393.39)"/><path class="cls-6" d="M1318,672.09c-17.17,37.44-22.76,81.61-12.35,121.61,3,13.68,9.26,26.18,15.21,38.57A317.28,317.28,0,0,0,1336,870.5a190.66,190.66,0,0,0,19.39,33c13.89,19.89-15.61,40-29,19.6-15.62-26.41-24.18-53.55-30.84-82.92-15.09-33.43-19.42-87.1-3.8-131.88a198.53,198.53,0,0,1,18.37-40.82,4.61,4.61,0,0,1,8,4.65Z" transform="translate(-473.69 -393.39)"/><path class="cls-6" d="M1184.14,911a84.29,84.29,0,0,0,38.55,18.49,86.17,86.17,0,0,0,13.42,1.51,18,18,0,1,1-9.65,33.64,113.06,113.06,0,0,1-29.38-21,96.71,96.71,0,0,1-19.9-28.09,4.19,4.19,0,0,1,2.09-5.54,4.29,4.29,0,0,1,4.87,1Z" transform="translate(-473.69 -393.39)"/><path class="cls-6" d="M1813,464.2c-41.51,15.84-83.82,36.31-115.79,68-4.69,5.13-12.89-1.43-8.87-7.11,28.45-39.62,68.59-68.15,110.28-92.76,22.52-11.42,37.91,22.56,14.38,31.91Z" transform="translate(-473.69 -393.39)"/><g class="cls-5"><path class="cls-6" d="M2441.25,700C2411.59,779.6,2333.8,863,2173,939.54c-548.78,261.39-746.46-31.08-500-300.83,0,0-124.28,14.18-217.5,146,0,0,17.14-98,68-178.4,0,0-116.25,48.22-150,205.72,0,0-90-6.43-45-167.14,0,0-90,49.82-52.24,190.44s-110.08,64.29-110.08,64.29-4,20.89,32.94,69.91c30.68,40.68,28.1,136.07-16.83,140.26,0,1.73,0,3.43,0,5.18-2.4,53,82.75,56.25,84.4-39.35s-35.35-127.8-35.35-127.8,59.9,9.4,109.55-34.55c0,0-3.25,25.7,58.9,52.5,0,0-23.7,34.7-31,121.1-8.85,105.25-49.1,132.45-49.1,132.45,230.75,38.2,481.85,36.75,697.75-135.4,163.6-130.45,382.85-194,598.55-200.5C2616,883.39,2527.05,754.74,2441.25,700Z" transform="translate(-473.69 -393.39)"/></g><path class="cls-7" d="M3070.08,2368.68h33.29l6.21-100.69C3036,2327.38,3070.08,2368.68,3070.08,2368.68Z" transform="translate(-473.69 -393.39)"/><path class="cls-6" d="M3103.37,2386.18h-33.29a17.52,17.52,0,0,1-13.5-6.37c-1.46-1.76-14.18-18-11.51-44.37,2.77-27.36,20.78-54.63,53.52-81.07a17.51,17.51,0,0,1,28.46,14.7l-6.22,100.69A17.5,17.5,0,0,1,3103.37,2386.18Zm-22.5-35h6l2.24-36.3C3078.46,2331.7,3078.93,2344.12,3080.87,2351.18Z" transform="translate(-473.69 -393.39)"/><path class="cls-9" d="M3334.23,1292.53c-183.21-133.39-274.82,75.54-274.82,75.54s-78.75,113.3-46.61,234.64,131.79,82,131.79,82-57.86,127-24.11,236.25-39.83,219.56-10.9,347.06l-20.44,331.15s-8.3,193.39,18.48,311.25,13.93,580.72,45,622.5,52.5-2.14,46.08-86.78-18.22-456.43-12.86-515.36-8-202-.27-324.38l8.73-344.19s1.72-127.5,48.32-204.65-4.82-179.64,20.9-265S3517.45,1425.93,3334.23,1292.53Z" transform="translate(-473.69 -393.39)"/><g class="cls-2"><path class="cls-3" d="M3292.45,1303.47c183.21,132.27-45,411.16-70.72,495.8s25.72,186.27-20.89,262.77c-42,68.93-18.1,180.84-13,202.29q3.18-.75,6.4-1.35l0-.8s1.72-127.5,48.32-204.65-4.82-179.64,20.9-265,253.93-366.6,70.71-500c-71.6-52.13-129.21-52-172.83-32.44C3198.07,1256.29,3241.75,1266.87,3292.45,1303.47Z" transform="translate(-473.69 -393.39)"/></g><g class="cls-5"><path class="cls-6" d="M3276.36,1533.09c-47.15,62.1-146.15,199.8-123.7,322s35.3,151,6.4,234.65c-24.85,71.85-36.95,159.2,34.8,189.9l-8.3,326.8c-.45,7.35-.85,14.7-1.15,22.15-11.65-3.9-23-4.25-33.3,1.15-48.85,25.7-4.75,130.7,0,272.15,4.3,127.55-21.45,450.45,45.8,515.55.6,11.5,1.25,21.25,1.8,28.7,6.4,84.65-15,128.6-46.1,86.8s-18.2-504.65-45-622.5-18.45-311.25-18.45-311.25l20.4-331.15c-28.9-127.5,44.65-237.8,10.9-347s24.15-236.25,24.15-236.25-99.65,39.35-131.8-82c-10.45-39.5-9.15-78.1-2.65-112.3,4.5,33.5,17.5,62,46.05,73.75,90,36.95,130.7-100.2,107.65-105s-39.1,13.95-39.1,13.95-6.4-98,77.7-86.25S3323.51,1470.94,3276.36,1533.09Z" transform="translate(-473.69 -393.39)"/></g><path class="cls-6" d="M3174.76,3566.39c-9.6,0-22.51-4.68-36.18-23.06-17.91-24.08-22.37-115.31-28.29-317.73-3.71-126.69-7.54-257.68-19.73-311.33-27-118.78-19.24-307.89-18.9-315.88l20.3-329c-14.33-65.85-3.26-125.78,7.45-183.76,10.33-55.86,20.07-108.62,4.35-159.53-25.43-82.34-2.6-172.23,13.09-218.12-16.46,1.12-37-.7-57.11-10.87-30.67-15.5-52.16-45.75-63.85-89.9-32.26-121.78,38.61-233.38,48.2-247.73,6.18-13.33,49.61-101,133.43-123.68,52.51-14.2,108.69.13,167,42.6h0c154.78,112.69,42.23,317.55-25,440-18.26,33.24-34,61.94-39.24,79.23-10.37,34.42-7,72.46-3.35,112.73,4.76,53.22,9.69,108.26-19.32,156.27-43.55,72.1-45.79,194.61-45.81,195.84l-8.72,344.4,0,.66c-4.29,67.61-2.09,140.43-.14,204.69,1.52,50,2.82,93.12.37,120.16-5.07,55.76,6,421.41,12.87,512.45,3,39.27,2.92,107-31.06,119.74A29.37,29.37,0,0,1,3174.76,3566.39ZM3144.53,1667.2a17.52,17.52,0,0,1,16,24.73c-.54,1.2-54.64,122.39-23.31,223.83,18.26,59.13,7.27,118.66-3.37,176.22-10.2,55.23-20.75,112.34-7.18,172.14a17.52,17.52,0,0,1,.4,5l-20.44,331.15c-.07,1.58-7.87,192.11,18.08,306.29,12.95,57,16.83,189.71,20.58,318.06,3.43,117.2,8.13,277.69,21.46,298a42.31,42.31,0,0,0,6.83,7.54c4.12-7,11.65-30.45,7.69-82.64-6.21-81.76-18.33-457.85-12.84-518.26,2.27-24.94,1-67.11-.49-115.94-1.87-61.7-4.2-138.47.17-207.63l8.71-343.87c.07-5.19,2.34-133,50.85-213.24,23.08-38.21,18.87-85.25,14.4-135.06-3.74-41.81-7.61-85,4.71-126,6.27-20.81,22.07-49.57,42.08-86,65.68-119.57,164.92-300.26,35.09-394.82h0c-49.26-35.86-95.39-48.36-137.09-37.15-72.61,19.52-111,104.73-111.41,105.59a17.69,17.69,0,0,1-1.65,2.94c-.73,1-73.67,108.38-44.06,220.17,9,33.93,24.3,56.63,45.51,67.48,29.64,15.16,62.67,2.79,63,2.66A17.61,17.61,0,0,1,3144.53,1667.2Z" transform="translate(-473.69 -393.39)"/><path class="cls-6" d="M2445.46,2344.39c-45.8,78.75-184,46.6-188.8-49-3.5-69.25,25.7-152.7-41.5-250.9,52.25,28.25,139.1,56.45,231.15,6.8C2447.41,2055,2503.16,2245.19,2445.46,2344.39Z" transform="translate(-473.69 -393.39)"/><ellipse class="cls-10" cx="1885.81" cy="1925.31" rx="89.6" ry="61.55"/><path class="cls-6" d="M2022.13,3541a2148,2148,0,0,1-370.38-32.61,17.72,17.72,0,0,1-4-1.19l-114.11-49.83a17.49,17.49,0,0,1-9.45-22c.14-.37,2.27-6.34,6-17.39-284.93-2.2-444.52-115-451.36-120a17.48,17.48,0,0,1-6.27-20c165.55-471.94,170.83-869.38,146.11-1119.68-26.8-271.32-93.63-433.11-94.3-434.71a17.5,17.5,0,0,1,9.38-22.92L1625.51,1495a16.43,16.43,0,0,1,2.57-.84c1.87-.47,189.81-46.37,431.13-65.15,223.53-17.39,540.21-14.43,779.45,98.45a17.51,17.51,0,0,1,9.79,12.89c.43,2.56,43.79,259.73,63.7,608.64,18.4,322.3,20,791.27-76.79,1195.16a17.58,17.58,0,0,1-7.81,10.81c-4.66,2.87-116.23,71.09-317.71,124.57C2390.78,3511.1,2224.66,3541,2022.13,3541Zm-362.29-66.72c365.42,63.55,658.15,19.8,839.48-28.16,171.12-45.26,277.92-102.63,303.72-117.36,94-398,92.31-859.42,74.19-1177.31-17.7-310.52-54-547.83-61.81-596.18-231.2-105.74-536.39-108.2-752.92-91.4-228.17,17.71-407.91,59.92-424.76,64l-67.16,28.09c79.18,198.24,128.22,419,145.84,656.43,14.45,194.83,7.9,401.29-19.49,613.66-35.52,275.51-97.58,490.46-125.5,578.26a17.07,17.07,0,0,1-.9,2.84c-3.21,10-5.93,18.28-8.06,24.64Zm-549.75-197.66c40.25,24.7,191.36,106.39,429,106.39h2.34c28.85-92.32,87-299.36,120.88-562.34,41.9-325.57,53.87-805.23-124-1251.23l-375.31,157c17.76,47.79,67.51,197.37,90.34,426.86C1278.38,2405.08,1273.58,2803.56,1110.09,3276.57Z" transform="translate(-473.69 -393.39)"/><path class="cls-6" d="M1654.78,3508.61a17.51,17.51,0,0,1-16.87-22.22C1819.73,2836.82,1804,2335.84,1758.8,2030c-48.83-330.34-141.1-509-142-510.72a17.5,17.5,0,1,1,31-16.26c3.9,7.42,96,185.69,145.66,521.86,29.1,196.91,37.33,407.19,24.47,625-16.08,272-65.29,556.65-146.27,846A17.51,17.51,0,0,1,1654.78,3508.61Z" transform="translate(-473.69 -393.39)"/><path class="cls-7" d="M1567.63,2382.49a57.49,57.49,0,0,0-81.3-1.57c-.61.59-62.1,59.57-135.14,116.09-65,50.3-107.88,74.52-134.67,86.15a77.27,77.27,0,0,1-79.63-10.74c-37.43-30.47-74.87-86.83-96.1-130.64,24-28.85,68.53-93.86,46.12-157.1-30-84.65-137.68-82.5-154.29-56.79,0,0-40.17-10.71-61.07-24.64s-81.43-10.72-83,64.82c0,0-97,30.54-35.9,127.5,0,0-3.75,78.75,37,103.39s48.75-34.28,48.75-34.28,48,28.3,95.46,19.85c.08.18.13.37.22.55,9.55,20.63,97,202.06,226.51,222.3a125.63,125.63,0,0,0,19.68,1.54c41.24,0,110.42-19.65,241.35-121,77.89-60.27,141.82-121.6,144.5-124.18A57.49,57.49,0,0,0,1567.63,2382.49Z" transform="translate(-473.69 -393.39)"/><path class="cls-6" d="M1180.21,2726.42a144,144,0,0,1-22.37-1.75c-124.87-19.51-211.31-175.09-234.42-221.32-28.84,1.81-56.14-6.61-73.81-13.88-4.53,11.07-12.2,23.15-25,29.26-9.22,4.41-24.34,7.14-44.07-4.8C737.67,2488,734.8,2421.25,735,2400.29c-20-33.63-25.11-64.36-15.19-91.39,10.81-29.45,36.74-45.59,51.91-52.81,4.38-43,27.21-61.31,41.18-68.6,24.53-12.78,53-9.08,68.36,1.2,11.79,7.86,32.84,15.32,46.48,19.55,16.67-12.1,44.25-15.3,67.8-12.55,51.21,6,91.54,37.07,107.86,83.14,22.88,64.54-13.38,128.17-41.93,165.13,20.67,39.82,53.86,88.34,86.47,114.89a59.6,59.6,0,0,0,61.61,8.25c23.33-10.12,65-32.91,130.93-83.93,70.53-54.57,131.16-112.41,133.7-114.85a75,75,0,0,1,106.07,2h0a75,75,0,0,1-2.06,106c-2.68,2.58-66.77,64.17-145.92,125.41C1323.89,2685.65,1241.44,2726.42,1180.21,2726.42ZM950.07,2478.1c10.28,22.09,93.57,193.3,213.17,212a109,109,0,0,0,17,1.33c52.45,0,130-39.47,230.64-117.3,77.67-60.09,140.43-120.4,143.07-122.93a40,40,0,0,0,1.1-56.57h0a39.72,39.72,0,0,0-28-12.26,39.27,39.27,0,0,0-28.5,11.17c-6.62,6.32-65.83,62.59-136.57,117.32-55.24,42.74-101.81,72.47-138.42,88.36a94.49,94.49,0,0,1-97.64-13.22c-42.2-34.35-80.67-95-100.8-136.58a17.51,17.51,0,0,1,2.29-18.82c19.55-23.52,62.87-84.23,43.09-140.07-16.16-45.58-57.51-56.77-74.54-59.46-27.38-4.32-45.86,2.82-48.6,6.39a17.41,17.41,0,0,1-19.17,7.35c-1.75-.47-43.23-11.64-66.26-27-5.78-3.84-20.38-5.75-32.76.71-14.56,7.6-22.54,24.86-23.08,49.92a17.49,17.49,0,0,1-12.24,16.32c-.24.08-31.84,10.62-41.17,36.39-6.34,17.51-1.35,39.41,14.83,65.09a17.45,17.45,0,0,1,2.67,10.16c-.85,19,2.61,71.89,28.55,87.59,4.83,2.92,8.89,4.09,10.87,3.16,5.28-2.52,10.33-16.39,11.48-24.84a17.5,17.5,0,0,1,26.22-12.71c.4.23,43.23,24.86,83.51,17.7a17.48,17.48,0,0,1,19,10.08C949.85,2477.56,950,2477.84,950.07,2478.1Zm-.23-.5a2.56,2.56,0,0,0,.11.24A2.56,2.56,0,0,0,949.84,2477.6Z" transform="translate(-473.69 -393.39)"/><path class="cls-6" d="M947.67,2236.84c-9.15,19,3,34.78,20,44.49,10.39,6.49,10.84,22.29,1,29.44l-1.52,1.13c-5.12,1.46-10.71,4.89-15.21,8a48,48,0,0,0-20.47,49.58,4.56,4.56,0,0,1-8.71,2.37c-7.24-14.68-9.42-32.86-3.6-48.86a88.38,88.38,0,0,1,31.49-42l-.53,30.57c-34.05-19.06-52.11-56-32.51-92.65,12.3-19.52,41.38-2.27,30.09,17.89Z" transform="translate(-473.69 -393.39)"/><path class="cls-6" d="M963.59,2279.61c17.55,6.28,46.64,18.95,63,5.12a3.05,3.05,0,0,1,5,2.93,24.9,24.9,0,0,1-5.2,10.15c-18.36,18.84-47.9,18.41-72.31,15.51-25.89-5.17-15.41-42.73,9.43-33.71Z" transform="translate(-473.69 -393.39)"/><path class="cls-6" d="M805.9,2270.08c.24,16.81,1,40,15.38,50.17,35,16.46,52.88-19.51,37.81-49.95-5.12-10.21,8.82-19.26,16.09-10.61a65.53,65.53,0,0,1,13.29,58.24c-8.38,36.27-53.15,50.83-85,33.8-30.43-17.25-36.21-54.51-32.31-85.67,3.9-22.33,35.94-18.46,34.77,4Z" transform="translate(-473.69 -393.39)"/><path class="cls-6" d="M827.38,2338.16c15.87,23.4,19.75,56.64-.9,80.57-24.52,27.28-64.73,10-86.05-10.61-16.95-15.71,5.41-41.13,23.15-26.3,10.61,10.49,21.47,21.75,35.54,22,24.79-2.82,26.63-41.51,20.19-61.65-1.64-4.87,5.22-8.23,8.07-4Z" transform="translate(-473.69 -393.39)"/><path class="cls-6" d="M828.91,2398.91c12.13,20.55,21.5,41.3,26.91,65a17.9,17.9,0,1,1-34.8,8.35,18.22,18.22,0,0,1-.17-6.89,162.47,162.47,0,0,0,2-30.81,236.28,236.28,0,0,0-2.92-32.41c-.91-5.18,6.34-7.78,8.95-3.28Z" transform="translate(-473.69 -393.39)"/><path class="cls-11" d="M1233,1678.14" transform="translate(-473.69 -393.39)"/><path class="cls-11" d="M1194.93,3337.83" transform="translate(-473.69 -393.39)"/><path class="cls-11" d="M1233,1678.14" transform="translate(-473.69 -393.39)"/><path class="cls-11" d="M1194.93,3337.83" transform="translate(-473.69 -393.39)"/><path class="cls-6" d="M2153,1835.21a149.25,149.25,0,0,0-12.48-60.32c-49.43-17.23-98.89-34.07-148-52.18-32.74,22.15-54.87,64.22-54.87,112.5,0,63.83,38.64,116.8,89.39,127.22a144.49,144.49,0,0,1,66-11.48C2128.55,1929.85,2153,1886,2153,1835.21Z" transform="translate(-473.69 -393.39)"/><path class="cls-6" d="M1919.79,1683.34c44.42,6,87,18.18,129.22,32.07,41.87,14.24,83.07,30,121.92,51.46a17.71,17.71,0,0,1-12.33,32.76c-43.38-9.48-84.72-24.84-125.58-41.76-40.92-17.43-80.9-36.38-118.27-61.14-6.35-4.14-2.44-14.5,5-13.39Z" transform="translate(-473.69 -393.39)"/><path class="cls-6" d="M1969,2008.83c22.68-47.47,77.53-83.91,131.32-73.93,18.57,3.94,35.59,14.29,45.44,29.59a2.75,2.75,0,0,1-.82,3.79,2.82,2.82,0,0,1-1.88.42c-8.9-.71-16.55-2-24.11-2.16a170.32,170.32,0,0,0-41.56,3.3c-33.84,6.38-73.11,27.58-104.71,42.38a2.66,2.66,0,0,1-3.68-3.39Z" transform="translate(-473.69 -393.39)"/><ellipse class="cls-3" cx="1601.08" cy="1423.08" rx="33.75" ry="40.98"/><g class="cls-2"><ellipse class="cls-3" cx="2017.45" cy="1907.87" rx="16.88" ry="20.49" transform="translate(-678.93 -149.77) rotate(-6.58)"/></g><path class="cls-6" d="M2480.69,1799.63a149.45,149.45,0,0,1,6.35-61.28c47.45-22.11,95-43.84,142-66.8,34.8,18.74,61,58.36,65.91,106.41,6.42,63.5-26.69,120.09-76.13,135.56a144.36,144.36,0,0,0-66.83-4.77C2514.53,1891.33,2485.8,1850.12,2480.69,1799.63Z" transform="translate(-473.69 -393.39)"/><path class="cls-6" d="M2703.78,1637.87c-34.69,28.4-72.56,51.28-111.52,72.74-39,20.94-78.52,40.39-120.74,54.18a17.71,17.71,0,0,1-15.57-31.35c36.5-25.3,75.91-45.08,116.13-63.47,40.64-18.07,81.75-34.43,125.34-44.91,7.36-1.83,12.28,8.09,6.36,12.81Z" transform="translate(-473.69 -393.39)"/><path class="cls-6" d="M2677.9,1957.59c-47.37-16.94-99.24-39.31-150.13-30.73-7.54.94-15.13,3-23.94,4.61a2.75,2.75,0,0,1-3.19-2.21c6.42-17.4,24.43-29.66,42.48-35.75,35.16-11.16,74.65,1.45,103.08,22.37,14,10.35,26.21,22.64,35,38a2.65,2.65,0,0,1-3.31,3.74Z" transform="translate(-473.69 -393.39)"/><ellipse class="cls-3" cx="2616" cy="1757.03" rx="33.75" ry="40.98" transform="translate(-637.24 -121.19) rotate(-5.78)"/><g class="cls-2"><ellipse class="cls-3" cx="2558.57" cy="1857.37" rx="20.49" ry="16.88" transform="translate(191.94 3996.36) rotate(-89.2)"/></g><path class="cls-6" d="M2341.69,2095.72c-106.37,0-187.42-71.1-188.61-72.17a17.5,17.5,0,0,1,23.36-26.07c6.4,5.71,156.17,136.07,307.48,6.58a17.5,17.5,0,1,1,22.76,26.59C2449.88,2079.26,2392.85,2095.72,2341.69,2095.72Z" transform="translate(-473.69 -393.39)"/><path class="cls-6" d="M2364.43,2406.39a136.66,136.66,0,0,1-32.28-3.95c-53.9-13.09-90.39-54.76-93-106.17-.91-18.05.24-36.36,1.46-55.74,3.61-57.57,7.35-117.1-39.88-186.15a17.49,17.49,0,1,1,28.88-19.75c54,79,49.54,150.57,45.93,208.09-1.15,18.37-2.24,35.72-1.43,51.79,2.18,43.21,37.07,66.82,66.28,73.92,28.65,7,69.39,2.53,89.95-32.82,53.74-92.4-.26-277.5-.81-279.36a17.5,17.5,0,0,1,33.55-10c2.43,8.18,58.87,201.46-2.48,306.94C2440.84,2387.2,2405,2406.38,2364.43,2406.39Z" transform="translate(-473.69 -393.39)"/><path class="cls-7" d="M3275.84,2485s30.84-180-81.54-222.85v70c-16.52-2.51-39-2.36-69,4.21-84.37,18.49-63.48,86-63.48,86s-29.73,23.3-7.23,70.71c0,0-40.18,68.3,34.55,106.07,0,0,57.06-41,96.43,7.23,0,0,80.63,81.16,123.48,87.59S3372.27,2587.89,3275.84,2485Z" transform="translate(-473.69 -393.39)"/><g class="cls-2"><path class="cls-3" d="M3275.84,2485s30.84-180-81.54-222.85v21.44c70,63,46.3,201.41,46.3,201.41,58.19,62.08,82.29,148.68,82.86,206.23C3355.12,2673.24,3360.59,2575.43,3275.84,2485Z" transform="translate(-473.69 -393.39)"/></g><path class="cls-6" d="M3312.53,2711.73a40.41,40.41,0,0,1-6.07-.46c-47.23-7.09-124.63-83.83-133.3-92.56a15.07,15.07,0,0,1-1.14-1.26c-27.87-34.13-68.21-7.23-72.73-4a17.63,17.63,0,0,1-18,1.36c-27.24-13.76-44.6-32.85-51.61-56.72-7.95-27.06.19-52.64,5.71-65.41-13.53-34.87-3.71-61.35,7.57-75.77-1.66-12.27-2-33.28,9.8-53.46,12.87-22.09,36-36.93,68.84-44.12,20-4.38,38.49-6.39,55.24-6.09v-51a17.51,17.51,0,0,1,23.73-16.36c110.76,42.24,98.74,194.94,93.81,233.53,67.66,76,80.46,162,57.52,205.69C3342.92,2702.09,3328.52,2711.73,3312.53,2711.73Zm-114-117.12c29.77,29.84,86.27,78,113.1,82,3.84.59,7.17-4,9.22-7.88,14.94-28.47,6.91-102.76-57.8-171.78a17.51,17.51,0,0,1-4.48-14.91h0c.25-1.5,22.34-137.63-46.79-190.4v40.47a17.51,17.51,0,0,1-20.13,17.3c-17.36-2.63-38.43-1.29-62.62,4-22.85,5-38.36,14.27-46.09,27.55-9.92,17-4.48,36-4.42,36.16a17.5,17.5,0,0,1-5.92,19c-1.62,1.4-17.8,16.6-2.22,49.44a17.49,17.49,0,0,1-.73,16.37c-.08.15-13.25,23.53-6.38,46.48,3.54,11.81,12.06,22,25.38,30.39C3116.06,2563.71,3163.81,2552.83,3198.55,2594.61Z" transform="translate(-473.69 -393.39)"/><path class="cls-6" d="M3055.89,2405.89c45.1-10.5,95.62-7.84,135.55,17.06,6,3.73,1.18,12.92-5.31,10.06a133.57,133.57,0,0,0-60.38-8.54c-19.8,1.64-39.9,6.3-58,14.35-23.9,10.55-37.05-25.71-11.86-32.93Z" transform="translate(-473.69 -393.39)"/><path class="cls-6" d="M3047.85,2475c45.11-10.5,95.62-7.84,135.55,17.06,6,3.73,1.19,12.92-5.3,10.06a133.63,133.63,0,0,0-60.39-8.54c-19.8,1.64-39.9,6.29-58,14.35-23.91,10.54-37-25.71-11.87-32.93Z" transform="translate(-473.69 -393.39)"/><path class="cls-6" d="M3128,1679.11c21.85-59.11,44.59-116.07,79.92-169.19,15.32-20.61,8.72-43.92-3.88-59.2-17-20.69-40.86-11.5-58.29,4.36a6.4,6.4,0,0,1-10.36-6.87,71.58,71.58,0,0,1,13-22.32,56,56,0,0,1,23.8-16.22c19.7-7.33,43.53-.82,58.74,13,23.59,20.07,30.17,54.74,19.07,82.78a105.22,105.22,0,0,1-13.41,24.52c-16.35,23.45-30.18,50-42.56,77a885.49,885.49,0,0,0-32.91,83.49c-8.07,21.74-40.12,10.9-33.1-11.38Z" transform="translate(-473.69 -393.39)"/><g class="cls-5"><path class="cls-6" d="M1567.63,2382.49a57.49,57.49,0,0,0-72.78-8.31c19.05,24.36,34.09,57.54,18.49,93.18,0,0-278.57,240.53-366.43,191.25s-188-225.94-188-225.94-77.67,25.58-86.25-21.56,51.07-71,51.07-71,80.45,9.66,105.36-46.41c0,0-106.2-20.82-74.86-78.5-10.25,2.72-18,7.13-21.57,12.64,0,0-40.17-10.71-61.07-24.64-5.75-3.84-14.52-6.36-24.23-6.44-2.74,11.55-3.39,26.82,1.73,46.08,13.4,50.36,16.23,74.56-16.41,78.22s-38.23-17.8-38.23-17.8,20.92,84.22,2.14,97.35-24.76,10-24.76,10,19.05,11.66,38.16,7.68c0,0-4.54,65.17-27.67,75.27a50.68,50.68,0,0,0,7.31,5.39c40.71,24.65,48.75-34.28,48.75-34.28s48,28.3,95.46,19.85c.08.18.13.37.22.55,9.55,20.63,97,202.06,226.51,222.3a125.63,125.63,0,0,0,19.68,1.54c41.24,0,110.42-19.65,241.35-121,77.89-60.27,141.82-121.6,144.5-124.18A57.49,57.49,0,0,0,1567.63,2382.49Z" transform="translate(-473.69 -393.39)"/></g></svg>