<svg id="Layer_1" data-name="Layer 1" xmlns="http://www.w3.org/2000/svg" viewBox="0 0 2790.46 2995.22"><defs><style>.cls-1{fill:#020772;}.cls-2{fill:#fff;}.cls-3{fill:#9666ff;}.cls-4{fill:#ff9fc6;}.cls-5{opacity:0.25;}.cls-6{fill:none;}.cls-7{fill:#d68949;}.cls-8{fill:#ffc580;}.cls-9{opacity:0.4;}.cls-10{fill:#ffce43;}.cls-11{fill:#ff6c85;}.cls-12{fill:#ff61c7;}.cls-13{opacity:0.35;}</style></defs><title>wizard2</title><path class="cls-1" d="M1676,2259.15l-432,120.52,422.2-151.38c21.08-6.74,31,24.12,9.83,30.86Z" transform="translate(-498.1 -464)"/><path class="cls-1" d="M930.12,1736.25l-432,120.52,422.2-151.38c21.08-6.75,31,24.11,9.82,30.86Z" transform="translate(-498.1 -464)"/><path class="cls-1" d="M1091.09,862.23l-432,120.52,422.2-151.38c21.08-6.74,31,24.12,9.82,30.86Z" transform="translate(-498.1 -464)"/><path class="cls-1" d="M948.68,3106.76l-432,120.52,422.2-151.39c21.08-6.74,31,24.12,9.83,30.87Z" transform="translate(-498.1 -464)"/><path class="cls-2" d="M2751.08,2571.12s158.14,44.62,214.76,176.9,42.68,246.9,26.53,289.41-62.81,87.49-88,114.26-50.92,80.31-50.92,80.31-32.91-29.44-30.89-72.46c0,0-101.39,135.45-242.6,181.12s-177.14,33.24-177.14,33.24,18.77-45.83,20.72-51.08-134.93,31.49-235.71,96.58c0,0,1.91-85.86,53.72-157.36s114.27-120.15,114.27-120.15,173.1-21,212.79-81.74,21.79-151.5,21.79-151.5,81-71,95.63-126.59-12.33-100.39-12.33-100.39S2709.61,2655.63,2751.08,2571.12Z" transform="translate(-498.1 -464)"/><path class="cls-2" d="M1935.67,3174.21a150.43,150.43,0,0,1-7.07-22.8,131.4,131.4,0,0,1-3.38-23.26,89.38,89.38,0,0,1,1.73-23.33,57.74,57.74,0,0,1,9.45-20.89,56,56,0,0,0-5.69,21.43,83.78,83.78,0,0,0,2.06,21.79,122.27,122.27,0,0,0,6.71,20.81,147.7,147.7,0,0,0,7.45,15.39c13.75-14.4,35.78-27.52,71-33.54a3.86,3.86,0,0,1-.2-.41,7.92,7.92,0,0,1-.31-1.13c-1.66-8.6-2.77-16.86-3.66-25.33s-1.3-16.89-1.3-25.36a130.27,130.27,0,0,1,2.24-25.31c1.67-8.22,4.32-16.72,10-22.93-4.68,7-5.86,15.36-6.26,23.4A124.41,124.41,0,0,0,2020,3077a244,244,0,0,0,5,23.92c2,7.84,4.41,15.79,7.06,23.19l0,.11a7.51,7.51,0,0,1,.35,3.53c69.15-7.24,122.38-10.2,152.18,11.77-20.45-24-43-59.8-42.41-101.08.53-40.14,22.81-77.15,66.24-110-13.93-34.26-81-210.7-40.84-338.51-17.76-9-93.18-41.09-176.59,12a7.52,7.52,0,0,1-3,2c-92,61.13-72.28,180.38-72.07,181.58a8.28,8.28,0,0,1,.06.86c0,.11,0,.2,0,.31,0,1.35,3.3,133.67,51.57,180.2l12-.44,16-.38c10.69-.16,21.41,0,32.1.55a271.56,271.56,0,0,1,31.94,3.3c10.52,1.81,21.06,4.21,30.71,8.7-10.1-3.3-20.65-4.38-31.12-4.92a262.35,262.35,0,0,0-31.47.54c-10.48.72-20.92,1.81-31.34,3.21l-15.61,2.26-7.85,1.23-4,.61-2.1.3h-.16c-10.27,6-77.52,47.3-91.82,106.18-6.67,27.44-.8,55.13,17.44,82.31a140,140,0,0,0,33.09,34.43,82.06,82.06,0,0,1,11.44-28.62,7.55,7.55,0,0,1-.6-.77A7.91,7.91,0,0,1,1935.67,3174.21Z" transform="translate(-498.1 -464)"/><path class="cls-3" d="M2207,3173c1.58-2.11,3.12-4.24,4.52-6.42-3.1-2.65-7.36-6.46-12.26-11.29A70,70,0,0,1,2207,3173Z" transform="translate(-498.1 -464)"/><path class="cls-4" d="M2315.15,3060.77c-74.08,22.44-80.84,66.87-80.64,83.45,37.67-2,212.17-13.11,286.27-52a116.31,116.31,0,0,0,29.54-21.8c1.23-8.91-1-15.71-7.12-21.21C2513.33,3022.27,2403.79,3033.93,2315.15,3060.77Z" transform="translate(-498.1 -464)"/><path class="cls-2" d="M2902.81,1927.5c-.34-.93-.62-1.85-.92-2.78a35.27,35.27,0,0,1-3.53,5.52,42.8,42.8,0,0,1-10.37,9.14,68.85,68.85,0,0,1-23.52,8.86,118.7,118.7,0,0,1-47.25-.25c15.32-3.13,30.27-6.31,44.07-11.2,6.82-2.55,13.36-5.51,18.62-9.37s8.85-8.5,10.06-13.79.19-11.42-2.44-17.5a86.06,86.06,0,0,0-11.26-17.75c-9.26-11.38-20.32-21.92-31.75-32.58a120,120,0,0,1,40.38,24.49,76.06,76.06,0,0,1,12.18,13.91c3.39-39.26,28.21-67.46,29.62-69a7.93,7.93,0,0,1,.58-.58c21.27-19.12,71.27-75.27,47.43-105.06-.68-.85-1.71-1.75-4.21-2-29.1-2.3-121,80-218.52,167.3-74.05,66.27-158,141.39-243.3,207.57-212.75,165-511.26,218.41-542.58,223.64-10.85,11.85-69.78,77.74-97.63,140.87-25.67,58.19-53.13,163-61.83,197.36,3.88-.64,7.75-1.22,11.65-1.77q12-1.68,24-2.75a356,356,0,0,1,48-1.34,351.77,351.77,0,0,0-46.67,8.84q-11.47,2.92-22.77,6.39c-7,2.17-14.11,4.52-20.87,7-8.9,6-109.57,76.38-64.22,148.7,9.64,15.36,22.35,24.06,38.86,26.57,48,7.29,111.1-40.55,125.76-52.31-2.8-23.16-10.42-130.86,77-190.86q-5.8-49.62-9.29-99.21c-2.41-34.73-4-69.53-3.65-104.29,2.19,34.68,6.3,69.15,11.21,103.48,4.45,30.59,9.53,61.14,15.23,91.43,83.11-48.08,159.49-19.14,181.81-8.64,1.88-4.81,3.89-9.56,6.13-14.2,23.07-47.72,62.83-79.53,118.18-94.53C2460.3,2422.54,2531.32,2524,2532,2525a7.59,7.59,0,0,1,.13,8.35c-55.17,86.87-5.61,185.88,7,208.31,88.88-23.13,148.8-67.89,178.13-133.07,62.44-138.74-32.82-326.59-36.15-333.06l-.05-.1,0-.11c-6.36-12.87-13.32-25.78-20.46-38.44s-14.61-25.21-22.49-37.48c-15.78-24.48-32.81-48.35-53.59-69.07,22.52,18.85,41.8,41.43,59.82,64.69,9,11.68,17.59,23.67,26,35.82,6.51,9.53,12.8,19.17,19,29,37.49-35.39,220.92-209.39,258-260.31a217,217,0,0,1,18.64-22.39C2945.74,1975.54,2916.86,1966.09,2902.81,1927.5Z" transform="translate(-498.1 -464)"/><path class="cls-2" d="M2516.51,2529.7c-14.13-17.46-79.28-85.15-215.57-48.18-50.9,13.79-87.39,42.87-108.45,86.43-57.23,118.36,12.83,310.94,29.05,352.14,3.25-1.68,6.46-3.14,9.81-4.59,6.07-2.65,12.25-4.81,18.44-6.87a289.35,289.35,0,0,1,37.76-9.12,368.87,368.87,0,0,1,38.22-4.59c6.38-.46,12.77-.61,19.14-.92l19.13-.09-19,2c-6.29,1-12.59,1.73-18.83,2.81a362.26,362.26,0,0,0-37,8.23,279.92,279.92,0,0,0-35.42,12.39c-5.67,2.53-11.28,5.15-16.62,8.15a103.74,103.74,0,0,0-14.77,9.55l-.33.27c-.06.05-.14.08-.2.13-42.26,30.72-64,64.77-64.47,101.19-.73,53.17,43.77,98.3,61.51,114.16.26-.59.56-1.17.81-1.76-.83-7.93-1.57-32.38,16.24-57.08a100.4,100.4,0,0,1-13.41-20.19,110.77,110.77,0,0,1-8.66-22.39,104.54,104.54,0,0,1-3.69-23.32,115.6,115.6,0,0,1,1.24-23.19,113.31,113.31,0,0,0,2.53,22.69,99.19,99.19,0,0,0,7.09,21.25,101,101,0,0,0,11.21,19,88.53,88.53,0,0,0,13.51,14.68c13.64-13.82,34.13-26.9,64.94-36.23,4.46-1.35,9.12-2.69,13.92-4a171,171,0,0,1-11.63-19.77,153.21,153.21,0,0,1-9.13-21.83,106.82,106.82,0,0,1-4.93-23,66.57,66.57,0,0,1,2.08-23.08,64.48,64.48,0,0,0,1.68,22.46,101.09,101.09,0,0,0,8.19,20.73,144.67,144.67,0,0,0,11.86,18.83,158.42,158.42,0,0,0,14.08,16.76l.1.1a7.54,7.54,0,0,1,2.13,5c75.89-19.25,179.25-32.07,214.31-.42a36.91,36.91,0,0,1,10.37,15.55c28.15-43.89,20.16-100.4,16.58-125.68l-.59-4.17c-3.9-28.59-47.45-158.81-51.19-170C2522.12,2743.09,2456.52,2630.51,2516.51,2529.7Z" transform="translate(-498.1 -464)"/><path class="cls-4" d="M2033.78,3143c-84.74,8.88-93.65,57.14-94.44,71.15,40.88,24,91.75,29.73,133.69,25.26,50.18-5.36,93.76-24.67,121.62-52.2C2186.51,3136.3,2144.42,3131.34,2033.78,3143Z" transform="translate(-498.1 -464)"/><path class="cls-2" d="M2976.24,1781.25c-15.61,23.18-35.15,41.36-38.43,44.35-3.16,3.7-38.75,47.12-20.7,96.69,16.31,44.78,56.3,40.75,65.21,39.25,3.41-2.93,6.66-5.62,9.73-8.14,20-16.46,33.24-27.33,39.89-67.2C3040.64,1834,2993.47,1793.94,2976.24,1781.25Z" transform="translate(-498.1 -464)"/><g class="cls-5"><path class="cls-1" d="M1971.58,3228.81s-3.15-33,53.13-50.36,158.12-24.87,166.52-14.27,16.48,27-4.88,40.58-59.16,31.43-108.5,39.83S1979.22,3237.71,1971.58,3228.81Z" transform="translate(-498.1 -464)"/></g><g class="cls-5"><path class="cls-1" d="M2273.64,3141.62s12.08-31.14,52.5-52.8,140.23-34.35,180.57-34.78,47.25,4.73,47.25,4.73,16.83,19-29.65,40.21-168.11,42-171.86,42.64S2273.64,3141.62,2273.64,3141.62Z" transform="translate(-498.1 -464)"/></g><path class="cls-6" d="M1726.67,2763.76s42,21,80.84,11.54c34.89-8.48,83.2-38.55,92.69-44.59,2.09-20,7-43.17,17.31-66.09,10.2-44.94,21.88-102.3,23.33-135,2.63-59.32,23.53-123.37,23.53-123.37l.08.95c0-6-.12-12-.06-17.94,2.19,34.68,6.3,69.15,11.21,103.48,4.45,30.59,9.53,61.14,15.23,91.43,83.11-48.08,159.49-19.14,181.81-8.64,1.88-4.81,3.89-9.57,6.13-14.2,23.07-47.72,62.83-79.53,118.18-94.53,71.06-19.26,124.62-10.94,162.55,4.68a11.79,11.79,0,0,1,0-3.8s151.88-10.5,168.68-91-77.69-246.39-77.69-246.39-100.79,144.9-211.37,192.5-364.19-18.27-364.2-18.27c-3.89.7-6.85,1.21-8.79,1.53-10.85,11.85-69.78,77.74-97.63,140.87-25.67,58.19-53.13,163-61.83,197.36,3.88-.64,7.75-1.22,11.65-1.77q12-1.68,24-2.75a356,356,0,0,1,48-1.34,351.77,351.77,0,0,0-46.67,8.84q-11.47,2.92-22.77,6.39c-7,2.17-14.11,4.52-20.87,7-7.77,5.25-85.47,59.55-74.9,121.38A73,73,0,0,1,1726.67,2763.76Z" transform="translate(-498.1 -464)"/><path class="cls-6" d="M2435.32,2656.67c-13-89.52,50.08-126.66,72.2-136.81-24.74-24.49-89.3-70.15-206.58-38.34-50.9,13.79-87.39,42.87-108.45,86.43-57.23,118.36,12.83,310.94,29.05,352.14,3.25-1.68,6.46-3.14,9.81-4.59,6.07-2.65,12.25-4.81,18.44-6.87a289.35,289.35,0,0,1,37.76-9.12,368.87,368.87,0,0,1,38.22-4.59c6.38-.46,12.77-.61,19.14-.92l19.13-.09-19,2c-6.29,1-12.59,1.73-18.83,2.8a365,365,0,0,0-37,8.24,279.92,279.92,0,0,0-35.42,12.39c-5.67,2.53-11.28,5.15-16.62,8.15a103.74,103.74,0,0,0-14.77,9.55l-.33.27c-.06.05-.14.08-.2.13-42.26,30.72-64,64.77-64.47,101.19-.53,38.19,22.26,72.16,41.73,94.18a23,23,0,0,1,.15-2.72s-4.77-32.56,18.68-66.46a111.8,111.8,0,0,1-7.76-35.58,115.6,115.6,0,0,1,1.24-23.19,113.31,113.31,0,0,0,2.53,22.69,99.19,99.19,0,0,0,7.09,21.25c1,2.21,2.09,4.37,3.25,6.49,11.57-13.86,28.28-27.52,52.46-38.85,9.45-4.42,19-8.33,28.5-11.84-.48-1.33-1-2.65-1.39-4a106.82,106.82,0,0,1-4.93-23,66.57,66.57,0,0,1,2.08-23.08,64.48,64.48,0,0,0,1.68,22.46,101.09,101.09,0,0,0,8.19,20.73c.72,1.4,1.58,2.73,2.36,4.1,76.67-26.35,152.24-26.08,190.28-31.51C2547.66,2963.93,2451.07,2764.81,2435.32,2656.67Z" transform="translate(-498.1 -464)"/><path class="cls-6" d="M2184.61,3139.55c-.51-.59-1-1.23-1.53-1.84-.24.12-.47.24-.74.35C2183.09,3138.57,2183.89,3139,2184.61,3139.55Z" transform="translate(-498.1 -464)"/><path class="cls-6" d="M2718.78,2138c94.49-40.94,168-152.75,168-152.75l-52-35a119.87,119.87,0,0,1-17.52-2.31l1.92-.4c-9.34-2.36-18.94-6.51-16.38-13.48,4.73-12.86,79-20.21,85.57-31.24a15,15,0,0,0,.93-1.89,39.33,39.33,0,0,0-1.74-4.85,86.06,86.06,0,0,0-11.26-17.75c-9.26-11.38-20.32-21.92-31.75-32.58a119.82,119.82,0,0,1,34.56,19.66l-.25-.38s-7.82-29.4,24.73-60.89,70.34-70.87,71.39-86.61c.22-3.26.83-4.84,1.64-5.39a27.9,27.9,0,0,0-1.88-2.66c-.68-.85-1.71-1.75-4.21-2-29.1-2.3-121,80-218.52,167.3-51.75,46.32-108.38,96.92-166.88,145.8C2591.48,2043.58,2632.4,2175.47,2718.78,2138Z" transform="translate(-498.1 -464)"/><path class="cls-6" d="M2937.81,1825.6a120.8,120.8,0,0,0-21.45,40.1c12.2,17,44.68,52.16,69.61,39.27,24.71-12.76,33.91-54.26,36.73-71.57-13.21-25.6-35.69-44.22-46.46-52.15C2960.63,1804.43,2941.09,1822.61,2937.81,1825.6Z" transform="translate(-498.1 -464)"/><path class="cls-6" d="M2315.15,3060.77c-74.08,22.44-80.84,66.87-80.64,83.45,37.67-2,212.17-13.11,286.27-52a116.31,116.31,0,0,0,29.54-21.8c1.23-8.91-1-15.71-7.12-21.21C2513.33,3022.27,2403.79,3033.93,2315.15,3060.77Z" transform="translate(-498.1 -464)"/><path class="cls-6" d="M2033.78,3143c-84.74,8.88-93.65,57.14-94.44,71.15,40.88,24,91.75,29.73,133.69,25.26,50.18-5.36,93.76-24.67,121.62-52.2C2186.51,3136.3,2144.42,3131.34,2033.78,3143Z" transform="translate(-498.1 -464)"/><path class="cls-6" d="M2207,3173c1.58-2.11,3.12-4.24,4.52-6.42-3.1-2.65-7.36-6.46-12.26-11.29A70,70,0,0,1,2207,3173Z" transform="translate(-498.1 -464)"/><path class="cls-6" d="M1926.66,3141.44a111.55,111.55,0,0,1-1.44-13.29,89.38,89.38,0,0,1,1.73-23.33,57.74,57.74,0,0,1,9.45-20.89,56,56,0,0,0-5.69,21.43,83.78,83.78,0,0,0,2.06,21.79c.41,1.95.91,3.89,1.45,5.81,17-17.94,42.22-36.62,78.39-48.51-.06-2.29-.18-4.58-.18-6.87a130.27,130.27,0,0,1,2.24-25.31c1.67-8.22,4.32-16.72,10-22.93-4.68,7-5.86,15.36-6.26,23.4A124.41,124.41,0,0,0,2020,3077c.25,1.64.6,3.26.89,4.88,1.27-.36,2.5-.75,3.8-1.1,69.86-18.67,114.2-10.5,119.1-91s-35.69-193.17-28.69-287c5.86-78.5,41.12-106,52.46-112.87,0,0,0,0,0-.06-17.76-9-93.18-41.09-176.59,12a7.52,7.52,0,0,1-3,2c-92,61.13-72.28,180.38-72.07,181.58a8.28,8.28,0,0,1,.06.86c0,.11,0,.2,0,.31,0,1.35,3.3,133.67,51.57,180.2l12-.44,16-.38c10.69-.16,21.41,0,32.1.55a271.56,271.56,0,0,1,31.94,3.3c10.52,1.81,21.06,4.21,30.71,8.7-10.1-3.3-20.65-4.38-31.12-4.92a262.35,262.35,0,0,0-31.47.54c-10.48.72-20.92,1.81-31.34,3.21l-15.61,2.26-7.85,1.23-4,.61-2.1.3h-.16c-10.27,6-77.52,47.3-91.82,106.18-6.67,27.44-.8,55.13,17.44,82.31a132.14,132.14,0,0,0,9.57,12.44C1902.23,3181.8,1908.57,3163.19,1926.66,3141.44Z" transform="translate(-498.1 -464)"/><g class="cls-5"><path class="cls-1" d="M1934.22,3133a138,138,0,0,0,5.26,15,149.74,149.74,0,0,0,7.45,15.39c13.75-14.4,35.78-27.52,71-33.54a3.86,3.86,0,0,1-.2-.41,7.92,7.92,0,0,1-.31-1.13c-1.66-8.6-2.77-16.86-3.66-25.33-.61-6.14-.94-12.31-1.12-18.49C1976.44,3096.34,1951.27,3115,1934.22,3133Z" transform="translate(-498.1 -464)"/></g><g class="cls-5"><path class="cls-1" d="M1925.42,3204.76a82.06,82.06,0,0,1,11.44-28.62,7.55,7.55,0,0,1-.6-.77,7.91,7.91,0,0,1-.59-1.16,150.43,150.43,0,0,1-7.07-22.8c-.74-3.3-1.39-6.63-1.94-10-18.09,21.75-24.43,40.36-24.76,41.33A144.73,144.73,0,0,0,1925.42,3204.76Z" transform="translate(-498.1 -464)"/></g><g class="cls-5"><path class="cls-1" d="M2115.12,2702.86c-7,93.79,33.59,206.48,28.69,287s-49.24,72.32-119.1,91c-1.3.35-2.53.74-3.8,1.1,1.12,6.4,2.44,12.75,4.07,19,2,7.84,4.41,15.79,7.06,23.19l0,.11a7.51,7.51,0,0,1,.35,3.53c67.47-7.07,119.72-10,149.91,10.28.27-.11.5-.23.74-.35-20-23.94-41.41-59-40.88-99.24s22.81-77.15,66.24-110c-13.93-34.26-81-210.65-40.86-338.45C2156.24,2596.87,2121,2624.36,2115.12,2702.86Z" transform="translate(-498.1 -464)"/></g><g class="cls-5"><path class="cls-1" d="M2199.3,3130.07a23,23,0,0,0-.15,2.72,243.58,243.58,0,0,0,19.78,20c.26-.59.56-1.17.81-1.76-.83-7.93-1.57-32.38,16.24-57.08a100.4,100.4,0,0,1-13.41-20.19c-1.7-3.31-3.22-6.69-4.59-10.13C2194.53,3097.51,2199.3,3130.07,2199.3,3130.07Z" transform="translate(-498.1 -464)"/></g><g class="cls-5"><path class="cls-1" d="M2516.51,2529.7a124.26,124.26,0,0,0-9-9.84c-22.12,10.15-85.23,47.29-72.2,136.81,15.75,108.14,112.34,307.26,68.24,313.56-38,5.43-113.61,5.16-190.28,31.51a156.64,156.64,0,0,0,23.58,31.49l.1.1a7.54,7.54,0,0,1,2.13,5c75.89-19.25,179.25-32.07,214.31-.42a36.91,36.91,0,0,1,10.37,15.55c28.15-43.89,20.16-100.4,16.58-125.68l-.59-4.17c-3.9-28.59-47.45-158.81-51.19-170C2522.12,2743.09,2456.52,2630.51,2516.51,2529.7Z" transform="translate(-498.1 -464)"/></g><g class="cls-5"><path class="cls-1" d="M2224.33,3055.27a103.52,103.52,0,0,0,8,12.48,88.53,88.53,0,0,0,13.51,14.68c13.64-13.82,34.13-26.9,64.94-36.23,4.46-1.35,9.12-2.69,13.92-4a171,171,0,0,1-11.63-19.77,164.39,164.39,0,0,1-7.74-17.83c-9.53,3.51-19.05,7.42-28.5,11.84C2252.61,3027.75,2235.9,3041.41,2224.33,3055.27Z" transform="translate(-498.1 -464)"/></g><g class="cls-5"><path class="cls-1" d="M1726.67,2763.76a73,73,0,0,0-1.68,18.3,74.87,74.87,0,0,0,10.68,27.32c9.64,15.36,22.35,24.06,38.86,26.57,48,7.29,111.1-40.55,125.76-52.31a244,244,0,0,1-.09-52.93c-9.49,6-57.8,36.11-92.69,44.59C1768.66,2784.75,1726.67,2763.76,1726.67,2763.76Z" transform="translate(-498.1 -464)"/></g><g class="cls-5"><path class="cls-1" d="M1940.84,2529.64c-1.45,32.68-13.13,90-23.33,135a170.75,170.75,0,0,1,59.82-71.84q-5.8-49.62-9.29-99.21c-2-28.75-3.35-57.56-3.59-86.35l-.08-.95S1943.47,2470.32,1940.84,2529.64Z" transform="translate(-498.1 -464)"/></g><g class="cls-5"><path class="cls-1" d="M2339.09,2322.82c110.58-47.6,211.37-192.5,211.37-192.5s94.48,165.9,77.69,246.39-168.68,91-168.68,91a11.79,11.79,0,0,0,0,3.8c49.26,20.29,72.12,52.91,72.51,53.49a7.59,7.59,0,0,1,.13,8.35c-55.17,86.87-5.61,185.88,7,208.31,88.88-23.13,148.8-67.89,178.13-133.07,62.44-138.74-32.82-326.59-36.15-333.06l-.05-.1,0-.11c-6.36-12.87-13.32-25.78-20.46-38.44s-14.61-25.21-22.49-37.48c-15.78-24.48-32.81-48.35-53.59-69.07,22.52,18.85,41.8,41.43,59.82,64.69,9,11.68,17.59,23.67,26,35.82,6.51,9.53,12.8,19.17,19,29,37.49-35.39,220.92-209.39,258-260.31a217,217,0,0,1,18.64-22.39c-20.1-1.58-49-11-63-49.62-.34-.93-.62-1.85-.92-2.78a35.27,35.27,0,0,1-3.53,5.52,43,43,0,0,1-10.36,9.14,69,69,0,0,1-23.53,8.86,118.53,118.53,0,0,1-29.72,2.06l52,35s-73.49,111.81-168,152.75c-86.38,37.43-127.3-94.46-133.68-117.37-25.21,21.06-50.73,41.84-76.42,61.77-199.6,154.83-474.69,211.39-533.79,222.11C1974.9,2304.55,2228.5,2370.41,2339.09,2322.82Z" transform="translate(-498.1 -464)"/></g><g class="cls-5"><path class="cls-1" d="M2802.77,1934.11c-2.56,7,7,11.12,16.38,13.48,14.63-3,28.92-6.11,42.14-10.8,6.82-2.55,13.36-5.51,18.62-9.37s8.85-8.5,10.06-13.79a24.91,24.91,0,0,0-.7-12.65,15,15,0,0,1-.93,1.89C2881.77,1913.9,2807.5,1921.25,2802.77,1934.11Z" transform="translate(-498.1 -464)"/></g><g class="cls-5"><path class="cls-1" d="M2986,1905c-24.93,12.89-57.41-22.25-69.61-39.27-4.94,16.14-6.81,35.82.75,56.59,16.31,44.78,56.3,40.75,65.21,39.25,3.41-2.93,6.66-5.62,9.73-8.14,20-16.46,33.24-27.33,39.89-67.2,3.26-19.58-1.33-37.45-9.24-52.8C3019.88,1850.71,3010.68,1892.21,2986,1905Z" transform="translate(-498.1 -464)"/></g><g class="cls-5"><path class="cls-1" d="M2975,1717.58c-1,15.74-38.85,55.11-71.39,86.61s-24.73,60.89-24.73,60.89l.25.38c2,1.58,4,3.11,5.82,4.83a76.06,76.06,0,0,1,12.18,13.91c3.39-39.26,28.21-67.46,29.62-69a7.93,7.93,0,0,1,.58-.58c20.65-18.56,68.38-72,49.31-102.4C2975.78,1712.74,2975.17,1714.32,2975,1717.58Z" transform="translate(-498.1 -464)"/></g><path class="cls-1" d="M2045.43,3264.64c-73.89,0-138.45-29.73-172.88-81-22.11-33-29.11-67-20.78-101.25,13.16-54.07,61.58-93.52,87.8-111.45-31-42-41.78-112.59-45.47-153-29.3,20.11-79.44,48.27-123.16,41.61-23.43-3.56-42.08-16.17-55.43-37.46-45.84-73.09,20.78-146.26,66.68-178.13,7-28,36.21-142.44,64.5-206.55,32.25-73.1,100.91-146.38,103.82-149.46a16.23,16.23,0,0,1,9.34-4.9c3.13-.47,315.63-49.78,534.24-219.35,84.65-65.67,168.26-140.49,242-206.5,129.62-116,198.91-176.39,236.36-173.28a29,29,0,0,1,20.83,10.81c41,51.22-36.84,125.56-49.35,136.95-4.35,5.15-34.88,43.5-18.77,87.74,15.55,42.69,55.19,33.91,56.87,33.51a16.19,16.19,0,1,1,7.41,31.53c-23.92,5.63-74.49,1.57-94.71-54-23.7-65.08,23.54-118.75,25.56-121,.39-.43.8-.84,1.23-1.24,22.58-20.32,63.15-69,47.34-92.13-4.36.09-20.59,4-69.61,42.61-38.57,30.42-86.3,73.13-141.56,122.58-74.16,66.37-158.22,141.6-243.77,208-211.56,164.11-498.26,217.29-543.51,224.86-14.47,16-68.18,77.56-94.11,136.33-30.54,69.23-63.84,205.88-64.17,207.25a16.16,16.16,0,0,1-6.94,9.78c-1,.68-104.93,69.35-62.27,137.38,8.23,13.11,19,20.52,32.84,22.64,41.86,6.36,102.32-36.05,122.09-52.94a16.2,16.2,0,0,1,26.72,12c.76,37,11.35,140.71,50.6,175.84a16.2,16.2,0,0,1-3,26.26c-.72.4-74.51,41.77-89,101.5-6.13,25.34-.82,50,16.24,75.45,38.62,57.59,114.52,71.47,172.67,65.27,67.72-7.22,122.83-40.44,140.39-84.63a16.21,16.21,0,0,1,14.4-10.2c2.08-.08,208.72-8.77,289.88-51.35,63.63-33.38,62.85-100.71,55.06-155.64l-.59-4.21c-3.27-24-38-130.28-51.09-169.19a16.19,16.19,0,1,1,30.69-10.34c4.92,14.62,48.21,143.75,52.49,175.16l.57,4c4.93,34.78,19.93,140.6-72.08,188.87-77.76,40.79-249.75,52.25-293.59,54.56-25.51,51-86.69,87-162.7,95.15A285.34,285.34,0,0,1,2045.43,3264.64Z" transform="translate(-498.1 -464)"/><path class="cls-1" d="M1908.37,2803a16.19,16.19,0,0,1-15.92-13.34c-1-5.58-23-137.36,84.14-206.8,106.56-69.05,202.92-13.75,207-11.36a16.19,16.19,0,1,1-16.45,27.9c-3.32-1.92-83.57-47.24-172.92,10.64-88.92,57.61-70.66,169.25-69.84,174a16.21,16.21,0,0,1-13.15,18.74A17.07,17.07,0,0,1,1908.37,2803Z" transform="translate(-498.1 -464)"/><path class="cls-1" d="M1791.91,2638.29c32.77-3.45,65.8-4,98.29.15-31,6.57-60.91,17.55-89.28,31-23.71,9.87-34.33-26.77-9-31.11Z" transform="translate(-498.1 -464)"/><path class="cls-1" d="M1931.67,3234.43a16.11,16.11,0,0,1-16.12-15c-.06-.87-4.74-87.56,115.74-100.19,86.95-9.11,176.87-18.54,187.55,68.8a16.19,16.19,0,0,1-32.15,3.93c-5.47-44.8-35.3-52.74-152-40.52-86.94,9.11-87.07,60.11-86.8,65.89a16.29,16.29,0,0,1-15.23,17C1932.32,3234.42,1932,3234.43,1931.67,3234.43Z" transform="translate(-498.1 -464)"/><path class="cls-1" d="M2227.54,3168.37a16.2,16.2,0,0,1-15.85-13c-.17-.83-15.65-83.44,96.56-117.42,66.83-20.24,205.27-47.63,250.9-6.43,9,8.09,18.69,22.56,14.21,45.61a16.19,16.19,0,0,1-31.79-6.18c1.69-8.72-1-12.55-4.12-15.38-26.39-23.83-135-12.31-219.81,13.38-84.29,25.52-74.33,79.4-74.22,80a16.19,16.19,0,0,1-12.63,19.1A16.44,16.44,0,0,1,2227.54,3168.37Z" transform="translate(-498.1 -464)"/><path class="cls-1" d="M1967.57,2958.52c28.1,1.34,88.3,1.65,122.8,20.08-31-6.71-62.78-.44-93.46,5.25-5.14,1.07-18.21,3.94-23.16,5.08-1.82.36-5.29,1.22-7,1.44-25.16,2.12-24-35.3.87-31.85Z" transform="translate(-498.1 -464)"/><path class="cls-1" d="M2221.45,3181.09a16.08,16.08,0,0,1-9.82-3.34c-3.23-2.47-79-61.43-78-139.39.55-41.28,22.22-79.16,64.46-112.75-19.57-49.81-87.75-242.39-27-368,24.2-50.06,65.81-83.4,123.67-99.08,169.18-45.85,241.41,57.21,244.4,61.63a16.18,16.18,0,0,1,.27,17.77c-49,77.14-11.24,164.51,4.07,193.68,82.65-22.89,138.46-65.4,166-126.47,61.5-136.47-35-324.06-36-325.94a16.2,16.2,0,0,1,3.26-19.32c2.22-2.09,223-209.58,263.6-265.43,17.34-23.84,33.42-37.06,46.34-47.69,19.18-15.77,30.75-25.28,36.87-62,9.6-57.58-57.22-100.1-57.9-100.53a16.19,16.19,0,0,1,17.09-27.51c3.51,2.18,85.94,54.27,72.76,133.36-8.11,48.68-26.71,64-48.25,81.68-12.1,10-25.81,21.22-40.72,41.72-38.12,52.41-216.55,221.8-258.89,261.77,21,44.47,91,210.72,31.45,343.07-33.09,73.53-100.25,123.25-199.61,147.8a16.22,16.22,0,0,1-17.51-7c-3.21-5-75.78-120.25-15.86-228.5-18.92-20.76-81.32-73.83-202.85-40.89-49.08,13.3-82.76,40.09-103,81.91-62.36,129,31.48,350.68,32.44,352.91a16.2,16.2,0,0,1-5.38,19.5c-40.15,29.09-60.76,60.9-61.25,94.54-.91,61.65,64.66,112.88,65.33,113.39a16.2,16.2,0,0,1-9.89,29Z" transform="translate(-498.1 -464)"/><path class="cls-1" d="M2207.84,2918.2c41.64-22.69,90.65-25.88,137-25.27l19.21,1c-42.8,6.45-86.66,17.31-123.56,40.31-4.32,2.81-9.34,6.1-12.81,9.59a17.33,17.33,0,0,1-23.22,7.88c-11.89-5.46-12.89-23.14-1.92-30l5.31-3.48Z" transform="translate(-498.1 -464)"/><path class="cls-1" d="M1928.06,3178.18c-8.8-30.35-13.38-68.53,8.33-94.25-10.39,27.66,4.14,57.27,20.39,79.27,16.47,22-19.86,41.11-28.72,15Z" transform="translate(-498.1 -464)"/><path class="cls-1" d="M2009.13,3130.59c-2.46-29.71-5.82-78.37,15.58-101.25-12.23,26.33,4.92,67.43,15.59,92.48,9.57,23.7-27,34-31.17,8.77Z" transform="translate(-498.1 -464)"/><path class="cls-1" d="M2230.58,3100.75c-20.43-26.85-27.42-63.51-19.12-95.91a110.19,110.19,0,0,0,4.66,22.41c6.44,19.77,19,38.37,36.37,49.64,21.74,7.32,12.11,39.21-10.06,33.23-5-1.25-8.6-5.76-11.85-9.37Z" transform="translate(-498.1 -464)"/><path class="cls-1" d="M2318.72,3048.64c-15.47-28-28.79-62.67-17.68-94.19.05,29.81,21.11,54.73,42.36,73.22,20.5,17.76-10.27,44.06-24.68,21Z" transform="translate(-498.1 -464)"/><path class="cls-1" d="M2673.5,2279.4c-23.81-52.61-50.35-105.37-89-149.09,23.5,17.81,44,39.65,63.33,62.24A843.35,843.35,0,0,1,2702,2264c12.24,20.1-18.36,36.68-28.49,15.4Z" transform="translate(-498.1 -464)"/><path class="cls-1" d="M2844.52,1845.8c34.26,5,75.93,33.61,68.64,73.18-11.23,40-64,43.1-95.93,29,15.25-6.75,29.67-11.72,42.25-17.74,9.44-5,19-8.94,22.13-18.55,1.93-9-4.68-19.9-10.28-28.68-7.65-11.75-17.31-23.51-26.81-37.22Z" transform="translate(-498.1 -464)"/><path class="cls-1" d="M1969.4,2599c-5.18-69.82-8.29-139.89-5-209.76,3.62,34.64,9.16,68.92,15.48,103,6.39,34,13.53,68.12,21.52,101.64,4.46,22.66-29.16,28.07-32,5.09Z" transform="translate(-498.1 -464)"/><g class="cls-5"><path class="cls-1" d="M2299.85,3312.49s77.31-67.95,162.35-94.16,133.4-77.84,133-59-72,129.4-38.29,109.8,207.27-136.23,235.27-225.59,49-102,53.19-81,15.4,102.81,44.8,66.8,26.59-220.23,0-287.69c0,0,85.38,101.13,81.18,212.8s-106.38,201-108.48,198.32-8.4-59.35-44.09-45.7-115.33,192.5-268.16,242.71-143.18,23-135.35,6.11,20.31-33.6,16.11-35.7-168.3,60.31-187.81,69-52.61,18.12-52.61,18.12S2265.4,3335.24,2299.85,3312.49Z" transform="translate(-498.1 -464)"/></g><path class="cls-1" d="M2167.59,3459.22a16.2,16.2,0,0,1-15.88-19.35c1.93-9.7,49-238.45,215.62-316.81a16.19,16.19,0,1,1,13.79,29.3c-107.46,50.56-161.64,175.85-184.25,245.39,83.73-55.07,229-97.3,236.35-99.42a16.2,16.2,0,0,1,18.48,23.7l-22.92,39.42c257.08-12.89,379-214.77,380.25-216.88a16.2,16.2,0,0,1,30.1,9.57c-2.47,29,3.65,48.33,10.9,60.68,10.15-31.34,33-54.11,56.94-77.89,48.79-48.53,104.09-103.53,86.81-257.7-11.61-103.49-58.18-185.1-138.43-242.56-60.49-43.31-118.56-56-119.14-56.15a16.2,16.2,0,0,1,6.67-31.7c2.6.55,64.29,13.88,130.19,60.71,61,43.35,137,124.7,152.89,266.09,19,169.71-44.83,233.23-96.15,284.28-29.14,29-52.15,51.87-52.83,88.81a16.2,16.2,0,0,1-23.31,14.25c-1.72-.84-33.42-17-44.05-63.7a536.7,536.7,0,0,1-79.11,79.35c-65.43,53.27-175.67,116.71-330.33,115.86a16.19,16.19,0,0,1-13.92-24.33l16.43-28.26c-62.94,20.86-182.94,65.2-222.8,111.69A16.21,16.21,0,0,1,2167.59,3459.22Z" transform="translate(-498.1 -464)"/><path class="cls-1" d="M2583.25,2920.05a16.2,16.2,0,0,1-8.37-30.07h0c.84-.51,84.25-51.45,92.81-110.26,8.43-57.87-11.08-83.22-11.28-83.47a16.07,16.07,0,0,1,1.89-22.72,16.31,16.31,0,0,1,22.92,1.91c3,3.52,29.07,36.5,18.52,108.95-10.78,74-104.19,131-108.17,133.34A16.12,16.12,0,0,1,2583.25,2920.05Z" transform="translate(-498.1 -464)"/><g class="cls-5"><path class="cls-1" d="M1196.77,3210s-46.72,27.29-119.16,37.79-187.4,1.05-209.45,5.25-28.34,4.73-28.34,4.73,14.17-23.1,70.86-31.5,106.56-14.17,177.43-14.17S1196.77,3210,1196.77,3210Z" transform="translate(-498.1 -464)"/></g><path class="cls-7" d="M3264.57,2351.33c.91-10.44-1.41-18.27-7.09-23.92-10.8-10.75-30.75-10.89-37-10.64-8.35,6.17-45.27,37.34-17.1,87.43C3218.4,2400.3,3261.55,2386.09,3264.57,2351.33Z" transform="translate(-498.1 -464)"/><path class="cls-8" d="M1620.6,3040.49c70.71,8.6,89.55-3,94.36-8.44,1.73-1.93,3.84-5.24,2.3-11.63-3-12.47-20.9-26.47-35.29-37.73-11.91-9.31-20.4-16-23.46-23l-37.78,11.67,40.82-27.71c8.78-11.73,29.37-24.32,47.84-34,17.84-19.38,24.65-35.41,20.12-47.62-7.27-19.59-43.12-28-57.92-29.9-6.54,1.62-29.53,6.68-45.9,2.65a6.82,6.82,0,0,1-.68.41,7.93,7.93,0,0,1-2,.63l-55.84,9.82,43.46-20.64a19,19,0,0,1-2.64-6.46c-2-9.81,2.78-22.32,7.81-35.55,8.93-23.53,13.83-39.46,1.22-46.42-5.55-3.06-18.39-2.73-37.77,7.39-39.48,20.6-85,71.56-91.66,134.78C1477.69,2973.11,1547,3031.54,1620.6,3040.49Z" transform="translate(-498.1 -464)"/><path class="cls-7" d="M1743.78,2856.74c4.81,12.93,2.14,27.55-7.91,43.64l1452.65-491.74c-19-36-9.76-64.21,2.57-82.39L1699.63,2823C1716.89,2828.48,1737,2838.64,1743.78,2856.74Z" transform="translate(-498.1 -464)"/><path class="cls-8" d="M1522.31,3028.85c-3.36.21-7,.35-10.84.35-19.53,0-44.52-3.31-64.83-16.89-18-12-29.26-30-33.57-53.53-7.21-39.35,7-71.77,25.41-95.85-14.06-10.62-60.28-37.38-166-34-107.65,3.53-266,61.62-319,86.55,30.06,1.8,79.94,5.69,108.44,25.8,9.77-1.89,19.25-3.18,28.92-4.17,10.89-1.11,21.8-1.69,32.7-1.81a313.13,313.13,0,0,1,32.58,1.15,294.56,294.56,0,0,1,32.11,4.5,291.31,291.31,0,0,0-32.21-.7,309.69,309.69,0,0,0-32,2.64c-10.57,1.37-21.07,3.19-31.43,5.5a298.9,298.9,0,0,0-30.23,8.22l0,0-.2.06-.13,0h0c-7.56,2.32-107.24,32.8-150.39,42.05-31,6.64-60.25,10.74-74.93,12.6,8.78,20.88,34.57,72.35,78.32,84a185.87,185.87,0,0,1,25.63-14.61,190.76,190.76,0,0,1,31.25-11.47,153.46,153.46,0,0,1,32.58-5.33c11-.91,21.92.32,32.59,1.89-10.83-.31-21.63-.25-32.15,1.89a147.25,147.25,0,0,0-30.62,8.78A180.84,180.84,0,0,0,946,3090.84a168.32,168.32,0,0,0-24.77,18.61l-.26.24s0,0-.06,0c-5.9,5.17-103.07,91.39-128.38,177.09,23-6.48,71.13-18.38,100.63-14.3,36.58,5.09,196.05-5.18,197.91-5.3s4.78-.66,7.19-1.12c2.69-.53,5.39-1.15,8.09-1.84,5.41-1.38,10.81-3,16.18-4.78,10.75-3.56,21.36-7.81,31.81-12.47s20.76-9.77,31-15.06l15.17-8.28,15-8.7-14,10.3-14.23,9.95c-9.65,6.41-19.38,12.76-29.48,18.56a347.26,347.26,0,0,1-31.08,16.31c-5.35,2.46-10.8,4.78-16.38,6.88-2.8,1-5.64,2-8.53,3-1.25.38-2.44.74-3.66,1.09-3.11,12.72-15.74,44.75-66.34,75.76,15.38,3.26,42.46,5.86,82.32-1.26,69.1-12.33,164.92-47.58,165.88-47.94a7.61,7.61,0,0,1,10,9c-.53,2-11.5,43.58-36.77,81.07,30.08-10.2,89.34-35.65,160.72-94.12C1514.27,3221.44,1533.63,3088.4,1522.31,3028.85Z" transform="translate(-498.1 -464)"/><path class="cls-3" d="M1428.05,2956c3.53,19.28,12.62,33.94,27,43.59,21.32,14.29,50,15.15,68.11,13.87-35-30.81-56.92-77.15-50.69-136.32a174.86,174.86,0,0,1,7.31-34.56C1455.2,2862.87,1418.32,2903,1428.05,2956Z" transform="translate(-498.1 -464)"/><g class="cls-9"><path class="cls-2" d="M1105.43,2999.64s26.6-11.71,72.79-19.86,65.79-9.54,65.79-9.54-44.09,27.3-69.29,32.9S1105.43,2999.64,1105.43,2999.64Z" transform="translate(-498.1 -464)"/></g><path class="cls-6" d="M1364.4,3185.81c3.5,5.6-20.3,62.29,4.9,53.89s91.68-84.69,95.88-139.28c3-38.36,1.76-65.67.79-78.55a89.38,89.38,0,0,1-19.33-9.56c-18-12-29.26-30-33.57-53.53-5.43-29.65,1.33-55.36,12.84-76.54-17.93-7.09-71.35-26.56-129.4-31.68-71.39-6.3-264.57,39.89-264.57,39.89s10.27-6.65,21.64-13.82c-43.15,14.53-79.59,29.19-100.14,38.86,30.06,1.8,79.94,5.69,108.44,25.8,7.35-1.42,14.54-2.43,21.75-3.3-3.66-.45-6.52-1.11-8.12-2-.81-.47-11.55-13.12-28.87-18.89a242.08,242.08,0,0,0-33.33-8.4s21.26-6.56,55.12-1.84,84.25,29.37,84.25,29.37l-.46,0c1.28.1,2.58.13,3.86.24a294.56,294.56,0,0,1,32.11,4.5c-7.67-.5-15.33-.87-23-.88-.58.13-12.46,2.89-49.64,17.56-38.14,15.05-108.83,43.75-171.47,56.34s-104.32,4.09-104.53,4c10.84,23.55,35.7,66.81,75.38,77.39,3-2,5.94-3.89,8.93-5.68-9-5.64-45.68-29.88-61-58.95,0,0,32.54,17.15,71,23.1s53.54,12,53.54,12h0a158.78,158.78,0,0,1,16.93-1.88c11-.91,21.92.32,32.59,1.89-10.83-.31-21.63-.25-32.15,1.89a157.08,157.08,0,0,0-15.55,3.56,7.76,7.76,0,0,1-1.81,1.79c-11.58,8.72-48.29,54.94-98,104.28s-92,103.59-92,103.59l-4.66,5c-.08.27-.18.54-.26.82,23-6.48,71.13-18.38,100.63-14.3,36.58,5.09,196.05-5.18,197.91-5.3s4.78-.66,7.19-1.12c2.69-.53,5.39-1.15,8.09-1.84,5.41-1.38,10.81-3,16.18-4.78,10.75-3.56,21.36-7.81,31.81-12.47s20.76-9.77,31-15.06l15.17-8.28,15-8.7-14,10.3-14.23,9.95c-9.65,6.41-19.38,12.76-29.48,18.56a347.26,347.26,0,0,1-31.08,16.31c-5.35,2.46-10.8,4.78-16.38,6.88-2.8,1-5.64,2-8.53,3-1.25.38-2.44.74-3.66,1.09-2.72,11.13-12.73,37-49.09,64.12,0,0,96.24-9.54,192.82-66.23S1360.9,3180.21,1364.4,3185.81Z" transform="translate(-498.1 -464)"/><path class="cls-6" d="M3178.15,2376.33a70.83,70.83,0,0,1,2.57-28.49L1727.49,2836.47c7.21,5.29,13.18,11.93,16.29,20.27a36.79,36.79,0,0,1,2.19,9.93c2-3.8,3.37-6.47,3.37-6.47Z" transform="translate(-498.1 -464)"/><path class="cls-6" d="M3236.11,2357c14.34-14,17.9-25.74,18.72-31.8a34,34,0,0,0-8.32-4.57c-7.28-.11-42.5,29-52.61,37.51a57.73,57.73,0,0,0-.67,15A57.71,57.71,0,0,0,3236.11,2357Z" transform="translate(-498.1 -464)"/><path class="cls-6" d="M845.38,3010.25c-3.29.45-6.24.83-8.74,1.15.81,1.93,1.82,4.19,2.92,6.59C839.58,3017.74,839.92,3014.19,845.38,3010.25Z" transform="translate(-498.1 -464)"/><path class="cls-6" d="M1467.11,2859.31a14.13,14.13,0,0,1,4.9,0s-2.28,14.52-2.8,16.09-2.1,1.93-16.8,21.7-20.3,56-20.3,56c-1.49,2.09-2.8,3.08-4,3.38,3.6,19.05,12.64,33.57,26.92,43.15,1.51,1,3.06,1.94,4.63,2.82-5.76-12.44-13.92-32.93-13.58-48.65.42-19.32,18.52-37.94,25.75-44.62a181.73,181.73,0,0,1,.62-32,174.86,174.86,0,0,1,7.31-34.56,187.58,187.58,0,0,0-24.26,23.91C1461.48,2862.12,1466.25,2859.56,1467.11,2859.31Z" transform="translate(-498.1 -464)"/><path class="cls-6" d="M1729.51,2862.06c-7.27-19.59-43.12-28-57.92-29.9-6.54,1.62-29.53,6.68-45.9,2.65a6.82,6.82,0,0,1-.68.41,7.93,7.93,0,0,1-2,.63l-55.83,9.82,43.45-20.64a19.15,19.15,0,0,1-2.64-6.46c-2-9.81,2.78-22.32,7.81-35.55,3.72-9.82,6.72-18.3,8.07-25.37-9.51-.75-26.56,2.89-55.13,24.32-51.79,38.84-75.89,129.22-79.79,129.48a13.65,13.65,0,0,1-1.59,0c.27,2.84.61,5.63,1,8.39,10.82,8.74,27.34,18.54,46.93,18.24,35.17-.52,167.93-81.88,164.28-64s-28.85,26.64-42.5,47.44a321.05,321.05,0,0,0-22.41,40.47h0l26.82-18.21c8.78-11.73,29.37-24.32,47.84-34C1727.23,2890.3,1734.05,2874.27,1729.51,2862.06Z" transform="translate(-498.1 -464)"/><g class="cls-5"><path class="cls-1" d="M1446.11,2953.79c-.34,15.72,7.82,36.21,13.58,48.65,20.7,11.57,46.67,12.24,63.48,11-28.39-25-48.2-60.27-51.31-104.32C1464.63,2915.85,1446.53,2934.47,1446.11,2953.79Z" transform="translate(-498.1 -464)"/></g><g class="cls-5"><path class="cls-1" d="M1657.13,2921.44c13.65-20.8,38.85-29.59,42.5-47.44s-129.11,63.52-164.28,64c-19.59.3-36.11-9.5-46.93-18.24,10.76,70.15,69.93,113.12,132.18,120.69,70.71,8.6,89.55-3,94.36-8.43,1.73-1.94,3.84-5.25,2.3-11.64-3-12.47-20.9-26.47-35.3-37.73-11.9-9.31-20.39-16-23.45-23l-37.78,11.67,14-9.5h0A321.05,321.05,0,0,1,1657.13,2921.44Z" transform="translate(-498.1 -464)"/></g><g class="cls-5"><path class="cls-1" d="M1114.16,3355.51c69.1-12.33,164.92-47.58,165.88-47.94a7.62,7.62,0,0,1,10,9c-.54,2-11.51,43.58-36.78,81.07,30.08-10.2,89.34-35.65,160.72-94.12,100.28-82.13,119.64-215.17,108.32-274.72-3.36.21-7,.35-10.84.35-13.66,0-30-1.71-45.5-7.33,1,12.88,2.16,40.19-.79,78.55-4.2,54.59-70.69,130.88-95.88,139.28s-1.4-48.29-4.9-53.89-25.9,36.39-122.49,93.09-192.82,66.23-192.82,66.23c-5.19,3.87-10.92,7.76-17.25,11.64C1047.22,3360,1074.3,3362.63,1114.16,3355.51Z" transform="translate(-498.1 -464)"/></g><g class="cls-5"><path class="cls-1" d="M934,3053.88c-38.5-6-71-23.1-71-23.1,15.29,29.07,52,53.31,61,58.95,5.45-3.26,11-6.2,16.7-8.93a190.76,190.76,0,0,1,31.25-11.47,145.19,145.19,0,0,1,15.65-3.45h0S972.45,3059.83,934,3053.88Z" transform="translate(-498.1 -464)"/></g><g class="cls-5"><path class="cls-1" d="M1068.43,2906.81c-33.86-4.72-55.12,1.84-55.12,1.84a242.08,242.08,0,0,1,33.33,8.4c17.32,5.77,28.06,18.42,28.87,18.89,1.6.94,4.46,1.6,8.12,2,2.39-.29,4.77-.62,7.17-.87,10.89-1.11,21.8-1.69,32.7-1.81,9.6-.16,19.18.2,28.72.91l.46,0S1102.28,2911.54,1068.43,2906.81Z" transform="translate(-498.1 -464)"/></g><g class="cls-5"><path class="cls-1" d="M3188.52,2408.64a90.52,90.52,0,0,1-10.37-32.31L1749.34,2860.2s-1.38,2.67-3.37,6.47c.84,10.34-2.54,21.61-10.1,33.71Z" transform="translate(-498.1 -464)"/></g><g class="cls-5"><path class="cls-1" d="M3264.57,2351.33c.91-10.44-1.41-18.27-7.09-23.92a25.92,25.92,0,0,0-2.65-2.26c-.82,6.06-4.38,17.83-18.72,31.8a57.71,57.71,0,0,1-42.88,16.16c.78,9.35,3.8,19.73,10.19,31.09C3218.4,2400.3,3261.55,2386.09,3264.57,2351.33Z" transform="translate(-498.1 -464)"/></g><g class="cls-9"><path class="cls-2" d="M889.51,3177.41c49.7-49.34,86.41-95.56,98-104.28a7.76,7.76,0,0,0,1.81-1.79,139,139,0,0,0-15.07,5.22A180.84,180.84,0,0,0,946,3090.84a168.32,168.32,0,0,0-24.77,18.61l-.26.24s0,0-.06,0c-5.88,5.16-102.43,90.84-128.12,176.27l4.66-5S839.82,3226.75,889.51,3177.41Z" transform="translate(-498.1 -464)"/></g><g class="cls-9"><path class="cls-2" d="M944.11,3014c62.64-12.59,133.33-41.29,171.47-56.34,37.18-14.67,49.06-17.43,49.64-17.56-3.08,0-6.16,0-9.24.18a309.69,309.69,0,0,0-32,2.64c-10.57,1.37-21.07,3.19-31.43,5.5a298.9,298.9,0,0,0-30.23,8.22l0,0-.2.06-.13,0h0c-7.56,2.32-107.24,32.8-150.39,42.05-25.73,5.51-50.2,9.27-66.19,11.45-5.46,3.94-5.8,7.49-5.82,7.74l0,0C839.79,3018.07,881.62,3026.55,944.11,3014Z" transform="translate(-498.1 -464)"/></g><g class="cls-9"><path class="cls-2" d="M1296.51,2850.56c58,5.12,111.47,24.59,129.4,31.68a151.24,151.24,0,0,1,12.57-19.31c-14.06-10.62-60.28-37.38-166-34-65.89,2.16-150.75,24.76-218.85,47.69-11.37,7.17-21.64,13.82-21.64,13.82S1225.12,2844.26,1296.51,2850.56Z" transform="translate(-498.1 -464)"/></g><g class="cls-9"><path class="cls-2" d="M1432.11,2953.09s5.6-36.22,20.3-56,16.27-20.12,16.8-21.7,2.8-16.09,2.8-16.09a14.13,14.13,0,0,0-4.9,0c-.86.25-5.63,2.81-11.58,7.21-18.49,22.05-34.24,52.66-27.48,89.51,0,.15.07.29.09.44C1429.31,2956.17,1430.62,2955.18,1432.11,2953.09Z" transform="translate(-498.1 -464)"/></g><g class="cls-9"><path class="cls-2" d="M1568.77,2782c28.57-21.43,45.62-25.07,55.13-24.32,1.88-9.87.5-17-6.85-21.05-5.55-3.06-18.39-2.73-37.78,7.39-39.47,20.6-85,71.56-91.65,134.78a163,163,0,0,0-.23,32.64,13.65,13.65,0,0,0,1.59,0C1492.88,2911.19,1517,2820.81,1568.77,2782Z" transform="translate(-498.1 -464)"/></g><g class="cls-9"><path class="cls-2" d="M3191.09,2326.25,1699.63,2823c9.3,3,19.43,7.33,27.86,13.52l1453.23-488.63A79.42,79.42,0,0,1,3191.09,2326.25Z" transform="translate(-498.1 -464)"/></g><g class="cls-9"><path class="cls-2" d="M3220.52,2316.77c-5.37,4-22.54,18.29-26.62,41.32,10.11-8.49,45.33-37.62,52.61-37.51C3236.39,2316.64,3225,2316.59,3220.52,2316.77Z" transform="translate(-498.1 -464)"/></g><path class="cls-1" d="M1714.17,2932a16.2,16.2,0,0,1-11.84-27.25c15.63-16.74,22.42-30.83,19.13-39.67-5.47-14.72-38-23-52.08-24.52a16.19,16.19,0,0,1-3.37-31.46l1546.78-515.13a16.18,16.18,0,0,1,3.58-.75c3.77-.37,37.41-2.95,57.84,17.3,7.48,7.41,16,20.87,14.07,42.91-4.91,56.47-73.76,73-84.37,75.17L1719.36,2931.1A16.14,16.14,0,0,1,1714.17,2932Zm9.72-108c12.09,6.76,22.91,16.34,27.93,29.83q5.61,15.08.34,32.06l1442.36-488.26a16.2,16.2,0,0,1,2.25-.59c.53-.1,56.18-11.05,59.25-46.37,1-11.5-3.19-15.69-4.56-17.07-7.52-7.51-23.4-8.45-30.42-8.2Z" transform="translate(-498.1 -464)"/><path class="cls-1" d="M3199.73,2429.08a16.2,16.2,0,0,1-13.73-7.57c-39.1-62.17-2-109.46,23.08-125.79a16.2,16.2,0,0,1,17.74,27.1c-4.71,3.15-44.57,31.88-13.4,81.44a16.2,16.2,0,0,1-13.69,24.82Z" transform="translate(-498.1 -464)"/><path class="cls-1" d="M1665.05,3067.36a395.81,395.81,0,0,1-47.32-3.24c-85.16-10.36-165.32-78.21-153.78-187.84,7.61-72.34,57.87-129.16,104.31-153.39,24.27-12.67,45.68-15.2,60.29-7.13,31.64,17.45,17.8,53.91,9.53,75.7-2.43,6.41-5.92,15.6-6.61,20.44,6.33,1.63,22.5.32,35.5-3.13a16.2,16.2,0,0,1,8.31,31.31c-10,2.64-43.9,10.34-62.74-1.4a27.73,27.73,0,0,1-12.94-18.43c-2.44-12.23,2.73-25.85,8.2-40.28,8-21.21,11-32.58,5.11-35.85-2.43-1.34-12.88-1.28-29.67,7.48-37.51,19.57-80.76,68-87.09,128.06-9.78,93,58.19,144.13,125.49,152.31,71.81,8.74,85.59-4.14,86.92-5.63.45-.51,1-1.15.36-3.91-2.29-9.56-20.31-23.65-32.24-33-15.65-12.24-27-21.08-28-33.51-.54-6.38-2-23.33,58-54.55a16.19,16.19,0,1,1,15,28.72c-14.87,7.76-30,17.52-37.37,23.84,3.53,3.08,8.4,6.89,12.35,10,18.21,14.24,38.85,30.38,43.78,50.93,3,12.4.25,24.13-7.68,33C1721.13,3060.9,1698.83,3067.35,1665.05,3067.36Z" transform="translate(-498.1 -464)"/><path class="cls-1" d="M1511.65,3037.74c-20.87,0-47.76-3.57-69.78-18.3-20-13.36-32.5-33.25-37.24-59.11-17.27-94.2,79.65-150.7,83.79-153.06a16.19,16.19,0,0,1,16.07,28.12c-1,.59-81.09,47.71-68,119.1,3.14,17.16,10.8,29.6,23.39,38,30,20.08,78.27,10.54,78.75,10.43a16.2,16.2,0,0,1,6.75,31.68A176.79,176.79,0,0,1,1511.65,3037.74Z" transform="translate(-498.1 -464)"/><path class="cls-1" d="M1233.33,3427.49a16.19,16.19,0,0,1-12.22-26.81c16.2-18.66,27.77-41.55,35.25-59.58-34.74,11.72-91.42,29.53-138,37.84-73.91,13.19-109.22-3.81-113-5.8a16.19,16.19,0,0,1,0-28.66c35.59-18.79,53.24-38.22,61.92-52-47.56,2.73-147.36,7.74-177.32,3.58-28-3.89-83.9,11.13-103.1,17.24A16.2,16.2,0,0,1,766,3294.6c15.85-75.91,85.65-151.52,120.24-185.17-51.44-28.34-74.55-96-75.65-99.31a16.18,16.18,0,0,1,13.66-21.22c.39-.05,39.62-4.24,82.3-13.38,25.17-5.4,71.67-18.69,106-28.81-23.29-5.28-49.43-6.81-65.16-7.72-8.56-.5-14.74-.86-19.05-1.56a17,17,0,0,1-14.48-17.7c.67-10.47,6.64-16,44.87-32.51,24.8-10.7,56-22.5,87.88-33.23,51-17.16,148-46.32,225-48.84,140.77-4.61,185,41,189.62,46.25a16.2,16.2,0,0,1-24.16,21.58c-1.06-1.09-40-39.51-164.4-35.46-90.06,2.95-216.31,44.75-284.35,72.25,28.85,3.37,60.77,10.32,81.77,26.87a16.19,16.19,0,0,1-5.27,28.2c-4.36,1.33-107.22,32.86-151.49,42.35-24.82,5.32-48.13,9-64.17,11.21,11.3,23.41,34.79,61.59,70.56,69.47a16.2,16.2,0,0,1,7.1,28.08c-1,.85-89.65,78.11-121,158.39,25.8-6.5,63-13.87,88.47-10.32,29.66,4.11,151.68-2.48,196.19-5.36a16.19,16.19,0,0,1,17.21,17.31c-.33,4.51-4.35,39.05-52.35,75.19,14.41.82,33.41.15,57.24-4.1,68.33-12.2,163.46-47.19,164.41-47.54a16.19,16.19,0,0,1,21.29,19.25,309,309,0,0,1-25,62.08c32.13-13.51,79.92-38.65,135.19-83.92,101-82.71,117.62-218.15,104.08-272.28a16.19,16.19,0,0,1,31.42-7.86c17.66,70.63-6.66,216.47-115,305.2s-189.38,104.59-192.78,105.23A16.54,16.54,0,0,1,1233.33,3427.49Z" transform="translate(-498.1 -464)"/><path class="cls-1" d="M1089.64,3258.74c21.47-1.15,42.41-8.31,62.77-15.55,20.88-7.62,43.18-18.05,63.08-28.22l-13.37,11.21c-22.89,18.46-46.9,36-73,49.9-11.43,5.9-22.8,11.65-35.56,14.81l-10.3,2.11a18.81,18.81,0,0,1-22.19-14.66c-3.63-16,15.18-28.64,28.57-19.6Z" transform="translate(-498.1 -464)"/><path class="cls-1" d="M905.7,3091.43c38.44-24.34,86.71-36.34,131.31-25.54-10.92.4-21.62,1.19-31.91,4-29.72,7.48-57.25,24-78.24,46-17.36,18.7-42.19-10-21.16-24.52Z" transform="translate(-498.1 -464)"/><path class="cls-1" d="M1055.62,2933.8c44.52-6.05,89.3-4.09,132.57,7.16a288.1,288.1,0,0,0-32.27,1.45c-31,3.19-62.84,10.81-91.39,22.54-22.79,8.48-32.78-26.28-8.91-31.15Z" transform="translate(-498.1 -464)"/><path class="cls-1" d="M1673.63,2964l-52.9,7.45,38.88-36.65a17,17,0,0,1,24,.71c9.55,9.52,3.23,27-10,28.49Z" transform="translate(-498.1 -464)"/><path class="cls-1" d="M1625.65,2844l-58.45,1.64,48.61-32.5a16.87,16.87,0,0,1,23.38,4.64c7.52,10.58-.72,26.2-13.54,26.22Z" transform="translate(-498.1 -464)"/><path class="cls-3" d="M1285.13,1894.21c195.64-8,433.51-69.66,669.77-173.59,485.64-213.63,813.46-540.38,730.77-728.37-37.89-86.12-155.47-128.41-318.47-128.41-58.25,0-122.34,5.44-190.63,16.17a7.6,7.6,0,0,1-3.28.51c-156.92,25-336,78-518.34,158.23-102.16,45-198.68,95.46-286.52,149.53a7.45,7.45,0,0,1-1.94,1.19c-114.49,70.65-214.13,147.36-292.08,225.71C938,1552.27,884.66,1677.26,924.19,1767.12S1092,1902.09,1285.13,1894.21Z" transform="translate(-498.1 -464)"/><path class="cls-3" d="M1568.61,887.88c119.6-59.22,308.82-126.94,536.52-117.86-103.5-146.95-239.34-216-343.75-248.32C1558.89,459,1342.29,490.57,1233,554.18c-150.28,87.44-144.42,223-136.49,272.37,20.79-28.1,56.65-47.08,96.47-49.91,53.21-3.75,100.71,20.42,130.46,66.38,26.69,41.26,39.39,107.84,45.15,171.2C1394.94,992.69,1465.29,939,1568.61,887.88Z" transform="translate(-498.1 -464)"/><path class="cls-10" d="M1575.83,901.29c-116.74,57.74-190.64,118.55-205.77,131.49a1262.69,1262.69,0,0,1,1.88,135.53c85.36-51.81,178.53-100.23,276.88-143.49C1825,947.33,2002.13,893.2,2162.39,867a722.37,722.37,0,0,0-46.51-81.28C1886.51,774,1695.73,842,1575.83,901.29Z" transform="translate(-498.1 -464)"/><g class="cls-5"><path class="cls-1" d="M1657.66,1132.29S1006.75,1493.44,1000.45,1695s363.94,195.8,711.8,86.08,928.07-506,907.07-632-170.07-90.29-170.07-90.29l50.39-67.19S2100.69,903.43,1657.66,1132.29Z" transform="translate(-498.1 -464)"/></g><g class="cls-9"><path class="cls-2" d="M952.49,1809.62s-65.43-119.85,91-318.28S1773.14,938.67,2241.38,903.2s461.93,189.9,461.93,189.9,18.9-136.81-93.79-193.69-372.34-45-480.13-16.28-201.92,41.29-452.84,138.93-508.13,299.21-508.13,299.21S941.14,1501.6,911.48,1649.75,952.49,1809.62,952.49,1809.62Z" transform="translate(-498.1 -464)"/></g><g class="cls-9"><ellipse class="cls-2" cx="1788.47" cy="657.06" rx="14.7" ry="35.41" transform="translate(48.9 1638.43) rotate(-69.51)"/></g><path class="cls-6" d="M1096.55,741.74a314,314,0,0,1,7.3-32A255.71,255.71,0,0,0,1096.55,741.74Z" transform="translate(-498.1 -464)"/><path class="cls-6" d="M1370.06,1032.78a1262.69,1262.69,0,0,1,1.88,135.53c15.5-9.4,31.33-18.65,47.33-27.82-1.58-20.82-3.47-76.26-12-137C1388.05,1017.7,1375.39,1028.22,1370.06,1032.78Z" transform="translate(-498.1 -464)"/><path class="cls-6" d="M2101.11,878.23a955.88,955.88,0,0,0-59.83-93.52c-196.07,4.29-358.81,63.84-465.45,116.58l-5.7,2.85c14.82,42.78,26.24,90.14,34.42,140.67l0,0q22-10.17,44.26-20C1802.81,957.08,1957.55,907.2,2101.11,878.23Z" transform="translate(-498.1 -464)"/><path class="cls-6" d="M2367.21,863.84c-58.26,0-122.34,5.44-190.64,16.17a7.63,7.63,0,0,1-3.28.51c-156.92,25-336,78-518.34,158.23-102.16,45-198.68,95.46-286.52,149.53a7.45,7.45,0,0,1-1.94,1.19c-114.49,70.65-214.13,147.36-292.08,225.71C938,1552.27,884.66,1677.26,924.19,1767.12s167.77,135,360.94,127.09c195.64-8,433.51-69.66,669.77-173.59,485.64-213.63,813.46-540.38,730.77-728.37C2647.78,906.13,2530.2,863.84,2367.21,863.84Z" transform="translate(-498.1 -464)"/><path class="cls-6" d="M1404.73,986.49c-8.1-50.78-21.12-103.26-42.69-140.81C1306,748.05,1215.67,730.2,1138,768c0,0,12.6-74.54,177.42-82.93,120.95-6.17,201.61,76.66,249.53,204.68,1.25-.62,2.43-1.24,3.68-1.86,106.21-52.59,267.34-111.83,461.54-118.09-55.49-72.46-121.67-132.64-204.58-175.6a8.52,8.52,0,0,1-.45,2.95c-4.74,13-41.84,11.32-82.87-3.69s-70.43-37.67-65.69-50.63a8.21,8.21,0,0,1,1.08-1.94c-51.75-11.75-108.49-18.55-171.16-19.6-314-5.25-409.93,220.46-409.93,220.46a271.13,271.13,0,0,0-.08,84.81c20.79-28.1,56.65-47.08,96.47-49.91,53.21-3.75,100.71,20.42,130.46,66.38,26.69,41.26,39.39,107.84,45.15,171.2C1376.61,1007.65,1388.8,998.06,1404.73,986.49Z" transform="translate(-498.1 -464)"/><g class="cls-5"><path class="cls-1" d="M1315.4,685.06C1150.58,693.45,1138,768,1138,768c77.69-37.79,168-19.94,224.06,77.69,21.57,37.55,34.59,90,42.69,140.81a1149.31,1149.31,0,0,1,160.2-96.75C1517,761.72,1436.35,678.89,1315.4,685.06Z" transform="translate(-498.1 -464)"/></g><g class="cls-5"><path class="cls-1" d="M1570.13,904.14c-72.79,36.5-128.41,73.87-162.85,99.34,8.52,60.75,10.41,116.19,12,137,58.77-33.71,120.78-65.76,185.3-95.64l0,0C1596.37,994.28,1585,946.92,1570.13,904.14Z" transform="translate(-498.1 -464)"/></g><g class="cls-9"><path class="cls-2" d="M2162.4,867a724,724,0,0,0-46.52-81.28c-25.36-1.3-50.22-1.57-74.6-1a955.88,955.88,0,0,1,59.83,93.52Q2132.12,872,2162.4,867Z" transform="translate(-498.1 -464)"/></g><g class="cls-9"><path class="cls-2" d="M1506.48,521.28c62.67,1.05,119.41,7.85,171.16,19.6a8.21,8.21,0,0,0-1.08,1.94c-4.74,13,24.67,35.63,65.69,50.63s78.13,16.66,82.87,3.69a8.52,8.52,0,0,0,.45-2.95c82.91,43,149.09,103.14,204.58,175.6,24.49-.79,49.48-.78,75,.23-103.5-146.95-239.34-216-343.75-248.32C1558.89,459,1342.29,490.57,1233,554.18c-77.68,45.2-113.59,103.25-129.11,155.61a314,314,0,0,0-7.3,32S1192.49,516,1506.48,521.28Z" transform="translate(-498.1 -464)"/></g><path class="cls-1" d="M1243.37,1918.89c-180,0-300.36-49.86-341-142.18-43.75-99.45,11.35-233.81,155.13-378.32,140.15-140.87,348.92-276.33,587.84-381.43s479.84-167.45,678.38-175.58c203.67-8.39,340,41.84,383.7,141.29s-11.34,233.8-155.13,378.32c-140.15,140.86-348.91,276.32-587.83,381.42S1484.64,1909.87,1286.1,1918C1271.52,1918.59,1257.25,1918.89,1243.37,1918.89Zm1122.15-1046q-19.74,0-40.44.85c-194.6,8-431.36,69.36-666.67,172.87s-440.55,236.55-577.92,374.62C948.69,1553.7,894.59,1678.51,932,1763.66s166,129.59,352.74,122c194.6-8,431.36-69.35,666.67-172.86s440.55-236.56,577.92-374.63c131.8-132.46,185.9-257.28,148.44-342.43h0C2643.12,916.85,2530.29,872.89,2365.52,872.89Z" transform="translate(-498.1 -464)"/><path class="cls-1" d="M1363.64,1198.61l-1,0a16.19,16.19,0,0,1-15.15-17.17c.14-2.35,13.91-235.86-44.07-325.45-24.88-38.46-64.51-58.73-108.78-55.57-39,2.78-73.15,23.8-86.88,53.55a16.2,16.2,0,0,1-30.28-2.33c-.59-2.08-14.37-51.5-3.62-115.45C1083.78,677,1117.38,593.89,1221,533.6c113.82-66.22,338.41-99.38,547.43-34.65,188.53,58.4,333.77,185.32,420,367.06a16.19,16.19,0,1,1-29.26,13.89c-103.93-219-275.07-311.21-400.34-350-200.11-62-413.86-31-521.56,31.71-128,74.47-138.46,187.18-134.23,244.64,22.65-21.6,54.58-35.69,89.28-38.16,55.55-4,107.24,22.33,138.27,70.28,63.75,98.53,49.82,335,49.19,345.07A16.19,16.19,0,0,1,1363.64,1198.61Z" transform="translate(-498.1 -464)"/><path class="cls-1" d="M1362.05,1045.85a16.19,16.19,0,0,1-10.84-28.23c3.2-2.88,80-71.27,213.59-137.43,123.24-61,319.81-131,556.28-118.05a16.19,16.19,0,1,1-1.77,32.34c-229-12.59-419.59,55.19-539.14,114.24-130,64.19-206.55,132.31-207.31,133A16.16,16.16,0,0,1,1362.05,1045.85Z" transform="translate(-498.1 -464)"/><path class="cls-1" d="M2220.83,1805.37c.15-33-7.75-68.58-16.09-92.21-21.28,3.31-42.56-.7-53.65-3.49-6.3,20.08-18.18,35-35.41,44.45-16,8.75-34.54,11.65-52.14,11.65h-.25c1.23,3.18,2.58,6.55,4.06,10.08C2090,1766.42,2160.25,1744.79,2220.83,1805.37Z" transform="translate(-498.1 -464)"/><path class="cls-11" d="M1510.83,1339.72c-31.59-24-162.83-120.33-233.25-120.33a63.48,63.48,0,0,0-11.87,1c-10.83,2.09-18.54,7.34-23.57,16.07-35.09,60.89,60.19,254.14,109.17,340.41C1393.79,1459.52,1485.37,1364.59,1510.83,1339.72Z" transform="translate(-498.1 -464)"/><path class="cls-2" d="M1336.9,1673c-19,193.5,24.8,360.79,123.35,471.05,85.62,95.8,208.33,145.5,364.72,147.71,4.22.07,8.5.1,12.75.1,265.41,0,563-116.32,727.93-285.42,93.48-95.87,140.6-204.54,136.28-314.28-7.13-181.12-75.2-298.77-131-365.56-60.57-72.45-120.28-102.47-120.88-102.77a7.55,7.55,0,0,1-1.57-1l-.07,0c-1.2-1-124.24-105.34-439.55-124.84a7.68,7.68,0,0,1-2.79-.73,64.34,64.34,0,0,1-1.65,6.46c-6,19.24-19.22,34.35-33.69,46.19-14.68,11.86-31.08,20.88-47.87,28.59a444.61,444.61,0,0,1-51.76,19.32,441.06,441.06,0,0,0,50.06-22.73c16-8.73,31.43-18.7,44.57-30.92s23.85-27,27.67-43.45a57.31,57.31,0,0,0,.43-24.72,59.53,59.53,0,0,0-3.71-11.76,50.68,50.68,0,0,0-5.43-9.73c-31.29-31.16-112.6,29.19-141.39,55.17a7.6,7.6,0,0,1-12.68-5c-1.65-19.76-6.48-44-20.15-47.19-36.14-8.43-121.11,107-166.27,181.73a7.61,7.61,0,0,1-10.88,2.3c-2.21-1.55-199.78-138.58-336.46-138.58-15.53,0-30.26,1.77-43.85,5.71-32.23,9.34-55.51,30.68-69.19,63.43-80.3,192.11,149.25,492.62,151.58,495.64A7.57,7.57,0,0,1,1336.9,1673Zm656.81,72a7.62,7.62,0,0,1,9.72-4.62c.65.23,64.74,22.53,105,.44,15.37-8.44,25.45-22.65,29.95-42.22a7.61,7.61,0,0,1,9.83-5.51c.47.16,47.72,15.59,77.17-3,13.05-8.26,20.88-22.42,23.27-42.1a7.61,7.61,0,1,1,15.11,1.83c-3,24.46-13.16,42.35-30.29,53.16a67.24,67.24,0,0,1-13.89,6.58c11.11,32.68,28,105.59,5.66,153.28-8.95,19.16-23.21,32.14-42.38,38.59a55,55,0,0,1-17.67,3c-63.39,0-109.08-114.07-118.44-139.37a220.68,220.68,0,0,1-48.39-10.27A7.62,7.62,0,0,1,1993.71,1744.94Zm-764.76-516c7.27-12.61,18.67-20.49,33.9-23.42,81.61-15.65,257,121.77,264.37,127.63a7.61,7.61,0,0,1,.44,11.57c-1.23,1.14-123.64,115.13-167.28,252.87a7.6,7.6,0,0,1-6.4,5.26,6.29,6.29,0,0,1-.86,0,7.59,7.59,0,0,1-6.55-3.74C1339.73,1587.54,1179.7,1314.36,1229,1228.91Z" transform="translate(-498.1 -464)"/><path class="cls-11" d="M2073.43,1789.67c22.34,48.41,62.31,111.46,104.55,97.23,15.28-5.14,26.22-15.15,33.44-30.6,4.13-8.82,6.66-19,8.07-29.87C2162.5,1758.82,2094.23,1780.69,2073.43,1789.67Z" transform="translate(-498.1 -464)"/><path class="cls-2" d="M2006.93,1073.75a74.29,74.29,0,0,1,.52,9.19,7.59,7.59,0,0,1,2.3-.24c39.76,2.45,76.47,6.21,110.29,10.91,3.4-37.58,20.38-191.23,73.81-235.71,11.75-9.77,24.59-14,38.32-12.45,85.59,9.45,149.33,278.13,159.81,325a421.65,421.65,0,0,1,50.25,28.78c-43.15-218.58-133.91-392.91-223.6-427.26-74.35-28.47-182.35,186.89-219.76,276.84a69.76,69.76,0,0,1,4.51,10.21A74.46,74.46,0,0,1,2006.93,1073.75Z" transform="translate(-498.1 -464)"/><path class="cls-11" d="M2230.49,860.58c-9.49-1-18.33,1.9-26.9,9-48.7,40.53-65.27,191.77-68.44,226.2,109.62,16.54,187.49,42.94,239.31,66.35C2352.25,1067.76,2292.58,867.44,2230.49,860.58Z" transform="translate(-498.1 -464)"/><path class="cls-12" d="M1353.12,1602.87a6.29,6.29,0,0,0,.86,0,7.6,7.6,0,0,0,6.4-5.26c43.64-137.74,166-251.73,167.28-252.87a7.61,7.61,0,0,0-.44-11.57c-7.42-5.86-182.76-143.28-264.37-127.63-15.23,2.93-26.63,10.81-33.9,23.42-49.25,85.45,110.78,358.63,117.62,370.22A7.59,7.59,0,0,0,1353.12,1602.87Zm-111-366.36c5-8.73,12.74-14,23.57-16.07a63.48,63.48,0,0,1,11.87-1c70.42,0,201.66,96.34,233.25,120.33-25.46,24.87-117,119.8-159.52,237.2C1302.33,1490.65,1207.05,1297.4,1242.14,1236.51Z" transform="translate(-498.1 -464)"/><g class="cls-5"><path class="cls-1" d="M2007.6,1734.56s68.94,3.5,89.59-21,14.35-48.59,27.29-51.94,7.7,4,44.45,7.15,58.79-3.5,73.84-22.4c0,0,10.15,46.2-28.7,54.6s-64.89-1.82-69.37,3.46-23,40.63-51.36,48.33S2003.4,1757,2007.6,1734.56Z" transform="translate(-498.1 -464)"/></g><g class="cls-5"><path class="cls-1" d="M1720.29,1211.82c-4,3,77.69-121.17,83.29-115.57S1836.47,1125.83,1720.29,1211.82Z" transform="translate(-498.1 -464)"/></g><g class="cls-5"><path class="cls-1" d="M1970.86,1079.45c10.49,14.7,1.24,42-34.73,67.89s-113.65,56.91-113.65,56.91S1960.36,1064.75,1970.86,1079.45Z" transform="translate(-498.1 -464)"/></g><path class="cls-6" d="M1434,2020.82s252,236.57,663.51,116.19,604.21-316.32,554.81-676c-24.48-57.7-54.41-102.06-81.47-134.43-60.57-72.45-120.28-102.47-120.88-102.77a7.55,7.55,0,0,1-1.57-1l-.07,0c-1.2-1-124.24-105.34-439.55-124.84a7.68,7.68,0,0,1-2.79-.73,64.34,64.34,0,0,1-1.65,6.46c-6,19.24-19.22,34.35-33.69,46.19-14.68,11.86-31.08,20.88-47.87,28.59a443.93,443.93,0,0,1-51.76,19.32,440.26,440.26,0,0,0,50.06-22.73c16-8.73,31.43-18.7,44.57-30.92s23.85-27,27.67-43.45a57.31,57.31,0,0,0,.43-24.72,59.53,59.53,0,0,0-3.71-11.76,50.68,50.68,0,0,0-5.43-9.73c-31.29-31.16-112.6,29.19-141.39,55.17a7.6,7.6,0,0,1-12.68-5c-1.65-19.76-6.48-44-20.15-47.19-36.14-8.43-121.11,107-166.27,181.73a7.61,7.61,0,0,1-10.88,2.3c-2.21-1.55-199.78-138.58-336.46-138.58-15.53,0-30.26,1.77-43.85,5.71-32.22,9.34-55.51,30.68-69.19,63.43-80.3,192.11,149.25,492.62,151.58,495.64a7.57,7.57,0,0,1,1.55,5.39c-19,193.5,24.8,360.79,123.35,471.05,81.16,90.81,195.72,140.12,340.64,146.9C1791.05,2288.59,1531.86,2225,1434,2020.82Zm-150.48-755.19C1250,1280.52,1271,1412,1271,1412c-13.75-5.66-40.85-88.3-44.1-124s6.74-65.86,30.55-72.44,91.86,17.85,117.35,31,133.56,76.64,141.44,89.24-28.35,34.12-28.35,34.12C1424.23,1316,1310,1253.9,1283.55,1265.63Z" transform="translate(-498.1 -464)"/><path class="cls-6" d="M2303.82,947.26c-18.4-17.87-47.94-41.29-69.1-32.29-32.9,14-41.28,191.08-41.28,191.08h0c79.59,16.08,138.9,37.08,181,56.1C2361.44,1106.81,2335.53,1015.09,2303.82,947.26Z" transform="translate(-498.1 -464)"/><path class="cls-6" d="M2006.93,1073.75a74.29,74.29,0,0,1,.52,9.19,7.59,7.59,0,0,1,2.3-.24c20.87,1.29,40.85,3,60.06,4.91,8.35-30,43.52-152.9,74.27-204.31,35.17-58.79,94.48-36.63,94.48-36.63h0c82.39,21.5,143.25,278.07,153.47,323.74a421.65,421.65,0,0,1,50.25,28.78c-43.14-218.58-133.91-392.91-223.6-427.26-74.35-28.47-182.35,186.89-219.76,276.84a69.76,69.76,0,0,1,4.51,10.21A74.46,74.46,0,0,1,2006.93,1073.75Z" transform="translate(-498.1 -464)"/><g class="cls-5"><path class="cls-1" d="M2097.54,2137C1686,2257.39,1434,2020.82,1434,2020.82c97.83,204.14,357,267.77,366.86,270.12,7.95.38,15.94.7,24.08.81,4.23.07,8.5.1,12.75.1,265.41,0,563-116.32,727.93-285.42,93.48-95.87,140.6-204.54,136.28-314.28-3.67-93.34-23.55-169.78-49.58-231.13C2701.75,1820.69,2509,2016.64,2097.54,2137Z" transform="translate(-498.1 -464)"/></g><g class="cls-5"><path class="cls-1" d="M1516.27,1335.79c-7.88-12.6-116-76.11-141.44-89.24s-93.54-37.55-117.35-31-33.81,36.75-30.55,72.44,30.35,118.34,44.1,124c0,0-21-131.5,12.52-146.39,26.42-11.73,140.68,50.39,204.37,104.28C1487.92,1369.91,1524.14,1348.39,1516.27,1335.79Z" transform="translate(-498.1 -464)"/></g><g class="cls-5"><path class="cls-1" d="M2234.72,915c21.16-9,50.7,14.42,69.1,32.29-22.38-47.86-47.64-83.84-73.33-86.68-9.49-1-18.33,1.9-26.9,9-48.7,40.53-65.27,191.77-68.44,226.2q30.79,4.65,58.29,10.25h0S2201.82,929,2234.72,915Z" transform="translate(-498.1 -464)"/></g><g class="cls-5"><path class="cls-1" d="M2144.08,883.3c-30.75,51.41-65.92,174.27-74.27,204.31q26.08,2.64,50.23,6c3.4-37.58,20.38-191.23,73.81-235.71,11.75-9.77,24.59-14,38.32-12.45a43.75,43.75,0,0,1,6.34,1.22h0S2179.25,824.51,2144.08,883.3Z" transform="translate(-498.1 -464)"/></g><path class="cls-1" d="M1837.62,2315.65q-6.51,0-13-.09c-163.32-2.32-291.89-54.69-382.13-155.66-102-114.06-148-285.37-129.89-482.9-31.9-42.68-231.37-321.48-150.81-514.23,16.61-39.72,45-65.66,84.55-77.11,126.09-36.54,330.58,89.82,386.42,126.68,11.66-18.37,33.47-51.58,58.7-84.46,71.62-93.32,105.29-98.17,124.38-93.69,19.69,4.62,29.09,22.36,33.75,39.22,32.44-25.06,91.73-63.54,133.37-47.88,12.35-28.12,38.75-85.38,72-140.93,64.89-108.41,122.81-153.8,172.17-134.9,51.27,19.64,102,77.08,146.74,166.11,40.56,80.73,73.83,183.67,94,290.63,18.53,10.53,69,42.53,120.73,104.24,58.46,69.7,129.7,192.3,137.11,380.53,4.58,116.43-44.88,231.18-143,331.83C2413.65,2196.39,2109,2315.65,1837.62,2315.65ZM1297.35,1111.31a151.2,151.2,0,0,0-42,5.46c-30,8.71-50.84,27.84-63.65,58.5-78.33,187.39,148.16,484.11,150.45,487.08a16.19,16.19,0,0,1,3.3,11.48c-18.76,191.08,24.28,356,121.21,464.49,83.95,93.94,204.55,142.67,358.44,144.86,4.19.05,8.44.08,12.65.08,263.26,0,558.36-115.26,721.76-282.83,91.79-94.13,138.08-200.62,133.86-307.94-7-178.26-73.75-294-128.5-359.72-59.44-71.34-118.08-101-118.67-101.26a16.25,16.25,0,0,1-8.75-11.61C2397.1,998.76,2303.78,813.74,2215.56,780c-57.91-22.17-157.76,147.79-210.2,275.56a16.18,16.18,0,0,1-26.56,5.16c-24.25-24.82-97.92,26.53-129.8,55.28a16.19,16.19,0,0,1-27-10.68c-2.28-27.38-8.73-38.41-13.56-39.54-2.45-.57-26-3.2-91.15,81.68-35.82,46.64-65.52,95.64-65.82,96.13a16.2,16.2,0,0,1-23.14,4.89C1626.17,1246.91,1430.63,1111.31,1297.35,1111.31Z" transform="translate(-498.1 -464)"/><path class="cls-1" d="M1353.12,1611.46a16.2,16.2,0,0,1-13.94-8c-17.4-29.49-168.51-290.64-117.67-378.86,8.45-14.66,22.18-24.19,39.72-27.56,84-16.13,252.38,114.38,271.3,129.32a16.19,16.19,0,0,1,1,24.61c-1.22,1.13-122,113.68-164.92,249.15a16.28,16.28,0,0,1-15.44,11.31ZM1277.75,1228a55.58,55.58,0,0,0-10.42.92c-8.35,1.61-14,5.4-17.76,11.93-28.41,49.3,40.86,208.57,100.28,316,41.67-102.13,117-184.93,148-216.28C1444.11,1300.3,1335.29,1228,1277.75,1228Z" transform="translate(-498.1 -464)"/><path class="cls-1" d="M2003.34,1039.64c12,19.23,14.67,44.49,7.24,65.68-14.56,39.63-51.31,59.85-86.81,75a442.32,442.32,0,0,1-52.72,17.4c32.89-14.44,66.45-31.63,91.81-56.89,22.9-21.86,35.12-56.17,14.57-81.75-12.38-17.39,12.66-36.21,25.91-19.44Z" transform="translate(-498.1 -464)"/><path class="cls-1" d="M2453.36,1233.19a16.15,16.15,0,0,1-10.63-4c-1.31-1.13-123-103.49-434.45-122.76a16.19,16.19,0,1,1,2-32.32c324.1,20,448.62,126.18,453.77,130.69a16.19,16.19,0,0,1-10.69,28.37Z" transform="translate(-498.1 -464)"/><path class="cls-1" d="M2385.39,1192.15a16.18,16.18,0,0,1-15.8-12.73c-27.44-125.46-89-304.68-140-310.31-7.21-.79-13.7,1.46-20.47,7.09-43.18,35.94-62.27,176.27-66,227.31a16.19,16.19,0,1,1-32.3-2.35c1.46-20.19,16.11-198.71,77.56-249.85C2202,840,2217,835.15,2233.1,836.92c42.81,4.72,82.93,62.22,122.64,175.76,27.83,79.56,45.31,159,45.49,159.82a16.21,16.21,0,0,1-12.36,19.28A16.61,16.61,0,0,1,2385.39,1192.15Z" transform="translate(-498.1 -464)"/><ellipse class="cls-1" cx="2276.71" cy="1500.15" rx="77.15" ry="99.29" transform="translate(-916.71 624.95) rotate(-24.71)"/><ellipse class="cls-2" cx="2288.38" cy="1469.08" rx="23.59" ry="35.05" transform="translate(-902.65 626.98) rotate(-24.71)"/><g class="cls-13"><ellipse class="cls-2" cx="2267.04" cy="1546.5" rx="15.62" ry="28.03" transform="translate(-873.71 1822.45) rotate(-49.94)"/></g><ellipse class="cls-1" cx="1846.71" cy="1676.93" rx="80.52" ry="103.63" transform="translate(-1029.97 461.4) rotate(-24.71)"/><ellipse class="cls-2" cx="1858.9" cy="1644.49" rx="24.62" ry="36.58" transform="translate(-1015.29 463.52) rotate(-24.71)"/><g class="cls-13"><ellipse class="cls-2" cx="1836.62" cy="1725.3" rx="16.3" ry="29.26" transform="translate(-1163.99 1556.74) rotate(-49.94)"/></g><path class="cls-1" d="M2063.57,1774.28c-35.11,0-66.14-10.83-68.12-11.53a16.19,16.19,0,0,1,10.84-30.52h0c.61.21,61.21,21.21,98,1,13.3-7.31,21.7-19.28,25.68-36.59a16.19,16.19,0,0,1,20.94-11.72c12.12,4,48.36,11.45,69.88-2.19,10.9-6.91,17.21-18.64,19.3-35.86a16.19,16.19,0,0,1,32.15,3.91c-3.29,27.14-14.81,47.12-34.23,59.38-26.72,16.86-61.41,13.56-81.39,9.55-7.44,18.54-19.78,32.61-36.82,42C2102.47,1771.15,2082.43,1774.28,2063.57,1774.28Z" transform="translate(-498.1 -464)"/><path class="cls-1" d="M2128.53,1675.05s-73.58-5.25-59.93-31,86.09-51.44,89.76-24.67S2146.47,1668.75,2128.53,1675.05Z" transform="translate(-498.1 -464)"/><path class="cls-1" d="M2164.76,1913c-73.9,0-122.17-133.47-127.86-150a16.2,16.2,0,0,1,30.63-10.55c13,37.79,60.88,142.06,107.71,126.33,12.94-4.35,22.23-12.89,28.41-26.1,18.43-39.42,4.2-108.24-9.1-142.36a16.2,16.2,0,0,1,30.18-11.76c13.63,35,32.91,115.09,8.26,167.83-10,21.36-25.94,35.86-47.42,43.09A64.93,64.93,0,0,1,2164.76,1913Z" transform="translate(-498.1 -464)"/><path class="cls-1" d="M2227.55,1840.31a16.16,16.16,0,0,1-12.58-6c-62.33-76.79-140.4-35.93-143.69-34.15a16.19,16.19,0,0,1-15.55-28.41c1-.57,104.75-56,184.38,42.14a16.19,16.19,0,0,1-12.56,26.4Z" transform="translate(-498.1 -464)"/><path class="cls-2" d="M1960.15,2308.48c-14.31,15.82-69.26,78.62-95.87,138.93-25.67,58.2-53.12,163-61.83,197.36,3.88-.64,7.75-1.22,11.65-1.77q12-1.66,24-2.75a357.61,357.61,0,0,1,48-1.34,353.69,353.69,0,0,0-46.67,8.84q-11.47,2.94-22.77,6.4c-7,2.16-14.11,4.51-20.87,7-8.89,6-109.57,76.38-64.22,148.7,9.64,15.37,22.35,24.06,38.86,26.57,48,7.29,111.11-40.54,125.76-52.31-2.79-23.16-10.42-130.86,77-190.86q-5.81-49.62-9.29-99.21c-2.36-34.12-3.92-68.32-3.64-102.47C1959.22,2365.51,1958.66,2333.83,1960.15,2308.48Z" transform="translate(-498.1 -464)"/><path class="cls-2" d="M1931.48,3174.67a150.67,150.67,0,0,1-7.07-22.79,131.66,131.66,0,0,1-3.38-23.26,89.42,89.42,0,0,1,1.73-23.34,58.11,58.11,0,0,1,9.45-20.88,56.13,56.13,0,0,0-5.69,21.42,83.78,83.78,0,0,0,2.06,21.79,122.66,122.66,0,0,0,6.71,20.82,151.76,151.76,0,0,0,7.45,15.39c13.75-14.41,35.78-27.53,71-33.54a4,4,0,0,1-.2-.42,7.92,7.92,0,0,1-.31-1.13c-1.66-8.6-2.77-16.86-3.65-25.33a252.61,252.61,0,0,1-1.31-25.36,131.06,131.06,0,0,1,2.24-25.31c1.67-8.22,4.32-16.72,10-22.93-4.68,7-5.87,15.36-6.27,23.4a125.35,125.35,0,0,0,1.57,24.3c1.25,8.05,2.92,16,5,23.91s4.41,15.79,7.06,23.2l0,.1a7.51,7.51,0,0,1,.35,3.53c69.15-7.24,122.38-10.2,152.18,11.77-20.45-24-43-59.8-42.41-101.07.53-40.15,22.81-77.15,66.25-110-13.94-34.26-81-210.7-40.85-338.51-17.76-9-93.18-41.09-176.59,12a7.6,7.6,0,0,1-3,2c-92,61.14-72.28,180.38-72.07,181.58a8.48,8.48,0,0,1,.06.86c0,.11,0,.21,0,.31,0,1.35,3.31,133.67,51.57,180.2l12-.44,16-.38q16-.24,32.11.56a269.48,269.48,0,0,1,31.93,3.29c10.52,1.81,21.07,4.21,30.72,8.7-10.11-3.3-20.66-4.38-31.13-4.92a264.45,264.45,0,0,0-31.47.54q-15.71,1.08-31.34,3.22l-15.61,2.26-7.84,1.23-4,.61-2.1.29-.16,0c-10.27,6-77.52,47.29-91.82,106.17-6.67,27.44-.8,55.13,17.44,82.31a140,140,0,0,0,33.09,34.43,82.14,82.14,0,0,1,11.44-28.61c-.2-.26-.42-.5-.6-.78A9,9,0,0,1,1931.48,3174.67Z" transform="translate(-498.1 -464)"/><path class="cls-3" d="M2202.85,3173.49c1.58-2.11,3.12-4.23,4.52-6.42-3.1-2.65-7.36-6.45-12.26-11.29A70.14,70.14,0,0,1,2202.85,3173.49Z" transform="translate(-498.1 -464)"/><path class="cls-11" d="M2311,3061.24c-74.08,22.43-80.84,66.87-80.64,83.44,37.67-2,212.17-13.1,286.27-52a116.13,116.13,0,0,0,29.54-21.8c1.23-8.91-1-15.71-7.11-21.21C2509.14,3022.73,2399.6,3034.39,2311,3061.24Z" transform="translate(-498.1 -464)"/><path class="cls-2" d="M2512.32,2530.16c-14.13-17.46-79.27-85.14-215.57-48.18-50.9,13.79-87.39,42.87-108.45,86.43-57.23,118.36,12.83,310.94,29,352.14,3.25-1.67,6.46-3.13,9.81-4.59,6.07-2.64,12.25-4.81,18.45-6.87a288.81,288.81,0,0,1,37.75-9.12,368.87,368.87,0,0,1,38.22-4.59c6.38-.46,12.78-.61,19.14-.92l19.13-.09-19,2c-6.3.94-12.59,1.72-18.84,2.8a362.3,362.3,0,0,0-37,8.24,278.32,278.32,0,0,0-35.42,12.38c-5.67,2.54-11.28,5.16-16.62,8.15a102.9,102.9,0,0,0-14.77,9.56l-.33.26c-.06.05-.13.08-.2.13-42.26,30.73-64,64.77-64.46,101.2-.74,53.16,43.77,98.3,61.51,114.15.26-.59.55-1.17.8-1.76-.83-7.92-1.57-32.37,16.25-57.08a100,100,0,0,1-13.42-20.19,110.91,110.91,0,0,1-8.66-22.38,104.72,104.72,0,0,1-3.69-23.33,115.46,115.46,0,0,1,1.24-23.18,113.29,113.29,0,0,0,2.53,22.68,98.82,98.82,0,0,0,7.09,21.25,100.63,100.63,0,0,0,11.21,19,88.53,88.53,0,0,0,13.51,14.68c13.64-13.82,34.13-26.89,64.94-36.22,4.47-1.36,9.12-2.7,13.92-4a171.71,171.71,0,0,1-11.63-19.76,153.81,153.81,0,0,1-9.13-21.84,106.84,106.84,0,0,1-4.92-23,66.6,66.6,0,0,1,2.07-23.09,64.48,64.48,0,0,0,1.68,22.46,101.09,101.09,0,0,0,8.19,20.73,144.67,144.67,0,0,0,11.86,18.83,156.31,156.31,0,0,0,14.09,16.76l.09.1a7.49,7.49,0,0,1,2.13,5c75.89-19.26,179.25-32.08,214.31-.42a36.82,36.82,0,0,1,10.37,15.54c28.15-43.89,20.17-100.39,16.58-125.68l-.58-4.16c-3.91-28.6-47.46-158.82-51.2-170C2517.93,2743.55,2452.33,2631,2512.32,2530.16Z" transform="translate(-498.1 -464)"/><path class="cls-11" d="M2029.59,3143.41c-84.74,8.88-93.65,57.15-94.44,71.15,40.88,24,91.75,29.73,133.7,25.26,50.17-5.35,93.75-24.67,121.61-52.2C2182.32,3136.76,2140.23,3131.8,2029.59,3143.41Z" transform="translate(-498.1 -464)"/><g class="cls-5"><path class="cls-1" d="M1967.39,3229.27s-3.15-33,53.14-50.36S2178.64,3154,2187,3164.64s16.48,27-4.88,40.58-59.16,31.43-108.5,39.83S1975,3238.17,1967.39,3229.27Z" transform="translate(-498.1 -464)"/></g><g class="cls-5"><path class="cls-1" d="M2269.46,3142.09s12.07-31.15,52.49-52.81,140.23-34.35,180.57-34.78,47.25,4.73,47.25,4.73,16.83,19-29.64,40.21-168.12,42-171.86,42.65S2269.46,3142.09,2269.46,3142.09Z" transform="translate(-498.1 -464)"/></g><path class="cls-6" d="M2431.13,2657.13c-13-89.52,50.08-126.66,72.2-136.81-24.74-24.49-89.3-70.15-206.58-38.34-50.9,13.79-87.39,42.87-108.45,86.43-57.23,118.36,12.83,310.94,29,352.14,3.25-1.67,6.46-3.13,9.81-4.59,6.07-2.64,12.25-4.81,18.45-6.87a288.81,288.81,0,0,1,37.75-9.12,368.87,368.87,0,0,1,38.22-4.59c6.38-.46,12.78-.61,19.14-.92l19.13-.09-19,2c-6.3.94-12.59,1.72-18.84,2.8a362.3,362.3,0,0,0-37,8.24,278.32,278.32,0,0,0-35.42,12.38c-5.67,2.54-11.28,5.16-16.62,8.15a102.9,102.9,0,0,0-14.77,9.56l-.33.26c-.06.05-.13.08-.2.13-42.26,30.73-64,64.77-64.46,101.2-.54,38.18,22.25,72.15,41.72,94.18a25.39,25.39,0,0,1,.15-2.73s-4.76-32.56,18.68-66.45a108,108,0,0,1-4.07-12.26,104.72,104.72,0,0,1-3.69-23.33,115.46,115.46,0,0,1,1.24-23.18,113.29,113.29,0,0,0,2.53,22.68,98.82,98.82,0,0,0,7.09,21.25c1,2.22,2.1,4.37,3.25,6.49,11.57-13.86,28.28-27.52,52.47-38.85,9.45-4.42,19-8.33,28.49-11.84-.48-1.32-1-2.65-1.39-4a106.84,106.84,0,0,1-4.92-23,66.6,66.6,0,0,1,2.07-23.09,64.48,64.48,0,0,0,1.68,22.46,101.09,101.09,0,0,0,8.19,20.73c.72,1.41,1.58,2.73,2.36,4.1,76.67-26.35,152.24-26.08,190.29-31.51C2543.47,2964.39,2446.88,2765.27,2431.13,2657.13Z" transform="translate(-498.1 -464)"/><path class="cls-6" d="M2180.42,3140c-.51-.59-1-1.23-1.53-1.84-.24.12-.47.25-.74.36C2178.9,3139,2179.7,3139.48,2180.42,3140Z" transform="translate(-498.1 -464)"/><path class="cls-6" d="M2311,3061.24c-74.08,22.43-80.84,66.87-80.64,83.44,37.67-2,212.17-13.1,286.27-52a116.13,116.13,0,0,0,29.54-21.8c1.23-8.91-1-15.71-7.11-21.21C2509.14,3022.73,2399.6,3034.39,2311,3061.24Z" transform="translate(-498.1 -464)"/><path class="cls-6" d="M2029.59,3143.41c-84.74,8.88-93.65,57.15-94.44,71.15,40.88,24,91.75,29.73,133.7,25.26,50.17-5.35,93.75-24.67,121.61-52.2C2182.32,3136.76,2140.23,3131.8,2029.59,3143.41Z" transform="translate(-498.1 -464)"/><path class="cls-6" d="M2202.85,3173.49c1.58-2.11,3.12-4.23,4.53-6.42-3.11-2.65-7.36-6.45-12.27-11.29A70.14,70.14,0,0,1,2202.85,3173.49Z" transform="translate(-498.1 -464)"/><path class="cls-6" d="M1922.47,3141.9a109.34,109.34,0,0,1-1.43-13.28,89,89,0,0,1,1.72-23.34,58.11,58.11,0,0,1,9.45-20.88,56.13,56.13,0,0,0-5.69,21.42,83.78,83.78,0,0,0,2.06,21.79c.41,2,.91,3.89,1.45,5.81,17-17.93,42.22-36.62,78.39-48.5-.06-2.3-.18-4.59-.18-6.88a131.06,131.06,0,0,1,2.24-25.31c1.67-8.22,4.32-16.72,10-22.93-4.68,7-5.87,15.36-6.27,23.4a125.35,125.35,0,0,0,1.57,24.3c.26,1.63.6,3.25.89,4.88,1.27-.37,2.51-.76,3.81-1.11,69.86-18.66,114.19-10.49,119.09-91s-35.69-193.18-28.69-287c5.86-78.51,41.12-106,52.46-112.88,0,0,0,0,0-.06-17.76-9-93.18-41.09-176.59,12a7.6,7.6,0,0,1-3,2c-92,61.14-72.28,180.38-72.07,181.58a6.33,6.33,0,0,1,.06.86c0,.11,0,.21,0,.31,0,1.35,3.31,133.67,51.57,180.2l12-.44,16-.38q16-.24,32.11.56a269.48,269.48,0,0,1,31.93,3.29c10.52,1.81,21.07,4.21,30.72,8.7-10.11-3.3-20.66-4.38-31.13-4.92a264.45,264.45,0,0,0-31.47.54q-15.71,1.08-31.33,3.22l-15.62,2.26-7.84,1.22-4,.62-2.1.29-.16,0c-10.27,6-77.52,47.29-91.82,106.17-6.67,27.44-.8,55.13,17.44,82.31a130.57,130.57,0,0,0,9.58,12.44C1898,3182.26,1904.38,3163.65,1922.47,3141.9Z" transform="translate(-498.1 -464)"/><g class="cls-5"><path class="cls-1" d="M1930,3133.42a138.94,138.94,0,0,0,5.26,15,151.76,151.76,0,0,0,7.45,15.39c13.75-14.41,35.78-27.53,71-33.54a4,4,0,0,1-.2-.42,7.92,7.92,0,0,1-.31-1.13c-1.66-8.6-2.77-16.86-3.65-25.33-.62-6.14-1-12.31-1.13-18.48C1972.25,3096.8,1947.08,3115.49,1930,3133.42Z" transform="translate(-498.1 -464)"/></g><g class="cls-5"><path class="cls-1" d="M1921.23,3205.22a82.14,82.14,0,0,1,11.44-28.61c-.2-.26-.42-.5-.6-.78a9,9,0,0,1-.59-1.16,150.67,150.67,0,0,1-7.07-22.79q-1.11-5-1.94-10c-18.09,21.75-24.43,40.36-24.75,41.33A144.26,144.26,0,0,0,1921.23,3205.22Z" transform="translate(-498.1 -464)"/></g><g class="cls-5"><path class="cls-1" d="M2110.93,2703.33c-7,93.78,33.59,206.47,28.69,287s-49.23,72.32-119.09,91c-1.3.35-2.54.74-3.81,1.11,1.12,6.39,2.44,12.75,4.07,19,2,7.84,4.41,15.79,7.06,23.2l0,.1a7.51,7.51,0,0,1,.35,3.53c67.47-7.07,119.72-10,149.91,10.29.27-.11.5-.24.74-.36-20-23.94-41.41-59-40.88-99.23s22.81-77.15,66.25-110c-13.94-34.25-81-210.65-40.87-338.45C2152.05,2597.33,2116.79,2624.82,2110.93,2703.33Z" transform="translate(-498.1 -464)"/></g><g class="cls-5"><path class="cls-1" d="M2195.11,3130.53a25.39,25.39,0,0,0-.15,2.73,244.65,244.65,0,0,0,19.79,20c.26-.59.55-1.17.8-1.76-.83-7.92-1.57-32.37,16.25-57.08a100,100,0,0,1-13.42-20.19c-1.7-3.31-3.22-6.69-4.59-10.12C2190.35,3098,2195.11,3130.53,2195.11,3130.53Z" transform="translate(-498.1 -464)"/></g><g class="cls-5"><path class="cls-1" d="M2512.32,2530.16a122.32,122.32,0,0,0-9-9.84c-22.12,10.15-85.23,47.29-72.2,136.81,15.75,108.14,112.34,307.26,68.25,313.56-38.05,5.43-113.62,5.16-190.29,31.51a160,160,0,0,0,9.5,14.73,156.31,156.31,0,0,0,14.09,16.76l.09.1a7.49,7.49,0,0,1,2.13,5c75.89-19.26,179.25-32.08,214.31-.42a36.82,36.82,0,0,1,10.37,15.54c28.15-43.89,20.17-100.39,16.58-125.68l-.58-4.16c-3.91-28.6-47.45-158.82-51.2-170C2517.93,2743.55,2452.33,2631,2512.32,2530.16Z" transform="translate(-498.1 -464)"/></g><g class="cls-5"><path class="cls-1" d="M2220.14,3055.73a104,104,0,0,0,8,12.48,88.53,88.53,0,0,0,13.51,14.68c13.64-13.82,34.13-26.89,64.94-36.22,4.47-1.36,9.12-2.7,13.92-4a171.71,171.71,0,0,1-11.63-19.76,165.4,165.4,0,0,1-7.74-17.84c-9.52,3.51-19,7.42-28.49,11.84C2248.42,3028.21,2231.71,3041.87,2220.14,3055.73Z" transform="translate(-498.1 -464)"/></g><g class="cls-5"><path class="cls-1" d="M1722.48,2764.22a73.48,73.48,0,0,0-1.68,18.3,75,75,0,0,0,10.68,27.32c9.64,15.37,22.35,24.06,38.86,26.57,48,7.29,111.11-40.54,125.76-52.31a244.69,244.69,0,0,1-.09-52.93c-9.49,6-57.8,36.11-92.69,44.6C1764.48,2785.21,1722.48,2764.22,1722.48,2764.22Z" transform="translate(-498.1 -464)"/></g><g class="cls-5"><path class="cls-1" d="M1936.65,2530.1c-1.44,32.68-13.12,90-23.32,135a170.65,170.65,0,0,1,59.81-71.84q-5.81-49.62-9.29-99.21c-2-28.75-3.35-57.56-3.59-86.35,0-.6-.08-.94-.08-.94S1939.28,2470.78,1936.65,2530.1Z" transform="translate(-498.1 -464)"/></g><path class="cls-1" d="M2041.24,3265.11c-73.89,0-138.45-29.73-172.88-81.06-22.11-33-29.1-67-20.78-101.25,13.16-54.06,61.58-93.52,87.8-111.45-31.05-42-41.78-112.59-45.46-153-29.31,20.12-79.47,48.26-123.16,41.62-23.44-3.57-42.09-16.17-55.44-37.46-45.84-73.09,20.78-146.27,66.68-178.14,7-28,36.21-142.43,64.5-206.56,32.25-73.09,100.91-146.36,103.82-149.44a16.19,16.19,0,1,1,23.57,22.21c-.68.72-67.78,72.38-97.76,140.31-30.56,69.27-63.83,205.87-64.17,207.25a16.14,16.14,0,0,1-6.94,9.78c-1,.68-104.93,69.35-62.27,137.38,8.23,13.11,19,20.52,32.84,22.64,41.85,6.41,102.32-36,122.09-52.93a16.2,16.2,0,0,1,26.72,12c.77,37,11.35,140.71,50.6,175.83a16.19,16.19,0,0,1-3,26.26c-.72.4-74.51,41.78-89,101.51-6.13,25.33-.82,50,16.24,75.46,38.63,57.58,114.51,71.46,172.68,65.26,67.71-7.22,122.82-40.44,140.38-84.62a16.18,16.18,0,0,1,14.4-10.2c2.08-.09,208.72-8.78,289.88-51.36,63.63-33.37,62.85-100.71,55.06-155.64l-.59-4.2c-3.27-24-38-130.28-51.09-169.2a16.19,16.19,0,1,1,30.69-10.34c4.92,14.62,48.21,143.75,52.49,175.16l.57,4c4.93,34.78,19.93,140.6-72.08,188.88-77.76,40.79-249.75,52.25-293.59,54.55-25.51,51-86.68,87-162.68,95.15A288.6,288.6,0,0,1,2041.24,3265.11Z" transform="translate(-498.1 -464)"/><path class="cls-1" d="M1904.19,2803.47a16.18,16.18,0,0,1-15.92-13.35c-1-5.57-23-137.36,84.13-206.79,106.57-69.06,202.92-13.76,207-11.37a16.19,16.19,0,1,1-16.45,27.9c-3.32-1.92-83.57-47.24-172.91,10.64-88.93,57.62-70.67,169.26-69.85,174a16.2,16.2,0,0,1-13.15,18.74A16,16,0,0,1,1904.19,2803.47Z" transform="translate(-498.1 -464)"/><path class="cls-1" d="M1787.72,2638.75c32.77-3.45,65.8-4,98.29.16-31,6.57-60.91,17.54-89.28,31-23.71,9.88-34.33-26.77-9-31.11Z" transform="translate(-498.1 -464)"/><path class="cls-1" d="M1927.48,3234.89a16.1,16.1,0,0,1-16.12-15c-.06-.87-4.74-87.56,115.75-100.19,87-9.11,176.86-18.54,187.54,68.8a16.2,16.2,0,0,1-32.15,3.94c-5.48-44.81-35.32-52.76-152-40.53-86.94,9.12-87.07,60.11-86.8,65.9a16.28,16.28,0,0,1-15.22,17C1928.13,3234.88,1927.81,3234.89,1927.48,3234.89Z" transform="translate(-498.1 -464)"/><path class="cls-1" d="M2223.29,3168.74a16.08,16.08,0,0,1-15.79-12.86c-.17-.83-15.65-83.45,96.56-117.43,66.83-20.23,205.27-47.63,250.91-6.42,9,8.08,18.68,22.55,14.2,45.6a16.19,16.19,0,0,1-31.79-6.18c1.7-8.72-1-12.55-4.12-15.38-26.38-23.83-135-12.31-219.81,13.38-83,25.15-74.58,77.9-74.18,80.13a16.27,16.27,0,0,1-12.87,18.86A16.46,16.46,0,0,1,2223.29,3168.74Z" transform="translate(-498.1 -464)"/><path class="cls-1" d="M1963.38,2959c17.71.62,65.47,2.16,92.32,9.25,10.55,2.53,21.09,5.67,30.49,10.83-10.37-2.63-20.92-3-31.35-2.78-31.09.64-62.13,8.11-92.33,14.55-25.16,2.13-24-35.3.87-31.85Z" transform="translate(-498.1 -464)"/><path class="cls-1" d="M2217.27,3181.55a16.13,16.13,0,0,1-9.83-3.34c-3.23-2.47-79-61.43-78-139.39.55-41.28,22.22-79.17,64.46-112.75-19.57-49.81-87.75-242.39-27-368,24.19-50.07,65.8-83.4,123.66-99.08,169.18-45.86,241.41,57.22,244.41,61.63a16.2,16.2,0,0,1,.27,17.77c-59.32,93.39,9.06,202.66,9.76,203.75a16.19,16.19,0,0,1-27.26,17.49c-3.21-5-75.78-120.24-15.85-228.48-18.93-20.77-81.33-73.85-202.86-40.9-49.06,13.3-82.74,40.08-102.95,81.87-62.33,128.84,31.45,350.72,32.41,352.95a16.2,16.2,0,0,1-5.38,19.5c-40.2,29.13-60.81,61-61.25,94.67-.82,61.89,64.65,112.74,65.31,113.25a16.19,16.19,0,0,1-9.86,29.05Z" transform="translate(-498.1 -464)"/><path class="cls-1" d="M2203.66,2918.66c41.63-22.68,90.64-25.88,137-25.27l19.21,1c-42.79,6.45-86.66,17.31-123.56,40.31-4.32,2.81-9.34,6.1-12.81,9.59a17.34,17.34,0,0,1-23.22,7.89c-11.89-5.46-12.89-23.14-1.91-30l5.31-3.49Z" transform="translate(-498.1 -464)"/><path class="cls-1" d="M1923.87,3178.64c-8.8-30.35-13.38-68.53,8.34-94.24-10.4,27.65,4.13,57.26,20.38,79.27,16.47,22-19.86,41.1-28.72,15Z" transform="translate(-498.1 -464)"/><path class="cls-1" d="M2004.94,3131.05c-2.46-29.71-5.82-78.37,15.58-101.25-12.22,26.34,4.92,67.43,15.59,92.48,9.57,23.7-27,34-31.17,8.77Z" transform="translate(-498.1 -464)"/><path class="cls-1" d="M2226.39,3101.21c-20.43-26.85-27.42-63.51-19.12-95.9a110.23,110.23,0,0,0,4.66,22.4c6.45,19.77,19,38.37,36.37,49.65,21.74,7.31,12.11,39.2-10.06,33.22-5-1.25-8.6-5.76-11.85-9.37Z" transform="translate(-498.1 -464)"/><path class="cls-1" d="M2314.54,3049.11c-15.48-28-28.8-62.68-17.68-94.2,0,29.82,21.1,54.74,42.36,73.22,20.5,17.76-10.28,44.06-24.68,21Z" transform="translate(-498.1 -464)"/><path class="cls-1" d="M1965.21,2599.5c-5.17-69.81-8.29-139.89-5-209.76,7.49,69,21.26,137.15,37,204.59,4.57,22.7-29.14,28.21-32,5.17Z" transform="translate(-498.1 -464)"/><path class="cls-3" d="M1868.62,2316.07c19.13,20.83,41,39.54,64,56.25,23.08,2.51,46.35,4.58,69.6,6,24.11,1.45,48.27,2.49,72.48,1.31-24,3.71-48.29,5.22-72.55,6.3-16,.67-32.08,1-48.14,1.15,88.54,58.27,185.88,88.3,205.28,93.94,93.06-67.95,171.46-146.88,234.3-221.15q-11.41,6.18-23,12.16-30.55,15.7-61.78,29.86c-20.88,9.32-41.81,18.45-63,26.84-21.16,8.55-42.57,16.45-64,24.14,21-8.88,41.91-17.94,62.51-27.63,20.68-9.53,41-19.78,61.22-30.19q30.21-15.86,59.62-33c18.92-11.15,37.81-22.8,55.62-35.11a1644.6,1644.6,0,0,0,128.42-184.55c-146.5,137.29-318,204.21-440.78,236.5C1996.14,2308.44,1904.68,2314.74,1868.62,2316.07Z" transform="translate(-498.1 -464)"/><path class="cls-6" d="M2006.1,2378.57c22.84,1.33,45.71,2.21,68.63,1.1-18.64,2.88-37.48,4.42-56.35,5.48,39.79,21.17,78.46,39.78,97.39,43.32,47.77,8.92,146.45-86.61,159.58-100.26a221.12,221.12,0,0,0,15.65-18.44c-15,6.56-30,13-45.16,19-21.16,8.55-42.57,16.45-64,24.14,7.74-3.27,15.45-6.62,23.15-10,6.12-3.81,168.35-104.94,185.34-127.6,13-17.35,29-57.5,36.13-76.41-112.86,74.35-228.44,116.4-318,140-91.23,24-168.71,32.65-213.9,35.77C1894.52,2314.68,1949.52,2347.92,2006.1,2378.57Z" transform="translate(-498.1 -464)"/><g class="cls-5"><path class="cls-1" d="M2205,2343c13.2-5.73,26.35-11.55,39.36-17.67,20.68-9.53,41-19.78,61.22-30.19q30.21-15.86,59.62-33c18.92-11.15,37.81-22.8,55.62-35.11a1644.6,1644.6,0,0,0,128.42-184.55,917.37,917.37,0,0,1-122.77,96.53c-7.14,18.91-23.11,59.06-36.13,76.41C2373.31,2238,2211.08,2339.14,2205,2343Z" transform="translate(-498.1 -464)"/></g><g class="cls-5"><path class="cls-1" d="M1868.62,2316.07c19.13,20.83,41,39.54,64,56.25,23.07,2.51,46.34,4.58,69.59,6,1.29.08,2.57.13,3.85.21-56.58-30.65-111.58-63.89-111.58-63.89C1884.09,2315.4,1875.38,2315.82,1868.62,2316.07Z" transform="translate(-498.1 -464)"/></g><g class="cls-5"><path class="cls-1" d="M2115.77,2428.47c-18.93-3.54-57.6-22.15-97.39-43.32q-8.1.46-16.2.82c-16,.67-32.08,1-48.14,1.15,88.54,58.27,185.88,88.3,205.28,93.94,93.06-67.95,171.46-146.88,234.3-221.15q-11.41,6.18-23,12.16-30.54,15.7-61.78,29.86c-6,2.65-11.92,5.23-17.88,7.84a221.12,221.12,0,0,1-15.65,18.44C2262.22,2341.86,2163.54,2437.39,2115.77,2428.47Z" transform="translate(-498.1 -464)"/></g><g class="cls-9"><path class="cls-2" d="M1991.88,2333.52s81.71-7.55,165.61-38.52,110.16-38.52,110.16-38.52-70.77,54.38-137.88,77S2009.16,2354.47,1991.88,2333.52Z" transform="translate(-498.1 -464)"/></g><g class="cls-9"><path class="cls-2" d="M2091.1,2393.83l75.91-23.35s-21.36,31.58-37.24,33.5C2117.74,2405.44,2101.07,2407.42,2091.1,2393.83Z" transform="translate(-498.1 -464)"/></g><path class="cls-1" d="M2160.81,2505.58a16.18,16.18,0,0,1-4.19-.55c-8.52-2.28-209.86-57.4-316.9-185.85a16.2,16.2,0,0,1,12.44-26.56h.6c7.79,0,113.2-.72,250.59-37C2233.9,2221.16,2421,2146.57,2571.06,1987a16.2,16.2,0,0,1,26.26,18.38c-1.49,3-151.93,297.68-427,497.16A16.16,16.16,0,0,1,2160.81,2505.58ZM1888.05,2323.8c92.44,90.62,235.78,137.63,269.63,147.82,168.47-124,288.37-283.94,353.6-384.5-137.2,112.86-289,170.71-400.68,200.08C2012.82,2312.93,1932.09,2321.17,1888.05,2323.8Z" transform="translate(-498.1 -464)"/><path class="cls-1" d="M1930.68,2363.51c47.63,7.81,95.62,15.21,144,16.16-48,9.84-97.14,13.25-146.06,16.17-24,0-21.82-35.28,2-32.33Z" transform="translate(-498.1 -464)"/><path class="cls-1" d="M2435.74,2245.57c-60.75,34.3-123.93,61.16-189,85.17-21.47,7.91-43.17,15.14-64.88,22.17q62.21-28.35,121.85-61.68c39-22.18,78.51-46.23,114.24-72.71,18.64-12.88,37.09,14.89,17.84,27.05Z" transform="translate(-498.1 -464)"/></svg>