<svg id="Layer_1" data-name="Layer 1" xmlns="http://www.w3.org/2000/svg" viewBox="0 0 2220.04 3124.65"><defs><style>.cls-1{fill:#fff;}.cls-2{opacity:0.2;}.cls-3{fill:#191919;}.cls-4{fill:#936241;}.cls-5{fill:#fb3;}.cls-6{opacity:0.6;}.cls-7{fill:#80cfff;}.cls-8{fill:#55c6ff;}.cls-9{fill:#abe3ff;}.cls-10{fill:#7e5be8;}.cls-11{opacity:0.25;}.cls-12{opacity:0.3;}.cls-13{fill:#5f5f82;}.cls-14{opacity:0.3;}.cls-15{fill:#000072;}.cls-16{opacity:0.2;}.cls-17{fill:none;stroke:#6b184e;stroke-linecap:round;stroke-linejoin:round;stroke-width:23.19px;}.cls-18{opacity:0.35;}.cls-19{opacity:0.5;}</style></defs><title>wizard3</title><path class="cls-1" d="M1418.65,2771.06H1261.37a46.74,46.74,0,0,1-46.25-40.57c-10.29-75.66-8.5-139.07-2.94-187.27a543.59,543.59,0,0,1,14.09-76.6A46.83,46.83,0,0,1,1265,2432.3c68.76-10.05,148.83-2,148.83-2l1.8,124.64Z" transform="translate(-994.74 -436.67)"/><g class="cls-2"><path class="cls-3" d="M1418.65,2771.06H1285.88a46.74,46.74,0,0,1-46.25-40.57c-9.72-71.33-8.66-131.79-3.88-178.86,72.92,22.8,140.21,13.4,179.84,3.35Z" transform="translate(-994.74 -436.67)"/></g><path class="cls-4" d="M3174.35,1797.65a82.22,82.22,0,0,1-22.85,89.15c-76.5,68.1-134.3,96.1-134.3,96.1l0,.15L2988,2074.9l-38.85,122.3-5.6,17.55-114.65-18.6,35.65-156.6,22.95-100.85.2-1c-51.8-155.1-77.75-322-88-401.45a82.52,82.52,0,0,1,33.4-77.3c146.55-106.7,369.45-212.7,369.45-212.7-45.05,98.6-140.15,337.15-140.15,337.15a921.12,921.12,0,0,1,81.3,140.25c13.4,28.5,23.4,53.7,30.7,74" transform="translate(-994.74 -436.67)"/><path class="cls-5" d="M3017.15,1983.05,2988,2074.9c-27.85-.25-82-5.15-123.45-35.35l22.95-100.85c18.6,15.85,59.55,41.85,129.7,44.35" transform="translate(-994.74 -436.67)"/><g class="cls-6"><path class="cls-1" d="M2864.5,2039.55l-35.65,156.6,32.22,5.23,33.43-146.83,22.95-100.85.2-1c-51.8-155.1-77.75-322-88-401.45a82.52,82.52,0,0,1,33.4-77.3c105-76.44,249.18-152.53,322.5-189.53,6.15-14.14,11.87-27,16.95-38.17,0,0-222.9,106-369.45,212.7a82.52,82.52,0,0,0-33.4,77.3c10.25,79.5,36.2,246.35,88,401.45l-.2,1Z" transform="translate(-994.74 -436.67)"/></g><g class="cls-2"><path class="cls-3" d="M3151.5,1886.8c-76.5,68.1-134.3,96.1-134.3,96.1l0,.15L2988,2074.9l-38.85,122.3-28.75-9.9,45.05-209.2-38-21.3s71.65-27.65,142-70.4,88-88.7,71.2-148.6c-2.05-7.35-.8-11.85,3-14.1,13.4,28.5,23.4,53.7,30.7,74a82.22,82.22,0,0,1-22.85,89.15" transform="translate(-994.74 -436.67)"/></g><path class="cls-3" d="M3017.18,1995.18c-103.88,0-138.21-48.42-139.62-50.49a12.25,12.25,0,0,1,20.16-13.93c.59.81,30.13,39.9,119.46,39.9a12.26,12.26,0,0,1,0,24.52Z" transform="translate(-994.74 -436.67)"/><path class="cls-3" d="M2966.6,2083.07c-64.56,0-107.36-35-109.36-36.62a12.26,12.26,0,0,1,15.66-18.86c.55.46,48.07,38.8,115.18,29.47a12.26,12.26,0,1,1,3.37,24.28A181,181,0,0,1,2966.6,2083.07Z" transform="translate(-994.74 -436.67)"/><path class="cls-3" d="M2943.53,2227a11.91,11.91,0,0,1-2-.17l-114.66-18.58a12.26,12.26,0,0,1-10-14.82L2875,1938.39c-50.88-153.47-76.63-316.58-87.48-400.5a94.79,94.79,0,0,1,38.38-88.79C2971.6,1343,3195,1236.28,3197.26,1235.22a12.26,12.26,0,0,1,16.41,16.16c-40.4,88.41-122.29,292.47-137.5,330.47,57.51,82.89,91.35,160.61,109.7,211.66a94,94,0,0,1-26.2,102.43c-65.26,58.08-116.77,87.31-132.36,95.55l-72.11,227A12.27,12.27,0,0,1,2943.53,2227Zm-99.82-40.86L2935,2201l70.46-221.76a12.25,12.25,0,0,1,6.32-7.32c.57-.27,57.42-28.28,131.55-94.26a69.57,69.57,0,0,0,19.43-75.83c-18.24-50.75-52.22-128.6-110.49-211.29a12.23,12.23,0,0,1-1.36-11.6c.86-2.16,78.76-197.36,126.62-306.74-65.81,32.78-225.11,115-337.29,196.74a70.33,70.33,0,0,0-28.5,65.83c10.82,83.64,36.57,246.7,87.52,399.15a12.25,12.25,0,0,1,.32,6.6Z" transform="translate(-994.74 -436.67)"/><path class="cls-7" d="M3119.68,1441.7s-98.3,65.36-194.25,190.56a46.14,46.14,0,0,0-8.31,38.76c8.5,35.56,30.54,107.85,78.37,162.79,0,0,58.94-3,145.14-96a46.39,46.39,0,0,0,12.31-34.5c-3.17-48.78-13.08-178.32-33.26-261.57" transform="translate(-994.74 -436.67)"/><path class="cls-8" d="M3029.06,1730.53l88.51-284.64s29.48,178.95,32.27,264.72c0,0-89.89,32.47-117.81,19.92" transform="translate(-994.74 -436.67)"/><path class="cls-8" d="M2918.35,1645.51l108.51,90.88-31.37,97.42s-88.65-121.75-77.14-188.3" transform="translate(-994.74 -436.67)"/><path class="cls-9" d="M3152.33,1714h0a5,5,0,0,0-5.85-4l-105.16,20a5,5,0,0,1-5.71-6.42l87.32-275.7a5,5,0,0,0-9.53-3l-87.8,277.23a5,5,0,0,1-8,2.27L2925.4,1645a5,5,0,0,0-7.05.52h0a5,5,0,0,0,.52,7l98.66,85.07a5,5,0,0,1,1.5,5.3l-26.8,84.61a5,5,0,0,0,9.54,3l27-85.21a5,5,0,0,1,3.83-3.4l115.77-22.07a5,5,0,0,0,4-5.85" transform="translate(-994.74 -436.67)"/><g class="cls-6"><path class="cls-1" d="M2937.12,1686a46.12,46.12,0,0,1,8.31-38.75c73.87-96.4,149.1-157.29,179.82-180.21-1.77-8.81-3.62-17.3-5.57-25.35,0,0-98.3,65.36-194.25,190.56a46.12,46.12,0,0,0-8.31,38.75c8.5,35.56,30.54,107.85,78.37,162.79a51.08,51.08,0,0,0,7.13-1.12c-38.95-52.26-57.81-114.49-65.5-146.67" transform="translate(-994.74 -436.67)"/></g><path class="cls-3" d="M2995.49,1846.06a12.22,12.22,0,0,1-9.24-4.21c-49.05-56.33-71.84-129.43-81.05-168a58.1,58.1,0,0,1,10.5-49.06c96.09-125.38,193.11-190.6,197.19-193.31a12.25,12.25,0,0,1,18.7,7.32c20.29,83.69,30.24,212.26,33.58,263.65a58.88,58.88,0,0,1-15.55,43.63c-88.57,95.65-150.91,99.82-153.52,100Zm116.32-383.57c-30.66,23-104.68,83.32-176.66,177.23a33.75,33.75,0,0,0-6.11,28.45c8.41,35.19,28.71,100.77,71.33,152.44,15.91-3.54,65.12-19.74,131.27-91.16a34.31,34.31,0,0,0,9.07-25.38C3137.64,1656.88,3129,1543.9,3111.81,1462.49Z" transform="translate(-994.74 -436.67)"/><path class="cls-10" d="M3017.5,2402.1c-18.2,77.55-75.1,139.1-188.65,113.4,0,0-29,26.9-69.1,62.9-.9.75-1.8,1.6-2.7,2.4-22.9,20.55-49.25,43.85-75.85,66.75v0C2633,2689.15,2584,2729.35,2553.5,2749c-77.5,49.9-124.75,0-124.75,0L2378.7,2628.8l-180.25-432.65,30.5-58.05s125.25,35.25,254.75,251.9l86.65-57.9,82.4-55,6.15-4.1,38.65-25.8s24.4-81.85,112.3-102.05,110.5,42.2,110.5,42.2,74.85-16.05,98,97.4c7.65,37.35,8.05,79.3-.85,117.4" transform="translate(-994.74 -436.67)"/><path class="cls-1" d="M2828.85,2515.5s-29,26.9-69.1,62.9C2650,2492.55,2652,2339.75,2658.9,2273l38.65-25.8s24.4-81.85,112.3-102.05,110.5,42.2,110.5,42.2,74.85-16.05,98,97.4-20.2,269.1-189.5,230.8" transform="translate(-994.74 -436.67)"/><path class="cls-5" d="M2757.05,2580.8c-22.9,20.55-49.25,43.85-75.85,66.75-31.2-40.7-115.6-165.4-110.85-315.45l82.4-55c-3.1,66.15,1.15,225.3,104.3,303.75" transform="translate(-994.74 -436.67)"/><g class="cls-2"><path class="cls-3" d="M3017.5,2402.1c-18.2,77.55-75.1,139.1-188.65,113.4,0,0-29,26.9-69.1,62.9-.9.75-1.8,1.6-2.7,2.4-22.9,20.55-49.25,43.85-75.85,66.75v0C2633,2689.15,2584,2729.35,2553.5,2749c-77.5,49.9-124.75,0-124.75,0L2378.7,2628.8l16.6-71.5s53.95,88.25,95.55,88.25,203.1-147,203.1-147-41.65-100.9-36.85-203.75a233.73,233.73,0,0,0,13.49,55.89c15.15,39.41,69.78,40.43,87.56,2.13a161,161,0,0,1,21.4-34.32s-33.8-54.55,18.55-106.9c0,0,9.8-24.1,30.75-30.3,0,0-12,81.85,27.2,97.05s68.15-23.55,68.15-63.65c0,0,28.8,72.85-43,106.75,0,0-92.1,97.5-8.9,152.7,67.85,45.05,126.1-39.45,145.25-72.1" transform="translate(-994.74 -436.67)"/></g><path class="cls-3" d="M2491,2399.85a208.29,208.29,0,0,1-23.8,13.71,146.38,146.38,0,0,1-26,10.64,2.41,2.41,0,0,1-3-1.66,2.5,2.5,0,0,1,.31-2,147.65,147.65,0,0,1,17.81-21.72,209.27,209.27,0,0,1,20-18.65l.07,0a12.26,12.26,0,1,1,15.27,19.19c-.22.18-.48.36-.71.52" transform="translate(-994.74 -436.67)"/><path class="cls-3" d="M2931.82,2183a159.78,159.78,0,0,1,6.8,21.23,175.15,175.15,0,0,1,3.92,21.67c1.5,14.7,1.3,30.1-2.71,45.4a91.4,91.4,0,0,1-8.86,22.32,30.21,30.21,0,0,1-3.23,5.2l-3.6,5a38.42,38.42,0,0,1-4.07,4.86,45.89,45.89,0,0,1-4.58,4.47,89.35,89.35,0,0,1-43.22,20.6c-15.53,2.78-32.06,2.28-47.66-3.73a67.45,67.45,0,0,1-36-33.51,79.9,79.9,0,0,1-6.69-45.4,95.18,95.18,0,0,1,15.2-40.24.94.94,0,0,1,1.29-.25,1,1,0,0,1,.41.7c1.31,14.34,1.44,27.63,2.84,40.21s3.7,24.26,8.82,33.85a41.46,41.46,0,0,0,23.49,19.45c10,3.37,21.67,3.61,32.74,1.2s21.74-7.46,29.41-14.39a24.14,24.14,0,0,0,2.68-2.67,18.48,18.48,0,0,0,2.43-3l2.33-3.31a16.82,16.82,0,0,0,2.14-3.44,62.63,62.63,0,0,0,6.37-15.36,110.8,110.8,0,0,0,3.11-35.54,171.86,171.86,0,0,0-2.24-18.62,167.91,167.91,0,0,0-4.06-18.06l-.2-.67a12.25,12.25,0,0,1,23.14-8" transform="translate(-994.74 -436.67)"/><path class="cls-3" d="M2828.84,2527.75a12.1,12.1,0,0,1-6.55-1.92c-2.47-1.56-60.34-39.14-60.34-106.87,0-66.32,48.39-112.55,50.44-114.49a12.26,12.26,0,1,1,16.79,17.86c-.41.39-42.72,41.12-42.72,96.63,0,54.06,48.52,85.89,49,86.21a12.26,12.26,0,0,1-6.62,22.58Z" transform="translate(-994.74 -436.67)"/><path class="cls-3" d="M2755,2594.92a12.22,12.22,0,0,1-7.75-2.77c-120.52-98.57-108.84-305.74-108.28-314.51a12.25,12.25,0,0,1,24.46,1.54c-.13,2-11.38,203.45,99.33,294a12.25,12.25,0,0,1-7.76,21.74Z" transform="translate(-994.74 -436.67)"/><path class="cls-3" d="M2682.71,2657.83a12.21,12.21,0,0,1-9.2-4.15c-126.68-143.68-115.87-315.22-115.34-322.45a12.26,12.26,0,0,1,24.45,1.76h0c-.12,1.67-10.39,168.76,109.27,304.48a12.26,12.26,0,0,1-9.18,20.36Z" transform="translate(-994.74 -436.67)"/><path class="cls-3" d="M2487.16,2783.25c-42.1,0-66.93-25.48-67.3-25.87a12.48,12.48,0,0,1-2.41-3.71l-230.29-552.79a12.25,12.25,0,0,1,.46-10.41l30.47-58a12.22,12.22,0,0,1,14.17-6.1c5.22,1.46,127.2,37.81,255.29,246.38l199.76-133.45c6.69-18.31,37-87.07,119.8-106.1,76.23-17.53,109.41,22.57,120.35,41.14a84.93,84.93,0,0,1,49,14c26.57,17.38,44.7,49,53.88,94,12.92,63.27,8.11,156.64-48,211.54-25.44,24.91-71.94,50.77-149.88,35-31.11,28.72-200.56,184.24-272.37,230.45C2532.28,2777.2,2507.67,2783.25,2487.16,2783.25Zm-48.07-41.37c7.84,7,46.52,36.21,107.79-3.22,75.74-48.75,271.68-230.32,273.65-232.15a12.26,12.26,0,0,1,11-3c57,12.91,102,3.74,133.68-27.26,45.9-44.94,53.72-127.37,41.11-189.13-20.24-99.16-81-88.37-83.54-87.87a12.4,12.4,0,0,1-14-7.84c-.77-2-20.58-51.76-96.22-34.39-79.59,18.28-102.36,90.55-103.29,93.61a12.33,12.33,0,0,1-4.93,6.67l-213.86,142.88a12.27,12.27,0,0,1-17.33-3.9c-105.08-175.81-207.77-230-238.42-242.92L2212,2196.77Z" transform="translate(-994.74 -436.67)"/><path class="cls-4" d="M2774.21,2419,2622.38,2952.9A43.78,43.78,0,0,1,2607.7,2975l-45,36.13a43.77,43.77,0,0,0-16.34,34.11v275.3a16.89,16.89,0,0,0,33.45,3.36l43.62-214.89a43.75,43.75,0,0,1,13.86-24.05l36.09-32a43.72,43.72,0,0,0,12.87-20.11L2841.52,2518s-57.81-9.36-67.31-99.06" transform="translate(-994.74 -436.67)"/><g class="cls-2"><path class="cls-3" d="M2796,2484.56c-10-14.68-18.57-35.64-21.74-65.6l-11,38.75c11.33,15.3,24,23.05,32.76,26.85" transform="translate(-994.74 -436.67)"/></g><g class="cls-2"><path class="cls-3" d="M2804.36,2495.2l-153.07,507.72a43.82,43.82,0,0,1-12.88,20.11l-36.08,32a43.77,43.77,0,0,0-13.87,24.05l-42.07,207.29v34.24a16.9,16.9,0,0,0,33.46,3.36l43.61-214.89a43.77,43.77,0,0,1,13.87-24.05l36.08-32a43.82,43.82,0,0,0,12.88-20.11L2841.53,2518s-19.12-3.12-37.17-22.82" transform="translate(-994.74 -436.67)"/></g><g class="cls-6"><path class="cls-1" d="M2839.86,2523.53l1.66-5.51a55.69,55.69,0,0,1-15.11-5.64,83.07,83.07,0,0,0,13.45,11.15" transform="translate(-994.74 -436.67)"/></g><g class="cls-6"><path class="cls-1" d="M2566.39,3335.59V3060.28a43.75,43.75,0,0,1,16.35-34.11l45-36.13a43.76,43.76,0,0,0,14.68-22.14l143-503c-5.16-12.31-9.22-27.39-11.19-46L2622.38,2952.9A43.76,43.76,0,0,1,2607.7,2975l-45,36.13a43.75,43.75,0,0,0-16.35,34.11v275.31a16.89,16.89,0,0,0,14.57,16.73,16.65,16.65,0,0,0,5.56-.21c0-.51-.13-1-.13-1.52" transform="translate(-994.74 -436.67)"/></g><path class="cls-3" d="M2563.29,3349.74a30.41,30.41,0,0,1-4-.28,29.27,29.27,0,0,1-25.14-28.87V3045.28a55.78,55.78,0,0,1,20.92-43.66l45-36.13a31.34,31.34,0,0,0,10.57-15.94l151.83-533.94a12.26,12.26,0,0,1,24,2.06c8.3,78.41,55.21,87.91,57.2,88.28a12.35,12.35,0,0,1,9.65,15.61L2698,3036.45a56.15,56.15,0,0,1-16.48,25.76l-36.09,32a31.74,31.74,0,0,0-10,17.32l-43.62,214.89A29.22,29.22,0,0,1,2563.29,3349.74Zm209.84-882.18-139,488.69a55.82,55.82,0,0,1-18.79,28.34l-45,36.13a31.38,31.38,0,0,0-11.76,24.56v275.31a4.64,4.64,0,0,0,9.18.92l43.62-214.9a56.39,56.39,0,0,1,17.75-30.79l36.08-32a31.57,31.57,0,0,0,9.27-14.49l151.78-503.43C2811.48,2519.58,2787.65,2504.09,2773.13,2467.56Z" transform="translate(-994.74 -436.67)"/><path class="cls-10" d="M1579.14,3279.16s428.29,130,882.67-25.91L2289.6,2796.14l-564.32,23.21Z" transform="translate(-994.74 -436.67)"/><g class="cls-2"><path class="cls-3" d="M2446.75,3213.3c-402,132.6-780.15,44.3-854.45,24.55l133-418.5,564.3-23.2Z" transform="translate(-994.74 -436.67)"/></g><path class="cls-3" d="M1981.22,3342.1c-48.51,0-93-2.12-132.11-5.22-163.3-13-272.45-45.66-273.53-46a12.26,12.26,0,0,1-8.12-15.44l146.14-459.81a12.25,12.25,0,0,1,11.18-8.53l564.31-23.22a12.33,12.33,0,0,1,12,7.93l172.2,457.11a12.24,12.24,0,0,1-7.49,15.92C2290.58,3325,2119.42,3342.1,1981.22,3342.1Zm-386.55-71.36c71.55,18.9,452.11,107.54,851.2-25l-164.62-437-546.89,22.5Z" transform="translate(-994.74 -436.67)"/><path class="cls-1" d="M2391.41,3536.4q-12.37.61-25.29.61c-73.41,0-120.72-6.33-150.67-13.36a86.74,86.74,0,0,1-60.91-52.77l-171.87-436.73s-92.2,414.5-149.48,471.77c-39.83,39.84-177.47,53.15-278.37,36.85h0c-44.25-7.14-81.42-20-100.22-38.76-53.68-53.73,42.74-135.92,42.74-135.92,14.42-129.92,31-359.59,38.56-468.91,2.62-37.71,4.17-61.12,4.17-61.12l17.28-309.67,116.23-298.27,35.87-92,460.49,20.58c18.34,12.14,31,15.83,41.26,28.69,26.84,33.47,41.39,53.11,41.39,53.11,58.75,173.71,90.94,356.73,106.67,468,9.18,64.84,12.74,105.28,12.74,105.28l107.77,527.13c169.29,98.5,79.34,187.39-88.32,195.48" transform="translate(-994.74 -436.67)"/><g class="cls-2"><path class="cls-3" d="M2391.41,3536.4q-12.37.61-25.29.61c-28.07,0-52.3-.93-73.21-2.45-76.19-26.31-100.54-65.53-100.54-65.53L1991.5,2981.74l2.77-16.47-28.1-3.14s-54.34,277.8-113.58,440.88c-25.94,71.5-60.13,111.86-90.32,134.62-59.77,13.81-141.48,15.81-207.45,5.14,3.71,0,201.2,1.06,251.16-317.3,48.94-311.46,3-346.56.16-348.44,6.13,1.76,181.6,52,434.76-13.72a367,367,0,0,1-31,52.32c-28.54,40.46-40.52,90.27-32.1,139.06,23,133.08,81.94,380.12,213.57,481.71" transform="translate(-994.74 -436.67)"/></g><path class="cls-3" d="M1897.86,2945.14a674.76,674.76,0,0,0,93,8.43c30.59.55,60.9-1.37,90.23-7.33a302.92,302.92,0,0,0,43.16-11.72,287.75,287.75,0,0,0,41.14-17.81c26.83-13.79,51.24-32.48,75.51-53.42a196.29,196.29,0,0,1-27.06,40c-5.19,6.33-11.19,11.84-17.1,17.56-3,2.82-6.28,5.26-9.42,7.92l-4.8,3.91c-1.64,1.25-3.36,2.37-5,3.56-26.85,19.25-58.4,32.15-90.81,38.29-32.44,6.44-65.7,6.4-97.77,1.62-32-5.08-63.36-14.32-91.36-30.17a.45.45,0,0,1-.18-.62.46.46,0,0,1,.47-.23Z" transform="translate(-994.74 -436.67)"/><path class="cls-3" d="M1982.69,3046.91a12.79,12.79,0,0,1-12.57-15l11.59-64.05a12.77,12.77,0,0,1,25.13,4.55l-11.6,64.06A12.78,12.78,0,0,1,1982.69,3046.91Z" transform="translate(-994.74 -436.67)"/><path class="cls-3" d="M1756.77,3239.44c-144.6,0-241.54-32-247-33.81a12.25,12.25,0,1,1,7.83-23.22c1.8.6,183.25,60.21,417.1,15.83a12.25,12.25,0,0,1,4.57,24.08A979,979,0,0,1,1756.77,3239.44Z" transform="translate(-994.74 -436.67)"/><path class="cls-3" d="M2181.78,3237.94c-81.75,0-129.81-14.6-133.38-15.72a12.26,12.26,0,0,1,7.36-23.39c1.8.56,156,46.84,387-31a12.25,12.25,0,0,1,7.82,23.22C2341.73,3227.77,2250,3237.94,2181.78,3237.94Z" transform="translate(-994.74 -436.67)"/><path class="cls-3" d="M1490.46,3357.91c1.9-1.24,3-1.81,4.39-2.6l4-2c2.6-1.28,5.23-2.41,7.87-3.45,5.27-2,10.56-3.86,15.9-5.34a207,207,0,0,1,32.27-6.34,275.07,275.07,0,0,1,32.39-1.66c5.39-.14,10.73.37,16.09.53,5.43.42,11.06,1.11,16.53,1.81a158.56,158.56,0,0,1,31.79,9,155.41,155.41,0,0,1,29,14.86c18,11.91,33.82,26.91,45,45a.46.46,0,0,1-.14.61.44.44,0,0,1-.5,0l0,0a278.16,278.16,0,0,0-51.54-32.78c-17.94-8.73-36.94-14.62-56.2-16.45-4.85-.24-9.57-.53-14.49-.58-5,.17-10,.1-15,.46a291.39,291.39,0,0,0-29.66,2.92,237.9,237.9,0,0,0-28.62,6.32c-4.65,1.33-9.17,2.94-13.55,4.68q-3.27,1.35-6.39,2.77l-3,1.47-2.35,1.29-1.08.59a12.23,12.23,0,0,1-12.59-20.94" transform="translate(-994.74 -436.67)"/><path class="cls-3" d="M2478,3353c-5.09-.63-11.16-1.29-16.86-1.58s-11.61-.59-17.46-.66a293.32,293.32,0,0,0-35,2c-11.7,1.19-23.15,3.77-34.61,6.74s-22.6,7.2-34.17,11.66l0,0a.82.82,0,0,1-1.06-.48.8.8,0,0,1,.2-.89,124.29,124.29,0,0,1,30.71-21.63,179.18,179.18,0,0,1,35.59-13.13,226.3,226.3,0,0,1,37.49-6.38c6.33-.51,12.68-1,19.07-.89a161.44,161.44,0,0,1,19.57,1,12.26,12.26,0,1,1-2.82,24.35l-.09,0Z" transform="translate(-994.74 -436.67)"/><path class="cls-3" d="M2255.05,2239.65c9,22.79,18.25,45.59,25.73,68.95,4,11.61,7.86,23.26,11.54,35l10.32,35.33c13.14,47.27,25.05,94.91,35.22,142.92s19.38,96.22,27,144.71,14.32,97,19.34,146.16l-.2-1.37,54,263.55,27,131.77,26.33,131.9-5.6-7.8h0c20,11.86,39.73,24.81,57.36,41.24a168.84,168.84,0,0,1,24.19,27.7c6.86,10.56,12.59,22.74,14.32,36.47a64.13,64.13,0,0,1-8.09,40.06c-6.77,11.85-16.29,21-26.32,28.36-20.26,14.74-42.85,23.51-65.56,29.91-45.5,12.77-92.77,15.11-138.56,14.05-23-.44-46-1.57-69-3.8-11.51-1.14-23-2.57-34.53-4.41-5.76-1-11.51-2-17.26-3.15l-8.62-1.88c-3-.75-6.23-1.52-9.24-2.6a98.3,98.3,0,0,1-57.06-49.32c-1.5-2.81-2.73-5.93-3.92-8.75l-3.12-7.93-6.25-15.86-12.48-31.72-49.93-126.88-99.86-253.78,22.43-1.76c-19.54,85.86-40.75,171.1-64.81,255.84-12.16,42.33-24.93,84.53-40,126.24-7.63,20.85-15.69,41.58-25.9,62-5.16,10.21-10.61,20.31-19.13,30.29-8.8,10-19.77,16.48-30.35,21.65a201.56,201.56,0,0,1-32.66,12.11c-11,3.28-22.06,5.55-33.14,7.75a547.84,547.84,0,0,1-66.82,7.72c-44.63,2.44-89.43.72-133.86-6.86-22.2-3.83-44.34-9.39-65.92-18.49-10.71-4.83-21.37-10.55-31.06-18.88s-18-19.43-21.5-32.69c-3.83-13.15-2.61-26.82.67-38.79a128.77,128.77,0,0,1,14.94-32.88,216.76,216.76,0,0,1,20.73-27.9,260.7,260.7,0,0,1,24.35-24.66l-4.06,7.66c7.52-69.52,13.55-139.38,19.22-209.25s10.87-139.82,15.84-209.77l7.24-104.94,5.92-105,11.73-210.13a12,12,0,0,1,.79-3.61l152.1-390.25a11.81,11.81,0,0,1,11-7.49h470.33a11.77,11.77,0,1,1,0,23.53H1709.41l11-7.49-152.11,390.24.78-3.61-11.73,210.19-5.93,105.16-7.25,105q-7.45,105-15.86,210c-5.68,70-11.72,139.94-19.28,209.94a11.67,11.67,0,0,1-3.81,7.43l-.25.23c-15.13,13.54-29.63,29.83-40.33,47s-17.68,36.76-13,52.94c2.07,8.09,7.38,15.32,14.3,21.3s15.76,10.9,25,15.06c18.88,8,39.55,13.29,60.56,16.88,42.09,7.2,85.55,8.91,128.48,6.55a526.17,526.17,0,0,0,63.86-7.36c10.43-2.08,20.87-4.22,30.91-7.23a178.31,178.31,0,0,0,29-10.7c9-4.4,17.31-9.5,23-16.08s11.1-15.93,15.73-25.29c9.43-18.84,17.35-39.07,24.78-59.41,14.79-40.8,27.46-82.65,39.53-124.65,23.87-84.09,45.06-169.22,64.46-254.48v-.06a11.77,11.77,0,0,1,22.42-1.7l99.86,253.78,49.94,126.89,12.48,31.72,6.24,15.86,3.12,7.93c1,2.41,1.87,4.6,3,6.8a74.8,74.8,0,0,0,43.43,37.55c2.34.85,4.64,1.35,7.16,2l8,1.75c5.37,1.12,10.82,2.06,16.27,3,10.93,1.75,22,3.12,33.09,4.22,22.22,2.16,44.66,3.27,67.14,3.69s44.74.27,66.83-1.75,43.93-5.49,64.93-11.43,41.34-14,57.9-26.16c8.23-6,15.37-13.12,19.89-21.11a40.37,40.37,0,0,0,5.17-25.53c-1.1-8.88-5.09-17.87-10.56-26.31a146.39,146.39,0,0,0-20.62-23.5c-15.64-14.62-34.14-26.9-53.18-38.13h0l-.12-.07a11.94,11.94,0,0,1-5.49-7.74l-27.54-131.66-26.91-131.79-53.79-263.58c-.08-.43-.15-.86-.19-1.29v-.09c-4.54-48.13-10.81-96.63-18-144.75L2336,2634l-6.08-36c-1.92-12-4.24-24-6.34-36s-4.37-24-6.76-35.91-4.56-23.93-7.07-35.85l-7.47-35.77c-2.48-11.92-5.37-23.75-8-35.64s-5.43-23.75-8.39-35.56c-11-47.5-23.93-94.44-35.84-141.94l0-.08a2.64,2.64,0,0,1,5-1.61" transform="translate(-994.74 -436.67)"/><path class="cls-10" d="M2477.2,3176.1c-2.7,65.25-8.35,103.05-8.35,103.05C2356.6,2941,2073,2259.75,2073,2259.75c72.8-32.1,81.55-100,81.55-100,65.8-13.5,119.6,108.3,119.6,108.3,4.8,8.95,9.5,17.85,14.05,26.8v.05c183.2,357.25,196,711.75,189,881.2" transform="translate(-994.74 -436.67)"/><g class="cls-2"><path class="cls-3" d="M2477.2,3176.1c-47.55-125.45-93.9-248.25-93.9-248.25,42-278.45-93.2-628-95.15-632.95,183.2,357.25,196,711.75,189,881.2" transform="translate(-994.74 -436.67)"/></g><path class="cls-3" d="M2166.66,2161.31a90.67,90.67,0,0,1-2,9.68c-.74,3-1.69,5.94-2.61,8.87a154.9,154.9,0,0,1-6.85,17,149.12,149.12,0,0,1-46,55.86c-4.75,3.85-10,6.81-15.18,10s-10.75,5.5-16.12,8.26l6.37-15.93q52.45,126.39,103.66,253.16t101.47,254q50.14,127.26,98.51,255.27c32,85.43,63.64,171,92.58,257.79l-23.75,2h0c5.44-42.06,7.73-85.65,8.84-128.7s.11-86.43-1.76-129.62-5.49-86.31-10.38-129.28-11.65-85.71-19.36-128.27-17.3-84.76-27.89-126.7l-8.4-31.34c-2.72-10.47-6.06-20.76-9.06-31.15-5.92-20.82-13-41.27-19.63-61.86-14.16-40.88-29.46-81.38-46.42-121.21-16.33-40.13-34.45-79.45-51.71-119.46l0,0a3.58,3.58,0,0,1,6.32-3.33c46.79,74,81.53,155,111,237.4,7,20.73,14.42,41.35,20.67,62.34,3.17,10.47,6.68,20.86,9.58,31.41l8.92,31.61c11.26,42.32,21.65,84.9,29.89,127.93s15.08,86.32,20.45,129.79q7.76,65.26,11.18,130.94c2.32,43.76,2.73,87.62,1.64,131.46-1.32,43.94-3.69,87.42-9.57,131.7h0a12.24,12.24,0,0,1-23.72,2.15l0-.1c-28.75-86.19-60.29-171.63-92.26-256.88s-65-170.16-98.38-254.92-67.19-169.37-101.39-253.82-68.65-168.83-103.56-252.94a12.24,12.24,0,0,1,5.57-15.5l.8-.43c4.57-2.39,9.35-4.41,13.75-7.05s8.85-5.21,12.8-8.46a124.61,124.61,0,0,0,38.48-46.73,131.54,131.54,0,0,0,5.73-14.14c.74-2.41,1.54-4.83,2.12-7.24s1.18-5,1.46-6.73l.13-.8a12.25,12.25,0,0,1,24.18,3.93" transform="translate(-994.74 -436.67)"/><path class="cls-10" d="M2038.55,2287.1S1753.9,2760,1596.05,3349.25c0,0-219.25-72.8-360-177-32.4-24-41.2-68.75-21-103.6,36-62,92.3-160.9,124.45-226.7l7.25-12.2L1485,2596.9l272.25-458.8s95.15,102.65,281.35,149" transform="translate(-994.74 -436.67)"/><g class="cls-2"><path class="cls-3" d="M1610.29,2675.3l-24.64,62.1c15.55,26.1,50.95,98.6-16.8,177.4s-171.2,40-171.2,40l-50.85-125.1L1485,2596.9l44.7-33.35h292.2l14.25,57.4H1690.33a86.11,86.11,0,0,0-80,54.35" transform="translate(-994.74 -436.67)"/></g><g class="cls-6"><path class="cls-1" d="M1235.1,3098.65c36-62,92.3-160.9,124.45-226.7l7.25-12.2L1505,2626.9l272.25-458.8s84.16,90.75,249,140.12c8-13.84,12.34-21.12,12.34-21.12-186.2-46.35-281.35-149-281.35-149L1485,2596.9,1346.8,2829.75l-7.25,12.2c-32.15,65.8-88.45,164.7-124.45,226.7a79.45,79.45,0,0,0,14.22,97.94,79.78,79.78,0,0,1,5.78-67.94" transform="translate(-994.74 -436.67)"/></g><g class="cls-2"><path class="cls-3" d="M1909.34,2241.1c-100.84-47.74-152.14-103-152.14-103l-14.81,25c39.94,26.2,95.68,55.89,166.95,78" transform="translate(-994.74 -436.67)"/></g><path class="cls-3" d="M1596,3361.52a12.15,12.15,0,0,1-3.86-.63c-9-3-222.73-74.64-363.42-178.81-37.36-27.66-47.79-79.06-24.28-119.56,32.23-55.53,91.22-158.73,124.07-226,.14-.3.3-.59.47-.88l417.62-703.81a12.26,12.26,0,0,1,19.52-2.09h0c.93,1,95.28,100.61,275.33,145.41a12.25,12.25,0,0,1,7.54,18.22c-2.84,4.71-285.58,478.27-441.15,1059a12.28,12.28,0,0,1-11.84,9.09Zm-245.69-513.76c-31.55,64.51-85.19,159-124.68,227.06-17.23,29.7-9.64,67.34,17.68,87.56,118.62,87.84,296.33,154,344.28,171,142-522.43,384.46-956,432.15-1038.52-143.55-39.11-230.23-109.53-260-137.07Z" transform="translate(-994.74 -436.67)"/><rect class="cls-5" x="590.89" y="2019.63" width="250.45" height="131.78"/><g class="cls-2"><rect class="cls-3" x="590.88" y="2086.04" width="250.47" height="40.85"/></g><path class="cls-3" d="M1836.09,2599.76H1585.64a11.69,11.69,0,0,1-11.69-11.69V2456.29a11.69,11.69,0,0,1,11.69-11.69h250.45a11.7,11.7,0,0,1,11.69,11.69v131.78A11.69,11.69,0,0,1,1836.09,2599.76Zm-238.77-23.38H1824.4V2468H1597.32Z" transform="translate(-994.74 -436.67)"/><path class="cls-5" d="M2339.93,2384.71V2623.5a41.75,41.75,0,0,1-41.75,41.75H1847.73A41.75,41.75,0,0,1,1806,2623.5V2384.71a41.75,41.75,0,0,1,41.75-41.75h450.45a41.75,41.75,0,0,1,41.75,41.75" transform="translate(-994.74 -436.67)"/><g class="cls-2"><path class="cls-3" d="M2339.93,2522.18v72.72a41.75,41.75,0,0,1-41.75,41.75h-450.6a17.32,17.32,0,0,1-17.09-17.08V2501.1C1846,2515,1868.61,2526,1897.7,2516l6.33-21.37s63.12,86.17,243.69,100.71,192.21-73.17,192.21-73.17" transform="translate(-994.74 -436.67)"/></g><path class="cls-3" d="M1945.79,2677.5a54.05,54.05,0,0,1-54-54V2384.7a54.06,54.06,0,0,1,54-54,12.26,12.26,0,1,1,0,24.51,29.52,29.52,0,0,0-29.49,29.49v238.81a29.52,29.52,0,0,0,29.49,29.48,12.26,12.26,0,1,1,0,24.51Z" transform="translate(-994.74 -436.67)"/><path class="cls-3" d="M2154.5,2677.5a12.25,12.25,0,0,1-12.25-12.25V2549.06l-80.53-60.39a12.29,12.29,0,0,1-4.9-9.81V2343a12.26,12.26,0,0,1,24.51,0v129.78l80.53,60.4a12.27,12.27,0,0,1,4.9,9.8v122.32A12.25,12.25,0,0,1,2154.5,2677.5Z" transform="translate(-994.74 -436.67)"/><path class="cls-3" d="M2298.18,2677.5H1847.74a54.06,54.06,0,0,1-54-54V2384.7a54.07,54.07,0,0,1,54-54h450.44a54.07,54.07,0,0,1,54,54v238.81A54.06,54.06,0,0,1,2298.18,2677.5Zm-450.44-322.29a29.52,29.52,0,0,0-29.48,29.49v238.81a29.51,29.51,0,0,0,29.48,29.48h450.44a29.52,29.52,0,0,0,29.49-29.48V2384.7a29.52,29.52,0,0,0-29.49-29.49Z" transform="translate(-994.74 -436.67)"/><path class="cls-7" d="M2242.05,2523.74a42.31,42.31,0,0,0,21.73,6.08h-43.47c-29.49,0-53.39-31.29-53.39-69.9s23.9-69.9,53.39-69.9h43.47a42.32,42.32,0,0,0-21.73,6.09c-18.63,10.87-31.66,35.34-31.66,63.81s13,52.95,31.66,63.82" transform="translate(-994.74 -436.67)"/><g class="cls-11"><path class="cls-3" d="M2212.64,2480c-19.5-3.69-35.56-21.12-42.28-44.59a88.93,88.93,0,0,0-3.44,24.51c0,38.61,23.9,69.9,53.39,69.9h43.47a42.31,42.31,0,0,1-21.73-6.08c-14.07-8.21-24.93-24.17-29.41-43.74" transform="translate(-994.74 -436.67)"/></g><g class="cls-6"><path class="cls-1" d="M2220.31,2418.62h.45c5.46-9.72,12.78-17.55,21.29-22.51a42.32,42.32,0,0,1,21.73-6.09h-43.47c-29.49,0-53.39,31.29-53.39,69.9a91.61,91.61,0,0,0,1.12,14.3c5.05-31.75,26.52-55.6,52.27-55.6" transform="translate(-994.74 -436.67)"/></g><path class="cls-3" d="M2263.78,2542.07h-43.47c-36.2,0-65.64-36.85-65.64-82.15s29.44-82.16,65.64-82.16h43.47a12.26,12.26,0,1,1,0,24.51,30,30,0,0,0-15.48,4.38c-15.62,9.11-25.66,30-25.66,53.27s10,44.16,25.58,53.23l.08,0a30,30,0,0,0,15.48,4.37,12.26,12.26,0,1,1,0,24.51Zm-47-139.59c-21.06,2.49-37.64,27.3-37.64,57.44s16.58,54.94,37.63,57.44c-11.74-15.1-18.68-35.65-18.68-57.44S2205.08,2417.57,2216.82,2402.48Z" transform="translate(-994.74 -436.67)"/><path class="cls-7" d="M2317.17,2459.92c0,38.61-23.89,69.9-53.39,69.9a42.31,42.31,0,0,1-21.73-6.08c-18.63-10.87-31.66-35.35-31.66-63.82s13-52.94,31.66-63.81a42.32,42.32,0,0,1,21.73-6.09c29.5,0,53.39,31.29,53.39,69.9" transform="translate(-994.74 -436.67)"/><g class="cls-11"><path class="cls-3" d="M2317.17,2459.92c0,34-18.58,62.39-43.22,68.59a43.48,43.48,0,0,1-11.48-4.77c-17.28-10.1-29.74-31.87-31.42-57.69a52.3,52.3,0,0,0,11,8.66,42.32,42.32,0,0,0,21.73,6.09c22.88,0,42.36-18.88,50-45.39a89.75,89.75,0,0,1,3.43,24.51" transform="translate(-994.74 -436.67)"/></g><g class="cls-6"><path class="cls-1" d="M2238,2428.79a42.35,42.35,0,0,1,21.73-6.09c28.15,0,51.15,28.52,53.19,64.68a88.36,88.36,0,0,0,4.29-27.46c0-38.61-23.9-69.9-53.39-69.9a42.36,42.36,0,0,0-21.74,6.09c-18.62,10.87-31.66,35.33-31.66,63.81,0,1.83.06,3.65.17,5.45,5.28-16.27,15.11-29.4,27.41-36.58" transform="translate(-994.74 -436.67)"/></g><path class="cls-3" d="M2263.78,2542.07a54.26,54.26,0,0,1-28-7.79c-22.85-13.33-37.67-42.54-37.67-74.36s14.82-61,37.74-74.4a54.17,54.17,0,0,1,27.91-7.75c36.2,0,65.65,36.85,65.65,82.15S2300,2542.07,2263.78,2542.07Zm0-139.79a30,30,0,0,0-15.48,4.37c-15.62,9.11-25.66,30-25.66,53.27s10,44.16,25.59,53.23a30.13,30.13,0,0,0,15.55,4.41c22.68,0,41.14-25.86,41.14-57.64S2286.46,2402.28,2263.78,2402.28Z" transform="translate(-994.74 -436.67)"/><path class="cls-1" d="M1819.59,2176.56,1773,2263.37l-63.57,118.4c-77.17,132.53-163.08,354.85-163.08,354.85,34.07,62.26,24.79,121.54-10.46,162.55-42.24,49.15-121.75,72.15-208.76,42.73-1.84-.61-3.68-1.26-5.52-1.91-181.43-65.74-88.32-317.48,16.51-505.77,64.8-116.43,141.63-228.4,190.82-297,30.4-42.32,50.25-68.06,50.25-68.06l154.34,68.92Z" transform="translate(-994.74 -436.67)"/><g class="cls-2"><path class="cls-3" d="M1546.32,2736.62c74.84,136.77-59.53,259.26-219.22,205.29-92.25-56-74.43-156.26-74.43-156.26,19.4,105.8,120.06,108.66,189.31,68.91,71.65-41.17,12.58-87.38,128.11-320.37,69.45-140.08,139.31-152.42,139.31-152.42-77.17,132.53-163.08,354.85-163.08,354.85" transform="translate(-994.74 -436.67)"/></g><path class="cls-3" d="M1432.74,2876.88a44.75,44.75,0,0,1,9.89-19.38,56.77,56.77,0,0,1,17.71-14.27,62.5,62.5,0,0,1,10.83-4.39,37.52,37.52,0,0,1,5.68-1.44,29.34,29.34,0,0,1,6.15-.92,60.38,60.38,0,0,1,7.12,0c2.4.4,4.82.89,7.23,1.45a68,68,0,0,1,6.76,2.93c2.26,1,4,2.64,6,4,7.4,6.06,12.13,13.84,15.37,21.68a74.67,74.67,0,0,1,4.5,24.39,72.38,72.38,0,0,1-4.44,24.39,57.18,57.18,0,0,1-14.54,21.21,12.23,12.23,0,0,1-18.23-16.07l.9-1.27a51.16,51.16,0,0,0,6.59-12.93,58.79,58.79,0,0,0,2.21-15.3,53.81,53.81,0,0,0-2.23-15.3,30.31,30.31,0,0,0-6.6-11.72c-2.76-2.86-5.74-4.66-10-4.85a16.68,16.68,0,0,0-3.9-.09,34,34,0,0,0-4.28.26,72.15,72.15,0,0,0-8.57,1.22c-11.43,2.37-23,7.64-34.17,16.39" transform="translate(-994.74 -436.67)"/><path class="cls-3" d="M1588.85,2076.68a3485.62,3485.62,0,0,0-198.37,291.75c-30.36,50.36-59.24,101.51-84.45,154.31s-47.32,107.14-61.52,163.25c-7,28-12.14,56.48-13.23,84.84a257.08,257.08,0,0,0,1.79,42.07c2.14,13.69,5,27.28,10.29,39.82s11.9,24.32,20.62,34.54a133.17,133.17,0,0,0,30.63,26.15c2.72,2,6,3.36,8.92,5,3.08,1.51,5.93,3.41,9.19,4.62,6.44,2.56,12.63,5.51,19.46,7.5a227.35,227.35,0,0,0,40.9,9.79,197.56,197.56,0,0,0,41.7,1.9,177.38,177.38,0,0,0,40.84-6.86c26.38-7.76,50.87-22,68.92-42a117.65,117.65,0,0,0,30.55-72.54c1.78-26.88-6.5-53.93-19.52-78.31h0l-.2-.41a12.35,12.35,0,0,1-.48-9.89c11.76-30.62,24.27-60.71,37.07-90.78,13-30,26.2-59.84,39.94-89.48,14-29.53,28.29-58.94,43.32-88,15.46-28.79,29.31-58.71,51-84a3.7,3.7,0,0,1,6.3,3.62l0,0c-10.81,31.16-27,59-40.58,88.59-13.85,29.32-27,59-39.82,88.83q-19.5,44.61-37.88,89.74c-12.4,30-24.58,60.19-36.51,90.25l-.68-10.3h0c14.7,27.43,24.57,59,22.49,91.45-1.63,32.29-15.17,63.84-36.8,87.55-21.53,23.94-50.11,40.33-80.27,49.19a202.05,202.05,0,0,1-46.31,7.81,222,222,0,0,1-46.61-2.12,251.29,251.29,0,0,1-45.12-10.79c-7.37-2.16-14.59-5.5-21.85-8.43-3.66-1.4-7-3.56-10.58-5.31-3.46-1.93-7.1-3.49-10.35-5.85-13.64-8.25-25.8-19.07-36.42-31.15-10.48-12.3-18.45-26.48-24.62-41.17s-9.47-30.28-11.85-45.7a280.14,280.14,0,0,1-2-46.32c1.19-30.7,6.69-60.66,14-89.9,14.83-58.49,37.64-114,63.18-167.81s55-105.64,85.57-156.42,62.94-100.52,96.26-149.52,67.69-97.14,103.69-144.53a12.25,12.25,0,0,1,19.51,14.83Z" transform="translate(-994.74 -436.67)"/><path class="cls-10" d="M1821.85,2181.6,1718,2373.2c-32.2,55-88.1,168-120.9,242.8-19.2,43.8-33.4,77.5-36.65,85.2-.25.6-.5,1.15-.7,1.7,0,0-21.15-2.3-53.25-9.7-64.55-14.85-173.25-50.4-242.35-129.6,0,0,18-34.25,48.4-88l0-.05c58.3-103,162.25-277.55,273.25-420.7Z" transform="translate(-994.74 -436.67)"/><path class="cls-5" d="M1597.05,2616c-22,50.05-37.35,86.9-37.35,86.9s-192.2-20.75-295.6-139.3c0,0,18-34.25,48.4-88l0-.05s76.6,115.75,283.5,140.1a7.84,7.84,0,0,1,1,.4" transform="translate(-994.74 -436.67)"/><g class="cls-2"><path class="cls-3" d="M1709.4,2381.75c-58.25,100.1-121.55,251.4-149,319.45-.25.6-.5,1.15-.7,1.7,0,0-21.15-2.3-53.25-9.7,11.6-40.4,30.4-92,63.65-159,69.45-140.1,139.3-152.45,139.3-152.45" transform="translate(-994.74 -436.67)"/></g><g class="cls-6"><path class="cls-1" d="M1289.35,2589.2s189.51-334.94,268.82-436.9l-30.3-19.08L1264.1,2563.6Z" transform="translate(-994.74 -436.67)"/></g><path class="cls-3" d="M1596.05,2627.85a14.25,14.25,0,0,1-1.45-.08c-210.11-24.74-289-140.58-292.26-145.5a12.26,12.26,0,0,1,20.43-13.55c.81,1.22,76.71,111.39,274.7,134.7a12.26,12.26,0,0,1-1.42,24.43Z" transform="translate(-994.74 -436.67)"/><path class="cls-3" d="M1595.48,2062.31q-45.51,59.47-87.93,121.39c-28.08,41.4-55.59,83.22-82,125.76s-52.32,85.41-77.46,128.74-49.69,87.08-73.12,131.1l-1.62-13.75a318.72,318.72,0,0,0,60.23,52.64,436.55,436.55,0,0,0,71,38.83,576.67,576.67,0,0,0,76.88,27.17c26.12,7.23,53.27,13.15,79.55,16.51h0l-12.63,7.45q16.69-41.25,34.78-81.72l18.18-40.5,19-40.17c12.81-26.7,25.6-53.42,39.57-79.61s28.88-52,46.46-76.18a3.58,3.58,0,0,1,6.16,3.57l0,0c-12.1,26.88-23.62,54-35.55,80.89s-24.11,53.72-35.73,80.81l-35,81.21c-11.54,27.12-23.38,54.17-35.15,81.13l-.17.37a12,12,0,0,1-12.45,7.09c-28.84-3.69-56.1-9.73-83.51-17.27a600,600,0,0,1-80.13-28.32,462.07,462.07,0,0,1-75-41,343.28,343.28,0,0,1-64.9-56.78,12.19,12.19,0,0,1-1.61-13.75c23.76-44.64,48.37-88.42,73.62-132s51.23-86.68,77.87-129.42,54.27-84.89,82.56-126.6,58.09-82.47,88.79-122.59a12.26,12.26,0,0,1,19.47,14.9Z" transform="translate(-994.74 -436.67)"/><g class="cls-2"><path class="cls-3" d="M2296,2171.53c-20.95,20.27-29,43.23-53.46,72.34-13.71,16.29-52.5,52.16-71.29,62.38-79.5,43.22-204,26.63-300.89,26.63a558.93,558.93,0,0,1-371.44-140.62c30.4-42.32,50.25-68.06,50.25-68.06l154.35,68.92H2117.8l101.6-49.63s50.69,4.88,76.59,28" transform="translate(-994.74 -436.67)"/></g><path class="cls-5" d="M1534.9,2054.8s-32,33.86-15.73,77.53c15,40.25,260,202.27,532.66,178.22,180.64-16,224-199.56,224-199.56s-377.37,262-740.88-56.19" transform="translate(-994.74 -436.67)"/><g class="cls-2"><path class="cls-3" d="M2056.83,2275.55c-272.67,24.06-517.67-138-532.66-178.23a72.26,72.26,0,0,1-4.14-17.78c-5.41,13.72-8.55,32.13-.86,52.78,15,40.26,260,202.29,532.66,178.23,180.64-15.94,224-199.56,224-199.56s-3.38,2.35-9.79,6.32c-24.44,55.13-83.61,147.16-209.16,158.24" transform="translate(-994.74 -436.67)"/></g><path class="cls-3" d="M1995.33,2325.06c-265.34,0-472.84-145.43-487.75-188.74-18.6-54.06,17.35-89,18.89-90.42l8.1-7.67,8.4,7.35c147.53,129.13,314.26,177.83,495.53,144.75,135.81-24.78,229.37-88.77,230.3-89.41l26.13-18.1-7.22,31c-.45,1.93-47.39,193.89-234.9,209C2033.4,2324.33,2014.2,2325.06,1995.33,2325.06Zm-458.76-252.65c-6.69,10.58-14.67,30.18-5.81,55.93,11.13,32.33,232.8,193.12,520.09,170,127.3-10.25,182.58-108.33,202.93-159.56-38.61,21.72-113.29,57.71-209.9,75.49C1915.9,2237.83,1724.9,2231.82,1536.57,2072.41Z" transform="translate(-994.74 -436.67)"/><path class="cls-5" d="M1947.79,2306.25a96.56,96.56,0,1,0,96.56-96.55,96.56,96.56,0,0,0-96.56,96.55" transform="translate(-994.74 -436.67)"/><g class="cls-2"><path class="cls-3" d="M1961.05,2293a90.44,90.44,0,1,0,178.21,31,89.29,89.29,0,0,1-140.39-102.9,68.47,68.47,0,0,0-37.82,71.92" transform="translate(-994.74 -436.67)"/></g><path class="cls-7" d="M1989.35,2306.25c0,34.45,26.43,62.38,59,62.38s59-27.93,59-62.38-26.43-62.38-59-62.38-59,27.93-59,62.38" transform="translate(-994.74 -436.67)"/><g class="cls-6"><path class="cls-1" d="M2134.26,2322.84a96.55,96.55,0,0,0-182.51-44,96.55,96.55,0,1,1,178.55,71.32,96.22,96.22,0,0,0,4-27.36" transform="translate(-994.74 -436.67)"/></g><g class="cls-2"><path class="cls-3" d="M2097.47,2320.89c0-31.55-24.2-57.12-54.06-57.12-27.56,0-50.26,21.81-53.59,50a66.37,66.37,0,0,1-.47-7.5c0-34.45,26.43-62.38,59-62.38s59,27.93,59,62.38a63.88,63.88,0,0,1-18.34,45.12,59.14,59.14,0,0,0,8.39-30.48" transform="translate(-994.74 -436.67)"/></g><g class="cls-12"><path class="cls-1" d="M2085.47,2314c5.41-29.4-34.35-55.64-58.38-36.47a4.78,4.78,0,0,0-.54,6.73c18.81,8.71,35,15.4,48.32,32,2.87,4.14,9.77,2.67,10.6-2.29" transform="translate(-994.74 -436.67)"/></g><path class="cls-3" d="M2048.38,2376.3c-36.78,0-66.7-31.42-66.7-70.05s29.92-70.05,66.7-70.05,66.71,31.42,66.71,70.05S2085.16,2376.3,2048.38,2376.3Zm0-124.77c-28.32,0-51.36,24.55-51.36,54.72s23,54.72,51.36,54.72,51.37-24.55,51.37-54.72S2076.71,2251.53,2048.38,2251.53Z" transform="translate(-994.74 -436.67)"/><path class="cls-3" d="M2044.35,2412.2a106,106,0,1,1,105.94-105.95A106.07,106.07,0,0,1,2044.35,2412.2Zm0-193.11a87.16,87.16,0,1,0,87.15,87.16A87.26,87.26,0,0,0,2044.35,2219.09Z" transform="translate(-994.74 -436.67)"/><g class="cls-12"><path class="cls-1" d="M2998.08,1667.36c-26.34-37.33,14-107.11,60.57-99.52,3.95.78,6.2,4.86,5,9.11-21.44,27.75-40.44,50.5-49,85-1.49,8.23-12.32,11.78-16.64,5.41" transform="translate(-994.74 -436.67)"/></g><path class="cls-13" d="M1718.29,1355.25s-51.28-171.09-175.12-159.84c-99.82,9.06-168,93.36-136.52,187.89,40.52,121.61,165.91,129.35,165.91,129.35" transform="translate(-994.74 -436.67)"/><g class="cls-14"><path class="cls-1" d="M1403.1,1371c-1.2-78.36,62.86-141.57,150.13-149.48,72-6.53,120.48,46.18,149.18,94-23.53-49.8-74.33-127.84-159.25-120.13C1447.69,1204.07,1381.13,1281.59,1403.1,1371Z" transform="translate(-994.74 -436.67)"/></g><path class="cls-15" d="M1535.65,1516.9a11.34,11.34,0,0,1-3.29-.48c-38.78-11.48-108.1-43.57-136.71-129.45-15-45.07-9.65-90.75,15.12-128.62,27.65-42.27,75.53-69.42,131.35-74.49,103-9.33,158.7,96.64,177.88,142.64a11.6,11.6,0,0,1-21.41,8.92c-17.21-41.28-66.69-136.43-154.37-128.47-48.73,4.43-90.3,27.79-114,64.09-20.81,31.82-25.26,70.39-12.52,108.6,24,72.1,79.22,102.09,121.29,114.55a11.59,11.59,0,0,1-3.29,22.71Z" transform="translate(-994.74 -436.67)"/><path class="cls-1" d="M2025.19,2211.16c186.41-16.75,478.31-73,454.89-369.36-11.67-147.78-53.28-322.18-178.51-459.15-36.73-40.17-104.54-110.88-279.4-144.53-148.59-28.37-88.33-100.28-128.79-123.78-39.2-22.77-112.37,23.87-98.18,126.89-58.15,3.73-71.71-83.37-126-58.65-36.71,16.73-48.54,88.71-11.66,133.8-39.64,23.27-64.24,49.26-64.24,49.26-113.12,96.66-123.3,233.29-148,338.62-17.27,73.77-52.16,144.07-38.27,234.86C1441.11,2161.42,1784.31,2232.8,2025.19,2211.16Z" transform="translate(-994.74 -436.67)"/><g class="cls-16"><path class="cls-15" d="M2479.91,1907.71c-21.91,239.12-283,288-454.71,303.44-230.25,20.7-554-43.61-611.79-243.44,121.14,140.69,397.62,185.89,604,167.33C2175.07,2120.87,2403.17,2080.34,2479.91,1907.71Z" transform="translate(-994.74 -436.67)"/></g><path class="cls-15" d="M1940.84,2226.45c-107.56,0-217.39-17.2-306.17-48.92-140.36-50.14-223-132-239-236.66-10.75-70.33,6.49-128.15,23.17-184.06,5.65-18.93,11-36.82,15.28-55.2,3.86-16.47,7.33-33.55,11-51.64,19.86-97.9,42.36-208.83,140.29-292.77,3.32-3.44,23.6-23.81,55.54-44.21-15.9-25.46-21.43-58.16-14.41-88.3,5.85-25.15,19.68-44.34,37.93-52.66,36.2-16.49,59.24,7.73,77.76,27.2,12.51,13.15,24.46,25.72,40.07,29.43-3.49-51.75,14.07-95.32,48.31-118.27,22.64-15.19,48.94-17.51,68.63-6.07,18.26,10.6,21.31,28.63,24,44.54,4.8,28.37,10.24,60.52,101.15,77.87,182.47,35.12,252.25,111.43,285.78,148.1,105.09,114.94,166.16,271.74,181.51,466.05,10.66,134.89-41.35,236-154.58,300.53-99.64,56.79-225.12,73.59-310.83,81.29l-1-11.54,1,11.54C1998.23,2225.22,1969.61,2226.45,1940.84,2226.45ZM1687.76,1189.76a33.09,33.09,0,0,0-13.72,3.37c-11.48,5.23-20.81,19-25,36.82-5.06,21.72-3.13,53.91,17.46,79.09a11.6,11.6,0,0,1-3.1,17.34c-37.6,22.07-61.46,47-61.69,47.23a11.55,11.55,0,0,1-.88.84c-92.22,78.8-113.92,185.76-133.07,280.13-3.71,18.26-7.21,35.51-11.14,52.32-4.46,19-10.15,38.11-15.64,56.54-16,53.46-32.44,108.74-22.46,173.92,29.22,191,300.63,265.82,523.23,265.83,28.47,0,56.09-1.22,82.36-3.58,83.56-7.5,205.71-23.79,301.43-78.34,104.74-59.69,152.84-153.41,143-278.56-14.94-189-74-341.2-175.51-452.23-31.85-34.84-98.13-107.32-273-141-106.71-20.37-114.18-64.53-119.64-96.77-2.58-15.26-4.32-23.45-12.78-28.37-12-6.95-28.86-4.93-44.08,5.28-11.16,7.49-46.78,37.53-36.79,110A11.59,11.59,0,0,1,1796,1252.8c-32.75,2.08-53.74-19.91-70.57-37.59C1710.5,1199.55,1700.42,1189.76,1687.76,1189.76Z" transform="translate(-994.74 -436.67)"/><path class="cls-17" d="M1590.72,1512.69" transform="translate(-994.74 -436.67)"/><path class="cls-13" d="M2008,1952.78s-124.92-18.87-99.53-163,58.85-152.94,132.71-148.19,186.15,74.89,223.78,126,41.59,141.2,22.56,174.59c-15.6,27.39-65.72,43.25-138.46,37.25S2035.3,1961.2,2008,1952.78Z" transform="translate(-994.74 -436.67)"/><path class="cls-13" d="M1655,1913.3s89.38-7.14,87.8-133.36-24-136.26-76.09-137.57-138.43,51-170.44,92.32-44.88,118.78-35.33,149c7.83,24.77,41.06,42.13,92.54,42.27S1635,1918.56,1655,1913.3Z" transform="translate(-994.74 -436.67)"/><path class="cls-13" d="M2217.28,1544.46c5.23-9.88-46.12-104-110.4-79.77-17.11,6.46-27.51,26.74-12.76,43C2105.59,1520.24,2212.05,1554.34,2217.28,1544.46Z" transform="translate(-994.74 -436.67)"/><path class="cls-13" d="M1563.38,1552.53c-5.2-7.65,33.7-98.35,96.14-78,18.8,6.14,18.41,20.48,6.83,33.45C1649.44,1527,1568.59,1560.17,1563.38,1552.53Z" transform="translate(-994.74 -436.67)"/><ellipse class="cls-15" cx="1622.58" cy="1810.12" rx="87.46" ry="68.64" transform="translate(-1243.54 2925) rotate(-87.79)"/><ellipse class="cls-1" cx="1642.98" cy="1791.22" rx="33.47" ry="25.31" transform="translate(-1293.15 2817.04) rotate(-84.46)"/><g class="cls-18"><ellipse class="cls-1" cx="1595.26" cy="1843.6" rx="19.72" ry="26.08" transform="translate(-1089.14 -350.56) rotate(-3)"/></g><ellipse class="cls-15" cx="2037.35" cy="1820.4" rx="93.64" ry="73.5" transform="translate(-855.04 3349.34) rotate(-87.79)"/><ellipse class="cls-1" cx="2059.19" cy="1800.16" rx="35.83" ry="27.1" transform="translate(-926 3239.39) rotate(-84.46)"/><g class="cls-18"><ellipse class="cls-1" cx="2008.09" cy="1856.25" rx="21.12" ry="27.92" transform="translate(-1089.24 -328.91) rotate(-3)"/></g><path class="cls-1" d="M1807,1932c9.34,19.66,55.26,50.9,106.45,4.74" transform="translate(-994.74 -436.67)"/><path class="cls-1" d="M1737.77,1933.77c8.74,20,54,28.92,70.08-6.92,8.68,18.27,51.34,47.3,98.91,4.41,0,0,0-91.75-100.36-90S1737.77,1933.77,1737.77,1933.77Z" transform="translate(-994.74 -436.67)"/><g class="cls-16"><path class="cls-15" d="M1906.77,1931.25c-47.59,42.9-90.23,13.86-98.92-4.38-16,35.82-61.35,26.94-70.07,6.89,0,0,40,17,64.1-38.28C1849.66,1939.9,1906.77,1931.25,1906.77,1931.25Z" transform="translate(-994.74 -436.67)"/></g><path class="cls-15" d="M1744.42,1930.88c5.4,8.49,19.6,11.51,29.3,9.38,10.84-2.14,18-9.56,21.09-19.89a13.71,13.71,0,0,1,26.13.26c1.79,5.28,8,11.3,13.26,14.63,21.34,14.46,49,6.13,67.85-9.5,7.1-5.41,15.86,4.52,9.56,10.88-27.53,29.48-71.43,38.79-104.32,11.4a51.62,51.62,0,0,1-12.53-15l26.32-.3c-15,30.9-56.87,39-82,15.7-5-4.75-13.65-16.67-3.71-21.13a7.32,7.32,0,0,1,9.07,3.54Z" transform="translate(-994.74 -436.67)"/><path class="cls-15" d="M1816.82,1867.76c-5,17.58-4.33,38.44,4.8,54.59,9.12,17.27-15.54,31.3-25.72,14.59-3.23-7.25-2.81-15.78-3.87-23.34a191.74,191.74,0,0,1,2.41-51.89c3.52-16.54,27.67-10,22.38,6Z" transform="translate(-994.74 -436.67)"/><path class="cls-15" d="M1864.32,1846.77c-.06,36.47-64.39,51.92-64.39,51.92s-55.36-20.79-53-53.61c1.32-18.67,53.17-18,53.17-18S1864.34,1828.05,1864.32,1846.77Z" transform="translate(-994.74 -436.67)"/><g class="cls-19"><path class="cls-1" d="M1828,1842.58c0,9.45-16,13.46-27.7,13.29s-27.67-4.64-27.66-14.09c0-4.84,27.69-4.44,27.69-4.44S1828,1837.74,1828,1842.58Z" transform="translate(-994.74 -436.67)"/></g><path class="cls-15" d="M1651.38,1306.58c27.55-14.27,56.19-25.65,86.94-30.53a5.8,5.8,0,0,1,2.36,11.35c-27.49,8.06-53.62,22.55-77,38.86-13.63,9-26.38-11.37-12.27-19.68Z" transform="translate(-994.74 -436.67)"/><path class="cls-10" d="M2724.35,1536.55a247.47,247.47,0,0,1-2.75,30.15c-28.5,190.1-275.7,257.3-275.7,257.3q0-16.05-.75-31.5c-14.85-319-253-438.95-260.65-442.75a.55.55,0,0,1-.2-.1c-71.55,27.2-181.65,87.55-311,175.45S1480.5,1775.2,1273,1812.9c-204.85,37.15-338.55-150.65-223.55-293.7v0a254.2,254.2,0,0,1,33.8-34.45c179-152.1,384.45-152.1,384.45-152.1q4.27-17.47,8-34.9c74.5-344,9.85-652.9-29.5-792.2A43.78,43.78,0,0,1,1444.9,487a44.49,44.49,0,0,1,59.4-35.3c349.85,127.1,614.2,533.6,719.5,718.5,32.55,57.15,49.9,93.1,49.9,93.1,274.5-65.7,456.35,94.65,450.65,273.3" transform="translate(-994.74 -436.67)"/><g class="cls-2"><path class="cls-3" d="M2724.35,1536.55s-54.4-114.8-182.75-205.65-357.3,18.75-357.3,18.75c-71.55,27.2-181.65,87.55-311,175.45S1480.5,1775.2,1273,1812.9c-204.85,37.15-338.55-150.65-223.55-293.7-69.45,112.9,32.6,245.9,156.15,245.9s237.9-48.5,237.9-48.5c144-56.2,298-186.15,276.6-224.45s-201,0-201,0l99.15-61.1c188.6-15.65,436.95-83,436.95-83l218.6-84.8c274.5-65.7,456.35,94.65,450.65,273.3" transform="translate(-994.74 -436.67)"/></g><g class="cls-2"><path class="cls-3" d="M2192.1,1178.45l-326.35,85.15c-11.5-412.35-240.6-677.2-340.15-773.3,319.8,141.2,562,507,666.5,688.15" transform="translate(-994.74 -436.67)"/></g><g class="cls-6"><path class="cls-1" d="M1516.85,1295s-21.7,2-41.2,2.75c74.5-344,9.85-652.9-29.5-792.2A43.78,43.78,0,0,1,1444.9,487c161.45,259.65,71.95,808,71.95,808" transform="translate(-994.74 -436.67)"/></g><g class="cls-6"><path class="cls-1" d="M1074.88,1699.75S1026,1575.54,1088.25,1523c158.91-134,268.09-139.74,268.09-139.74l-3.26-35.24s-216.71,58.84-311.17,175c0,0-39.77,121.29,33,176.72" transform="translate(-994.74 -436.67)"/></g><path class="cls-3" d="M2724.35,1536.55a247.47,247.47,0,0,1-2.75,30.15c-28.5,190.1-275.7,257.3-275.7,257.3q0-16.05-.75-31.5c-15.1-314.1-253-438.8-260.65-442.75a.55.55,0,0,1-.2-.1c168.2-87.4,317.15-42.4,317.15-42.4,112.9,36.65,181.4,128.4,222.9,229.3" transform="translate(-994.74 -436.67)"/><path class="cls-5" d="M2213.51,1152.29s-333.08,143.5-733.48,135.19V1431s400.64-1.46,664.87-121.82c0,0,73.53-35.57,128.79-46Z" transform="translate(-994.74 -436.67)"/><g class="cls-6"><path class="cls-1" d="M1485,1322.48c400.4,8.31,733.48-135.19,733.48-135.19l42.67,78.66c4.24-1,8.43-1.93,12.51-2.7l-60.18-111s-333.08,143.5-733.48,135.19V1431s1.74,0,5,0Z" transform="translate(-994.74 -436.67)"/></g><path class="cls-3" d="M1480,1443.3a12.26,12.26,0,0,1-12.26-12.26V1287.48a12.24,12.24,0,0,1,12.51-12.25c393.23,8.12,725.07-132.77,728.38-134.2a12.26,12.26,0,0,1,15.62,5.41l60.19,111a12.25,12.25,0,0,1-8.51,17.88c-53,10-125,44.63-125.72,45-263.84,120.19-666.14,123-670.17,123Zm12.25-143.36v118.65c69.19-1.52,414.5-14.36,647.54-120.52,2.54-1.23,62.32-30,115.35-43.28l-47.19-87C2149,1191.35,1846.31,1304.76,1492.28,1299.94Z" transform="translate(-994.74 -436.67)"/><path class="cls-3" d="M2721.6,1578.94a12.25,12.25,0,0,1-12.23-11.72c-.06-1.28-8-131.81-157-224.18-142-88-360.52,16.56-362.71,17.63a12.25,12.25,0,0,1-10.74-22c9.43-4.61,232.84-111.64,386.37-16.43,160.49,99.52,168.3,238.09,168.56,243.94a12.27,12.27,0,0,1-11.71,12.78Z" transform="translate(-994.74 -436.67)"/><path class="cls-3" d="M1400.82,1729.63c76.2-32.39,149.3-70.68,220.59-112.31l26.73-15.58,26.54-16c17.77-10.48,35.23-21.51,52.8-32.34q52.41-33,104.07-67.28l103-69.17c34.42-22.91,69-46.34,105.32-67.2,18-10.62,36.44-20.51,55-30.23,18.6-9.56,37.5-18.54,56.61-27.13s38.58-16.44,58.41-23.6,40.05-13.44,61.54-17.64a12.25,12.25,0,0,1,4.81,24l-.29.06c-19.13,3.9-38.49,10.24-57.57,17.08s-38,14.73-56.66,23c-37.28,16.84-73.85,35.47-109.43,55.83-35.67,20.14-69.86,42.92-104.51,65.63s-69.33,45.34-104.26,67.69c-69.91,44.61-140.63,88.23-213.74,127.74q-13.62,7.56-27.55,14.57l-27.74,14.21q-14,6.86-28.12,13.45c-9.38,4.47-18.78,8.9-28.35,13L1489.47,1700c-9.58,4-19.3,7.75-29,11.49l-14.53,5.61c-4.85,1.84-9.82,3.4-14.72,5.11l-29.53,9.87a1.3,1.3,0,0,1-.92-2.42Z" transform="translate(-994.74 -436.67)"/><path class="cls-3" d="M1057.53,1528.07a175.13,175.13,0,0,0-6.45,18.5,199.12,199.12,0,0,0-4.76,19.6,195.42,195.42,0,0,0-3.48,39.93c.51,26.6,8.14,52.75,23.28,74.58a152.79,152.79,0,0,0,27.1,29.5c5.4,4.11,10.63,8.47,16.52,12a187.3,187.3,0,0,0,17.8,10.41c24.57,12.81,51.27,21.43,78.22,31.52a1,1,0,0,1-.38,2,217.76,217.76,0,0,1-84.33-20.11,204.29,204.29,0,0,1-19.7-10.09c-6.55-3.47-12.58-7.89-18.76-12.09a171.77,171.77,0,0,1-32.38-31.56c-18.88-24.19-28.66-54.94-30.39-85.19a197.21,197.21,0,0,1,2.83-45.18,218.17,218.17,0,0,1,4.95-22c1-3.64,2.13-7.24,3.37-10.83s2.47-7,4.23-11a12.25,12.25,0,1,1,22.47,9.77Z" transform="translate(-994.74 -436.67)"/><path class="cls-3" d="M2445.89,1836.27a12.25,12.25,0,0,1-12.25-12.26c0-175.44-69.09-292-127-358.79-53.31-61.49-107.3-93.53-123.06-102.13-75.23,29.48-185.32,91.93-303.34,172.15-108.55,73.78-384.81,249.7-605,289.7-132.39,24.07-227.54-41-263.11-116.2-37.4-79-13.17-168.47,63.22-233.37,160.36-136.25,339-152.75,382.65-154.73,81.46-345.27,20.39-656.32-23.58-811.79a56.77,56.77,0,0,1,74.17-68.72c239.41,87,437.8,304.9,562.07,472.4,116.47,157,191.46,300.34,209.78,336.61,144.41-32.08,277-4.48,365,76.26,69.75,64,102,152.6,88.39,243.1-29.36,195.76-274.21,264.51-284.62,267.34A12.18,12.18,0,0,1,2445.89,1836.27ZM2184.3,1337.4a12.26,12.26,0,0,1,5.33,1.22c2.77,1.33,68.42,33.55,134.71,109.66,59.17,67.94,129.36,184.75,133.6,359,53.26-18.23,228.6-89.43,251.55-242.46,12.35-82.31-17.07-163-80.72-221.41-83.83-76.91-212.21-101.81-352.23-68.29a12.25,12.25,0,0,1-13.88-6.6c-.78-1.6-79.1-162.67-212-341.8C1928.4,762.11,1733.69,548,1500.13,463.17a32.26,32.26,0,0,0-42.21,39c45,159.14,107.66,479,21.63,833.34a12.26,12.26,0,0,1-11.9,9.36c-2,0-203.29,2-376.52,149.17-68.58,58.26-89.87,134.61-56.93,204.21,31.56,66.71,116.94,124.27,236.57,102.56,215.62-39.16,488.38-213,595.64-285.85,122.24-83.09,236.52-147.52,313.54-176.77A12.13,12.13,0,0,1,2184.3,1337.4Z" transform="translate(-994.74 -436.67)"/><path class="cls-5" d="M1644.14,1348.05a145.53,145.53,0,1,1-145.53-145.52,145.53,145.53,0,0,1,145.53,145.52" transform="translate(-994.74 -436.67)"/><g class="cls-2"><path class="cls-3" d="M1624.15,1328.05a145.51,145.51,0,0,1-237.9,112.45,144.23,144.23,0,0,1-30.7-65.75,134.58,134.58,0,0,0,211.6-155.1,145.76,145.76,0,0,1,23.9,16,144.78,144.78,0,0,1,33.1,92.35" transform="translate(-994.74 -436.67)"/></g><path class="cls-7" d="M1581.5,1348.05c0,51.93-39.84,94-89,94s-89-42.1-89-94,39.84-94,89-94,89,42.09,89,94" transform="translate(-994.74 -436.67)"/><g class="cls-6"><path class="cls-1" d="M1363.08,1373.05a145.52,145.52,0,0,1,275.09-66.25,145.52,145.52,0,1,0-269.12,107.5,145.47,145.47,0,0,1-6-41.25" transform="translate(-994.74 -436.67)"/></g><g class="cls-2"><path class="cls-3" d="M1418.53,1370.13c0-47.55,36.48-86.1,81.48-86.1,41.55,0,75.76,32.87,80.78,75.33a98,98,0,0,0,.71-11.31c0-51.93-39.84-94-89-94s-89,42.09-89,94a96.27,96.27,0,0,0,27.65,68,89.17,89.17,0,0,1-12.65-45.93" transform="translate(-994.74 -436.67)"/></g><g class="cls-12"><path class="cls-1" d="M1436.62,1359.75c-8.16-44.3,51.77-83.86,88-55a7.19,7.19,0,0,1,.82,10.13c-28.35,13.13-52.79,23.21-72.83,48.28-4.32,6.24-14.73,4-16-3.45" transform="translate(-994.74 -436.67)"/></g><path class="cls-3" d="M1492.51,1453.63c-55.43,0-100.53-47.36-100.53-105.58s45.1-105.58,100.53-105.58,100.55,47.36,100.55,105.58S1548,1453.63,1492.51,1453.63Zm0-188.05c-42.69,0-77.42,37-77.42,82.47s34.73,82.48,77.42,82.48,77.44-37,77.44-82.48S1535.21,1265.58,1492.51,1265.58Z" transform="translate(-994.74 -436.67)"/><path class="cls-3" d="M1498.61,1507.74c-88,0-159.69-71.64-159.69-159.69s71.64-159.68,159.69-159.68S1658.3,1260,1658.3,1348.05,1586.66,1507.74,1498.61,1507.74Zm0-291c-72.44,0-131.37,58.93-131.37,131.36a131.52,131.52,0,0,0,131.37,131.37c72.44,0,131.36-58.93,131.36-131.37S1571.05,1216.69,1498.61,1216.69Z" transform="translate(-994.74 -436.67)"/></svg>