<svg id="Layer_1" data-name="Layer 1" xmlns="http://www.w3.org/2000/svg" viewBox="0 0 2521.83 3131.26"><defs><style>.cls-1{fill:#fff;}.cls-2{opacity:0.35;}.cls-3{fill:#371a45;}.cls-4{fill:#921fe5;}.cls-5{opacity:0.4;}.cls-6{fill:#ff791f;}.cls-7{fill:#ffa617;}.cls-8{fill:#6d33c1;}.cls-9{fill:#fb1764;}.cls-10{opacity:0.25;}.cls-11{fill:#1d1d1d;}.cls-12{fill:#d5d4d6;}.cls-13{opacity:0.7;}.cls-14{fill:none;stroke:#371a45;stroke-linecap:round;stroke-miterlimit:10;stroke-width:24px;}.cls-15{fill:#ffc420;}.cls-16{fill:#f9bd6e;}.cls-17{opacity:0.3;}.cls-18{fill:#6b184e;}.cls-19{fill:#d36c31;}.cls-20{fill:#d66b09;}.cls-21{fill:#32b1d1;}.cls-22{fill:#22a7f0;}.cls-23{fill:#111a28;}</style></defs><title>wizard4</title><path class="cls-1" d="M1790.8,2047.37c-385.22,73.49-534.43-75.85-689.67,47.45-101.81,80.87-2.38,151.34,82.71,200.19,174.45,100.15,599.32-26.14,629.37-51.12" transform="translate(-672.17 -536.02)"/><g class="cls-2"><path class="cls-3" d="M1813.21,2243.88c-30,25-454.92,151.28-629.36,51.12-85.12-48.84-184.52-119.32-82.72-200.16,18.84-15,37.6-25.92,56.68-33.72-174.85,92.58-35.5,141.38,13.74,169.66,162.88,93.48,534.76,10.65,628.74-100.1Z" transform="translate(-672.17 -536.02)"/></g><path class="cls-3" d="M1372.33,2349.1c-73.22,0-144.34-10.29-196.45-40.21-63.7-36.57-129.39-81.59-133.65-138.31-2.33-30.94,14.14-60.64,49-88.29,86.06-68.36,168.92-58.21,283.6-44.15,102.82,12.59,230.8,28.28,413-6.48a16,16,0,1,1,6,31.43c-187.13,35.69-317.86,19.68-422.91,6.81-110.94-13.59-184.23-22.58-259.8,37.45-26,20.65-38.43,41.11-36.94,60.83,3.2,42.54,68.69,84.84,117.67,113,69,39.64,195.77,46.62,356.82,19.69,138.42-23.16,243.22-60.54,254.38-69.27a16.19,16.19,0,0,1,22.48,2.42,15.82,15.82,0,0,1-2,22.21c-21.07,17.51-145.36,55.3-268.11,76C1500,2341.46,1435.39,2349.1,1372.33,2349.1Z" transform="translate(-672.17 -536.02)"/><path class="cls-3" d="M1581.94,2327.14a16,16,0,0,1-15.8-18.63c21.38-128.12-21-232.6-21.47-233.64a16,16,0,0,1,29.54-12.3c1.91,4.58,46.45,113.63,23.49,251.2A16,16,0,0,1,1581.94,2327.14Z" transform="translate(-672.17 -536.02)"/><path class="cls-4" d="M2447.25,917.36c-7.68.28-13.48-4.52-18-11.8-10.6-17.24-13.84-48.36-16.76-59-15.8-58-66.08-150.8-168.24-141.36s-97.8,137.24-62.52,195.84c38.76,64.4,77,140.8,101.8,207.2,23.44,62.68,35,116.44,23.76,142.8-14.4,33.84-256,24.72-435.52,13.08-108.08-7-193.64-14.92-193.64-14.92s15-39.72,32.48-88.48c13.72-38.56,29-82.76,39.36-117.44,31.44-105.16,10.12-161.32,71.6-287.48,89.48-183.72,432-318.72,609.12-61C2497.41,792,2483.25,916.12,2447.25,917.36Z" transform="translate(-672.17 -536.02)"/><g class="cls-2"><path class="cls-3" d="M2429.25,905.56c-10.6-17.24-13.84-48.36-16.76-59-15.8-58-66.08-150.8-168.24-141.36s-97.8,137.24-62.52,195.84c38.76,64.4,77,140.8,101.8,207.2,23.44,62.68,35,116.44,23.76,142.8-14.4,33.84-256,24.72-435.52,13.08l-44.32-171s289.33-42.4,262.64-116.24c-33.37-92.34-111.61-151.8-106.2-177.53,4.87-23.22,107.12,65.78,113.8,21.46s-30.44-129.17-11.7-155.43c22.76-31.89,54.62,40.32,89.74,27.31,22-8.14,34.48-69.61,61.13-69.58,49.46.05,15.73,52.68,51.37,57.88s81.26-8.42,99.5,13.66C2401.69,711.69,2421.89,822.28,2429.25,905.56Z" transform="translate(-672.17 -536.02)"/></g><g class="cls-5"><path class="cls-1" d="M2409.85,662.16c-185.44-164.48-471-38.56-551.52,126.8-61.48,126.16-40.16,182.32-71.6,287.48-10.4,34.68-25.64,78.88-39.36,117.44-7.36,20.56-14.28,39.56-19.84,54.6-30.8-2.56-49.4-4.28-49.4-4.28s15-39.72,32.48-88.48c13.72-38.56,29-82.76,39.36-117.44,31.44-105.16,10.12-161.32,71.6-287.48C1907.65,574,2227.93,442.4,2409.85,662.16Z" transform="translate(-672.17 -536.02)"/></g><path class="cls-3" d="M2140.06,1290.66c-44.18,0-96.62-1.41-156.76-4.23-153-7.17-305.14-21.16-306.66-21.3l-20.94-1.94,7.46-19.67c.48-1.27,48.38-127.73,71.47-204.85,11.79-39.4,16-72.4,20.12-104.31,6.67-52,13.57-105.82,52.43-185.58,54.75-112.4,194.77-201.44,333-211.74,123.6-9.19,231.52,43.62,303.76,148.75,56.24,81.84,57.79,181.72,37.29,222.35-10.75,21.32-25.53,25-33.39,25.22-34.61,1.17-43.76-46.43-48.55-72-.81-4.35-1.58-8.44-2.16-10.58-6.39-23.4-43.6-139.62-151.34-129.64-27.86,2.57-47.87,15.5-59.47,38.42-20,39.59-10.83,100,9.18,133.24C2261.77,1003,2350.2,1191,2322,1257.29c-7.14,16.79-30.64,28.71-122.13,32.32Q2173.14,1290.66,2140.06,1290.66Zm-439.58-55.55c45.38,3.93,158.14,13.19,273.35,18.83,271.2,13.27,312.94-5.28,319.15-10.24,16-42.36-40.8-194.59-124.95-334.41-24.6-40.87-36.57-112.3-10.31-164.19,16.66-32.92,46.07-52.23,85.08-55.84,103.17-9.55,164.25,76.5,185.14,153.08.93,3.39,1.74,7.68,2.75,13.11,7.07,37.77,13,45,15.9,45.93.88-.23,4.81-3.25,8.57-13.64,12.7-35.1,9.42-115.34-37.64-183.83-84-122.22-195.89-140.85-275-134.95C2015,578.46,1886,660,1836,762.79c-36.55,75-42.82,123.9-49.46,175.64-4.26,33.19-8.66,67.51-21.21,109.42C1747.41,1107.57,1715,1196,1700.48,1235.11Zm593,8.17Z" transform="translate(-672.17 -536.02)"/><path class="cls-6" d="M2307.27,1251c-23,54.28-629.16-1.8-629.16-1.8s3.16-8.32,8.24-22.08c9.6-25.8,26-70.52,41.16-114.72,71.12-15.16,183.92-36,296.24-43.52,43-2.88,83.6-3.48,120.64-2.68,48.88,1.08,91.6,4.64,125.88,8.64C2302.31,1151.4,2320.39,1220.08,2307.27,1251Z" transform="translate(-672.17 -536.02)"/><g class="cls-2"><path class="cls-3" d="M2307.27,1251c-23,54.28-629.16-1.8-629.16-1.8s3.16-8.32,8.24-22.08q7.5-2.4,15.84-4.68c134.4-36.68,528.72-39,537.16-99.68,3.72-26.56-45.16-44.88-95-56.56,48.88,1.08,91.6,4.64,125.88,8.64C2302.31,1151.4,2320.39,1220.08,2307.27,1251Z" transform="translate(-672.17 -536.02)"/></g><g class="cls-5"><path class="cls-1" d="M2279.89,1098.72a1362.39,1362.39,0,0,0-239.68-5.24c-83.44,5.58-167.17,18.53-233.88,31a109.2,109.2,0,0,0-82.7,70.38c-8,22.38-15.37,42.29-20.66,56.51-15.88-1.36-24.88-2.2-24.88-2.2s26.2-69,49.4-136.8c71.16-15.16,184-36,296.24-43.52a1364.39,1364.39,0,0,1,246.52,6C2273.61,1082.88,2276.85,1090.88,2279.89,1098.72Z" transform="translate(-672.17 -536.02)"/></g><path class="cls-3" d="M2140,1289.67c-44.15,0-96.57-1.42-156.68-4.24-153-7.17-305.1-21.16-306.62-21.3l-19.64-1.82,7-18.44c.26-.68,26.35-69.58,49.23-136.34l2.75-8,8.31-1.77c74.4-15.85,186.56-36.31,298.37-43.81a1384.5,1384.5,0,0,1,249.26,6l8.71,1,3.38,8.09c38.45,91.87,50.89,155.06,37,187.81h0c-7,16.45-30.27,28.14-121.24,31.73Q2173.1,1289.66,2140,1289.67Zm-441-53.68c44.62,3.87,159,13.31,275.7,19,273.71,13.34,313.42-5.78,319-10.67,9-23.36-3.59-81-34-155.56a1356.75,1356.75,0,0,0-235-4.91c-106,7.1-212.5,26.09-285.83,41.46C1723.86,1168.93,1707.92,1212.25,1699.08,1236Zm594.39,9.16h0Zm.69-1.17Z" transform="translate(-672.17 -536.02)"/><path class="cls-7" d="M2078.6,1041l-168.21,13.33a21,21,0,0,0-19.26,22.57l13.33,168.19a21,21,0,0,0,22.58,19.26L2095.25,1251a21,21,0,0,0,19.26-22.57l-13.33-168.19A21,21,0,0,0,2078.6,1041ZM2065,1195.91a10.49,10.49,0,0,1-9.63,11.29l-95.75,7.58a10.47,10.47,0,0,1-11.29-9.62l-7.59-95.76a10.5,10.5,0,0,1,9.63-11.29l95.75-7.59a10.5,10.5,0,0,1,11.29,9.63Z" transform="translate(-672.17 -536.02)"/><path class="cls-3" d="M1925.33,1276.41A33,33,0,0,1,1892.5,1246l-13.33-168.19a33,33,0,0,1,30.27-35.48L2077.66,1029a33,33,0,0,1,35.48,30.28l13.33,168.19A33,33,0,0,1,2096.2,1263L1928,1276.3C1927.1,1276.37,1926.21,1276.41,1925.33,1276.41ZM2079.55,1053l-168.21,13.33a9,9,0,0,0-8.24,9.66l13.33,168.2a9,9,0,0,0,9.66,8.24l168.21-13.33a9,9,0,0,0,8.24-9.67l-13.33-168.19a9,9,0,0,0-9.66-8.24Zm-120.83,173.87a22.52,22.52,0,0,1-22.4-20.72l-7.59-95.75a22.51,22.51,0,0,1,20.64-24.2l95.76-7.59a22.57,22.57,0,0,1,24.19,20.65l7.59,95.75a22.47,22.47,0,0,1-20.64,24.2l-95.76,7.59C1959.92,1226.79,1959.32,1226.82,1958.72,1226.82Zm-6-116.86,7.35,92.74,92.75-7.35-7.35-92.75ZM2053,1196.85h0Z" transform="translate(-672.17 -536.02)"/><g class="cls-2"><path class="cls-3" d="M2070.37,1079.36a10.48,10.48,0,0,0-11.28-9.64l-95.76,7.6c-5.8.44-26.92,8.94-26.48,14.7l3.88,15.36,105.36-16.86a10.54,10.54,0,0,1,11.28,9.64l6.84,86.56,4.12-.32a10.54,10.54,0,0,0,9.64-11.28Z" transform="translate(-672.17 -536.02)"/></g><g class="cls-5"><path class="cls-1" d="M2078.61,1041l-168.24,13.32a21,21,0,0,0-19.24,22.56l13.32,168.2a21,21,0,0,0,21.64,19.32,12.7,12.7,0,0,1-.24-1.72l-13.32-168.16a21,21,0,0,1,19.24-22.6L2100,1058.6a7.08,7.08,0,0,1,.92,0A20.92,20.92,0,0,0,2078.61,1041Z" transform="translate(-672.17 -536.02)"/></g><path class="cls-3" d="M1925.33,1276.41A33,33,0,0,1,1892.5,1246l-13.33-168.19a33,33,0,0,1,30.27-35.48L2077.66,1029a33,33,0,0,1,35.48,30.28l13.33,168.19A33,33,0,0,1,2096.2,1263L1928,1276.3C1927.1,1276.37,1926.21,1276.41,1925.33,1276.41ZM2079.55,1053l-168.21,13.33a9,9,0,0,0-8.24,9.66l13.33,168.2a9,9,0,0,0,9.66,8.24l168.21-13.33a9,9,0,0,0,8.24-9.67l-13.33-168.19a9,9,0,0,0-9.66-8.24Zm-120.83,173.87a22.52,22.52,0,0,1-22.4-20.72l-7.59-95.75a22.51,22.51,0,0,1,20.64-24.2l95.76-7.59a22.57,22.57,0,0,1,24.19,20.65l7.59,95.75a22.47,22.47,0,0,1-20.64,24.2l-95.76,7.59C1959.92,1226.79,1959.32,1226.82,1958.72,1226.82Zm-6-116.86,7.35,92.74,92.75-7.35-7.35-92.75ZM2053,1196.85h0Z" transform="translate(-672.17 -536.02)"/><path class="cls-3" d="M1958.72,1226.82a22.52,22.52,0,0,1-22.4-20.72l-7.59-95.75a22.51,22.51,0,0,1,20.64-24.2l95.76-7.59a22.48,22.48,0,0,1,24.19,20.65l7.59,95.75a22.47,22.47,0,0,1-20.64,24.2l-95.76,7.59C1959.92,1226.79,1959.32,1226.82,1958.72,1226.82Zm-6-116.86,7.35,92.74,92.75-7.35-7.35-92.75Zm100.22,86.9h0Zm-7.59-95.76h0Z" transform="translate(-672.17 -536.02)"/><path class="cls-3" d="M1958.72,1226.82a22.52,22.52,0,0,1-22.4-20.72l-7.59-95.75a22.51,22.51,0,0,1,20.64-24.2l95.76-7.59a22.48,22.48,0,0,1,24.19,20.65l7.59,95.75a22.47,22.47,0,0,1-20.64,24.2l-95.76,7.59C1959.92,1226.79,1959.32,1226.82,1958.72,1226.82Zm-6-116.86,7.35,92.74,92.75-7.35-7.35-92.75Zm100.22,86.9h0Zm-7.59-95.76h0Z" transform="translate(-672.17 -536.02)"/><rect class="cls-7" x="2022.78" y="1126.01" width="109.09" height="41.5" rx="13.09" ry="13.09" transform="translate(-756.27 -368.31) rotate(-4.53)"/><path class="cls-3" d="M2036.58,1182.76a25.12,25.12,0,0,1-25-23.11l-1.21-15.27a25.07,25.07,0,0,1,23-27l82.65-6.55a25.09,25.09,0,0,1,27,23l1.21,15.27a25.09,25.09,0,0,1-23,27l-82.65,6.55C2037.91,1182.73,2037.24,1182.76,2036.58,1182.76Zm83.71-18.59h0Zm-2.25-29.41H2118l-82.65,6.55a1.1,1.1,0,0,0-1,1.17l1.22,15.28a1.07,1.07,0,0,0,1.17,1l82.65-6.55a1.08,1.08,0,0,0,1-1.17l-1.21-15.27A1.1,1.1,0,0,0,2118,1134.76Z" transform="translate(-672.17 -536.02)"/><g class="cls-5"><path class="cls-1" d="M2131.93,1145.48a13.18,13.18,0,0,0-11.68-5.44l-82.64,6.56a13.12,13.12,0,0,0-12,14.08l.36,4.56a12.66,12.66,0,0,1-2.4-6.52l-1.2-15.28a13.09,13.09,0,0,1,12-14.08l82.64-6.56a13.09,13.09,0,0,1,14.08,12Z" transform="translate(-672.17 -536.02)"/></g><path class="cls-3" d="M2036.58,1182.76a25.12,25.12,0,0,1-25-23.11l-1.21-15.27a25.07,25.07,0,0,1,23-27l82.65-6.55a25.09,25.09,0,0,1,27,23l1.21,15.27a25.09,25.09,0,0,1-23,27l-82.65,6.55C2037.91,1182.73,2037.24,1182.76,2036.58,1182.76Zm83.71-18.59h0Zm-2.25-29.41H2118l-82.65,6.55a1.1,1.1,0,0,0-1,1.17l1.22,15.28a1.07,1.07,0,0,0,1.17,1l82.65-6.55a1.08,1.08,0,0,0,1-1.17l-1.21-15.27A1.1,1.1,0,0,0,2118,1134.76Z" transform="translate(-672.17 -536.02)"/><path class="cls-8" d="M1439.6,1613.6c151.63,90.84,914.14,287.69,1274.51-219.45,0,0,112.25-170.14,59.22-245.54s-299-73.41-322.63-53.3-483.84,148.5-494.45,148.86-607.14-79.31-607.14-79.31-178.08,29.48-149,171.68c12.51,61.14,14.53,84.26,50,141S1439.6,1613.6,1439.6,1613.6Z" transform="translate(-672.17 -536.02)"/><g class="cls-2"><path class="cls-3" d="M1574.27,1518.6c117.32,66.42,707.64,209.74,987.49-162.75,0,0,87.18-125,46.21-180.2s-231.48-53.42-249.82-38.64-375,109.61-383.19,109.89-470.15-57.32-470.15-57.32-138,21.87-115.65,126.14c9.6,44.82,11.14,61.78,38.5,103.32S1574.27,1518.6,1574.27,1518.6Z" transform="translate(-672.17 -536.02)"/></g><path class="cls-3" d="M1983.94,1744.2c-246,0-469.64-67.44-552.12-116.61-11.14-5.77-158.61-82.88-195.31-141.61-33.53-53.66-38.59-79-48.68-129.46-1.06-5.27-2.17-10.84-3.39-16.77-8.41-41.13-1.85-77.73,19.5-108.76,44.74-65.06,138.59-81.26,142.56-81.92l2.36-.39,2.37.32c230.43,30.78,576.68,76.59,604.2,79.09,33.54-6.92,455.38-125.55,485.22-145.23,21.12-17.17,114.31-19.14,185.31-10.1,56.91,7.23,130.94,24.67,160.46,66.64,57.63,82-46.85,245.22-59,263.56l-.32.46c-196.9,277.1-504.79,338.22-728.39,340.69Q1991.34,1744.2,1983.94,1744.2Zm-634.39-563.14c-13.47,2.7-85.76,19.24-119.32,68.17-16.17,23.57-21,51.87-14.43,84.11,1.22,6,2.34,11.59,3.4,16.91,9.63,48.11,14,70.07,44.45,118.77,27.13,43.42,141.5,108.82,183.28,130.36l.9.49c76.71,46,298.53,112.32,536.5,112.32,4.7,0,9.36,0,14.07-.07,216.11-2.4,513.39-61.1,702.51-327,29.61-45,97.57-172.93,59.33-227.3-19.31-27.46-76.5-47.65-156.9-55.38-74.5-7.16-132.92-.27-142.58,5.33-5.24,4.4-22.55,16.46-257.71,84.75-80.67,23.43-236.35,67.31-246.25,67.65C1946.21,1260.31,1530.71,1205.25,1349.55,1181.06Zm1111.52-73.56-.05,0ZM2440.5,1083l-.17.15Z" transform="translate(-672.17 -536.02)"/><path class="cls-9" d="M3153.32,1916.23c-92.35,116.4-100.91,209-73.31,299.64,32.13,105.51,16.2,272.45-151.69,338.67s-204.92,73.66-248.77,185.8c-18.43,47.11-120,19.57-236.85-48.13-175.87-101.88-386.56-294.71-400.86-460.69-7.76-90.07,105.85-156.83,193.21-194.55a854,854,0,0,1,97.17-35.27s225,101.7,479.92-47.28S3245.67,1799.83,3153.32,1916.23Z" transform="translate(-672.17 -536.02)"/><g class="cls-5"><path class="cls-1" d="M3172.81,1885.56c-28.88-35.92-174.4-3.64-360.68,105.28-254.88,149-479.92,47.28-479.92,47.28a851.76,851.76,0,0,0-97.16,35.28c-78.68,34-178.64,91.52-192,168.4-.48-3.44-.88-6.88-1.16-10.28-7.76-90.08,105.84-156.84,193.2-194.56a855.66,855.66,0,0,1,97.16-35.24s225,101.68,479.92-47.32C3042.09,1820,3209.93,1802.32,3172.81,1885.56Z" transform="translate(-672.17 -536.02)"/></g><g class="cls-10"><path class="cls-3" d="M2989.59,2116.58c-13.09,113.7,31.18,251-61.71,324.3s-253.6,69.66-338.8,176.69c-30.22,37.93-86.38,60.84-146.38,74.64-175.87-101.88-386.56-294.71-400.86-460.69-7.76-90.07,105.85-156.83,193.21-194.55,37.33,59.5,114.73,124.18,272.34,99.39,274.36-43.06,482.7-200.45,527.22-216.33C3136.39,1883.76,2998.06,2042.94,2989.59,2116.58Z" transform="translate(-672.17 -536.02)"/></g><path class="cls-3" d="M2634.07,2779.86a156,156,0,0,1-22.36-1.73c-85.71-12.38-225.23-89.57-347.16-192.08-83.84-70.48-226.33-210.08-238.65-353.16-13.5-156.64,289.12-243,302-246.6l5.6-1.56,5.28,2.39c2.81,1.25,221.4,96.05,465.29-46.54,86.93-50.81,172.84-89.24,241.92-108.19,49.17-13.49,113.08-23.47,138.28,5.58,12.28,14.16,19.06,41-18.42,88.21-79.7,100.47-100.8,185.71-70.54,285,38.61,126.71,4.65,292.85-161.13,358.22q-17.37,6.84-32.92,12.91c-139.52,54.59-168.55,66-206.84,163.83C2688.12,2762.29,2672.43,2779.86,2634.07,2779.86Zm-302.89-761.22c-84.11,24.57-282.52,105.63-273.4,211.5,18.53,215.07,399.17,493.3,558.5,516.32,18.86,2.73,42.55,2.86,48.34-12,43.4-110.92,85.5-127.39,225-182q15.54-6.08,32.84-12.88c169.12-66.69,167-237.9,142.26-319.12-33.23-109.1-9.77-206,76.08-314.24,21.3-26.84,23.71-42.28,19.31-47.35-17.37-20-138.57-8.41-339.87,109.27C2580.3,2108.47,2368.63,2033.82,2331.18,2018.64Z" transform="translate(-672.17 -536.02)"/><path class="cls-3" d="M3048.58,1965.61a158.46,158.46,0,0,0,15.17-22,53.85,53.85,0,0,0,5.09-11.87c1.11-4,.94-8.1-1.31-9.79-2.1-2-6.42-2.33-10.4-2.2a57.91,57.91,0,0,0-6.22.61c-2,.5-4,.81-6,1.43-8.06,2.37-16.07,6.09-23.9,10-31.33,16.23-61.34,36-91.95,54.74-60.94,38-123.36,74.72-190.14,104.14-33.38,14.67-68,27.24-104.07,36a641.79,641.79,0,0,1-109.34,15.09c-36.75,1.78-73.73.7-110.25-4.31-18.27-2.38-36.43-5.64-54.47-9.61-9-2.15-18-4.27-26.92-6.91s-17.53-5.25-27.08-9a16,16,0,0,1,11.22-30l.47.17c7.24,2.64,16,5.17,24.18,7.4q12.54,3.33,25.28,6.21c17,3.64,34.23,6.62,51.56,8.78,34.64,4.25,69.65,6.26,104.6,4.77,34.91-1.28,69.79-6.14,103.86-12.91,33.92-7.26,67.24-18.72,100-31.78,65.59-26.41,128.3-60.76,191.43-94.78,15.77-8.57,31.61-17.08,47.66-25.31s32.23-16.37,49.24-23.2c8.52-3.36,17.13-6.66,26.56-8.41,2.35-.45,4.85-.62,7.24-.92a66.85,66.85,0,0,1,7.21.07,26.53,26.53,0,0,1,3.69.41,21,21,0,0,1,3.75.84,15,15,0,0,1,7.23,4.25,11.83,11.83,0,0,1,3,8.14,21.75,21.75,0,0,1-1.56,7.43,56.88,56.88,0,0,1-6.8,12.2A141.45,141.45,0,0,1,3048.58,1965.61Z" transform="translate(-672.17 -536.02)"/><path class="cls-3" d="M2966,2193.45c-40.26,18-82,32.61-124.29,45.21s-85.4,22.68-128.85,31.08-87.52,14-131.8,17.4l-33.3,1.87c-11.09.75-22.26.34-33.39.42l-16.7,0c-5.57,0-11.14-.53-16.71-.76l-33.41-2.09a12.5,12.5,0,0,1,1.44-25l.62,0c43.15,2.3,86.45,2.74,129.81.21,10.85-.35,21.66-1.67,32.49-2.45s21.66-1.76,32.46-3.1l32.44-3.7,32.36-4.62c43.11-6.52,86-14.79,128.81-23.9L2870,2217c10.64-2.57,21.37-4.86,32-7.49Q2934.09,2201.95,2966,2193.45Z" transform="translate(-672.17 -536.02)"/><path class="cls-3" d="M2648.69,2497.57c-27.51,1.61-55.05-1.19-82.16-5.72-6.75-1.3-13.59-2.3-20.29-3.87l-20.13-4.69c-13.29-3.63-26.59-7.36-39.69-11.75l-9.87-3.19c-3.26-1.14-6.47-2.42-9.71-3.62l-19.41-7.38c-12.72-5.47-25.54-10.79-37.9-17.14-25-12-48.76-26.77-71.49-42.79a16,16,0,0,1,17.54-26.73l.61.38c22.48,13.8,44.69,28,68.28,40,11.47,6.58,23.62,11.87,35.4,17.93,12.07,5.45,24.09,11.12,36.41,16.11,24.46,10.45,49.6,19.39,75,28.1S2622.35,2489.85,2648.69,2497.57Z" transform="translate(-672.17 -536.02)"/><path class="cls-11" d="M1917,2274.4l.2,1.56-.06-1.68A.43.43,0,0,0,1917,2274.4Z" transform="translate(-672.17 -536.02)"/><path class="cls-1" d="M2554.22,2147.84c56.37,78.48,41.17,362.94-25.27,514.47s-347.48,76-504.49,21.06-43.65-413.43-11.35-508.84C2063.54,2025.53,2470.7,2031.56,2554.22,2147.84Z" transform="translate(-672.17 -536.02)"/><g class="cls-10"><path class="cls-3" d="M2024.46,2683.37c157,55,438,130.45,504.51-21.06a544.7,544.7,0,0,0,23.39-65.6c-54.64,20.66-106-29.19-100.15-73.61,36.33-274.22-29.09-404.43-65.18-453.3-149-24.88-340.39,5.6-373.91,104.74C1980.8,2269.93,1867.45,2628.39,2024.46,2683.37Z" transform="translate(-672.17 -536.02)"/></g><path class="cls-3" d="M2346.43,2767.7c-100.44,0-221.12-32.06-327.25-69.23-74.83-26.2-104.19-112.41-87.28-256.23,11.58-98.44,42.31-202.71,66-272.84,20.22-59.73,90.19-101.41,197-117.37,134.71-20.11,315.32,7.23,372.24,86.48,59.39,82.68,46.59,370.1-23.62,530.23C2511.75,2741.39,2437.38,2767.7,2346.43,2767.7Zm-59.82-690.33a590.51,590.51,0,0,0-86.9,6.31c-93,13.89-155.51,48.87-171.45,96-34.65,102.36-137,440.13,1.49,488.61,155.12,54.32,424.34,124.94,484.55-12.38,64.12-146.26,79.22-425.91,26.93-498.71C2506.34,2108.61,2399.92,2077.37,2286.61,2077.37Z" transform="translate(-672.17 -536.02)"/><path class="cls-1" d="M2455.84,2406.2l79.22-5.92a29.83,29.83,0,0,1,32.06,31.23c-3.15,61.69-17.57,187.09-82.58,193.24-78.79,7.45-78.21-80.55-55.76-194.64A29.8,29.8,0,0,1,2455.84,2406.2Z" transform="translate(-672.17 -536.02)"/><g class="cls-10"><path class="cls-3" d="M2519.54,2584.75c-75.13,7.11-78.08-72.59-58.73-178.92l-5,.37a29.8,29.8,0,0,0-27.06,23.91c-22.45,114.09-23,202.09,55.76,194.64,23.58-2.23,40.49-20.19,52.63-45.08A49.53,49.53,0,0,1,2519.54,2584.75Z" transform="translate(-672.17 -536.02)"/></g><path class="cls-3" d="M2475.47,2640.17c-21.89,0-39.35-7.1-52-21.18-27.22-30.22-30-87.63-9.19-191.94a44.9,44.9,0,0,1,40.74-35.88l79.23-5.74a44.84,44.84,0,0,1,48.06,47.06c-4,74.42-21.82,200.29-96.63,207.2C2482.16,2640,2478.76,2640.17,2475.47,2640.17Zm62.05-224.86c-.38,0-.75,0-1.13,0l-79.23,5.74a14.83,14.83,0,0,0-13.49,11.81c-6.6,33.17-26.7,134.08,2.06,166,8,8.9,20.18,12.46,37.17,10.89,37.66-3.47,63.62-70.36,69.42-178.92a14.85,14.85,0,0,0-14.8-15.58Zm-81.45-9.18h0Z" transform="translate(-672.17 -536.02)"/><path class="cls-3" d="M2566.74,2185c-18.82-.16-37.86-.06-56.78.22s-37.89.84-56.75,1.86h0a8,8,0,0,1-2-15.87c18.86-3.71,37.76-6.91,56.69-9.9s37.82-5.72,56.94-8.25a16,16,0,1,1,4.21,31.81,17.37,17.37,0,0,1-2.15.14Z" transform="translate(-672.17 -536.02)"/><path class="cls-1" d="M2266.09,2778.72c-74.88,57.56-193.84,51-238.8,87.28-39.44,31.84-46,86.12-60.32,140.72-12.24,46.68-39,104.36-94.12,144.36-83.32,60.48-197,33.8-241.44-35.32-50.68-78.92,80-196.16,98-210,0,0-11.52-28.92-22.44-55.16-11.68-28-10.88-67.12.36-106.32-108.16-65.92-194.12,127.36-276.88,155-42.08,14-134.64,1.08-198.36-146.76-44.08-102.24-30.44-197.88,41.6-223.72,76.76-27.52,132.68,49.2,132.68,49.2s2.6-320.44,283.52-178.16c0,0,66-209.86,77.28-482.4h537.92C2508.05,2355.76,2390.13,2683.32,2266.09,2778.72Z" transform="translate(-672.17 -536.02)"/><path class="cls-1" d="M1783.24,1927.8c-27.73,238.26-93.29,472-93.29,472C1409,2257.53,1406.41,2578,1406.41,2578s-55.92-76.71-132.66-49.2c-72.08,25.83-85.69,121.48-41.62,223.72,63.73,147.87,156.29,160.81,198.35,146.76,101.23-33.81,207.24-315.39,352.76-67.52" transform="translate(-672.17 -536.02)"/><path class="cls-1" d="M1783.24,1927.8c-27.73,238.26-93.29,472-93.29,472C1409,2257.53,1406.41,2578,1406.41,2578s-55.92-76.71-132.66-49.2c-72.08,25.83-85.69,121.48-41.62,223.72,63.73,147.87,156.29,160.81,198.35,146.76,101.23-33.81,207.24-315.39,352.76-67.52" transform="translate(-672.17 -536.02)"/><path class="cls-1" d="M1783.24,1927.8c-27.73,238.26-93.29,472-93.29,472C1409,2257.53,1406.41,2578,1406.41,2578s-55.92-76.71-132.66-49.2c-72.08,25.83-85.69,121.48-41.62,223.72,63.73,147.87,156.29,160.81,198.35,146.76,101.23-33.81,207.24-315.39,352.76-67.52" transform="translate(-672.17 -536.02)"/><g class="cls-10"><path class="cls-3" d="M1783.25,2831.72c-145.52-247.88-251.56,33.72-352.76,67.52-42.08,14-134.64,1.08-198.36-146.76-19.28-44.76-27.52-88.24-24.64-125.16,1.2,3,2.44,6,3.72,9,63.72,147.88,156.55,131.94,198.36,146.76,96.12,34.05,111-212.34,249.27-238.36,169.93-32,469.78-76.06,453.81,0C2086.64,2668.59,1783.25,2831.72,1783.25,2831.72Z" transform="translate(-672.17 -536.02)"/></g><path class="cls-3" d="M1591.73,2770.74a12,12,0,0,1-10.8-17.22c59.65-123.55,32.57-232.47-12.66-293.2-27.61-37.08-63-57.18-92.19-52.49a12,12,0,1,1-3.81-23.69c38.69-6.24,81.78,16.9,115.25,61.85,49.43,66.37,79.34,184.75,15,318A12,12,0,0,1,1591.73,2770.74Z" transform="translate(-672.17 -536.02)"/><path class="cls-1" d="M1468.38,2517.65" transform="translate(-672.17 -536.02)"/><path class="cls-3" d="M1237.15,2530.87a109.36,109.36,0,0,1,22.76-13.78,127.59,127.59,0,0,1,25-8,114,114,0,0,1,52.48,1.89c16.9,4.63,32.24,12.75,45.75,22.58a186.25,186.25,0,0,1,19.11,16c3,2.89,5.87,5.85,8.68,8.93s5.36,6,8.39,10.06l-28.93,9.29c.23-10.07,1-19,2-28.36s2.37-18.47,4-27.65a346.7,346.7,0,0,1,14.35-54.35,236.49,236.49,0,0,1,25.38-51.5c10.79-16.19,24.42-31.17,41-42.76a141.35,141.35,0,0,1,55.4-23.12c19.69-3.62,39.52-3.22,58.57-.69,38.14,5.47,73.48,18.9,106.52,35.28l-23.73,9.7c2.69-8.31,5.35-17.4,7.84-26.23l7.59-26.76c2.53-8.94,5.06-17.89,7.44-26.9,2.57-8.95,5-18,7.41-27l14.78-54.14c5.13-18.05,10-36.19,15.81-54.24v0a5.38,5.38,0,0,1,10.51,1.76c-.45,19-2,37.94-4,56.81s-4.83,37.63-8.06,56.33c-1.75,9.32-3.43,18.66-5.34,28s-4,18.57-6.21,27.83c-4.49,18.6-9.49,36.64-15.67,55.42l-6.1,18.55-17.63-8.84c-15.45-7.76-31-15.1-47-21a252.71,252.71,0,0,0-48.65-12.74,148.63,148.63,0,0,0-48.25.33,108.92,108.92,0,0,0-42.85,17.84c-25.71,18-43.35,47.29-54.62,78.87a313.89,313.89,0,0,0-13,49.27c-1.51,8.42-2.77,16.92-3.7,25.43s-1.61,17.32-1.79,25.13l-1,46.22-27.91-36.93c-1.53-2-4-5-6.21-7.38s-4.71-5-7.18-7.39a155,155,0,0,0-15.74-13.21c-11-8-23-14.21-35.4-17.6a81.64,81.64,0,0,0-37.66-1.38,95.53,95.53,0,0,0-18.24,5.85A76.8,76.8,0,0,0,1257,2556a16,16,0,1,1-19.81-25.13Z" transform="translate(-672.17 -536.02)"/><path class="cls-3" d="M1401.91,2919.58a134.4,134.4,0,0,1-34.4-4.6,16,16,0,0,1,8.21-30.93c17.59,4.67,35.7,4.68,49.72,0,26.4-8.82,55.47-39.33,86.25-71.63,46.6-48.91,99.46-104.34,161.09-97.21,43.78,5.07,84.43,40.52,124.27,108.4a16,16,0,0,1-27.6,16.2c-33.93-57.81-67.69-89-100.35-92.81-45.83-5.34-90.78,41.87-134.24,87.49-33.6,35.26-65.34,68.57-99.3,79.91A106.57,106.57,0,0,1,1401.91,2919.58Z" transform="translate(-672.17 -536.02)"/><path class="cls-12" d="M1388.7,2896.52c-9,3.38-19,2.82-28.11-.42-41.83-15-90.3-55.12-128.46-143.62-32.73-75.89-33.64-148.18-2.46-190.94a41.41,41.41,0,0,1,41.74-16c31.83,6.69,64.73,29.34,83.64,75.37C1388,2701.06,1454.77,2871.81,1388.7,2896.52Z" transform="translate(-672.17 -536.02)"/><g class="cls-13"><path class="cls-1" d="M1406.53,2769.12c-12.88-41.48-29.2-82.24-41.08-111.2-18.92-46-51.8-68.68-83.64-75.36a41.42,41.42,0,0,0-41.72,16c-22.68,31.08-28.4,77.84-17.2,130.2-23.32-67-21.12-128.88,6.76-167.16a41.4,41.4,0,0,1,41.76-16c31.84,6.68,64.72,29.32,83.64,75.36C1370.49,2658.52,1393.41,2716.08,1406.53,2769.12Z" transform="translate(-672.17 -536.02)"/></g><g class="cls-10"><path class="cls-3" d="M1388.69,2896.52c-9,3.4-19,2.84-28.12-.4-41.48-14.88-89.56-54.52-127.6-141.72,27.24,28.92,55.16,46.08,81,55.32,10.92,3.92,23,4.6,33.88.52,42.4-15.84,39.44-81.52,21.4-154.08C1403.05,2742.88,1446.21,2875,1388.69,2896.52Z" transform="translate(-672.17 -536.02)"/></g><path class="cls-3" d="M1375.7,2913.79a60,60,0,0,1-20.16-3.57c-38.69-13.84-93.9-51.41-137.18-151.81-35.1-81.37-35.4-158.27-.81-205.7a56.25,56.25,0,0,1,57-21.84c24.43,5.14,69.18,22.92,94.43,84.34,38.7,94.26,80,209.63,55.51,265.67-6.33,14.5-16.59,24.49-30.49,29.69h0A52,52,0,0,1,1375.7,2913.79Zm-112.6-354.1a26.61,26.61,0,0,0-21.31,10.69c-27.85,38.2-26.28,105.69,4.12,176.15,39,90.51,86.64,123.61,119.73,135.44,6.31,2.26,12.64,2.44,17.8.5h0c6.17-2.31,10.46-6.63,13.5-13.6,15-34.23-3.81-115.73-55.76-242.26-20-48.63-54.23-62.46-72.85-66.38A25.65,25.65,0,0,0,1263.1,2559.69Z" transform="translate(-672.17 -536.02)"/><path class="cls-3" d="M1207.53,2637.05a10,10,0,0,1-3.42-19.39c10.92-3.95,117.14-24,138.32-28a10,10,0,1,1,3.7,19.65c-48.35,9.1-127.82,24.51-135.22,27.16A9.79,9.79,0,0,1,1207.53,2637.05Z" transform="translate(-672.17 -536.02)"/><path class="cls-3" d="M1214.11,2708.94a10,10,0,0,1-3.39-19.41c11-4,143.63-33.56,158.72-36.92a10,10,0,1,1,4.35,19.52c-56.51,12.59-148.9,33.55-156.28,36.21A9.87,9.87,0,0,1,1214.11,2708.94Z" transform="translate(-672.17 -536.02)"/><path class="cls-3" d="M1237.22,2773.86a10,10,0,0,1-3.4-19.4c11-4,143.17-34.52,158.21-38a10,10,0,1,1,4.49,19.48c-56.35,13-148.5,34.64-155.9,37.31A9.87,9.87,0,0,1,1237.22,2773.86Z" transform="translate(-672.17 -536.02)"/><path class="cls-3" d="M1275.89,2839.47a10,10,0,0,1-3.4-19.41c10.93-3.95,124.5-31.31,137.41-34.42a10,10,0,0,1,4.68,19.44c-50.28,12.1-127.8,31.09-135.29,33.79A9.87,9.87,0,0,1,1275.89,2839.47Z" transform="translate(-672.17 -536.02)"/><path class="cls-14" d="M1468.38,2517.65" transform="translate(-672.17 -536.02)"/><path class="cls-3" d="M1415.31,2573.4a137.31,137.31,0,0,1,10,22.92,193.16,193.16,0,0,1,6.43,23.8,145.36,145.36,0,0,1,3.19,24.44,92,92,0,0,1-2,24.79c-3.94-7.55-6.73-15-9.75-22.35l-8.35-21.93q-4.18-10.87-8.65-21.54l-8.69-21-.14-.35a10,10,0,0,1,18-8.76Z" transform="translate(-672.17 -536.02)"/><path class="cls-15" d="M3009.66,3335.55l-74.24,21.4,9.28,92.58-25.26,6.6-50.33,13.17.61,83.61-92.41-.72-31.41,82.52-371.24-486.66-99-22a12.17,12.17,0,0,1-7.39-18.77l32-46.71,96.08-140.3a12.15,12.15,0,0,1,21,1.55l48.41,99.18,604.71,193.22-84.78,54.4Z" transform="translate(-672.17 -536.02)"/><g class="cls-10"><path class="cls-3" d="M2869.11,3469.3l.61,83.61-92.41-.72-31.41,82.52-371.24-486.66-99-22a12.17,12.17,0,0,1-7.39-18.77l32-46.71a12.19,12.19,0,0,0,8.78,16.08l99.05,22s173.35,269.43,511.4,357.52Z" transform="translate(-672.17 -536.02)"/></g><path class="cls-3" d="M2750.63,3667.28l-385.13-504.9-93.35-20.73h0a28.17,28.17,0,0,1-17.14-43.43l128.06-187a28.18,28.18,0,0,1,48.58,3.57l45.39,93,630.59,201.51L3005,3275.17l25.53,71-77.83,22.44,9.31,92.92-76.77,20.08.63,87.39-97.52-.73Zm-466-555.64,99.24,22,357.34,468.46,25.12-66,87.28.65L2853,3457l74.38-19.45-9.25-92.24,70.68-20.37-22.61-62.9,66.9-42.9-578.83-185-48.51-99.42Zm-5.52-1.23h0S2279.1,3110.41,2279.09,3110.41Z" transform="translate(-672.17 -536.02)"/><ellipse class="cls-16" cx="2333.07" cy="3012.55" rx="132.8" ry="49.52" transform="translate(-2142.92 2699.31) rotate(-55.6)"/><g class="cls-17"><path class="cls-18" d="M2412.07,2965.29c-7.21,22.73-20.22,49.1-38.14,75.24-41.44,60.52-93.35,97.06-115.91,81.6s-7.26-77,34.18-137.54a338.83,338.83,0,0,1,22.69-29.6c-9.43,29.87-8.84,53.48,4,62.24C2337.46,3030,2375.91,3007.41,2412.07,2965.29Z" transform="translate(-672.17 -536.02)"/></g><path class="cls-3" d="M2270.35,3140.71a36,36,0,0,1-20.79-6.21c-11.64-8-23.34-26.22-13-67.87,6.88-27.67,22.25-59.82,43.27-90.53s45.46-56.66,68.77-73.07c35.11-24.71,56.35-20.39,68-12.42,35,23.93,11.22,97.8-30.28,158.4h0C2352.18,3098.84,2305.34,3140.71,2270.35,3140.71Zm125.3-226.26c-5.58,0-15.72,3.21-29.78,13.11-20.45,14.4-42.22,37.66-61.28,65.49s-32.88,56.53-38.91,80.81c-5.5,22.15-2.52,33.59.83,35.89,10.07,6.89,53.74-17.39,95-77.69s48.12-109.82,38.08-116.7A7.23,7.23,0,0,0,2395.65,2914.45Zm-21.72,126.08h0Z" transform="translate(-672.17 -536.02)"/><path class="cls-19" d="M2288.26,3024.32,703.74,1824.15a39.14,39.14,0,0,1-7.66-54.82h0a39.13,39.13,0,0,1,54.82-7.66L2335.43,2961.84a39.15,39.15,0,0,1,7.66,54.82h0A39.15,39.15,0,0,1,2288.26,3024.32Z" transform="translate(-672.17 -536.02)"/><g class="cls-5"><path class="cls-1" d="M2335.43,2966.84,750.9,1766.67a39.08,39.08,0,0,0-60.73,19,39.13,39.13,0,0,1,45.73,1L2320.43,2986.84a39.13,39.13,0,0,1,13.57,43.49,39.1,39.1,0,0,0,1.43-63.49Z" transform="translate(-672.17 -536.02)"/></g><g class="cls-10"><path class="cls-3" d="M2344.87,3007.42a39.14,39.14,0,0,1-61.62,21.9L698.72,1829.16a39.12,39.12,0,0,1,14.57-69.3,39.12,39.12,0,0,0,14.4,40.6L2312.22,3000.61a39,39,0,0,0,15.4,7A38.48,38.48,0,0,0,2344.87,3007.42Z" transform="translate(-672.17 -536.02)"/></g><path class="cls-3" d="M2311.73,3048.23a54.74,54.74,0,0,1-33.11-11.14l0,0L694.08,1836.9a55.14,55.14,0,0,1,66.46-88L2345.09,2949.08a55.15,55.15,0,0,1-25.62,98.61A56.05,56.05,0,0,1,2311.73,3048.23Zm-13.81-36.66a23.15,23.15,0,0,0,27.87-37L741.24,1774.42a23.14,23.14,0,0,0-27.86,37Z" transform="translate(-672.17 -536.02)"/><path class="cls-3" d="M2555.22,3297c8.49,8,16.71,16.31,25,24.5l24.54,24.95q24.36,25.13,48.14,50.8c15.72,17.23,31.75,34.17,47.21,51.65s31.06,34.83,46.13,52.67a1.84,1.84,0,0,1-2.69,2.51c-16.79-16.23-33.19-32.83-49.46-49.55s-32.23-33.73-48.38-50.56-31.84-34.1-47.46-51.43L2575,3326.4c-7.62-8.85-15.33-17.61-22.77-26.61a2,2,0,0,1,3-2.78Z" transform="translate(-672.17 -536.02)"/><path class="cls-3" d="M2422.2,3106.77c17.39,12.24,34.56,24.77,51.82,37.2l51.41,37.74c34.07,25.43,68.18,50.81,102,76.52,33.74,25.87,67.75,51.38,101.28,77.53s67.18,52.14,100.39,78.71a1.84,1.84,0,0,1-2.22,2.93c-34.63-24.69-68.93-49.81-103.14-75.06s-68.14-50.86-102.24-76.26-67.72-51.42-101.49-77.25l-50.35-39.15c-16.67-13.2-33.42-26.29-49.95-39.68a2,2,0,0,1,2.45-3.23Z" transform="translate(-672.17 -536.02)"/><path class="cls-3" d="M2583.19,3162.92c15.16,7.42,30.14,15.15,45.19,22.78l44.87,23.36c29.76,15.87,59.54,31.69,89.13,47.87,29.5,16.35,59.2,32.31,88.53,49,29.41,16.5,58.74,33.15,87.81,50.28a1.84,1.84,0,0,1-1.75,3.23c-30.2-15.05-60.14-30.59-90-46.27-29.94-15.52-59.51-31.74-89.28-47.57-29.69-16-59.18-32.37-88.69-48.68L2625,3192c-14.58-8.47-29.23-16.82-43.71-25.5a2,2,0,0,1,1.94-3.56Z" transform="translate(-672.17 -536.02)"/><path class="cls-3" d="M2517.59,3088.8c19.79,6.74,39.44,13.82,59.14,20.78l58.91,21.42c39.15,14.59,78.32,29.12,117.34,44,39,15.1,78.07,29.79,116.9,45.23,38.9,15.26,77.73,30.68,116.38,46.61a1.84,1.84,0,0,1-1.31,3.43c-39.48-13.72-78.76-27.95-118-42.34-39.29-14.22-78.3-29.18-117.47-43.73-39.09-14.73-78-29.84-117-44.9l-58.27-23.07c-19.36-7.86-38.77-15.6-58-23.68a2,2,0,0,1,1.44-3.79Z" transform="translate(-672.17 -536.02)"/><path class="cls-14" d="M1652.91,2763.86" transform="translate(-672.17 -536.02)"/><path class="cls-20" d="M1150,1343a33.94,33.94,0,0,0-4.71,4.94Z" transform="translate(-672.17 -536.02)"/><path class="cls-1" d="M1852.73,2990.18" transform="translate(-672.17 -536.02)"/><path class="cls-21" d="M2138.08,2179.22" transform="translate(-672.17 -536.02)"/><path class="cls-1" d="M2412.53,2435.12,2395.73,2545c-26.64,112.8-77.6,193.68-129.64,233.72-74.88,57.56-193.84,51-238.8,87.28-39.44,31.84-46,86.12-60.32,140.72-12.24,46.68-39,104.36-94.12,144.36-83.32,60.48-197,33.8-241.44-35.32-50.68-78.92,80-196.16,98-210,0,0-11.52-28.92-22.44-55.16-27.72-66.56,14.92-195.76,100.44-239.92,23.4-12.08,49.2-18.72,74.72-21.92,73.68-9.16,148.48,10.6,209.92,52.56l25.88-87.92,28.32-96.16v0l158.84-539.76C2397.37,2116.68,2423.33,2293,2412.53,2435.12Z" transform="translate(-672.17 -536.02)"/><g class="cls-10"><path class="cls-3" d="M2412.53,2435.12l0,.16L2395.73,2545c-26.64,112.8-77.6,193.72-129.64,233.72-74.88,57.56-193.84,51-238.8,87.28-39.44,31.84-46,86.12-60.32,140.72-12.24,46.68-39,104.36-94.12,144.36-83.32,60.48-197,33.8-241.44-35.32-16.56-25.8-13.76-55.68-1.84-84.68,20.52,118.64,154.52,119.36,230,64.56,55.08-40,64.16-145,76.44-191.64,14.36-54.6,20.84-108.88,60.32-140.72,44.92-36.24,163.92-29.72,238.76-87.28,31.2-24,62-62.68,87.4-114.12-48,6.32-115.92,7.6-204.56-8.52-8-1.4-16.08-3-24.4-4.72,0,0-46.16-65.12,23.08-99.2,0,0,11.16,3.52,29.64,7.72v0c45.68,10.44,136.16,25.08,214.44,1.24A211.67,211.67,0,0,0,2412.53,2435.12Z" transform="translate(-672.17 -536.02)"/></g><g class="cls-10"><path class="cls-3" d="M2395.73,2545l16.76-109.72A706.48,706.48,0,0,1,2395.73,2545Z" transform="translate(-672.17 -536.02)"/></g><g class="cls-10"><path class="cls-3" d="M2412.53,2435.12a211.67,211.67,0,0,1-51.8,23.32c29.24-110.8,34.84-254.6-7.24-422.16C2406.41,2187.16,2421.09,2322,2412.53,2435.12Z" transform="translate(-672.17 -536.02)"/></g><path class="cls-3" d="M2089.09,2645.69c-47.59-22.77-96.62-38.16-146.93-41.56a297.17,297.17,0,0,0-74.75,4.41,215.64,215.64,0,0,0-35.47,9.84,169.57,169.57,0,0,0-16.63,7.21c-5.06,3.07-10.31,5.79-15.27,9.07-19.78,13.43-36.47,32.1-49.79,53a235.15,235.15,0,0,0-29.34,68.36l-1.21,4.5-.86,4.56-1.73,9.12c-1.06,6.08-1.42,12.19-2.16,18.27-.31,12.07-.46,24.33,2.16,35.52.72,5.86,3,10.84,4.59,16.21l7.52,18.52,15.1,37.12,4.49,11-9.59,7.55c-3.39,2.68-7.36,6.15-11,9.48s-7.46,6.89-11.1,10.45q-11,10.68-21.19,22.08c-13.54,15.18-26.17,31.16-36.59,48.07s-18.91,34.75-22.06,52.57a71.66,71.66,0,0,0-.3,25.72,56.09,56.09,0,0,0,9.77,22.78c20.91,30.64,57.18,50.6,95,56.89a162.24,162.24,0,0,0,110.81-21.23c4-2.67,8.11-5.11,12.06-7.93,3.84-3,7.87-5.85,11.5-9.16,7.59-6.21,14.38-13.34,21.06-20.53a236.72,236.72,0,0,0,33.14-49,280.56,280.56,0,0,0,21.23-55.88c5.23-19.92,9.57-40.6,15.43-61.7s13.49-42.89,27.36-62.7a118.9,118.9,0,0,1,25.21-26.35l8-5.42c2.67-1.7,5.38-2.85,8.08-4.29,5.42-3,10.79-4.78,16.19-6.94,21.55-7.83,42.59-12.14,63.24-16.81s40.89-9.06,60.47-14.81,38.49-12.67,55.84-21.82c4.21-2.45,8.55-4.74,12.67-7.29l11.87-8.23c3.81-3,7.52-6.2,11.29-9.29l10.71-10.19a303.64,303.64,0,0,0,37.23-47.11,401.76,401.76,0,0,0,29.33-53.43c34.13-74.43,50.34-157,53.65-239.58,3.29-82.74-6.1-166-25.05-247-5.17-20.15-10.2-40.35-16.73-60.13-6-19.93-13.09-39.51-19.34-59.37-13.12-39.59-27.3-78.67-36.59-120.68v-.06a5.44,5.44,0,0,1,9.69-4.42c6.44,8.69,12.36,17.69,17.91,26.87a313.39,313.39,0,0,1,15.49,28.15c10,19,17.79,38.91,25.54,58.86,7.17,20.16,14,40.46,19.4,61.21,5.85,20.6,10.9,41.44,15.8,62.28,19.51,83.4,29.29,169.49,25.86,255.59-3.49,85.91-20.2,172.3-56.57,251.68a433,433,0,0,1-31.58,57.5,335.71,335.71,0,0,1-41.23,52.07L2288.37,2781c-4.37,3.62-8.69,7.31-13.16,10.84l-14.15,9.81c-4.84,3-9.84,5.67-14.77,8.51-20,10.56-41,18.15-61.89,24.29s-41.94,10.78-62.53,15.33-40.95,8.95-59.13,15.61c-4.38,1.78-9.07,3.32-12.88,5.51-2,1.06-4.16,1.94-5.92,3.1l-5.12,3.5a87.3,87.3,0,0,0-18.35,19.23c-10.51,14.89-17.21,33.49-22.74,53s-9.82,40.27-15.3,61.19a312.23,312.23,0,0,1-23.68,62.31,269,269,0,0,1-37.7,55.64c-7.66,8.28-15.51,16.46-24.25,23.65-4.2,3.8-8.82,7.07-13.27,10.56-4.63,3.32-9.59,6.34-14.38,9.49-39.35,24-87.39,33.28-132.7,25.47a191.33,191.33,0,0,1-64.74-23.25c-20-11.69-38-27.52-51.46-47.19a88.5,88.5,0,0,1-14.78-35,103.84,103.84,0,0,1,.26-37.23c4.37-23.91,14.75-44.64,26.34-63.7,11.76-19.05,25.46-36.31,40-52.62q10.95-12.21,22.67-23.62c3.91-3.82,7.88-7.56,12-11.26s8.1-7.24,13-11.1l-5.09,18.59-15-36.81-7.49-18.46c-2.38-7.31-5.36-14.67-6.37-22.07-3.33-14.83-3.17-29.45-2.73-43.9.8-7.11,1.29-14.32,2.5-21.34l2-10.49,1-5.24,1.36-5.13a277.6,277.6,0,0,1,33.1-77.77c15-24,34.19-46.06,58.08-63.19,24.28-17.37,52-27.1,79.81-32.59a271,271,0,0,1,42-4.75c7-.44,14.08-.18,21.11-.18,7,.43,14,.69,21,1.58,55.77,5.78,109.83,28.35,150.08,65.59a5.39,5.39,0,0,1-6,8.82Z" transform="translate(-672.17 -536.02)"/><path class="cls-3" d="M1998,2915.09a11.86,11.86,0,0,1-5.09-1.14,12,12,0,0,1-5.76-16c54.81-116.69,1.46-196.22-24-225-40.63-45.88-101-69-143.43-55.05a12,12,0,1,1-7.5-22.8c52-17.1,121.45,8.36,168.9,61.94,28.62,32.33,88.64,121.51,27.77,251.1A12,12,0,0,1,1998,2915.09Z" transform="translate(-672.17 -536.02)"/><path class="cls-3" d="M1733.13,2883.3c2.64,3.42,6.14,7.79,9.42,11.59s6.81,7.75,10.48,11.34a150.8,150.8,0,0,0,23.45,19.56c8.41,5.83,17.71,9.61,27.53,13.05,10,3.69,20.58,4.48,32.56,6.18q-3.83,2.17-8,4.07l-4.17,1.86c-1.43.51-2.89.78-4.36,1.19-2.94.77-5.95,1.45-9,2-3,.26-6.15.44-9.27.5a86.8,86.8,0,0,1-36.43-8.26,125.06,125.06,0,0,1-31-20.45,128.29,128.29,0,0,1-12.81-13.26c-2-2.31-3.89-4.77-5.7-7.28a96.56,96.56,0,0,1-5.27-8.19,13.24,13.24,0,0,1,21.92-14.75Z" transform="translate(-672.17 -536.02)"/><path class="cls-1" d="M2282.66,2050.79c365-140.49,410.32-295.71,519.8-294.33s157.68,106.68,88.91,245.3c-113.12,228-512.49,239.68-512.49,239.68" transform="translate(-672.17 -536.02)"/><g class="cls-10"><path class="cls-3" d="M2891.39,2001.77c-113.15,228-512.52,239.66-512.52,239.66h0a29.63,29.63,0,0,1,21.39-42.59c120.06-20.59,332.7-77.44,425.8-228.65,38.1-61.87,54.28-131.56,51.4-190.68C2929.55,1818,2941.28,1901.07,2891.39,2001.77Z" transform="translate(-672.17 -536.02)"/></g><path class="cls-3" d="M2378.87,2257.44a16,16,0,0,1-.46-32c3.9-.12,391.12-14.07,498.63-230.8,34.79-70.13,39.9-134.63,14-177-17.79-29.09-48.5-44.73-88.8-45.24H2801c-41,0-72.89,25.92-125.49,68.59-70.7,57.35-177.54,144-387.14,224.68a16,16,0,0,1-11.49-29.86c204.87-78.85,309.34-163.6,378.47-219.67,56.1-45.51,93.36-75.74,145.56-75.74h1.72c51.13.65,92.22,22.15,115.7,60.55,31.74,51.9,27.13,127.66-12.66,207.86-116,234-509.65,248.08-526.35,248.57Z" transform="translate(-672.17 -536.02)"/><circle class="cls-1" cx="1713.03" cy="2386.95" r="54.18" transform="translate(-1448.13 3412.01) rotate(-86.43)"/><g class="cls-2"><path class="cls-3" d="M1659,2383.2a54.19,54.19,0,1,0,108.12,7.49,53.54,53.54,0,0,0-3.6-23.47,54.19,54.19,0,0,1-97.72-6.77A53.77,53.77,0,0,0,1659,2383.2Z" transform="translate(-672.17 -536.02)"/></g><path class="cls-3" d="M1713.13,2453.64c-1.57,0-3.14,0-4.71-.16a66.65,66.65,0,1,1,4.71.16Zm-.17-108.37a41.69,41.69,0,1,0,3,.1C1714.92,2345.3,1713.94,2345.27,1713,2345.27Z" transform="translate(-672.17 -536.02)"/><path class="cls-1" d="M1760.09,2525l284.08,36.73a61.86,61.86,0,0,0,69.08-53.26l19.53-151.18a61.89,61.89,0,0,0-41.2-66.26,60.22,60.22,0,0,0-12.06-2.82l-284-36.72a61.8,61.8,0,0,0-69.08,53.26l-15.5,119.73-4.08,31.44A61.86,61.86,0,0,0,1760.09,2525Z" transform="translate(-672.17 -536.02)"/><g class="cls-10"><path class="cls-3" d="M1760.09,2525l284.08,36.73a61.86,61.86,0,0,0,69.08-53.26l19.53-151.18a61.89,61.89,0,0,0-41.2-66.26c-17.52,8.63-28.65,14.16-28.65,14.16-29.52,119.56-35.81,210.21-222.48,173.38-64.36-12.69-105.37-37.39-129.55-54.09l-4.08,31.44A61.86,61.86,0,0,0,1760.09,2525Z" transform="translate(-672.17 -536.02)"/></g><path class="cls-3" d="M2052.14,2574.71a73.75,73.75,0,0,1-9.59-.62l-284.06-36.73a74.28,74.28,0,0,1-64.06-83.08l19.55-151.2a74.38,74.38,0,0,1,83.09-64l284.06,36.73a74.26,74.26,0,0,1,64,83.08L2125.63,2510a74.43,74.43,0,0,1-73.49,64.67Zm-264.61-311.3a49.43,49.43,0,0,0-48.75,42.88l-19.55,151.2a49.22,49.22,0,0,0,42.46,55.07l284.07,36.74a49.26,49.26,0,0,0,55.08-42.47l19.55-151.2a49.23,49.23,0,0,0-42.47-55.08l-284.06-36.73A50.07,50.07,0,0,0,1787.53,2263.41Z" transform="translate(-672.17 -536.02)"/><path class="cls-1" d="M1748.83,2522.36a55,55,0,0,0,11.26,2.59l284.08,36.73a61.8,61.8,0,0,0,60.3-28.75,60.57,60.57,0,0,0,8.73-24.52l8.71-67.16,2.88-22.15,8-61.86a61.87,61.87,0,0,0-53.26-69.08l-61.39-7.92a61.85,61.85,0,0,1,42.1,66.49l-10.54,81.67-9,69.55a61.9,61.9,0,0,1-69.08,53.27Z" transform="translate(-672.17 -536.02)"/><g class="cls-10"><path class="cls-3" d="M1748.83,2522.36a55,55,0,0,0,11.26,2.59l284.08,36.73a61.78,61.78,0,0,0,69-53.27l11.59-89.31c-9.19,14.85-24.53,32.57-45.33,32-11.42-.32-21.46-9.86-29.77-22.65l-9,69.55a61.9,61.9,0,0,1-69.08,53.27Z" transform="translate(-672.17 -536.02)"/></g><path class="cls-3" d="M2052.17,2574.71a75.87,75.87,0,0,1-9.61-.62l-284.08-36.74a69.91,69.91,0,0,1-13.67-3.13l5.61-24.24,222.8,28.83a49.33,49.33,0,0,0,55-42.46l19.55-151.21a49.23,49.23,0,0,0-33.54-53l5.48-24.28,61.35,7.93a74.36,74.36,0,0,1,64.06,83.1L2125.62,2510a74.41,74.41,0,0,1-73.45,64.68Zm-25.1-27.83,18.7,2.41a49.33,49.33,0,0,0,55.06-42.46h0l19.54-151.19a49.36,49.36,0,0,0-42.47-55.09l-16.72-2.16a74,74,0,0,1,11.44,50l-19.55,151.2A73.57,73.57,0,0,1,2027.07,2546.88Z" transform="translate(-672.17 -536.02)"/><path class="cls-22" d="M1938.28,2409.09c-.69,5.59,1.6,51.73,1.6,51.73l31.88,3.93c21.94,2.71,42.54-17.82,46-45.85s-11.52-53-33.47-55.66l-31.87-3.94S1939.41,2400,1938.28,2409.09Z" transform="translate(-672.17 -536.02)"/><g class="cls-2"><path class="cls-3" d="M1938.28,2409.09c-.69,5.59,1.6,51.73,1.6,51.73l31.88,3.93c21.94,2.71,42.54-17.82,46-45.85s-11.52-53-33.47-55.66l-31.87-3.94S1939.41,2400,1938.28,2409.09Z" transform="translate(-672.17 -536.02)"/></g><path class="cls-3" d="M1975.6,2475a41.31,41.31,0,0,1-5.07-.31l-31.87-3.94a10,10,0,0,1-8.77-9.43c-.7-14.13-2.25-47.63-1.53-53.45h0c1.18-9.56,12.31-44.66,14.53-51.61a10,10,0,0,1,10.75-6.87l31.88,3.93c13.73,1.69,25.66,9.9,33.61,23.11,7.46,12.42,10.51,27.94,8.56,43.7C2023.81,2451.51,2001,2475,1975.6,2475Zm-26.13-23.07,23.51,2.91c16.48,2,32.08-14.64,34.86-37.16,1.4-11.35-.68-22.34-5.85-31-4.71-7.82-11.43-12.64-18.93-13.56l-23.61-2.92c-4.76,15.25-10.59,34.93-11.24,40C1947.92,2413.51,1948.58,2432.67,1949.47,2451.92Zm-11.19-42.83h0Z" transform="translate(-672.17 -536.02)"/><ellipse class="cls-22" cx="1946.15" cy="2410.06" rx="51.14" ry="40.04" transform="translate(-1356.4 3510.19) rotate(-82.96)"/><g class="cls-2"><path class="cls-3" d="M1985.89,2415c-3.45,28-24.05,48.56-46,45.86s-37-27.64-33.47-55.69a61.57,61.57,0,0,1,2.33-10.94c3.26,20,16.11,35.47,33.16,37.55,18.95,2.34,36.92-12.65,43.66-34.89A64.29,64.29,0,0,1,1985.89,2415Z" transform="translate(-672.17 -536.02)"/></g><path class="cls-1" d="M1985.89,2415a53.83,53.83,0,0,1-1,5.61c-1.65-22.5-15.24-40.66-33.78-42.94-20.45-2.51-39.76,15.14-45,40.27a64.52,64.52,0,0,1,.31-12.77c3.45-28,24-48.56,46-45.86S1989.34,2386.92,1985.89,2415Z" transform="translate(-672.17 -536.02)"/><path class="cls-3" d="M1943.72,2471.05a41,41,0,0,1-5.06-.31c-13.74-1.69-25.67-9.9-33.61-23.11-7.47-12.42-10.51-27.94-8.57-43.7h0c2-15.77,8.67-30.08,18.94-40.32,10.91-10.87,24.48-15.92,38.22-14.23s25.67,9.9,33.61,23.1c7.47,12.42,10.51,27.94,8.56,43.71C1991.94,2447.58,1969.14,2471.05,1943.72,2471.05Zm4.82-102c-6.64,0-13.3,3-19,8.72-7.12,7.09-11.81,17.25-13.21,28.6h0c-1.4,11.35.68,22.34,5.86,30.95,4.7,7.82,11.42,12.64,18.92,13.56,16.43,2,32.07-14.64,34.85-37.15,1.41-11.35-.67-22.34-5.85-30.95-4.7-7.82-11.42-12.64-18.92-13.57A23.56,23.56,0,0,0,1948.54,2369.06Zm-42.13,36.09h0Z" transform="translate(-672.17 -536.02)"/><path class="cls-3" d="M1848.55,2547.28a10.93,10.93,0,0,1-1.27-.07A12,12,0,0,1,1836.6,2534l10.41-98.76-39.72-32.77a12,12,0,0,1-4.27-10.76l17.22-137a12,12,0,1,1,23.82,3l-16.41,130.41,39.6,32.67a12,12,0,0,1,4.3,10.51l-11.08,105.18A12,12,0,0,1,1848.55,2547.28Z" transform="translate(-672.17 -536.02)"/><path class="cls-1" d="M2426.16,2362.28s27.29,22.67,23,56.34c-4.93,38.92-35,53.92-35,53.92s-102.71,54.09-316.24,9.52c0,0-46.15-65.13,23.1-99.21C2121,2382.85,2313.2,2443.76,2426.16,2362.28Z" transform="translate(-672.17 -536.02)"/><g class="cls-10"><path class="cls-3" d="M2449.27,2417.86h0c-4.64,39.48-35.16,54.68-35.16,54.68s-102.7,54.08-316.23,9.53c0,0-35.27-49.78,2.11-85.07,0,.24,0,.48,0,.72.54,24.82,19,45.71,43.49,50,194.24,34.27,287.84-15,287.84-15S2440.34,2428.27,2449.27,2417.86Z" transform="translate(-672.17 -536.02)"/></g><path class="cls-3" d="M2257.23,2512.26c-44.53,0-98.4-4.71-161.89-18l-4.81-1-2.84-4c-1-1.4-24.2-34.71-15.34-69.63,5.16-20.32,19.66-36.48,43.12-48l4.51-2.21,4.79,1.51c1.86.59,187.6,58,294.07-18.78l7.85-5.67,7.45,6.19c1.33,1.1,32.52,27.5,27.45,67.52-5.72,45-40.41,62.8-41.89,63.54C2416.81,2485.26,2363.8,2512.26,2257.23,2512.26Zm-151.56-41.36c202.13,41,301.68-8.93,302.67-9.44s24.46-13,28.44-44.42c2.18-17.12-6.1-30.85-12.31-38.5-108,69.14-270.86,26.85-302.2,17.75-14,7.82-22.65,17.69-25.66,29.4C2092,2443.79,2101.06,2462.84,2105.67,2470.9Z" transform="translate(-672.17 -536.02)"/><path class="cls-3" d="M2744.34,2161.54a16.25,16.25,0,0,1-2.19-.16c-58.67-8.71-138.09-58.3-183.27-245.17-.61-2.53-1.06-4.41-1.36-5.54a14.76,14.76,0,0,1,23.53-16.6c3.64,3.29,4.25,5.81,6.52,15.2,32.25,133.33,88.68,212.49,158.91,222.9a14.76,14.76,0,0,1-2.14,29.37ZM2561.27,1916h0Zm0,0h0Z" transform="translate(-672.17 -536.02)"/><path class="cls-9" d="M2021.09,2188.64c.08,13.32-9,24-23.8,31.32-28,13.68-76.32,15.32-122.16-.44-32.64-11.24-59-32.92-80-58.24a306.54,306.54,0,0,1-32.76-48.84c-28.76-52.56-39.84-103.2-39.84-103.2,21.84-48,151-19,151-19s75.24,102.8,129.4,163.24c.84.92,1.64,1.84,2.44,2.76,10.24,11.32,15.12,21.64,15.68,30.76C2021.05,2187.52,2021.09,2188.08,2021.09,2188.64Z" transform="translate(-672.17 -536.02)"/><path class="cls-3" d="M1941.49,2246.82a222.69,222.69,0,0,1-71.58-12.17c-122.4-42.1-161.44-214.68-163-222a16,16,0,0,1,1.07-10c25.93-57,145.37-33.35,169-28a16,16,0,0,1,9.41,6.17c.78,1,77.69,106,130.82,164.72,29.85,33,18.68,58.35,12.49,67.72C2015.33,2235,1981.22,2246.82,1941.49,2246.82Zm-201.86-235c7.83,29.79,47.08,160.33,140.69,192.53,58.12,20,111.49,8.12,122.68-8.84,4.59-7,1.4-16.59-9.5-28.62-48.22-53.28-113.18-140.53-129.29-162.37C1820,1995.59,1756.12,1992.58,1739.63,2011.86Zm-17.13-2.63h0Z" transform="translate(-672.17 -536.02)"/><path class="cls-9" d="M2369.53,2050.16c-25.08,64.88-87.48,142.32-191.16,175.64-73.88,23.72-148,16.64-181.08-5.84-11.92-8.12-18.52-18.24-17.8-29.64a23.59,23.59,0,0,1,.44-3.72,38.89,38.89,0,0,1,6.32-14.44,97.53,97.53,0,0,1,16.64-18.72c36.32-31.84,93.8-42.24,163.12-157.16,21.76-36,179.6-71.48,206.4-41a28.53,28.53,0,0,1,3.16,4.32C2386.25,1977.36,2384.49,2011.52,2369.53,2050.16Z" transform="translate(-672.17 -536.02)"/><path class="cls-3" d="M2085.09,2256.66c-50.64,0-93.85-13.3-112.42-38-12.41-16.55-12.3-36.75.32-55.4,14.42-21.34,32.92-32.91,54.33-46.31,33.81-21.15,75.89-47.47,125-128.87,19.82-32.84,103.54-54.77,153.89-59.25,39.51-3.51,65.83,1.87,78.22,16h0c15.48,17.62,18.19,50,7.44,88.89-19.66,71.07-86.08,168-208.59,207.37A325.9,325.9,0,0,1,2085.09,2256.66Zm243-296.92c-5.51,0-11.84.27-19.09.92-57.5,5.11-120.21,28.81-129.32,43.9-53.07,87.94-100.67,117.73-135.44,139.47-19.09,11.95-34.16,21.38-44.79,37.1-6.23,9.2-4.27,14.23-1.23,18.28,16.62,22.16,93.15,37.53,175.24,11.16,110.36-35.45,170-122,187.53-185.43,8.5-30.74,5.8-51.91-.65-59.26h0C2358.63,1963.87,2349.67,1959.74,2328.14,1959.74Z" transform="translate(-672.17 -536.02)"/><ellipse class="cls-3" cx="2055.67" cy="2188.73" rx="12.36" ry="14.62" transform="matrix(1, -0.03, 0.03, 1, -729.98, -480.25)"/><path class="cls-3" d="M2101.55,2185.62a462.92,462.92,0,0,0,58.77-23.29,361.91,361.91,0,0,0,53.94-31.28,238.4,238.4,0,0,0,23.94-19.53,220.23,220.23,0,0,0,21.16-22.17,197.71,197.71,0,0,0,31-52.2l.05-.12a7.5,7.5,0,0,1,14,5.39,182.21,182.21,0,0,1-33.37,56.71c-14.17,16.84-31.24,30.87-49.4,42.69a278.36,278.36,0,0,1-57.8,28.84C2143.64,2178,2122.76,2183.37,2101.55,2185.62Z" transform="translate(-672.17 -536.02)"/><path class="cls-1" d="M2504.3,1734.55h0a9.74,9.74,0,0,1-11.12-8.12L2450,1449.49a9.74,9.74,0,0,1,8.12-11.12h0a102.1,102.1,0,0,1,116.58,85.16l14.71,94.44A102.08,102.08,0,0,1,2504.3,1734.55Z" transform="translate(-672.17 -536.02)"/><path class="cls-3" d="M2502.79,1737.67a12.76,12.76,0,0,1-12.57-10.77l-43.15-277a12.76,12.76,0,0,1,10.62-14.55,105.11,105.11,0,0,1,120,87.66l14.71,94.44a105.08,105.08,0,0,1-87.66,120A13.17,13.17,0,0,1,2502.79,1737.67Zm-28.71-297.53a99.7,99.7,0,0,0-15.46,1.21A6.73,6.73,0,0,0,2453,1449L2496.15,1726a6.76,6.76,0,0,0,7.68,5.61h0a99.08,99.08,0,0,0,82.65-113.15L2571.77,1524a99.13,99.13,0,0,0-97.69-83.85Z" transform="translate(-672.17 -536.02)"/><g class="cls-2"><path class="cls-3" d="M2582.55,1573.68l6.91,44.29a102.13,102.13,0,0,1-85.17,116.6,9.75,9.75,0,0,1-11.11-8.14l-11.5-73.62a9.77,9.77,0,0,0,9.64,4.35l6.57-1.05A102,102,0,0,0,2582.55,1573.68Z" transform="translate(-672.17 -536.02)"/></g><path class="cls-3" d="M2502.78,1751.4a26.51,26.51,0,0,1-26.13-22.38l-43.14-277a26.5,26.5,0,0,1,22.07-30.22A118.81,118.81,0,0,1,2591.27,1521l14.72,94.44a118.83,118.83,0,0,1-99.11,135.69h0A26,26,0,0,1,2502.78,1751.4Zm-1-33.39h0Zm-34-263.9,40.9,262.55a85.37,85.37,0,0,0,64.32-96.12l-14.72-94.44a85.36,85.36,0,0,0-90.5-72Z" transform="translate(-672.17 -536.02)"/><path class="cls-1" d="M1544,1580.78h0a9.75,9.75,0,0,1,11.12,8.12l43.14,276.95a9.73,9.73,0,0,1-8.12,11.11h0a102.09,102.09,0,0,1-116.58-85.15l-14.71-94.44A102.09,102.09,0,0,1,1544,1580.78Z" transform="translate(-672.17 -536.02)"/><path class="cls-3" d="M1574.23,1881.21a105.16,105.16,0,0,1-103.62-88.94l-14.71-94.44a105.21,105.21,0,0,1,87.66-120h0a12.75,12.75,0,0,1,14.55,10.63l43.14,276.94a12.75,12.75,0,0,1-10.62,14.55A107,107,0,0,1,1574.23,1881.21Zm-28.7-297.54a7.28,7.28,0,0,0-1,.08h0a99.2,99.2,0,0,0-82.65,113.15l14.71,94.44A99.08,99.08,0,0,0,1589.7,1874a6.74,6.74,0,0,0,5.61-7.68l-43.15-276.94A6.73,6.73,0,0,0,1545.53,1583.67Z" transform="translate(-672.17 -536.02)"/><g class="cls-2"><path class="cls-3" d="M1586.33,1789l12,76.84a9.74,9.74,0,0,1-8.13,11.11,102,102,0,0,1-116.57-85.14l-6.2-39.79A102.14,102.14,0,0,0,1568.51,1797l10.11-1.58A9.81,9.81,0,0,0,1586.33,1789Z" transform="translate(-672.17 -536.02)"/></g><path class="cls-3" d="M1574.2,1894.94a118.89,118.89,0,0,1-117.15-100.56l-14.72-94.44a119,119,0,0,1,99.12-135.69,26.52,26.52,0,0,1,30.22,22.07l43.15,277a26.47,26.47,0,0,1-22.08,30.22A119.77,119.77,0,0,1,1574.2,1894.94Zm-34.48-296.26a85.47,85.47,0,0,0-64.32,96.11l14.72,94.44a85.38,85.38,0,0,0,90.5,72Z" transform="translate(-672.17 -536.02)"/><g class="cls-2"><path class="cls-3" d="M2378.57,2039.16a506.06,506.06,0,0,1-310.39,140.6q-24,2-47.73,1.72-21.33-.12-42.3-2.09a505.67,505.67,0,0,1-223.65-76.22c-29.56-54-40.94-106.07-40.94-106.07,22.44-49.33,155.19-19.57,155.19-19.57s77.33,105.66,133,167.77c37.32-32.72,96.4-43.41,167.65-161.52,22.36-37,184.59-73.47,212.13-42.1a30.15,30.15,0,0,1,3.25,4.44C2395.76,1964.33,2394,1999.44,2378.57,2039.16Z" transform="translate(-672.17 -536.02)"/></g><circle class="cls-1" cx="1352.05" cy="1121.64" r="477.63"/><path class="cls-3" d="M2023.87,2138.32c-247,0-457.63-190-478.61-440.55-22.12-264.1,174.75-496.95,438.84-519.07,128-10.72,252.39,29,350.43,111.92s157.94,199,168.65,326.92h0c22.12,264.1-174.75,497-438.85,519.08Q2044,2138.33,2023.87,2138.32ZM2025,1183q-20.12,0-40.4,1.7c-260.8,21.84-455.2,251.78-433.36,512.58,20.72,247.38,228.7,435,472.62,435q19.85,0,40-1.67c260.79-21.85,455.2-251.79,433.35-512.58-10.57-126.34-69.72-241-166.53-322.84C2244.19,1222.11,2136.94,1183,2025,1183Z" transform="translate(-672.17 -536.02)"/><g class="cls-2"><path class="cls-3" d="M2490.1,1552.29a473.8,473.8,0,0,1,10.09,65.51c22,262.86-173.26,493.8-436.11,515.84s-493.81-173.26-515.85-436.12c-.63-7.56-1.09-15.14-1.35-22.62,51.49,229,265.23,390.75,505.75,370.61C2307.93,2024.11,2499.4,1805.67,2490.1,1552.29Z" transform="translate(-672.17 -536.02)"/></g><path class="cls-3" d="M2023.86,2152c-254.09,0-470.7-195.44-492.28-453.12-22.75-271.64,179.74-511.15,451.38-533.9,131.58-11,259.59,29.86,360.43,115.11s162.45,204.68,173.47,336.27h0c22.75,271.64-179.74,511.15-451.38,533.9C2051.52,2151.47,2037.62,2152,2023.86,2152Zm1.13-955.32q-19.53,0-39.24,1.65c-253.25,21.21-442,244.5-420.82,497.75,20.12,240.23,222.09,422.44,459,422.45q19.27,0,38.8-1.62c253.26-21.21,442-244.51,420.83-497.76h0c-10.28-122.68-67.71-234-161.73-313.5C2237.83,1234.71,2133.68,1196.72,2025,1196.72Z" transform="translate(-672.17 -536.02)"/><path class="cls-3" d="M2499.68,1630.15c9.21,93-12.43,182.35-57,258.91-33.41,57.39-183.27,166.88-379.6,188.1-182,19.67-357.43-61.06-401.45-110.79-58.71-66.34-97.45-149.7-106.65-242.71-24.37-246.14,177-369.1,437.89-394.93S2475.32,1384,2499.68,1630.15Z" transform="translate(-672.17 -536.02)"/><path class="cls-3" d="M2005.27,2097c-166.75,0-314.34-72.25-356.17-119.51-63.21-71.43-101.52-158.62-110.78-252.15-11.93-120.56,28.91-222.48,118.1-294.73,78.52-63.62,194.29-104.59,334.8-118.5s262.07,3.58,351.53,50.56c101.63,53.37,161.65,145.3,173.58,265.86,9.27,93.53-11.2,186.54-59.19,269-33.34,57.28-182.63,173.68-392.26,196.33A556.4,556.4,0,0,1,2005.27,2097Zm77.22-756.08q-42.39,0-88,4.5c-134,13.26-243.6,51.71-317,111.19-81.17,65.76-116.79,155.06-105.86,265.43,8.56,86.48,44,167.15,102.53,233.27,41.46,46.84,210.92,124.3,387.12,105.24,195.33-21.1,337.51-129.33,366.94-179.88,44.42-76.31,63.37-162.36,54.81-248.85h0c-10.93-110.36-63.36-191-155.84-239.52C2262.48,1358.29,2179,1340.89,2082.49,1340.89Z" transform="translate(-672.17 -536.02)"/><g class="cls-13"><ellipse class="cls-1" cx="2342.86" cy="1611.91" rx="84.53" ry="61.25" transform="translate(-124.6 3281.37) rotate(-85.38)"/></g><g class="cls-13"><ellipse class="cls-1" cx="2284.68" cy="1785.92" rx="38.8" ry="33.29" transform="translate(-627.49 3091.54) rotate(-77.44)"/></g><g class="cls-2"><path class="cls-23" d="M2385.09,1409.62c63.19,49.39,104.79,121.66,114.59,220.51,9.21,93-12.46,182.37-57,258.92-33.42,57.4-183.29,166.89-379.62,188.13-69.32,7.51-137.65.43-198.17-14,240.77-31.25,423.24-165.49,464.67-236.67,56.56-97.17,84-210.57,72.33-328.59A484.06,484.06,0,0,0,2385.09,1409.62Z" transform="translate(-672.17 -536.02)"/></g><path class="cls-3" d="M1569.77,1527.24a16.81,16.81,0,0,1-14.4-25.48c72-132,228.1-219.06,428.3-238.88,198.94-19.68,368.87,32.84,466.32,144.11a16.74,16.74,0,0,1-22,25l-1.59-1.14-1.36-1.52c-90.19-103.21-249.86-151.72-438-133.11-189.21,18.74-335.89,99.65-402.43,222l-1.09,1.73A16.35,16.35,0,0,1,1569.77,1527.24Z" transform="translate(-672.17 -536.02)"/><g class="cls-13"><path class="cls-1" d="M1675.55,1859.58s-100.26-235.26,21-345,309.59-128,306.38-115.45c0,0-203.43,71.09-268.68,243.94C1684,1776.38,1675.55,1859.58,1675.55,1859.58Z" transform="translate(-672.17 -536.02)"/></g><path class="cls-1" d="M1219.56,2060.33S1119,2089.82,1129.38,2128s61.78,83.24,96.25,69.58c51.46-20.39,0-79.55,0-79.55s61.13,70.52,122.91,49.64" transform="translate(-672.17 -536.02)"/><path class="cls-3" d="M1220.31,2062.89c-12.35,8.14-24.69,15.59-36.4,23.21-11.54,7.72-22.94,15.61-31,24-3.86,4-6.81,8.43-7,10.72a3,3,0,0,0,.06,2.31,22.84,22.84,0,0,0,1,2.92,38.92,38.92,0,0,0,1.45,3.85,107.58,107.58,0,0,0,20.35,30.11,90.13,90.13,0,0,0,6.75,6.52,72.21,72.21,0,0,0,7.22,5.83c2.43,2,5.08,3.29,7.59,5,2.61,1.19,5.22,2.85,7.84,3.65a34.52,34.52,0,0,0,14.74,2.87c1.06-.14,2.11-.22,3.18-.26a21.2,21.2,0,0,1,2.77-.88c.85,0,2.2-.91,3.31-1.36s2-1.21,3.09-1.76c3.68-2.58,5.29-4.85,6-7.53s.49-7-1.11-12a74.34,74.34,0,0,0-7.28-15.58c-1.58-2.63-3.3-5.25-5.13-7.8s-3.87-5.31-5.41-7.13l26.6-23.09c1.3,1.48,3.34,3.63,5.13,5.43l5.7,5.61c3.86,3.71,7.88,7.28,12,10.64a181.12,181.12,0,0,0,25.82,18.23,152.56,152.56,0,0,0,27.89,13.21,127.54,127.54,0,0,0,15.29,3.94,140.7,140.7,0,0,0,16.89,1.59h.15a2.81,2.81,0,0,1,1.56,5c-10.18,7.7-23.54,11.58-36.85,11.81a97.46,97.46,0,0,1-38.5-7.78c-12-4.93-22.88-11.77-33.2-19q-7.6-5.66-14.68-11.91-3.57-3.09-6.94-6.46c-2.32-2.33-4.33-4.37-6.9-7.25a17.61,17.61,0,1,1,26.28-23.45c.09.09.24.27.32.36a119.67,119.67,0,0,1,7.71,10.07c2.3,3.37,4.47,6.84,6.52,10.45a99.19,99.19,0,0,1,10,24c2.31,8.83,3.45,19.54,0,30.71a44.26,44.26,0,0,1-8.36,15.12,50.94,50.94,0,0,1-12.17,10.37c-2.12,1.15-4.29,2.49-6.42,3.39a49.27,49.27,0,0,1-6.72,2.66c-2.52.75-5.08,1.45-7.63,2.08-2.53.28-5.08.51-7.62.69a68.1,68.1,0,0,1-14.43-1.23l-6.76-1.54-6.29-2.19c-16.57-6.24-29.81-16.09-41.76-27.21s-21.86-24.48-28.66-40.61a52.17,52.17,0,0,1-2.27-6.3,46.71,46.71,0,0,1-1.93-7.48,40,40,0,0,1-.49-9.79,42.61,42.61,0,0,1,2-9.22,46.07,46.07,0,0,1,8.17-14.19,67.62,67.62,0,0,1,9.89-9.8c13.71-10.68,28-16.61,42.58-21.09a166.37,166.37,0,0,1,44.49-7.54,2.76,2.76,0,0,1,1.59,5.06Z" transform="translate(-672.17 -536.02)"/><g class="cls-2"><path class="cls-3" d="M2714.33,1349.76c-.16.28-.24.4-.24.4S2714.25,1349.88,2714.33,1349.76Z" transform="translate(-672.17 -536.02)"/></g><path class="cls-4" d="M2714.09,1394.16c.08-.12.16-.28.24-.4C2714.17,1394,2714.09,1394.16,2714.09,1394.16Z" transform="translate(-672.17 -536.02)"/><path class="cls-4" d="M2714.33,1393.76c26-44.36,48.28-121.52,45.92-158.68-21.12-334.32-333.48,156.16-760.44,206.44-443.64,36.92-587.8-282.32-743.16-200-71.64,38-42.76,153.44.08,218,49.24,74.12,138.56,134.84,182.88,154.12,0,0-255.52-77.2-278.72-272.72-18.8-158.4,59.64-198.68,182.56-194.76,176.52,5.56,444.84,102.32,648.64,71.08,258.68-39.6,411.64-104,516.12-150,112.4-49.6,168.64-78,240-31.52C2887.61,1126.44,2721.81,1382.4,2714.33,1393.76Z" transform="translate(-672.17 -536.02)"/><g class="cls-2"><path class="cls-3" d="M2508.21,1067.16c-172.08,134.24-519,243.36-726.8,207.52-133.12-23-395.2-113.64-438-128.56,176.52,5.56,444.84,102.32,648.64,71.08C2250.77,1177.6,2403.73,1113.2,2508.21,1067.16Z" transform="translate(-672.17 -536.02)"/></g><g class="cls-5"><path class="cls-1" d="M1999.81,1441.52c-443.64,36.92-587.8-282.32-743.16-200-71.64,38-42.76,153.44.08,218,49.24,74.12,138.56,134.84,182.88,154.12,0,0-54.28-16.4-115.12-53.24-21.68-48.64-75.24-94-106.68-138.64-56.92-80.84-34.12-193.72,42.48-220.24,145.6-50.4,295.88,228.52,739.52,191.64,427-50.32,787.75-572.27,776.81-137.87-.2,7.94-16.49-50.85-18-40C2726.09,921,2417.89,1392.28,1999.81,1441.52Z" transform="translate(-672.17 -536.02)"/></g><path class="cls-3" d="M1439.61,1629.6a15.86,15.86,0,0,1-4.64-.69c-10.84-3.27-265.8-82.59-290-286.13-9.47-79.87,4.23-135.71,41.89-170.72,74.45-69.21,224.31-40.26,397.83-6.72,132.69,25.64,283.09,54.7,405,36.05,268.53-41.13,423.62-109.75,526.24-155.15,103.18-45.66,165.47-73.21,241-24,31.49,20.51,51.4,50,59.17,87.71,24.86,120.56-84,286.09-88.66,293.07a16,16,0,0,1-27.11-17c24.36-41.34,46.15-115.61,44-149.93-3.47-54.76-15.12-87.45-34.65-97.17-37.14-18.5-117.71,34.72-211,96.33-127.2,84-301.4,199.11-497,222.15l-.55.06c-257.2,21.39-416.48-75-532.75-145.29-84.27-51-145.15-87.82-204.22-56.53-16.43,8.7-26.85,22.5-31.85,42.19-11.57,45.53,10.24,111.32,37.77,152.77,46.21,69.6,130.69,128.63,175.92,148.32a16,16,0,0,1-6.38,30.67ZM1328,1162c-51.28,0-93,9.06-119.34,33.54-29.65,27.57-40.09,74.51-31.9,143.52,7.69,64.82,43.2,116.17,86,155.48-6.93-8.53-13.43-17.28-19.34-26.18-31.48-47.4-56.71-120.93-42.13-178.35,7.15-28.14,23.71-49.78,47.89-62.59,75.09-39.78,146,3.12,235.76,57.43,112.49,68,266.52,161.26,513.26,140.8,187.95-22.22,351.46-130.24,482.85-217,109.85-72.57,189.22-125,242.88-98.28,29.95,14.91,46.47,51.51,51.67,114.83,10.69-37.1,16-75.44,9.16-108.75-6.07-29.4-20.88-51.43-45.28-67.32-61-39.73-107.88-19-210.59,26.46-104.18,46.09-261.61,115.75-534.35,157.52-127.33,19.51-280.62-10.13-415.86-36.26C1487.14,1179.07,1398.56,1162,1328,1162Z" transform="translate(-672.17 -536.02)"/></svg>